<svg width="512" height="512" viewBox="0 0 512 512" fill="none" xmlns="http://www.w3.org/2000/svg">
<path d="M136 272V289.136C122.232 292.712 112 305.128 112 320C112 337.648 126.352 352 144 352C152.824 352 160 359.176 160 368C160 376.824 152.824 384 144 384C135.176 384 128 376.824 128 368H112C112 382.872 122.232 395.288 136 398.864V416H152V398.864C165.768 395.288 176 382.872 176 368C176 350.352 161.648 336 144 336C135.176 336 128 328.824 128 320C128 311.176 135.176 304 144 304C152.824 304 160 311.176 160 320H176C176 305.128 165.768 292.712 152 289.136V272H136Z" fill="black"/>
<path d="M161.6 195.2L144 182L126.408 195.2C94.5151 219.01 55.8007 231.914 16.0001 232H8.00011V332.064C7.95514 371.546 21.1329 409.906 45.4314 441.025C69.7299 472.144 103.75 494.23 142.064 503.76L144 504.248L145.936 503.752C184.251 494.225 218.271 472.141 242.57 441.023C266.869 409.905 280.046 371.545 280 332.064V232H272C232.202 231.915 193.49 219.011 161.6 195.2ZM264 332.064C264.041 367.633 252.283 402.212 230.568 430.383C208.853 458.555 178.408 478.728 144 487.744C109.592 478.728 79.1468 458.555 57.4318 430.383C35.7168 402.212 23.9591 367.633 24.0001 332.064V247.832C64.4935 246.127 103.53 232.245 136.008 208L144 202L152 208C184.474 232.246 223.509 246.129 264 247.832V332.064Z" fill="black"/>
<path d="M495.232 67.9201L461.08 33.7681C452.927 25.573 443.229 19.076 432.548 14.653C421.868 10.2299 410.416 7.96871 398.856 8.00008H217.728C204.678 8.00195 191.873 11.5467 180.68 18.2561L168 25.8721V8.00008H8V152H168V136H197.632C214.176 146.48 233.216 152 252.84 152H264V184C264 201.648 278.352 216 296 216C313.648 216 328 201.648 328 184V147.552C337.52 142 344 131.792 344 120C343.96 116.441 343.319 112.914 342.104 109.568C347.37 105.947 353.609 104.006 360 104C377.648 104 392 118.352 392 136V440H377.224L366.552 504H481.44L470.768 440H456V136C456 127.792 454.848 119.76 452.848 111.992C458.356 117.093 465.573 119.949 473.08 120H474.08C482.012 119.989 489.616 116.834 495.225 111.225C500.834 105.616 503.989 98.0121 504 90.0801V89.0801C504 81.2001 500.808 73.4961 495.232 67.9201ZM152 136H24V24.0001H152V136ZM312 184C312 192.824 304.824 200 296 200C287.176 200 280 192.824 280 184V152H312V184ZM457.224 456L462.552 488H385.44L390.768 456H456H457.224ZM408 440V136C408 109.528 386.472 88.0001 360 88.0001C350.466 88.0133 341.158 90.8987 333.288 96.2801C327.464 90.9769 319.877 88.0261 312 88.0001H291.312L300.28 79.0321C302.504 76.7952 305.149 75.0219 308.063 73.8148C310.977 72.6077 314.102 71.9909 317.256 72.0001H402.744C405.768 72.0001 408.688 72.6001 411.424 73.6641L410.904 74.2881C420.016 81.7822 427.352 91.2046 432.384 101.876C437.415 112.547 440.016 124.202 440 136V440H408ZM488 90.0801C488 97.7601 481.76 104 474.08 104H473.08C469.416 104 465.832 102.512 463.24 99.9201L431.04 67.7201C427.332 63.994 422.922 61.0397 418.065 59.0281C413.208 57.0164 408.001 55.9873 402.744 56.0001H317.256C312 55.9866 306.794 57.0154 301.938 59.0271C297.083 61.0389 292.674 63.9935 288.968 67.7201L268.688 88.0001H256V104H312C320.824 104 328 111.176 328 120C328 128.824 320.824 136 312 136H252.84C235.609 136.014 218.762 130.913 204.432 121.344L202.424 120H168V44.5281L188.904 31.9761C197.614 26.7598 207.576 24.0033 217.728 24.0001H398.864C418.096 24.0001 436.176 31.4961 449.776 45.0881L483.928 79.2401C486.52 81.8321 488.008 85.4161 488.008 89.0801L488 90.0801Z" fill="black"/>
<path d="M40 344C40 401.344 86.656 448 144 448C201.344 448 248 401.344 248 344C248 286.656 201.344 240 144 240C86.656 240 40 286.656 40 344ZM232 344C232 392.52 192.52 432 144 432C95.48 432 56 392.52 56 344C56 295.48 95.48 256 144 256C192.52 256 232 295.48 232 344Z" fill="black"/>
<path d="M200 336H216V352H200V336ZM72 336H88V352H72V336Z" fill="black"/>
</svg>
