<svg width="512" height="512" viewBox="0 0 512 512" fill="none" xmlns="http://www.w3.org/2000/svg">
<path d="M503.471 2.66825e-07H8.53333C7.413 -0.000279922 6.30358 0.220109 5.26842 0.648583C4.23326 1.07706 3.29263 1.70523 2.50024 2.49722C1.70785 3.28922 1.07921 4.22954 0.650215 5.26448C0.221224 6.29943 0.000280118 7.40873 0 8.52907L0 179.2H17.0667V17.0667H494.933V204.8H196.267V221.867H503.467C504.587 221.867 505.696 221.647 506.732 221.218C507.767 220.79 508.707 220.161 509.5 219.369C510.292 218.577 510.921 217.637 511.35 216.602C511.779 215.567 512 214.458 512 213.338V8.53333C512 7.413 511.78 6.30358 511.351 5.26842C510.923 4.23326 510.295 3.29263 509.503 2.50024C508.711 1.70785 507.77 1.07921 506.736 0.650216C505.701 0.221224 504.591 0.000280385 503.471 2.66825e-07Z" fill="black"/>
<path d="M281.6 42.6666H452.267V59.7333H281.6V42.6666ZM307.2 93.8666H477.867V110.933H307.2V93.8666ZM273.067 145.067H443.733V162.133H273.067V145.067ZM272.386 73.5722C266.544 59.5296 250.425 52.8821 236.383 58.7242C236.143 58.8245 235.904 58.9269 235.667 59.0336L166.475 94.9269C169.203 89.2718 170.635 83.0789 170.667 76.8C170.667 53.2362 151.564 34.1333 128 34.1333C104.436 34.1333 85.3333 53.2362 85.3333 76.8C85.3654 86.062 88.4405 95.0568 94.0853 102.4H93.7301C69.5083 102.562 47.8859 117.62 39.3344 140.284L16.5547 218.8C11.1317 232.886 18.1547 248.703 32.2421 254.126C38.6659 256.598 45.7861 256.557 52.1803 254.009C55.8119 252.545 59.0902 250.325 61.7966 247.496C64.5031 244.667 66.5757 241.293 67.8763 237.6L76.8 209.2V332.702C69.4564 327.058 60.4619 323.983 51.2 323.95C27.6715 323.915 8.56853 342.96 8.53333 366.49C8.52477 372.193 9.66153 377.84 11.8762 383.096C14.0909 388.352 17.3384 393.11 21.4261 397.087C14.997 400.372 9.59664 405.363 5.81713 411.514C2.03763 417.666 0.0250153 424.739 2.66825e-07 431.958V503.467C-0.000279922 504.587 0.220109 505.696 0.648583 506.732C1.07706 507.767 1.70523 508.707 2.49722 509.5C3.28922 510.292 4.22954 510.921 5.26448 511.35C6.29943 511.779 7.40873 512 8.52907 512H93.8667C94.987 512 96.0964 511.78 97.1316 511.351C98.1667 510.923 99.1074 510.295 99.8998 509.503C100.692 508.711 101.321 507.77 101.75 506.736C102.179 505.701 102.4 504.591 102.4 503.471V431.958C102.38 425.99 100.997 420.105 98.3583 414.752C95.7195 409.398 91.8936 404.718 87.1723 401.067H151.762C147.04 404.717 143.214 409.398 140.575 414.751C137.937 420.105 136.554 425.99 136.534 431.958V503.467C136.534 504.587 136.755 505.696 137.183 506.732C137.611 507.767 138.24 508.707 139.032 509.5C139.824 510.292 140.764 510.921 141.799 511.35C142.834 511.779 143.943 512 145.063 512H230.401C231.521 512 232.631 511.78 233.666 511.351C234.701 510.923 235.642 510.295 236.434 509.503C237.227 508.711 237.855 507.77 238.284 506.736C238.713 505.701 238.934 504.591 238.934 503.471V431.958C238.909 424.739 236.897 417.666 233.117 411.514C229.338 405.363 223.937 400.372 217.508 397.087C234.356 380.642 234.684 353.652 218.239 336.804C213.255 331.698 207.07 327.925 200.249 325.83C193.429 323.735 186.192 323.385 179.201 324.813V150.25L257.538 109.574C271.58 103.733 278.227 87.6138 272.386 73.5722ZM128 51.2C142.139 51.2 153.6 62.6613 153.6 76.8C153.6 90.9386 142.139 102.4 128 102.4C113.868 102.385 102.415 90.9322 102.4 76.8C102.4 62.6613 113.861 51.2 128 51.2ZM51.2 341.017C65.3387 341.017 76.8 352.478 76.8 366.617C76.8 380.755 65.3387 392.217 51.2 392.217C37.0613 392.217 25.6 380.755 25.6 366.617C25.6149 352.484 37.0677 341.033 51.2 341.017ZM85.3333 494.933H17.0667V431.958C17.0837 419.616 27.0859 409.615 39.4293 409.6H62.9707C75.3131 409.615 85.3163 419.616 85.3333 431.958V494.933ZM221.867 431.958V494.933H153.6V431.958C153.617 419.616 163.619 409.615 175.963 409.6H199.504C211.847 409.615 221.85 419.616 221.867 431.958ZM187.733 341.017C201.866 341.031 213.318 352.484 213.333 366.617C213.333 380.755 201.872 392.217 187.733 392.217C173.595 392.217 162.133 380.755 162.133 366.617C162.133 352.478 173.595 341.017 187.733 341.017ZM256.771 87.808C256.206 89.2572 255.34 90.5698 254.229 91.6588C253.119 92.7478 251.79 93.5884 250.33 94.1248L166.738 137.491C165.35 138.211 164.187 139.298 163.375 140.634C162.563 141.97 162.134 143.503 162.133 145.067V332.702C146.149 344.521 140.612 365.91 148.855 384H136.533V238.933H119.467V384H90.0779C92.5052 378.635 93.7848 372.822 93.8347 366.933H93.8667V153.6C93.8666 151.561 93.1364 149.59 91.8085 148.043C90.4805 146.495 88.6425 145.475 86.6272 145.166C84.6119 144.857 82.5526 145.279 80.8219 146.357C79.0913 147.435 77.8038 149.097 77.1925 151.042L51.712 232.125C49.7813 237.45 43.8987 240.202 38.5739 238.27C38.2 238.134 37.8342 237.977 37.4784 237.799C35.1069 236.574 33.293 234.488 32.4072 231.97C31.5215 229.452 31.6307 226.69 32.7125 224.25L55.4912 145.733C58.4933 138.024 63.7456 131.396 70.5651 126.711C77.3846 122.027 85.4557 119.503 93.7291 119.467H154.15C155.518 119.468 156.866 119.14 158.08 118.509L242.893 74.4842C245.345 73.461 248.095 73.4053 250.587 74.3285C253.079 75.2516 255.128 77.085 256.322 79.4592C256.972 80.7436 257.347 82.1491 257.424 83.5864C257.502 85.0236 257.279 86.4613 256.771 87.808ZM354.041 397.087C370.918 380.643 371.27 353.63 354.827 336.752C338.383 319.874 311.37 319.522 294.492 335.966C277.614 352.41 277.262 379.423 293.706 396.301C293.965 396.566 294.227 396.829 294.493 397.087C288.064 400.372 282.664 405.363 278.884 411.515C275.105 417.666 273.092 424.739 273.067 431.958V503.467C273.066 504.587 273.287 505.696 273.715 506.732C274.144 507.767 274.772 508.707 275.564 509.5C276.356 510.292 277.296 510.921 278.331 511.35C279.366 511.779 280.475 512 281.596 512H366.933C368.054 512 369.163 511.78 370.198 511.351C371.233 510.923 372.174 510.295 372.966 509.503C373.759 508.711 374.387 507.77 374.816 506.736C375.245 505.701 375.466 504.591 375.467 503.471V431.958C375.442 424.739 373.429 417.666 369.65 411.514C365.87 405.363 360.47 400.372 354.041 397.087ZM324.267 341.017C338.405 341.017 349.867 352.478 349.867 366.617C349.867 380.755 338.405 392.217 324.267 392.217C310.128 392.217 298.667 380.755 298.667 366.617C298.682 352.484 310.134 341.033 324.267 341.017ZM358.4 494.933H290.133V431.958C290.15 419.616 300.153 409.615 312.496 409.6H336.037C348.38 409.615 358.383 419.616 358.4 431.958V494.933ZM490.574 397.087C507.452 380.643 507.804 353.63 491.36 336.752C474.916 319.874 447.903 319.522 431.025 335.966C414.147 352.41 413.795 379.423 430.239 396.301C430.498 396.566 430.761 396.829 431.026 397.087C424.597 400.372 419.197 405.363 415.417 411.515C411.638 417.666 409.625 424.739 409.6 431.958V503.467C409.6 504.587 409.82 505.696 410.249 506.732C410.677 507.767 411.305 508.707 412.097 509.5C412.889 510.292 413.83 510.921 414.865 511.35C415.899 511.779 417.009 512 418.129 512H503.467C504.587 512 505.696 511.78 506.732 511.351C507.767 510.923 508.707 510.295 509.5 509.503C510.292 508.711 510.921 507.77 511.35 506.736C511.779 505.701 512 504.591 512 503.471V431.958C511.975 424.739 509.962 417.666 506.183 411.514C502.403 405.363 497.003 400.372 490.574 397.087ZM460.8 341.017C474.939 341.017 486.4 352.478 486.4 366.617C486.4 380.755 474.939 392.217 460.8 392.217C446.661 392.217 435.2 380.755 435.2 366.617C435.215 352.484 446.668 341.033 460.8 341.017ZM494.933 494.933H426.667V431.958C426.684 419.616 436.686 409.615 449.029 409.6H472.571C484.913 409.615 494.916 419.616 494.933 431.958V494.933Z" fill="black"/>
</svg>
