<svg width="573" height="573" viewBox="0 0 573 573" fill="none" xmlns="http://www.w3.org/2000/svg">
<path d="M137.5 0.0722435C140.275 -0.080468 142.994 0.911833 145.013 2.82047C147.033 4.73034 148.179 7.38964 148.179 10.1691V43.786C148.179 46.309 147.237 48.7424 145.536 50.6056C143.834 52.4683 141.497 53.6263 138.985 53.8549C136.085 54.1188 131.197 54.5487 126.665 57.9542C122.102 61.3828 118.084 67.676 116.519 79.2597L116.347 80.5318H138.073C147.211 80.5318 154.648 87.9686 154.648 97.1068V151.417C154.649 160.555 147.214 167.994 138.075 167.994H77.2943C68.1556 167.994 60.7195 160.558 60.7192 151.419V92.9567C60.7192 56.1376 71.2327 33.4693 85.9662 19.7461C100.723 6.00069 119.888 1.06304 137.5 0.0722435ZM252.351 0.0722435C255.125 -0.080525 257.849 0.911455 259.867 2.82047C261.887 4.73034 263.03 7.38976 263.03 10.1691V43.786C263.03 46.309 262.089 48.7424 260.387 50.6056C258.685 52.4683 256.349 53.6263 253.837 53.8549C250.937 54.1188 246.048 54.5485 241.515 57.9542C236.954 61.3828 232.935 67.676 231.371 79.2597L231.199 80.5318H252.926C262.065 80.5318 269.502 87.9686 269.502 97.1068V151.417C269.502 160.556 262.065 167.994 252.926 167.994H192.146C183.007 167.994 175.571 160.557 175.571 151.419V92.9567C175.571 56.1376 186.084 33.4693 200.818 19.7461C215.575 6.00019 234.741 1.06521 252.353 0.0745633L252.351 0.0722435ZM241.479 21.6517C230.421 23.7203 218.946 28.4435 210.255 39.2992C201.574 50.1437 195.792 66.9567 195.792 92.9567V147.772H249.28V100.753H220.561C214.978 100.753 210.45 96.2265 210.45 90.6426C210.451 71.8266 214.74 59.1983 220.779 50.7353C226.816 42.2776 234.676 37.8769 242.012 35.6434L242.808 35.3998V21.4034L241.479 21.6517ZM126.628 21.6517C115.569 23.7203 104.095 28.4435 95.4039 39.2992C86.7223 50.1435 80.9408 66.9565 80.9408 92.9567V147.77H134.429V100.753H105.71C100.126 100.753 95.5988 96.2265 95.5988 90.6426C95.599 71.8264 99.888 59.1983 105.928 50.7353C111.964 42.2774 119.824 37.8767 127.161 35.6434L127.958 35.3998V21.4034L126.628 21.6517ZM311.242 87.5275C313.899 87.5275 316.514 88.6125 318.391 90.4917C320.271 92.3705 321.353 94.9829 321.353 97.6383C321.353 100.294 320.271 102.908 318.391 104.788C316.514 106.667 313.899 107.749 311.242 107.749C308.587 107.749 305.972 106.667 304.095 104.788C302.215 102.908 301.133 100.294 301.133 97.6383C301.133 94.9829 302.215 92.3705 304.095 90.4917C305.972 88.6125 308.587 87.5275 311.242 87.5275Z" fill="black"/>
<path d="M360.297 87.5273H374.454C483.933 87.5285 573 176.597 573 286.075C573 331.922 557.001 376.647 527.952 412.009C501.246 444.522 464.695 467.829 424.277 478.304L423.435 478.518V562.883C423.435 564.882 422.841 566.836 421.731 568.5C420.619 570.161 419.041 571.456 417.194 572.222V572.224C415.345 572.99 413.312 573.189 411.352 572.799C409.635 572.46 408.041 571.68 406.721 570.541L406.175 570.033L321.091 484.947L320.761 484.621H198.601C89.1225 484.621 0.0544844 395.552 0.0541992 286.075C0.0541992 252.336 8.67241 219.01 24.9785 189.701C27.6921 184.822 33.8507 183.065 38.7311 185.781C43.6102 188.496 45.3646 194.652 42.6493 199.531C28.0106 225.846 20.2758 255.77 20.2758 286.075C20.2761 384.402 100.272 464.399 198.601 464.399H324.949C327.63 464.399 330.202 465.464 332.098 467.358L403.213 538.473V470.486C403.213 468.164 404.012 465.916 405.476 464.114C406.94 462.312 408.977 461.067 411.249 460.589C493.262 443.39 552.778 369.999 552.78 286.075C552.78 187.745 472.783 107.749 374.454 107.749H360.297C354.714 107.749 350.186 103.222 350.186 97.6382C350.186 92.0543 354.714 87.5278 360.297 87.5273Z" fill="black"/>
<path d="M214.011 379.199H214.192C219.776 379.199 224.303 383.727 224.303 389.31C224.302 394.891 219.776 399.421 214.192 399.421H214.011C208.427 399.419 203.901 394.891 203.9 389.31C203.9 383.727 208.427 379.199 214.011 379.199ZM277.4 379.199H424.785C430.369 379.199 434.897 383.727 434.897 389.31C434.897 394.893 430.369 399.421 424.785 399.421H277.4C271.817 399.421 267.289 394.893 267.289 389.31C267.289 383.727 271.817 379.199 277.4 379.199ZM148.281 319.282H424.785C430.369 319.282 434.897 323.809 434.897 329.393C434.897 334.976 430.369 339.504 424.785 339.504H148.281C142.697 339.504 138.17 334.976 138.17 329.393C138.171 323.809 142.697 319.282 148.281 319.282ZM148.281 259.366H424.785C430.369 259.366 434.897 263.892 434.897 269.477C434.897 275.061 430.369 279.588 424.785 279.588H148.281C142.697 279.588 138.17 275.061 138.17 269.477C138.171 263.892 142.697 259.366 148.281 259.366ZM148.281 199.451H424.785C430.369 199.451 434.897 203.977 434.897 209.561C434.897 215.146 430.369 219.672 424.785 219.672H148.281C142.697 219.672 138.17 215.146 138.17 209.561C138.17 203.977 142.697 199.451 148.281 199.451Z" fill="black"/>
</svg>
