<svg width="509" height="512" viewBox="0 0 509 512" fill="none" xmlns="http://www.w3.org/2000/svg">
<path d="M409.84 511.996C408.494 511.996 407.174 511.632 406.018 510.944C369.58 489.31 352.753 454.617 348.624 444.971C324.178 429.783 308.886 408.816 300.523 394.36C295.075 400.282 289.507 406.093 283.822 411.789C262.981 432.63 234.096 442.202 213.536 446.561C201.712 449.068 191.517 450.124 185.047 450.568C180.959 450.849 178.016 450.966 175.827 450.947L116.975 509.799C115.569 511.205 113.661 511.995 111.672 511.995C109.683 511.995 107.776 511.205 106.369 509.799C104.963 508.392 104.173 506.485 104.173 504.496C104.173 502.507 104.963 500.599 106.369 499.192L167.584 437.977C168.44 437.121 169.491 436.484 170.646 436.122C171.802 435.76 173.028 435.684 174.22 435.899C182.928 436.509 241.044 433.356 273.216 401.183C278.581 395.807 283.839 390.326 288.988 384.743C274.47 386.051 251.674 383.785 232.654 364.765L193.536 325.647C188.486 334.476 182.643 342.229 176.101 348.771C175.405 349.468 174.578 350.02 173.668 350.397C172.758 350.774 171.783 350.968 170.798 350.968C169.813 350.968 168.837 350.774 167.927 350.397C167.017 350.02 166.19 349.468 165.494 348.771C164.088 347.365 163.298 345.457 163.298 343.468C163.298 341.479 164.088 339.571 165.494 338.165C171.953 331.706 177.659 323.791 182.489 314.601L177.656 309.768C168.073 300.185 163.969 290.566 165.456 281.177C166.651 273.634 171.417 266.884 179.66 261.032C171.107 251.023 172.557 237.756 183.633 226.679C187.836 222.476 192.356 219.659 196.892 218.249C196.327 216 196.139 213.672 196.335 211.361C194.224 198.501 190.817 185.749 186.185 173.352C166.681 182.239 146.156 178.755 145.055 178.56C143.096 178.213 141.355 177.102 140.216 175.472C139.077 173.841 138.631 171.825 138.979 169.866C139.326 167.908 140.437 166.167 142.067 165.028C143.698 163.888 145.714 163.443 147.673 163.79C147.944 163.837 175.009 168.292 191.583 151.718L229.23 114.071C241.756 101.544 240.042 87.7 233.148 80.1379C228.756 75.3198 221.32 72.4488 213.622 78.8409C187.007 100.941 164.679 110.878 153.739 114.835C149.107 116.51 145.163 119.462 142.334 123.371L112.749 164.228C111.576 165.821 109.82 166.887 107.865 167.191C105.91 167.496 103.914 167.016 102.311 165.856C100.709 164.695 99.6295 162.948 99.3089 160.996C98.9884 159.043 99.4524 157.043 100.6 155.431L130.184 114.573C134.784 108.219 141.166 103.431 148.639 100.729C158.659 97.1052 179.18 87.943 204.04 67.3007C216.677 56.8095 233.205 57.9316 244.234 70.0317C249.103 75.3728 252.368 82.3699 253.254 90.0481L280.305 62.9976C281.713 61.6012 283.618 60.8196 285.601 60.8238C287.585 60.8281 289.486 61.6178 290.888 63.0203C292.291 64.4228 293.081 66.3237 293.085 68.3072C293.09 70.2906 292.308 72.1951 290.912 73.6038L202.191 162.324C201.204 163.311 200.178 164.259 199.116 165.165C202.463 173.743 205.268 182.523 207.513 191.453C215.328 184.487 224.057 182.141 231.889 184.544C233.375 180.134 236.18 175.805 240.146 171.838C245.317 166.667 251.104 163.471 256.881 162.596C261.819 161.848 269.165 162.411 276.098 169.345L294.365 187.613C297.097 182.784 300.974 178.586 305.683 175.519C311.767 171.557 318.168 170.192 323.248 171.775C325.21 172.387 327.245 173.249 329.333 174.327L420.362 83.2969C437.792 65.8677 442.686 49.9504 433.456 40.7203C429.441 36.7052 424.291 35.2722 418.155 36.4722C410.084 38.0452 400.653 44.0423 390.882 53.8145L371.86 72.8348L290.293 154.403C287.363 157.331 282.614 157.333 279.687 154.403C278.99 153.707 278.437 152.88 278.06 151.97C277.683 151.06 277.489 150.085 277.489 149.1C277.489 148.115 277.683 147.14 278.06 146.23C278.437 145.32 278.989 144.493 279.686 143.797L361.332 62.1506C378.699 44.7513 383.565 28.8681 374.348 19.651C370.333 15.6359 365.185 14.2029 359.046 15.4029C350.975 16.9759 341.544 22.973 331.773 32.7452L311.914 52.6045C311.218 53.3011 310.391 53.8538 309.481 54.2309C308.572 54.608 307.596 54.8021 306.611 54.8022C305.626 54.8023 304.651 54.6084 303.741 54.2314C302.831 53.8545 302.004 53.302 301.308 52.6055C300.612 51.9091 300.059 51.0823 299.682 50.1723C299.305 49.2624 299.111 48.2871 299.111 47.3021C299.111 46.3171 299.305 45.3418 299.681 44.4317C300.058 43.5217 300.611 42.6948 301.307 41.9983L321.165 22.139C333.228 10.0768 345.007 2.85769 356.177 0.680654C367.195 -1.46638 377.414 1.50467 384.956 9.04579C388.079 12.1698 394.152 19.773 394.042 31.4571C401.303 26.3421 408.411 23.09 415.287 21.75C426.3 19.6029 436.523 22.573 444.065 30.1151C449.053 35.1032 461.56 51.5154 444.398 77.7329C456.526 77.3669 464.367 83.6129 467.557 86.803C473.503 92.7501 490.131 114.924 454.46 150.593L442.559 162.495C450.345 162.828 457.425 165.908 463.028 171.51C470.569 179.051 473.54 189.273 471.392 200.289C469.214 211.459 461.995 223.238 449.933 235.299L411.944 273.29C410.537 274.696 408.629 275.486 406.64 275.486C404.651 275.486 402.743 274.696 401.337 273.29C399.93 271.883 399.14 269.976 399.14 267.987C399.14 265.998 399.93 264.09 401.337 262.684L439.326 224.693C449.098 214.921 455.097 205.49 456.67 197.42C457.866 191.281 456.437 186.133 452.421 182.117C448.404 178.101 443.255 176.671 437.118 177.869C429.048 179.442 419.616 185.44 409.845 195.212L409.802 195.254L378.912 226.142C387.979 244.145 388.441 266.692 380.58 298.687C392.887 304.853 421.273 321.582 440.949 352.654C450.638 356.689 485.491 373.178 507.476 409.401C508.508 411.101 508.823 413.142 508.35 415.075C507.878 417.007 506.657 418.672 504.956 419.704C503.256 420.736 501.215 421.051 499.283 420.578C497.351 420.105 495.685 418.885 494.653 417.184C472.29 380.34 433.704 365.903 433.317 365.762C431.714 365.176 430.357 364.063 429.469 362.605C406.918 325.453 369.333 309.971 368.956 309.819C367.257 309.135 365.867 307.851 365.049 306.212C364.232 304.573 364.042 302.691 364.517 300.921C376.571 255.968 369.866 238.118 361.717 226.587C345.652 203.853 328.047 189.057 318.889 186.131C318.084 186.067 315.521 186.704 312.524 189.056C310.866 190.357 307.306 193.651 305.702 198.952L305.723 198.973L320.321 213.57C325.714 218.963 342.468 230 348.469 233.798C350.15 234.862 351.339 236.55 351.775 238.491C352.212 240.432 351.859 242.466 350.795 244.147C349.732 245.828 348.044 247.017 346.103 247.453C344.162 247.89 342.128 247.537 340.447 246.473C338.095 244.985 317.255 231.718 309.713 224.176L292.308 206.77L292.223 206.685L265.492 179.953C262.777 177.238 260.557 177.214 259.128 177.429C256.577 177.815 253.603 179.597 250.754 182.447C247.905 185.297 246.123 188.271 245.736 190.823C245.52 192.254 245.545 194.471 248.26 197.186L278.992 227.917C280.398 229.324 281.188 231.231 281.188 233.22C281.188 235.209 280.398 237.117 278.992 238.523C277.585 239.93 275.677 240.72 273.688 240.72C271.699 240.72 269.791 239.93 268.385 238.523L237.654 207.792L231.096 201.235C224.972 195.111 218.488 201.596 216.357 203.727C207.742 212.343 212.35 216.951 213.864 218.465L219.488 224.089L219.588 224.188L219.639 224.24L251.154 255.755C252.561 257.161 253.351 259.069 253.351 261.058C253.351 263.047 252.561 264.954 251.154 266.361C249.748 267.767 247.84 268.557 245.851 268.557C243.862 268.557 241.955 267.767 240.548 266.361L208.927 234.739C202.82 228.71 196.366 235.162 194.243 237.287C185.628 245.903 190.236 250.512 191.75 252.026L196.858 257.134C196.943 257.215 197.026 257.298 197.108 257.384L228.951 289.226C230.357 290.633 231.147 292.54 231.147 294.529C231.147 296.518 230.357 298.426 228.951 299.832C227.544 301.239 225.637 302.029 223.648 302.029C221.659 302.029 219.751 301.239 218.345 299.832L190.4 271.889C185.538 274.942 181.001 278.948 180.275 283.526C179.411 288.981 184.143 295.04 188.266 299.163L243.263 354.162C265.982 376.881 294.746 368.809 296.64 368.238C297.568 367.867 298.562 367.685 299.561 367.703C300.561 367.721 301.547 367.938 302.462 368.343C303.376 368.748 304.2 369.331 304.886 370.059C305.572 370.787 306.105 371.644 306.454 372.581C306.595 372.955 321.407 411.398 358.468 433.401C359.94 434.275 361.068 435.627 361.666 437.23C361.807 437.604 376.619 476.047 413.68 498.05C414.527 498.553 415.266 499.218 415.856 500.007C416.446 500.795 416.875 501.692 417.119 502.647C417.362 503.601 417.415 504.594 417.274 505.569C417.134 506.544 416.803 507.482 416.3 508.329C415.633 509.447 414.687 510.373 413.555 511.016C412.422 511.659 411.142 511.997 409.84 511.996ZM176.782 436.87C176.786 436.872 176.79 436.875 176.793 436.877L176.782 436.87ZM342.004 182.866C352.076 191.042 362.311 202.292 370.568 213.267L443.852 139.982C461.283 122.553 466.178 106.636 456.948 97.4052C447.717 88.174 431.801 93.0701 414.372 110.499L414.322 110.548L342.004 182.866ZM7.49952 407.822C6.5144 407.823 5.53875 407.63 4.62865 407.253C3.71855 406.876 2.89197 406.323 2.19643 405.625C0.790072 404.218 0 402.311 0 400.322C0 398.333 0.790072 396.425 2.19643 395.019L60.3813 336.833C45.2451 275.933 56.1643 216.796 74.5746 191.371L84.4987 177.665C85.6654 176.054 87.4243 174.973 89.3885 174.658C91.3527 174.344 93.3613 174.823 94.9724 175.99C96.5835 177.157 97.6651 178.916 97.9793 180.88C98.2935 182.844 97.8146 184.852 96.6479 186.464L86.7238 200.169C72.3305 220.046 59.4743 275.691 75.9576 337.165C76.2985 338.437 76.2987 339.776 75.9579 341.048C75.6172 342.32 74.9477 343.48 74.0166 344.411L12.8026 405.625C12.1071 406.323 11.2805 406.876 10.3704 407.253C9.46028 407.63 8.48463 407.823 7.49952 407.822Z" fill="black"/>
</svg>
