<svg width="252" height="197" viewBox="0 0 252 197" fill="none" xmlns="http://www.w3.org/2000/svg">
<path d="M234.022 59.4254C233.003 51.765 232.86 38.5708 239.975 34.1405C240.102 34.0592 240.197 33.9419 240.308 33.8411C246.125 31.9806 250.151 29.3694 246.991 25.8558L161.179 0L22.2313 19.3181C22.2313 19.3181 6.31998 21.5924 7.74138 46.3125C8.51299 59.7669 12.7328 66.3745 16.4231 69.6264L5.02118 73.0625C1.85651 76.5761 5.88153 79.188 11.6995 81.0456C11.81 81.1494 11.9033 81.266 12.0326 81.3472C19.1433 85.7813 19.0065 98.974 17.9837 106.636C-7.56152 113.89 1.60834 116.253 1.60834 116.253L7.21193 117.609C3.27039 121.171 -0.644082 127.925 0.0891759 140.735C1.51132 165.451 14.5806 167.156 14.5806 167.156L105.508 196.711L242.751 163.468C242.751 163.468 251.924 161.101 226.372 153.846C225.344 146.197 225.201 133.005 232.329 128.56C232.46 128.481 232.555 128.361 232.661 128.262C238.479 126.402 242.501 123.793 239.34 120.279L233.375 118.478C237.353 116.079 243.329 109.809 244.265 93.5223C244.911 82.3196 241.989 75.7587 238.606 71.8961L250.397 69.0428C250.398 69.0473 259.571 66.6798 234.022 59.4254ZM119.227 59.1088L142.306 54.3656L220.3 38.3377L231.92 35.9477C228.207 42.7433 228.363 52.0432 228.978 58.0206C229.112 59.3728 229.267 60.6077 229.418 61.5462L216.699 64.7087L118.256 89.198L119.227 59.1088ZM20.0879 83.1619L31.7065 85.552L106.609 100.95L113.153 102.29L132.776 106.323L133.744 136.413L32.5668 111.241L22.5923 108.762C22.7389 107.822 22.8939 106.589 23.0345 105.233C23.6452 99.2598 23.8039 89.9575 20.0879 83.1619ZM15.5741 45.1228C15.4334 38.5475 16.6051 33.7923 18.9734 31.3751C20.4805 29.8319 22.2591 29.5108 23.479 29.5108C24.1235 29.5108 24.5875 29.6003 24.6191 29.6003L84.4882 49.1185L114.358 58.8569L113.378 89.1566L29.5819 65.6638L25.1598 64.4251C24.979 64.3776 24.7938 64.3491 24.607 64.3401C24.2619 64.3153 15.9772 63.5527 15.5741 45.1228ZM105.724 183.584L17.5084 158.851C17.3282 158.803 17.1434 158.774 16.9571 158.764C16.6059 158.741 8.31745 157.979 7.91661 139.554C7.77371 132.97 8.95144 128.219 11.3152 125.8C12.826 124.257 14.6054 123.936 15.823 123.936C16.469 123.936 16.9315 124.022 16.9654 124.022L106.698 153.283L105.724 183.584ZM221.319 152.443C221.458 153.8 221.613 155.032 221.764 155.973L110.6 183.626L111.572 153.537L135.338 148.65L138.848 149.5L152.003 145.224L212.642 132.763L224.267 130.372C220.55 137.167 220.704 146.47 221.319 152.443ZM227.443 111.55C227.241 111.552 227.041 111.583 226.848 111.642L218.464 113.989L138.634 136.373L137.658 106.073L163.849 97.5308L227.268 76.8484C227.276 76.8446 230.604 76.1054 233.047 78.5894C235.411 81.0065 236.585 85.7618 236.446 92.3371C236.033 110.761 227.744 111.527 227.443 111.55Z" fill="black"/>
</svg>
