<svg width="244" height="171" viewBox="0 0 244 171" fill="none" xmlns="http://www.w3.org/2000/svg">
<path d="M241.769 26.0003C241.519 25.871 236.134 23.0807 226.846 20.5114V12.8745C226.845 12.1815 226.673 11.4994 226.343 10.8898C226.013 10.2803 225.536 9.76262 224.956 9.38352C224.493 9.07904 178.13 -20.213 121.998 26.2797C65.8164 -20.213 19.503 9.08321 19.0317 9.38769C18.4529 9.76689 17.9775 10.2841 17.6484 10.8928C17.3193 11.5015 17.1468 12.1826 17.1465 12.8745V20.5072C7.82039 23.0807 2.46082 25.8752 2.21473 26.0044C1.54608 26.3595 0.986686 26.8899 0.596524 27.5387C0.206362 28.1875 0.000150035 28.9303 0 29.6873V164.515C0.000417416 165.127 0.135211 165.731 0.394846 166.285C0.654481 166.838 1.03262 167.328 1.50251 167.72C1.97241 168.111 2.52258 168.395 3.11413 168.55C3.70568 168.706 4.32415 168.729 4.9258 168.619C5.53475 168.507 66.3795 157.558 119.925 170.388C120.063 170.421 120.205 170.446 120.346 170.467C120.505 170.488 120.663 170.534 120.801 170.571C121.173 170.683 121.559 170.741 121.948 170.742L121.994 170.751L122.04 170.742C122.428 170.741 122.815 170.683 123.187 170.571C123.316 170.534 123.445 170.484 123.596 170.467C123.737 170.449 123.878 170.422 124.017 170.388C177.504 157.579 238.457 168.511 239.066 168.619C239.668 168.729 240.286 168.706 240.878 168.55C241.469 168.395 242.02 168.111 242.489 167.72C242.959 167.328 243.338 166.838 243.597 166.285C243.857 165.731 243.992 165.127 243.992 164.515V29.6915C243.993 28.9321 243.786 28.1868 243.395 27.5362C243.003 26.8856 242.441 26.3545 241.769 26.0003ZM8.34175 159.606V32.3484C11.2155 31.1326 14.155 30.0785 17.1465 29.191V135.148C17.1462 135.714 17.2614 136.275 17.485 136.795C17.7086 137.315 18.0359 137.784 18.4469 138.174C18.8579 138.564 19.3441 138.865 19.8756 139.061C20.4071 139.256 20.9729 139.341 21.5384 139.31C21.993 139.281 64.9447 137.371 106.453 159.231C64.3274 152.374 22.4685 157.462 8.34175 159.606ZM117.827 156.102C79.4093 133.054 38.7558 130.906 25.4882 130.894V15.2728C34.2637 10.5597 71.6473 -5.40224 117.827 33.6455V156.102ZM126.169 33.6455C172.324 -5.41475 209.749 10.5722 218.508 15.2728V130.894C205.236 130.906 164.579 133.054 126.169 156.073V33.6455ZM235.654 159.606C221.523 157.458 179.631 152.369 137.497 159.231C179.01 137.371 221.974 139.285 222.458 139.31C223.023 139.34 223.588 139.254 224.119 139.058C224.649 138.862 225.135 138.56 225.545 138.171C225.956 137.782 226.283 137.313 226.506 136.793C226.73 136.273 226.845 135.714 226.846 135.148V29.1952C230.77 30.3839 233.794 31.5559 235.65 32.3525L235.654 159.606Z" fill="black"/>
</svg>
