<svg width="440" height="504" viewBox="0 0 440 504" fill="none" xmlns="http://www.w3.org/2000/svg">
<path d="M229.404 232.444C228.459 232.444 227.527 232.667 226.685 233.095C225.842 233.523 225.113 234.145 224.556 234.908C223.1 235.382 221.589 235.662 220.06 235.74C218.552 235.662 217.062 235.384 215.628 234.912C214.882 233.889 213.832 233.128 212.627 232.739C211.423 232.349 210.126 232.35 208.922 232.742C207.718 233.134 206.67 233.897 205.926 234.921C205.181 235.945 204.78 237.178 204.78 238.444C204.78 247.484 219.908 247.74 220.06 247.74C220.212 247.74 235.404 247.484 235.404 238.444C235.404 236.853 234.772 235.327 233.646 234.201C232.521 233.076 230.995 232.444 229.404 232.444Z" fill="black"/>
<path d="M163.664 209.04C169.739 209.04 174.664 204.115 174.664 198.04C174.664 191.965 169.739 187.04 163.664 187.04C157.589 187.04 152.664 191.965 152.664 198.04C152.664 204.115 157.589 209.04 163.664 209.04Z" fill="black"/>
<path d="M176.08 196.556C173.387 194.576 170.565 192.778 167.632 191.176C164.979 189.746 162.073 188.848 159.076 188.532C155.818 188.28 152.542 188.39 149.308 188.86C145.596 189.723 141.817 190.266 138.012 190.484C137.563 190.477 137.13 190.317 136.785 190.03C136.44 189.743 136.204 189.347 136.115 188.907C136.027 188.467 136.092 188.01 136.299 187.612C136.507 187.214 136.844 186.899 137.256 186.72L137.656 186.548C140.336 185.372 143.612 183.22 147.28 181.748C151.093 180.299 155.107 179.448 159.18 179.224C163.509 178.998 167.837 179.679 171.888 181.224C175.598 182.66 179.178 184.411 182.588 186.46C183.974 187.247 184.992 188.552 185.416 190.089C185.84 191.625 185.636 193.267 184.85 194.654C184.063 196.041 182.758 197.058 181.221 197.482C179.685 197.906 178.042 197.703 176.656 196.916C176.457 196.807 176.265 196.686 176.08 196.556ZM185.964 176C176.886 172.92 167.552 170.655 158.072 169.232C153.576 168.72 149.03 168.843 144.568 169.596C140.221 170.331 136.067 171.937 132.356 174.316C131.443 174.91 130.332 175.117 129.267 174.892C128.202 174.667 127.27 174.028 126.676 173.116C126.082 172.204 125.874 171.093 126.099 170.027C126.324 168.962 126.963 168.03 127.876 167.436L127.924 167.404C132.537 164.513 137.629 162.466 142.96 161.36C148.175 160.344 153.504 160.042 158.8 160.464C168.829 161.477 178.768 163.236 188.536 165.724H188.556C189.239 165.862 189.888 166.134 190.465 166.523C191.043 166.912 191.539 167.412 191.924 167.992C192.309 168.573 192.576 169.224 192.709 169.908C192.843 170.592 192.84 171.295 192.702 171.978C192.563 172.661 192.292 173.31 191.903 173.888C191.513 174.466 191.014 174.961 190.433 175.346C189.853 175.731 189.202 175.998 188.518 176.131C187.834 176.265 187.131 176.262 186.448 176.124C186.288 176.076 186.127 176.034 185.964 176Z" fill="black"/>
<path d="M276.336 209.04C282.411 209.04 287.336 204.115 287.336 198.04C287.336 191.965 282.411 187.04 276.336 187.04C270.261 187.04 265.336 191.965 265.336 198.04C265.336 204.115 270.261 209.04 276.336 209.04Z" fill="black"/>
<path d="M257.412 186.472C260.822 184.423 264.402 182.672 268.112 181.236C272.162 179.691 276.491 179.01 280.82 179.236C284.893 179.46 288.907 180.311 292.72 181.76C296.388 183.22 299.664 185.36 302.344 186.56L302.744 186.732C303.155 186.911 303.493 187.226 303.7 187.624C303.908 188.022 303.973 188.479 303.884 188.919C303.796 189.359 303.56 189.755 303.215 190.042C302.87 190.329 302.437 190.489 301.988 190.496C298.183 190.278 294.404 189.735 290.692 188.872C287.458 188.402 284.182 188.292 280.924 188.544C277.927 188.86 275.021 189.758 272.368 191.188C269.435 192.79 266.612 194.588 263.92 196.568C263.282 197.033 262.559 197.368 261.792 197.553C261.025 197.739 260.229 197.771 259.449 197.649C258.67 197.527 257.922 197.252 257.248 196.841C256.575 196.43 255.989 195.89 255.524 195.252C255.059 194.614 254.724 193.891 254.539 193.124C254.353 192.357 254.321 191.561 254.443 190.781C254.565 190.002 254.84 189.254 255.251 188.58C255.662 187.907 256.202 187.321 256.84 186.856C257.02 186.712 257.224 186.584 257.412 186.472ZM251.464 165.712C261.232 163.224 271.171 161.465 281.2 160.452C286.496 160.03 291.825 160.332 297.04 161.348C302.371 162.454 307.463 164.501 312.076 167.392C312.997 167.975 313.648 168.901 313.887 169.965C314.125 171.028 313.931 172.143 313.348 173.064C312.764 173.985 311.839 174.636 310.775 174.875C309.712 175.113 308.597 174.919 307.676 174.336L307.628 174.304C303.916 171.925 299.763 170.319 295.416 169.584C290.954 168.831 286.408 168.708 281.912 169.22C272.437 170.648 263.108 172.917 254.036 176C253.369 176.202 252.67 176.271 251.976 176.203C251.283 176.135 250.61 175.931 249.996 175.602C249.381 175.274 248.838 174.828 248.396 174.289C247.954 173.751 247.622 173.131 247.42 172.464C247.218 171.797 247.149 171.098 247.217 170.404C247.285 169.711 247.489 169.038 247.818 168.424C248.146 167.809 248.592 167.266 249.131 166.824C249.669 166.382 250.289 166.05 250.956 165.848C251.116 165.8 251.276 165.76 251.432 165.728L251.464 165.712ZM220 297.4C203.284 297.4 191.74 287.824 188.332 271.132C188.005 269.536 188.05 267.886 188.465 266.31C188.88 264.735 189.652 263.276 190.723 262.048C191.794 260.82 193.133 259.855 194.637 259.23C196.142 258.604 197.77 258.334 199.396 258.44C203.302 258.549 207.211 258.459 211.108 258.172C214.252 258 217.332 257.836 219.996 257.836C222.66 257.836 225.74 258 228.884 258.172C232.781 258.461 236.69 258.551 240.596 258.44C242.231 258.316 243.873 258.581 245.386 259.214C246.899 259.846 248.24 260.829 249.3 262.08C250.367 263.303 251.136 264.758 251.546 266.328C251.956 267.899 251.996 269.543 251.664 271.132C248.26 287.824 236.716 297.4 220 297.4ZM201.572 270.512C201.444 270.51 201.318 270.538 201.203 270.594C201.089 270.65 200.99 270.733 200.914 270.836C200.838 270.938 200.787 271.058 200.767 271.184C200.746 271.31 200.756 271.439 200.796 271.56C201.821 275.778 204.319 279.491 207.841 282.029C211.362 284.566 215.674 285.762 220 285.4C224.325 285.761 228.636 284.565 232.157 282.027C235.678 279.489 238.175 275.777 239.2 271.56C239.24 271.439 239.25 271.31 239.229 271.184C239.209 271.058 239.158 270.938 239.082 270.836C239.006 270.733 238.907 270.65 238.792 270.594C238.678 270.538 238.552 270.51 238.424 270.512C235.196 270.544 231.668 270.344 228.232 270.156C225.316 269.996 222.464 269.836 219.996 269.836C217.528 269.836 214.676 269.996 211.76 270.156C208.328 270.344 204.8 270.548 201.572 270.512Z" fill="black"/>
<path d="M343.708 269.584C349.947 269.584 355.004 264.527 355.004 258.288C355.004 252.049 349.947 246.992 343.708 246.992C337.47 246.992 332.412 252.049 332.412 258.288C332.412 264.527 337.47 269.584 343.708 269.584Z" fill="black"/>
<path d="M438.752 485.628C432.107 461.56 420.528 439.137 404.752 419.784C403.78 406.772 408.036 396.52 417.444 376C421.512 366.744 423.084 356.583 422.003 346.531C420.922 336.478 417.227 326.884 411.284 318.704C408.788 314.384 407.178 309.611 406.547 304.662C405.915 299.713 406.276 294.688 407.608 289.88C411.744 278.737 413.379 266.82 412.399 254.974C411.418 243.129 407.844 231.643 401.932 221.332C391.038 202.644 383.574 182.159 379.892 160.844C373.692 124.044 337.208 24.444 273.58 20.144C272.116 20.0488 270.707 19.555 269.504 18.716C202.764 -28.136 133.536 26.612 112.168 52.148C99.4599 67.348 68.9479 108.328 60.0999 160.844C57.0343 181.382 48.0413 200.579 34.2239 216.08C25.7814 226.162 20.0752 238.246 17.6541 251.171C15.2331 264.096 16.1786 277.426 20.3999 289.88C21.7315 294.688 22.0923 299.713 21.4611 304.662C20.83 309.611 19.2196 314.384 16.7239 318.704C4.48788 336.448 3.43988 350.92 13.2159 367.104C21.9679 381.596 21.7639 385.424 16.6719 400.408C11.7935 416.198 11.5077 433.05 15.8479 448.996C9.70452 460.673 4.81204 472.967 1.25188 485.672C0.70374 487.544 0.532162 489.506 0.747061 491.445C0.96196 493.384 1.55907 495.261 2.50388 496.968C3.72888 499.094 5.49386 500.858 7.6201 502.083C9.74634 503.307 12.1583 503.948 14.6119 503.94H425.412C427.89 503.947 430.324 503.293 432.465 502.046C434.606 500.798 436.376 499.003 437.592 496.844C439.44 493.404 439.857 489.374 438.752 485.628ZM26.5879 325.516C30.1558 319.652 32.4574 313.107 33.3447 306.301C34.2319 299.495 33.6853 292.578 31.7399 285.996C28.1834 275.505 27.3869 264.275 29.4269 253.387C31.4669 242.499 36.2747 232.32 43.3879 223.828C58.6351 206.708 68.5552 185.511 71.9319 162.836C80.2959 113.236 109.292 74.284 121.368 59.852C122.076 59.004 194.168 -23.264 265.7 30.784C266.744 31.567 268.015 31.9883 269.32 31.984C323.948 32 361.6 124.332 368.068 162.836C371.955 185.477 379.863 207.24 391.416 227.096C396.549 235.938 399.647 245.812 400.485 256.001C401.323 266.191 399.88 276.439 396.26 286C394.314 292.582 393.768 299.499 394.655 306.305C395.542 313.111 397.844 319.656 401.412 325.52C406.18 331.986 409.165 339.592 410.066 347.575C410.968 355.558 409.754 363.638 406.548 371.004C399.544 386.272 394.9 396.94 393.284 407.712C390.425 405.018 387.44 402.46 384.34 400.048C371.511 390.651 357.906 382.364 343.672 375.276C341.759 372.365 339.038 370.076 335.844 368.688L317.676 360.864C313.641 359.148 309.116 358.978 304.964 360.388C291.424 354.764 279.056 346.204 276.508 328.84C280.945 325.651 285.194 322.209 289.236 318.532C306.54 302.704 319.636 289.1 327.588 260.408C328.951 260.581 330.322 260.677 331.696 260.696C350.044 260.696 365.88 246.52 370.616 230.204C375.54 213.24 368.28 194.904 354.088 188.464C347.383 185.936 340.107 185.318 333.072 186.68C329.263 177.007 326.188 167.062 323.872 156.928C314.704 121.68 303.316 77.876 264.168 81.404C263.238 81.4656 262.309 81.2871 261.468 80.8857C260.628 80.4843 259.904 79.8735 259.368 79.112C249.524 65.912 230.616 57.636 210.024 57.464H209.372C197.842 57.4385 186.463 60.076 176.12 65.1707C165.777 70.2654 156.751 77.6798 149.744 86.836C135.076 105.8 130.468 126.576 126.012 146.668C123.565 160.213 119.554 173.428 114.06 186.048C107.464 199.537 104.848 214.626 106.516 229.548C112.516 280.184 127.928 297.656 150.752 318.532C155.096 322.484 159.678 326.167 164.472 329.56C166.368 344.936 163.324 349.092 149.704 364.832C144.504 370.86 143.496 378.724 142.532 386.324C140.96 398.776 139.596 409.524 122.348 415.56C117.12 417.384 104.46 423.992 99.8999 445.908C94.0119 474.204 84.5359 479.044 66.7759 478.676C60.5615 478.833 54.4055 477.444 48.8606 474.634C43.3157 471.824 38.5556 467.681 35.0079 462.576C23.6999 446.452 22.5679 420.272 28.0039 404.268C34.1439 386.224 34.2679 378.792 23.4599 360.908C17.1759 350.48 15.6679 341.352 26.5879 325.516ZM220 350.5C235.48 350.5 251.6 344.296 265.692 335.944C270.016 352.844 282.148 362.6 294.824 368.876C293.957 370.412 293.32 372.067 292.936 373.788C291.143 382.466 289.223 391.118 287.176 399.74C267.072 426.968 232.188 457.456 221.284 466.716C220.928 467.026 220.473 467.196 220.002 467.196C219.531 467.196 219.075 467.026 218.72 466.716C207.82 457.46 172.948 426.98 152.84 399.756L152.616 398.804C153.427 395.18 154.038 391.515 154.448 387.824C155.248 381.456 155.948 375.956 158.788 372.676C170.948 358.624 176.676 351.108 176.916 337.452C189.951 345.356 204.77 349.844 220 350.5ZM158.86 309.672C137.472 290.108 124.08 275.708 118.44 228.124C117.043 215.466 119.278 202.671 124.884 191.236C130.775 177.786 135.087 163.699 137.732 149.256C142.092 129.588 146.216 111.012 159.244 94.172C165.096 86.4266 172.679 80.1576 181.386 75.866C190.094 71.5744 199.685 69.3792 209.392 69.456H209.928C226.592 69.596 242.228 76.204 249.76 86.284C251.538 88.6775 253.894 90.581 256.607 91.8164C259.321 93.0518 262.303 93.5788 265.276 93.348C292.14 90.832 302.076 120.704 312.264 159.94C314.715 170.743 318.005 181.337 322.104 191.628C323.347 194.413 323.914 197.454 323.756 200.5C320.348 270.464 305.888 287.032 281.132 309.668C266.6 322.968 241.864 338.5 220 338.5C198.136 338.5 173.4 322.968 158.86 309.672ZM344.916 210.684C341.64 210.128 338.278 210.377 335.12 211.412C335.411 207.236 335.659 202.861 335.864 198.288C340.311 197.584 344.862 197.963 349.132 199.392C357.868 203.352 362.332 215.676 359.092 226.856C356.104 237.148 344.628 249.4 330.404 248.624C331.877 241.163 333.016 233.639 333.816 226.076C334.877 224.807 336.229 223.815 337.758 223.185C339.286 222.554 340.945 222.304 342.592 222.456C344.145 222.744 345.749 222.408 347.055 221.521C348.362 220.634 349.267 219.268 349.573 217.719C349.878 216.169 349.561 214.562 348.689 213.245C347.818 211.928 346.462 211.008 344.916 210.684ZM14.5959 491.936C14.2918 491.942 13.9906 491.875 13.7173 491.741C13.444 491.608 13.2063 491.411 13.0239 491.168C12.8275 490.917 12.693 490.623 12.6311 490.31C12.5693 489.998 12.5819 489.675 12.6679 489.368C15.0457 480.67 18.1087 472.174 21.8279 463.96C22.8477 465.852 23.9707 467.687 25.1919 469.456C29.8287 476.1 36.0233 481.507 43.2337 485.203C50.444 488.899 58.4503 490.771 66.5519 490.656H68.1039C81.6359 490.656 91.4159 487.088 98.5599 479.032L110.408 491.908L14.5959 491.936ZM126.716 491.936L105.264 468.632C108.179 462.141 110.326 455.332 111.664 448.344C114.976 432.428 123.016 428.032 126.32 426.88C133.206 424.701 139.408 420.771 144.32 415.476C150.783 441.205 158.121 466.706 166.32 491.936H126.716ZM178.972 491.936C175.896 482.736 167.928 458.136 159.596 426.668C175.707 444.089 192.859 460.519 210.956 475.868C213.477 478.024 216.685 479.208 220.002 479.208C223.319 479.208 226.527 478.024 229.048 475.868C247.147 460.519 264.301 444.089 280.416 426.668C272.108 458.04 264.132 482.668 261.032 491.94L178.972 491.936ZM273.668 491.936C286.078 453.946 296.434 415.315 304.692 376.212C304.87 375.333 305.243 374.506 305.782 373.79C306.322 373.074 307.016 372.488 307.812 372.076C308.595 371.659 309.463 371.426 310.35 371.393C311.237 371.359 312.119 371.527 312.932 371.884L331.104 379.708C332.46 380.299 333.553 381.366 334.176 382.708C344.268 404.124 352.108 424.66 354.152 435.028C354.738 437.997 354.669 441.058 353.949 443.997C353.229 446.936 351.876 449.682 349.984 452.044L313.284 491.936H273.668ZM426.976 491.168C426.793 491.411 426.556 491.608 426.282 491.741C426.009 491.875 425.708 491.942 425.404 491.936H329.6L359.06 459.9C362.143 456.155 364.359 451.774 365.547 447.071C366.736 442.368 366.869 437.46 365.936 432.7C362.566 419.22 357.964 406.078 352.188 393.44C360.787 398.301 369.083 403.679 377.032 409.544C411.096 435.756 424.152 477.26 427.34 489.356C427.427 489.665 427.44 489.991 427.377 490.306C427.313 490.621 427.176 490.917 426.976 491.168Z" fill="black"/>
</svg>
