<svg width="201" height="254" viewBox="0 0 201 254" fill="none" xmlns="http://www.w3.org/2000/svg">
<path d="M197.799 111.249C193.859 103.472 186.97 93.5717 190.851 84.5088L194.022 75.4776C195.266 71.8821 195.782 68.0744 195.537 64.2774C195.292 60.4805 194.292 56.7705 192.596 53.3647C190.899 49.9589 188.54 46.9257 185.657 44.4428C182.774 41.9598 179.425 40.0769 175.805 38.9044L165.044 35.4758C156.031 33.3018 152.081 22.7035 148.254 15.3753C144.787 8.71049 138.833 3.68073 131.682 1.37636C124.532 -0.928023 116.761 -0.32132 110.055 3.06494L98.5826 8.88948C90.883 13.5047 81.0773 9.20652 73.4049 6.73811C66.2087 4.48435 58.4137 5.16273 51.7149 8.62574C45.0162 12.0888 39.9556 18.0563 37.6334 25.2308L33.5118 38.148C31.4148 46.5587 22.3791 50.4402 15.3543 53.9322C8.67082 57.4259 3.6373 63.4175 1.34885 70.6034C-0.939595 77.7894 -0.297809 85.5883 3.13458 92.3035L8.70548 103.097C13.3207 110.706 9.27616 120.271 6.78057 127.871C5.64465 131.435 5.22181 135.187 5.5362 138.913C5.8506 142.64 6.89608 146.269 8.61292 149.591C10.3298 152.914 12.6843 155.866 15.5422 158.278C18.4 160.691 21.7051 162.517 25.2687 163.652C32.7872 165.894 42.0494 168.208 45.5504 176.08C46.3158 177.556 51.4248 187.724 52.3804 188.807L33.6839 231.581C33.3414 232.367 33.229 233.234 33.3598 234.081C33.4906 234.928 33.8592 235.721 34.4228 236.367C34.9864 237.013 35.7217 237.486 36.5434 237.731C37.3651 237.975 38.2394 237.982 39.0646 237.749L63.6128 230.847L75.0037 251.273C75.4223 251.998 76.0319 252.593 76.7658 252.995C77.4998 253.396 78.33 253.588 79.1657 253.55C80.0014 253.511 80.8105 253.244 81.5047 252.777C82.1989 252.31 82.7514 251.662 83.1019 250.902L101.264 209.872L118.479 250.825C118.815 251.593 119.356 252.253 120.042 252.733C120.729 253.214 121.534 253.496 122.37 253.549C123.206 253.602 124.041 253.423 124.782 253.033C125.524 252.643 126.143 252.056 126.573 251.337L138.584 230.602L161.941 236.771C162.757 236.986 163.616 236.97 164.423 236.723C165.229 236.477 165.951 236.01 166.507 235.375C167.062 234.741 167.429 233.964 167.567 233.131C167.705 232.299 167.607 231.445 167.286 230.666L151.506 192.285C157.125 188.765 161.321 183.374 163.355 177.063C165.904 169.159 168.047 157.931 176.589 154.258L185.579 149.616C192.263 146.122 197.296 140.131 199.585 132.945C201.873 125.759 201.231 117.964 197.799 111.249ZM78.4866 238.936L69.7816 223.315C69.2839 222.426 68.5018 221.731 67.5612 221.341C66.6206 220.951 65.5761 220.888 64.5956 221.163L45.8176 226.444L59.0202 196.244C63.2902 199.595 68.4347 201.646 73.8391 202.152C79.2435 202.658 84.6792 201.598 89.4971 199.097L98.0935 194.659L78.4866 238.936ZM137.552 220.964C136.592 220.709 135.575 220.778 134.658 221.159C133.74 221.541 132.975 222.214 132.479 223.075L123.294 238.927L106.296 198.495L109.611 191.008C113.941 190.474 123.398 194.441 127.574 195.56C132.647 197.186 138.078 197.341 143.236 196.008L155.438 225.693L137.552 220.964ZM191.005 130.217C188.877 138.75 179.528 142.668 172.431 146.214C169.103 147.923 166.147 150.275 163.734 153.134C161.321 155.992 159.499 159.301 158.372 162.868C155.755 170.604 153.716 182.144 145.138 185.673C137.262 190.619 126.541 185.632 118.674 183.209C115.113 182.065 111.361 181.638 107.634 181.953C103.907 182.268 100.28 183.318 96.9612 185.043L85.3393 191.053C80.7601 193.394 75.442 193.831 70.542 192.27C65.642 190.71 61.5565 187.277 59.1742 182.72L53.5942 171.931C48.7797 161.659 38.2403 157.805 28.0179 155.028C23.1266 153.443 19.0586 149.992 16.6983 145.424C14.338 140.856 13.8762 135.541 15.4132 130.634C19.109 120.375 22.5693 109.143 16.7538 98.9433C13.1396 91.606 6.33672 81.9271 9.92836 73.3443C12.039 64.9472 21.0566 61.0385 28.0904 57.5556C31.4174 55.8474 34.3725 53.4963 36.7849 50.6385C39.1972 47.7807 41.0189 44.4728 42.1445 40.9063L46.2615 27.9891C47.8364 23.0905 51.2863 19.0146 55.8573 16.6518C60.4282 14.2891 65.7486 13.8318 70.6557 15.3798C80.9868 19.0484 92.3731 22.7896 102.686 16.9741L114.159 11.145C118.731 8.83757 124.029 8.42454 128.905 9.99539C133.78 11.5662 137.84 14.9945 140.206 19.5376C145.138 29.7283 150.424 40.8701 162.295 44.1084C170.035 46.6448 181.123 48.8007 184.538 57.379C188.958 64.8929 185.058 74.1415 182.305 81.5059C181.024 85.1693 180.502 89.0552 180.771 92.9267C181.041 96.7982 182.096 100.574 183.872 104.025C187.482 111.498 194.687 121.481 191.005 130.217Z" fill="black"/>
<path d="M100.469 32.79C82.3521 32.8104 64.9834 40.0162 52.1732 52.8265C39.3629 65.6368 32.1571 83.0054 32.1367 101.122C35.8869 191.778 165.064 191.751 168.8 101.122C168.78 83.0054 161.574 65.6368 148.764 52.8265C135.954 40.0162 118.585 32.8104 100.469 32.79ZM100.469 160.4C84.753 160.382 69.6863 154.131 58.5742 143.018C47.462 131.905 41.2119 116.837 41.1951 101.122C44.4516 22.4861 156.499 22.5088 159.742 101.122C159.726 116.838 153.477 131.907 142.365 143.021C131.252 154.135 116.185 160.382 100.469 160.4Z" fill="black"/>
<path d="M121.707 81.9L92.8787 110.737L79.2186 97.0728C78.3644 96.2478 77.2203 95.7913 76.0328 95.8016C74.8453 95.8119 73.7093 96.2882 72.8695 97.128C72.0298 97.9677 71.5535 99.1037 71.5431 100.291C71.5328 101.479 71.9893 102.623 72.8144 103.477L89.6765 120.344C90.5294 121.186 91.6799 121.659 92.8787 121.659C94.0775 121.659 95.228 121.186 96.0808 120.344L128.116 88.3088C128.941 87.4546 129.397 86.3106 129.387 85.123C129.377 83.9355 128.9 82.7995 128.061 81.9598C127.221 81.12 126.085 80.6437 124.897 80.6333C123.71 80.623 122.566 81.0795 121.711 81.9046L121.707 81.9Z" fill="black"/>
</svg>
