<svg width="239" height="239" viewBox="0 0 239 239" fill="none" xmlns="http://www.w3.org/2000/svg">
<path d="M135.674 47.5125C135.132 46.5105 133.568 47.3657 134.13 48.3778C134.231 48.5803 134.338 48.813 134.424 49.0155C133.331 48.5347 132.657 50.311 133.826 50.6804C137.48 52.4567 136.878 49.9972 135.679 47.5125H135.674ZM134.09 56.1762C132.298 56.9757 130.127 56.7834 128.427 55.665C127.44 55.0426 126.565 56.5608 127.511 57.1832C129.672 58.5546 133.396 59.1467 135.345 57.2541C135.598 56.5 134.828 55.8118 134.09 56.1812V56.1762ZM86.7785 85.244C86.6924 85.3149 86.7228 85.2896 86.7785 85.244V85.244ZM182.6 66.1708C182.615 66.1657 182.636 66.1556 182.651 66.1404C182.631 66.1505 182.615 66.1556 182.605 66.1657L182.6 66.1708Z" fill="black"/>
<path d="M236.299 148.01C233.019 134.438 229.725 120.906 227.736 107.075C226.674 101.165 225.823 95.2085 224.725 89.3129C224.082 87.4203 220.737 88.5488 219.138 88.154C216.719 88.0731 214.305 87.9921 211.887 87.9162C208.395 81.8536 204.731 75.8721 200.212 70.5281C203.031 67.7448 204.296 60.0224 198.466 60.8726C196.492 61.247 194.984 62.5122 193.451 63.6913C190.202 66.1912 186.827 68.5494 183.224 70.5129C184.089 69.3288 185.475 68.428 185.784 66.9199C186.326 64.42 183.34 62.4768 181.275 64.0101C178.477 66.257 175.795 68.762 173.33 71.3783C169.935 75.2597 169.732 80.6087 168.841 85.4315C165.906 95.7702 161.757 105.79 159.839 116.417C158.7 113.457 157.865 110.173 156.175 107.511C156.291 104.824 156.22 101.752 154.981 99.2873C159.186 97.177 160.289 94.4291 157.9 90.2693C156.818 87.7037 155.73 85.143 154.641 82.5773C153.594 80.5075 153.118 76.9247 150.112 77.1524C144.531 73.2355 137.628 74.3387 131.327 75.0219C126.925 74.4855 126.196 68.1497 127.669 64.7743C132.228 65.9432 134.951 65.8724 137.891 61.7835C145.715 52.6492 146.443 39.4816 144.465 28.1054C148.948 33.4443 149.247 44.9065 149.247 44.9065C149.247 44.9065 150.952 29.4414 143.205 24.7857C143.129 19.9883 139.784 16.0006 135.093 14.9733C130.558 2.66601 113.752 -3.64957 102.032 2.21056C89.3552 7.68608 79.224 26.066 95.7669 33.5354C95.1951 38.3025 97.523 42.7153 100.215 46.4702C101.475 49.1118 103.879 50.878 106.839 50.9842C106.855 59.5113 115.736 65.842 107.927 73.4683C101.192 80.4873 85.8179 77.6837 82.3312 87.5923C75.1705 86.4436 73.5916 87.228 73.2323 94.667C72.7869 98.5181 72.3467 102.369 71.9013 106.22C70.9753 109.95 74.9478 111.488 78.0094 110.942C76.8253 118.507 78.1106 126.26 78.7989 133.831C69.0269 123.75 61.0313 110.441 56.8411 97.0505C56.2794 93.9028 57.914 89.7178 59.4676 86.5751C60.4139 81.3172 56.0264 83.0682 53.2987 84.9406C53.6631 82.2129 57.0739 77.203 53.653 75.533C49.4325 73.6758 38.78 91.9495 40.2779 95.507C41.5582 99.6719 45.7534 102.131 47.3424 106.19C53.7086 120.319 60.6871 134.489 71.1119 146.118C66.3145 147.894 61.2489 148.85 56.4666 150.697C50.2675 149.21 50.6521 149.776 45.4245 152.884C41.4621 155.201 37.5047 157.524 33.5423 159.842C24.6003 165.08 15.6532 170.317 6.71122 175.56C5.22847 176.795 -0.0800527 178.515 0.00091627 180.373C2.45023 184.973 5.36511 189.532 8.46217 193.788C10.0056 195.736 11.4681 197.842 13.2646 199.542C19.0033 202.295 24.7572 205.033 30.4958 207.786C27.8593 214.03 25.2278 220.275 22.5913 226.52C22.1459 228.165 24.1499 228.149 25.248 228.149C30.0657 228.544 34.8631 229.121 39.6706 229.652C57.2763 231.778 74.9326 233.357 92.5383 235.472C94.6486 235.32 93.8035 231.079 94.3399 229.541C95.5999 218.519 96.8651 207.497 98.1252 196.475C100.929 210.225 105.959 223.438 112.082 236.029C112.31 236.494 112.867 236.702 113.368 236.631C123.367 236.757 132.901 237.38 142.096 238.372C144.713 238.27 145.36 231.95 146.251 229.885C151.15 210.675 153.736 190.635 152.309 170.818C151.666 163.162 150.3 155.429 147.208 148.349C147.536 142.737 147.729 137.115 147.789 131.493C153.801 143.097 165.334 145.05 170.739 131.832C170.775 134.575 170.754 137.317 170.663 140.055C170.764 141.831 173.032 141.254 174.231 141.528C173.558 148.122 173.168 154.741 173.082 161.37C173.072 162.195 173.77 162.635 174.494 162.605C195.5 164.042 216.578 162.15 237.539 160.181C238.374 160.1 238.955 159.437 238.758 158.582C237.938 155.055 237.113 151.532 236.289 148.005L236.299 148.01ZM206.446 83.7362C207.271 85.0823 208.076 86.4486 208.865 87.815C206.669 87.7441 204.473 87.6682 202.277 87.5974C200.364 83.2048 198.314 78.873 196.138 74.6019C196.983 73.9339 197.793 73.2153 198.542 72.4511C201.533 75.9379 204.048 79.8345 206.441 83.7412L206.446 83.7362ZM199.984 63.6862C200.009 63.7419 200.02 63.7723 199.984 63.6862V63.6862ZM190.308 70.7558C190.374 70.1587 190.445 69.5615 190.521 68.9644C193.588 67.34 196.189 63.4079 199.797 63.3927C201.33 68.5596 193.805 73.4177 189.873 75.7051C189.984 74.0553 190.131 72.4056 190.308 70.7558ZM189.615 82.137C189.625 80.9832 189.661 79.8244 189.706 78.6705C191.189 77.8963 192.661 77.0461 194.068 76.1049C195.972 79.8576 197.778 83.6594 199.483 87.5063C196.229 87.4 192.975 87.2887 189.721 87.1824C189.62 85.5023 189.605 83.8171 189.615 82.1421V82.137ZM191.057 94.9656C190.506 93.2551 190.167 91.4991 189.949 89.7178C196.745 89.9455 203.537 90.1681 210.333 90.3959C211.583 92.6377 212.813 94.8947 213.971 97.1821C214.705 98.6345 216.886 97.3592 216.158 95.9068C215.242 94.0901 214.295 92.2885 213.324 90.4971C216.36 90.6084 219.391 90.6742 222.428 90.8159C224.973 105.836 227.524 120.855 230.069 135.875C214.634 133.643 199.19 131.503 183.765 129.226L180.304 89.404C182.682 89.485 185.055 89.5609 187.434 89.6418C187.652 91.6762 187.996 93.7055 188.623 95.6487C189.124 97.1922 191.568 96.5343 191.062 94.9757L191.057 94.9656ZM187.221 87.0964C184.929 87.0458 182.637 86.8788 180.339 86.8535C181.493 83.7514 184.104 81.3324 187.085 79.9812C187.024 82.3648 187.064 84.7382 187.221 87.0964ZM90.3471 149.23C90.0333 148.572 89.7044 147.924 89.3653 147.282C93.3379 135.465 93.682 122.778 93.8439 110.421L95.7062 110.329C97.6798 118.158 103.327 124.175 108.312 130.253C110.367 133.102 114.066 136.993 112.512 140.789C111.698 141.781 110.529 142.439 109.638 143.365C102.852 149.569 98.6413 158.217 97.0928 167.215C96.2224 167.256 95.4026 167.595 94.6131 167.979C94.7953 161.487 93.1355 155.08 90.3521 149.23H90.3471ZM82.149 136.761C81.0205 135.46 81.481 133.345 81.0913 131.71C80.565 124.838 79.3049 117.723 80.6308 110.896C84.1934 110.82 87.7561 110.704 91.3137 110.542C91.2529 121.903 90.8228 133.401 87.6802 144.311C86.0507 141.649 84.1884 139.119 82.154 136.761H82.149ZM86.5871 147.474C86.0456 148.881 85.3624 150.242 84.5173 151.487C84.2542 147.96 83.1864 144.584 82.4577 141.143C83.9758 143.152 85.3574 145.273 86.5921 147.474H86.5871ZM71.8052 162.888C73.5258 162.782 75.2413 162.681 76.9619 162.575C62.6456 176.82 48.3546 191.081 34.0281 205.316C31.9735 201.06 29.671 196.921 26.9383 193.064C26.6751 192.518 25.8604 191.698 26.5031 191.162C41.1483 180.216 55.7784 169.133 70.5451 158.324C70.8032 159.756 69.7101 162.651 71.8103 162.888H71.8052ZM73.0703 160.282C72.8628 158.562 73.5308 156.456 72.7262 154.923C72.706 154.721 72.6402 154.538 72.539 154.387C74.1786 153.769 75.6866 152.879 77.0075 151.75C78.5357 153.02 80.1602 154.174 81.8605 155.201C81.5316 156.983 80.7877 158.546 79.6541 159.882C77.4578 160.014 75.2666 160.151 73.0703 160.282ZM80.9344 151.588C80.1956 151.072 79.477 150.525 78.7685 149.959C79.7199 148.82 80.4739 147.525 81.0508 146.163C81.5265 148.193 81.9617 150.217 82.0376 152.327C81.6632 152.089 81.2937 151.841 80.9294 151.588H80.9344ZM134.667 61.5355C133.347 63.5091 131.15 62.9221 129.197 62.4869C123.863 61.5659 118.469 60.5386 113.519 58.2816C113.201 52.3759 114.031 46.2475 116.834 40.9744C117.735 41.2831 118.651 41.5362 119.582 41.7183C118.6 46.7485 122.446 49.6128 127.158 49.3395C131.484 49.4964 134.951 46.2779 135.406 42.027C135.826 41.9815 136.251 41.9157 136.677 41.9663C136.666 45.0482 138.26 48.7171 141.509 49.294C140.295 53.8586 138.144 58.1146 134.673 61.5355H134.667ZM139.313 36.7438C138.215 37.2802 137.461 38.3328 137.066 39.4715C136.56 39.3955 136.054 39.3955 135.548 39.4715C133.792 32.9029 122.325 32.6701 120.225 39.2741C119.521 39.1324 118.823 38.9603 118.135 38.7478C123.084 31.4353 132.087 26.4557 140.922 26.0812C142.754 29.1682 142.592 32.9484 142.785 36.4149C141.621 36.172 140.416 36.2074 139.313 36.7438ZM106.738 48.4388C102.821 48.3932 98.7274 40.5392 101.723 37.5889C104.653 34.922 106.333 38.1658 107.513 40.6202C104.173 38.1304 103.454 46.9105 106.845 46.2121C106.784 46.951 106.748 47.6949 106.743 48.4388H106.738ZM84.993 87.5215C85.0183 87.4557 85.0436 87.395 85.0689 87.3292C85.0082 87.4962 84.993 87.5316 84.9981 87.5113C85.155 87.1217 85.4383 86.6511 85.7167 86.2766C85.6357 86.393 85.6155 86.4233 85.6306 86.4132C85.9697 85.9476 86.4302 85.5226 86.8755 85.1632C86.8351 85.1987 86.8047 85.2189 86.7844 85.2392C95.19 79.8699 109.005 81.2312 112.998 70.1941C113.464 71.7882 114.01 73.357 114.795 74.7992C115.498 75.9935 117.623 75.2091 117.107 73.8225C115.453 69.7437 114.157 65.5283 113.752 61.1306C117.411 62.6488 121.267 63.585 125.149 64.3239C123.549 68.4938 124.587 74.2729 128.478 76.8234C133.757 79.0147 139.86 74.7689 146.646 78.1594C126.97 85.4871 105.929 89.5912 84.8969 87.82C84.9272 87.7239 84.9626 87.6227 84.9981 87.5265L84.993 87.5215ZM116.541 72.6384L116.495 72.5321C116.475 72.4865 116.485 72.5068 116.541 72.6384ZM77.5793 108.427C76.1168 108.594 73.7535 108.578 74.4063 106.453C74.9883 101.438 75.7119 95.0162 76.218 90.6944C76.4508 89.6115 77.7412 89.5558 78.6369 89.7329C84.7653 90.4819 90.9442 90.8007 97.1131 90.6995C114.592 90.5173 131.722 86.3474 148.063 80.3355C149.141 79.9357 150.785 78.9489 151.114 80.6897C152.916 84.9355 154.712 89.1864 156.514 93.4322C157.794 96.008 151.6 98.0272 149.869 99.0089C126.864 107.298 101.789 107.536 77.5742 108.427H77.5793ZM79.6997 140.166C80.1298 143.041 78.4851 146.062 76.8506 148.334C76.2838 147.828 75.7271 147.307 75.1856 146.77C77.4123 145.303 78.9912 142.783 79.6997 140.166ZM52.9091 77.9165C52.9091 77.9165 52.8939 77.9165 52.8686 77.8912C52.8888 77.8912 52.904 77.8912 52.9091 77.9165ZM63.8348 132.302C59.5485 125.638 55.8695 118.598 52.5143 111.428C50.5559 107.288 49.0023 102.87 45.8597 99.434C42.0036 95.6993 41.8821 93.2703 44.8425 88.8524C46.9629 84.9406 49.0883 80.801 52.6611 78.0076C52.5548 77.8963 52.4435 77.6939 52.6307 77.7344C52.6409 77.7647 52.6712 77.8254 52.6965 77.876C52.6864 77.9216 52.6712 77.9621 52.6611 78.0076C52.6864 77.9874 52.7117 77.9722 52.737 77.957C52.818 78.1341 52.737 78.0987 52.6611 78.0127C51.8868 80.7403 51.1278 83.4781 50.2877 86.1855C49.5337 87.486 50.1814 89.4394 51.9172 89.0245C53.5669 87.9061 55.1509 86.56 57.0587 85.8009C57.0233 85.9223 56.9676 86.1298 56.9929 86.0843C51.9729 94.2925 54.9485 101.595 59.0374 109.373C63.936 119.221 69.8214 128.952 77.9335 136.487C77.4426 139.696 76.3698 143.203 73.4246 144.969C69.8063 141.093 66.6535 136.69 63.8348 132.307V132.302ZM64.8773 150.682C67.5898 149.903 70.3882 149.25 72.9539 148.051C73.6472 148.749 74.3557 149.427 75.0844 150.09C71.1119 153.369 65.8135 153.375 61.1426 151.786C62.3824 151.401 63.6273 151.031 64.8773 150.682ZM6.84785 178.414C21.6702 169.72 36.5129 161.056 51.3352 152.362C57.4534 153.041 63.2933 155.166 69.3711 156.057C54.3463 167.2 39.1798 178.252 24.4282 189.725C17.976 185.625 10.5623 183.591 3.76597 180.221L6.84279 178.419L6.84785 178.414ZM23.0821 201.44C20.2634 200.078 17.4244 198.753 14.6158 197.391C10.871 193.115 7.60694 188.429 4.72242 183.52C11.1898 186.218 17.7837 188.581 23.7957 192.24C25.8199 196.789 29.256 200.686 31.2195 205.336C28.507 204.041 25.7946 202.74 23.0821 201.445V201.44ZM73.0299 228.959C72.9084 229.536 72.7566 230.118 72.6351 230.7C56.9575 229.318 41.3659 227.092 25.6883 225.649C28.0465 220.052 30.4098 214.461 32.768 208.864C34.5241 209.653 37.3934 205.038 38.9166 204.01L63.6324 179.401C67.5341 175.514 71.4358 171.633 75.3324 167.747C78.8596 164.017 83.8038 160.778 84.3959 155.257C86.076 154.058 87.1893 152.19 88.0698 150.348C90.8987 156.219 92.4725 162.767 92.0019 169.3C91.8652 169.376 91.7337 169.452 91.597 169.528C90.4179 168.268 89.254 163.976 87.3512 164.381H81.2431C79.6136 164.381 79.6136 166.912 81.2431 166.912H86.0304C81.6986 187.594 77.3617 208.277 73.0299 228.959ZM96.6728 187.134C94.9218 202.361 93.2012 217.588 91.4351 232.815C86.0254 232.188 80.6106 231.555 75.2008 230.928C79.5479 210.24 83.8392 189.547 88.2267 168.865C91.4098 175.13 91.6932 171.547 96.6728 169.837C95.9289 175.575 96.0453 181.425 96.6728 187.134ZM168.821 129.787C165.952 138.75 157.9 142.079 152.05 133.36C148.867 129.332 147.233 125.425 147.749 120.248C151.155 118.067 154.004 115.238 155.355 111.554C157.232 116.114 158.68 120.85 159.813 125.617C160.178 127.201 162.617 126.533 162.253 124.944C161.316 122.429 161.66 119.904 162.222 117.343C164.085 107.106 167.895 97.3845 170.947 87.4962C172.854 75.6241 173.006 74.0148 182.591 66.171C182.581 66.171 182.571 66.1811 182.566 66.1811C182.677 66.1001 182.854 65.9635 182.647 66.1406C182.768 66.0748 182.976 65.9584 182.935 65.9584C183.188 65.9686 183.229 66.1204 183.299 66.2115C183.274 66.176 183.31 66.4797 183.32 66.3835C182.48 68.18 179.555 69.6273 180.076 71.9603C181.71 75.5279 185.582 71.8995 187.758 70.766C187.51 72.861 187.323 74.9763 187.201 77.0967C177.029 80.5784 176.225 92.1418 174.474 101.19C172.652 110.714 171.858 120.542 168.821 129.787ZM173.264 137.135C173.33 132.819 173.269 128.492 173.001 124.185C175.046 114.464 176.199 104.611 178.244 94.8896L181.28 129.823C178.608 132.262 175.936 134.696 173.264 137.135ZM174.899 139.068C177.601 136.604 180.304 134.134 183.011 131.67C198.102 133.831 213.192 135.986 228.283 138.147C224.943 140.511 221.598 142.864 218.334 145.328C204.103 141.872 189.448 140.46 174.904 139.068H174.899ZM185.516 160.571C182.227 160.409 178.942 160.13 175.648 160.054C175.764 153.946 176.134 147.843 176.751 141.766C180.886 142.15 185.015 142.57 189.139 143.046C190.227 148.911 191.113 154.802 191.842 160.717C189.736 160.824 187.601 160.677 185.516 160.571ZM203.521 160.262C200.47 160.419 197.418 160.55 194.367 160.672C193.653 154.872 192.793 149.098 191.751 143.35C200.89 144.321 209.984 146.133 218.941 147.914C223.172 144.994 227.296 141.831 231.557 138.922C233.045 145.212 234.522 151.502 235.985 157.797C225.176 158.81 214.361 159.71 203.521 160.262Z" fill="black"/>
</svg>
