<svg width="219" height="226" viewBox="0 0 219 226" fill="none" xmlns="http://www.w3.org/2000/svg">
<path d="M62.5042 100.347C62.5042 96.983 59.7673 94.2461 56.4029 94.2461H47.8756C44.5112 94.2461 41.7743 96.983 41.7743 100.347V107.324C41.7743 110.689 44.5112 113.426 47.8756 113.426H56.4029C59.7673 113.426 62.5042 110.689 62.5042 107.324V100.347ZM55.8901 106.812H48.3884V100.86H55.8901V106.812ZM33.956 100.347C33.956 96.983 31.2191 94.2461 27.8547 94.2461H19.3278C15.9635 94.2461 13.2266 96.983 13.2266 100.347V107.324C13.2266 110.689 15.9635 113.426 19.3278 113.426H27.8547C31.2191 113.426 33.956 110.689 33.956 107.324V100.347ZM27.3419 106.812H19.8407V100.86H27.3419V106.812ZM62.5042 125.461C62.5042 122.097 59.7673 119.36 56.4029 119.36H47.8756C44.5112 119.36 41.7743 122.097 41.7743 125.461V132.439C41.7743 135.802 44.5112 138.539 47.8756 138.539H56.4029C59.7673 138.539 62.5042 135.802 62.5042 132.439V125.461ZM55.8901 131.926H48.3884V125.974H55.8901V131.926ZM33.956 125.461C33.956 122.097 31.2191 119.36 27.8547 119.36H19.3278C15.9635 119.36 13.2266 122.097 13.2266 125.461V132.439C13.2266 135.802 15.9635 138.539 19.3278 138.539H27.8547C31.2191 138.539 33.956 135.802 33.956 132.439V125.461ZM27.3419 131.926H19.8407V125.974H27.3419V131.926ZM56.4034 144.474H47.876C44.5117 144.474 41.7748 147.211 41.7748 150.576V157.553C41.7748 160.918 44.5117 163.654 47.876 163.654H56.4034C59.7678 163.654 62.5047 160.918 62.5047 157.553V150.576C62.5042 147.211 59.7673 144.474 56.4034 144.474ZM55.8901 157.04H48.3884V151.088H55.8901V157.04ZM27.8547 144.474H19.3278C15.9635 144.474 13.2266 147.211 13.2266 150.576V157.553C13.2266 160.918 15.9635 163.654 19.3278 163.654H27.8547C31.2191 163.654 33.956 160.918 33.956 157.553V150.576C33.956 147.211 31.2191 144.474 27.8547 144.474ZM27.3419 157.04H19.8407V151.088H27.3419V157.04ZM76.4243 163.654H84.9511C88.3155 163.654 91.0524 160.917 91.0524 157.553V150.575C91.0524 147.211 88.3155 144.474 84.9511 144.474H76.4243C73.0599 144.474 70.323 147.211 70.323 150.575V157.553C70.323 160.917 73.0599 163.654 76.4243 163.654ZM76.9371 151.089H84.4383V157.04H76.9371V151.089Z" fill="black"/>
<path d="M218.25 196.897L212.946 187.623L216.36 153.782C217.214 145.342 215.995 136.821 212.809 128.959C209.623 121.096 204.566 114.131 198.078 108.666L170.261 85.2266L141.243 34.4877C139.403 31.271 136.421 28.9631 132.845 27.9895C129.27 27.0164 125.529 27.4926 122.313 29.3326L104.282 39.6445V18.553C104.282 8.32274 95.9595 0 85.7297 0H18.553C8.32274 0 0 8.32274 0 18.553V159.17C0 168.761 7.31431 176.675 16.6574 177.627V215.764C16.6574 217.302 17.433 218.711 18.7324 219.533C19.3674 219.938 20.0947 220.174 20.8461 220.22C21.5974 220.266 22.3481 220.12 23.0276 219.796L30.2701 216.367L39.6202 220.419C40.1846 220.663 40.7883 220.786 41.3923 220.786C42.0194 220.786 42.6464 220.654 43.2293 220.391L52.1654 216.355L61.4683 220.409C62.0523 220.664 62.684 220.79 63.321 220.781C63.958 220.771 64.5854 220.624 65.1612 220.352L73.5474 216.379L81.338 219.875C82.017 220.181 82.7621 220.312 83.5048 220.255C84.2476 220.198 84.9641 219.956 85.5886 219.55C86.2147 219.146 86.7293 218.592 87.0852 217.937C87.4411 217.283 87.6268 216.55 87.6253 215.805V177.627C96.9684 176.675 104.283 168.761 104.283 159.17V148.208L108.36 155.337C108.797 156.1 109.304 156.82 109.876 157.488L108.458 164.577C107.853 167.606 108.464 170.688 110.177 173.257C111.89 175.826 114.501 177.575 117.529 178.18C118.292 178.332 119.058 178.408 119.819 178.408C122.078 178.408 124.287 177.743 126.209 176.462C126.242 176.439 126.274 176.416 126.307 176.393C127.946 178.904 130.551 180.783 133.717 181.416C134.459 181.564 135.214 181.639 135.97 181.639C137.872 181.636 139.743 181.165 141.419 180.267C145.593 192.591 152.999 203.753 162.966 212.37L165.29 214.38L170.809 224.029C171.024 224.406 171.312 224.737 171.655 225.003C171.999 225.269 172.391 225.464 172.81 225.578C173.229 225.692 173.667 225.723 174.098 225.668C174.528 225.613 174.944 225.474 175.321 225.258C175.698 225.042 176.029 224.755 176.295 224.411C176.561 224.068 176.756 223.675 176.87 223.256C176.984 222.837 177.015 222.4 176.96 221.969C176.905 221.538 176.766 221.122 176.55 220.745L170.752 210.607C170.566 210.282 170.327 209.991 170.044 209.747L167.292 207.367C153.485 195.429 145.078 178.126 144.227 159.893L143.076 135.237C143.001 133.667 142.556 132.136 141.777 130.771L130.475 111.01C129.643 109.556 129.428 107.865 129.868 106.249C130.309 104.633 131.352 103.285 132.805 102.454C133.519 102.043 134.308 101.778 135.125 101.673C135.942 101.569 136.772 101.628 137.566 101.847C138.362 102.062 139.107 102.431 139.758 102.935C140.409 103.44 140.954 104.068 141.361 104.784L147.676 115.826C148.115 116.581 148.835 117.132 149.678 117.358C150.521 117.585 151.42 117.469 152.178 117.035C152.936 116.602 153.491 115.886 153.724 115.045C153.956 114.203 153.846 113.304 153.418 112.543L147.103 101.501C145.395 98.5134 142.625 96.37 139.304 95.4657C135.984 94.5617 132.509 95.0044 129.522 96.7131C123.355 100.24 121.207 108.127 124.734 114.294L136.036 134.055C136.296 134.511 136.445 135.022 136.47 135.546L137.019 147.31L124.007 154.751C123.18 155.227 122.268 155.534 121.322 155.655C120.376 155.775 119.415 155.707 118.496 155.454C117.575 155.206 116.713 154.778 115.958 154.194C115.204 153.61 114.573 152.883 114.102 152.054L88.0892 106.571C87.6537 105.809 86.9337 105.252 86.0874 105.022C85.2411 104.791 84.338 104.906 83.5766 105.342C82.8152 105.777 82.258 106.497 82.0276 107.344C81.7971 108.19 81.9123 109.093 82.3477 109.854L88.3948 120.428C87.3824 119.731 86.1824 119.359 84.9537 119.36H76.4268C73.0624 119.36 70.3255 122.097 70.3255 125.461V132.439C70.3255 135.803 73.0624 138.54 76.4268 138.54H84.9537C88.318 138.54 91.0549 135.803 91.0549 132.439V125.461C91.0549 125.32 91.043 125.181 91.0338 125.042L97.669 136.644V159.171C97.669 165.754 92.3134 171.11 85.7306 171.11H18.553C11.9698 171.11 6.6141 165.754 6.6141 159.171V18.553C6.6141 11.9698 11.9698 6.6141 18.553 6.6141H85.7297C92.3125 6.6141 97.6682 11.9698 97.6682 18.553V43.4273L91.0541 47.2101V30.3195C91.0541 27.3837 88.6655 24.9951 85.7297 24.9951H18.553C15.6168 24.9951 13.2282 27.3837 13.2282 30.3199V44.4335C13.2282 45.3106 13.5766 46.1517 14.1968 46.7719C14.817 47.3921 15.6582 47.7405 16.5352 47.7405C17.4123 47.7405 18.2535 47.3921 18.8737 46.7719C19.4939 46.1517 19.8423 45.3106 19.8423 44.4335V31.6092H84.44V50.9925L69.5388 59.515C63.5033 62.9666 61.0441 70.2973 63.4984 76.5908H19.8423V58.5268C19.8423 57.6497 19.4939 56.8086 18.8737 56.1884C18.2535 55.5682 17.4123 55.2198 16.5352 55.2198C15.6582 55.2198 14.817 55.5682 14.1968 56.1884C13.5766 56.8086 13.2282 57.6497 13.2282 58.5268V77.8801C13.2282 80.8163 15.6168 83.2049 18.553 83.2049H67.1057L75.3504 97.6205C75.7933 98.3673 76.512 98.91 77.3514 99.1315C78.1908 99.353 79.0837 99.2356 79.8374 98.8046C80.591 98.3736 81.145 97.6635 81.3797 96.8277C81.6144 95.9918 81.511 95.0972 81.0919 94.3369L70.1253 75.1621C68.138 71.6875 69.3484 67.2438 72.823 65.2569L125.597 35.0746C126.423 34.5987 127.336 34.2916 128.282 34.1711C129.228 34.0505 130.188 34.1188 131.108 34.3721C132.029 34.6201 132.891 35.0484 133.645 35.632C134.4 36.2156 135.031 36.9431 135.502 37.7722L179.477 114.665C179.953 115.491 180.26 116.404 180.381 117.35C180.502 118.296 180.433 119.256 180.18 120.176C179.932 121.097 179.504 121.959 178.92 122.713C178.337 123.467 177.609 124.098 176.78 124.569L164.359 131.673L160.414 124.776C159.978 124.015 159.258 123.458 158.412 123.227C157.566 122.997 156.663 123.112 155.901 123.547C155.14 123.983 154.583 124.703 154.352 125.549C154.122 126.395 154.237 127.299 154.672 128.06L163.594 143.659C163.81 144.036 164.097 144.367 164.441 144.633C164.784 144.899 165.177 145.094 165.596 145.208C166.015 145.322 166.452 145.353 166.883 145.298C167.314 145.243 167.73 145.104 168.107 144.888C168.484 144.672 168.814 144.385 169.08 144.041C169.346 143.698 169.541 143.305 169.656 142.886C169.77 142.467 169.8 142.03 169.745 141.599C169.69 141.168 169.551 140.752 169.335 140.375L167.642 137.415L180.064 130.311C183.281 128.471 185.588 125.489 186.562 121.914C187.536 118.339 187.059 114.598 185.219 111.381L179.81 101.923L193.816 113.725C199.481 118.496 203.897 124.579 206.679 131.444C209.461 138.309 210.526 145.749 209.78 153.119L206.26 188.014C206.191 188.7 206.337 189.39 206.68 189.989L212.509 200.182C212.725 200.559 213.012 200.89 213.356 201.156C213.699 201.421 214.092 201.617 214.511 201.731C214.93 201.845 215.367 201.876 215.798 201.821C216.229 201.766 216.645 201.626 217.022 201.411C217.783 200.975 218.34 200.254 218.57 199.408C218.801 198.562 218.685 197.658 218.25 196.897ZM137.62 160.202C137.832 164.699 138.461 169.167 139.497 173.549C138.345 174.715 136.664 175.26 135.013 174.93C132.338 174.396 130.597 171.785 131.132 169.11L133.572 156.9L137.364 154.731L137.62 160.202ZM120.425 162.329C122.329 162.329 124.213 161.927 125.978 161.148L124.646 167.813C124.52 168.451 124.269 169.057 123.908 169.597C123.546 170.137 123.081 170.6 122.539 170.959C122 171.322 121.394 171.573 120.756 171.699C120.118 171.825 119.462 171.824 118.825 171.694C117.53 171.436 116.413 170.687 115.679 169.588C114.946 168.489 114.685 167.17 114.944 165.874L115.811 161.537C116.122 161.646 116.436 161.748 116.757 161.835C117.952 162.162 119.186 162.328 120.425 162.329ZM84.44 131.926H76.9387V125.974H84.44V131.926ZM81.0108 212.479L75.3482 209.938C74.7598 209.673 74.1211 209.54 73.4761 209.547C72.8312 209.553 72.1954 209.7 71.6126 209.976L63.214 213.955L53.9318 209.91C53.3603 209.661 52.7431 209.535 52.1198 209.539C51.4966 209.543 50.8811 209.678 50.313 209.934L41.3747 213.971L32.0052 209.911C31.4223 209.658 30.7921 209.533 30.1568 209.543C29.5215 209.554 28.8958 209.7 28.3216 209.972L23.271 212.363V177.723H81.0108V212.479Z" fill="black"/>
<path d="M126.929 59.8011C127.16 58.9549 127.044 58.0517 126.609 57.2904C126.174 56.529 125.453 55.9718 124.607 55.7414C118.095 53.9684 111.282 54.8366 105.424 58.1873C99.5653 61.538 95.3623 66.9695 93.5888 73.4817C93.3584 74.328 93.4736 75.2311 93.909 75.9925C94.3445 76.7538 95.0646 77.311 95.9108 77.5415C96.2019 77.6208 96.4942 77.6587 96.7817 77.6587C97.5071 77.658 98.2121 77.4189 98.7883 76.9782C99.3644 76.5375 99.7798 75.9198 99.9706 75.2199C101.28 70.4123 104.383 66.4024 108.707 63.9292C113.033 61.4555 118.061 60.8144 122.869 62.1236C123.716 62.3536 124.619 62.2382 125.38 61.8027C126.141 61.3672 126.699 60.6473 126.929 59.8011Z" fill="black"/>
<path d="M119.394 74.8901C120.241 75.1201 121.144 75.0047 121.905 74.5695C122.666 74.1342 123.223 73.4145 123.454 72.5685C123.569 72.1495 123.599 71.7121 123.544 71.2813C123.489 70.8504 123.35 70.4347 123.135 70.0576C122.919 69.6806 122.631 69.3497 122.288 69.0839C121.944 68.8181 121.552 68.6225 121.133 68.5084C118.029 67.6631 114.783 68.0749 111.994 69.6694C109.205 71.2638 107.204 73.8521 106.358 76.9577C106.128 77.8039 106.243 78.7071 106.679 79.4684C107.114 80.2298 107.834 80.787 108.68 81.0174C108.971 81.0968 109.264 81.1347 109.551 81.1347C110.277 81.1339 110.982 80.8948 111.558 80.4541C112.134 80.0135 112.549 79.3957 112.74 78.6958C112.925 78.0077 113.244 77.3631 113.68 76.7992C114.115 76.2354 114.658 75.7635 115.277 75.4108C115.895 75.0562 116.577 74.8276 117.284 74.7382C117.99 74.6488 118.708 74.7005 119.394 74.8901ZM118.103 87.0142C118.318 87.3912 118.606 87.7221 118.95 87.9879C119.293 88.2537 119.685 88.4493 120.105 88.5634C120.524 88.6775 120.961 88.708 121.392 88.653C121.823 88.598 122.238 88.4587 122.615 88.2431C122.992 88.0275 123.323 87.7397 123.589 87.3963C123.855 87.0528 124.05 86.6603 124.164 86.2413C124.279 85.8223 124.309 85.3849 124.254 84.9541C124.199 84.5232 124.06 84.1075 123.844 83.7305L122.746 81.8098C122.53 81.4328 122.243 81.1019 121.899 80.8362C121.556 80.5704 121.163 80.3748 120.744 80.2607C120.325 80.1466 119.888 80.1161 119.457 80.1711C119.026 80.226 118.61 80.3653 118.233 80.5809C117.856 80.7965 117.525 81.0842 117.26 81.4277C116.994 81.7712 116.798 82.1636 116.684 82.5826C116.57 83.0017 116.54 83.4391 116.595 83.8699C116.65 84.3007 116.789 84.7164 117.004 85.0934L118.103 87.0142Z" fill="black"/>
</svg>
