<svg width="504" height="444" viewBox="0 0 504 444" fill="none" xmlns="http://www.w3.org/2000/svg">
<path d="M476.004 320.384V304.088C476.004 291.876 468.128 281.488 457.076 277.672C464.848 270.736 471.012 262.856 475.472 254.004C486.06 233.004 485.296 210.436 481.6 192.564C495.448 183.792 504.004 168.608 504.004 152.092C504.004 125.624 482.472 104.092 456.004 104.092C446.196 104.092 436.86 107.052 428.82 112.62C417.6 106.312 404.26 102.684 388.576 104.052C366.684 106 346.564 117.3 332.828 131.252C328.908 128.836 324.56 127.764 320.272 128.24C313.324 129.012 306.768 133.552 300.676 141.872C300.344 142.372 292.996 153.528 292.092 165.696C285.74 169.424 266.748 182.064 254.616 204.944C252.662 204.796 250.717 204.537 248.792 204.168C242.072 202.816 232.876 198.812 226.156 195.896C224.118 194.997 222.065 194.128 220 193.292V175.356C222.333 174.534 224.354 173.01 225.787 170.993C227.219 168.976 227.992 166.566 228 164.092C228 157.476 222.616 152.092 216 152.092C209.384 152.092 204 157.476 204 164.092C204 169.3 207.356 173.7 212 175.356V190.888C203.792 188.896 194.788 187.7 184 187.772V175.36C186.333 174.538 188.354 173.014 189.787 170.997C191.219 168.98 191.992 166.57 192 164.096C192 157.48 186.616 152.096 180 152.096C173.384 152.096 168 157.48 168 164.096C168 169.304 171.356 173.704 176 175.36V188.048C167.78 188.54 158.56 189.716 148 191.744V179.36C150.333 178.538 152.354 177.014 153.787 174.997C155.219 172.98 155.992 170.57 156 168.096C156 161.48 150.616 156.096 144 156.096C137.384 156.096 132 161.48 132 168.096C132 173.304 135.356 177.704 140 179.36V193.388C130.594 195.469 121.256 197.847 112 200.52V187.356C114.333 186.534 116.354 185.01 117.787 182.993C119.219 180.976 119.992 178.566 120 176.092C120 169.476 114.616 164.092 108 164.092C101.384 164.092 96 169.476 96 176.092C96 181.3 99.356 185.7 104 187.356V202.876C98.516 204.524 92.8 206.316 86.776 208.284C86.684 208.312 83.212 209.388 76 210.728V195.356C78.3329 194.534 80.3542 193.01 81.7866 190.993C83.2189 188.976 83.9921 186.566 84 184.092C84 177.476 78.616 172.092 72 172.092C65.384 172.092 60 177.476 60 184.092C60 189.3 63.356 193.7 68 195.356V212.052C60.86 213.116 51.588 214.184 40 214.96V203.36C42.3329 202.538 44.3542 201.014 45.7866 198.997C47.2189 196.98 47.9921 194.57 48 192.096C48 185.48 42.616 180.096 36 180.096C29.384 180.096 24 185.48 24 192.096C24 197.304 27.356 201.704 32 203.36V215.428C23.688 215.84 14.396 216.1 4 216.1C2.93913 216.1 1.92172 216.522 1.17157 217.272C0.421427 218.022 0 219.039 0 220.1V324C0 324.424 0.12 324.808 0.24 325.188V398.896C0.0985519 399.279 0.0175797 399.681 0 400.088V440C0 441.061 0.421427 442.078 1.17157 442.829C1.92172 443.579 2.93913 444 4 444H500C501.061 444 502.078 443.579 502.828 442.829C503.579 442.078 504 441.061 504 440V352.216C504.004 335.9 491.772 322.42 476.004 320.384ZM144.004 164.088C146.208 164.088 148.004 165.88 148.004 168.088C148.004 170.216 146.324 171.92 144.228 172.044C144.148 172.04 144.084 172 144.004 172C143.924 172 143.86 172.04 143.78 172.044C142.764 171.992 141.807 171.553 141.105 170.817C140.403 170.082 140.009 169.105 140.004 168.088C140.004 165.884 141.8 164.088 144.004 164.088ZM108.004 172.088C110.208 172.088 112.004 173.88 112.004 176.088C112.004 178.216 110.324 179.92 108.228 180.044C108.148 180.04 108.084 180 108.004 180C107.924 180 107.86 180.04 107.78 180.044C106.764 179.992 105.807 179.553 105.105 178.817C104.403 178.082 104.009 177.105 104.004 176.088C104.004 173.884 105.8 172.088 108.004 172.088ZM72.004 180.088C74.208 180.088 76.004 181.88 76.004 184.088C76.004 186.216 74.324 187.92 72.228 188.044C72.148 188.04 72.084 188 72.004 188C71.924 188 71.86 188.04 71.78 188.044C70.7643 187.992 69.8071 187.553 69.1049 186.817C68.4027 186.082 68.0088 185.105 68.004 184.088C68.004 181.884 69.8 180.088 72.004 180.088ZM36.004 188.088C38.208 188.088 40.004 189.88 40.004 192.088C40.004 194.216 38.324 195.92 36.228 196.044C36.148 196.04 36.084 196 36.004 196C35.924 196 35.86 196.04 35.78 196.044C34.7643 195.992 33.8071 195.553 33.1049 194.817C32.4027 194.082 32.0088 193.105 32.004 192.088C32.004 189.884 33.8 188.088 36.004 188.088ZM468.004 304.088V320.088H254.016C257.564 314.247 260.746 308.191 263.544 301.956C265.316 298.6 268.144 294.244 271.848 289.076C284.9 297.34 303.656 304.096 330.28 304.096C341.688 304.096 354.536 302.856 368.972 299.972L370.632 299.556C375.165 298.467 379.669 297.261 384.14 295.94C384.084 298.632 384.004 301.28 384.004 304.088C384.002 304.614 384.104 305.135 384.304 305.621C384.504 306.108 384.799 306.549 385.171 306.921C385.543 307.293 385.984 307.588 386.471 307.788C386.957 307.988 387.478 308.09 388.004 308.088C388.264 308.088 388.528 308.06 388.792 308.008C413.6 303.024 433.696 295.048 448.948 284.18C459.528 284.688 468.004 293.384 468.004 304.088ZM456.004 112.088C478.06 112.088 496.004 130.032 496.004 152.088C496.001 158.379 494.514 164.58 491.665 170.188C488.815 175.796 484.683 180.653 479.604 184.364C477.554 176.82 474.88 169.46 471.608 162.36C465.064 148.72 453.62 129.968 436.228 117.384C442.239 113.909 449.061 112.083 456.004 112.088ZM389.288 112.02C400.252 111.04 413.532 112.584 426.96 120.62C427.088 120.704 427.208 120.788 427.344 120.856C440.208 128.668 453.188 142.464 464.384 165.792C469.652 177.028 485.512 216.332 468.332 250.404C456.364 274.144 430.708 290.528 392.036 299.152C392.073 296.355 392.144 293.559 392.248 290.764L392.252 290.652C395.112 212.648 422.364 187.348 422.64 187.104C423.224 186.589 423.645 185.915 423.852 185.164C424.059 184.414 424.043 183.619 423.806 182.878C423.569 182.136 423.121 181.48 422.517 180.988C421.913 180.497 421.178 180.193 420.404 180.112C382.572 176.332 359.268 149.752 359.04 149.488C358.665 149.051 358.2 148.7 357.677 148.459C357.153 148.218 356.584 148.093 356.008 148.092C343.108 148.092 333.384 150.184 326.944 152.244C329.256 147.9 332.424 143.536 336.224 139.348C336.276 139.292 336.348 139.272 336.4 139.212C336.448 139.16 336.46 139.088 336.5 139.032C348.984 125.432 368.432 113.876 389.288 112.02ZM297.844 171.64C299.168 170.952 300.004 169.58 300.004 168.088C300.004 157.504 307.236 146.452 307.232 146.452C311.78 140.244 316.596 136.7 321.16 136.188C323.306 135.969 325.469 136.376 327.388 137.36C321.784 144.272 317.724 151.56 315.796 158.528C315.586 159.299 315.61 160.114 315.867 160.87C316.124 161.627 316.601 162.289 317.237 162.772C317.873 163.255 318.639 163.536 319.437 163.581C320.234 163.625 321.026 163.43 321.712 163.02C321.824 162.952 332.992 156.448 354.248 156.104C359.472 161.632 380.032 181.36 412.12 187.032C405.784 195.42 395.268 213.48 389.052 245.936C385.36 241.632 381.524 240.288 381.268 240.204C380.276 239.872 379.193 239.946 378.255 240.41C377.318 240.874 376.602 241.69 376.264 242.68C375.922 243.676 375.983 244.766 376.435 245.717C376.886 246.668 377.692 247.404 378.68 247.768C378.924 247.86 384.508 250.084 386.904 259.024C385.637 268.46 384.805 277.948 384.408 287.46C379.224 289.08 373.986 290.523 368.704 291.788L367.216 292.164C292.672 307.064 264.18 276.008 255.392 261.964C252.904 257.988 252 251.484 252 248.084C252.004 196.072 297.388 171.88 297.844 171.64ZM216.004 160.088C218.208 160.088 220.004 161.88 220.004 164.088C220.004 166.216 218.324 167.92 216.228 168.044C216.148 168.04 216.084 168 216.004 168C215.924 168 215.86 168.04 215.78 168.044C214.764 167.992 213.807 167.553 213.105 166.817C212.403 166.082 212.009 165.105 212.004 164.088C212.004 161.884 213.8 160.088 216.004 160.088ZM180.004 160.088C182.208 160.088 184.004 161.88 184.004 164.088C184.004 166.216 182.324 167.92 180.228 168.044C180.148 168.04 180.084 168 180.004 168C179.924 168 179.86 168.04 179.78 168.044C178.764 167.992 177.807 167.553 177.105 166.817C176.403 166.082 176.009 165.105 176.004 164.088C176.004 161.884 177.8 160.088 180.004 160.088ZM32.004 223.432V228C32.004 229.061 32.4254 230.078 33.1756 230.829C33.9257 231.579 34.9431 232 36.004 232C37.0649 232 38.0823 231.579 38.8324 230.829C39.5826 230.078 40.004 229.061 40.004 228V222.98C51.456 222.236 60.756 221.212 68.036 220.16C68.0572 221.217 68.4973 222.222 69.2595 222.954C70.0216 223.686 71.0434 224.085 72.1 224.064C73.1566 224.043 74.1615 223.603 74.8937 222.841C75.6258 222.079 76.0252 221.057 76.004 220V218.88C84.572 217.34 88.832 216.024 89.248 215.888C94.38 214.208 99.28 212.668 104.004 211.228V212C104.004 213.061 104.425 214.078 105.176 214.829C105.926 215.579 106.943 216 108.004 216C109.065 216 110.082 215.579 110.832 214.829C111.583 214.078 112.004 213.061 112.004 212V208.844C122.272 205.86 131.568 203.444 140.004 201.556V204C140.004 205.061 140.425 206.078 141.176 206.829C141.926 207.579 142.943 208 144.004 208C145.065 208 146.082 207.579 146.832 206.829C147.583 206.078 148.004 205.061 148.004 204V199.876C158.636 197.776 167.852 196.556 176.004 196.048V200C176.004 201.061 176.425 202.078 177.176 202.829C177.926 203.579 178.943 204 180.004 204C181.065 204 182.082 203.579 182.832 202.829C183.583 202.078 184.004 201.061 184.004 200V195.768C194.924 195.7 203.872 197.004 212.004 199.136V200C212.004 201.061 212.425 202.078 213.176 202.829C213.926 203.579 214.943 204 216.004 204C216.747 203.995 217.473 203.782 218.101 203.386C218.728 202.989 219.233 202.425 219.556 201.756C220.636 202.216 221.776 202.708 222.968 203.228C230.012 206.292 239.66 210.484 247.216 212.008C248.444 212.256 249.716 212.436 251 212.608C246.796 222.72 244.004 234.48 244.004 248.088C244.004 252.08 244.976 260.392 248.612 266.208C251.696 271.136 256.992 277.964 265.304 284.476C261.4 289.924 258.376 294.6 256.356 298.448C252.988 305.961 249.033 313.197 244.528 320.088H173.472C192.904 311.204 202.124 303.448 202.608 303.032C203.383 302.334 203.854 301.36 203.922 300.319C203.989 299.279 203.647 298.253 202.969 297.46C202.291 296.668 201.33 296.171 200.291 296.077C199.252 295.983 198.218 296.298 197.408 296.956C197.268 297.08 182.924 309.088 152.188 320.088H8.004V224.08C16.816 224.024 24.744 223.78 32.004 223.432ZM8.004 436V404.088H496.004V436H8.004ZM496.004 396.088H8.244V328.088H471.88C478.276 328.096 484.408 330.64 488.93 335.162C493.453 339.685 495.997 345.816 496.004 352.212V396.088ZM4.16 67.9961L105.868 64.0801C108.756 67.5681 113.116 68.7041 116.732 69.6481C118.732 70.1721 120.624 70.6641 121.9 71.4281C123.096 72.1481 124.204 73.3921 124.488 74.1041L132.268 93.5521C135.016 100.072 140.264 104.096 145.524 104.096C146.572 104.096 147.62 103.936 148.652 103.604C151.648 102.64 161.016 97.7321 155.832 75.0281L154.156 68.3281L206.872 83.8321C207.239 83.9432 207.62 83.9998 208.004 84.0001C216.78 84.0001 220.672 79.3041 222.212 76.5081C223.636 73.9201 224.228 70.8321 224.056 67.7961C225.3 67.9161 226.496 68.0001 227.592 68.0001C239.852 68.0001 243.112 60.8281 243.852 58.4441C245.528 53.0361 243.276 46.9001 238.72 44.4681C238.503 44.3515 238.275 44.2551 238.04 44.1801L224.768 39.9961H232.208C245.3 39.3281 250.956 32.0121 251.876 25.3881C252.704 19.4481 249.852 13.7841 245.244 12.2161C244.896 12.0958 244.532 12.0244 244.164 12.0041L167.956 8.00013C155.608 8.00013 139.66 11.9521 139.172 12.0801L119.836 15.9481L4.552 0.0401291C3.98556 -0.0408808 3.40831 0.00107637 2.85953 0.163149C2.31076 0.325222 1.80333 0.603605 1.37179 0.979357C0.940243 1.35511 0.594703 1.81942 0.358678 2.34068C0.122653 2.86194 0.00168372 3.42793 0.00400019 4.00013V64.0001C0.00400019 65.0841 0.448 66.1281 1.232 66.8841C1.61176 67.2686 2.06978 67.5669 2.57499 67.7588C3.08019 67.9506 3.62075 68.0316 4.16 67.9961ZM215.204 72.6521C214.044 74.7561 211.808 75.8801 208.552 75.9921L151.968 59.3481C152.016 55.6841 152.464 52.3481 153.188 49.4801L215.524 65.7121C216.272 67.7441 216.384 70.5041 215.204 72.6521ZM235.16 51.6601C236.004 52.3241 236.788 54.2281 236.216 56.0721C235.28 59.0921 230.988 60.4961 224.728 59.8441L219.228 58.4121L219.212 58.4081L156.544 42.0881C157.592 40.8481 158.756 40.0721 160.008 40.0001H198.152L235.16 51.6601ZM8.004 8.58813L119.408 23.9601C119.851 24.0249 120.302 24.0113 120.74 23.9201L140.924 19.8761C141.08 19.8401 156.6 15.9961 167.744 15.9921L242.916 19.9441C243.488 20.4681 244.256 22.0721 243.952 24.2761C243.316 28.8241 238.888 31.6401 232.004 31.9961L159.784 32.0041C150.168 32.5361 143.956 43.5241 143.956 59.9961C143.956 60.3241 143.996 60.6481 144.076 60.9641L148.056 76.8841C150.944 89.5281 148.528 95.2361 146.204 95.9841C144.404 96.5721 141.396 94.5961 139.672 90.5081L131.92 71.1281C130.744 68.1881 128.004 65.7521 126.016 64.5601C123.756 63.2041 121.212 62.5401 118.752 61.9001C114.912 60.8961 112.508 60.1481 111.536 58.2001C111.201 57.5383 110.689 56.9823 110.057 56.594C109.425 56.2056 108.698 56 107.956 56.0001L107.8 56.0041L8.004 59.8441V8.58813Z" fill="black"/>
<path d="M346.74 175.792C346.832 175.824 356.004 179.348 356.004 196C356.004 197.061 356.425 198.079 357.175 198.829C357.926 199.579 358.943 200 360.004 200C361.065 200 362.082 199.579 362.832 198.829C363.582 198.079 364.004 197.061 364.004 196C364.004 173.38 349.872 168.408 349.268 168.208C348.764 168.019 348.228 167.933 347.69 167.956C347.152 167.979 346.625 168.11 346.139 168.341C345.653 168.573 345.219 168.9 344.863 169.303C344.507 169.706 344.235 170.177 344.065 170.687C343.895 171.198 343.83 171.737 343.873 172.274C343.916 172.81 344.067 173.332 344.317 173.809C344.566 174.285 344.91 174.707 345.326 175.047C345.742 175.388 346.223 175.642 346.74 175.792ZM339.96 208C341.021 208.001 342.038 207.58 342.789 206.83C343.539 206.08 343.961 205.063 343.962 204.002C343.962 202.941 343.541 201.924 342.792 201.173C342.042 200.423 341.025 200.001 339.964 200C337.22 199.988 332.916 198.996 332.144 197.412C331.716 196.532 332.236 194.18 335.124 190.452C335.743 189.611 336.009 188.562 335.865 187.527C335.721 186.493 335.178 185.556 334.352 184.917C333.527 184.277 332.483 183.986 331.446 184.106C330.408 184.225 329.459 184.746 328.8 185.556C324.176 191.528 322.884 196.704 324.964 200.944C328.328 207.8 338.78 208 339.96 208ZM356.188 269.412C355.76 268.532 356.28 266.18 359.168 262.452C359.787 261.611 360.054 260.562 359.909 259.527C359.765 258.493 359.222 257.556 358.396 256.917C357.571 256.277 356.527 255.986 355.49 256.106C354.452 256.225 353.503 256.746 352.844 257.556C348.22 263.528 346.928 268.704 349.008 272.944C352.372 279.8 362.824 280 364.004 280C365.063 280 366.078 279.58 366.827 278.831C367.575 278.082 367.996 277.067 367.996 276.008C367.996 274.948 367.576 273.931 366.828 273.18C366.079 272.429 365.064 272.004 364.004 272C361.264 271.988 356.96 270.996 356.188 269.412ZM322.216 255.58C323.165 256.055 324.265 256.133 325.272 255.797C326.279 255.462 327.111 254.74 327.586 253.79C328.061 252.841 328.139 251.742 327.803 250.735C327.467 249.727 326.745 248.895 325.796 248.42C320.252 245.652 320.008 236.172 320.008 235.988C320.007 235.463 319.903 234.943 319.701 234.458C319.499 233.973 319.204 233.532 318.832 233.162C318.46 232.791 318.019 232.497 317.533 232.296C317.047 232.096 316.527 231.993 316.002 231.994C315.477 231.995 314.957 232.099 314.472 232.301C313.987 232.503 313.546 232.798 313.175 233.17C312.804 233.542 312.51 233.983 312.31 234.469C312.11 234.955 312.007 235.475 312.008 236C312.004 236.588 312.12 250.532 322.216 255.58ZM298.6 279.748C299.583 280.075 300.654 280.009 301.589 279.563C302.524 279.117 303.25 278.326 303.614 277.356C303.978 276.387 303.952 275.313 303.541 274.362C303.13 273.411 302.367 272.656 301.412 272.256C272.964 261.588 275.832 237.58 275.972 236.552C276.096 235.513 275.808 234.467 275.17 233.638C274.532 232.809 273.594 232.262 272.558 232.116C271.522 231.97 270.47 232.236 269.628 232.857C268.785 233.477 268.22 234.403 268.052 235.436C268 235.748 263.992 266.764 298.6 279.748ZM416.004 280C417.065 280 418.082 279.579 418.832 278.829C419.582 278.079 420.004 277.061 420.004 276C420.004 237.892 446.892 202.804 447.164 202.452C447.793 201.613 448.067 200.56 447.927 199.521C447.788 198.482 447.245 197.539 446.417 196.895C445.589 196.252 444.541 195.959 443.5 196.081C442.458 196.202 441.506 196.728 440.848 197.544C439.672 199.06 412.008 235.1 412.008 276C412.007 276.525 412.109 277.046 412.31 277.531C412.51 278.017 412.804 278.458 413.176 278.83C413.547 279.201 413.988 279.496 414.473 279.697C414.958 279.898 415.479 280.001 416.004 280ZM374.02 139.472C375.188 140.14 402.924 155.876 427.348 159.944C427.872 160.047 428.412 160.043 428.935 159.933C429.458 159.823 429.954 159.61 430.393 159.305C430.832 159 431.206 158.611 431.492 158.159C431.778 157.708 431.971 157.204 432.059 156.676C432.147 156.149 432.128 155.61 432.004 155.09C431.88 154.57 431.653 154.08 431.337 153.65C431.02 153.219 430.621 152.856 430.162 152.582C429.703 152.309 429.193 152.13 428.664 152.056C405.668 148.224 378.264 132.684 377.992 132.528C377.536 132.262 377.031 132.09 376.508 132.02C375.985 131.95 375.453 131.984 374.943 132.121C374.433 132.257 373.955 132.494 373.537 132.816C373.118 133.138 372.768 133.54 372.506 133.998C372.244 134.457 372.075 134.962 372.009 135.486C371.944 136.01 371.982 136.542 372.123 137.051C372.264 137.559 372.504 138.035 372.829 138.451C373.155 138.867 373.559 139.214 374.02 139.472Z" fill="black"/>
</svg>
