<svg width="500" height="513" viewBox="0 0 500 513" fill="none" xmlns="http://www.w3.org/2000/svg">
<path d="M121.449 135.922H121.41C110.451 134.394 101.167 138.44 94.585 143.786C94.5819 143.788 94.5792 143.791 94.577 143.793C90.144 148.584 87.446 154.834 87.446 161.679C87.446 178.324 103.379 191.454 121.49 188.608C121.477 188.045 121.449 187.485 121.449 186.921V135.922ZM290.27 143.773C284.126 138.207 274.611 134.331 263.453 135.921H263.415V186.231C263.415 187.026 263.381 187.814 263.355 188.603C281.474 191.461 297.418 178.328 297.418 161.677C297.417 154.824 294.713 148.567 290.27 143.773Z" stroke="black" stroke-width="15" stroke-miterlimit="10" stroke-linecap="round" stroke-linejoin="round"/>
<path d="M244.151 135.922C241.927 135.922 241.76 135.865 229.431 134.82C212.377 133.374 197.672 120.431 193.594 103.645C193.463 103.105 192.989 102.72 192.433 102.72C191.877 102.72 191.404 103.105 191.272 103.645C187.132 120.722 172.101 133.584 155.042 134.891C156.042 134.814 142.428 135.923 140.007 135.923H121.448V186.921C121.448 223.399 149.963 256.746 193.159 256.891C231.798 257.021 263.413 224.872 263.413 186.232V135.922H244.151Z" stroke="black" stroke-width="15" stroke-miterlimit="10" stroke-linecap="round" stroke-linejoin="round"/>
<path d="M306.864 227.028V122.431C306.864 58.9471 255.171 7.53813 191.576 8.00313C128.477 8.46413 78.0021 60.7641 78.0021 123.864V302.762L145.447 276.615C147.548 275.801 152.475 274.47 152.475 268.947V244.95L152.477 244.951C133.459 232.332 122.034 211.167 121.489 188.607C103.379 191.452 87.4471 178.322 87.4471 161.677C87.4471 154.832 90.1451 148.582 94.5781 143.791C94.5812 143.789 94.5839 143.787 94.5861 143.784C101.168 138.438 110.452 134.392 121.411 135.92H140.009C142.43 135.92 156.044 134.812 155.044 134.888C172.154 133.578 187.149 120.668 191.274 103.642C191.405 103.102 191.878 102.717 192.435 102.717C192.991 102.717 193.465 103.102 193.596 103.642C197.69 120.494 212.444 133.377 229.433 134.818C241.761 135.863 241.929 135.92 244.152 135.92H263.453C274.611 134.33 284.127 138.205 290.27 143.772C294.713 148.565 297.417 154.823 297.417 161.677C297.417 178.323 281.483 191.452 263.372 188.606C262.592 211.812 250.429 232.447 232.325 244.807L232.345 268.99C232.349 270.443 232.791 271.862 233.614 273.059C234.437 274.257 235.603 275.179 236.958 275.703L262.804 285.713V283.182C262.804 282.364 263.129 281.58 263.707 281.002C264.285 280.424 265.069 280.099 265.887 280.099H274.059M318.515 503.225V421.023M66.3511 384.633V503.225" stroke="black" stroke-width="15" stroke-miterlimit="10" stroke-linecap="round" stroke-linejoin="round"/>
<path d="M248.931 505V280.341L236.958 275.705C235.603 275.18 234.437 274.259 233.614 273.061C232.791 271.863 232.349 270.445 232.345 268.992L232.325 244.809C221.116 252.461 207.631 256.941 193.159 256.892C177.421 256.839 163.645 252.364 152.473 244.951V268.948C152.473 274.472 147.546 275.802 145.445 276.617L135.93 280.306V505.001" stroke="black" stroke-width="15" stroke-miterlimit="10" stroke-linecap="round" stroke-linejoin="round"/>
<path d="M135.931 343.038C153.316 346.483 170.488 338.883 176.327 333.466C180.004 330.054 179.76 324.175 175.83 321.059C157.017 306.142 145.815 290.068 139.619 278.876L135.932 280.306L135.931 343.038Z" stroke="black" stroke-width="15" stroke-miterlimit="10" stroke-linecap="round" stroke-linejoin="round"/>
<path d="M139.618 278.875C145.814 290.067 157.016 306.142 175.829 321.058C178.139 322.89 179.165 325.676 178.88 328.355H205.981C205.696 325.676 206.721 322.89 209.032 321.058C227.827 306.155 239.026 290.097 245.226 278.906L236.957 275.704C235.602 275.179 234.436 274.258 233.613 273.06C232.79 271.862 232.348 270.444 232.344 268.991L232.324 244.808C221.115 252.46 207.63 256.94 193.158 256.891C177.42 256.838 163.644 252.363 152.472 244.95V268.947C152.472 274.471 147.545 275.801 145.444 276.616C145.22 276.704 143.087 277.531 139.618 278.875Z" stroke="black" stroke-width="15" stroke-miterlimit="10" stroke-linecap="round" stroke-linejoin="round"/>
<path d="M248.931 280.341C247.696 279.863 246.462 279.385 245.227 278.906C239.027 290.097 227.828 306.156 209.033 321.058C205.103 324.174 204.859 330.054 208.536 333.465C214.374 338.882 231.547 346.482 248.932 343.037L248.931 280.341ZM135.931 280.305C128 283.379 120.068 286.454 112.137 289.53L96.6203 321.722C94.3121 326.51 92.9885 331.713 92.7279 337.023C92.4674 342.332 93.2751 347.64 95.1033 352.632L135.932 464.109L135.931 280.305Z" stroke="black" stroke-width="15" stroke-miterlimit="10" stroke-linecap="round" stroke-linejoin="round"/>
<path d="M192.423 360.023V468.689M283.986 312.891C272.226 312.523 262.804 302.881 262.804 291.032V285.714L248.931 280.341V464.109L289.76 352.632C291.588 347.64 292.396 342.332 292.135 337.023C291.875 331.713 290.551 326.51 288.243 321.722L283.986 312.891Z" stroke="black" stroke-width="15" stroke-miterlimit="10" stroke-linecap="round" stroke-linejoin="round"/>
<path d="M455.92 230.349L483.564 279.366M420.426 279.366L448.071 230.349M306.206 230.135L333.971 279.366M270.833 279.366L298.6 230.131M338.917 280.099H265.887C265.483 280.099 265.082 280.178 264.708 280.333C264.334 280.488 263.994 280.715 263.707 281.002C263.421 281.288 263.194 281.628 263.039 282.002C262.884 282.376 262.804 282.777 262.804 283.182V291.031C262.804 303.113 272.599 312.908 284.681 312.908H320.124C332.206 312.908 342.001 303.113 342.001 291.031V283.182C342.001 282.364 341.676 281.58 341.098 281.002C340.519 280.423 339.735 280.099 338.917 280.099ZM488.51 280.099H415.48C415.076 280.099 414.675 280.178 414.301 280.333C413.927 280.488 413.587 280.715 413.3 281.002C413.014 281.288 412.787 281.628 412.632 282.002C412.477 282.376 412.397 282.777 412.397 283.182V291.031C412.397 303.113 422.192 312.908 434.274 312.908H469.717C481.799 312.908 491.594 303.113 491.594 291.031V283.182C491.594 282.777 491.515 282.376 491.36 282.002C491.205 281.627 490.977 281.288 490.691 281.001C490.405 280.715 490.065 280.488 489.691 280.333C489.316 280.178 488.915 280.098 488.51 280.099Z" stroke="black" stroke-width="15" stroke-miterlimit="10" stroke-linecap="round" stroke-linejoin="round"/>
<path d="M377.2 232.189C390.024 232.189 400.421 221.793 400.421 208.969C400.421 196.144 390.024 185.747 377.2 185.747C364.375 185.747 353.979 196.144 353.979 208.969C353.979 221.793 364.375 232.189 377.2 232.189Z" stroke="black" stroke-width="15" stroke-miterlimit="10" stroke-linecap="round" stroke-linejoin="round"/>
<path d="M290.659 228.67C295.269 229.273 299.899 229.575 304.533 229.575C320.219 229.575 335.966 226.123 351.239 219.241C352.425 218.706 353.602 218.154 354.77 217.584M399.625 217.582C400.774 218.143 401.953 218.697 403.159 219.241C418.433 226.124 434.177 229.575 449.865 229.575C454.493 229.575 459.116 229.274 463.72 228.673M377.199 233.518V328.684M209.933 505H363.854C371.039 505 376.863 499.175 376.863 491.991V464.109M414.619 365.647H339.778C337.305 365.647 334.932 366.629 333.183 368.378C331.434 370.128 330.451 372.5 330.451 374.974V390.8C330.451 393.273 331.434 395.646 333.183 397.395C334.932 399.144 337.305 400.127 339.778 400.127H414.619C417.093 400.127 419.465 399.144 421.215 397.395C422.964 395.646 423.946 393.273 423.946 390.8V374.974C423.946 372.5 422.964 370.128 421.215 368.378C419.465 366.629 417.093 365.647 414.619 365.647ZM405.563 365.647C405.853 364.008 406.013 362.323 406.013 360.6C406.013 344.686 393.112 331.786 377.199 331.786C361.285 331.786 348.385 344.686 348.385 360.6C348.385 362.323 348.545 364.007 348.835 365.647H405.563Z" stroke="black" stroke-width="15" stroke-miterlimit="10" stroke-linecap="round" stroke-linejoin="round"/>
<path d="M376.863 429.109V400.127H339.778C337.304 400.127 334.932 399.144 333.183 397.395C331.434 395.646 330.451 393.273 330.451 390.8V374.974C330.451 372.5 331.434 370.128 333.183 368.378C334.932 366.629 337.304 365.647 339.778 365.647H348.834C348.537 363.981 348.386 362.292 348.384 360.6C348.384 349.671 354.468 340.164 363.435 335.28C356.55 325.998 347.573 318.779 337.825 314.767L328.613 311.199C325.926 312.33 323.039 312.911 320.124 312.908H284.681C272.599 312.908 262.804 303.113 262.804 291.031V285.713L236.959 275.704C235.604 275.179 234.438 274.258 233.615 273.06C232.792 271.862 232.35 270.444 232.346 268.991L232.326 244.808C221.117 252.46 207.632 256.94 193.16 256.891C177.422 256.838 163.646 252.363 152.474 244.95V268.947C152.474 274.471 147.547 275.801 145.446 276.616L47.039 314.768C30.349 321.637 8 343.249 8 375.32V491.991C8 499.176 13.824 505 21.009 505H174.934" stroke="black" stroke-width="15" stroke-miterlimit="10" stroke-linecap="round" stroke-linejoin="round"/>
</svg>
