<svg width="473" height="512" viewBox="0 0 473 512" fill="none" xmlns="http://www.w3.org/2000/svg">
<path d="M376.035 464.044L56.0051 463.997C51.5787 463.997 48.0044 460.41 48.0044 455.996V8.00075C48.0044 3.57434 51.5787 0 56.0051 0H328.031C330.151 0 332.191 0.840079 333.687 2.34422L381.692 50.3017C382.436 51.0438 383.026 51.9254 383.428 52.8962C383.83 53.8669 384.037 54.9075 384.036 55.9582V456.043C384.036 458.172 383.196 460.203 381.692 461.699C380.191 463.199 378.157 464.042 376.035 464.044ZM64.0059 447.995L368.034 448.042V59.2716L324.717 16.0015H64.0059V447.995Z" fill="black"/>
<path d="M352.056 488.023L32.0261 487.976C27.5997 487.976 24.0254 484.389 24.0254 479.975V31.98C24.0254 27.5536 27.5997 23.9792 32.0261 23.9792H56.0054C60.4268 23.9792 64.0061 27.5536 64.0061 31.98C64.0061 36.4014 60.4268 39.9808 56.0054 39.9808H40.0269V471.974L344.055 472.021V455.996C344.055 451.569 347.63 447.995 352.056 447.995C356.483 447.995 360.057 451.569 360.057 455.996V480.022C360.057 482.15 359.217 484.182 357.713 485.679C356.212 487.178 354.178 488.021 352.056 488.023Z" fill="black"/>
<path d="M328.031 512.001L8.00075 511.951C3.57434 511.951 0 508.368 0 503.95V55.9572C0 51.5308 3.57434 47.9565 8.00075 47.9565H31.979C36.4014 47.9565 39.9797 51.5308 39.9797 55.9572C39.9797 60.3796 36.4014 63.958 31.979 63.958H16.0015V495.949L320.03 495.999V479.975C320.03 475.549 323.604 471.974 328.031 471.974C332.452 471.974 336.032 475.549 336.032 479.975V504C336.032 506.125 335.191 508.161 333.687 509.657C332.187 511.156 330.152 511.999 328.031 512.001ZM376.035 63.959H328.031C323.604 63.959 320.03 60.3806 320.03 55.9582C320.03 51.5318 323.604 47.9575 328.031 47.9575H376.035C380.457 47.9575 384.036 51.5318 384.036 55.9582C384.036 60.3806 380.457 63.959 376.035 63.959Z" fill="black"/>
<path d="M328.031 63.959C323.604 63.959 320.03 60.3807 320.03 55.9582V8.00075C320.03 3.57434 323.604 0 328.031 0C332.452 0 336.031 3.57434 336.031 8.00075V55.9582C336.031 60.3807 332.452 63.959 328.031 63.959ZM440.041 111.912C438.99 111.914 437.949 111.708 436.978 111.306C436.006 110.905 435.124 110.315 434.381 109.572C433.638 108.829 433.048 107.946 432.647 106.975C432.245 106.004 432.039 104.963 432.04 103.912C432.04 99.4973 428.454 95.911 424.04 95.911C419.621 95.911 416.039 99.4973 416.039 103.912C416.039 108.338 412.459 111.912 408.038 111.912C406.987 111.914 405.946 111.708 404.975 111.306C404.003 110.905 403.121 110.315 402.378 109.572C401.635 108.829 401.045 107.946 400.644 106.975C400.242 106.004 400.036 104.963 400.037 103.912C400.037 90.6805 410.803 79.9095 424.04 79.9095C437.271 79.9095 448.042 90.6805 448.042 103.912C448.042 108.338 444.462 111.912 440.041 111.912Z" fill="black"/>
<path d="M408.038 383.938C406.987 383.939 405.946 383.733 404.975 383.332C404.004 382.93 403.121 382.341 402.378 381.598C401.635 380.854 401.046 379.972 400.644 379.001C400.242 378.029 400.036 376.988 400.038 375.937V103.912C400.038 99.4893 403.612 95.911 408.038 95.911C412.46 95.911 416.039 99.4893 416.039 103.912V375.937C416.039 380.364 412.46 383.938 408.038 383.938ZM440.041 383.938C438.99 383.939 437.949 383.733 436.978 383.332C436.007 382.93 435.124 382.341 434.381 381.598C433.638 380.854 433.049 379.972 432.647 379.001C432.245 378.029 432.039 376.988 432.041 375.937V103.912C432.041 99.4893 435.615 95.911 440.041 95.911C444.463 95.911 448.042 99.4893 448.042 103.912V375.937C448.042 380.364 444.463 383.938 440.041 383.938Z" fill="black"/>
<path d="M424.047 407.94C421.46 407.94 418.917 406.694 417.382 404.382L401.38 380.38C400.796 379.506 400.39 378.525 400.185 377.494C399.98 376.463 399.981 375.402 400.186 374.371C400.392 373.34 400.799 372.36 401.384 371.486C401.969 370.613 402.721 369.863 403.596 369.281C405.363 368.106 407.523 367.68 409.604 368.096C411.684 368.512 413.515 369.736 414.695 371.5L430.696 395.502C431.281 396.376 431.687 397.356 431.892 398.387C432.097 399.418 432.096 400.48 431.89 401.51C431.684 402.541 431.276 403.521 430.69 404.394C430.105 405.267 429.353 406.015 428.477 406.597C427.166 407.475 425.624 407.942 424.047 407.94Z" fill="black"/>
<path d="M424.032 407.94C422.453 407.939 420.911 407.471 419.597 406.597C418.722 406.015 417.971 405.266 417.386 404.393C416.801 403.52 416.394 402.54 416.188 401.509C415.982 400.479 415.982 399.417 416.187 398.387C416.391 397.356 416.798 396.376 417.382 395.502L433.383 371.5C435.826 367.827 440.783 366.835 444.479 369.281C445.354 369.863 446.106 370.612 446.692 371.485C447.277 372.359 447.685 373.339 447.891 374.37C448.097 375.401 448.098 376.462 447.893 377.494C447.688 378.525 447.282 379.506 446.698 380.38L430.696 404.382C429.965 405.479 428.974 406.378 427.811 406.999C426.648 407.62 425.35 407.943 424.032 407.94Z" fill="black"/>
<path d="M424.04 415.941C422.989 415.942 421.948 415.736 420.977 415.335C420.005 414.933 419.123 414.344 418.38 413.601C417.636 412.857 417.047 411.975 416.645 411.004C416.244 410.032 416.038 408.991 416.039 407.94V399.94C416.039 395.517 419.613 391.939 424.04 391.939C428.461 391.939 432.041 395.517 432.041 399.94V407.94C432.041 412.367 428.461 415.941 424.04 415.941ZM440.041 367.937H408.038C406.987 367.938 405.946 367.732 404.975 367.33C404.004 366.929 403.121 366.339 402.378 365.596C401.635 364.853 401.046 363.97 400.644 362.999C400.242 362.028 400.036 360.987 400.038 359.936C400.038 355.513 403.612 351.935 408.038 351.935H440.041C444.463 351.935 448.042 355.513 448.042 359.936C448.042 364.362 444.463 367.937 440.041 367.937ZM464.044 135.915C462.993 135.916 461.952 135.71 460.98 135.308C460.009 134.907 459.126 134.318 458.383 133.574C457.64 132.831 457.051 131.949 456.649 130.977C456.248 130.006 456.042 128.965 456.043 127.914C456.043 123.5 452.457 119.913 448.042 119.913C446.991 119.915 445.95 119.709 444.979 119.307C444.008 118.905 443.125 118.316 442.382 117.573C441.639 116.83 441.049 115.947 440.648 114.976C440.246 114.005 440.04 112.964 440.041 111.912C440.041 107.49 443.616 103.912 448.042 103.912C461.273 103.912 472.044 114.683 472.044 127.914C472.044 132.34 468.465 135.915 464.044 135.915Z" fill="black"/>
<path d="M464.044 231.924C462.992 231.925 461.952 231.719 460.98 231.317C460.009 230.916 459.126 230.327 458.383 229.583C457.64 228.84 457.051 227.958 456.649 226.986C456.248 226.015 456.041 224.974 456.043 223.923V127.914C456.043 123.492 459.617 119.913 464.044 119.913C468.465 119.913 472.044 123.492 472.044 127.914V223.923C472.044 228.349 468.465 231.924 464.044 231.924ZM448.042 119.913H440.041C438.99 119.915 437.949 119.709 436.978 119.307C436.007 118.905 435.124 118.316 434.381 117.573C433.638 116.83 433.048 115.947 432.647 114.976C432.245 114.005 432.039 112.964 432.041 111.912C432.041 107.49 435.615 103.912 440.041 103.912H448.042C452.463 103.912 456.043 107.49 456.043 111.912C456.043 116.339 452.463 119.913 448.042 119.913ZM440.041 191.92H408.038C406.987 191.921 405.946 191.715 404.975 191.314C404.004 190.912 403.121 190.323 402.378 189.58C401.635 188.836 401.045 187.954 400.644 186.983C400.242 186.011 400.036 184.97 400.038 183.919C400.038 179.497 403.612 175.918 408.038 175.918H440.041C444.463 175.918 448.042 179.497 448.042 183.919C448.042 188.346 444.463 191.92 440.041 191.92ZM320.03 215.973H112.011C107.584 215.973 104.01 212.395 104.01 207.973C104.01 203.546 107.584 199.972 112.011 199.972H320.03C324.451 199.972 328.031 203.546 328.031 207.973C328.031 212.395 324.451 215.973 320.03 215.973ZM320.03 255.977H112.011C107.584 255.977 104.01 252.399 104.01 247.976C104.01 243.55 107.584 239.976 112.011 239.976H320.03C324.451 239.976 328.031 243.55 328.031 247.976C328.031 252.399 324.451 255.977 320.03 255.977ZM320.03 295.981H112.011C107.584 295.981 104.01 292.402 104.01 287.98C104.01 283.554 107.584 279.979 112.011 279.979H320.03C324.451 279.979 328.031 283.554 328.031 287.98C328.031 292.402 324.451 295.981 320.03 295.981ZM216.02 335.985H112.011C107.584 335.985 104.01 332.406 104.01 327.984C104.01 323.557 107.584 319.983 112.011 319.983H216.02C220.442 319.983 224.021 323.557 224.021 327.984C224.021 332.406 220.442 335.985 216.02 335.985ZM320.03 407.991H264.025C259.598 407.991 256.024 404.413 256.024 399.991C256.024 395.564 259.598 391.99 264.025 391.99H320.03C324.451 391.99 328.031 395.564 328.031 399.991C328.031 404.413 324.451 407.991 320.03 407.991Z" fill="black"/>
<path d="M280.026 423.993C275.6 423.993 272.025 420.414 272.025 415.992V383.989C272.025 379.563 275.6 375.988 280.026 375.988C284.448 375.988 288.027 379.563 288.027 383.989V415.992C288.027 420.414 284.448 423.993 280.026 423.993Z" fill="black"/>
<path d="M280.019 423.993C278.289 423.995 276.606 423.433 275.225 422.392C271.69 419.742 270.971 414.727 273.623 411.199L297.625 379.196C300.274 375.652 305.29 374.945 308.822 377.594C312.358 380.243 313.076 385.259 310.419 388.79L286.417 420.793C285.675 421.79 284.709 422.598 283.598 423.154C282.487 423.71 281.261 423.997 280.019 423.994V423.993Z" fill="black"/>
<path d="M304.029 423.993C299.602 423.993 296.028 420.414 296.028 415.992V383.989C296.028 379.563 299.602 375.988 304.029 375.988C308.45 375.988 312.029 379.563 312.029 383.989V415.992C312.029 420.414 308.45 423.993 304.029 423.993ZM176.017 160.128H112.011C107.584 160.128 104.01 156.55 104.01 152.127C104.01 147.702 107.584 144.127 112.011 144.127H176.017C180.438 144.127 184.017 147.702 184.017 152.127C184.017 156.55 180.438 160.128 176.017 160.128Z" fill="black"/>
<path d="M144.013 160.128C139.587 160.128 136.013 156.55 136.013 152.127V80.1285C136.013 75.7021 139.587 72.1278 144.013 72.1278C148.435 72.1278 152.014 75.7021 152.014 80.1285V152.127C152.014 154.249 151.171 156.284 149.671 157.785C148.17 159.285 146.135 160.128 144.013 160.128Z" fill="black"/>
<path d="M176.016 96.13H112.01C107.584 96.13 104.01 92.5517 104.01 88.1293C104.01 83.7028 107.584 80.1285 112.01 80.1285H176.016C180.438 80.1285 184.017 83.7028 184.017 88.1293C184.017 92.5517 180.438 96.13 176.016 96.13ZM184.017 120.132H168.016C163.589 120.132 160.015 116.554 160.015 112.132C160.015 107.705 163.589 104.131 168.016 104.131H184.017C188.438 104.131 192.018 107.705 192.018 112.132C192.018 116.554 188.438 120.132 184.017 120.132ZM120.011 120.132H104.01C99.5831 120.132 96.0088 116.554 96.0088 112.132C96.0088 107.705 99.5831 104.131 104.01 104.131H120.011C124.432 104.131 128.012 107.705 128.012 112.132C128.012 116.554 124.432 120.132 120.011 120.132Z" fill="black"/>
</svg>
