<svg width="480" height="369" viewBox="0 0 480 369" fill="none" xmlns="http://www.w3.org/2000/svg">
<path d="M392.232 152.242C394.688 150.315 396.666 147.847 398.014 145.031C399.361 142.215 400.042 139.127 400.003 136.005V71.9939C399.971 65.6415 397.436 59.558 392.947 55.0633C388.458 50.5687 382.377 48.0255 376.025 47.9858H280.023V23.9778C279.983 17.6203 277.436 11.5354 272.935 7.04557C268.434 2.55572 262.342 0.0237763 255.985 0H144.018C137.666 0.0238947 131.581 2.55779 127.089 7.04933C122.598 11.5409 120.064 17.6258 120.04 23.9778V47.9858H24.008C17.6505 48.0176 11.5624 50.5572 7.06691 55.0527C2.57141 59.5482 0.0317882 65.6363 0 71.9939V136.035C0 142.718 3.29581 148.674 7.5592 152.424C11.7924 156.143 16.8117 158.229 21.71 159.681L141.599 197.537C152.031 201.256 157.08 185.231 146.437 182.298L26.3363 144.351C23.3484 143.562 20.544 142.196 18.0816 140.329C16.4488 138.938 15.965 138.182 15.965 136.005V71.9939C15.965 67.4281 19.412 64.0113 23.9778 64.0113H375.995C380.53 64.0113 383.977 67.4281 383.977 71.9939V136.035C383.977 137.426 383.645 138.545 381.921 139.966C380.258 141.387 376.993 142.99 373.153 144.532L253.596 182.298C242.953 185.231 248.002 201.256 258.434 197.537L378.686 159.56C383.282 157.745 387.999 155.78 392.232 152.242ZM143.988 15.9953H255.985C260.551 15.9953 263.998 19.3818 263.998 23.9476V47.9556H135.975V23.9476C135.975 19.3818 139.422 15.9953 143.988 15.9953ZM176.039 159.953C174.981 159.949 173.934 160.154 172.956 160.557C171.978 160.96 171.09 161.552 170.343 162.3C169.595 163.047 169.003 163.935 168.6 164.913C168.197 165.891 167.992 166.938 167.996 167.996V224.025C167.996 241.592 182.388 256.015 199.986 256.015C217.584 256.015 232.037 241.592 232.037 224.025V168.026C232.041 166.974 231.838 165.931 231.439 164.957C231.04 163.984 230.453 163.098 229.712 162.351C228.971 161.604 228.09 161.011 227.119 160.604C226.148 160.198 225.107 159.987 224.055 159.983L176.039 159.953ZM23.8871 175.857C22.8285 175.865 21.782 176.083 20.8085 176.499C19.835 176.915 18.954 177.521 18.2168 178.281C17.4795 179.04 16.9008 179.939 16.5142 180.925C16.1276 181.91 15.941 182.963 15.965 184.021V343.974C15.965 357.157 26.8503 367.952 40.0335 367.952H304.001C314.433 367.71 314.433 352.198 304.001 351.957H40.0335C38.9747 351.989 37.9202 351.807 36.9338 351.421C35.9474 351.034 35.0497 350.452 34.295 349.708C33.5403 348.965 32.9443 348.076 32.543 347.096C32.1417 346.115 31.9434 345.064 31.9603 344.004V184.021C31.9805 182.951 31.7862 181.888 31.3888 180.894C30.9914 179.901 30.3989 178.997 29.6464 178.236C28.8939 177.475 27.9966 176.872 27.0074 176.464C26.0182 176.055 24.9573 175.849 23.8871 175.857ZM368.073 184.021V200.41C341.102 202.163 332.272 215.74 312.074 216.012C304.636 216.012 296.653 213.079 293.69 210.358C285.496 202.798 275.276 214.802 282.412 221.696C287.703 226.776 295.867 229.649 300.342 230.646L272.736 292.813C272.302 293.836 272.085 294.938 272.101 296.049C272.101 296.049 271.98 305.694 276.939 315.612C281.898 325.499 292.239 336.022 312.044 336.022C331.879 336.022 342.251 325.499 347.209 315.612C352.168 305.694 352.047 296.049 352.047 296.049C352.055 294.935 351.829 293.833 351.382 292.813L323.806 230.707C340.134 228.107 349.749 216.072 375.965 216.042C402.24 216.072 411.856 228.167 428.244 230.767L400.638 292.874C400.202 293.896 399.986 294.998 400.003 296.109C400.003 296.109 399.882 305.755 404.841 315.672C409.769 325.56 420.141 336.082 439.976 336.082C459.781 336.082 470.152 325.56 475.081 315.672C480.04 305.755 479.919 296.109 479.919 296.109C479.946 295 479.74 293.898 479.314 292.874L451.678 230.737C456.153 229.709 464.317 226.837 469.608 221.757C476.744 214.863 466.524 202.859 458.33 210.418C455.397 213.139 447.384 216.072 439.946 216.072C419.747 215.77 410.918 202.224 383.977 200.47V184.112C383.981 183.068 383.78 182.033 383.384 181.066C382.988 180.1 382.405 179.221 381.67 178.48C380.934 177.739 380.059 177.15 379.096 176.746C378.133 176.343 377.1 176.133 376.055 176.129C375.011 176.125 373.976 176.327 373.01 176.723C372.043 177.119 371.165 177.702 370.423 178.437C369.682 179.173 369.093 180.047 368.69 181.011C368.286 181.974 368.077 183.007 368.073 184.052V184.021ZM183.991 175.978H215.982V224.025C215.982 233.005 208.997 240.02 199.986 240.02C197.875 240.048 195.78 239.653 193.825 238.858C191.869 238.062 190.093 236.882 188.602 235.388C187.11 233.894 185.934 232.115 185.142 230.158C184.35 228.201 183.958 226.105 183.991 223.994V175.978ZM376.055 231.916C372.034 231.916 368.073 234.577 368.073 239.899V352.047H335.659C324.864 352.773 325.59 368.315 336.022 368.043H375.934V368.103H415.998C426.43 368.375 427.186 352.833 416.361 352.077H383.977V239.959C383.977 234.668 380.047 232.037 376.086 231.977V231.886L376.055 231.916ZM312.044 243.709L331.698 288.006H292.39L312.044 243.709ZM439.946 243.769L459.6 288.066H420.292L439.946 243.769ZM289.487 304.031H334.631C334.631 304.031 331.819 320.026 312.074 320.026C292.33 320.026 289.487 304.031 289.487 304.031ZM417.389 304.092H462.533C462.533 304.092 459.69 320.087 439.946 320.087C420.201 320.087 417.389 304.092 417.389 304.092Z" fill="black"/>
</svg>
