<svg width="512" height="512" viewBox="0 0 512 512" fill="none" xmlns="http://www.w3.org/2000/svg">
<path d="M512 264.258H462.452V189.935C462.452 167.168 443.929 148.645 421.162 148.645H411.384C407.965 139.057 398.881 132.129 388.129 132.129H371.613C357.954 132.129 346.839 143.244 346.839 156.903C346.839 170.562 357.954 181.677 371.613 181.677H388.129C398.881 181.677 407.965 174.748 411.384 165.161H421.162C434.821 165.161 445.936 176.276 445.936 189.935V232.745C443.343 231.82 440.585 231.226 437.678 231.226H404.646C390.987 231.226 379.872 242.341 379.872 256V264.258H313.799V257.329C313.799 244.273 310.372 231.993 304.418 221.274C310.397 215.188 313.807 207.004 313.807 198.193C313.807 196.731 313.708 195.278 313.51 193.833C323.7 188.077 330.323 177.201 330.323 165.161C330.323 157.787 327.945 150.808 323.436 144.97C311.569 129.618 305.549 113.837 305.549 98.056V74.323C305.548 33.346 272.211 0 231.226 0H198.194C157.209 0 123.871 33.346 123.871 74.323V98.057C123.871 113.838 117.851 129.619 105.984 144.979C101.475 150.809 99.097 157.787 99.097 165.162C99.097 177.202 105.72 188.078 115.902 193.826C115.134 199.433 115.861 205.14 118.066 210.664C119.643 214.611 122.079 218.154 125.028 221.21C119.057 231.945 115.614 244.25 115.614 257.323V264.26H66.065V313.808H87.173C84.332 318.688 82.582 324.279 82.582 330.324H0V346.84H28.581L0 411.152V412.903C0 435.67 18.523 454.193 41.29 454.193H49.548C72.315 454.193 90.838 435.67 90.838 412.903V411.152L62.257 346.838H87.172C91.549 354.345 98.742 359.944 107.355 362.182V462.451H90.839C77.18 462.451 66.065 473.566 66.065 487.225V512H165.162V495.484H495.485V313.806H512V264.258ZM388.129 165.161H371.613C367.055 165.161 363.355 161.453 363.355 156.903C363.355 152.353 367.055 148.645 371.613 148.645H388.129C392.687 148.645 396.387 152.353 396.387 156.903C396.387 161.453 392.687 165.161 388.129 165.161ZM45.419 349.622L69.871 404.645H20.967L45.419 349.622ZM49.548 437.677H41.29C30.538 437.677 21.462 430.748 18.044 421.161H72.787C69.376 430.749 60.3 437.677 49.548 437.677ZM396.387 256C396.387 251.45 400.087 247.742 404.645 247.742H437.677C442.235 247.742 445.935 251.45 445.935 256V264.258H396.387V256ZM310.371 155.07C312.609 157.957 313.818 161.508 313.806 165.161C313.806 172.544 308.777 179.059 301.584 181.008L292.616 183.428L296.076 192.049C296.877 194.072 297.29 196.137 297.29 198.193C297.29 201.529 296.216 204.634 294.441 207.293C282.657 194.344 266.314 185.525 247.684 183.46L239.475 182.543V178.521L245.132 175.697C261.805 167.356 272.202 150.7 272.466 132.103H280.765C285.744 132.104 290.606 130.599 294.713 127.784C298.273 137.043 303.484 146.159 310.371 155.07ZM206.443 178.523C206.452 175.454 205.603 172.444 203.99 169.833C202.377 167.222 200.066 165.115 197.318 163.749L191.678 160.933C180.414 155.301 173.419 143.987 173.419 131.394L173.411 95.678C180.893 91.128 187.4 85.033 192.462 77.882C211.423 90.12 233.472 97.396 255.991 98.841L256 131.378C256 143.972 249.005 155.293 237.741 160.925L232.084 163.749C226.452 166.565 222.959 172.222 222.959 178.523V197.327L245.859 199.87C245.999 199.887 246.132 199.92 246.272 199.936C238.526 209.111 227.014 214.71 214.71 214.71C202.406 214.71 190.894 209.111 183.139 199.936C183.279 199.919 183.403 199.886 183.544 199.87L206.452 197.327L206.443 178.523ZM272.508 99.072H280.766C285.324 99.072 289.024 102.78 289.024 107.33C289.024 111.88 285.324 115.588 280.766 115.588H272.516L272.508 99.072ZM198.194 16.516H231.226C263.094 16.516 289.032 42.446 289.032 74.322V84.075C286.431 83.15 283.681 82.547 280.766 82.547H264.25V82.58C239.401 82.58 214.768 74.371 194.891 59.457L186.988 53.519L182.562 62.355C178.276 70.902 171.306 77.954 162.9 82.546H148.638C145.731 82.546 142.981 83.141 140.388 84.065V74.32C140.387 42.446 166.326 16.516 198.194 16.516ZM156.903 115.588H148.637C144.079 115.588 140.379 111.88 140.379 107.33C140.379 102.78 144.079 99.072 148.637 99.072H156.895L156.903 115.588ZM133.401 204.544C131.725 200.341 131.708 196.137 133.343 192.066L136.811 183.445L127.834 181.017C120.641 179.06 115.612 172.544 115.612 165.162C115.612 161.471 116.801 157.986 119.047 155.079C125.934 146.169 131.137 137.052 134.704 127.794C138.805 130.606 143.662 132.109 148.635 132.105H156.951C157.215 150.702 167.612 167.367 184.285 175.708L189.925 178.524V182.546L181.725 183.463C163.128 185.528 146.81 194.322 135.026 207.238C134.458 206.353 133.797 205.518 133.401 204.544ZM132.129 257.321C132.129 234.05 145.92 213.809 166.127 204.684C176.673 221.01 194.989 231.225 214.709 231.225C234.429 231.225 252.737 221.01 263.291 204.684C283.498 213.809 297.289 234.05 297.281 257.329V264.258H132.129V257.321ZM99.097 330.323C99.097 321.214 106.504 313.807 115.613 313.807C124.722 313.807 132.129 321.214 132.129 330.323C132.129 339.432 124.722 346.839 115.613 346.839C106.504 346.839 99.097 339.431 99.097 330.323ZM148.645 495.484H82.581V487.226C82.581 482.676 86.281 478.968 90.839 478.968H140.387C144.945 478.968 148.645 482.676 148.645 487.226V495.484ZM478.968 478.968H163.642C160.223 469.38 151.139 462.452 140.387 462.452H123.871V362.182C132.484 359.944 139.669 354.345 144.054 346.838H168.969L140.388 411.152V412.903C140.388 435.67 158.911 454.193 181.678 454.193H189.936C212.703 454.193 231.226 435.67 231.226 412.903V411.152L202.645 346.838H231.226V330.322H148.645C148.645 324.277 146.894 318.686 144.054 313.806H478.968V478.968ZM161.354 404.645L185.806 349.622L210.258 404.645H161.354ZM213.182 421.161C209.763 430.749 200.688 437.677 189.936 437.677H181.678C170.926 437.677 161.85 430.748 158.432 421.161H213.182ZM495.484 297.29H82.581V280.774H495.484V297.29Z" fill="black"/>
<path d="M462.452 330.323H247.742V346.839H445.935V445.935H247.742V462.452H462.452V330.323Z" fill="black"/>
</svg>
