<svg width="460" height="460" viewBox="0 0 460 460" fill="none" xmlns="http://www.w3.org/2000/svg">
<path d="M236.367 325.473L221.664 327.431C222.271 331.994 222.576 336.654 222.576 341.291H237.414C237.414 336.008 237.066 330.68 236.367 325.473Z" fill="black"/>
<path d="M437.742 44.5162H430.322V22.258C430.322 9.98646 420.336 0 408.063 0H393.225C380.955 0 370.967 9.98646 370.967 22.258V44.5162H163.226V22.258C163.226 9.98646 153.239 0 140.968 0H126.129C113.857 0 103.871 9.98646 103.871 22.258V44.5162H96.4516C84.18 44.5162 74.1936 54.5025 74.1936 66.7742V231.32C30.7458 248.972 0 291.58 0 341.291C0 406.744 53.2562 460 118.71 460C167.811 460 210.881 429.588 228.672 385.807H437.742C450.013 385.807 460 375.82 460 363.549V66.7742C460 54.5025 450.013 44.5162 437.742 44.5162ZM385.807 22.258C385.807 18.17 389.131 14.8387 393.225 14.8387H408.063C412.16 14.8387 415.484 18.17 415.484 22.258V81.6129C415.484 85.7009 412.16 89.0322 408.063 89.0322H393.225C389.131 89.0322 385.807 85.7009 385.807 81.6129V22.258ZM118.71 22.258C118.71 18.17 122.034 14.8387 126.129 14.8387H140.968C145.063 14.8387 148.387 18.17 148.387 22.258V81.6129C148.387 85.7009 145.063 89.0322 140.968 89.0322H126.129C122.034 89.0322 118.71 85.7009 118.71 81.6129V22.258ZM221.668 355.149C214.828 406.462 170.563 445.162 118.71 445.162C61.4322 445.162 14.8387 398.567 14.8387 341.291C14.8387 284.013 61.4322 237.42 118.71 237.42C165.288 237.42 206.466 268.744 218.848 313.587L233.154 309.64C219.004 258.379 171.944 222.58 118.71 222.58C108.449 222.58 98.5364 224.028 89.0322 226.49V66.7742C89.0322 62.6862 92.3562 59.3549 96.4516 59.3549H103.871V81.6129C103.871 93.8845 113.857 103.871 126.129 103.871H140.968C153.239 103.871 163.226 93.8845 163.226 81.6129V59.3549H370.967V81.6129C370.967 93.8845 380.955 103.871 393.225 103.871H408.063C420.336 103.871 430.322 93.8845 430.322 81.6129V59.3549H437.742C441.838 59.3549 445.162 62.6862 445.162 66.7742V133.548H133.548V148.387H445.162V295.884L421.515 262.786C420.925 261.951 420.166 261.251 419.29 260.725C418.411 260.198 417.435 259.859 416.422 259.728C415.407 259.597 414.377 259.678 413.397 259.966C412.415 260.254 411.503 260.741 410.72 261.398L385.807 282.166V252.258H430.322V237.42H378.387C376.419 237.42 374.531 238.201 373.141 239.592C371.748 240.984 370.967 242.872 370.967 244.838V294.533L279.249 370.967H233.576C234.749 366.442 235.75 361.842 236.38 357.109L221.668 355.149ZM414.089 277.915L441.252 315.945L317.46 370.967H302.427L414.089 277.915ZM437.742 370.967H353.993L445.162 330.45V363.549C445.162 367.637 441.838 370.967 437.742 370.967Z" fill="black"/>
<path d="M103.866 133.549H118.705V148.388H103.866V133.549ZM163.221 215.162V170.646C163.221 168.678 162.439 166.791 161.048 165.399C159.657 164.008 157.769 163.226 155.802 163.226H111.286C109.318 163.226 107.431 164.008 106.039 165.399C104.648 166.791 103.866 168.678 103.866 170.646V215.162C103.866 217.129 104.648 219.016 106.039 220.409C107.431 221.799 109.318 222.58 111.286 222.58H155.802C157.769 222.58 159.657 221.799 161.048 220.409C162.439 219.016 163.221 217.129 163.221 215.162ZM148.382 207.742H118.705V178.065H148.382V207.742ZM244.834 222.58C246.802 222.58 248.688 221.799 250.08 220.409C251.471 219.016 252.254 217.129 252.254 215.162V170.646C252.254 168.678 251.471 166.791 250.08 165.399C248.688 164.008 246.802 163.226 244.834 163.226H200.318C198.35 163.226 196.463 164.008 195.072 165.399C193.68 166.791 192.898 168.678 192.898 170.646V215.162C192.898 217.129 193.68 219.016 195.072 220.409C196.463 221.799 198.35 222.58 200.318 222.58H244.834ZM207.738 178.065H237.414V207.742H207.738V178.065ZM289.35 222.58H333.867C335.833 222.58 337.721 221.799 339.113 220.409C340.504 219.016 341.285 217.129 341.285 215.162V170.646C341.285 168.678 340.504 166.791 339.113 165.399C337.721 164.008 335.833 163.226 333.867 163.226H289.35C287.382 163.226 285.494 164.008 284.104 165.399C282.711 166.791 281.93 168.678 281.93 170.646V215.162C281.93 217.129 282.711 219.016 284.104 220.409C285.494 221.799 287.382 222.58 289.35 222.58ZM296.77 178.065H326.447V207.742H296.77V178.065ZM378.383 222.58H422.9C424.866 222.58 426.754 221.799 428.144 220.409C429.536 219.016 430.318 217.129 430.318 215.162V170.646C430.318 168.678 429.536 166.791 428.144 165.399C426.754 164.008 424.866 163.226 422.9 163.226H378.383C376.415 163.226 374.527 164.008 373.137 165.399C371.744 166.791 370.963 168.678 370.963 170.646V215.162C370.963 217.129 371.744 219.016 373.137 220.409C374.527 221.799 376.415 222.58 378.383 222.58ZM385.801 178.065H415.479V207.742H385.801V178.065ZM237.414 296.775H252.254V244.838C252.254 242.872 251.471 240.984 250.08 239.592C248.688 238.202 246.802 237.42 244.834 237.42H200.318V252.258H237.414V296.775ZM289.35 296.775H333.867C335.833 296.775 337.721 295.994 339.113 294.601C340.504 293.211 341.285 291.323 341.285 289.355V244.838C341.285 242.872 340.504 240.984 339.113 239.592C337.721 238.202 335.833 237.42 333.867 237.42H289.35C287.382 237.42 285.494 238.202 284.104 239.592C282.711 240.984 281.93 242.872 281.93 244.838V289.355C281.93 291.323 282.711 293.211 284.104 294.601C285.494 295.994 287.382 296.775 289.35 296.775ZM296.77 252.258H326.447V281.937H296.77V252.258ZM118.705 252.258C69.611 252.258 29.6727 292.198 29.6727 341.291C29.6727 390.385 69.611 430.322 118.705 430.322C167.799 430.322 207.738 390.385 207.738 341.291C207.738 292.198 167.799 252.258 118.705 252.258ZM192.52 348.709C191.069 363.208 185.361 376.952 176.116 388.211L165.922 378.017L155.431 388.508L165.625 398.702C154.365 407.948 140.621 413.654 126.124 415.107V400.646H111.286V415.107C96.7885 413.656 83.0447 407.948 71.785 398.702L81.9792 388.508L71.4881 378.017L61.2939 388.211C52.0459 376.952 46.3379 363.208 44.8898 348.709H59.3501V333.871H44.8898C46.341 319.375 52.0486 305.631 61.2939 294.371L71.4881 304.566L81.9792 294.075L71.785 283.88C83.0451 274.635 96.7887 268.926 111.286 267.476V281.937H126.124V267.476C140.622 268.926 154.365 274.633 165.625 283.88L155.431 294.075L165.922 304.566L176.116 294.371C185.361 305.631 191.069 319.375 192.52 333.871H178.06V348.709H192.52Z" fill="black"/>
<path d="M126.132 289.354H111.293V341.291C111.293 343.257 112.075 345.145 113.466 346.537C114.858 347.928 116.745 348.709 118.712 348.709H155.809V333.871H126.132V289.354Z" fill="black"/>
</svg>
