<svg width="374" height="504" viewBox="0 0 374 504" fill="none" xmlns="http://www.w3.org/2000/svg">
<path d="M259 274.204C267.56 274.204 274.5 267.265 274.5 258.704C274.5 250.144 267.56 243.204 259 243.204C250.44 243.204 243.5 250.144 243.5 258.704C243.5 267.265 250.44 274.204 259 274.204Z" fill="black"/>
<path d="M129.664 274.204C138.224 274.204 145.164 267.265 145.164 258.704C145.164 250.144 138.224 243.204 129.664 243.204C121.104 243.204 114.164 250.144 114.164 258.704C114.164 267.265 121.104 274.204 129.664 274.204Z" fill="black"/>
<path d="M281.668 299.536H281.312C262.391 298.465 244.542 290.403 231.228 276.916C230.67 276.339 230.234 275.655 229.945 274.906C229.656 274.156 229.52 273.357 229.546 272.554C229.572 271.751 229.758 270.962 230.095 270.233C230.431 269.503 230.911 268.849 231.505 268.309C232.099 267.768 232.795 267.352 233.553 267.086C234.311 266.82 235.114 266.708 235.916 266.758C236.717 266.808 237.501 267.018 238.22 267.377C238.938 267.735 239.578 268.234 240.1 268.844C251.323 279.984 266.23 286.639 282.016 287.556C283.607 287.602 285.115 288.279 286.208 289.437C287.3 290.594 287.888 292.139 287.842 293.73C287.796 295.321 287.12 296.829 285.962 297.922C284.804 299.014 283.259 299.602 281.668 299.556V299.536ZM243.5 158.536H194.664C193.073 158.536 191.547 157.904 190.422 156.779C189.296 155.654 188.664 154.127 188.664 152.536C188.664 150.945 189.296 149.419 190.422 148.293C191.547 147.168 193.073 146.536 194.664 146.536H243.5C245.091 146.536 246.618 147.168 247.743 148.293C248.868 149.419 249.5 150.945 249.5 152.536C249.5 154.127 248.868 155.654 247.743 156.779C246.618 157.904 245.091 158.536 243.5 158.536ZM246.828 368.62C245.682 368.62 244.56 368.292 243.594 367.675C242.628 367.057 241.86 366.176 241.379 365.136C240.899 364.095 240.726 362.939 240.883 361.803C241.039 360.668 241.517 359.6 242.26 358.728C243.6 357.343 244.639 355.696 245.313 353.891C245.987 352.085 246.281 350.16 246.176 348.236C245.72 342.868 241.656 336.74 234.744 330.976C234.09 330.489 233.542 329.873 233.133 329.167C232.725 328.461 232.465 327.679 232.369 326.868C232.274 326.058 232.344 325.237 232.576 324.455C232.809 323.673 233.198 322.946 233.721 322.32C234.243 321.694 234.888 321.18 235.616 320.812C236.344 320.443 237.139 320.227 237.953 320.176C238.768 320.125 239.584 320.24 240.352 320.516C241.12 320.791 241.824 321.22 242.42 321.776C251.952 329.716 257.388 338.52 258.132 347.228C258.387 350.733 257.922 354.254 256.764 357.572C255.607 360.891 253.783 363.937 251.404 366.524C250.839 367.184 250.137 367.713 249.347 368.075C248.557 368.437 247.697 368.623 246.828 368.62ZM194.332 317.132C187.204 316.893 180.407 314.066 175.212 309.18C174.216 308.181 173.633 306.843 173.581 305.433C173.529 304.023 174.011 302.645 174.931 301.575C175.851 300.505 177.14 299.822 178.542 299.662C179.944 299.502 181.355 299.877 182.492 300.712C190.68 307.756 197.984 307.756 206.172 300.712C207.309 299.877 208.72 299.502 210.122 299.662C211.524 299.822 212.814 300.505 213.734 301.575C214.654 302.645 215.136 304.023 215.083 305.433C215.031 306.843 214.449 308.181 213.452 309.18C208.257 314.066 201.46 316.893 194.332 317.132Z" fill="black"/>
<path d="M237.344 342.188C236.789 341.209 235.868 340.49 234.784 340.19C233.699 339.89 232.54 340.033 231.56 340.588L230.804 341.02C229.873 341.45 228.882 341.737 227.864 341.872C226.444 342.093 225.01 342.22 223.572 342.252C220.494 342.306 217.417 342.103 214.372 341.644C213.628 341.532 210.056 340.636 209.648 340.556C207.997 340.218 206.294 340.23 204.648 340.591C203.002 340.952 201.45 341.654 200.092 342.652C198.348 343.737 196.377 344.408 194.332 344.612C192.284 344.412 190.309 343.744 188.56 342.66C187.202 341.662 185.65 340.96 184.005 340.599C182.359 340.238 180.655 340.226 179.004 340.564C178.604 340.644 175.024 341.54 174.28 341.652C171.236 342.111 168.159 342.314 165.08 342.26C163.643 342.228 162.209 342.101 160.788 341.88C159.771 341.745 158.78 341.458 157.848 341.028L157.092 340.596C156.194 340.083 155.139 339.916 154.126 340.126C153.114 340.336 152.213 340.91 151.593 341.738C150.974 342.567 150.678 343.593 150.763 344.624C150.848 345.655 151.306 346.62 152.052 347.336C153.827 348.99 155.954 350.221 158.272 350.936C160.163 351.587 162.112 352.053 164.092 352.328C167.832 352.984 171.64 353.158 175.424 352.844C177.19 352.483 178.991 352.322 180.792 352.364C182.028 352.652 182.792 353.648 183.848 354.26C184.973 354.921 186.174 355.442 187.424 355.812C191.921 357.172 196.72 357.172 201.216 355.812C202.467 355.442 203.668 354.921 204.792 354.26C205.864 353.648 206.612 352.66 207.848 352.364C209.65 352.322 211.451 352.483 213.216 352.844C217 353.158 220.809 352.984 224.548 352.328C226.529 352.053 228.478 351.587 230.368 350.936C232.687 350.221 234.813 348.99 236.588 347.336C237.267 346.683 237.71 345.823 237.847 344.891C237.984 343.959 237.807 343.009 237.344 342.188ZM194.5 378.384C191.145 378.365 187.838 377.584 184.828 376.1C183.472 375.366 182.45 374.138 181.975 372.671C181.5 371.203 181.608 369.609 182.277 368.22C182.946 366.83 184.125 365.752 185.568 365.208C187.011 364.664 188.609 364.697 190.028 365.3C191.407 366.021 192.94 366.398 194.496 366.398C196.052 366.398 197.585 366.021 198.964 365.3C200.384 364.697 201.981 364.664 203.425 365.208C204.868 365.752 206.046 366.83 206.716 368.22C207.385 369.609 207.493 371.203 207.018 372.671C206.543 374.138 205.521 375.366 204.164 376.1C201.157 377.582 197.853 378.363 194.5 378.384ZM162.452 219.016C155.652 218.472 148.656 218.092 141.708 217.492C134.74 217.016 127.764 216.452 120.8 215.584C120.8 215.584 112.96 214.596 110.336 214.384C107.136 214.139 103.924 214.069 100.716 214.176C94.152 215.09 87.8018 217.161 81.9603 220.292L81.7763 220.388C81.1801 220.693 80.4914 220.762 79.8461 220.584C79.2008 220.406 78.6458 219.992 78.2907 219.424C77.9356 218.857 77.8062 218.177 77.9279 217.518C78.0497 216.86 78.4137 216.271 78.9483 215.868C85.0097 211.329 91.9086 208.032 99.2483 206.168C101.136 205.724 108.048 205.008 108.048 205.008L110.724 204.948L121.428 204.836C128.565 204.833 135.695 205.276 142.776 206.16C149.961 206.888 157.079 208.166 164.068 209.984C165.178 210.282 166.136 210.984 166.754 211.952C167.373 212.919 167.608 214.083 167.414 215.215C167.219 216.347 166.608 217.366 165.702 218.071C164.795 218.777 163.658 219.118 162.512 219.028L162.452 219.016ZM224.584 209.98C231.573 208.162 238.692 206.884 245.876 206.156C252.958 205.272 260.088 204.829 267.224 204.832L277.928 204.944L283.608 205.172C285.562 205.386 287.502 205.717 289.416 206.164C296.756 208.029 303.655 211.327 309.716 215.868C310.264 216.266 310.64 216.857 310.769 217.522C310.898 218.186 310.77 218.875 310.411 219.449C310.053 220.023 309.49 220.44 308.836 220.616C308.182 220.792 307.486 220.713 306.888 220.396L306.704 220.296C300.858 217.162 294.502 215.09 287.932 214.176C286.368 214.008 284.794 213.935 283.22 213.956L278.332 214.384L267.868 215.584C260.904 216.452 253.928 217.016 246.96 217.492C240.012 218.092 233.032 218.472 226.216 219.016H226.144C224.999 219.106 223.862 218.765 222.955 218.059C222.048 217.354 221.438 216.336 221.243 215.203C221.048 214.071 221.283 212.907 221.902 211.94C222.521 210.972 223.479 210.27 224.588 209.972L224.584 209.98ZM90.0083 246.936C91.9109 249.703 94.5411 251.89 97.6083 253.256C98.5943 253.676 99.6334 253.959 100.696 254.096C102.264 254.311 103.86 254.062 105.288 253.38C108.589 251.281 112.009 249.378 115.532 247.68C117.881 246.892 120.288 246.293 122.732 245.888C127.345 245.023 132.1 245.308 136.576 246.716C141.348 248.407 145.832 250.819 149.872 253.868L149.904 253.892C150.71 254.49 151.711 254.764 152.709 254.659C153.707 254.554 154.629 254.077 155.292 253.324C155.955 252.571 156.311 251.596 156.288 250.593C156.266 249.59 155.868 248.631 155.172 247.908C151.086 243.161 145.999 239.378 140.276 236.832C134.139 234.331 127.417 233.621 120.892 234.784C114.438 235.708 108.317 238.233 103.088 242.128C102.228 243.012 101.249 243.772 100.18 244.388C97.7608 244.398 95.3635 243.927 93.1283 243L92.8403 242.916C92.3194 242.76 91.7626 242.771 91.2485 242.949C90.7345 243.126 90.2894 243.461 89.9762 243.906C89.663 244.35 89.4975 244.882 89.5033 245.426C89.5091 245.97 89.6858 246.498 90.0083 246.936ZM299.052 244.668C298.956 244.341 298.795 244.036 298.581 243.771C298.366 243.506 298.101 243.286 297.801 243.123C297.502 242.96 297.173 242.858 296.833 242.823C296.494 242.787 296.151 242.819 295.824 242.916L295.536 243C293.301 243.927 290.904 244.398 288.484 244.388C287.416 243.772 286.437 243.012 285.576 242.128C280.347 238.233 274.227 235.708 267.772 234.784C261.247 233.621 254.526 234.331 248.388 236.832C242.666 239.378 237.579 243.161 233.492 247.908C232.827 248.637 232.454 249.586 232.446 250.573C232.438 251.56 232.795 252.515 233.449 253.255C234.102 253.994 235.006 254.466 235.987 254.579C236.968 254.693 237.955 254.439 238.76 253.868L238.792 253.844C242.831 250.801 247.313 248.394 252.08 246.708C256.557 245.3 261.312 245.015 265.924 245.88C268.368 246.285 270.776 246.884 273.124 247.672C276.649 249.37 280.071 251.273 283.372 253.372C284.8 254.054 286.397 254.303 287.964 254.088C289.027 253.951 290.066 253.668 291.052 253.248C294.12 251.882 296.75 249.695 298.652 246.928C298.886 246.607 299.044 246.236 299.113 245.844C299.183 245.453 299.162 245.05 299.052 244.668Z" fill="black"/>
<path d="M194.332 479.2C193.271 479.2 192.254 478.779 191.504 478.029C190.754 477.278 190.332 476.261 190.332 475.2V467.2C190.332 466.139 190.754 465.122 191.504 464.372C192.254 463.622 193.271 463.2 194.332 463.2C195.393 463.2 196.41 463.622 197.161 464.372C197.911 465.122 198.332 466.139 198.332 467.2V475.2C198.332 476.261 197.911 477.278 197.161 478.029C196.41 478.779 195.393 479.2 194.332 479.2ZM194.332 451.2C193.271 451.2 192.254 450.779 191.504 450.029C190.754 449.278 190.332 448.261 190.332 447.2V439.2C190.332 438.139 190.754 437.122 191.504 436.372C192.254 435.622 193.271 435.2 194.332 435.2C195.393 435.2 196.41 435.622 197.161 436.372C197.911 437.122 198.332 438.139 198.332 439.2V447.2C198.332 448.261 197.911 449.278 197.161 450.029C196.41 450.779 195.393 451.2 194.332 451.2ZM194.332 423.2C193.271 423.2 192.254 422.779 191.504 422.029C190.754 421.278 190.332 420.261 190.332 419.2V411.2C190.332 410.139 190.754 409.122 191.504 408.372C192.254 407.622 193.271 407.2 194.332 407.2C195.393 407.2 196.41 407.622 197.161 408.372C197.911 409.122 198.332 410.139 198.332 411.2V419.2C198.332 420.261 197.911 421.278 197.161 422.029C196.41 422.779 195.393 423.2 194.332 423.2ZM194.332 395.2C193.271 395.2 192.254 394.779 191.504 394.029C190.754 393.278 190.332 392.261 190.332 391.2V383.2C190.332 382.139 190.754 381.122 191.504 380.372C192.254 379.622 193.271 379.2 194.332 379.2C195.393 379.2 196.41 379.622 197.161 380.372C197.911 381.122 198.332 382.139 198.332 383.2V391.2C198.332 392.261 197.911 393.278 197.161 394.029C196.41 394.779 195.393 395.2 194.332 395.2ZM194.332 367.2C193.271 367.2 192.254 366.779 191.504 366.029C190.754 365.278 190.332 364.261 190.332 363.2V355.2C190.332 354.139 190.754 353.122 191.504 352.372C192.254 351.622 193.271 351.2 194.332 351.2C195.393 351.2 196.41 351.622 197.161 352.372C197.911 353.122 198.332 354.139 198.332 355.2V363.2C198.332 364.261 197.911 365.278 197.161 366.029C196.41 366.779 195.393 367.2 194.332 367.2ZM194.332 339.2C193.271 339.2 192.254 338.779 191.504 338.029C190.754 337.278 190.332 336.261 190.332 335.2V327.2C190.332 326.139 190.754 325.122 191.504 324.372C192.254 323.622 193.271 323.2 194.332 323.2C195.393 323.2 196.41 323.622 197.161 324.372C197.911 325.122 198.332 326.139 198.332 327.2V335.2C198.332 336.261 197.911 337.278 197.161 338.029C196.41 338.779 195.393 339.2 194.332 339.2ZM194.332 311.2C193.271 311.2 192.254 310.779 191.504 310.029C190.754 309.278 190.332 308.261 190.332 307.2V299.2C190.332 298.139 190.754 297.122 191.504 296.372C192.254 295.622 193.271 295.2 194.332 295.2C195.393 295.2 196.41 295.622 197.161 296.372C197.911 297.122 198.332 298.139 198.332 299.2V307.2C198.332 308.261 197.911 309.278 197.161 310.029C196.41 310.779 195.393 311.2 194.332 311.2ZM194.332 283.2C193.271 283.2 192.254 282.779 191.504 282.029C190.754 281.278 190.332 280.261 190.332 279.2V271.2C190.332 270.139 190.754 269.122 191.504 268.372C192.254 267.622 193.271 267.2 194.332 267.2C195.393 267.2 196.41 267.622 197.161 268.372C197.911 269.122 198.332 270.139 198.332 271.2V279.2C198.332 280.261 197.911 281.278 197.161 282.029C196.41 282.779 195.393 283.2 194.332 283.2ZM194.332 255.2C193.271 255.2 192.254 254.779 191.504 254.029C190.754 253.278 190.332 252.261 190.332 251.2V243.2C190.332 242.139 190.754 241.122 191.504 240.372C192.254 239.622 193.271 239.2 194.332 239.2C195.393 239.2 196.41 239.622 197.161 240.372C197.911 241.122 198.332 242.139 198.332 243.2V251.2C198.332 252.261 197.911 253.278 197.161 254.029C196.41 254.779 195.393 255.2 194.332 255.2ZM194.332 227.2C193.271 227.2 192.254 226.779 191.504 226.029C190.754 225.278 190.332 224.261 190.332 223.2V215.2C190.332 214.139 190.754 213.122 191.504 212.372C192.254 211.622 193.271 211.2 194.332 211.2C195.393 211.2 196.41 211.622 197.161 212.372C197.911 213.122 198.332 214.139 198.332 215.2V223.2C198.332 224.261 197.911 225.278 197.161 226.029C196.41 226.779 195.393 227.2 194.332 227.2ZM194.332 199.2C193.271 199.2 192.254 198.779 191.504 198.029C190.754 197.278 190.332 196.261 190.332 195.2V187.2C190.332 186.139 190.754 185.122 191.504 184.372C192.254 183.622 193.271 183.2 194.332 183.2C195.393 183.2 196.41 183.622 197.161 184.372C197.911 185.122 198.332 186.139 198.332 187.2V195.2C198.332 196.261 197.911 197.278 197.161 198.029C196.41 198.779 195.393 199.2 194.332 199.2ZM194.332 171.2C193.271 171.2 192.254 170.779 191.504 170.029C190.754 169.278 190.332 168.261 190.332 167.2V159.2C190.332 158.139 190.754 157.122 191.504 156.372C192.254 155.622 193.271 155.2 194.332 155.2C195.393 155.2 196.41 155.622 197.161 156.372C197.911 157.122 198.332 158.139 198.332 159.2V167.2C198.332 168.261 197.911 169.278 197.161 170.029C196.41 170.779 195.393 171.2 194.332 171.2ZM194.332 143.2C193.271 143.2 192.254 142.779 191.504 142.029C190.754 141.278 190.332 140.261 190.332 139.2V131.2C190.332 130.139 190.754 129.122 191.504 128.372C192.254 127.622 193.271 127.2 194.332 127.2C195.393 127.2 196.41 127.622 197.161 128.372C197.911 129.122 198.332 130.139 198.332 131.2V139.2C198.332 140.261 197.911 141.278 197.161 142.029C196.41 142.779 195.393 143.2 194.332 143.2ZM194.332 115.2C193.271 115.2 192.254 114.779 191.504 114.029C190.754 113.278 190.332 112.261 190.332 111.2V103.2C190.332 102.139 190.754 101.122 191.504 100.372C192.254 99.6216 193.271 99.2002 194.332 99.2002C195.393 99.2002 196.41 99.6216 197.161 100.372C197.911 101.122 198.332 102.139 198.332 103.2V111.2C198.332 112.261 197.911 113.278 197.161 114.029C196.41 114.779 195.393 115.2 194.332 115.2ZM194.332 87.2002C193.271 87.2002 192.254 86.7788 191.504 86.0286C190.754 85.2785 190.332 84.2611 190.332 83.2002V75.2002C190.332 74.1393 190.754 73.1219 191.504 72.3718C192.254 71.6216 193.271 71.2002 194.332 71.2002C195.393 71.2002 196.41 71.6216 197.161 72.3718C197.911 73.1219 198.332 74.1393 198.332 75.2002V83.2002C198.332 84.2611 197.911 85.2785 197.161 86.0286C196.41 86.7788 195.393 87.2002 194.332 87.2002ZM194.332 59.2002C193.271 59.2002 192.254 58.7788 191.504 58.0286C190.754 57.2785 190.332 56.2611 190.332 55.2002V47.2002C190.332 46.1393 190.754 45.1219 191.504 44.3718C192.254 43.6216 193.271 43.2002 194.332 43.2002C195.393 43.2002 196.41 43.6216 197.161 44.3718C197.911 45.1219 198.332 46.1393 198.332 47.2002V55.2002C198.332 56.2611 197.911 57.2785 197.161 58.0286C196.41 58.7788 195.393 59.2002 194.332 59.2002ZM194.332 31.2002C193.271 31.2002 192.254 30.7788 191.504 30.0286C190.754 29.2785 190.332 28.2611 190.332 27.2002V19.2002C190.332 18.1393 190.754 17.1219 191.504 16.3718C192.254 15.6216 193.271 15.2002 194.332 15.2002C195.393 15.2002 196.41 15.6216 197.161 16.3718C197.911 17.1219 198.332 18.1393 198.332 19.2002V27.2002C198.332 28.2611 197.911 29.2785 197.161 30.0286C196.41 30.7788 195.393 31.2002 194.332 31.2002ZM84.4562 381.352L79.4682 378.62C78.5835 378.141 77.8569 377.416 77.3762 376.532L74.6482 371.548C74.0086 370.374 73.0646 369.393 71.9151 368.71C70.7657 368.026 69.4534 367.665 68.1162 367.664C66.7785 367.666 65.4658 368.027 64.3153 368.709C63.1649 369.392 62.2189 370.371 61.5762 371.544L58.8522 376.528C58.3674 377.414 57.6385 378.141 56.7522 378.624L51.7682 381.352C50.5961 381.995 49.6184 382.942 48.9374 384.092C48.2563 385.243 47.897 386.555 47.897 387.892C47.897 389.229 48.2563 390.542 48.9374 391.692C49.6184 392.843 50.5961 393.789 51.7682 394.432L56.7522 397.16C57.6383 397.642 58.3662 398.37 58.8482 399.256L61.5842 404.256C62.2276 405.426 63.1732 406.401 64.3221 407.081C65.471 407.761 66.7813 408.119 68.1162 408.12C69.4528 408.118 70.7643 407.757 71.9134 407.075C73.0626 406.392 74.0071 405.413 74.6482 404.24L77.3722 399.256C77.8554 398.371 78.583 397.643 79.4682 397.16L84.4482 394.436C85.6223 393.794 86.6021 392.848 87.2846 391.697C87.9671 390.546 88.3273 389.232 88.3273 387.894C88.3273 386.556 87.9671 385.242 87.2846 384.091C86.6021 382.94 85.6223 381.994 84.4482 381.352H84.4562ZM68.1042 391.524C67.0821 390.139 65.8578 388.914 64.4722 387.892C65.857 386.871 67.0812 385.648 68.1042 384.264C69.1283 385.647 70.3523 386.87 71.7362 387.892C70.3513 388.915 69.1271 390.139 68.1042 391.524ZM47.8762 349.772L40.8522 345.932C39.197 345.025 37.8355 343.663 36.9282 342.008L33.0882 334.984C32.3947 333.717 31.373 332.659 30.1301 331.922C28.8872 331.186 27.469 330.797 26.0242 330.797C24.5793 330.797 23.1611 331.186 21.9182 331.922C20.6753 332.659 19.6536 333.717 18.9602 334.984L15.1322 342.004C14.2274 343.662 12.8654 345.026 11.2082 345.932L4.18016 349.772C2.91457 350.466 1.85881 351.488 1.12341 352.73C0.388007 353.972 0 355.389 0 356.832C0 358.276 0.388007 359.692 1.12341 360.935C1.85881 362.177 2.91457 363.198 4.18016 363.892L11.2082 367.736C12.8637 368.64 14.2233 370.003 15.1242 371.66L18.9642 378.68C19.6576 379.948 20.6793 381.005 21.9222 381.742C23.1651 382.479 24.5833 382.868 26.0282 382.868C27.473 382.868 28.8912 382.479 30.1341 381.742C31.377 381.005 32.3987 379.948 33.0922 378.68L36.9322 371.66C37.8361 370.002 39.1984 368.64 40.8562 367.736L47.8842 363.892C49.1498 363.198 50.2055 362.177 50.9409 360.935C51.6763 359.692 52.0643 358.276 52.0643 356.832C52.0643 355.389 51.6763 353.972 50.9409 352.73C50.2055 351.488 49.1498 350.466 47.8842 349.772H47.8762ZM35.0962 357.204C31.4244 359.21 28.406 362.228 26.4002 365.9L26.0282 366.588L25.6522 365.9C23.6462 362.229 20.6278 359.212 16.9562 357.208L16.2722 356.832L16.9562 356.456C20.6278 354.452 23.6462 351.435 25.6522 347.764L26.0282 347.08L26.4042 347.768C28.4073 351.437 31.4231 354.453 35.0922 356.456L35.7762 356.832L35.0962 357.204Z" fill="black"/>
<path d="M363.332 241.036C363.064 240.744 362.76 240.5 362.48 240.236C368.948 203.588 368.668 137.968 351.212 101.768C322.764 42.792 256.812 0 194.412 0H194.296C131.868 0 65.9162 42.8 37.4722 101.768C20.0162 137.968 19.7362 203.588 26.2042 240.236C25.9242 240.516 25.6202 240.76 25.3522 241.036C16.8122 250.304 13.4642 263.596 15.9362 278.46C19.7682 301.568 43.0602 326.368 66.5962 326.46C74.5642 353.532 86.5002 375.324 102.136 390.492C113.865 402.255 127.021 412.503 141.296 420.996C139.296 438.416 131.084 478.656 97.4242 492.196C96.1307 492.715 95.0584 493.669 94.3914 494.893C93.7244 496.116 93.5042 497.534 93.7687 498.903C94.0332 500.271 94.7659 501.505 95.841 502.392C96.916 503.279 98.2664 503.764 99.6602 503.764C100.427 503.763 101.188 503.617 101.9 503.332C138.7 488.532 149.456 448.248 152.608 426.932C162.346 431.519 172.534 435.082 183.008 437.564C190.475 439.34 198.254 439.34 205.72 437.564C216.194 435.082 226.382 431.519 236.12 426.932C239.26 448.232 250.016 488.532 286.832 503.332C287.563 503.626 288.345 503.772 289.133 503.764C289.921 503.755 290.7 503.592 291.424 503.282C292.149 502.973 292.806 502.524 293.357 501.961C293.908 501.397 294.343 500.731 294.636 500C295.229 498.524 295.212 496.872 294.588 495.409C293.964 493.945 292.784 492.79 291.308 492.196C257.648 478.672 249.432 438.432 247.436 420.996C261.713 412.503 274.87 402.255 286.6 390.492C302.232 375.324 314.168 353.532 322.14 326.46C345.672 326.36 368.964 301.56 372.796 278.46C375.22 263.596 371.872 250.304 363.332 241.036ZM27.7322 276.496C26.6339 271.755 26.6399 266.825 27.7496 262.087C28.8592 257.348 31.043 252.928 34.1322 249.168C36.8666 246.421 40.121 244.246 43.7054 242.771C47.2897 241.296 51.1322 240.549 55.0082 240.576C55.0882 247.637 55.3348 254.531 55.7482 261.256C51.4193 259.529 46.7496 258.827 42.1042 259.204C40.527 259.366 39.0778 260.145 38.0734 261.372C37.0689 262.598 36.5908 264.173 36.7436 265.751C36.8963 267.329 37.6674 268.782 38.8885 269.794C40.1095 270.805 41.6812 271.292 43.2602 271.148C45.8 270.887 48.3657 271.229 50.7483 272.146C53.131 273.064 55.2635 274.531 56.9722 276.428C58.2542 289.105 60.3518 301.685 63.2522 314.092C47.2362 311.584 30.4442 292.752 27.7482 276.496H27.7322ZM278.196 381.868C259.696 399.8 237.772 417.54 202.896 425.868C197.263 427.21 191.393 427.21 185.76 425.868C150.892 417.548 128.96 399.808 110.468 381.868C80.4882 352.796 65.0922 296.268 67.1322 222.724C68.2128 204.556 70.6097 186.49 74.3042 168.668C108.92 163.6 130.184 134.224 146.08 112.056C151.845 103.554 159.652 96.6344 168.785 91.9331C177.919 87.2318 188.087 84.8988 198.356 85.148C206.983 85.2937 215.434 87.6043 222.935 91.8677C230.436 96.1311 236.745 102.211 241.284 109.548C242.432 111.463 244.023 113.074 245.925 114.243C247.826 115.413 249.982 116.107 252.208 116.268C253.644 116.352 254.972 116.392 256.228 116.428C258.819 116.341 261.407 116.658 263.9 117.368C275.1 121.288 281.428 131.008 288.152 141.3C291.081 145.982 294.287 150.484 297.752 154.784C301.928 159.774 307.071 163.865 312.872 166.812C318.107 185.005 321.017 203.788 321.532 222.712C323.572 296.268 308.176 352.796 278.196 381.868ZM306.664 147.308C303.502 143.361 300.576 139.231 297.9 134.94C290.756 124.008 282.668 111.616 267.748 106.388C264.128 105.244 260.344 104.704 256.548 104.788C255.4 104.756 254.188 104.72 252.876 104.644C252.521 104.589 252.184 104.451 251.891 104.243C251.598 104.035 251.357 103.761 251.188 103.444C245.598 94.5131 237.884 87.1057 228.733 81.8834C219.582 76.661 209.281 73.7863 198.748 73.516C186.574 73.276 174.53 76.0501 163.687 81.5913C152.845 87.1326 143.541 95.2689 136.604 105.276C119.36 129.328 97.9242 159.3 61.1722 157.8C60.3979 157.752 59.6218 157.859 58.8895 158.115C58.1572 158.371 57.4835 158.771 56.9078 159.291C56.3322 159.811 55.8663 160.441 55.5374 161.144C55.2085 161.846 55.0233 162.608 54.9926 163.383C54.962 164.158 55.0865 164.931 55.3589 165.658C55.6313 166.384 56.0461 167.049 56.5789 167.613C57.1117 168.177 57.7518 168.628 58.4615 168.941C59.1713 169.255 59.9365 169.423 60.7122 169.436C61.1122 169.436 61.5122 169.412 61.8922 169.436C58.4219 186.907 56.1632 204.597 55.1322 222.38C55.0762 224.492 55.0842 226.54 55.0522 228.624C48.8652 228.729 42.7631 230.083 37.1122 232.604C32.0322 197.404 32.9522 138.712 48.2602 106.964C74.8122 51.92 136.208 11.984 194.28 11.984H194.388C252.452 11.984 313.856 51.924 340.388 106.964C355.7 138.72 356.604 197.412 351.52 232.596C345.874 230.077 339.778 228.725 333.596 228.62C333.564 226.536 333.572 224.492 333.516 222.38C333.02 205.261 330.707 188.243 326.616 171.612C327.884 171.88 329.156 172.144 330.476 172.34C330.762 172.381 331.051 172.402 331.34 172.404C332.843 172.454 334.307 171.921 335.426 170.916C336.544 169.911 337.23 168.511 337.34 167.012C337.45 165.512 336.974 164.028 336.014 162.87C335.054 161.713 333.683 160.973 332.188 160.804C322.273 159.717 313.145 154.89 306.664 147.308ZM360.916 276.508C358.216 292.776 341.412 311.684 325.364 314.192C328.278 301.757 330.383 289.147 331.668 276.44C333.375 274.541 335.508 273.073 337.891 272.155C340.274 271.237 342.84 270.896 345.38 271.16C346.96 271.295 348.529 270.806 349.753 269.798C350.977 268.791 351.757 267.344 351.928 265.768C352.004 264.984 351.925 264.192 351.696 263.438C351.466 262.685 351.09 261.984 350.589 261.375C350.088 260.767 349.473 260.263 348.777 259.893C348.082 259.522 347.32 259.292 346.536 259.216C341.882 258.86 337.21 259.593 332.888 261.356C333.31 254.612 333.558 247.691 333.632 240.592C337.508 240.563 341.351 241.308 344.935 242.783C348.52 244.257 351.774 246.432 354.508 249.18C357.597 252.938 359.781 257.356 360.892 262.092C362.003 266.828 362.011 271.756 360.916 276.496V276.508Z" fill="black"/>
<path d="M363.332 241.036C363.064 240.744 362.76 240.5 362.48 240.236C368.948 203.588 368.668 137.968 351.212 101.768C322.764 42.792 256.812 0 194.412 0H194.296C131.868 0 65.9162 42.8 37.4722 101.768C20.0162 137.968 19.7362 203.588 26.2042 240.236C25.9242 240.516 25.6202 240.76 25.3522 241.036C16.8122 250.304 13.4642 263.596 15.9362 278.46C19.7682 301.568 43.0602 326.368 66.5962 326.46C74.5642 353.532 86.5002 375.324 102.136 390.492C113.865 402.255 127.021 412.503 141.296 420.996C139.296 438.416 131.084 478.656 97.4242 492.196C96.1307 492.715 95.0584 493.669 94.3914 494.893C93.7244 496.116 93.5042 497.534 93.7687 498.903C94.0332 500.271 94.7659 501.505 95.841 502.392C96.916 503.279 98.2664 503.764 99.6602 503.764C100.427 503.763 101.188 503.617 101.9 503.332C138.7 488.532 149.456 448.248 152.608 426.932C162.346 431.519 172.534 435.082 183.008 437.564C190.475 439.34 198.254 439.34 205.72 437.564C216.194 435.082 226.382 431.519 236.12 426.932C239.26 448.232 250.016 488.532 286.832 503.332C287.563 503.626 288.345 503.772 289.133 503.764C289.921 503.755 290.7 503.592 291.424 503.282C292.149 502.973 292.806 502.524 293.357 501.961C293.908 501.397 294.343 500.731 294.636 500C295.229 498.524 295.212 496.872 294.588 495.409C293.964 493.945 292.784 492.79 291.308 492.196C257.648 478.672 249.432 438.432 247.436 420.996C261.713 412.503 274.87 402.255 286.6 390.492C302.232 375.324 314.168 353.532 322.14 326.46C345.672 326.36 368.964 301.56 372.796 278.46C375.22 263.596 371.872 250.304 363.332 241.036ZM27.7322 276.496C26.6339 271.755 26.6399 266.825 27.7496 262.087C28.8592 257.348 31.043 252.928 34.1322 249.168C36.8666 246.421 40.121 244.246 43.7054 242.771C47.2897 241.296 51.1322 240.549 55.0082 240.576C55.0882 247.637 55.3348 254.531 55.7482 261.256C51.4193 259.529 46.7496 258.827 42.1042 259.204C40.527 259.366 39.0778 260.145 38.0734 261.372C37.0689 262.598 36.5908 264.173 36.7436 265.751C36.8963 267.329 37.6674 268.782 38.8885 269.794C40.1095 270.805 41.6812 271.292 43.2602 271.148C45.8 270.887 48.3657 271.229 50.7483 272.146C53.131 273.064 55.2635 274.531 56.9722 276.428C58.2542 289.105 60.3518 301.685 63.2522 314.092C47.2362 311.584 30.4442 292.752 27.7482 276.496H27.7322ZM278.196 381.868C259.696 399.8 237.772 417.54 202.896 425.868C197.263 427.21 191.393 427.21 185.76 425.868C150.892 417.548 128.96 399.808 110.468 381.868C80.4882 352.796 65.0922 296.268 67.1322 222.724C68.2128 204.556 70.6097 186.49 74.3042 168.668C108.92 163.6 130.184 134.224 146.08 112.056C151.845 103.554 159.652 96.6344 168.785 91.9331C177.919 87.2318 188.087 84.8988 198.356 85.148C206.983 85.2937 215.434 87.6043 222.935 91.8677C230.436 96.1311 236.745 102.211 241.284 109.548C242.432 111.463 244.023 113.074 245.925 114.243C247.826 115.413 249.982 116.107 252.208 116.268C253.644 116.352 254.972 116.392 256.228 116.428C258.819 116.341 261.407 116.658 263.9 117.368C275.1 121.288 281.428 131.008 288.152 141.3C291.081 145.982 294.287 150.484 297.752 154.784C301.928 159.774 307.071 163.865 312.872 166.812C318.107 185.005 321.017 203.788 321.532 222.712C323.572 296.268 308.176 352.796 278.196 381.868ZM306.664 147.308C303.502 143.361 300.576 139.231 297.9 134.94C290.756 124.008 282.668 111.616 267.748 106.388C264.128 105.244 260.344 104.704 256.548 104.788C255.4 104.756 254.188 104.72 252.876 104.644C252.521 104.589 252.184 104.451 251.891 104.243C251.598 104.035 251.357 103.761 251.188 103.444C245.598 94.5131 237.884 87.1057 228.733 81.8834C219.582 76.661 209.281 73.7863 198.748 73.516C186.574 73.276 174.53 76.0501 163.687 81.5913C152.845 87.1326 143.541 95.2689 136.604 105.276C119.36 129.328 97.9242 159.3 61.1722 157.8C60.3979 157.752 59.6218 157.859 58.8895 158.115C58.1572 158.371 57.4835 158.771 56.9078 159.291C56.3322 159.811 55.8663 160.441 55.5374 161.144C55.2085 161.846 55.0233 162.608 54.9926 163.383C54.962 164.158 55.0865 164.931 55.3589 165.658C55.6313 166.384 56.0461 167.049 56.5789 167.613C57.1117 168.177 57.7518 168.628 58.4615 168.941C59.1713 169.255 59.9365 169.423 60.7122 169.436C61.1122 169.436 61.5122 169.412 61.8922 169.436C58.4219 186.907 56.1632 204.597 55.1322 222.38C55.0762 224.492 55.0842 226.54 55.0522 228.624C48.8652 228.729 42.7631 230.083 37.1122 232.604C32.0322 197.404 32.9522 138.712 48.2602 106.964C74.8122 51.92 136.208 11.984 194.28 11.984H194.388C252.452 11.984 313.856 51.924 340.388 106.964C355.7 138.72 356.604 197.412 351.52 232.596C345.874 230.077 339.778 228.725 333.596 228.62C333.564 226.536 333.572 224.492 333.516 222.38C333.02 205.261 330.707 188.243 326.616 171.612C327.884 171.88 329.156 172.144 330.476 172.34C330.762 172.381 331.051 172.402 331.34 172.404C332.843 172.454 334.307 171.921 335.426 170.916C336.544 169.911 337.23 168.511 337.34 167.012C337.45 165.512 336.974 164.028 336.014 162.87C335.054 161.713 333.683 160.973 332.188 160.804C322.273 159.717 313.145 154.89 306.664 147.308ZM360.916 276.508C358.216 292.776 341.412 311.684 325.364 314.192C328.278 301.757 330.383 289.147 331.668 276.44C333.375 274.541 335.508 273.073 337.891 272.155C340.274 271.237 342.84 270.896 345.38 271.16C346.96 271.295 348.529 270.806 349.753 269.798C350.977 268.791 351.757 267.344 351.928 265.768C352.004 264.984 351.925 264.192 351.696 263.438C351.466 262.685 351.09 261.984 350.589 261.375C350.088 260.767 349.473 260.263 348.777 259.893C348.082 259.522 347.32 259.292 346.536 259.216C341.882 258.86 337.21 259.593 332.888 261.356C333.31 254.612 333.558 247.691 333.632 240.592C337.508 240.563 341.351 241.308 344.935 242.783C348.52 244.257 351.774 246.432 354.508 249.18C357.597 252.938 359.781 257.356 360.892 262.092C362.003 266.828 362.011 271.756 360.916 276.496V276.508Z" fill="black"/>
</svg>
