<svg width="512" height="481" viewBox="0 0 512 481" fill="none" xmlns="http://www.w3.org/2000/svg">
<path d="M508.251 466.811L401.506 405.182L432.949 350.718C433.928 348.997 434.186 346.958 433.667 345.046C433.148 343.135 431.895 341.507 430.179 340.516C428.464 339.526 426.427 339.254 424.512 339.761C422.598 340.267 420.961 341.51 419.959 343.218L392.266 391.186L370.615 378.686L370.617 378.683L437.011 263.685L458.662 276.185L436.385 314.769C435.406 316.49 435.148 318.529 435.667 320.441C436.186 322.352 437.44 323.98 439.155 324.971C440.87 325.961 442.907 326.233 444.822 325.726C446.737 325.22 448.373 323.977 449.375 322.269L471.652 283.685L500.748 300.484C501.601 300.976 502.543 301.296 503.519 301.425C504.496 301.553 505.488 301.488 506.439 301.233C507.391 300.979 508.283 300.539 509.064 299.939C509.845 299.34 510.501 298.592 510.993 297.739C511.988 296.016 512.257 293.969 511.743 292.048C511.228 290.127 509.971 288.489 508.248 287.494L449.263 253.439L455.145 250.043C468.085 242.572 472.58 233.191 474.072 226.636C476.002 218.159 474.317 208.992 469.198 200.128C464.244 191.547 457.694 185.816 450.21 183.088C453.65 178.628 455.357 174.243 456.166 170.69C458.096 162.213 456.411 153.047 451.292 144.183C447.122 136.96 441.822 131.753 435.784 128.658L436.674 128.141C456.499 116.689 461.878 97.5672 450.715 78.2324C446.286 70.5605 440.373 65.0076 433.479 61.9866C445.01 50.5987 446.836 35.1019 437.838 19.4661C432.503 10.1952 425.054 4.05428 416.296 1.70831C407.436 -0.665663 397.599 1.06432 387.847 6.71225L371.949 15.9211C328.079 41.3328 338.433 67.2235 342.651 74.5535C346.824 81.8054 353.268 86.7943 361.291 89.0003C330.307 111.979 339.194 133.859 343.033 140.509C347.228 147.774 353.741 152.745 361.759 154.963C352.618 161.692 346.12 168.919 342.398 176.541C337.424 186.724 337.65 197.467 343.034 206.791C348.417 216.115 357.608 221.682 368.913 222.467C369.873 222.534 370.845 222.567 371.831 222.567C373.029 222.567 374.249 222.51 375.485 222.412C367.414 237.321 372.641 249.61 375.353 254.307C380.736 263.631 389.927 269.198 401.232 269.983C402.192 270.049 403.165 270.083 404.151 270.083C408.205 270.083 412.481 269.521 416.966 268.401L361.373 364.691L333.692 348.712C332.352 347.938 330.806 347.598 329.264 347.738C329.072 347.756 309.745 349.462 285.132 347.915C253.11 345.903 226.656 339.338 208.629 328.93C197.019 322.227 184.975 314.676 170.728 305.166C169.074 304.062 167.048 303.66 165.098 304.049C163.147 304.438 161.431 305.586 160.326 307.241C159.222 308.895 158.82 310.921 159.21 312.871C159.599 314.822 160.747 316.538 162.401 317.643C176.924 327.336 189.231 335.051 201.13 341.92C205.495 344.44 210.109 346.672 214.888 348.656C196.358 349.059 183.025 347.767 182.81 347.745C181.245 347.588 179.67 347.926 178.307 348.712L3.75328 449.489C2.04475 450.491 0.801751 452.127 0.295537 454.042C-0.210678 455.957 0.0609882 457.994 1.05125 459.709C2.04151 461.424 3.66998 462.678 5.58127 463.197C7.49257 463.716 9.53152 463.458 11.2532 462.479L183.757 362.885C192.652 363.595 223.937 365.458 256.604 359.923C288.969 365.102 319.438 363.5 328.213 362.868L355.624 378.692C355.627 379.985 355.781 381.286 356.125 382.568C356.63 384.473 357.508 386.259 358.707 387.822C359.907 389.385 361.405 390.695 363.114 391.676L386.515 405.186C386.518 406.479 386.672 407.78 387.016 409.062C387.521 410.966 388.398 412.752 389.598 414.316C390.797 415.879 392.295 417.189 394.005 418.169L500.75 479.799C501.603 480.291 502.545 480.611 503.521 480.74C504.498 480.868 505.49 480.803 506.441 480.548C507.393 480.293 508.285 479.854 509.066 479.254C509.847 478.654 510.503 477.907 510.995 477.054C511.488 476.201 511.808 475.26 511.937 474.283C512.065 473.307 512 472.315 511.746 471.364C511.491 470.413 511.051 469.521 510.451 468.74C509.852 467.958 509.104 467.303 508.251 466.811ZM355.652 67.0725C349.064 55.6247 357.967 41.3548 379.467 28.901L395.365 19.6921C399.996 17.0091 404.316 15.6621 408.261 15.6621C409.696 15.6621 411.08 15.8401 412.413 16.1981C418.507 17.8311 422.532 22.9461 424.836 26.948C429.635 35.2879 432.059 47.1408 416.348 56.2417L400.45 65.4506C386.354 73.6155 373.9 76.8554 365.379 74.5715C361.133 73.4345 357.861 70.9115 355.652 67.0725ZM356.023 133.009C349.385 121.512 358.356 107.18 380.039 94.6612L407.959 78.4344C412.634 75.7344 416.993 74.3795 420.979 74.3795C422.641 74.3795 424.237 74.6154 425.765 75.0874C431.614 76.8954 435.496 81.8734 437.724 85.7313C442.56 94.1072 445 106.012 429.161 115.157L429.142 115.168L397.6 133.392C386.939 139.034 377.44 141.738 369.951 141.22C363.601 140.78 358.915 138.018 356.023 133.009ZM369.951 207.504C363.601 207.063 358.915 204.3 356.023 199.292C353.131 194.284 353.082 188.845 355.875 183.125C359.537 175.627 367.886 167.961 380.039 160.945L408.741 144.375C411.866 142.57 418.387 140.339 421.542 140.339C429.666 140.339 434.984 145.938 438.301 151.683C440.528 155.541 442.898 161.391 441.539 167.361C440.333 172.658 436.363 177.283 429.738 181.108C429.732 181.112 429.726 181.115 429.72 181.119C429.72 181.119 402.042 197.134 400.725 197.96C388.794 204.769 378.164 208.07 369.951 207.504ZM402.271 255.019C395.921 254.579 391.235 251.816 388.343 246.808C382.113 236.018 389.635 222.729 408.497 210.795L408.741 210.658L427.55 199.727C432.058 197.306 436.008 196.283 439.448 196.283C447.572 196.283 452.89 201.882 456.207 207.627C458.434 211.485 460.804 217.336 459.445 223.306C458.239 228.603 454.269 233.228 447.643 237.053L433.542 245.193C421.407 252.199 410.59 255.601 402.271 255.019Z" fill="black"/>
<path d="M7.51006 301.489C8.82452 301.489 10.1157 301.142 11.253 300.483L77.7382 262.098L82.7842 265.011C100.587 275.29 118.906 287.893 135.067 299.012C136.314 299.873 137.794 300.335 139.311 300.334C140.912 300.336 142.471 299.825 143.762 298.876C145.052 297.928 146.004 296.592 146.48 295.063C146.956 293.534 146.93 291.893 146.406 290.38C145.882 288.867 144.888 287.561 143.568 286.654C127.178 275.377 108.601 262.595 90.2851 252.02L64.3584 237.051C57.7335 233.226 53.7625 228.602 52.5565 223.305C51.1976 217.336 53.5675 211.484 55.7945 207.626C60.6204 199.268 69.6823 191.219 85.4581 200.271L129.9 225.93C131.621 226.908 133.66 227.167 135.572 226.648C137.483 226.129 139.111 224.875 140.102 223.16C141.092 221.445 141.363 219.407 140.857 217.493C140.351 215.578 139.108 213.941 137.4 212.94L82.2642 181.107C75.6393 177.282 71.6683 172.657 70.4633 167.36C69.1043 161.391 71.4743 155.539 73.7013 151.681C78.5372 143.306 87.6271 135.241 103.466 144.385L144.117 167.854C145.839 168.833 147.878 169.091 149.789 168.572C151.701 168.053 153.329 166.8 154.319 165.085C155.31 163.369 155.581 161.332 155.075 159.417C154.569 157.503 153.326 155.866 151.617 154.864L82.8412 115.158C67.0014 106.013 69.4413 94.1081 74.2773 85.7322C76.5053 81.8743 80.3872 76.8963 86.2361 75.0883C91.4091 73.4904 97.376 74.6033 103.972 78.3943L155.693 108.256C157.415 109.235 159.454 109.493 161.365 108.974C163.277 108.455 164.905 107.201 165.895 105.486C166.886 103.771 167.157 101.734 166.651 99.8192C166.145 97.9045 164.902 96.2677 163.193 95.2661L94.769 55.7616C88.1441 51.9366 84.1732 47.3107 82.9672 42.0137C81.6082 36.0448 83.9782 30.1939 86.2051 26.3359C88.4331 22.478 92.3151 17.5 98.164 15.692C103.354 14.0881 109.346 15.214 115.97 19.039L219.062 78.5593C235.187 89.3712 254.433 97.4821 276.271 102.668C301.879 108.752 318.908 96.5811 324.424 81.8233C330.151 66.5014 323.292 50.1156 307.744 41.9777C304.597 40.3297 301.09 38.5558 297.377 36.6778C288.619 32.2478 278.646 27.1999 269.454 21.833C269.9 21.476 270.361 21.117 270.786 20.764C278.007 14.779 288.306 13.9021 296.412 18.583L321.213 32.9018C322.066 33.3944 323.008 33.7141 323.984 33.8427C324.961 33.9714 325.953 33.9064 326.904 33.6515C327.856 33.3966 328.748 32.9568 329.529 32.3571C330.31 31.7575 330.966 31.0099 331.458 30.1569C332.453 28.4343 332.722 26.3872 332.207 24.4659C331.693 22.5447 330.436 20.9066 328.713 19.912L303.912 5.59316C290.4 -2.20775 273.239 -0.752768 261.212 9.21611C259.657 10.5051 257.897 11.8441 255.993 13.2111C254.212 11.9401 252.475 10.608 250.785 9.21711C238.758 -0.752769 221.599 -2.20775 208.086 5.59416L165.381 30.2489L123.471 6.04915C110.532 -1.42176 100.159 -0.62477 93.7351 1.36121C85.4291 3.92818 78.3342 9.9711 73.2153 18.836C68.0963 27.7009 66.4124 36.8668 68.3413 45.3437C69.4143 50.0566 72.0403 56.2316 78.2402 62.1065C71.4663 65.1545 65.6564 70.6654 61.2874 78.2323C50.1226 97.5701 55.5075 116.697 75.3413 128.148L76.2183 128.654C70.1813 131.749 64.8804 136.958 60.7104 144.182C55.5925 153.046 53.9075 162.212 55.8365 170.689C56.6455 174.242 58.3365 178.626 61.7754 183.085C54.2975 185.815 47.7546 191.552 42.8036 200.127C37.6857 208.992 36.0007 218.158 37.9297 226.635C39.4217 233.189 43.9166 242.571 56.8555 250.041L62.7374 253.437L3.75311 287.492C2.32189 288.317 1.20327 289.592 0.570972 291.119C-0.0613237 292.645 -0.171906 294.337 0.2564 295.933C0.684705 297.529 1.62793 298.938 2.93958 299.943C4.25123 300.948 5.8579 301.491 7.51006 301.489ZM215.589 18.583C223.694 13.9021 233.992 14.778 241.214 20.764C254.559 31.8258 274.546 41.9377 290.606 50.0626C294.271 51.9166 297.732 53.6676 300.788 55.2676C311.621 60.9385 312.723 70.2884 310.374 76.5733C305.921 88.4882 291.778 90.9342 279.737 88.0762C259.56 83.2842 241.891 75.8473 227.22 65.9714C227.078 65.8752 226.932 65.7841 226.782 65.6984L180.383 38.9098L215.589 18.583Z" fill="black"/>
</svg>
