<svg width="402" height="397" viewBox="0 0 402 397" fill="none" xmlns="http://www.w3.org/2000/svg">
<path d="M314.872 318.477C311.71 317.689 308.489 319.612 307.701 322.783C302.993 341.627 295.486 359.658 285.432 376.276C282.481 381.152 277.111 384.182 271.416 384.182H130.732C125.036 384.182 119.663 381.152 116.712 376.276C98.3504 345.915 88.6447 311.11 88.6458 275.628C88.6458 265.317 88.5665 271.537 97.3932 142.676C97.6139 139.416 95.1634 136.585 91.8972 136.364C88.6372 136.134 85.8153 138.597 85.5845 141.854C76.8041 270.169 76.8143 264.633 76.8143 275.627C76.8138 313.266 87.1091 350.188 106.586 382.396C111.665 390.799 120.918 396.014 130.732 396.014H271.417C281.228 396.014 290.48 390.8 295.562 382.396C306.224 364.768 314.185 345.643 319.179 325.657C319.559 324.134 319.318 322.522 318.511 321.176C317.703 319.83 316.395 318.859 314.873 318.477L314.872 318.477ZM216.31 72.902C216.437 73.6687 216.713 74.403 217.123 75.0629C217.533 75.7229 218.069 76.2956 218.7 76.7484C219.332 77.2012 220.046 77.5252 220.803 77.7019C221.56 77.8786 222.344 77.9045 223.11 77.7782C223.877 77.6519 224.611 77.3758 225.271 76.9658C225.931 76.5557 226.504 76.0196 226.957 75.3882C227.409 74.7568 227.734 74.0424 227.91 73.2857C228.087 72.5291 228.113 71.7451 227.987 70.9784C225.843 57.9503 214.271 48.1233 201.074 48.1233C186.033 48.1233 173.798 60.3576 173.798 75.398V120.244C173.798 135.285 186.033 147.519 201.074 147.519C216.111 147.519 228.345 135.285 228.345 120.244V95.5883C228.346 94.8113 228.193 94.0418 227.896 93.3239C227.598 92.606 227.163 91.9537 226.613 91.4043C226.064 90.8548 225.411 90.4191 224.694 90.1219C223.976 89.8247 223.206 89.6718 222.429 89.6722C221.652 89.6718 220.883 89.8247 220.165 90.1219C219.447 90.4191 218.795 90.8548 218.245 91.4043C217.696 91.9537 217.26 92.606 216.963 93.3239C216.666 94.0418 216.513 94.8113 216.513 95.5883V120.244C216.513 128.758 209.588 135.686 201.074 135.686C192.56 135.686 185.631 128.758 185.631 120.244V75.398C185.631 66.8838 192.56 59.9556 201.074 59.9556C208.544 59.9556 215.097 65.5224 216.31 72.902Z" fill="black"/>
<path d="M210.934 77.3089C210.934 82.7556 206.517 87.1689 201.074 87.1689C195.626 87.1689 191.21 82.7563 191.21 77.3089C191.21 71.8647 195.626 67.4482 201.074 67.4482C206.517 67.4482 210.934 71.8647 210.934 77.3089Z" fill="black"/>
<path d="M370.336 83.2833C364.481 63.5351 338.905 58.1772 325.656 74.0703C319.656 72.6625 313.084 72.8557 307.41 74.2509C279.844 -1.03761 183.463 -25.2063 123.821 30.455C84.4318 67.2002 88.502 112.644 87.2254 118.245C87.1703 119.02 87.2687 119.798 87.515 120.535C87.7613 121.273 88.1506 121.954 88.6607 122.54C89.1707 123.127 89.7915 123.606 90.4874 123.952C91.1833 124.298 91.9406 124.504 92.716 124.557C95.9822 124.769 98.7978 122.324 99.0278 119.064L99.9111 106.237C103.579 53.2975 148.014 11.8381 201.074 11.8381C244.61 11.8381 282.34 39.7535 296.501 79.0239C293.019 81.3817 290.039 84.4273 287.64 88.0955H244.987C244.209 88.0944 243.439 88.2467 242.721 88.5436C242.003 88.8405 241.35 89.2762 240.801 89.8258C240.251 90.3754 239.815 91.028 239.518 91.7463C239.222 92.4646 239.069 93.2344 239.07 94.0117C239.07 94.7886 239.223 95.558 239.521 96.2758C239.818 96.9936 240.254 97.6459 240.803 98.1953C241.352 98.7446 242.005 99.1804 242.722 99.4777C243.44 99.775 244.21 99.9279 244.987 99.9278H291.032C292.119 99.9274 293.186 99.6275 294.114 99.061C295.043 98.4946 295.797 97.6834 296.295 96.7165C302.119 85.3632 315.998 82.7439 325.978 86.5158C328.723 87.5593 331.823 86.4145 333.243 83.8416C335.721 79.3701 340.429 76.5852 345.533 76.5852C353.994 76.5852 360.074 84.0748 359.543 90.9354C359.561 91.0124 358.942 94.7482 362.447 96.7966C363.388 97.3427 364.46 97.619 365.547 97.5952C366.634 97.5713 367.694 97.2483 368.609 96.6616C377.89 90.7423 390.167 97.3981 390.167 108.479C390.167 119.671 377.681 126.295 368.444 120.201C364.153 117.376 358.494 121.005 359.347 126.108C360.8 134.996 353.912 142.455 345.533 142.455C340.429 142.455 335.721 139.676 333.243 135.195C331.823 132.626 328.723 131.497 325.978 132.531C313.559 137.223 299.678 131.202 294.583 118.953C294.134 117.875 293.376 116.954 292.404 116.306C291.433 115.658 290.292 115.311 289.124 115.31H264.969C263.4 115.31 261.895 115.934 260.786 117.043C259.677 118.152 259.053 119.656 259.053 121.225C259.052 122.002 259.205 122.772 259.502 123.49C259.799 124.208 260.234 124.861 260.784 125.41C261.333 125.96 261.986 126.396 262.704 126.693C263.422 126.99 264.192 127.143 264.969 127.142H285.417C289.722 134.944 296.647 140.79 304.83 143.747L305.99 160.481C300.089 162.789 295.482 167.696 293.571 173.773C273.262 169.23 259.706 193.803 273.464 208.647C259.608 223.82 273.516 247.933 293.572 243.449C296.166 251.693 303.726 257.769 312.74 258.17C313.516 270.613 314.24 282.238 311.937 300.231C311.839 301.002 311.894 301.784 312.098 302.534C312.303 303.283 312.653 303.985 313.129 304.599C313.605 305.214 314.197 305.728 314.871 306.113C315.546 306.499 316.29 306.747 317.061 306.845C317.831 306.943 318.614 306.888 319.363 306.684C320.113 306.479 320.815 306.129 321.429 305.653C322.043 305.177 322.558 304.585 322.943 303.911C323.328 303.236 323.577 302.492 323.675 301.721C326.227 281.802 325.257 268.859 324.401 255.266C328.842 252.647 332.24 248.451 333.81 243.449C354.105 247.961 367.636 223.419 353.927 208.568C367.747 193.432 353.891 169.282 333.811 173.772C331.522 166.498 325.371 160.906 317.767 159.422L316.835 145.933C318.706 146.031 322.349 145.753 325.656 144.971C339.441 161.504 366.364 154.892 370.833 133.791C386.924 137.156 401.999 124.845 401.999 108.479C401.999 91.8282 386.41 79.5326 370.336 83.2833ZM322.8 181.723C321.837 187.161 328.21 190.817 332.425 187.283C334.577 185.478 336.835 185.1 338.356 185.1C348.655 185.1 351.271 199.487 341.528 203.054C336.344 204.943 336.365 212.286 341.528 214.169C345.235 215.519 347.634 218.942 347.634 222.879C347.634 230.562 338.552 235.077 332.425 229.936C329.048 227.094 323.864 228.851 322.871 233.102C322.466 234.814 322.941 235.426 322.941 237.163C322.941 243.045 317.461 247.327 311.916 246.189C307.057 245.241 303.665 240.558 304.594 235.491C305.542 230.047 299.147 226.422 294.96 229.936C290.419 233.749 283.797 232.347 281 227.486C278.175 222.603 280.297 216.194 285.858 214.169C291.019 212.286 291.041 204.946 285.858 203.054C280.328 201.03 278.159 194.666 281 189.731C283.806 184.87 290.422 183.478 294.96 187.283C299.169 190.813 305.542 187.17 304.594 181.732C303.551 176.043 307.947 170.853 313.697 170.853C319.295 170.853 323.806 175.85 322.8 181.723ZM45.8092 34.6343C34.1819 34.6343 24.72 44.0962 24.72 55.7267C24.72 67.3533 34.1819 76.8152 45.8092 76.8152C57.4389 76.8152 66.9008 67.3565 66.9008 55.726C66.9008 44.0955 57.4397 34.6343 45.8092 34.6343ZM45.8092 64.9861C40.7057 64.9861 36.5523 60.8302 36.5523 55.7267C36.5523 50.6232 40.7057 46.4698 45.8092 46.4698C50.9159 46.4698 55.0686 50.6232 55.0686 55.7267C55.0686 60.8302 50.9151 64.9861 45.8092 64.9861Z" fill="black"/>
<path d="M86.0422 55.6867C99.8499 40.5567 85.9503 16.4163 65.932 20.8855C59.7607 1.27228 31.8508 1.2872 25.6865 20.8855C5.41382 16.3614 -8.13638 40.9407 5.57871 55.766C-8.25023 70.914 5.58813 95.0512 25.6897 90.568C31.8571 110.184 59.7701 110.163 65.932 90.5648C86.0359 95.052 99.9355 70.7059 86.0422 55.6867ZM64.5391 77.0507C60.3228 73.5152 53.9615 77.1834 54.9124 82.6088C55.9393 88.4637 51.4247 93.4809 45.8093 93.4809C40.1876 93.4809 35.6784 88.4543 36.7062 82.6088C37.3445 78.9775 34.5376 75.6681 30.8819 75.6681C26.8336 75.6681 26.5361 79.235 21.1499 79.235C10.8573 79.235 8.2286 64.8384 17.9763 61.284C23.1465 59.4004 23.1528 52.0553 17.9763 50.1662C12.3939 48.1327 10.3053 41.7101 13.1115 36.8492C15.9121 32.0001 22.5239 30.5837 27.0794 34.3988C31.2957 37.9343 37.6601 34.2692 36.7062 28.8438C35.6784 22.9865 40.1962 17.9686 45.8093 17.9686C51.431 17.9686 55.9425 22.9952 54.9116 28.8406C53.9615 34.2606 60.3158 37.9375 64.5391 34.398C66.2476 32.969 68.2961 32.2152 70.471 32.2152C80.8099 32.2152 83.3648 46.6228 73.6454 50.1662C72.5051 50.5817 71.52 51.3377 70.8239 52.3318C70.1277 53.3258 69.7539 54.5099 69.7533 55.7236C69.7534 56.9377 70.1269 58.1224 70.8231 59.1171C71.5193 60.1118 72.5046 60.8683 73.6454 61.284C77.3536 62.6361 79.7484 66.0531 79.7484 69.9883C79.7484 77.6953 70.661 82.1794 64.5399 77.0515L64.5391 77.0507ZM151.357 180.652C139.727 180.652 130.265 190.113 130.265 201.744C130.265 213.371 139.726 222.833 151.357 222.833C162.984 222.833 172.446 213.371 172.446 201.744C172.446 190.114 162.984 180.652 151.357 180.652ZM151.357 211C146.251 211 142.098 206.847 142.098 201.744C142.098 196.637 146.251 192.484 151.357 192.484C156.46 192.484 160.614 196.64 160.614 201.744C160.614 206.847 156.46 211.001 151.357 211.001V211Z" fill="black"/>
<path d="M131.235 166.902C110.943 162.377 97.3478 186.89 111.123 201.784C97.2944 216.935 111.136 241.069 131.234 236.585C137.405 256.198 165.312 256.183 171.476 236.582C191.58 241.069 205.48 216.72 191.587 201.704C205.358 186.618 191.534 162.425 171.476 166.902C165.305 147.289 137.399 147.301 131.234 166.902H131.235ZM179.188 196.183C174.017 198.07 174.013 205.415 179.188 207.301C182.898 208.654 185.294 212.071 185.294 216.008C185.294 223.701 176.216 228.203 170.085 223.069C165.871 219.53 159.506 223.2 160.457 228.626C161.485 234.469 156.979 239.499 151.355 239.499C145.733 239.499 141.224 234.472 142.252 228.626C143.202 223.207 136.847 219.53 132.624 223.069C128.091 226.869 121.469 225.492 118.657 220.621C115.857 215.769 117.918 209.344 123.521 207.301C128.692 205.415 128.698 198.07 123.521 196.183C113.783 192.634 116.387 178.232 126.693 178.232C128.867 178.232 130.919 178.986 132.624 180.416C136.841 183.952 143.206 180.287 142.252 174.858C141.224 169.016 145.73 163.986 151.355 163.986C156.976 163.986 161.485 169.013 160.457 174.858C159.507 180.284 165.864 183.955 170.085 180.416C171.79 178.987 173.841 178.232 176.016 178.232C186.38 178.232 188.891 192.648 179.188 196.183ZM217.406 306.467C205.775 306.467 196.313 315.928 196.313 327.559C196.313 339.186 205.775 348.648 217.406 348.648C229.032 348.648 238.494 339.186 238.494 327.559C238.494 315.929 229.034 306.467 217.406 306.467ZM217.406 336.815C212.299 336.815 208.146 332.662 208.146 327.559C208.146 322.452 212.302 318.299 217.406 318.299C222.509 318.299 226.662 322.455 226.662 327.559C226.662 332.662 222.509 336.815 217.405 336.815L217.406 336.815Z" fill="black"/>
<path d="M237.525 292.717C231.357 273.101 203.444 273.12 197.283 292.717C177.019 288.197 163.444 312.761 177.172 327.598C163.346 342.746 177.181 366.884 197.283 362.4C203.454 382.013 231.363 381.998 237.528 362.397C257.651 366.888 271.519 342.526 257.636 327.519C271.458 312.374 257.599 288.236 237.525 292.717ZM245.239 333.117C250.829 335.156 252.903 341.581 250.103 346.436C247.29 351.307 240.668 352.683 236.136 348.884C231.919 345.348 225.554 349.016 226.508 354.444C227.536 360.299 223.021 365.313 217.406 365.313C211.749 365.313 207.275 360.25 208.303 354.444C208.94 350.816 206.14 347.501 202.475 347.501C198.491 347.501 198.062 351.068 192.743 351.068C182.466 351.068 179.804 336.677 189.572 333.117C194.743 331.23 194.749 323.885 189.572 321.999C185.861 320.646 183.466 317.229 183.466 313.294C183.466 305.497 192.621 301.161 198.675 306.234C202.895 309.773 209.257 306.095 208.303 300.673C207.275 294.818 211.79 289.803 217.406 289.803C223.024 289.803 227.536 294.825 226.508 300.673C225.554 306.095 231.912 309.77 236.136 306.234C240.682 302.422 247.297 303.823 250.104 308.681C252.907 313.543 250.83 319.962 245.239 322.001C240.065 323.885 240.061 331.23 245.239 333.117ZM292.602 208.607C292.602 220.238 302.064 229.7 313.694 229.7C325.321 229.7 334.783 220.238 334.783 208.607C334.783 196.981 325.321 187.519 313.694 187.519C302.064 187.519 292.602 196.979 292.602 208.607ZM322.95 208.607C322.95 213.714 318.798 217.867 313.694 217.867C308.587 217.867 304.435 213.714 304.435 208.607C304.435 203.504 308.588 199.351 313.694 199.351C318.798 199.351 322.951 203.505 322.951 208.608L322.95 208.607Z" fill="black"/>
</svg>
