<svg width="496" height="496" viewBox="0 0 496 496" fill="none" xmlns="http://www.w3.org/2000/svg">
<path d="M488 128.002H363.312L439.032 52.2822C444.776 46.5387 448.002 38.7488 448.002 30.6262C448.002 22.5036 444.776 14.7137 439.032 8.97021C433.288 3.22668 425.499 1.21036e-07 417.376 0C409.253 -1.21036e-07 401.464 3.22668 395.72 8.97021L276.688 128.002H80V104.002C80 101.88 79.1571 99.8456 77.6569 98.3454C76.1566 96.8451 74.1217 96.0022 72 96.0022H40C29.3952 96.0149 19.2285 100.233 11.7298 107.732C4.23106 115.231 0.0127029 125.397 0 136.002V456.002C0.0127029 466.607 4.23106 476.774 11.7298 484.272C19.2285 491.771 29.3952 495.989 40 496.002H488C490.122 496.002 492.157 495.159 493.657 493.659C495.157 492.159 496 490.124 496 488.002V136.002C496 133.88 495.157 131.846 493.657 130.345C492.157 128.845 490.122 128.002 488 128.002ZM192 208.002H128V192.002H192V208.002ZM128 224.002H192V240.002H128V224.002ZM128 320.002H256V432.002H128V320.002ZM264 304.002H128V256.002H200C202.122 256.002 204.157 255.159 205.657 253.659C207.157 252.159 208 250.124 208 248.002V192.002H231.568L224.416 213.474C224.016 214.676 223.906 215.956 224.098 217.209C224.289 218.461 224.774 219.65 225.515 220.678C226.255 221.706 227.23 222.544 228.357 223.122C229.484 223.699 230.733 224.001 232 224.002C232.86 224.002 233.714 223.862 234.528 223.586L282.528 207.586C283.706 207.195 284.777 206.535 285.656 205.658L299.312 192.002H304V432.002H272V312.002C272 309.88 271.157 307.846 269.657 306.345C268.157 304.845 266.122 304.002 264 304.002ZM251.496 182.81L265.192 196.506L244.648 203.354L251.496 182.81ZM320 320.002H432V432.002H320V320.002ZM432 224.002H400V192.002H432V224.002ZM392 240.002H432V304.002H320V192.002H384V232.002C384 234.124 384.843 236.159 386.343 237.659C387.843 239.159 389.878 240.002 392 240.002ZM280 188.69L259.312 168.002L352 75.3142L372.688 96.0022L280 188.69ZM363.312 64.0022L376 51.3142L396.688 72.0022L384 84.6902L363.312 64.0022ZM407.032 20.2822C409.795 17.6354 413.485 16.1762 417.311 16.2173C421.137 16.2584 424.795 17.7965 427.5 20.502C430.206 23.2076 431.744 26.8653 431.785 30.6913C431.826 34.5173 430.367 38.2072 427.72 40.9702L408 60.6902L387.312 40.0022L407.032 20.2822ZM16 136.002C16 129.637 18.5286 123.533 23.0294 119.032C27.5303 114.531 33.6348 112.002 40 112.002H64V416.002H40C31.3427 415.987 22.9165 418.795 16 424.002V136.002ZM480 480.002H40C33.6348 480.002 27.5303 477.474 23.0294 472.973C18.5286 468.472 16 462.367 16 456.002C16 449.637 18.5286 443.533 23.0294 439.032C27.5303 434.531 33.6348 432.002 40 432.002H72C74.1217 432.002 76.1566 431.159 77.6569 429.659C79.1571 428.159 80 426.124 80 424.002V144.002H260.688L242.344 162.346C241.467 163.225 240.807 164.296 240.416 165.474L236.904 176.002H120C117.878 176.002 115.843 176.845 114.343 178.345C112.843 179.846 112 181.88 112 184.002V440.002C112 442.124 112.843 444.159 114.343 445.659C115.843 447.159 117.878 448.002 120 448.002H440C442.122 448.002 444.157 447.159 445.657 445.659C447.157 444.159 448 442.124 448 440.002V184.002C448 181.88 447.157 179.846 445.657 178.345C444.157 176.845 442.122 176.002 440 176.002H315.312L347.312 144.002H480V480.002Z" fill="black"/>
</svg>
