<svg width="552" height="659" viewBox="0 0 552 659" fill="none" xmlns="http://www.w3.org/2000/svg">
<path d="M520.153 201.692H498.923C481.365 201.692 467.076 215.98 467.076 233.538V235.353C460.872 237.557 455.501 241.626 451.7 247.002C447.899 252.379 445.854 258.799 445.846 265.384V277.814C445.846 286.317 449.158 294.321 455.177 300.34L466.546 311.709L455.102 408.978C439.635 384.016 419.381 362.362 395.507 345.264C371.633 328.165 344.611 315.961 315.999 309.353L311.254 295.107C318.858 293.028 325.905 289.282 331.882 284.141C337.858 279 342.615 272.593 345.807 265.384H350.308C373.725 265.384 392.769 246.34 392.769 222.922V169.846C404.478 169.846 414 160.324 414 148.615V127.384C414 115.675 404.478 106.154 392.769 106.154H390.922C380.774 45.0091 328.472 0 265.385 0C202.298 0 149.996 45.0091 139.848 106.154H138.001C126.292 106.154 116.77 115.675 116.77 127.384V148.615C116.77 160.324 126.292 169.846 138.001 169.846V222.922C138.001 246.34 157.044 265.384 180.462 265.384H184.963C188.156 272.592 192.913 278.999 198.889 284.14C204.866 289.281 211.912 293.027 219.516 295.107L214.76 309.363C190.725 314.913 167.958 324.962 147.661 338.98L126.748 274.046C126.685 273.696 126.695 273.345 126.621 272.995C121.292 250.628 89.6476 238.93 54.4046 246.404C32.5264 251.042 14.2468 262.072 5.49972 275.882C0.499885 283.78 -1.13488 292.188 0.775882 300.213C1.86926 304.82 4.13033 308.949 7.26186 312.569L79.9983 421.514C69.271 445.912 63.719 472.269 63.6931 498.922C63.6931 544.185 89.637 583.43 127.385 602.803V615.69C127.385 639.108 146.429 658.152 169.847 658.152H403.384V519.165C411.048 529.379 420.989 537.665 432.415 543.364C443.842 549.064 456.441 552.02 469.21 551.998C514.856 551.998 551.999 514.855 551.999 469.22V233.538C551.999 215.98 537.711 201.692 520.153 201.692ZM467.076 265.384C467.076 259.535 471.832 254.768 477.692 254.768H488.307V233.538C488.307 227.689 493.063 222.922 498.923 222.922H520.153C526.013 222.922 530.769 227.689 530.769 233.538V297.23H482.087L470.187 285.33C469.198 284.345 468.414 283.173 467.88 281.883C467.346 280.593 467.073 279.21 467.076 277.814V265.384ZM297.231 615.69V636.921H270.098C273.919 630.495 275.956 623.166 276 615.69H297.231ZM307.846 594.46H244.154V545.778L256.054 533.878C258.051 531.897 260.746 530.78 263.559 530.768H276C281.86 530.768 286.615 535.534 286.615 541.383V551.998H307.846C313.706 551.998 318.462 556.765 318.462 562.614V583.844C318.462 589.693 313.706 594.46 307.846 594.46ZM289.577 297.23L295.946 316.337L265.385 354.542L234.813 316.327L241.182 297.219L289.577 297.23ZM234.919 350.445C234.452 350.434 234.006 350.307 233.539 350.307H169.847C169.74 350.307 169.645 350.338 169.539 350.338C184.858 341.19 201.497 334.459 218.868 330.382L234.919 350.445ZM169.847 371.537H196.778C193.033 377.985 191.066 385.311 191.077 392.768V403.383H212.308V392.768C212.308 381.059 221.83 371.537 233.539 371.537C245.247 371.537 254.769 381.059 254.769 392.768C254.769 404.477 245.247 413.999 233.539 413.999H169.847C158.138 413.999 148.616 404.477 148.616 392.768C148.616 381.059 158.138 371.537 169.847 371.537ZM148.616 429.327C155.042 433.148 162.371 435.185 169.847 435.229H233.539C241.309 435.229 248.496 432.979 254.769 429.327V510.917C249.591 512.354 244.867 515.091 241.044 518.868L229.144 530.768H191.077C176.216 530.768 161.683 527.222 148.616 520.736V429.327ZM297.231 517.764C291.419 512.484 283.852 509.552 276 509.537V392.768C276 387.758 274.97 383.013 273.367 378.543L297.231 348.725V517.764ZM350.308 244.153V201.692C362.016 201.692 371.538 211.214 371.538 222.922C371.538 234.631 362.016 244.153 350.308 244.153ZM371.538 186.363C365.112 182.542 357.783 180.505 350.308 180.461V169.846H371.538V186.363ZM369.373 106.154H297.231V26.0925C315.356 31.6941 331.63 42.0921 344.33 56.1857C357.03 70.2794 365.682 87.5445 369.373 106.154ZM276 21.7615V106.154H254.769V21.7615C258.262 21.4218 261.797 21.2307 265.385 21.2307C268.973 21.2307 272.508 21.4218 276 21.7615ZM233.539 26.0925V106.154H161.397C165.087 87.5445 173.74 70.2794 186.44 56.1857C199.139 42.0921 215.413 31.6941 233.539 26.0925ZM137.99 127.384H392.769V148.615H138.001L137.99 127.384ZM180.462 169.846V180.461C172.691 180.461 165.505 182.711 159.231 186.363V169.846H180.462ZM159.231 222.922C159.231 211.214 168.753 201.692 180.462 201.692V244.153C168.753 244.153 159.231 234.631 159.231 222.922ZM201.693 244.153V169.846H329.077V244.153C329.077 261.711 314.789 275.999 297.231 275.999H233.539C215.981 275.999 201.693 261.711 201.693 244.153ZM23.429 287.251C29.0127 278.441 42.8976 270.564 58.8206 267.178C64.3708 265.977 70.0311 265.358 75.7096 265.331C90.7304 265.331 101.431 270.086 104.912 275.521L105.953 278.749C106.208 280.925 105.645 283.324 103.957 285.988C98.3734 294.799 84.4885 302.676 68.5655 306.062C46.6554 310.701 30.1061 305.871 23.9598 299.385L21.8792 296.264C21.7518 295.945 21.4971 295.648 21.4121 295.33C20.8601 292.952 21.5395 290.245 23.429 287.251ZM52.0693 329.065C58.7569 329.065 65.7949 328.343 72.9815 326.815C90.0404 323.195 104.849 315.669 114.721 305.988L134.922 368.714C130.014 375.775 127.384 384.169 127.385 392.768V454.273L43.4814 328.609C46.2733 328.885 49.1288 329.065 52.0693 329.065ZM84.9238 498.922C84.9238 479.612 88.0553 460.823 94.2228 442.851L127.385 492.52V506.225C122.7 502.097 118.433 497.518 114.647 492.552L97.6622 505.291C108.568 519.761 122.678 531.509 138.886 539.613C155.093 547.716 172.957 551.956 191.077 551.998H222.923V594.46H180.462C127.778 594.46 84.9238 551.595 84.9238 498.922ZM201.693 636.921H169.847C158.138 636.921 148.616 627.399 148.616 615.69V611.168C158.754 614.045 169.411 615.69 180.462 615.69H254.769C254.769 627.399 245.247 636.921 233.539 636.921H201.693ZM469.21 530.768C457.772 530.806 446.552 527.639 436.821 521.625C427.091 515.612 419.24 506.993 414.159 496.745L403.384 475.186V435.229H382.154V636.921H318.462V613.737C324.653 611.555 330.017 607.51 333.818 602.158C337.619 596.806 339.671 590.409 339.692 583.844V562.614C339.671 556.049 337.619 549.652 333.818 544.3C330.017 538.948 324.653 534.903 318.462 532.721V331.878C347.049 339.595 373.582 353.524 396.17 372.671C418.757 391.818 436.842 415.712 449.137 442.65L450.739 446.163L445.931 487.075L467.013 489.548L487.129 318.461H530.769V469.22C530.749 485.539 524.257 501.184 512.716 512.723C501.176 524.261 485.529 530.751 469.21 530.768Z" fill="black"/>
</svg>
