<svg width="695" height="761" viewBox="0 0 695 761" fill="none" xmlns="http://www.w3.org/2000/svg">
<path d="M359.869 472.751C358.986 472.751 358.089 472.638 357.195 472.404C307.196 459.272 267.194 441.948 238.302 420.91C236.078 419.29 234.579 416.863 234.127 414.149C233.675 411.436 234.307 408.653 235.886 406.4C253.471 381.311 253.778 338.648 254.099 293.482C254.206 278.341 254.32 262.683 255.121 247.478C255.427 241.687 260.393 237.208 266.155 237.549C268.935 237.695 271.543 238.94 273.405 241.01C275.267 243.079 276.231 245.803 276.084 248.583C275.309 263.311 275.198 278.724 275.093 293.632C274.78 337.569 274.482 379.297 258.591 409.4C284.548 426.314 320.225 440.993 362.527 452.102C364.994 452.751 367.139 454.275 368.564 456.39C369.989 458.504 370.595 461.066 370.27 463.595C369.944 466.124 368.709 468.448 366.795 470.133C364.881 471.818 362.419 472.749 359.869 472.751ZM500.855 472.751C498.302 472.753 495.836 471.824 493.918 470.138C492.001 468.453 490.763 466.127 490.437 463.595C490.112 461.063 490.719 458.499 492.148 456.382C493.576 454.266 495.726 452.743 498.196 452.098C540.494 440.989 576.177 426.31 602.149 409.395C586.256 379.297 585.95 337.567 585.629 293.634C585.519 278.656 585.406 263.167 584.615 248.375C584.467 245.595 585.429 242.87 587.29 240.8C589.151 238.729 591.758 237.483 594.538 237.334C600.331 236.996 605.271 241.469 605.579 247.257C606.393 262.531 606.509 278.266 606.62 293.482C606.95 338.648 607.261 381.309 624.855 406.398C626.435 408.651 627.067 411.435 626.615 414.149C626.163 416.864 624.663 419.292 622.438 420.912C593.527 441.95 553.519 459.275 503.526 472.404C502.654 472.634 501.756 472.751 500.855 472.751ZM219.44 554.089C217.383 554.089 215.371 553.485 213.654 552.351C211.938 551.217 210.592 549.603 209.785 547.711C208.978 545.819 208.745 543.731 209.114 541.707C209.483 539.684 210.439 537.813 211.863 536.328C237.559 509.531 271.888 492.23 308.531 487.614C314.27 486.877 319.531 490.962 320.257 496.716C320.429 498.084 320.33 499.472 319.966 500.802C319.602 502.132 318.979 503.376 318.134 504.465C317.288 505.554 316.237 506.466 315.039 507.148C313.841 507.831 312.52 508.271 311.153 508.443C279.272 512.459 249.39 527.524 227.017 550.859C226.038 551.882 224.862 552.695 223.56 553.25C222.257 553.806 220.856 554.091 219.44 554.089ZM636.594 760.32H224.131C192.476 760.32 166.72 734.567 166.72 702.909V648.647C166.72 637.216 167.922 625.776 170.291 614.648C172.323 605.113 175.217 595.783 178.935 586.771C180.015 584.222 182.059 582.203 184.621 581.153C187.182 580.104 190.055 580.109 192.613 581.168C195.171 582.226 197.208 584.252 198.279 586.805C199.35 589.358 199.369 592.231 198.333 594.798C195.102 602.632 192.588 610.742 190.822 619.03C188.755 628.767 187.713 638.693 187.714 648.647V702.909C187.714 722.99 204.05 739.327 224.131 739.327H636.594C656.686 739.327 673.033 722.99 673.033 702.909V648.647C673.033 577.587 619.955 517.312 549.571 508.441C548.198 508.275 546.871 507.84 545.666 507.159C544.462 506.479 543.404 505.568 542.553 504.477C541.702 503.387 541.075 502.139 540.708 500.806C540.341 499.472 540.241 498.079 540.414 496.707C540.587 495.335 541.029 494.01 541.715 492.81C542.402 491.609 543.319 490.556 544.414 489.711C545.508 488.865 546.759 488.245 548.095 487.885C549.43 487.524 550.824 487.432 552.195 487.612C633.051 497.802 694.025 567.032 694.025 648.645V702.907C694.027 734.567 668.262 760.32 636.594 760.32Z" fill="black"/>
<path d="M359.862 486.823C357.078 486.823 354.408 485.717 352.44 483.748C350.471 481.78 349.365 479.11 349.365 476.326V433.632C349.365 430.848 350.471 428.178 352.44 426.209C354.408 424.241 357.078 423.135 359.862 423.135C362.646 423.135 365.316 424.241 367.285 426.209C369.253 428.178 370.359 430.848 370.359 433.632V476.326C370.359 479.11 369.253 481.78 367.285 483.748C365.316 485.717 362.646 486.823 359.862 486.823ZM500.863 486.823C498.079 486.823 495.409 485.717 493.441 483.748C491.472 481.78 490.366 479.11 490.366 476.326V433.653C490.366 430.869 491.472 428.199 493.441 426.231C495.409 424.262 498.079 423.156 500.863 423.156C503.647 423.156 506.317 424.262 508.285 426.231C510.254 428.199 511.36 430.869 511.36 433.653V476.326C511.36 479.11 510.254 481.78 508.285 483.748C506.317 485.717 503.647 486.823 500.863 486.823Z" fill="black"/>
<path d="M430.363 465.144C353.584 465.144 291.119 402.679 291.119 325.899V254.992C291.119 252.208 292.225 249.538 294.193 247.57C296.162 245.601 298.832 244.495 301.616 244.495C304.4 244.495 307.07 245.601 309.038 247.57C311.007 249.538 312.113 252.208 312.113 254.992V325.899C312.113 391.104 365.16 444.15 430.363 444.15C495.566 444.15 548.613 391.102 548.613 325.899V254.521C548.613 251.737 549.719 249.067 551.688 247.098C553.656 245.13 556.326 244.024 559.11 244.024C561.894 244.024 564.564 245.13 566.533 247.098C568.501 249.067 569.607 251.737 569.607 254.521V325.899C569.607 402.679 507.142 465.144 430.363 465.144ZM594.907 218.296H265.819C263.035 218.296 260.365 217.19 258.397 215.221C256.428 213.253 255.322 210.583 255.322 207.799C255.322 152.495 280.622 101.628 324.737 68.2398C325.835 67.395 327.089 66.7759 328.428 66.4183C329.766 66.0606 331.162 65.9715 332.535 66.156C333.908 66.3405 335.231 66.795 336.428 67.4933C337.625 68.1916 338.671 69.1199 339.507 70.2246C340.343 71.3294 340.953 72.5887 341.3 73.9299C341.647 75.2712 341.725 76.668 341.529 78.0396C341.334 79.4112 340.869 80.7305 340.161 81.9216C339.454 83.1126 338.517 84.1518 337.406 84.9791C301.391 112.239 279.624 152.733 276.663 197.302H584.063C581.102 152.733 559.335 112.239 523.32 84.9791C522.209 84.1518 521.272 83.1126 520.565 81.9216C519.857 80.7305 519.392 79.4112 519.197 78.0396C519.001 76.668 519.079 75.2712 519.426 73.9299C519.773 72.5887 520.382 71.3294 521.219 70.2246C522.055 69.1199 523.101 68.1916 524.298 67.4933C525.494 66.795 526.818 66.3405 528.191 66.156C529.564 65.9715 530.96 66.0606 532.298 66.4183C533.637 66.7759 534.891 67.395 535.989 68.2398C580.104 101.628 605.404 152.498 605.404 207.799C605.404 210.583 604.298 213.253 602.329 215.221C600.361 217.19 597.691 218.296 594.907 218.296Z" fill="black"/>
<path d="M427.418 275.96H427.398C366.528 275.959 305.873 268.74 246.702 254.455C244.413 253.902 242.376 252.595 240.92 250.744C239.463 248.893 238.671 246.607 238.671 244.251V207.802C238.671 205.018 239.777 202.348 241.745 200.379C243.714 198.411 246.384 197.305 249.168 197.305H611.563C614.346 197.305 617.016 198.411 618.985 200.379C620.953 202.348 622.059 205.018 622.059 207.802V244.251C622.059 246.632 621.25 248.943 619.764 250.803C618.277 252.664 616.203 253.963 613.88 254.489C550.961 268.737 488.222 275.96 427.418 275.96ZM259.665 235.944C314.681 248.584 370.949 254.965 427.398 254.967H427.415C484.034 254.967 542.412 248.529 601.066 235.826V218.301H259.665V235.944Z" fill="black"/>
<path d="M473.507 218.296H387.219C385.163 218.296 383.153 217.693 381.438 216.561C379.722 215.43 378.377 213.819 377.568 211.93L314.822 65.3162C313.885 63.1265 313.72 60.6832 314.355 58.3875C314.99 56.0919 316.387 54.0804 318.316 52.6835C343.678 34.3226 373.322 22.3561 404.044 18.0781C406.79 17.7171 409.568 18.4561 411.771 20.1343C413.975 21.8125 415.426 24.2938 415.808 27.0373C416.19 29.7808 415.473 32.5641 413.812 34.7807C412.15 36.9972 409.68 38.4673 406.94 38.8705C382.339 42.2981 358.5 51.2739 337.506 64.9606L394.144 197.302H466.581L523.219 64.9606C502.228 51.2739 478.389 42.2959 453.786 38.8705C451.029 38.4864 448.537 37.0227 446.859 34.8015C445.181 32.5802 444.454 29.7834 444.838 27.0262C445.026 25.66 445.482 24.3444 446.179 23.1548C446.877 21.9651 447.802 20.9248 448.903 20.0935C450.003 19.2623 451.257 18.6563 452.591 18.3105C453.926 17.9646 455.317 17.8857 456.682 18.0781C487.402 22.3561 517.045 34.3226 542.409 52.6835C544.339 54.0804 545.735 56.0919 546.37 58.3875C547.005 60.6832 546.841 63.1265 545.903 65.3162L483.158 211.93C482.349 213.819 481.004 215.43 479.288 216.561C477.572 217.693 475.562 218.296 473.507 218.296Z" fill="black"/>
<path d="M455.232 165.85H405.5C402.716 165.85 400.046 164.745 398.078 162.776C396.109 160.807 395.003 158.138 395.003 155.354V10.4969C395.003 7.71293 396.109 5.043 398.078 3.07445C400.046 1.10591 402.716 0 405.5 0H455.232C458.016 0 460.686 1.10591 462.654 3.07445C464.623 5.043 465.729 7.71293 465.729 10.4969V155.356C465.728 158.139 464.622 160.809 462.653 162.777C460.685 164.745 458.015 165.85 455.232 165.85ZM415.997 144.859H444.735V20.9916H415.997V144.859ZM515.383 653.893C512.835 653.893 510.374 652.967 508.459 651.286L423.443 576.696C421.445 574.942 420.186 572.496 419.921 569.851C419.657 567.205 420.405 564.558 422.017 562.444L492.513 469.953C493.91 468.118 495.873 466.795 498.098 466.188C500.323 465.581 502.687 465.725 504.822 466.596L555.145 487.104C557.475 488.054 559.387 489.809 560.532 492.05C561.676 494.292 561.978 496.87 561.381 499.315L525.578 645.887C525.02 648.17 523.712 650.2 521.863 651.651C520.015 653.102 517.733 653.892 515.383 653.893ZM444.653 567.379L509.293 624.09L538.84 503.128L504.342 489.068L444.653 567.379Z" fill="black"/>
<path d="M345.349 653.893C342.999 653.892 340.716 653.103 338.867 651.652C337.019 650.2 335.71 648.171 335.152 645.887L299.349 499.315C298.752 496.87 299.053 494.292 300.198 492.051C301.343 489.809 303.255 488.054 305.585 487.104L355.908 466.597C358.044 465.727 360.406 465.585 362.631 466.191C364.855 466.798 366.819 468.12 368.217 469.953L438.713 562.444C440.325 564.558 441.075 567.205 440.81 569.851C440.545 572.497 439.286 574.943 437.287 576.696L352.27 651.286C350.357 652.967 347.896 653.893 345.349 653.893ZM321.89 503.128L351.437 624.09L416.076 567.379L356.39 489.071L321.89 503.128Z" fill="black"/>
<path d="M430.365 700.435C427.581 700.435 424.911 699.329 422.943 697.36C420.974 695.392 419.868 692.722 419.868 689.938V568.808C419.868 566.024 420.974 563.354 422.943 561.386C424.911 559.417 427.581 558.311 430.365 558.311C433.149 558.311 435.819 559.417 437.788 561.386C439.756 563.354 440.862 566.024 440.862 568.808V689.938C440.862 692.722 439.756 695.392 437.788 697.36C435.819 699.329 433.149 700.435 430.365 700.435ZM237.679 604.24C235.437 604.241 233.254 603.525 231.449 602.195C229.644 600.866 228.312 598.994 227.648 596.853C226.983 594.712 227.022 592.415 227.757 590.297C228.492 588.18 229.886 586.353 231.734 585.085C251.871 571.279 267.849 552.23 277.942 530C279.093 527.465 281.203 525.49 283.809 524.511C286.415 523.532 289.304 523.629 291.839 524.779C294.374 525.93 296.348 528.04 297.327 530.646C298.306 533.252 298.21 536.141 297.059 538.676C285.385 564.392 266.902 586.427 243.609 602.398C241.864 603.599 239.797 604.241 237.679 604.24ZM75.9459 604.345C73.8335 604.347 71.7704 603.708 70.0291 602.512C46.6598 586.536 28.1227 564.453 16.4372 538.669C15.8597 537.412 15.5364 536.054 15.4857 534.671C15.4351 533.289 15.6582 531.91 16.1421 530.614C16.6261 529.319 17.3614 528.131 18.3057 527.12C19.2501 526.11 20.385 525.296 21.645 524.725C22.9051 524.154 24.2655 523.838 25.6481 523.795C27.0307 523.752 28.4081 523.983 29.7013 524.474C30.9945 524.965 32.1779 525.706 33.1835 526.656C34.1891 527.606 34.997 528.745 35.5608 530.008C45.6631 552.292 61.6858 571.377 81.8842 585.185C83.7368 586.451 85.1349 588.277 85.8735 590.396C86.6121 592.515 86.6522 594.814 85.988 596.957C85.3238 599.101 83.9901 600.975 82.1828 602.304C80.3755 603.634 78.1897 604.349 75.9459 604.345ZM156.738 629.324C142.215 629.324 127.82 627.289 113.951 623.276C111.277 622.502 109.019 620.698 107.676 618.26C106.332 615.821 106.011 612.949 106.785 610.275C107.559 607.601 109.364 605.343 111.802 604C114.24 602.656 117.112 602.335 119.786 603.109C143.856 610.076 170.094 610.02 193.817 603.058C196.489 602.274 199.362 602.583 201.806 603.918C204.249 605.252 206.062 607.503 206.846 610.174C207.63 612.846 207.321 615.719 205.986 618.163C204.652 620.606 202.401 622.419 199.73 623.203C185.887 627.265 171.42 629.324 156.738 629.324Z" fill="black"/>
<path d="M47.2699 760.32C44.9581 760.32 42.7109 759.556 40.8772 758.148C39.0436 756.74 37.7259 754.766 37.1287 752.533L25.2394 708.018C24.6845 705.939 24.781 703.74 25.5157 701.717L97.5157 503.948C97.9873 502.653 98.7095 501.463 99.6409 500.447C100.572 499.43 101.695 498.608 102.944 498.025C104.194 497.443 105.546 497.112 106.923 497.052C108.3 496.992 109.676 497.204 110.971 497.676C112.266 498.147 113.456 498.869 114.472 499.801C115.489 500.732 116.311 501.855 116.894 503.104C117.476 504.354 117.807 505.705 117.867 507.083C117.927 508.46 117.715 509.835 117.243 511.131L46.3724 705.794L52.8354 729.993L68.705 714.836L136.052 529.826C136.524 528.531 137.246 527.341 138.177 526.325C139.109 525.308 140.231 524.485 141.481 523.903C142.73 523.321 144.082 522.99 145.459 522.93C146.836 522.87 148.212 523.082 149.507 523.554C150.803 524.025 151.992 524.747 153.009 525.679C154.025 526.61 154.848 527.733 155.43 528.982C156.013 530.232 156.343 531.583 156.403 532.961C156.463 534.338 156.251 535.713 155.78 537.009L87.5929 724.324C87.041 725.841 86.1466 727.209 84.9794 728.324L54.5171 757.415C52.5654 759.28 49.9695 760.321 47.2699 760.32ZM138.678 429.883C135.894 429.883 133.225 428.777 131.256 426.808C129.287 424.84 128.182 422.17 128.182 419.386V381.554C128.182 378.771 129.287 376.101 131.256 374.132C133.225 372.164 135.894 371.058 138.678 371.058C141.462 371.058 144.132 372.164 146.101 374.132C148.069 376.101 149.175 378.771 149.175 381.554V419.386C149.175 422.17 148.069 424.84 146.101 426.808C144.132 428.777 141.462 429.883 138.678 429.883ZM174.989 429.883C172.205 429.883 169.535 428.777 167.567 426.808C165.598 424.84 164.492 422.17 164.492 419.386V381.554C164.492 378.771 165.598 376.101 167.567 374.132C169.535 372.164 172.205 371.058 174.989 371.058C177.773 371.058 180.443 372.164 182.411 374.132C184.38 376.101 185.486 378.771 185.486 381.554V419.386C185.486 422.17 184.38 424.84 182.411 426.808C180.443 428.777 177.773 429.883 174.989 429.883Z" fill="black"/>
<path d="M186.002 392.041H127.682C124.898 392.041 122.228 390.935 120.26 388.967C118.291 386.998 117.185 384.328 117.185 381.544V319.846C117.185 317.063 118.291 314.393 120.26 312.424C122.228 310.456 124.898 309.35 127.682 309.35H186.002C188.786 309.35 191.456 310.456 193.424 312.424C195.393 314.393 196.499 317.063 196.499 319.846V381.544C196.499 384.328 195.393 386.998 193.424 388.967C191.456 390.935 188.786 392.041 186.002 392.041ZM138.179 371.048H175.505V330.343H138.179V371.048ZM266.419 760.321C263.72 760.321 261.124 759.281 259.172 757.418L228.688 728.327C227.519 727.211 226.623 725.841 226.07 724.323L157.905 537.007C156.976 534.397 157.118 531.525 158.298 529.019C159.478 526.512 161.602 524.573 164.205 523.626C166.809 522.679 169.682 522.799 172.197 523.961C174.712 525.123 176.666 527.232 177.632 529.829L244.958 714.837L260.843 729.995L267.293 705.797L196.443 511.132C195.96 509.834 195.739 508.453 195.792 507.069C195.845 505.685 196.171 504.325 196.752 503.068C197.332 501.811 198.156 500.681 199.176 499.744C200.195 498.806 201.39 498.08 202.691 497.606C203.993 497.133 205.375 496.921 206.759 496.984C208.142 497.047 209.499 497.383 210.752 497.973C212.005 498.563 213.129 499.395 214.059 500.422C214.989 501.448 215.707 502.648 216.171 503.953L288.149 701.722C288.884 703.743 288.983 705.938 288.428 708.016L276.558 752.532C275.961 754.765 274.644 756.74 272.811 758.148C270.978 759.556 268.731 760.32 266.419 760.321Z" fill="black"/>
<path d="M156.842 544.931C118.544 544.931 87.3874 513.774 87.3874 475.476C87.3874 437.177 118.544 406.021 156.842 406.021C195.141 406.021 226.297 437.177 226.297 475.476C226.297 513.774 195.141 544.931 156.842 544.931ZM156.842 427.012C130.12 427.012 108.379 448.752 108.379 475.476C108.379 502.2 130.118 523.939 156.842 523.939C183.567 523.939 205.306 502.2 205.306 475.476C205.306 448.752 183.564 427.012 156.842 427.012ZM156.746 646.798C155.368 646.798 154.003 646.526 152.729 645.999C151.455 645.471 150.298 644.698 149.324 643.723C148.349 642.748 147.576 641.591 147.048 640.318C146.521 639.044 146.249 637.679 146.249 636.301V601.507C146.249 598.723 147.355 596.053 149.324 594.084C151.292 592.116 153.962 591.01 156.746 591.01C159.53 591.01 162.2 592.116 164.168 594.084C166.137 596.053 167.243 598.723 167.243 601.507V636.301C167.243 639.085 166.137 641.755 164.168 643.723C162.2 645.692 159.53 646.798 156.746 646.798ZM303.188 760.324H10.4968C7.71284 760.324 5.04291 759.219 3.07436 757.25C1.10582 755.281 -9.15527e-05 752.611 -9.15527e-05 749.828C-9.15527e-05 747.044 1.10582 744.374 3.07436 742.405C5.04291 740.437 7.71284 739.331 10.4968 739.331H303.188C305.972 739.331 308.642 740.437 310.61 742.405C312.579 744.374 313.685 747.044 313.685 749.828C313.685 752.611 312.579 755.281 310.61 757.25C308.642 759.219 305.972 760.324 303.188 760.324ZM630.857 700.434C628.073 700.434 625.403 699.329 623.435 697.36C621.466 695.391 620.36 692.722 620.36 689.938V649.315C620.36 646.531 621.466 643.861 623.435 641.892C625.403 639.924 628.073 638.818 630.857 638.818C633.641 638.818 636.311 639.924 638.28 641.892C640.248 643.861 641.354 646.531 641.354 649.315V689.938C641.354 692.722 640.248 695.391 638.28 697.36C636.311 699.329 633.641 700.434 630.857 700.434ZM170.499 212.092H106.869C104.085 212.092 101.415 210.986 99.4463 209.018C97.4778 207.049 96.3719 204.379 96.3719 201.595C96.3719 198.812 97.4778 196.142 99.4463 194.173C101.415 192.205 104.085 191.099 106.869 191.099H170.499C173.283 191.099 175.953 192.205 177.921 194.173C179.89 196.142 180.996 198.812 180.996 201.595C180.996 204.379 179.89 207.049 177.921 209.018C175.953 210.986 173.283 212.092 170.499 212.092ZM656.097 465.155H638.998C636.214 465.155 633.544 464.049 631.575 462.08C629.607 460.112 628.501 457.442 628.501 454.658C628.501 451.874 629.607 449.204 631.575 447.235C633.544 445.267 636.214 444.161 638.998 444.161H656.097C658.881 444.161 661.551 445.267 663.519 447.235C665.488 449.204 666.594 451.874 666.594 454.658C666.594 457.442 665.488 460.112 663.519 462.08C661.551 464.049 658.881 465.155 656.097 465.155Z" fill="black"/>
</svg>
