<svg width="513" height="512" viewBox="0 0 513 512" fill="none" xmlns="http://www.w3.org/2000/svg">
<path d="M416.016 464H392.016C389.894 464 387.859 463.157 386.359 461.657C384.858 460.157 384.016 458.122 384.016 456V352H336.016V360C336.003 370.605 331.785 380.772 324.286 388.27C316.787 395.769 306.62 399.987 296.016 400H264.016C253.411 399.987 243.244 395.769 235.745 388.27C228.247 380.772 224.028 370.605 224.016 360V296C224.028 285.395 228.247 275.228 235.745 267.73C243.244 260.231 253.411 256.013 264.016 256H472.016C482.62 256.013 492.787 260.231 500.286 267.73C507.785 275.228 512.003 285.395 512.016 296V312H496.016V296C496.016 289.635 493.487 283.53 488.986 279.029C484.485 274.529 478.381 272 472.016 272H264.016C257.65 272 251.546 274.529 247.045 279.029C242.544 283.53 240.016 289.635 240.016 296V360C240.016 366.365 242.544 372.47 247.045 376.971C251.546 381.471 257.65 384 264.016 384H296.016C302.381 384 308.485 381.471 312.986 376.971C317.487 372.47 320.016 366.365 320.016 360V344C320.016 341.878 320.858 339.843 322.359 338.343C323.859 336.843 325.894 336 328.016 336H392.016C394.137 336 396.172 336.843 397.672 338.343C399.173 339.843 400.016 341.878 400.016 344V448H416.016V464Z" fill="black"/>
<path d="M496.016 328H512.016V344H496.016V328ZM504.016 464H432.016V448H496.016V360H512.016V456C512.016 458.122 511.173 460.157 509.672 461.657C508.172 463.157 506.137 464 504.016 464Z" fill="black"/>
<path d="M504.016 512H184.016C181.894 512 179.859 511.157 178.359 509.657C176.858 508.157 176.016 506.122 176.016 504V488C176.028 477.395 180.247 467.228 187.745 459.73C195.244 452.231 205.411 448.013 216.016 448H416.016V464H216.016C209.65 464 203.546 466.529 199.045 471.029C194.544 475.53 192.016 481.635 192.016 488V496H496.016V464H432.016V448H504.016C506.137 448 508.172 448.843 509.672 450.343C511.173 451.843 512.016 453.878 512.016 456V504C512.016 506.122 511.173 508.157 509.672 509.657C508.172 511.157 506.137 512 504.016 512ZM272.016 392H288.016V440H272.016V392ZM448.016 352C441.687 352 435.5 350.123 430.237 346.607C424.975 343.091 420.873 338.093 418.451 332.246C416.029 326.399 415.396 319.965 416.63 313.757C417.865 307.55 420.913 301.848 425.388 297.373C429.863 292.897 435.565 289.85 441.773 288.615C447.98 287.38 454.414 288.014 460.262 290.436C466.109 292.858 471.106 296.959 474.623 302.222C478.139 307.484 480.016 313.671 480.016 320C480.016 328.487 476.644 336.626 470.643 342.627C464.642 348.629 456.503 352 448.016 352ZM448.016 304C444.851 304 441.758 304.938 439.126 306.696C436.495 308.455 434.445 310.953 433.234 313.877C432.023 316.801 431.706 320.018 432.323 323.121C432.94 326.225 434.464 329.076 436.702 331.314C438.94 333.551 441.79 335.075 444.894 335.693C447.998 336.31 451.215 335.993 454.139 334.782C457.062 333.571 459.561 331.52 461.319 328.889C463.077 326.258 464.016 323.165 464.016 320C464.016 315.757 462.33 311.687 459.329 308.686C456.329 305.686 452.259 304 448.016 304ZM448.016 432C441.687 432 435.5 430.123 430.237 426.607C424.975 423.091 420.873 418.093 418.451 412.246C416.029 406.399 415.396 399.965 416.63 393.757C417.865 387.55 420.913 381.848 425.388 377.373C429.863 372.897 435.565 369.85 441.773 368.615C447.98 367.38 454.414 368.014 460.262 370.436C466.109 372.858 471.106 376.959 474.623 382.222C478.139 387.484 480.016 393.671 480.016 400C480.016 408.487 476.644 416.626 470.643 422.627C464.642 428.629 456.503 432 448.016 432ZM448.016 384C444.851 384 441.758 384.938 439.126 386.696C436.495 388.455 434.445 390.953 433.234 393.877C432.023 396.801 431.706 400.018 432.323 403.121C432.94 406.225 434.464 409.076 436.702 411.314C438.94 413.551 441.79 415.075 444.894 415.693C447.998 416.31 451.215 415.993 454.139 414.782C457.062 413.571 459.561 411.52 461.319 408.889C463.077 406.258 464.016 403.165 464.016 400C464.016 395.757 462.33 391.687 459.329 388.686C456.329 385.686 452.259 384 448.016 384ZM464.016 264H448.016V224H416.016V264H400.016V216C400.016 213.878 400.858 211.843 402.359 210.343C403.859 208.843 405.894 208 408.016 208H456.016C458.137 208 460.172 208.843 461.672 210.343C463.173 211.843 464.016 213.878 464.016 216V264Z" fill="black"/>
<path d="M392.016 208H472.016V224H392.016V208ZM368.016 264H352.016V224H320.016V264H304.016V216C304.016 213.878 304.858 211.843 306.359 210.343C307.859 208.843 309.894 208 312.016 208H360.016C362.137 208 364.172 208.843 365.672 210.343C367.173 211.843 368.016 213.878 368.016 216V264Z" fill="black"/>
<path d="M296.016 208H376.016V224H296.016V208ZM168.016 56H136.016C133.894 56 131.859 55.1571 130.359 53.6569C128.858 52.1566 128.016 50.1217 128.016 48V8C128.016 5.87827 128.858 3.84344 130.359 2.34315C131.859 0.842855 133.894 0 136.016 0L168.016 0C170.137 0 172.172 0.842855 173.672 2.34315C175.173 3.84344 176.016 5.87827 176.016 8V48C176.016 50.1217 175.173 52.1566 173.672 53.6569C172.172 55.1571 170.137 56 168.016 56ZM144.016 40H160.016V16H144.016V40ZM224.016 200H240.016V240H224.016V200Z" fill="black"/>
<path d="M279.031 240.496L272.687 138.936C272.224 131.625 269.178 124.715 264.094 119.441C259.009 114.166 252.217 110.868 244.927 110.136C244.278 110.068 243.639 109.923 243.023 109.704L191.903 91.304C187.262 89.6275 183.249 86.5647 180.407 82.5307C177.565 78.4967 176.032 73.6865 176.015 68.752V64C176.015 61.8783 175.173 59.8434 173.672 58.3431C172.172 56.8429 170.137 56 168.015 56H136.015C133.894 56 131.859 56.8429 130.359 58.3431C128.858 59.8434 128.015 61.8783 128.015 64V68.752C128.005 73.692 126.475 78.5092 123.633 82.5496C120.791 86.5899 116.774 89.6576 112.127 91.336L61.0074 109.736C60.3922 109.955 59.753 110.1 59.1034 110.168C51.8139 110.9 45.0214 114.198 39.9371 119.473C34.8528 124.747 31.8072 131.657 31.3434 138.968L30.5434 152.568L14.5434 151.568L15.3914 137.968C16.0794 127.044 20.566 116.705 28.0742 108.741C35.5823 100.777 45.6393 95.6899 56.5034 94.36L106.735 76.304C108.287 75.7432 109.627 74.7165 110.572 73.3645C111.517 72.0126 112.021 70.4016 112.015 68.752V64C112.015 57.6348 114.544 51.5303 119.045 47.0294C123.546 42.5286 129.65 40 136.015 40H168.015C174.381 40 180.485 42.5286 184.986 47.0294C189.487 51.5303 192.015 57.6348 192.015 64V68.752C192.017 70.398 192.527 72.0034 193.475 73.3492C194.422 74.695 195.762 75.7156 197.311 76.272L247.543 94.328C258.408 95.6579 268.464 100.745 275.973 108.709C283.481 116.673 287.967 127.012 288.655 137.936L294.999 239.536L279.031 240.496ZM72.0154 392H8.01539C6.92174 392.002 5.83928 391.78 4.83487 391.347C3.83045 390.915 2.92542 390.281 2.17569 389.484C1.42595 388.688 0.847433 387.747 0.475868 386.718C0.104303 385.689 -0.052416 384.596 0.0153923 383.504L13.5114 167.504L29.5114 168.504L16.5274 376H64.0154V232H80.0154V384C80.0154 386.122 79.1725 388.157 77.6722 389.657C76.172 391.157 74.1371 392 72.0154 392Z" fill="black"/>
<path d="M64.0156 200H80.0156V216H64.0156V200ZM152.016 128C150.613 128.005 149.233 127.641 148.016 126.944L92.0156 94.944L99.9516 81.056L151.664 110.6L195.544 81.344L204.424 94.656L156.424 126.656C155.116 127.523 153.584 127.99 152.016 128Z" fill="black"/>
<path d="M120.015 160C117.894 160 115.859 159.156 114.359 157.656L58.3594 101.656L69.6714 90.344L120.015 140.688L146.359 114.344C147.86 112.844 149.894 112.002 152.015 112.002C154.137 112.002 156.171 112.844 157.671 114.344L183.559 140.232L225.959 90.8L238.103 101.2L190.103 157.2C189.386 158.038 188.504 158.718 187.511 159.199C186.519 159.679 185.437 159.949 184.335 159.992C183.232 160.058 182.127 159.883 181.098 159.48C180.069 159.076 179.14 158.454 178.375 157.656L152.015 131.312L125.671 157.656C124.171 159.156 122.137 160 120.015 160Z" fill="black"/>
<path d="M152.016 384H72.0156V368H144.016V120H160.016V376C160.016 378.122 159.173 380.157 157.672 381.657C156.172 383.157 154.137 384 152.016 384Z" fill="black"/>
<path d="M152.016 368H216.016V384H152.016V368ZM8.01562 344H72.0156V360H8.01562V344Z" fill="black"/>
<path d="M168.016 512H136.016C133.894 512 131.859 511.157 130.359 509.657C128.858 508.157 128.016 506.122 128.016 504V416H144.016V496H160.016V384H144.016V400H128.016V376C128.016 373.878 128.858 371.843 130.359 370.343C131.859 368.843 133.894 368 136.016 368H168.016C170.137 368 172.172 368.843 173.672 370.343C175.173 371.843 176.016 373.878 176.016 376V504C176.016 506.122 175.173 508.157 173.672 509.657C172.172 511.157 170.137 512 168.016 512Z" fill="black"/>
</svg>
