<svg width="512" height="450" viewBox="0 0 512 450" fill="none" xmlns="http://www.w3.org/2000/svg">
<path d="M82.5632 144.111C64.3482 144.111 49.5342 158.924 49.5342 177.14H66.0482C66.0482 168.032 73.4552 160.626 82.5622 160.626C91.6692 160.626 99.0762 168.033 99.0762 177.14H115.59C115.592 158.924 100.778 144.111 82.5632 144.111Z" fill="black"/>
<path d="M495.205 405.953L474.934 400.883L470.161 396.11C462.077 388.026 451.326 383.567 439.89 383.567C431.437 383.561 423.172 386.064 416.142 390.759L404.656 398.413L401.642 396.407C389.661 388.422 375.582 384.36 361.405 383.972C373.163 370.017 379.884 352.157 379.884 333.645V329.434C379.884 286.439 344.907 251.462 301.912 251.462C286.516 251.447 271.463 256.005 258.661 264.558L254.384 267.407L242.56 264.773C230.972 262.2 219.214 260.467 207.376 259.588C242.741 237.698 264.301 199.443 264.284 157.216C264.243 90.812 210.183 36.786 143.779 36.786H132.18C108.92 36.786 86.691 25.672 72.729 7.052L67.436 0L16.721 43.423C11.4735 47.9105 7.26128 53.4823 4.37462 59.7546C1.48795 66.0268 -0.0045309 72.8504 1.03323e-05 79.755C1.03323e-05 97.929 10.189 113.774 25.159 121.875C19.8 127.746 16.53 135.557 16.53 144.111V210.168C16.53 251.148 49.864 284.482 90.836 284.482H95.98C90.307 290.84 86.195 298.676 84.437 307.478L67.295 393.344L58.064 395.639C50.9085 397.415 44.5542 401.537 40.0161 407.347C35.4779 413.157 33.0176 420.321 33.028 427.693C33.028 439.79 42.871 449.624 54.967 449.624H93.561C104.948 449.624 115.723 443.605 121.685 433.911L160.089 371.504C167.925 374.369 175.967 376.929 184.307 378.812C198.344 381.983 212.381 383.543 225.783 383.543C235.774 383.543 245.328 382.577 254.328 380.843C250.142 387.812 247.772 395.854 247.772 404.202C247.772 429.246 268.142 449.624 293.186 449.624H489.83C502.051 449.624 512 439.682 512 427.454C512.006 422.509 510.355 417.704 507.311 413.807C504.266 409.91 500.004 407.145 495.205 405.953ZM341.342 380.653L307.612 373.907C311.385 364.965 320.113 358.796 330.344 358.796C338.882 358.796 346.66 363.172 351.16 370.191C348.31 374.052 345.015 377.564 341.342 380.653ZM359.705 308.725C358.202 309.006 356.683 309.253 355.114 309.253C341.457 309.253 330.343 298.139 330.343 284.482C330.343 281.485 330.921 278.595 331.945 275.862C344.84 283.133 354.692 294.796 359.705 308.725ZM316.62 269.826C314.845 274.475 313.829 279.396 313.829 284.491C313.829 307.256 332.35 325.777 355.115 325.777C357.848 325.777 360.523 325.455 363.141 324.943C363.248 326.429 363.372 327.924 363.372 329.443V333.654C363.365 340.811 362.104 347.912 359.648 354.635C352.043 346.931 341.623 342.299 330.343 342.299C312.119 342.299 296.662 354.016 291.212 370.637L285.341 369.465C281.997 368.796 279.371 366.088 278.81 362.735L271.156 316.792C286.077 313.621 297.315 300.36 297.315 284.507C297.312 278.955 295.907 273.493 293.228 268.629C296.102 268.213 299.002 268.001 301.906 267.993C306.984 267.968 311.897 268.653 316.62 269.826ZM276.597 273.484C279.302 276.509 280.798 280.425 280.8 284.483C280.8 292.146 275.524 298.553 268.431 300.403L265.054 280.132L267.82 278.282C270.619 276.423 273.567 274.854 276.597 273.484ZM16.514 79.755C16.5108 75.234 17.488 70.766 19.3783 66.6591C21.2685 62.5522 24.0268 58.904 27.463 55.966L65.124 23.714C82.216 42.367 106.682 53.283 132.172 53.283H143.773C201.078 53.283 247.73 99.903 247.763 157.216C247.788 196.883 225.758 232.546 190.277 250.282L184.836 253.007C178.482 256.193 171.9 258.901 165.143 261.107L165.193 210.16C183.383 210.135 198.172 195.272 198.172 176.397C198.172 167.768 194.811 159.66 188.709 153.558C182.615 147.464 174.507 144.104 165.886 144.104H165.142V135.847C165.142 122.19 154.028 111.076 140.371 111.076H47.842C30.568 111.082 16.514 97.029 16.514 79.755ZM35.473 226.682H81.622C79.013 238.011 71.135 247.597 60.426 251.808C58.155 252.7 55.769 253.393 53.416 254.136C45.034 246.987 38.709 237.499 35.473 226.682ZM71.68 264.64C88.236 255.755 99.077 237.928 99.077 218.433V210.176H33.037V144.119C33.037 135.011 40.444 127.605 49.551 127.605H140.371C144.921 127.605 148.628 131.304 148.628 135.862V160.633H165.877C170.088 160.633 174.052 162.268 177.032 165.249C180.013 168.23 181.656 172.193 181.656 177.032C181.656 186.206 174.241 193.67 165.125 193.67H148.693L148.627 265.408C139.78 267.126 130.788 267.988 121.775 267.984L90.844 267.976C84.115 267.968 77.683 266.754 71.68 264.64ZM107.615 425.258C104.634 430.105 99.251 433.111 93.553 433.111H54.968C53.5304 433.112 52.1512 432.542 51.1339 431.526C50.1166 430.51 49.5443 429.132 49.543 427.694C49.5359 424.008 50.7655 420.427 53.035 417.522C55.3046 414.618 58.4828 412.559 62.061 411.675L81.449 406.828L100.622 310.707C103.661 295.514 117.103 284.482 132.602 284.482C150.578 284.482 165.201 299.105 165.201 317.081V322.456C165.2 328.485 163.528 334.396 160.371 339.532L107.615 425.258ZM187.949 362.702C181.418 361.232 175.093 359.308 168.908 357.178L174.432 348.203C179.195 340.463 181.716 331.554 181.715 322.466V317.091C181.715 301.642 174.531 287.853 163.343 278.844C166.406 278.002 169.453 277.06 172.475 276.028C194.759 274.396 217.161 276.034 238.97 280.891L248.796 283.087L261.95 362.025C241.224 368.399 214.743 368.738 187.949 362.702ZM489.83 433.111H293.186C277.25 433.111 264.286 420.147 264.286 404.203C264.286 395.83 268.01 387.945 274.203 382.503C276.606 383.964 279.248 385.071 282.097 385.641L321.863 393.593C320.187 394.526 318.445 395.335 316.843 396.4L309.246 401.462L318.403 415.202L326 410.14C345.751 396.978 372.727 396.978 392.478 410.14L404.657 418.257L425.308 404.492C435.464 397.696 449.823 399.125 458.485 407.77L466.494 415.788L491.208 421.956C492.432 422.263 493.518 422.97 494.295 423.965C495.071 424.96 495.493 426.185 495.493 427.447C495.486 430.576 492.951 433.111 489.83 433.111Z" fill="black"/>
</svg>
