<svg width="639" height="617" viewBox="0 0 639 617" fill="none" xmlns="http://www.w3.org/2000/svg">
<path d="M113.006 102.768C115.098 104.86 117.842 105.908 120.583 105.908C123.323 105.908 126.067 104.86 128.159 102.768L140.269 90.6578L152.379 102.768C154.471 104.86 157.215 105.908 159.956 105.908C162.696 105.908 165.44 104.86 167.532 102.768C169.541 100.758 170.67 98.0326 170.67 95.1909C170.67 92.3492 169.541 89.6239 167.532 87.6143L155.422 75.5045L167.532 63.3947C168.556 62.4061 169.372 61.2236 169.934 59.9161C170.495 58.6087 170.791 57.2024 170.803 55.7795C170.816 54.3565 170.545 52.9454 170.006 51.6283C169.467 50.3113 168.671 49.1148 167.665 48.1086C166.659 47.1023 165.462 46.3066 164.145 45.7678C162.828 45.2289 161.417 44.9578 159.994 44.9701C158.571 44.9825 157.165 45.2781 155.857 45.8398C154.55 46.4014 153.367 47.2178 152.379 48.2414L140.269 60.3512L128.159 48.2414C127.171 47.2178 125.988 46.4014 124.681 45.8398C123.373 45.2781 121.967 44.9825 120.544 44.9701C119.121 44.9578 117.71 45.2289 116.393 45.7678C115.076 46.3066 113.879 47.1023 112.873 48.1086C111.867 49.1148 111.071 50.3113 110.532 51.6283C109.994 52.9454 109.722 54.3565 109.735 55.7795C109.747 57.2024 110.043 58.6087 110.604 59.9161C111.166 61.2236 111.983 62.4061 113.006 63.3947L125.116 75.5045L113.006 87.6143C112.01 88.6088 111.22 89.7899 110.681 91.0899C110.142 92.39 109.865 93.7835 109.865 95.1909C109.865 96.5983 110.142 97.9918 110.681 99.2919C111.22 100.592 112.01 101.773 113.006 102.768Z" fill="black"/>
<path d="M386.756 177.313C392.674 177.313 397.472 172.515 397.472 166.596C397.472 160.677 392.674 155.879 386.756 155.879C380.837 155.879 376.039 160.677 376.039 166.596C376.039 172.515 380.837 177.313 386.756 177.313Z" fill="black"/>
<path d="M600.516 453.807C601.35 451.783 601.541 449.551 601.063 447.415C600.584 445.278 599.46 443.341 597.842 441.866L524.077 374.239C523.671 373.867 523.238 373.528 522.78 373.223C514.57 367.764 507.838 360.357 503.185 351.664C498.533 342.971 496.103 333.262 496.114 323.402C496.118 310.361 494.015 297.406 489.888 285.036L483.123 264.742C515.761 243.836 537.499 204.812 537.499 165.669C537.499 107.649 490.301 60.4507 432.281 60.4507C419.373 60.4507 407.236 62.2939 396.222 65.9296C365.213 76.1532 344.587 106.787 344.889 142.154C345.005 155.387 338.872 159.842 333.508 162.243C331.499 163.141 329.816 164.638 328.688 166.529C327.764 168.059 327.236 169.794 327.151 171.579C326.494 185.707 329.835 199.384 335.67 212.029C320.453 217.331 293.267 229.227 277.956 250.357C275.839 242.939 273.072 236.158 269.509 230.59C259.99 215.697 247.982 212.694 239.379 212.852C237.884 212.876 236.389 213.173 234.889 213.326C229.214 206.309 221.356 201.305 212.389 199.512C193.153 195.646 174.034 206.792 167.837 225.361L165.74 231.654C157.825 229.369 150.447 229.556 143.787 232.552C132.055 237.816 123.985 250.499 119.12 271.332C114.369 291.659 122.755 307.635 142.013 316.117C141.868 318.542 141.721 320.969 141.721 323.407C141.721 343.474 131.752 362.097 115.055 373.229C114.6 373.531 114.166 373.872 113.759 374.244L39.9934 441.863C38.3755 443.338 37.251 445.276 36.7726 447.412C36.2942 449.548 36.4852 451.78 37.3196 453.804L3.65069 483.505C2.02062 484.947 0.867704 486.85 0.345092 488.962C-0.177521 491.075 -0.0450894 493.296 0.724801 495.331C1.49469 497.366 2.86559 499.119 4.65539 500.357C6.44518 501.594 8.56913 502.258 10.7451 502.259C13.2608 502.259 15.7899 501.375 17.8315 499.58L51.8701 469.555L108.282 525.967L73.0274 559.151C71.9861 560.112 71.1456 561.269 70.5545 562.557C69.9633 563.844 69.6333 565.236 69.5834 566.651C69.5336 568.067 69.7649 569.479 70.264 570.805C70.7632 572.13 71.5202 573.344 72.4913 574.375C73.4625 575.407 74.6284 576.235 75.9218 576.813C77.2152 577.391 78.6103 577.707 80.0264 577.742C81.4426 577.777 82.8517 577.531 84.1723 577.019C85.4928 576.506 86.6986 575.736 87.7199 574.755L123.444 541.131L123.741 541.429C125.834 543.521 128.577 544.569 131.318 544.569C134.059 544.569 136.802 543.521 138.894 541.429C155.65 524.679 221.048 501.523 245 493.962C288.758 479.374 309.345 452.374 318.923 432.743C328.514 452.379 349.141 479.393 393.004 494.013C416.787 501.523 482.185 524.676 498.941 541.426C501.033 543.518 503.777 544.566 506.517 544.566C509.258 544.566 512.002 543.518 514.094 541.426L514.389 541.131L550.115 574.755C552.1 576.632 554.73 577.675 557.462 577.67C559.61 577.672 561.709 577.029 563.487 575.823C565.264 574.617 566.639 572.905 567.431 570.908C568.223 568.911 568.396 566.723 567.929 564.626C567.461 562.53 566.374 560.622 564.808 559.151L529.55 525.97L585.965 469.555L620.004 499.58C622.045 501.375 624.572 502.259 627.09 502.259C629.267 502.261 631.393 501.599 633.185 500.362C634.977 499.125 636.349 497.371 637.12 495.335C637.89 493.298 638.022 491.075 637.497 488.962C636.973 486.849 635.818 484.946 634.185 483.505L600.516 453.807ZM366.323 141.961C366.098 115.955 380.812 93.5731 402.936 86.2804C411.785 83.3601 421.658 81.8786 432.281 81.8786C478.48 81.8786 516.066 119.464 516.066 165.664C516.066 195.898 500.27 226.033 476.109 243.689L469.998 225.353C463.804 206.77 444.677 195.641 425.441 199.504C420.031 200.588 414.913 202.81 410.427 206.021C405.941 209.233 402.188 213.361 399.418 218.132C394.114 227.276 392.913 238.154 395.788 248.278C372.289 233.406 350.197 206.24 348.592 178.325C360.225 170.61 366.462 157.942 366.323 141.961ZM251.454 242.132C264.697 262.839 264.113 313.103 256.258 329.435C255.627 330.706 255.256 332.089 255.164 333.505C255.073 334.92 255.264 336.34 255.725 337.681C256.186 339.022 256.909 340.259 257.852 341.318C258.795 342.378 259.938 343.24 261.217 343.855C262.495 344.469 263.883 344.824 265.299 344.898C266.716 344.972 268.133 344.764 269.469 344.286C270.804 343.808 272.031 343.07 273.08 342.114C274.128 341.159 274.976 340.004 275.574 338.718C278.452 332.733 280.616 323.919 281.91 313.773C300.49 328.313 333.618 332.28 363.59 332.28C369.701 332.28 375.673 332.122 381.355 331.863C382.761 331.798 384.141 331.457 385.415 330.859C386.689 330.261 387.833 329.418 388.781 328.378C389.73 327.338 390.464 326.122 390.942 324.798C391.42 323.475 391.633 322.07 391.568 320.664C391.295 314.751 386.231 310.25 380.369 310.451C337.168 312.439 305.42 307.04 293.313 295.654C289.886 292.431 288.257 288.862 288.19 284.431C287.735 255.172 326.409 237.162 346.684 230.891C352.575 239.088 359.353 246.61 366.893 253.32C355.084 257.109 346.808 261.342 346.275 261.62C345.025 262.269 343.916 263.157 343.01 264.234C342.104 265.311 341.42 266.556 340.995 267.898C340.571 269.24 340.416 270.652 340.538 272.054C340.66 273.456 341.057 274.821 341.707 276.069C342.355 277.318 343.243 278.428 344.32 279.333C345.397 280.239 346.642 280.924 347.984 281.348C349.326 281.772 350.738 281.928 352.14 281.806C353.542 281.684 354.907 281.287 356.155 280.637C356.321 280.557 371.909 272.61 389.913 269.776C391.383 270.475 392.929 270.885 394.475 270.885C395.888 270.885 397.287 270.605 398.591 270.063C399.895 269.52 401.08 268.725 402.076 267.724L417.658 314.461L416.104 316.404C404.771 330.569 400.024 347.873 400.04 364.942L394.829 368.071C371.555 382.044 346.049 391.903 319.429 397.218C319.242 397.255 319.105 397.379 318.923 397.427C318.741 397.381 318.601 397.255 318.417 397.218C291.796 391.905 266.29 382.045 243.017 368.071L237.806 364.942C237.822 347.873 233.075 330.569 221.742 316.398L220.188 314.461L241.683 249.98C243.312 245.093 243.824 239.989 243.47 234.96C245.833 235.785 248.603 237.674 251.454 242.132ZM139.99 276.2C144.18 258.258 149.665 253.395 152.563 252.099C154.278 251.33 156.451 251.316 158.983 251.919L147.947 285.034C146.995 287.912 146.151 290.826 145.418 293.768C138.436 288.798 138.527 282.475 139.99 276.2ZM238.388 473.574C230.015 476.215 162.34 497.949 132.049 519.422L62.7314 450.099L127.658 390.576C138.608 383.126 147.568 373.109 153.756 361.399C159.944 349.69 163.172 336.643 163.157 323.399C163.157 312.634 164.885 302.014 168.285 291.815L188.175 232.136C189.528 228.098 192.306 224.692 195.989 222.554C199.672 220.415 204.008 219.692 208.185 220.519C213.177 221.519 217.327 224.49 219.88 228.892C222.433 233.294 222.95 238.368 221.345 243.193L198.007 313.208C197.441 314.906 197.309 316.719 197.624 318.481C197.938 320.244 198.689 321.9 199.808 323.297L205.003 329.792C221.699 350.654 218.106 382.649 206.248 402.156C205.517 403.358 205.03 404.693 204.815 406.084C204.6 407.475 204.66 408.894 204.994 410.261C205.327 411.629 205.927 412.917 206.758 414.053C207.589 415.188 208.636 416.149 209.838 416.88C211.041 417.612 212.376 418.1 213.767 418.315C215.158 418.531 216.577 418.47 217.945 418.137C219.312 417.804 220.601 417.204 221.736 416.372C222.872 415.541 223.833 414.493 224.563 413.29C229.048 405.912 232.606 397.33 234.897 388.168C256.167 400.57 279.108 409.853 303.017 415.734C297.549 430.672 281.739 459.117 238.388 473.574ZM505.789 519.425C475.496 497.949 407.836 476.223 399.616 473.627C356.112 459.128 340.284 430.646 334.813 415.734C358.722 409.852 381.663 400.569 402.933 388.168C405.224 397.33 408.785 405.912 413.267 413.29C413.997 414.494 414.958 415.541 416.093 416.373C417.229 417.205 418.517 417.805 419.885 418.138C421.252 418.472 422.672 418.532 424.063 418.316C425.454 418.1 426.789 417.612 427.991 416.88C429.194 416.149 430.241 415.188 431.072 414.053C431.903 412.917 432.503 411.629 432.836 410.261C433.17 408.894 433.23 407.475 433.015 406.084C432.8 404.693 432.313 403.358 431.581 402.156C419.724 382.654 416.133 350.659 432.833 329.792L438.028 323.297C439.146 321.9 439.897 320.244 440.211 318.481C440.526 316.719 440.394 314.906 439.828 313.208L416.49 243.193C415.691 240.844 415.409 238.351 415.662 235.883C415.915 233.415 416.697 231.03 417.955 228.892C419.187 226.738 420.869 224.875 422.887 223.43C424.904 221.986 427.209 220.993 429.644 220.519C438.247 218.791 446.871 223.785 449.66 232.136L469.55 291.809C472.949 301.995 474.68 312.662 474.678 323.399C474.664 336.643 477.891 349.69 484.079 361.399C490.267 373.109 499.227 383.126 510.177 390.576L575.104 450.099L505.789 519.425Z" fill="black"/>
<path d="M17.0437 263.045C25.9216 263.045 33.1186 255.848 33.1186 246.97C33.1186 238.092 25.9216 230.896 17.0437 230.896C8.16574 230.896 0.96875 238.092 0.96875 246.97C0.96875 255.848 8.16574 263.045 17.0437 263.045Z" fill="black"/>
<path d="M33.1072 188.029C39.0259 188.029 43.8239 183.231 43.8239 177.312C43.8239 171.394 39.0259 166.596 33.1072 166.596C27.1886 166.596 22.3906 171.394 22.3906 177.312C22.3906 183.231 27.1886 188.029 33.1072 188.029Z" fill="black"/>
<path d="M354.615 616.694C360.534 616.694 365.332 611.896 365.332 605.978C365.332 600.059 360.534 595.261 354.615 595.261C348.696 595.261 343.898 600.059 343.898 605.978C343.898 611.896 348.696 616.694 354.615 616.694Z" fill="black"/>
<path d="M590.382 36.6891C593.224 36.6891 595.95 35.56 597.96 33.5502C599.969 31.5405 601.098 28.8147 601.098 25.9724V10.8084C601.098 7.96619 599.969 5.24038 597.96 3.23062C595.95 1.22087 593.224 0.0917969 590.382 0.0917969C587.54 0.0917969 584.814 1.22087 582.804 3.23062C580.794 5.24038 579.665 7.96619 579.665 10.8084V25.9724C579.665 28.8147 580.794 31.5405 582.804 33.5502C584.814 35.56 587.54 36.6891 590.382 36.6891ZM590.382 97.3371C593.224 97.3371 595.95 96.208 597.96 94.1983C599.969 92.1885 601.098 89.4627 601.098 86.6205V71.4565C601.098 68.6142 599.969 65.8884 597.96 63.8787C595.95 61.8689 593.224 60.7398 590.382 60.7398C587.54 60.7398 584.814 61.8689 582.804 63.8787C580.794 65.8884 579.665 68.6142 579.665 71.4565V86.6205C579.665 89.4627 580.794 92.1885 582.804 94.1983C584.814 96.208 587.54 97.3371 590.382 97.3371ZM552.474 59.4297H567.638C570.481 59.4297 573.206 58.3007 575.216 56.2909C577.226 54.2812 578.355 51.5553 578.355 48.7131C578.355 45.8709 577.226 43.1451 575.216 41.1353C573.206 39.1256 570.481 37.9965 567.638 37.9965H552.474C549.632 37.9965 546.906 39.1256 544.897 41.1353C542.887 43.1451 541.758 45.8709 541.758 48.7131C541.758 51.5553 542.887 54.2812 544.897 56.2909C546.906 58.3007 549.632 59.4297 552.474 59.4297ZM613.122 59.4297H628.286C631.129 59.4297 633.854 58.3007 635.864 56.2909C637.874 54.2812 639.003 51.5553 639.003 48.7131C639.003 45.8709 637.874 43.1451 635.864 41.1353C633.854 39.1256 631.129 37.9965 628.286 37.9965H613.122C610.28 37.9965 607.554 39.1256 605.545 41.1353C603.535 43.1451 602.406 45.8709 602.406 48.7131C602.406 51.5553 603.535 54.2812 605.545 56.2909C607.554 58.3007 610.28 59.4297 613.122 59.4297Z" fill="black"/>
</svg>
