<svg width="512" height="451" viewBox="0 0 512 451" fill="none" xmlns="http://www.w3.org/2000/svg">
<path d="M511.488 99.1311C510.06 87.6591 503.697 77.172 495.637 69.024C491.762 65.107 486.809 61.8869 482.082 59.0959C476.699 55.9179 470.937 54.5059 465.302 51.9979C459.765 49.5339 456.049 43.9388 451.281 40.2928C446.82 36.8828 441.629 34.6168 436.229 33.1308C430.831 31.6448 425.173 31.4928 419.827 29.8528C414.18 28.1217 409.776 24.8097 405.322 21.0927C395.876 13.2097 384.399 12.4537 372.936 9.72264C361.108 6.90462 349.783 3.06159 337.51 3.1766C331.509 3.2326 325.824 3.3216 319.92 2.08859C313.79 0.807584 307.7 -0.523425 301.411 0.20858C295.487 0.897584 289.657 2.14559 283.701 2.61359C277.393 3.1096 271.008 2.9916 264.736 3.8906C258.576 4.77361 252.636 6.70862 246.565 8.01462C240.19 9.38563 233.679 9.20363 227.199 9.46463C214.014 9.99464 202.606 15.2977 189.944 18.1337C184.128 19.4367 177.925 19.7417 172.257 21.5947C166.02 23.6327 160.23 27.0857 154.4 30.0408C148.57 32.9948 142.621 35.5528 136.431 37.6618C130.777 39.5878 125.168 40.7988 120.101 44.1168C109.988 50.7409 101.214 59.0079 90.5536 64.824C80.7706 70.162 73.3595 79.44 69.1705 89.7401C64.5925 100.999 65.8175 113.662 68.8045 125.181C71.8035 136.751 75.8915 147.87 78.5776 159.562C81.6776 173.057 85.1816 186.432 88.9116 199.764C92.3586 212.088 95.1707 224.589 99.7567 236.537C101.206 240.312 102.448 243.801 104.421 247.119C102.687 247.363 100.971 247.721 99.2847 248.193C87.5706 251.449 76.4845 256.487 66.0595 262.735C47.2224 274.024 27.9953 286.249 12.5112 302.001C5.29313 309.343 0.5941 318.537 0.0590972 328.938C-0.224905 334.443 0.5981 340.161 0.763101 345.69C0.946102 351.87 0.724101 358.007 1.80211 364.126C3.58312 374.227 14.3292 380.792 22.7522 385.439C32.6753 390.913 42.5043 396.822 52.7374 401.694C62.9955 406.579 73.5445 410.682 84.1906 414.648C89.9086 416.778 95.3407 419.348 100.8 422.062C106.207 424.75 111.099 428.319 116.501 430.999C126.5 435.96 137.949 438.753 148.4 442.693C157.196 446.01 167.68 450.566 177.193 450.34C188.072 450.082 197.683 444.473 206.605 438.798C216.64 432.415 226.19 425.173 235.945 418.37C245.146 411.955 252.994 404.135 261.729 397.178C268.026 392.164 279.881 385.671 278.218 376.042C277.27 370.553 272.85 365.834 268.767 362.345C263.82 358.118 258.709 354.111 253.792 349.832C244.61 341.842 234.968 334.219 224.951 327.297C214.493 320.069 204.685 311.9 194.623 304.165C190.156 300.73 185.587 297.543 180.892 294.401C180.848 294.372 180.804 294.346 180.76 294.316C186.686 290.839 191.836 285.434 197.156 281.599C201.579 278.411 205.508 274.777 209.704 271.332C210.624 270.577 211.559 269.875 212.463 269.168C212.605 271.029 212.736 272.892 212.817 274.762C213.085 280.97 213.441 287.258 214.459 293.397C215.222 297.999 216.378 302.442 220.397 305.25C224.994 308.461 231.499 309.08 236.894 309.898C249.671 311.834 262.625 313.579 275.551 312.691C282.257 312.23 288.813 312.916 295.51 312.938C302.063 312.96 308.591 312.192 315.112 311.64C328.288 310.524 341.491 310.248 354.671 309.036C367.074 307.896 378.713 306.262 390.796 303.37C402.692 300.523 413.88 296.815 425.291 292.482C430.938 290.338 436.398 287.917 441.871 285.367C447.473 282.758 453.288 280.267 457.845 275.972C466.425 267.884 470.475 255.77 474.527 245.034C476.85 238.88 478.735 232.603 480.764 226.351C482.649 220.546 485.466 215.051 487.448 209.245C491.409 197.638 494.069 185.613 497.949 173.955C502.086 161.527 505.634 148.876 508.28 136.04C510.794 123.834 513.042 111.617 511.488 99.1311ZM96.6097 177.595C93.3646 166.197 90.8116 154.506 87.2596 143.212C84.1446 133.308 80.9866 123.471 79.9746 113.111C80.1326 113.518 80.2896 113.926 80.4536 114.322C84.6486 124.437 92.1216 131.306 100.785 137.629C109.659 144.106 120.35 148.511 130.584 152.324C135.536 154.169 140.523 155.887 145.456 157.742C148.601 158.924 151.502 160.228 154.513 160.021C150.374 169.101 150.482 180.255 150.911 190.094C151.274 198.424 153.18 206.527 154.364 214.756C155.58 223.21 157.06 231.532 158.452 239.947C160.805 254.166 162.41 268.464 165.224 282.556C165.061 282.397 164.896 282.236 164.724 282.065C157.172 274.57 149.45 267.367 141.15 260.681C137.458 257.708 133.35 255.591 129.439 252.947C124.859 249.849 119.348 247.636 116.176 242.921C113.665 239.187 113.034 234.757 111.533 230.586C109.521 224.998 108.247 219.274 106.764 213.532C103.657 201.494 100.015 189.555 96.6097 177.595ZM166.378 438.447C157.533 435.756 148.807 432.678 140.172 429.393C135.686 427.687 131.101 426.282 126.547 424.777C121.069 422.966 116.483 419.801 111.587 416.848C102.665 411.467 93.0176 407.88 83.5256 403.714C74.1505 399.599 64.7565 395.59 55.6064 390.987C46.9554 386.635 38.5803 381.269 30.3053 376.233C26.3283 373.813 22.6242 370.645 19.0302 367.676C17.4332 366.357 15.5532 365.049 14.6032 363.215C13.4022 360.897 13.0882 357.667 12.7392 355.116C12.1042 350.482 11.6062 345.839 10.9152 341.207C10.0412 335.359 8.45215 329.836 10.2942 324.018C10.6089 323.049 10.9843 322.101 11.4182 321.178C18.5922 333.722 31.1053 342.024 43.5614 349.378C52.3114 354.545 60.2145 360.711 68.6355 366.36C76.4025 371.57 84.0096 376.325 90.8926 382.657C97.3757 388.621 104.73 394.616 111.96 399.652C119.608 404.979 128.153 408.828 135.758 414.217C139.431 416.82 142.765 419.881 146.646 422.199C150.982 424.788 155.45 426.995 159.56 429.984C163.708 433 167.713 436.516 171.872 439.739C170.013 439.435 168.178 439.003 166.378 438.447ZM254.873 388.296C250.8 391.454 247.219 395.131 243.324 398.493C228.888 410.95 212.448 421.817 196.536 432.434C191.822 427.364 185.987 423.213 180.661 418.839C174.243 413.569 167.761 408.282 161.113 403.306C148.266 393.692 135.734 384.556 121.605 376.867C107.112 368.98 92.6696 361.422 80.2806 350.321C74.9095 345.508 69.5615 340.773 63.8035 336.408C57.4684 331.605 50.2404 328.202 43.9764 323.336C40.9033 320.949 36.9323 317.984 39.2883 313.787C40.7253 311.228 43.8874 309.107 46.1614 307.336C52.5424 302.365 59.3484 298.012 65.9955 293.421C72.3385 289.041 78.8076 284.902 85.0536 280.379C91.2776 275.872 98.9397 269.803 106.958 272.251C121.677 276.746 133.658 288.269 145.993 296.96C152.462 301.518 158.887 306.192 164.944 311.291C171.537 316.842 177.3 323.27 184.033 328.661C191.024 334.261 198.762 338.774 205.714 344.409C210.834 348.56 215.649 352.841 221.086 356.639C227.94 361.427 235.132 365.733 241.339 371.368C246.657 376.196 252.762 380.832 257.74 386.087C256.779 386.827 255.82 387.561 254.873 388.296ZM181.202 306.924C188.318 312.238 194.653 318.492 201.783 323.85C217.675 335.794 234.048 347.335 248.912 360.575C252.545 363.812 256.397 366.694 260.157 369.766C261.72 371.042 263.243 372.435 264.565 373.964C266.844 376.601 267.696 377.539 265.172 379.923C264.664 380.404 264.128 380.863 263.599 381.327C258.606 376.135 252.395 371.717 247.051 366.924C241.783 362.199 235.941 358.491 230.161 354.46C223.857 350.064 217.953 345.49 212.055 340.618C205.978 335.598 199.504 331.373 193.077 326.832C185.423 321.423 179.237 314.541 172.231 308.39C165.562 302.533 158.374 297.226 151.142 292.09C138.152 282.864 126.201 272.035 111.236 266.086C103.799 263.13 98.1657 264.273 91.2616 268.019C83.8726 272.027 77.6076 277.915 70.6525 282.598C63.9125 287.136 57.1004 291.663 50.5264 296.435C44.8074 300.588 38.1043 304.344 33.7823 310.081C29.1633 316.212 30.8173 320.795 35.8863 325.89C41.3403 331.373 48.4904 334.672 54.8564 338.894C68.9475 348.24 80.3356 360.811 94.6347 369.945C111.544 380.747 129.881 388.663 145.945 400.877C153.764 406.821 161.613 412.723 169.457 418.634C176.924 424.262 185.036 429.348 192.355 435.181C190.452 436.359 188.594 437.329 186.748 438.085C186.401 437.74 186.006 437.445 185.576 437.211C178.024 433.054 171.525 426.506 164.487 421.555C157.189 416.421 149.421 412.368 142.23 407.041C134.723 401.48 126.226 397.313 118.285 392.415C110.671 387.718 102.637 382.115 95.9617 376.175C89.7836 370.678 82.8496 366.29 75.8325 361.922C67.4725 356.718 60.0354 350.206 51.6444 345.047C43.4473 340.007 35.4983 335.005 27.9253 329.046C24.4902 326.342 20.7962 323.889 18.0232 320.478C16.8569 319.044 15.5968 317.688 14.2512 316.42C19.1622 309.842 26.7693 305.315 33.3593 300.446C41.7523 294.247 50.3154 288.453 58.9604 282.593C68.7735 275.94 77.8696 268.758 88.6246 263.637C96.0747 260.09 105.148 255.84 113.71 256.816C115.753 258.242 117.918 259.543 120.203 260.926C125.034 263.85 130.219 266.676 134.595 270.232C149.947 282.706 165.426 295.143 181.202 306.924ZM209.522 256.097C208.723 257 207.794 257.751 206.821 258.449C205.616 259.314 204.343 260.099 203.168 260.996C201.23 262.475 199.527 264.183 197.691 265.783C193.688 269.272 189.236 272.141 185.116 275.478C181.698 278.247 178.518 281.449 174.711 283.702C173.617 277.199 172.322 270.726 171.44 264.175C170.192 254.88 168.609 245.632 166.694 236.451C162.557 216.716 157.35 195.871 159.298 175.593C160.272 165.45 163.618 158.848 172.378 153.514C179.534 149.157 187.003 145.025 194.551 141.41C199.46 139.059 204.235 136.263 209.316 134.338C213.269 132.841 216.972 131.436 220.698 129.397C223.619 127.799 226.666 126.449 229.675 125.029C232.162 123.855 235.579 120.82 238.539 121.39C241.287 121.919 241.066 125.488 241.095 127.977C241.137 131.621 240.637 135.254 240.064 138.845C239.777 140.642 239.397 142.576 238.053 143.804C237.555 144.259 236.918 144.597 236.243 144.605C235.568 144.613 234.868 144.236 234.621 143.609C234.421 143.101 234.531 142.531 234.645 141.996C235.395 138.456 238.996 131.907 234.882 129.211C231.617 127.071 224.968 131.31 222.277 132.71C219.436 134.189 216.001 136.269 213.361 138.687C205.226 142.645 197.272 146.576 189.506 151.253C183.093 155.116 175.847 157.844 171.327 164.16C166.712 170.607 166.092 178.851 166.024 186.509C165.873 203.482 167.92 220.925 170.187 237.764C171.202 245.303 172.171 252.814 173.394 260.319C174.036 264.262 174.818 269.619 179.515 270.641C182.673 271.327 185.603 269.402 187.937 267.487C191.385 264.659 194.766 261.591 197.995 258.53C200.552 256.107 203.153 253.528 206.176 251.685C210.551 249.018 213.205 251.932 209.522 256.097ZM251.136 115.04C249.297 110.833 244.499 108.948 240.913 106.469C235.758 102.905 230.843 99.7252 228.463 93.7381C227.917 92.3641 225.866 86.4961 227.013 85.1841C227.516 84.6091 232.129 84.1081 233.305 83.7481C239.552 81.8371 245.853 80.577 252.179 79.004C258.308 77.48 264.483 74.651 270.902 74.675C273.924 74.687 276.866 75.663 279.882 75.849C282.922 76.037 285.962 75.538 288.989 75.276C293.821 74.857 298.672 73.704 303.508 73.336C306.069 73.435 308.538 73.426 311.091 73.247C314.648 73.331 318.217 73.563 321.74 74.006C323.527 74.509 325.28 75.142 326.969 75.802C332.329 77.897 337.394 79.035 342.774 79.553L343.085 79.671C345.195 80.488 347.484 81.288 349.749 81.525C351.663 81.7261 353.578 81.4081 355.497 81.3231C357.203 81.9771 358.879 82.7631 360.565 83.4951C363.718 84.8631 365.288 87.7211 368.212 89.0991C368.317 89.1481 368.425 89.1691 368.532 89.2071C368.754 89.8521 368.935 90.5341 369.064 91.2601C370.396 98.7512 362.335 100.704 356.735 102.424C345.6 105.844 333.548 105.785 322.034 107.206C315.297 108.037 309.189 106.548 302.687 105.06C297.611 103.899 292.432 101.85 287.159 101.967C275.762 102.219 266.049 110.121 259.498 119.234C256.877 121.584 254.366 124.083 251.922 126.668C252.765 122.764 252.803 118.853 251.136 115.04ZM208.051 181.819C206.249 193.697 208.233 205.309 208.878 217.159C209.286 224.65 209.943 232.126 210.529 239.606C210.236 239.823 209.981 240.088 209.776 240.39C205.93 246.113 198.23 250.004 193.251 254.715C190.292 257.514 186.325 261.1 182.902 263.334C179.481 265.567 180.031 261.551 179.56 258.925C176.534 242.063 175.131 224.921 173.186 207.897C172.152 198.844 171.433 189.279 172.238 180.152C173.181 169.461 178.648 163.848 187.864 158.988C195.71 154.85 203.124 149.976 211.092 146.032C218.164 142.531 224.935 138.577 231.594 134.407C231.801 138.03 230.046 142.69 229.358 145.684C228.788 148.168 227.934 150.813 227.663 153.421C219.624 161.337 209.826 170.117 208.051 181.819ZM494.209 137.353C491.623 148.844 488.358 160.132 484.693 171.317C481.27 181.764 479.03 192.597 475.534 202.989C472.058 213.322 467.957 223.326 464.522 233.692C461.177 243.788 457.84 255.217 451.332 263.812C447.912 268.328 443.133 270.572 438.147 272.978C432.476 275.714 426.819 278.314 420.954 280.603C410.511 284.679 400.25 288.291 389.288 290.804C384.498 291.902 379.872 293.453 375.017 294.255C368.974 295.252 362.873 295.696 356.778 296.249C345.28 297.292 333.851 297.941 322.324 298.54C310.126 299.173 298.327 300.501 286.087 299.924C280.069 299.641 274.154 300.455 268.148 300.476C262.575 300.496 257.004 299.803 251.474 299.192C245.717 298.557 240.048 297.651 234.424 296.256C232.733 295.836 229.13 295.637 227.958 294.448C227.545 294.03 227.081 288.862 226.966 287.658C225.928 276.737 224.503 265.866 223.45 254.94C222.301 243.002 220.277 231.101 219.674 219.12C219.112 207.965 218.081 197.471 219.927 186.396C223.92 189.348 229.41 190.901 233.776 191.755C244.09 193.774 254.886 192.826 265.274 191.765C276.454 190.623 287.458 189.935 298.705 190.67C309.925 191.403 320.17 189.284 331.255 187.892C342.623 186.464 353.468 184.514 364.639 181.938C374.953 179.559 384.969 176.457 395.193 173.773C405.969 170.944 416.848 168.642 427.195 164.413C436.7 160.528 445.621 155.815 454 149.927C458.79 146.561 463.633 143.267 468.426 139.883C472.979 136.67 476.735 132.601 481.138 129.191C486.811 124.796 492.764 120.146 498.14 115.068C497.447 122.56 495.871 129.963 494.209 137.353ZM456.856 136.73C440.978 148.538 423.649 156.816 404.468 161.754C384.937 166.782 365.707 172.924 345.897 176.862C335.744 178.88 325.305 179.707 315.088 181.462C305.038 183.189 294.467 181.948 284.294 181.906C272.768 181.859 261.276 183.96 249.768 184.705C241.24 185.258 229.878 185.519 221.885 180.869C223.529 177.742 225.857 174.835 227.892 172.138C231.377 167.517 235.592 163.564 239.203 159.06C246.073 150.491 252.878 141.879 259.835 133.365C263.78 128.537 267.986 123.724 272.607 119.397C274.99 118.142 277.419 116.976 279.889 115.901C286.161 113.148 291.687 115.283 297.959 116.721C303.159 117.913 308.549 119.452 313.882 119.747C321.229 120.155 328.439 118.338 335.738 117.87C347.679 117.104 360.778 114.179 369.892 105.951C378.055 98.5822 378.039 88.1961 370.729 79.951C370.718 79.938 370.705 79.929 370.694 79.916C367.781 76.238 362.379 74.513 357.784 72.603C353.48 70.814 349.775 70.892 345.152 70.981C340.455 71.071 335.432 70.058 330.976 68.541C326.88 67.147 322.732 65.651 318.364 65.316C316.169 65.147 314.015 65.455 311.867 65.848C307.427 64.782 302.945 63.729 298.432 63.576C292.375 63.371 286.233 65.137 280.307 65.998C276.999 66.479 273.675 66.035 270.359 66.555C266.618 67.142 262.975 68.18 259.328 69.186C252.368 71.105 245.427 72.578 238.373 74.078C232.825 75.258 225.332 75.7 220.51 78.835C215.253 82.2541 215.054 89.9811 216.355 95.4221C217.901 101.89 220.896 107.033 226.264 111.022C229.028 113.078 231.891 114.998 234.841 116.776C230.341 118.083 225.841 119.378 221.458 121.218C214.394 124.183 206.872 126.173 199.968 129.413C189.75 134.209 179.161 138.418 169.637 144.552C165.973 146.911 162.305 151.649 158.074 152.15C153.585 152.681 148.297 148.74 144.439 147.502C140.27 146.164 136.204 144.55 132.086 143.035C123.276 139.793 114.046 135.872 106.326 130.448C98.7527 125.126 92.3686 119.438 88.0366 111.126C85.8926 107.012 84.3276 102.597 83.3446 98.0631C83.0006 96.4761 82.7646 94.8661 82.5216 93.2581C84.0866 89.5641 86.3116 86.0411 89.2706 82.5761C92.5826 78.698 96.8977 76.914 101.185 74.364C106.071 71.458 110.69 68.006 115.142 64.4829C119.195 61.2749 123.281 58.0529 127.643 55.2659C132.206 52.3499 137.9 51.4459 142.95 49.6019C154.021 45.5578 163.944 39.0638 174.901 34.9338C179.55 33.1818 184.761 32.8698 189.615 31.9488C195.606 30.8118 201.244 28.9407 207.046 27.1017C212.252 25.4517 217.603 23.6997 223.068 23.2237C229.092 22.6997 235.155 22.9667 241.182 22.4067C252.707 21.3357 263.483 17.2367 275.101 16.6657C280.629 16.3937 286.105 16.1767 291.604 15.4797C297.325 14.7547 303.083 13.3217 308.865 14.0787C313.814 14.7267 318.61 16.2547 323.575 16.8747C329.57 17.6237 335.576 17.0747 341.595 17.2347C346.876 17.3757 351.016 18.8657 355.957 20.3267C361.389 21.9327 367.249 23.0737 372.813 24.1737C377.914 25.1827 383.043 25.7517 387.976 27.4857C393.05 29.2697 396.362 32.2978 400.568 35.4778C409.049 41.8888 418.097 43.6148 428.31 45.0788C433.283 45.7918 438.363 47.0269 442.695 49.6499C447.628 52.6379 451.237 57.3089 455.961 60.5749C459.86 63.271 464.485 64.312 468.81 66.085C474.127 68.264 479.227 71.62 483.705 75.201C491.697 81.5921 497.206 91.4431 498.258 101.589C484.932 113.845 471.414 125.903 456.856 136.73Z" fill="black"/>
</svg>
