<svg width="419" height="419" viewBox="0 0 419 419" fill="none" xmlns="http://www.w3.org/2000/svg">
<path d="M13.1369 209.502C13.1369 194.609 14.7954 180.1 17.9339 166.155M82.2899 59.9057C75.753 65.4713 69.5867 71.4579 63.8303 77.8274M175.262 16.1104C197.518 12.1952 220.619 12.1373 243.024 15.989M355.138 77.7891C349.382 71.4238 343.217 65.4409 336.681 59.8788M401.046 166.051C404.2 180.028 405.866 194.571 405.866 209.501M370.841 97.5347C380.604 111.574 388.488 126.831 394.291 142.916M295.655 32.9962C287.24 28.8821 278.54 25.38 269.622 22.5171M147.92 22.9889C139.478 25.7731 131.237 29.1317 123.255 33.0411M24.7432 142.829C30.5254 126.826 38.3672 111.644 48.0708 97.6668M375.442 347.904L412.003 222.322C412.003 212.827 400.536 207.807 393.739 214.441C386.475 221.705 375.528 221.071 369.044 214.587C362.259 207.802 351.265 207.811 344.505 214.587C337.759 221.333 326.751 221.381 319.957 214.587C313.177 207.807 302.191 207.807 295.41 214.587C288.664 221.333 277.656 221.381 270.862 214.587C264.112 207.82 253.117 207.793 246.323 214.587C239.577 221.333 228.569 221.381 221.775 214.587C214.994 207.807 204.008 207.807 197.228 214.587C190.482 221.333 179.474 221.381 172.68 214.587C165.894 207.802 154.9 207.811 148.141 214.587C141.395 221.333 130.387 221.381 123.593 214.587C116.812 207.807 105.826 207.807 99.0453 214.587C92.2996 221.333 81.2915 221.381 74.4977 214.587C67.7471 207.82 56.7529 207.793 49.9583 214.587C43.4261 221.12 32.4767 221.653 25.264 214.441C18.467 207.807 7 212.827 7 222.322L54.5304 385.581C59.0862 401.237 73.4382 412.003 89.7463 412.003H329.256C345.564 412.003 359.917 401.237 364.472 385.581L367.463 375.32M209.501 411.223V210.282M246.408 410.564L258.506 210.941M283.233 411.223L307.59 210.282M320.099 411.223L356.634 210.282M172.543 409.698L160.55 211.807M135.77 411.223L111.414 210.282M77.3176 292.517L62.4277 210.618M98.8416 410.887L82.4276 320.602" stroke="black" stroke-width="12.2249" stroke-miterlimit="10" stroke-linecap="round" stroke-linejoin="round"/>
<path d="M367.56 181.361C362.768 176.569 362.766 168.798 367.56 164.005L384.916 146.649C389.709 141.856 397.48 141.856 402.272 146.649C407.063 151.44 407.066 159.211 402.272 164.005L384.916 181.361C380.124 186.154 372.353 186.154 367.56 181.361ZM333.719 181.361C338.51 176.569 338.512 168.798 333.719 164.005L316.363 146.649C311.57 141.856 303.799 141.856 299.006 146.649C294.215 151.44 294.213 159.211 299.006 164.005L316.363 181.361C321.156 186.154 328.927 186.154 333.719 181.361ZM51.4442 181.361C56.2355 176.569 56.2379 168.798 51.4442 164.005L34.0872 146.649C29.2943 141.856 21.5233 141.856 16.7311 146.649C11.9398 151.44 11.9374 159.211 16.7311 164.005L34.0872 181.361C38.8802 186.154 46.6512 186.154 51.4442 181.361ZM85.2843 181.361C80.493 176.569 80.4905 168.798 85.2843 164.005L102.64 146.649C107.433 141.856 115.204 141.856 119.996 146.649C124.788 151.44 124.79 159.211 119.996 164.005L102.64 181.361C97.8482 186.154 90.0773 186.154 85.2843 181.361ZM231.505 181.361C226.714 176.569 226.712 168.798 231.505 164.005L248.862 146.649C253.655 141.856 261.426 141.856 266.218 146.649C271.009 151.44 271.011 159.211 266.218 164.005L248.862 181.361C244.069 186.154 236.298 186.154 231.505 181.361ZM336.878 113.861C332.086 109.069 332.084 101.298 336.878 96.5045L354.234 79.1484C359.027 74.3554 366.798 74.3554 371.59 79.1484C376.381 83.9397 376.384 91.7107 371.59 96.5045L354.234 113.861C349.442 118.654 341.671 118.654 336.878 113.861ZM297.954 113.861C302.745 109.069 302.747 101.298 297.954 96.5045L280.597 79.1484C275.804 74.3554 268.033 74.3554 263.241 79.1484C258.45 83.9397 258.448 91.7107 263.241 96.5045L280.597 113.861C285.39 118.654 293.161 118.654 297.954 113.861ZM82.1262 113.861C86.9175 109.069 86.92 101.298 82.1262 96.5045L64.7693 79.1476C59.9763 74.3546 52.2054 74.3546 47.4132 79.1476C42.6218 83.9389 42.6194 91.7099 47.4132 96.5037L64.7693 113.86C69.5623 118.654 77.3332 118.654 82.1262 113.861ZM121.05 113.861C116.259 109.069 116.256 101.298 121.05 96.5045L138.406 79.1484C143.199 74.3554 150.97 74.3554 155.762 79.1484C160.554 83.9397 160.556 91.7107 155.762 96.5045L138.406 113.861C133.613 118.654 125.843 118.654 121.05 113.861ZM85.2843 63.7165C80.493 58.9252 80.4905 51.1542 85.2843 46.3604L102.64 29.0043C107.433 24.2113 115.204 24.2113 119.996 29.0043C124.788 33.7957 124.79 41.5666 119.996 46.3604L102.64 63.7165C97.8482 68.5087 90.0773 68.5087 85.2843 63.7165ZM333.719 63.7165C338.51 58.9252 338.512 51.1542 333.719 46.3604L316.363 29.0043C311.57 24.2113 303.799 24.2113 299.006 29.0043C294.215 33.7957 294.213 41.5666 299.006 46.3604L316.363 63.7165C321.156 68.5087 328.927 68.5087 333.719 63.7165ZM266.218 10.5944C261.427 5.80308 253.656 5.80064 248.862 10.5944L231.506 27.9505C226.713 32.7435 226.713 40.5145 231.506 45.3066C236.298 50.098 244.069 50.1004 248.862 45.3066L266.218 27.9505C271.011 23.1575 271.011 15.3866 266.218 10.5944ZM186.445 45.3066C181.654 50.098 173.883 50.1004 169.089 45.3066L151.733 27.9505C146.94 23.1575 146.94 15.3866 151.733 10.5944C156.524 5.80308 164.295 5.80064 169.089 10.5944L186.445 27.9505C191.237 32.7435 191.237 40.5145 186.445 45.3066ZM209.501 123.592C202.725 123.592 197.228 118.099 197.228 111.319V86.7727C197.228 79.9944 202.723 74.4997 209.501 74.4997C216.278 74.4997 221.774 79.9927 221.774 86.7727V111.319C221.774 118.097 216.28 123.592 209.501 123.592ZM187.497 181.361C192.289 176.569 192.291 168.798 187.497 164.005L170.141 146.649C165.348 141.856 157.577 141.856 152.785 146.649C147.994 151.44 147.991 159.211 152.785 164.005L170.141 181.361C174.934 186.154 182.705 186.154 187.497 181.361Z" stroke="black" stroke-width="12.2249" stroke-miterlimit="10" stroke-linecap="round" stroke-linejoin="round"/>
</svg>
