<svg width="406" height="460" viewBox="0 0 406 460" fill="none" xmlns="http://www.w3.org/2000/svg">
<path d="M371.885 171.017L356.957 164.489C356.679 164.368 356.442 164.169 356.276 163.916C356.11 163.663 356.022 163.367 356.022 163.065C356.022 162.762 356.11 162.466 356.276 162.213C356.442 161.96 356.679 161.761 356.957 161.641L371.885 155.113C372.239 154.951 372.523 154.667 372.685 154.313L379.213 139.385C379.333 139.107 379.532 138.871 379.785 138.704C380.038 138.538 380.334 138.45 380.637 138.45C380.939 138.45 381.235 138.538 381.488 138.704C381.741 138.871 381.94 139.107 382.061 139.385L388.589 154.313C388.749 154.665 389.037 154.953 389.389 155.113L404.317 161.641C404.594 161.761 404.831 161.96 404.997 162.213C405.163 162.466 405.251 162.762 405.251 163.065C405.251 163.367 405.163 163.663 404.997 163.916C404.831 164.169 404.594 164.368 404.317 164.489L389.389 171.017C389.034 171.178 388.75 171.462 388.589 171.817L382.061 186.745C381.94 187.022 381.741 187.259 381.488 187.425C381.235 187.591 380.939 187.68 380.637 187.68C380.334 187.68 380.038 187.591 379.785 187.425C379.532 187.259 379.333 187.022 379.213 186.745L372.685 171.817C372.523 171.462 372.239 171.178 371.885 171.017Z" fill="black"/>
<path d="M337.869 120.457C340.431 120.457 342.509 118.379 342.509 115.817C342.509 113.254 340.431 111.177 337.869 111.177C335.306 111.177 333.229 113.254 333.229 115.817C333.229 118.379 335.306 120.457 337.869 120.457Z" fill="black"/>
<path d="M77.0206 110.297L67.9327 106.329C67.1807 105.993 67.1807 104.921 67.9327 104.601L77.0367 100.617C77.1445 100.572 77.2424 100.507 77.3248 100.425C77.4072 100.342 77.4724 100.244 77.5167 100.137L81.5007 91.0327C81.8367 90.2807 82.9087 90.2807 83.2287 91.0327L87.2127 100.121C87.3056 100.34 87.4767 100.517 87.6927 100.617L96.7967 104.601C97.5487 104.937 97.5487 106.009 96.7967 106.329L87.6927 110.297C87.4767 110.397 87.3056 110.574 87.2127 110.793L83.2287 119.897C82.8927 120.649 81.8207 120.649 81.5007 119.897L77.5167 110.793C77.4212 110.57 77.2436 110.392 77.0206 110.297Z" fill="black"/>
<path d="M38.3646 174.953C44.9301 174.953 50.2526 169.63 50.2526 163.065C50.2526 156.499 44.9301 151.177 38.3646 151.177C31.799 151.177 26.4766 156.499 26.4766 163.065C26.4766 169.63 31.799 174.953 38.3646 174.953Z" fill="black"/>
<path d="M125.244 310.825C120.902 297.129 117.591 283.127 115.34 268.937C115.224 268.153 114.952 267.401 114.54 266.724C114.128 266.048 113.584 265.461 112.941 264.999C112.298 264.536 111.569 264.207 110.796 264.032C110.024 263.856 109.224 263.838 108.444 263.977C106.875 264.232 105.47 265.1 104.54 266.39C103.61 267.68 103.231 269.287 103.484 270.857C106.012 286.409 109.484 301.097 113.82 314.521C114.06 315.27 114.446 315.965 114.954 316.566C115.463 317.166 116.085 317.66 116.785 318.02C117.485 318.38 118.249 318.598 119.034 318.662C119.818 318.726 120.607 318.634 121.356 318.393C122.11 318.153 122.809 317.767 123.412 317.256C124.016 316.745 124.513 316.12 124.874 315.417C125.235 314.714 125.454 313.946 125.518 313.158C125.581 312.37 125.488 311.577 125.244 310.825ZM135.388 336.409C134.344 334.242 133.341 332.054 132.38 329.849C131.75 328.387 130.565 327.235 129.086 326.647C127.607 326.059 125.954 326.083 124.492 326.713C123.031 327.343 121.879 328.528 121.291 330.007C120.703 331.486 120.726 333.139 121.356 334.601C122.364 336.953 123.468 339.289 124.572 341.609C124.913 342.319 125.39 342.954 125.977 343.48C126.564 344.005 127.248 344.409 127.991 344.669C128.734 344.929 129.522 345.04 130.308 344.996C131.094 344.951 131.864 344.751 132.572 344.409C133.285 344.071 133.924 343.596 134.452 343.01C134.98 342.424 135.387 341.74 135.649 340.996C135.911 340.252 136.022 339.464 135.978 338.676C135.933 337.889 135.733 337.118 135.388 336.409ZM226.14 113.657C230.444 120.729 234.492 127.417 237.692 134.617C243.276 147.209 246.892 161.913 248.732 179.577C248.846 180.677 249.261 181.724 249.933 182.602C250.604 183.481 251.505 184.157 252.536 184.556C253.567 184.955 254.689 185.061 255.777 184.863C256.864 184.665 257.876 184.17 258.7 183.433C284.972 159.977 283.34 121.273 270.076 93.3047C267.014 87.0989 263.683 81.0292 260.092 75.1127C255.372 67.0647 250.908 59.4487 247.756 51.1767C242.764 38.1367 239.916 22.8727 239.292 5.7847C239.25 4.67821 238.903 3.60494 238.289 2.68309C237.676 1.76125 236.82 1.02659 235.816 0.560052C234.811 0.093509 233.698 -0.0868245 232.598 0.0389164C231.498 0.164657 230.453 0.591592 229.58 1.2727C201.724 23.1767 201.1 64.2807 214.892 93.5607C218.204 100.617 222.236 107.241 226.14 113.657ZM228.268 19.7367C229.692 32.7927 232.46 44.7607 236.54 55.4327C240.076 64.6487 244.988 73.0487 249.756 81.1607C253.084 86.8247 256.412 92.5047 259.244 98.4407C268.908 118.793 271.612 145.561 258.892 165.001C256.974 152.87 253.539 141.028 248.668 129.753C245.164 121.849 240.716 114.521 236.396 107.417C232.492 100.985 228.796 94.9207 225.74 88.4407C215.724 67.1607 214.3 38.8087 228.268 19.7367ZM179.356 142.313C182.252 146.009 185.148 149.689 187.532 153.721C191.644 160.649 194.732 168.937 197.004 179.049C197.252 180.122 197.789 181.106 198.557 181.895C199.325 182.684 200.295 183.247 201.361 183.523C202.427 183.798 203.549 183.776 204.603 183.458C205.657 183.141 206.604 182.54 207.34 181.721C222.188 164.953 218.38 140.825 208.028 124.329C205.726 120.792 203.276 117.355 200.684 114.025C197.356 109.641 194.22 105.481 191.836 100.953C188.076 93.7847 185.388 85.1287 183.836 75.2407C183.672 74.1438 183.204 73.1147 182.486 72.2694C181.768 71.4241 180.828 70.7963 179.772 70.4567C178.722 70.1046 177.594 70.0544 176.516 70.3118C175.438 70.5692 174.454 71.1239 173.676 71.9127C156.988 88.5527 160.636 114.169 171.068 130.937C173.58 134.905 176.46 138.617 179.356 142.313ZM175.404 92.1847C176.988 97.3687 178.94 102.153 181.212 106.521C184.06 111.929 187.644 116.681 191.116 121.257C193.452 124.345 195.804 127.433 197.868 130.713C203.484 139.657 206.764 151.337 204.444 161.705C202.69 156.811 200.483 152.092 197.852 147.609C195.132 143.017 191.916 138.905 188.812 134.921C186.172 131.561 183.532 128.201 181.26 124.569C175.42 115.193 172.54 102.729 175.404 92.1847Z" fill="black"/>
<path d="M348.685 406.089H336.429C341.437 402.537 345.741 398.329 349.101 393.625C356.253 383.593 358.365 372.521 355.037 362.441C352.893 355.961 348.541 350.633 342.717 346.537C362.973 301.817 367.773 251.097 368.717 224.217C368.828 220.935 368.273 217.665 367.085 214.605C365.897 211.544 364.1 208.756 361.805 206.409C359.536 204.059 356.816 202.192 353.808 200.919C350.801 199.646 347.567 198.993 344.301 199.001H97.4525C90.7805 199.001 84.3165 201.769 79.7245 206.601C77.4666 208.934 75.7099 211.705 74.5625 214.743C73.4151 217.781 72.9013 221.021 73.0525 224.265C73.1645 227.465 73.3725 231.145 73.6125 235.049C66.1273 234.403 58.5875 234.883 51.2445 236.473C31.6285 241.241 16.0445 253.065 7.35654 269.753C-1.47546 286.505 -2.38747 305.977 4.79653 324.569C11.5805 342.233 25.0205 357.113 42.6845 366.473C50.3325 370.457 58.5245 373.289 67.1645 374.905C71.6605 375.673 76.1885 376.057 80.6685 376.057C91.1673 376.06 101.548 373.847 111.133 369.561C119.693 383.321 130.109 395.865 142.893 406.105H93.0045C91.093 406.111 89.2115 406.58 87.5207 407.472C85.8299 408.363 84.3801 409.651 83.2952 411.225C82.2104 412.799 81.5227 414.612 81.2909 416.509C81.0592 418.407 81.2903 420.332 81.9645 422.121L87.6925 437.241C90.2451 443.893 94.7496 449.618 100.615 453.664C106.48 457.711 113.431 459.889 120.557 459.913H321.165C335.661 459.913 348.861 450.793 354.029 437.241L359.757 422.121C360.435 420.329 360.668 418.399 360.437 416.497C360.205 414.595 359.515 412.777 358.426 411.2C357.337 409.624 355.882 408.335 354.185 407.444C352.488 406.554 350.601 406.089 348.685 406.089ZM275.421 369.609C280.685 362.217 289.101 356.329 299.101 353.033C304.324 351.296 309.788 350.394 315.293 350.361C319.757 350.361 324.061 351.017 328.029 352.297C331.789 353.529 334.973 355.305 337.533 357.481C326.909 358.521 311.565 362.377 300.749 375.353C290.845 387.225 276.877 386.873 270.365 385.913C269.901 380.649 271.581 375.017 275.421 369.609ZM339.341 386.649C334.061 394.041 325.661 399.945 315.645 403.241C305.613 406.537 295.373 406.793 286.733 403.977C283 402.812 279.551 400.883 276.605 398.313C286.349 398.233 299.629 395.433 309.965 383.049C320.125 370.889 336.525 369.209 344.173 369.145C345.053 374.745 343.485 380.841 339.341 386.649ZM88.3965 214.873C89.5601 213.64 90.9641 212.659 92.5217 211.99C94.0793 211.322 95.7575 210.979 97.4525 210.985H344.333C347.709 210.985 350.861 212.313 353.213 214.745C354.385 215.935 355.304 217.352 355.912 218.909C356.519 220.466 356.804 222.13 356.749 223.801C356.637 227.001 356.461 230.585 356.221 234.425H85.5965C85.3565 230.569 85.1645 226.905 85.0525 223.737C84.9716 222.109 85.2267 220.482 85.802 218.957C86.3774 217.432 87.2605 216.041 88.3965 214.873ZM93.9325 334.521C83.8845 338.489 71.6925 337.833 60.7485 332.009C51.3885 327.033 44.4285 319.433 41.1165 310.457C39.7133 306.989 38.9855 303.285 38.9725 299.545C38.9725 295.257 39.9325 291.305 41.7885 287.801C45.3405 281.129 51.9005 276.345 60.1885 274.377C65.2765 273.257 70.5565 273.129 75.7405 273.945C76.5405 274.121 77.2765 274.377 78.0605 274.569C81.1645 293.401 86.1725 314.265 93.9325 334.521ZM69.2765 363.081C61.9534 361.719 54.8734 359.276 48.2685 355.833C33.1965 347.865 21.7405 335.225 15.9965 320.249C10.0765 304.921 10.7645 288.953 17.9805 275.273C25.0525 261.673 37.8685 252.025 54.0125 248.105C60.7573 246.636 67.6967 246.279 74.5565 247.049C75.0045 251.785 75.5165 256.729 76.2045 261.993C69.9734 261.116 63.6368 261.344 57.4845 262.665C45.7085 265.465 36.3645 272.393 31.1645 282.153C28.3387 287.505 26.8872 293.476 26.9405 299.529C26.9405 304.745 27.9165 309.769 29.8845 314.729C34.1885 326.345 43.1165 336.233 55.0845 342.585C63.0555 346.871 71.9546 349.139 81.0045 349.193C87.1325 349.193 92.9405 347.705 98.4605 345.513C100.493 350.089 102.685 354.585 105.037 359.017C93.7461 363.747 81.3404 365.156 69.2765 363.081ZM175.533 406.025C166.961 406.085 158.619 403.256 151.853 397.993C104.813 361.657 90.7165 290.857 86.5565 246.425H355.261C352.781 273.113 346.573 308.713 332.045 341.001L331.757 340.873C320.717 337.273 307.789 337.529 295.373 341.641C282.973 345.721 272.397 353.193 265.677 362.649C258.525 372.665 256.413 383.753 259.741 393.833C261.293 398.521 263.997 402.601 267.517 406.105H175.901C175.757 406.089 175.661 406.025 175.533 406.025ZM342.797 432.953C341.116 437.336 338.149 441.108 334.286 443.775C330.422 446.442 325.843 447.879 321.149 447.897H120.557C115.862 447.879 111.283 446.442 107.42 443.775C103.556 441.108 100.589 437.336 98.9085 432.953L93.0045 418.089L175.437 418.009H175.565L299.357 417.897H299.565L348.525 417.849L342.797 432.953Z" fill="black"/>
</svg>
