<svg width="512" height="512" viewBox="0 0 512 512" fill="none" xmlns="http://www.w3.org/2000/svg">
<path d="M495.476 495.476H511.992V511.992H495.476V495.476ZM0 495.476H16.5159V511.992H0V495.476ZM398.018 429.332C438.231 428.444 470.702 395.522 470.702 355.091V346.833H396.381C372.804 346.833 351.804 357.898 338.18 375.075C337.434 335.197 335.438 301.705 331.035 272.512H379.865C420.84 272.512 454.186 239.165 454.186 198.19V189.932H379.865C368.003 189.916 356.31 192.746 345.769 198.185C335.228 203.624 326.145 211.513 319.285 221.19C318.039 217.352 316.699 213.546 315.265 209.775C319.466 204.234 322.059 197.412 322.059 189.932C322.059 181.791 318.986 174.432 314.091 168.666C323.76 162.896 330.317 152.441 330.317 140.385C330.317 122.168 315.503 107.353 297.286 107.353C284.245 107.353 273.049 115.019 267.681 126.014C264.419 124.785 260.951 124.159 257.415 124.001C252.102 118.852 246.636 113.862 241.024 109.039C259.842 99.3006 272.512 79.7572 272.512 57.8055V0H264.254C232.379 0 206.448 25.9309 206.448 57.8055V81.7608C200.992 77.7777 195.487 73.8635 189.932 70.019V66.0635H189.444C185.315 28.9595 153.796 0 115.611 0H74.3214V8.25793C74.3214 46.8906 103.957 78.7043 141.683 82.2242C130.731 92.7531 123.869 107.51 123.869 123.869V181.674H132.127C164.001 181.674 189.932 155.744 189.932 123.869V90.2004C209.355 104.066 225.21 116.7 238.596 128.95C229.251 134.784 222.964 145.091 222.964 156.901C222.964 175.118 237.778 189.932 255.996 189.932C255.996 208.149 270.81 222.964 289.028 222.964C293.495 222.964 297.741 222.057 301.628 220.435C307.543 237.149 311.794 255.403 314.841 275.908C301.406 263.412 283.512 255.996 264.254 255.996H189.932V264.254C189.932 305.229 223.279 338.575 264.254 338.575H320.532C321.579 360.929 321.979 385.703 322.035 413.243C307.733 413.889 293.81 416.606 280.447 421.518C277.261 379.675 249 346.833 214.706 346.833C193.896 346.833 175.331 358.954 163.211 377.809C150.682 366.526 133.554 361.566 114.522 363.925C95.1964 366.337 76.1722 376.059 60.959 391.276C45.7407 406.498 36.0201 425.514 33.6087 444.839C31.1087 464.839 36.657 482.807 49.2162 495.476H33.0307V511.992H90.6401C90.7278 511.992 90.8207 512 90.9219 512C90.9859 512 91.0509 511.992 91.1118 511.992H478.96V495.476H459.545C446.614 466.532 424.803 443.61 398.018 429.332ZM396.381 363.349H453.602C449.577 391.328 425.457 412.897 396.381 412.897H339.159C343.184 384.918 367.305 363.349 396.381 363.349ZM379.865 206.448H437.086C433.061 234.427 408.941 255.996 379.865 255.996H328.196C327.432 252.103 326.603 248.224 325.708 244.359C334.051 221.633 355.479 206.448 379.865 206.448ZM297.286 123.869C306.394 123.869 313.801 131.276 313.801 140.385C313.801 149.493 306.394 156.901 297.286 156.901C288.177 156.901 280.77 149.493 280.77 140.385C280.77 131.276 288.177 123.869 297.286 123.869ZM222.964 57.8055C222.964 37.8626 237.178 21.1816 255.996 17.3509V57.8055C255.996 76.0143 243.839 91.9263 226.706 97.1639C225.492 96.1956 224.218 95.2129 222.964 94.2405V57.8055ZM91.4215 16.5159H115.611C144.687 16.5159 168.808 38.0845 172.832 66.0635H148.643C119.567 66.0635 95.4462 44.4948 91.4215 16.5159ZM173.417 123.869C173.417 143.812 159.203 160.493 140.385 164.324V123.869C140.385 103.926 154.599 87.245 173.417 83.4144V123.869ZM255.996 173.417C246.887 173.417 239.48 166.009 239.48 156.901C239.48 147.792 246.887 140.385 255.996 140.385C259.012 140.385 261.944 141.22 264.491 142.749C264.984 149.713 267.693 156.337 272.222 161.651C267.697 164.348 263.875 168.05 261.077 172.517C259.439 173.054 257.754 173.417 255.996 173.417ZM272.512 189.932C272.512 180.824 279.919 173.417 289.028 173.417C298.136 173.417 305.543 180.824 305.543 189.932C305.543 199.041 298.136 206.448 289.028 206.448C279.919 206.448 272.512 199.041 272.512 189.932ZM264.254 322.059C235.178 322.059 211.057 300.491 207.033 272.512H264.254C288.926 272.512 310.753 288.112 318.829 311.35C319.111 314.842 319.358 318.434 319.6 322.059H264.254ZM264.254 429.412C264.254 465.408 242.535 494.725 215.658 495.412C216.835 490.71 219.017 487.375 221.577 483.537C225.879 477.085 231.222 469.065 231.222 454.178C231.222 439.287 225.879 431.272 221.577 424.82C217.738 419.058 214.706 414.506 214.706 404.615C214.706 394.736 217.738 390.187 221.577 384.434C224.601 379.897 228.109 374.522 229.944 366.579C249.826 375.175 264.254 400.082 264.254 429.412ZM213.746 363.413C212.569 368.107 210.387 371.442 207.836 375.272C203.533 381.716 198.19 389.732 198.19 404.615C198.19 419.501 203.533 427.53 207.836 433.981C211.674 439.735 214.706 444.283 214.706 454.178C214.706 464.069 211.674 468.621 207.836 474.376C204.803 478.92 201.295 484.295 199.46 492.246C179.585 483.65 165.159 458.743 165.159 429.412C165.159 393.417 186.868 364.098 213.746 363.413ZM153.009 458.686C149.816 463.585 146.223 468.234 142.07 472.388C129.434 485.02 113.837 493.065 98.1352 495.028C83.6353 496.823 70.8458 493.145 61.8777 484.706C65.8415 482.452 69.5917 481.67 73.9426 480.804C81.5399 479.283 90.9952 477.391 101.522 466.863C112.051 456.331 113.942 446.879 115.461 439.28C116.824 432.493 117.889 427.134 124.886 420.139C131.873 413.151 137.231 412.078 144.01 410.724C146.106 410.304 148.36 409.832 150.724 409.187C149.421 415.671 148.643 422.424 148.643 429.412C148.643 439.735 150.227 449.568 153.009 458.686ZM49.9956 446.887C51.9589 431.187 59.9949 415.59 72.6357 402.953C85.2807 390.32 100.87 382.276 116.571 380.313C131.063 378.494 143.869 382.183 152.836 390.643C148.865 392.897 145.119 393.663 140.779 394.53C133.183 396.05 123.736 397.933 113.208 408.461C102.68 418.989 100.789 428.445 99.2686 436.046C97.906 442.832 96.8408 448.19 89.8453 455.186C82.8539 462.178 77.4904 463.254 70.7044 464.61C65.5019 465.649 59.3818 466.92 52.6608 470.992C49.8624 463.896 48.8942 455.715 49.9956 446.888V446.887ZM140.102 495.476C144.893 492.113 149.478 488.331 153.748 484.064C156.15 481.661 158.328 479.068 160.477 476.448C164.537 483.751 169.546 490.15 175.235 495.476H140.102ZM280.233 439.412C295.528 432.88 311.688 429.412 328.426 429.412H332.217C378.643 429.412 420.154 454.997 441.247 495.476H254.177C268.257 482.294 278.012 462.311 280.233 439.412Z" fill="black"/>
<path d="M363.349 462.444H379.865V478.96H363.349V462.444ZM289.028 462.444H305.544V478.96H289.028V462.444Z" fill="black"/>
</svg>
