<svg width="512" height="431" viewBox="0 0 512 431" fill="none" xmlns="http://www.w3.org/2000/svg">
<path d="M251.787 101.404C254.907 103.285 258.48 104.279 262.122 104.28C265.695 104.28 269.269 103.321 272.455 101.404C301.197 84.112 310.414 74.985 316.797 67.787C325.336 58.159 329.488 48.653 329.488 38.725C329.488 17.372 312.116 7.88768e-07 290.763 7.88768e-07C285.371 -0.00065653 280.037 1.12541 275.105 3.30604C270.173 5.48667 265.75 8.67375 262.121 12.663C258.493 8.67341 254.071 5.4861 249.138 3.30545C244.206 1.12479 238.872 -0.00108788 233.479 7.88768e-07C212.126 7.88768e-07 194.754 17.372 194.754 38.725C194.754 48.652 198.905 58.158 207.444 67.787C213.828 74.985 223.046 84.113 251.787 101.404ZM233.479 15C238.104 15.0007 242.628 16.3529 246.494 18.8903C250.361 21.4276 253.401 25.0396 255.242 29.282C255.825 30.6223 256.786 31.7632 258.008 32.5647C259.23 33.3661 260.659 33.793 262.12 33.793C263.582 33.793 265.011 33.3661 266.233 32.5647C267.455 31.7632 268.416 30.6223 268.998 29.282C270.84 25.0396 273.881 21.4277 277.747 18.8903C281.614 16.353 286.138 15.0008 290.762 15C303.844 15 314.487 25.643 314.487 38.725C314.487 44.821 311.572 51.072 305.574 57.834C299.927 64.201 291.648 72.35 264.721 88.55C263.936 89.0235 263.037 89.2737 262.12 89.2737C261.204 89.2737 260.304 89.0235 259.519 88.55C232.593 72.35 224.313 64.201 218.666 57.834C212.669 51.072 209.753 44.821 209.753 38.725C209.754 25.644 220.397 15 233.479 15ZM399.651 100.533H343.729C329.507 100.533 317.937 112.104 317.937 126.325C317.937 140.547 329.507 152.117 343.729 152.117H368.253C373.257 152.117 377.328 156.188 377.328 161.192V162.02C377.328 164.009 378.119 165.917 379.525 167.323C380.932 168.73 382.839 169.52 384.828 169.52C386.818 169.52 388.725 168.73 390.132 167.323C391.538 165.917 392.328 164.009 392.328 162.02V161.192C392.328 147.917 381.528 137.117 368.253 137.117H343.729C337.778 137.117 332.937 132.276 332.937 126.325C332.937 120.374 337.778 115.533 343.729 115.533H399.651C413.139 115.533 424.113 104.559 424.113 91.071C424.113 77.583 413.139 66.609 399.651 66.609H378.413C376.424 66.609 374.517 67.3992 373.11 68.8057C371.704 70.2122 370.913 72.1199 370.913 74.109C370.913 76.0981 371.704 78.0058 373.11 79.4123C374.517 80.8188 376.424 81.609 378.413 81.609H399.651C404.868 81.609 409.113 85.854 409.113 91.071C409.113 96.288 404.868 100.533 399.651 100.533Z" fill="black"/>
<path d="M509.77 334.492C508.508 332.52 506.77 330.899 504.715 329.777C502.66 328.656 500.356 328.071 498.015 328.076H438.563C451.121 314.263 458.256 296.198 458.256 276.949V267.723C480.438 266.36 498.07 247.89 498.07 225.371V205.632C498.07 199.178 492.819 193.927 486.365 193.927H458.209C457.721 187.416 452.28 182.264 445.646 182.264H310.443C303.489 182.264 297.832 187.921 297.832 194.875V234.842C292.553 233.405 287.154 232.451 281.702 231.994C280.903 226.161 278.526 220.656 274.827 216.075C271.128 211.494 266.248 208.01 260.714 206C236.471 197.133 209.961 196.468 185.367 203.965L194.572 116.961C194.993 112.98 193.699 108.991 191.022 106.015C188.345 103.039 184.513 101.333 180.51 101.333H110.063C108.074 101.333 106.167 102.123 104.76 103.53C103.353 104.936 102.563 106.844 102.563 108.833C102.563 110.822 103.353 112.73 104.76 114.136C106.167 115.543 108.074 116.333 110.063 116.333H179.555L174.751 161.746H56.9133L52.1083 116.333H80.0623C82.0514 116.333 83.9591 115.543 85.3656 114.136C86.7721 112.73 87.5623 110.822 87.5623 108.833C87.5623 106.844 86.7721 104.936 85.3656 103.53C83.9591 102.123 82.0514 101.333 80.0623 101.333H51.1543C49.1721 101.334 47.2122 101.752 45.4014 102.558C43.5906 103.365 41.9693 104.542 40.6423 106.015C39.3176 107.49 38.3171 109.226 37.7056 111.111C37.0941 112.997 36.8852 114.99 37.0923 116.961L59.4263 328.074H13.9843C11.6435 328.069 9.33912 328.654 7.28442 329.775C5.22971 330.897 3.49106 332.518 2.22932 334.49C0.958714 336.456 0.204364 338.71 0.0360408 341.045C-0.132283 343.38 0.290856 345.719 1.26632 347.847C1.52632 348.416 1.85532 348.951 2.24832 349.439L36.4453 391.932C37.6591 394.106 39.4305 395.918 41.5771 397.18C43.7237 398.443 46.168 399.11 48.6583 399.114H89.0593V411.639C89.0593 422.084 97.5573 430.582 108.002 430.582H142.078C152.523 430.582 161.021 422.084 161.021 411.639V399.114H178.154C180.143 399.114 182.051 398.324 183.458 396.917C184.864 395.511 185.654 393.603 185.654 391.614C185.654 389.625 184.864 387.717 183.458 386.311C182.051 384.904 180.143 384.114 178.154 384.114H49.2823C49.0839 383.765 48.8579 383.433 48.6063 383.121L16.3793 343.077H495.62L463.392 383.123C463.141 383.435 462.915 383.767 462.716 384.116H208.154C206.165 384.116 204.258 384.906 202.851 386.313C201.444 387.719 200.654 389.627 200.654 391.616C200.654 393.605 201.444 395.513 202.851 396.919C204.258 398.326 206.165 399.116 208.154 399.116H350.978V411.641C350.978 422.086 359.476 430.584 369.921 430.584H403.997C414.442 430.584 422.94 422.086 422.94 411.641V399.116H463.341C468.427 399.116 473.106 396.331 475.554 391.935L509.751 349.442C510.144 348.954 510.474 348.419 510.733 347.85C511.709 345.722 512.132 343.382 511.964 341.048C511.795 338.713 511.041 336.458 509.77 334.492ZM146.021 399.116V411.641C146.02 412.686 145.604 413.689 144.865 414.428C144.126 415.167 143.124 415.583 142.078 415.584H108.002C106.957 415.583 105.955 415.167 105.216 414.428C104.476 413.689 104.061 412.686 104.059 411.641V399.116H146.021ZM483.07 225.373C483.07 239.617 472.159 251.362 458.256 252.689V208.929H483.07V225.373ZM443.256 197.265V276.949C443.256 297.684 432.947 316.714 415.634 328.076H349.619C350.513 311.303 344.804 294.702 333.651 282.021L321.432 268.13L321.761 266.35C322.61 261.804 322.23 257.115 320.661 252.765C319.091 248.415 316.388 244.564 312.832 241.608V197.265H443.256ZM310.358 328.077L317.965 286.901L322.388 291.929C331.126 301.863 335.507 314.932 334.591 328.077H310.358ZM265.618 328.077L280.604 246.956C287.21 247.523 293.712 248.963 299.939 251.238C302.395 252.13 304.454 253.865 305.749 256.134C307.045 258.403 307.492 261.058 307.011 263.626L295.105 328.077H265.618ZM143.608 328.077L131.702 263.626C131.222 261.058 131.67 258.403 132.965 256.134C134.26 253.865 136.32 252.13 138.775 251.238C145.384 248.82 152.3 247.343 159.319 246.85L174.325 328.077H143.608ZM104.122 328.077C103.205 314.932 107.586 301.865 116.325 291.929L120.748 286.901L128.355 328.077H104.122ZM255.562 220.089C259.432 221.495 262.677 224.229 264.718 227.805C266.759 231.38 267.464 235.564 266.707 239.611L250.474 327.481H189.468L173.235 239.611C172.478 235.564 173.183 231.38 175.225 227.804C177.266 224.229 180.511 221.495 184.38 220.089C207.365 211.694 232.578 211.694 255.562 220.089ZM58.5003 176.748H173.163L169.516 211.219C169.502 211.354 169.501 211.488 169.494 211.622C163.371 216.755 159.368 223.975 158.257 231.888C149.84 232.48 141.547 234.251 133.622 237.15C127.834 239.253 122.981 243.343 119.928 248.691C116.875 254.038 115.821 260.297 116.953 266.35L117.288 268.165C117.158 268.293 117.027 268.42 116.904 268.559L105.063 282.021C93.9083 294.703 88.2003 311.302 89.0953 328.076H74.5103L58.5003 176.748ZM407.94 411.641C407.939 412.686 407.523 413.689 406.784 414.428C406.045 415.167 405.043 415.583 403.997 415.584H369.921C368.876 415.583 367.874 415.167 367.135 414.428C366.396 413.689 365.98 412.686 365.978 411.641V399.116H407.941L407.94 411.641Z" fill="black"/>
</svg>
