<svg width="512" height="433" viewBox="0 0 512 433" fill="none" xmlns="http://www.w3.org/2000/svg">
<path d="M501 347.623C492.7 339.323 480.9 335.523 468 336.923C459.3 337.923 450.7 341.223 443 346.423L408.9 141.623C417.6 138.223 423.8 129.623 423.8 119.723V71.6232C423.8 58.6232 413.2 48.1232 400.3 48.1232H394.9C397.7 33.9232 394.2 20.3232 384.8 11.0232C376.5 2.72322 364.7 -1.07678 351.8 0.323217C339.5 1.72322 327.4 7.72322 317.9 17.3232C309.2 26.0232 303.4 37.0232 301.4 48.1232H270.2C268.6 21.3232 250 0.0232182 227.4 0.0232182C211.3 0.0232182 197.3 10.7232 189.9 26.5232C189.1 25.3232 188.3 24.1232 187.4 22.9232C170.2 0.12322 140.9 -6.87678 122 7.42322C110 16.5232 104.7 31.9232 107.5 48.5232C96.6 50.6232 88.3 60.1232 88.3 71.6232V119.723C88.3 129.723 94.5 138.223 103.2 141.623L68.6 348.923C63.3 347.423 57.7 346.623 51.8 346.623C23.2 346.623 0 365.823 0 389.523C0 413.223 23.2 432.423 51.8 432.423C54.7 432.423 57.6 432.223 60.5 431.823H144.8C155.6 431.823 165.3 428.023 172.5 420.823C180.8 412.523 184.6 400.723 183.2 387.823C181.8 375.523 175.8 363.423 166.2 353.923C156.6 344.323 144.6 338.323 132.3 336.923C119.3 335.523 107.6 339.323 99.3 347.623C95.5 351.423 92.6 356.023 90.7 361.123C88.4 358.923 85.7 356.923 82.9 355.123L112.9 175.323H208.1V160.323H115.4L118.2 143.323H288.2V128.323H111.7C107 128.323 103.2 124.523 103.2 119.823V71.7232C103.2 67.0232 107 63.2232 111.7 63.2232H400.3C405 63.2232 408.8 67.0232 408.8 71.7232V119.823C408.8 124.523 405 128.323 400.3 128.323H304.1V143.323H393.9L396.7 160.323H304V175.323H399.2L429.7 358.623C422.6 367.323 418.2 377.523 417 387.823C415.8 398.823 418.3 408.923 424.2 416.823H191.9V431.823H454.8C456.8 431.823 458.8 431.723 460.8 431.523C473.1 430.123 485.2 424.123 494.7 414.523C504.3 404.923 510.3 392.923 511.7 380.623C513.1 367.723 509.3 356.023 501 347.623ZM51.8 361.623C68.6 361.623 82.9 370.223 87.2 382.023H16.4C20.7 370.223 34.9 361.623 51.8 361.623ZM16.4 397.023H87.2C82.9 408.723 68.6 417.423 51.8 417.423C35 417.423 20.7 408.823 16.4 397.023ZM99 407.123C100.9 409.723 103.1 412.223 105.4 414.623C106.2 415.423 106.9 416.123 107.7 416.823H91.7C94.6 413.923 97.1 410.623 99 407.123ZM141 416.623C132.1 415.623 123.2 411.123 116 404.023C108.8 396.823 104.4 388.023 103.4 379.023C102.8 373.723 103.5 368.723 105.4 364.623L155.4 414.623C151.3 416.523 146.3 417.223 141 416.623ZM126.9 351.723C128.1 351.723 129.3 351.823 130.5 351.923C139.4 352.923 148.3 357.423 155.5 364.523C162.7 371.723 167.1 380.523 168.1 389.523C168.7 394.823 168 399.823 166.1 403.923L116.1 353.923C119.3 352.423 123 351.723 126.9 351.723ZM378.5 27.9232C381.1 33.7232 381.5 40.8232 379.4 48.1232H358.3L378.5 27.9232ZM328.5 27.9232C335.7 20.7232 344.5 16.3232 353.5 15.3232C358.8 14.7232 363.8 15.4232 367.9 17.3232L337 48.1232H316.6C318.5 40.8232 322.6 33.7232 328.5 27.9232ZM255 48.1232H234.8V16.4232C245.7 20.4232 253.9 32.9232 255 48.1232ZM219.8 16.4232V48.1232H199.6C200.7 32.9232 208.9 20.4232 219.8 16.4232ZM175.3 32.0232C179 36.9232 181.7 42.5232 183.1 48.1232H161.9L137.7 16.0232C149.7 12.4232 165.2 18.5232 175.3 32.0232ZM125.7 25.0232L143.1 48.0232H122.6C120.6 39.4232 121.8 31.1232 125.7 25.0232ZM469.7 351.923C470.9 351.823 472.1 351.723 473.3 351.723C477.3 351.723 480.9 352.523 484.2 353.923L434.2 403.923C432.3 399.723 431.6 394.823 432.2 389.523C433.2 380.623 437.7 371.723 444.8 364.523C451.8 357.423 460.7 352.923 469.7 351.923ZM496.8 379.023C495.8 387.923 491.3 396.823 484.2 404.023C477 411.223 468.2 415.623 459.2 416.623C457.9 416.723 456.6 416.823 455.3 416.823C451.4 416.823 447.9 416.023 444.7 414.623L494.7 364.623C496.6 368.723 497.4 373.623 496.8 379.023Z" fill="black"/>
<path d="M215.9 272.523H231.9V287.523H215.9V272.523ZM248 272.523H264V287.523H248V272.523ZM280 272.523H296V287.523H280V272.523Z" fill="black"/>
</svg>
