<svg width="600" height="582" viewBox="0 0 600 582" fill="none" xmlns="http://www.w3.org/2000/svg">
<path d="M353.331 317.857V426.389C406.375 473.865 371.333 564.755 299.999 564.023C227.926 564.724 193.268 472.309 247.842 425.366V318.076H230.264V353.085H0V370.663H230.264V417.991C171.226 476.836 216.524 583.282 300.002 581.6C382.696 583.259 428.321 478.516 370.909 419.202V370.663H510.938V353.085H370.909V335.507H600V317.928L353.331 317.857Z" fill="black"/>
<path d="M0 317.928H212.109V335.507H0V317.928ZM563.672 353.085H600V370.663H563.672V353.085ZM528.516 353.085H546.095V370.663H528.516V353.085ZM18.75 405.236H36.3281V422.814H18.75V405.236ZM53.9062 440.975H71.4844V458.553H53.9062V440.975ZM89.0625 405.236H106.641V422.814H89.0625V405.236ZM159.375 405.236H176.953V422.814H159.375V405.236ZM124.219 440.975H141.797V458.553H124.219V440.975ZM423.047 405.236H440.625V422.814H423.047V405.236ZM458.203 440.975H475.781V458.553H458.203V440.975ZM493.359 405.236H510.938V422.814H493.359V405.236ZM563.672 405.236H581.25V422.814H563.672V405.236ZM528.516 440.975H546.094V458.553H528.516V440.975ZM240.5 499.323C253.968 559.88 342.66 562.536 358.748 501.923C365.048 480.056 359.974 451.386 335.225 434.448V361.873C336.418 235.76 355.08 136.284 443.132 17.6648L422.579 0C314.412 101.525 268.357 236.293 264.646 386.59V434.551C243.768 449.009 234.333 473.854 240.5 499.323ZM282.803 444.131V399.795C283.398 258.39 321.374 139.298 401.302 47.5535C333.904 153.466 317.891 253.828 317.891 377.659V444.511C361.35 465.724 347.101 529.225 298.334 528.839C254.044 525.987 241.975 464.099 282.803 444.131ZM432.281 203.551V221.129H449.859V238.707H467.438V221.129H485.016V203.551H467.438V185.973H449.859V203.551H432.281ZM502.282 150.817H519.86V168.395H502.282V150.817ZM502.282 256.247H519.86V273.825H502.282V256.247ZM97.9852 106.889H115.563V124.467H97.9852V106.889ZM97.9852 219.548H115.563V237.127H97.9852V219.548ZM149.761 204.11L176.953 253.828L204.145 204.11L253.863 176.918L204.145 149.726L176.953 100.008L149.761 149.726L100.043 176.918L149.761 204.11ZM162.713 162.679L176.953 136.641L191.194 162.679L217.23 176.918L191.194 191.157L176.953 217.195L162.713 191.157L136.676 176.918L162.713 162.679Z" fill="black"/>
</svg>
