<svg width="475" height="512" viewBox="0 0 475 512" fill="none" xmlns="http://www.w3.org/2000/svg">
<path d="M466.701 235.855C456.985 224.988 441.523 222.203 428.906 227.985C415.922 208.68 389.016 209.629 376.406 222.762L306.488 295.539L232.152 284.973L273.23 251.605C276.944 248.596 279.836 244.697 281.637 240.27H312.336C334.164 240.27 351.926 222.508 351.926 200.68V146.895C356.976 149.012 376.633 156.461 391.34 137.825C402.488 123.699 399.965 103.004 386.012 91.922L279.27 7.14C267.285 -2.38 250.547 -2.38 238.563 7.14L173.547 58.78C170.301 61.354 169.762 66.073 172.336 69.32C173.575 70.8765 175.38 71.8779 177.356 72.104C179.333 72.3301 181.318 71.7626 182.875 70.526L247.891 18.886C254.383 13.729 263.453 13.729 269.938 18.886L376.68 103.667C384.363 109.769 385.406 120.597 379.477 128.644C370.007 141.491 356.074 132.565 354.633 131.424L263.582 59.101C262.255 58.0481 260.611 57.475 258.916 57.475C257.222 57.475 255.578 58.0481 254.25 59.101L163.195 131.425C155.543 137.503 144.223 136.339 138.297 128.569C129.809 117.449 137.441 106.612 141.148 103.667L156.391 91.562C157.949 90.3245 158.952 88.5189 159.178 86.5423C159.404 84.5658 158.836 82.5802 157.599 81.0225C156.361 79.4648 154.556 78.4624 152.579 78.2359C150.603 78.0095 148.617 78.5775 147.059 79.815L131.82 91.922C124.977 97.359 110.672 117.938 126.55 137.898C141.066 156.152 161.547 149.262 165.906 147.242V200.68C165.906 207.531 167.629 214.094 170.863 219.898C153.227 226.496 137.32 237.539 125.074 251.922L76.5825 308.867L20.0865 340.129C10.9655 345.176 4.36348 353.477 1.50848 363.5C-1.35152 373.527 -0.116525 384.059 4.97348 393.156L60.3595 492.136C67.4535 504.81 80.7735 512 94.4455 512C100.859 512.005 107.173 510.408 112.813 507.355L150.738 486.835C160.211 481.711 167.188 472.793 169.887 462.367C172.582 451.937 170.805 440.754 165.007 431.68L90.7165 315.406L136.493 261.648C150.021 245.762 168.696 234.555 189.056 230.102L252.38 216.449C258.911 215.25 262.997 218.461 263.54 218.918C263.689 219.07 263.704 219.07 263.9 219.234C265.427 220.5 266.652 222.091 267.487 223.889C268.322 225.688 268.746 227.65 268.728 229.633C268.719 231.615 268.27 233.57 267.413 235.357C266.555 237.144 265.312 238.718 263.771 239.965L209.361 284.16C208.23 285.081 207.392 286.311 206.95 287.701C206.507 289.091 206.479 290.579 206.869 291.984C207.259 293.39 208.05 294.651 209.145 295.614C210.24 296.577 211.593 297.2 213.036 297.406L327.716 313.707C334.547 314.685 341.508 314.16 348.115 312.167C354.721 310.175 360.812 306.764 365.962 302.172L430.841 244.442C438.032 238.043 449.099 238.676 455.513 245.852C458.387 249.06 459.974 253.215 459.972 257.522C459.97 261.828 458.378 265.982 455.501 269.187L382.458 350.703C369.958 364.656 352.938 374.297 334.548 377.855L182.048 407.348C181.081 407.534 180.16 407.91 179.337 408.453C178.515 408.995 177.808 409.695 177.256 410.511C176.704 411.327 176.319 412.244 176.121 413.21C175.924 414.175 175.919 415.17 176.106 416.137C176.802 419.723 179.06 422.879 184.896 422.074L337.396 392.582C358.986 388.406 378.958 377.09 393.63 360.715L466.673 279.195C477.735 266.848 477.748 248.219 466.701 235.855ZM155.362 458.61C153.682 465.11 149.507 470.45 143.601 473.642L105.675 494.162C94.2495 500.345 79.7925 496.149 73.4485 484.814L18.0585 385.833C14.9335 380.243 14.1755 373.774 15.9335 367.614C17.6875 361.454 21.7415 356.353 27.3435 353.251L78.8745 324.739L152.362 439.759C155.979 445.415 157.046 452.11 155.362 458.61ZM185.87 215.442C185.858 215.446 185.847 215.45 185.835 215.45C182.635 211.22 180.905 206.099 180.905 200.68V136.517L258.917 74.556L336.925 136.516V200.681C336.925 214.239 325.894 225.271 312.335 225.271H303.266V158.56C303.266 142.103 289.874 128.716 273.417 128.716H244.413C227.956 128.716 214.565 142.103 214.565 158.56V209.259L185.87 215.442ZM249.507 201.728C249.444 201.739 249.382 201.751 249.319 201.767L229.562 206.024V158.56C229.562 150.376 236.222 143.716 244.409 143.716H273.417C281.604 143.716 288.266 150.376 288.266 158.56V225.27H283.405C282.385 218.524 274.436 197.345 249.507 201.728ZM355.991 290.966C352.467 294.105 348.299 296.437 343.78 297.799C339.262 299.162 334.5 299.523 329.827 298.856L324.788 298.142L387.222 233.153C394.198 225.892 411.179 227.067 416.761 236.892L355.991 290.966Z" fill="black"/>
<path d="M81.2705 463.555C84.8165 469.809 90.5865 474.309 97.5165 476.223C99.9025 476.883 102.305 477.199 104.672 477.199C116.477 477.199 127.332 469.359 130.625 457.445C132.539 450.515 131.641 443.254 128.094 437C124.547 430.746 118.777 426.25 111.848 424.336C104.918 422.422 97.6565 423.32 91.4025 426.863C85.1485 430.414 80.6525 436.18 78.7385 443.109C76.8245 450.043 77.7235 457.301 81.2705 463.555ZM93.1955 447.105C93.6088 445.596 94.317 444.183 95.2792 442.949C96.2414 441.715 97.4385 440.684 98.8015 439.915C100.161 439.14 101.661 438.641 103.214 438.449C104.768 438.256 106.344 438.373 107.851 438.793C109.362 439.206 110.775 439.914 112.01 440.877C113.244 441.84 114.276 443.039 115.043 444.403C115.819 445.762 116.318 447.261 116.51 448.814C116.703 450.367 116.585 451.942 116.164 453.449V453.453C115.752 454.963 115.044 456.376 114.082 457.611C113.12 458.845 111.923 459.876 110.559 460.645C109.2 461.421 107.7 461.919 106.146 462.112C104.593 462.304 103.016 462.186 101.508 461.765C99.9982 461.353 98.5847 460.644 97.3502 459.682C96.1156 458.719 95.0844 457.52 94.3165 456.156C93.5406 454.797 93.0421 453.297 92.8498 451.743C92.6576 450.19 92.7754 448.614 93.1965 447.106L93.1955 447.105Z" fill="black"/>
</svg>
