<svg width="512" height="512" viewBox="0 0 512 512" fill="none" xmlns="http://www.w3.org/2000/svg">
<path d="M511.782 470.126C511.777 470.063 511.771 470 511.763 469.938C493.811 309.511 494.78 316.311 493.411 309.649C489.028 288.46 472.057 273.963 452.454 269.008L404.429 257.053V254.742H449.548C460.251 254.742 468.974 246.101 469.107 235.429L474.721 140.283C474.779 139.299 474.643 138.314 474.32 137.383C473.997 136.452 473.494 135.594 472.84 134.858C472.185 134.122 471.392 133.521 470.506 133.091C469.62 132.662 468.657 132.411 467.674 132.353C463.518 132.087 459.988 135.263 459.744 139.399C453.872 239.014 454.106 234.748 454.106 235.181C454.106 237.652 452.018 239.74 449.547 239.74H404.429V237.798C408.443 235.828 412.449 233.166 412.047 233.425C425.485 224.735 436.048 212.335 442.182 199.097C453.176 175.953 449.502 157.853 450.225 145.98C450.225 137.962 443.955 131.413 435.951 131.069H435.95C381.05 128.715 352.68 97.5846 345.294 88.1006C340.347 81.7466 330.923 81.5176 325.622 87.4266C314.681 99.6156 302.305 103.464 295.9 104.673C288.688 106.036 283.454 112.365 283.454 119.722C283.482 165.437 283.393 163.205 283.523 166.635C283.612 168.897 283.835 171.744 284.15 174.181C289.594 216.153 323.417 234.58 321.938 233.624C324.882 235.533 327.018 236.635 328.957 237.655V239.741H285.164C282.693 239.741 280.605 237.654 280.605 235.182C280.605 234.772 274.555 132.386 274.527 132.144C274.438 131.365 266.152 54.0956 309.536 44.5596C311.719 44.0796 313.549 42.7006 314.571 40.7116C315.331 39.2836 333.886 5.88064 392.968 17.3836C393.261 17.4406 395.835 18.2806 396.057 18.3536C449.48 36.0486 457.534 85.5516 457.895 86.2086C459.335 92.6126 460.005 98.8236 460.113 104.968C460.185 109.11 463.627 112.369 467.744 112.337C468.729 112.32 469.701 112.109 470.604 111.716C471.508 111.323 472.325 110.756 473.009 110.048C473.693 109.339 474.231 108.503 474.592 107.586C474.953 106.669 475.13 105.691 475.113 104.706C474.969 96.4946 473.919 88.6686 472.327 82.0426C472.113 81.7116 461.651 23.9006 400.871 4.14364C398.474 3.35664 397.129 2.90864 395.834 2.65664C349.528 -6.36236 317.833 9.08164 303.159 30.6976C281.027 36.9816 266.527 56.7176 261.135 88.0076C257.281 110.368 259.331 131.119 259.603 133.628C266.63 242.158 264.222 238.064 268.283 245.01C260.176 243.724 254.69 244.159 254.127 244.125H254.022C250.949 244.556 228.147 244.184 207.273 263.076L201.301 261.59L183.06 252.858V237.634C230.218 214.055 228.497 163.383 228.53 163.283C249.046 158.813 258.578 138.027 247.424 122.393C247.425 122.22 247.455 105.556 247.327 97.8676C244.56 30.9856 178.084 -17.3324 110.756 5.91364C76.0929 18.2976 52.1139 47.9526 44.6629 83.0296C44.5079 83.8416 44.1059 86.0806 44.0489 86.5636C42.7919 94.6876 42.5859 101.538 42.8509 122.393C31.6889 138.035 41.2369 158.817 61.7479 163.284C62.1709 198.376 81.9059 224.813 107.578 237.811L107.577 252.686L88.5839 261.778C66.5269 268.284 49.4769 267.861 32.5079 284.065C31.3089 285.219 30.1049 286.565 30.2259 286.434C21.6839 296.299 18.7899 305.305 17.2619 317.859L0.242859 469.936C0.234859 470 0.228859 470.065 0.222859 470.129C0.0483003 472.148 -0.0237922 474.174 0.00685895 476.201C-0.210141 495.364 13.1709 511.993 35.2599 511.993H103.497C104.482 511.993 105.457 511.799 106.368 511.422C107.278 511.045 108.105 510.493 108.801 509.796C109.498 509.099 110.05 508.272 110.427 507.362C110.804 506.452 110.998 505.477 110.998 504.492C110.998 503.507 110.804 502.531 110.427 501.621C110.05 500.711 109.498 499.884 108.801 499.187C108.105 498.491 107.278 497.938 106.368 497.561C105.457 497.184 104.482 496.991 103.497 496.991H72.6469L80.0839 356.309C80.1359 355.325 79.9937 354.341 79.6653 353.412C79.3369 352.483 78.8287 351.628 78.1699 350.896C77.511 350.164 76.7144 349.568 75.8254 349.144C74.9364 348.72 73.9726 348.474 72.9889 348.423C68.8609 348.177 65.3219 351.38 65.1029 355.518L63.5389 385.107L25.2789 381.093C25.2899 380.985 32.3459 316.362 33.6299 311.198C40.5859 283.83 70.2789 282.634 88.6709 277.215L111.731 306.733C113.125 308.514 114.905 309.955 116.939 310.946C118.972 311.938 121.204 312.453 123.466 312.454C131.808 312.454 135.43 306.16 137.633 304.427V340.724C137.633 344.867 140.99 348.225 145.134 348.225C149.278 348.225 152.635 344.868 152.635 340.724V304.429C154.771 306.108 158.79 312.96 167.681 312.429C177.568 311.845 180.468 303.103 185.847 297.374C182.313 310.451 183.208 315.019 182.983 324.11C175.407 332.095 173.604 343.6 179.231 353.319C174.629 359.868 170.715 365.121 165.61 378.163C162.62 385.792 159.927 392.121 164.026 399.163C169.227 408.095 178.43 406.691 186.657 409.18C190.028 409.878 193.495 409.279 196.483 407.335C207.114 400.427 199.583 391.486 202.94 376.325C205.392 382.431 208.308 386.636 208.177 386.43C217.555 400.09 226.201 403.749 227.383 404.761L227.384 404.76C227.5 404.826 227.845 405.05 228.995 405.682V415.034C202.322 421.677 193.304 423.159 185.644 428.48C182.849 430.433 180.621 432.502 180.912 432.241C173.079 439.398 171.35 446.963 171.085 447.512V447.513L171.084 447.515V447.516C168.372 456.315 169.188 461.853 164.674 496.992H138.499C137.514 496.992 136.538 497.185 135.628 497.562C134.718 497.939 133.891 498.492 133.195 499.188C132.498 499.885 131.945 500.712 131.569 501.622C131.192 502.532 130.998 503.508 130.998 504.493C130.998 505.478 131.192 506.453 131.569 507.363C131.945 508.273 132.498 509.1 133.195 509.797C133.891 510.493 134.718 511.046 135.628 511.423C136.538 511.8 137.514 511.994 138.499 511.994H374.922C375.907 511.994 376.882 511.8 377.793 511.423C378.703 511.046 379.53 510.493 380.226 509.797C380.923 509.1 381.475 508.273 381.852 507.363C382.229 506.453 382.423 505.478 382.423 504.493C382.423 503.508 382.229 502.532 381.852 501.622C381.475 500.712 380.923 499.885 380.226 499.188C379.53 498.492 378.703 497.939 377.793 497.562C376.882 497.185 375.907 496.992 374.922 496.992H348.404C343.766 455.89 344.357 448.957 338.039 439.168C327.373 422.769 309.75 421.426 284.082 415.035V405.788C285.221 405.171 285.777 404.824 285.888 404.76L285.889 404.761C286.15 404.565 292.443 401.114 298.79 394.453C303.935 388.97 307.694 382.89 310.332 376.325C311.937 383.576 311.081 390.125 310.772 395.471C310.424 401.441 314.044 406.617 319.265 408.605C324.195 410.483 327.078 408.991 338.866 406.64C341.57 406.078 344.079 404.812 346.138 402.971C348.198 401.131 349.736 398.779 350.597 396.155C352.229 391.166 351.001 387.497 349.73 383.795C346.095 373.22 340.93 362.181 334.042 353.32C338.3 345.964 338.456 337.212 334.344 329.67C347.368 325.928 359.744 316.5 366.675 310.498C406.051 344.656 439.315 337.923 442.039 281.871C443.58 282.582 473.223 286.088 478.722 312.684C480.339 320.498 480.306 325.521 486.728 381.074L448.768 385.057L447.207 355.518C446.988 351.38 443.412 348.179 439.321 348.423C438.337 348.474 437.373 348.72 436.484 349.144C435.595 349.568 434.799 350.164 434.14 350.896C433.481 351.628 432.973 352.483 432.644 353.412C432.316 354.341 432.174 355.325 432.226 356.309L439.663 496.991H409.928C408.943 496.991 407.967 497.184 407.057 497.561C406.147 497.938 405.32 498.491 404.624 499.187C403.927 499.884 403.375 500.711 402.998 501.621C402.621 502.531 402.427 503.507 402.427 504.492C402.427 505.477 402.621 506.452 402.998 507.362C403.375 508.272 403.927 509.099 404.624 509.796C405.32 510.493 406.147 511.045 407.057 511.422C407.967 511.799 408.943 511.993 409.928 511.993H476.75C497.469 511.994 514.104 496.979 511.782 470.126ZM62.2869 400.06L57.4179 496.992C39.6799 496.035 28.8039 499.745 20.8529 491.685C17.4279 488.213 15.1699 483.167 15.0079 476.059C14.9139 470.762 15.2239 472.358 23.6119 396.003L62.2869 400.06ZM298.454 163.359V119.72C298.454 119.566 298.551 119.436 298.683 119.411C306.609 117.915 321.588 113.322 335.053 99.3076C347.118 113.991 378.336 143.581 435.224 146.051C435.205 161.753 435.557 167.388 434.217 175.13C430.569 196.094 418.307 208.166 418.081 208.631C389.114 241.868 348.845 229.312 348.744 229.315C314.201 218.654 298.454 190.194 298.454 163.359ZM328.955 254.739V257.05H328.956L305.732 262.831C302.574 260.074 299.296 257.451 294.795 254.738L328.955 254.739ZM228.522 147.626V125.999C239.977 130.726 239.979 142.9 228.522 147.626ZM61.7489 147.628C50.2879 142.903 50.2849 130.725 61.7489 125.998V147.628ZM68.2309 109.56C64.6946 109.654 61.1935 110.288 57.8489 111.441C58.1629 103.671 54.1059 66.3946 87.2089 36.9806L87.3109 36.8906C118.11 9.61664 152.694 15.6136 153.66 15.3996C192.059 19.1406 227.118 48.2516 232.163 95.5516C232.516 100.257 232.4 103.789 232.417 111.44C229.073 110.287 225.573 109.653 222.038 109.559C217.006 106.679 213.276 101.858 211.656 94.6216C210.456 88.8316 212.109 81.7816 204.467 75.4056C191.283 64.4056 178.632 80.0226 114.623 73.2076L100.427 71.3516C90.0369 69.7336 79.5839 77.2066 79.2379 89.2836C79.2122 89.9028 79.1729 90.5212 79.1199 91.1386C77.8799 105.238 68.4679 109.17 68.2309 109.56ZM78.7799 179.974C75.1539 164.034 77.5889 160.604 76.7499 121.939C77.0399 121.5 93.5479 113.182 94.2569 89.2826C94.4989 79.6786 111.656 96.8726 192.15 86.1746C194.125 85.8626 195.964 87.3316 196.013 89.2776C196.567 108.958 208.403 118.086 208.087 117.785C210.884 120.387 213.41 121.858 213.517 121.938C213.521 167.559 213.667 166.69 212.949 172.246C207.49 214.17 164.851 241.838 124.031 228.413C123.926 228.342 88.2479 218.133 78.7799 179.974ZM123.477 297.4L103.28 271.547L113.44 266.685L134.387 286.406L123.477 297.4ZM145.135 275.92L122.579 254.684V243.641C137.709 247.815 153.115 247.747 167.871 243.591V254.513L145.135 275.92ZM166.792 297.4L155.883 286.405L176.95 266.569L187.087 271.421L166.792 297.4ZM187.366 394.008C177.603 391.905 176.886 392.148 176.893 391.273C176.894 391.131 181.561 375.487 190.131 363.79C190.452 363.967 190.777 364.138 191.105 364.305C188.066 371.346 186.132 380.438 187.366 394.008ZM198.834 351.353C188.302 346.773 188.348 335.626 198.834 331.068V351.353ZM291.166 432.26C305.091 435.782 314.349 437.337 319.373 441.175C330.487 449.651 328.491 454.212 333.311 496.992H313.217L312.432 482.15C312.327 480.163 311.437 478.3 309.959 476.97C308.48 475.639 306.533 474.951 304.547 475.056C303.563 475.107 302.599 475.353 301.71 475.777C300.821 476.201 300.025 476.797 299.366 477.529C298.707 478.261 298.199 479.116 297.87 480.045C297.542 480.974 297.4 481.958 297.452 482.942L298.195 496.993H215.079L215.822 482.942C215.874 481.958 215.732 480.974 215.403 480.045C215.075 479.116 214.567 478.261 213.908 477.529C213.249 476.797 212.452 476.201 211.563 475.777C210.674 475.353 209.711 475.107 208.727 475.056C204.595 474.811 201.06 478.013 200.841 482.151L200.056 496.993H179.769C185.206 448.737 183.737 460.519 184.741 454.498C188.6 436.81 206.886 436.652 222.104 432.212C222.301 434.274 222.617 435.724 222.851 436.842C222.991 437.193 223.893 442.244 227.089 447.401C237.167 462.436 255.048 466.84 269.59 460.94L269.685 460.902C283.001 455.287 289.991 443.881 291.166 432.26ZM257.34 412.7C264.132 412.618 268.558 411.443 269.081 411.363C269.396 413.198 267.051 425.842 276.343 428.553C276.301 428.772 276.585 432.669 274.454 437.158C273.255 438.675 270.814 445.761 260.452 448.075C257.929 448.57 255.596 448.417 255.696 448.42C252.862 448.287 250.705 447.536 250.805 447.565C249.605 447.165 248.419 446.743 246.924 445.888L246.842 445.84L246.8 445.814V445.813C238.716 441.404 237.169 432.18 237.433 433.179C237.283 432.277 236.849 429.98 236.931 428.496C240.799 427.256 243.998 422.948 243.998 417.367V411.322C250.921 412.955 257.963 412.7 257.34 412.7ZM299.08 360.48C297.193 375.048 288.151 383.875 288.698 383.253C284.168 388.435 278.79 391.547 279.569 391.045C273.334 394.909 268.51 396.027 269.028 395.878C259.672 398.698 249.634 398.242 240.573 394.585C217.583 385.389 214.685 363.041 214.576 362.833C213.04 355.505 214.107 341.252 213.836 327.779C224.926 329.023 244.523 328.623 256.636 313.472C268.752 328.624 288.348 329.024 299.437 327.779C299.382 356.697 299.612 356.183 299.08 360.48ZM302.375 312.159C278.698 316.947 269.419 306.284 266.529 301.477C262.045 294.016 251.233 294.005 246.741 301.477C243.852 306.283 234.581 316.945 210.892 312.159C207.728 311.519 204.376 312.403 201.885 314.824C200.57 314.994 199.285 315.242 198.03 315.555C198.243 309.716 199.263 305.54 199.242 305.64C201.274 294.933 207.595 282.985 217.366 274.163C256.125 240.303 313.484 267.435 315.243 315.556C313.972 315.237 312.684 314.992 311.385 314.824C310.216 313.675 308.784 312.831 307.213 312.366C305.641 311.902 303.98 311.83 302.375 312.159ZM314.439 351.352V331.068C324.847 335.593 325.035 346.744 314.439 351.352ZM336.345 391.072C336.367 391.143 335.471 391.948 325.906 394.007C326.807 384.095 326.35 373.961 322.167 364.304C322.495 364.137 322.82 363.966 323.141 363.789C328.957 371.736 333.323 381.697 336.345 391.072ZM330.249 315.252C330.02 308.267 328.796 301.35 326.616 294.711C333.383 299.59 340.924 303.191 348.934 305.338C343.201 309.448 336.484 313.432 330.249 315.252ZM325.734 273.311C335.695 270.792 335.669 270.933 336.75 270.442C341.127 268.461 343.957 263.413 343.957 257.586V243.551C359 247.833 375.032 247.746 389.428 243.633V257.585C389.428 264.698 393.559 269.796 397.918 270.888L398.062 270.924L407.627 273.306C385.466 299.202 347.663 298.966 325.734 273.311ZM414.437 315.394C405.712 319.036 391.982 310.822 384.315 305.287C399.347 301.212 413.462 291.691 423.515 277.261L427.172 278.171C426.549 299.07 422.088 312.204 414.437 315.394ZM491.155 491.684C483.202 499.744 472.395 496.032 454.683 496.991L449.559 400.057L488.395 395.983C497.628 481.713 496.827 467.07 497.002 476.368C497.053 480.866 495.544 487.236 491.155 491.684Z" fill="black"/>
</svg>
