<svg width="504" height="458" viewBox="0 0 504 458" fill="none" xmlns="http://www.w3.org/2000/svg">
<path d="M497 80.6106H476.848V40.1146C476.848 39.108 476.63 38.1133 476.211 37.1983C475.791 36.2833 475.179 35.4695 474.416 34.8124C473.654 34.1554 472.759 33.6704 471.792 33.3907C470.825 33.111 469.809 33.0431 468.813 33.1916C461.685 34.2566 454.027 35.4746 445.973 36.9216V7.00064C445.973 5.96191 445.741 4.93629 445.295 3.9981C444.849 3.05991 444.2 2.23265 443.395 1.57626C442.59 0.91987 441.649 0.450789 440.641 0.203005C439.632 -0.0447779 438.581 -0.0650583 437.563 0.143637C403.831 7.08064 365.872 23.7896 333.421 45.9886C297.941 70.2586 270.041 100.21 251.999 133.221C233.957 100.21 206.057 70.2586 170.577 45.9886C138.127 23.7906 100.168 7.08064 66.435 0.143637C65.4174 -0.065821 64.3659 -0.0459781 63.357 0.201722C62.348 0.449422 61.4069 0.918759 60.602 1.57564C59.7967 2.23188 59.1476 3.05921 58.7018 3.99758C58.2561 4.93594 58.0249 5.96179 58.025 7.00064V36.9216C50.4305 35.5654 42.8164 34.3219 35.185 33.1916C34.1894 33.0431 33.1734 33.111 32.2065 33.3907C31.2395 33.6704 30.3441 34.1554 29.5815 34.8124C28.8189 35.4695 28.2069 36.2833 27.7873 37.1983C27.3677 38.1133 27.1503 39.108 27.15 40.1146V80.6106H7C5.14348 80.6106 3.36301 81.3481 2.05025 82.6609C0.737498 83.9736 0 85.7541 0 87.6106V389.627C0 391.483 0.737498 393.264 2.05025 394.576C3.36301 395.889 5.14348 396.627 7 396.627H89.051C147.104 396.627 203.342 417.738 247.405 456.071C248.722 457.217 250.361 457.79 252 457.79C253.639 457.79 255.277 457.217 256.595 456.071C300.658 417.738 356.897 396.627 414.949 396.627H497C498.857 396.627 500.637 395.889 501.95 394.576C503.262 393.264 504 391.483 504 389.627V87.6106C504 85.7541 503.262 83.9736 501.95 82.6609C500.637 81.3481 498.857 80.6106 497 80.6106ZM72.026 15.7696C116.046 26.6996 168.241 53.9456 206.79 94.9336C188.912 81.9386 168.827 70.8406 146.638 61.7316C120.941 51.1826 95.235 44.3596 72.026 39.6096V15.7696ZM41.152 48.2776C90.662 56.1646 147.726 70.1486 195.848 104.155C162.563 88.7626 126.158 80.6116 89.05 80.6116H41.152V48.2776ZM245 436.019C200.313 401.498 145.498 382.627 89.051 382.627H14V94.6106H89.051C146.055 94.6106 201.303 114.98 245 152.011V436.019ZM462.848 48.2776V80.6116H414.95C377.843 80.6116 341.438 88.7626 308.152 104.155C356.274 70.1496 413.338 56.1646 462.848 48.2776ZM431.974 15.7696V39.6096C408.765 44.3606 383.059 51.1836 357.362 61.7316C335.173 70.8406 315.088 81.9386 297.21 94.9336C335.76 53.9456 387.954 26.7006 431.974 15.7696ZM490 382.627H414.949C358.502 382.627 303.687 401.498 259 436.019V152.011C302.698 114.98 357.945 94.6106 414.949 94.6106H490V382.627ZM70.452 190.712L34.696 211.932C33.2135 212.812 32.1078 214.208 31.5907 215.852C31.0737 217.497 31.1817 219.275 31.894 220.845L43.943 247.382C44.7097 249.07 46.1145 250.384 47.8493 251.038C49.5841 251.691 51.5073 251.63 53.197 250.868L68.132 244.126V318.8C68.132 320.656 68.8695 322.437 70.1823 323.749C71.495 325.062 73.2755 325.8 75.132 325.8H183.868C185.725 325.8 187.505 325.062 188.818 323.749C190.131 322.437 190.868 320.656 190.868 318.8V244.126L205.803 250.868C207.493 251.63 209.416 251.691 211.151 251.038C212.885 250.384 214.29 249.069 215.057 247.382L227.106 220.845C227.819 219.275 227.927 217.497 227.41 215.852C226.893 214.207 225.787 212.811 224.304 211.932L188.548 190.712C187.988 190.379 187.383 190.126 186.753 189.961L158.534 182.552L150.96 176.914C149.752 176.014 148.286 175.529 146.78 175.529H112.219C110.713 175.528 109.247 176.014 108.039 176.914L100.465 182.552L72.246 189.961C71.6156 190.126 71.0115 190.379 70.451 190.712H70.452ZM158.834 197.105L182.248 203.252L211.765 220.77L205.197 235.235L186.749 226.906C185.683 226.424 184.513 226.217 183.346 226.303C182.18 226.39 181.053 226.768 180.07 227.403C179.087 228.038 178.279 228.909 177.72 229.936C177.161 230.964 176.868 232.116 176.869 233.286V311.801H136.501V222.984H139.854C141.083 222.984 142.29 222.66 143.354 222.046C144.418 221.432 145.302 220.548 145.916 219.484L158.835 197.107L158.834 197.105ZM114.539 189.529H144.461L146.266 190.873L135.811 208.982H123.188L112.733 190.873L114.539 189.529ZM100.166 197.105L113.085 219.482C113.699 220.546 114.583 221.429 115.647 222.044C116.711 222.658 117.918 222.982 119.147 222.982H122.5V311.799H82.132V233.284C82.132 232.114 81.8389 230.963 81.2794 229.936C80.7199 228.908 79.912 228.038 78.9293 227.403C77.9467 226.769 76.8207 226.391 75.6543 226.303C74.4878 226.216 73.3181 226.422 72.252 226.904L53.804 235.233L47.236 220.768L76.753 203.25L100.167 197.103L100.166 197.105ZM299.579 172.205V316.457C299.579 317.655 299.887 318.832 300.472 319.878C301.058 320.923 301.902 321.8 302.923 322.426C303.945 323.051 305.11 323.404 306.307 323.451C307.504 323.497 308.693 323.236 309.76 322.692C346.486 303.959 384.92 296.317 442.421 296.317C443.34 296.317 444.251 296.136 445.1 295.784C445.949 295.432 446.721 294.916 447.371 294.266C448.021 293.616 448.536 292.845 448.888 291.995C449.24 291.146 449.421 290.236 449.421 289.317V138.292C449.421 137.372 449.24 136.462 448.888 135.613C448.536 134.764 448.021 133.992 447.371 133.342C446.721 132.692 445.949 132.176 445.1 131.824C444.251 131.473 443.34 131.292 442.421 131.292C390.054 131.292 346.491 133.891 302.409 166.583C301.531 167.234 300.818 168.081 300.326 169.058C299.835 170.034 299.579 171.112 299.579 172.205ZM313.579 175.771C351.447 148.845 388.548 145.558 435.421 145.308V234.08L412.068 215.551C411.327 214.963 410.475 214.532 409.563 214.283C408.651 214.033 407.698 213.971 406.762 214.1C405.825 214.229 404.924 214.547 404.114 215.033C403.303 215.52 402.599 216.166 402.045 216.932L388.152 236.14L357.188 211.571C356.447 210.983 355.595 210.552 354.683 210.303C353.771 210.053 352.818 209.991 351.882 210.12C350.945 210.249 350.044 210.567 349.234 211.053C348.423 211.54 347.719 212.186 347.165 212.952L313.578 259.383V175.771H313.579ZM313.579 283.27L354.22 227.086L400.553 263.85C401.273 264.421 402.099 264.845 402.983 265.097C403.867 265.35 404.791 265.425 405.705 265.32C406.618 265.215 407.501 264.931 408.305 264.484C409.108 264.037 409.816 263.437 410.387 262.717C410.958 261.997 411.382 261.171 411.635 260.287C411.887 259.403 411.963 258.478 411.857 257.565C411.752 256.652 411.468 255.768 411.021 254.965C410.575 254.161 409.974 253.454 409.254 252.883L399.131 244.85L409.101 231.066L435.421 251.95V282.354C384.433 282.916 347.857 289.759 313.579 305.313V283.269V283.27ZM449.421 315.065C449.421 316.921 448.684 318.702 447.371 320.014C446.058 321.327 444.278 322.065 442.421 322.065C391.236 322.065 354.92 326.276 309.663 348.489C307.996 349.307 306.073 349.429 304.316 348.829C302.559 348.229 301.113 346.955 300.295 345.289C299.477 343.622 299.355 341.699 299.955 339.942C300.555 338.185 301.828 336.739 303.495 335.921C351.204 312.505 389.128 308.066 442.421 308.066C443.34 308.066 444.251 308.247 445.1 308.598C445.949 308.95 446.721 309.466 447.371 310.116C448.021 310.766 448.536 311.538 448.888 312.387C449.24 313.236 449.421 314.146 449.421 315.066V315.065ZM449.421 340.456C449.421 342.312 448.684 344.093 447.371 345.405C446.058 346.718 444.278 347.456 442.421 347.456C391.236 347.456 354.92 351.667 309.663 373.88C307.996 374.698 306.073 374.82 304.316 374.22C302.559 373.62 301.113 372.346 300.295 370.68C299.477 369.013 299.355 367.09 299.955 365.333C300.555 363.576 301.828 362.13 303.495 361.312C351.204 337.896 389.128 333.457 442.421 333.457C443.34 333.457 444.251 333.638 445.1 333.989C445.949 334.341 446.721 334.857 447.371 335.507C448.021 336.157 448.536 336.929 448.888 337.778C449.24 338.627 449.421 339.537 449.421 340.457V340.456ZM380.465 208.3C392.856 208.3 402.936 198.22 402.936 185.829C402.936 173.438 392.856 163.357 380.465 163.357C368.074 163.357 357.993 173.438 357.993 185.829C357.993 198.22 368.074 208.3 380.465 208.3ZM380.465 177.358C385.136 177.358 388.936 181.159 388.936 185.83C388.936 190.501 385.136 194.301 380.465 194.301C375.794 194.301 371.993 190.501 371.993 185.83C371.993 181.159 375.794 177.358 380.465 177.358Z" fill="black"/>
</svg>
