<svg width="432" height="472" viewBox="0 0 432 472" fill="none" xmlns="http://www.w3.org/2000/svg">
<path d="M360 0H184C173.395 0.0119105 163.228 4.23001 155.729 11.7289C148.23 19.2278 144.012 29.395 144 40V192H120C109.395 192.012 99.228 196.23 91.7292 203.729C84.2303 211.228 80.0122 221.395 80.0003 232V332.687L56.0003 356.687L45.6573 346.343C44.9144 345.6 44.0325 345.011 43.0619 344.609C42.0912 344.207 41.0509 344 40.0003 344C38.9497 344 37.9094 344.207 36.9387 344.609C35.9681 345.011 35.0862 345.6 34.3433 346.343L2.34329 378.343C1.60038 379.086 1.01107 379.968 0.609003 380.938C0.20694 381.909 0 382.949 0 384C0 385.051 0.20694 386.091 0.609003 387.062C1.01107 388.032 1.60038 388.914 2.34329 389.657L82.3433 469.657C83.0862 470.4 83.9681 470.989 84.9387 471.391C85.9094 471.793 86.9497 472 88.0003 472C89.0509 472 90.0912 471.793 91.0619 471.391C92.0325 470.989 92.9144 470.4 93.6573 469.657L125.657 437.657C126.4 436.914 126.99 436.032 127.392 435.062C127.794 434.091 128.001 433.051 128.001 432C128.001 430.949 127.794 429.909 127.392 428.938C126.99 427.968 126.4 427.086 125.657 426.343L123.314 424L144 403.314V408C144.012 418.605 148.23 428.772 155.729 436.271C163.228 443.77 173.395 447.988 184 448H360C370.605 447.988 380.773 443.77 388.271 436.271C395.77 428.772 399.988 418.605 400 408V40C399.988 29.395 395.77 19.2278 388.271 11.7289C380.773 4.23001 370.605 0.0119105 360 0ZM88.0003 452.687L19.3143 384L40.0003 363.313L108.686 432L88.0003 452.687ZM67.3143 368L93.6573 341.657C94.4001 340.914 94.9894 340.032 95.3914 339.062C95.7934 338.091 96.0003 337.051 96.0003 336V232C96.0077 225.637 98.5386 219.537 103.038 215.038C107.537 210.538 113.637 208.007 120 208H144V245.754L121.94 240.239L118.06 255.761L136.352 260.334L122.343 274.343L133.657 285.657L173.657 245.657C176.408 242.949 180.117 241.437 183.977 241.452C187.837 241.467 191.535 243.007 194.264 245.737C196.994 248.467 198.534 252.164 198.548 256.024C198.563 259.884 197.052 263.594 194.343 266.344L154.343 306.344C153.6 307.087 153.011 307.969 152.609 308.939C152.207 309.91 152 310.95 152 312.001C152 313.052 152.207 314.092 152.609 315.063C153.011 316.033 153.6 316.915 154.343 317.658C157.803 321.117 160.547 325.224 162.419 329.744C164.292 334.264 165.255 339.109 165.255 344.001C165.255 348.893 164.292 353.738 162.419 358.258C160.547 362.778 157.803 366.885 154.343 370.344L112 412.686L67.3143 368ZM384 408C383.993 414.363 381.462 420.463 376.963 424.963C372.464 429.462 366.363 431.993 360 432H184C177.637 431.993 171.537 429.462 167.038 424.963C162.538 420.463 160.007 414.363 160 408V387.314L165.657 381.657C174.663 372.648 180.142 360.71 181.103 348.008C182.064 335.306 178.443 322.681 170.895 312.419L205.657 277.656C211.401 271.912 214.628 264.122 214.628 255.999C214.627 247.876 211.401 240.086 205.657 234.342C199.913 228.599 192.123 225.372 184 225.372C175.877 225.372 168.087 228.599 162.343 234.343L160 236.686V40C160.007 33.637 162.538 27.5367 167.038 23.0373C171.537 18.538 177.637 16.0071 184 16H360C366.363 16.0071 372.464 18.538 376.963 23.0373C381.462 27.5367 383.993 33.637 384 40V408Z" fill="black"/>
<path d="M264 400H280V416H264V400ZM280 32H296V48H280V32ZM248 32H264V48H248V32ZM200 320H344V336H200V320ZM200 352H328V368H200V352ZM216 288H344V304H216V288ZM264 256H344V272H264V256ZM232 256H248V272H232V256ZM416 104H432V304H416V104ZM416 320H432V336H416V320ZM355.151 104.646L299.151 80.646C297.682 80.0167 296.057 79.8423 294.487 80.1453C292.917 80.4483 291.474 81.2149 290.343 82.346L272 100.687L253.657 82.343C252.527 81.2119 251.084 80.4453 249.514 80.1423C247.944 79.8393 246.319 80.0137 244.849 80.643L188.849 104.643C187.102 105.392 185.678 106.738 184.834 108.441C183.989 110.144 183.778 112.093 184.239 113.937L192.239 145.937C192.754 147.995 194.065 149.765 195.884 150.856C197.703 151.948 199.881 152.272 201.939 151.758L224 146.246V216C224 218.122 224.843 220.157 226.344 221.657C227.844 223.157 229.879 224 232 224H312C314.122 224 316.157 223.157 317.657 221.657C319.158 220.157 320 218.122 320 216V146.246L342.06 151.761C344.119 152.275 346.297 151.951 348.116 150.859C349.935 149.768 351.246 147.998 351.76 145.94L359.76 113.94C360.222 112.096 360.011 110.148 359.167 108.445C358.322 106.742 356.899 105.395 355.151 104.646ZM338.179 134.3L313.94 128.24C312.761 127.945 311.53 127.923 310.341 128.175C309.152 128.427 308.036 128.947 307.078 129.695C306.119 130.443 305.344 131.4 304.811 132.492C304.278 133.585 304.001 134.784 304 136V208H240V136C240 134.784 239.723 133.585 239.19 132.492C238.657 131.399 237.882 130.443 236.924 129.695C235.966 128.946 234.849 128.426 233.66 128.174C232.471 127.922 231.24 127.944 230.06 128.239L205.821 134.299L201.414 116.669L246.173 97.486L266.343 117.657C267.086 118.4 267.968 118.989 268.939 119.391C269.91 119.793 270.95 120 272 120C273.051 120 274.091 119.793 275.062 119.391C276.033 118.989 276.915 118.4 277.657 117.657L297.827 97.486L342.586 116.669L338.179 134.3Z" fill="black"/>
</svg>
