<svg width="247" height="212" viewBox="0 0 247 212" fill="none" xmlns="http://www.w3.org/2000/svg">
<path d="M4 115.223V9.11662C4 6.30344 6.30344 4 9.11662 4H237.883C240.697 4 243 6.30344 243 9.11662V172.887C243 175.7 240.697 178.004 237.883 178.004H216.869M130.324 178.004H9.11662C6.30344 178.004 4 175.7 4 172.887V132.054M182.062 178.004H165.751" stroke="black" stroke-width="7" stroke-miterlimit="10" stroke-linecap="round" stroke-linejoin="round"/>
<path d="M227.65 66.8467V147.299C219.172 147.299 212.3 154.171 212.3 162.649H202.572M113.497 162.649H34.7092C34.7092 154.171 27.8374 147.299 19.3594 147.299V34.7043C27.8374 34.7043 34.7092 27.8325 34.7092 19.3545H212.3C212.3 27.8325 219.172 34.7043 227.65 34.7043V50.0157M145.906 162.649H130.328" stroke="black" stroke-width="7" stroke-miterlimit="10" stroke-linecap="round" stroke-linejoin="round"/>
<path d="M46.0988 115.395L47.0081 114.612C51.892 110.405 59.4895 112.624 61.3419 118.798C62.3951 122.309 62.6927 126.002 62.2151 129.636C61.7375 133.27 60.4956 136.761 58.571 139.88C57.6829 141.319 56.3137 142.398 54.7062 142.924C53.0987 143.45 51.3568 143.389 49.7896 142.753C46.194 141.294 44.8466 136.9 47.0067 133.676C50.2562 128.826 55.1853 125.35 60.8447 123.918L72.6927 120.919C73.1879 120.794 73.7105 120.833 74.1815 121.031C74.6525 121.228 75.0465 121.574 75.3039 122.015L78.6379 127.73C79.7949 129.713 82.6562 129.725 83.8295 127.752L89.8387 117.649C90.4552 116.612 91.9459 116.584 92.6004 117.598L96.2638 123.268C100.23 129.407 108.543 130.946 114.445 126.633L116.208 125.345M72.673 66.8468H45.9689V45.9653H125.656V66.8468H89.504M140.003 45.9653H177.556M140.003 66.9747H200.322M45.9689 87.9841H125.656M177.016 158.297L177.583 160.244L182.065 175.599L191.654 208.468L203.075 188.997L203.162 188.847L225.908 188.689L213.38 175.599L198.689 160.244L189.764 150.915M170.837 158.177L170.235 160.244L165.754 175.599L156.165 208.468L144.657 188.847L144.272 188.843L121.911 188.689L134.438 175.599L149.129 160.244L158.069 150.906" stroke="black" stroke-width="7" stroke-miterlimit="10" stroke-linecap="round" stroke-linejoin="round"/>
<path d="M175.379 88.4919L184.736 96.4664C185.077 96.7563 185.5 96.9315 185.945 96.967L198.201 97.9451C198.705 97.9853 199.177 98.2036 199.534 98.5608C199.892 98.9179 200.11 99.3906 200.15 99.8941L201.128 112.15C201.164 112.596 201.339 113.019 201.629 113.359L209.603 122.716C209.931 123.101 210.111 123.589 210.111 124.094C210.111 124.599 209.931 125.088 209.603 125.472L201.629 134.83C201.339 135.17 201.164 135.593 201.128 136.039L200.15 148.295C200.11 148.798 199.892 149.271 199.534 149.628C199.177 149.985 198.705 150.204 198.201 150.244L185.945 151.222C185.5 151.257 185.076 151.433 184.736 151.723L175.379 159.697C174.994 160.025 174.506 160.205 174.001 160.205C173.496 160.205 173.007 160.025 172.623 159.697L163.265 151.723C162.925 151.433 162.502 151.257 162.056 151.222L149.8 150.244C149.297 150.204 148.824 149.985 148.467 149.628C148.11 149.271 147.892 148.798 147.851 148.295L146.873 136.039C146.838 135.593 146.663 135.17 146.373 134.83L138.398 125.472C138.071 125.088 137.891 124.599 137.891 124.094C137.891 123.589 138.071 123.101 138.398 122.716L146.373 113.359C146.663 113.019 146.838 112.596 146.873 112.15L147.851 99.8941C147.892 99.3906 148.11 98.9179 148.467 98.5608C148.824 98.2036 149.297 97.9853 149.8 97.9451L162.056 96.967C162.502 96.9316 162.925 96.7564 163.265 96.4664L172.623 88.4919C173.007 88.1643 173.496 87.9844 174.001 87.9844C174.506 87.9844 174.994 88.1643 175.379 88.4919Z" stroke="black" stroke-width="7" stroke-miterlimit="10" stroke-linecap="round" stroke-linejoin="round"/>
<path d="M173.911 138.525C181.832 138.525 188.252 132.104 188.252 124.184C188.252 116.263 181.832 109.843 173.911 109.843C165.991 109.843 159.57 116.263 159.57 124.184C159.57 132.104 165.991 138.525 173.911 138.525Z" stroke="black" stroke-width="7" stroke-miterlimit="10" stroke-linecap="round" stroke-linejoin="round"/>
<path d="M195.337 175.599L203.074 188.997L203.161 189.15M151.918 175.599L144.272 188.843L144.094 189.15" stroke="black" stroke-width="7" stroke-miterlimit="10" stroke-linecap="round" stroke-linejoin="round"/>
</svg>
