<svg width="359" height="504" viewBox="0 0 359 504" fill="none" xmlns="http://www.w3.org/2000/svg">
<path d="M179.19 317.132C172.062 316.893 165.265 314.066 160.07 309.18C159.073 308.181 158.491 306.842 158.438 305.432C158.386 304.022 158.868 302.644 159.788 301.575C160.708 300.505 161.998 299.821 163.4 299.661C164.802 299.501 166.212 299.877 167.35 300.712C175.538 307.756 182.842 307.756 191.03 300.712C192.167 299.877 193.577 299.501 194.979 299.661C196.381 299.821 197.671 300.505 198.591 301.575C199.511 302.644 199.993 304.022 199.941 305.432C199.889 306.842 199.306 308.181 198.31 309.18C193.114 314.066 186.317 316.893 179.19 317.132ZM222.202 342.188C221.647 341.209 220.726 340.49 219.641 340.19C218.556 339.89 217.397 340.033 216.418 340.588L215.662 341.02C214.73 341.45 213.739 341.737 212.722 341.872C211.301 342.092 209.867 342.219 208.43 342.252C205.351 342.306 202.274 342.102 199.23 341.644C198.486 341.532 194.914 340.636 194.506 340.556C192.855 340.218 191.151 340.23 189.505 340.591C187.859 340.952 186.307 341.654 184.95 342.652C183.205 343.737 181.234 344.408 179.19 344.612C177.141 344.412 175.167 343.744 173.418 342.66C172.06 341.662 170.508 340.96 168.862 340.599C167.216 340.238 165.512 340.226 163.862 340.564C163.462 340.644 159.882 341.54 159.138 341.652C156.093 342.11 153.016 342.314 149.938 342.26C148.5 342.227 147.066 342.1 145.646 341.88C144.628 341.745 143.637 341.458 142.706 341.028L141.95 340.596C141.051 340.083 139.997 339.915 138.984 340.126C137.971 340.336 137.07 340.91 136.45 341.738C135.831 342.566 135.536 343.593 135.62 344.624C135.705 345.655 136.163 346.619 136.91 347.336C138.685 348.99 140.811 350.221 143.13 350.936C145.02 351.587 146.969 352.053 148.95 352.328C152.689 352.984 156.498 353.158 160.282 352.844C162.047 352.483 163.848 352.322 165.65 352.364C166.886 352.652 167.65 353.648 168.706 354.26C169.83 354.921 171.031 355.442 172.282 355.812C176.778 357.172 181.577 357.172 186.074 355.812C187.324 355.442 188.525 354.921 189.65 354.26C190.722 353.648 191.47 352.66 192.706 352.364C194.507 352.322 196.308 352.483 198.074 352.844C201.857 353.158 205.666 352.984 209.406 352.328C211.386 352.053 213.335 351.587 215.226 350.936C217.544 350.221 219.671 348.99 221.446 347.336C222.124 346.683 222.567 345.823 222.704 344.891C222.841 343.959 222.664 343.008 222.202 342.188ZM179.358 378.384C176.002 378.365 172.695 377.584 169.686 376.1C168.329 375.366 167.307 374.138 166.832 372.671C166.357 371.203 166.465 369.609 167.134 368.22C167.803 366.83 168.982 365.751 170.425 365.208C171.869 364.664 173.466 364.697 174.886 365.3C176.264 366.021 177.797 366.398 179.354 366.398C180.91 366.398 182.443 366.021 183.822 365.3C185.241 364.697 186.838 364.664 188.282 365.208C189.725 365.751 190.904 366.83 191.573 368.22C192.242 369.609 192.35 371.203 191.875 372.671C191.4 374.138 190.378 375.366 189.022 376.1C186.014 377.582 182.71 378.363 179.358 378.384ZM147.31 219.016C140.51 218.472 133.514 218.092 126.566 217.492C119.598 217.016 112.622 216.452 105.658 215.584C105.658 215.584 97.8175 214.596 95.1935 214.384C91.9931 214.139 88.7816 214.069 85.5735 214.176C79.0092 215.09 72.659 217.161 66.8175 220.292L66.6335 220.388C66.0373 220.692 65.3486 220.762 64.7033 220.584C64.058 220.405 63.503 219.992 63.1479 219.424C62.7928 218.856 62.6634 218.176 62.7851 217.518C62.9069 216.86 63.2709 216.271 63.8055 215.868C69.8669 211.328 76.7658 208.032 84.1055 206.168C85.9935 205.724 92.9055 205.008 92.9055 205.008L95.5815 204.948L106.286 204.836C113.422 204.833 120.552 205.275 127.634 206.16C134.818 206.887 141.937 208.166 148.926 209.984C150.035 210.282 150.993 210.984 151.612 211.951C152.231 212.919 152.466 214.083 152.271 215.215C152.076 216.347 151.465 217.366 150.559 218.071C149.652 218.776 148.515 219.118 147.37 219.028L147.31 219.016ZM226.518 255.504C229.142 255.588 231.81 255.504 234.45 255.468C239.569 255.47 244.676 254.991 249.706 254.036C254.5 253.19 259.159 251.7 263.554 249.604C263.554 249.604 265.494 248.576 266.03 248.364C267.095 247.937 268.221 247.678 269.366 247.596C271.387 247.449 273.413 247.822 275.25 248.68C277.463 249.827 279.749 250.828 282.094 251.676L282.21 251.712C282.74 251.878 283.203 252.21 283.533 252.658C283.862 253.106 284.039 253.648 284.039 254.204C284.039 254.76 283.862 255.301 283.533 255.75C283.203 256.198 282.74 256.529 282.21 256.696C279.138 257.453 275.934 257.501 272.842 256.836C272.099 256.633 271.312 256.666 270.59 256.932C270.35 257.036 268.858 258.104 268.858 258.104C263.753 261.623 257.953 264.007 251.85 265.096C246.026 266.189 240.084 266.504 234.178 266.032C228.235 265.752 222.362 264.639 216.73 262.724C215.82 262.385 215.065 261.725 214.609 260.868C214.153 260.011 214.026 259.017 214.253 258.073C214.48 257.129 215.045 256.3 215.841 255.745C216.637 255.189 217.609 254.944 218.574 255.056C218.574 255.056 223.93 255.468 226.518 255.504ZM131.862 255.504C129.238 255.588 126.57 255.504 123.93 255.468C118.811 255.47 113.703 254.991 108.674 254.036C103.879 253.19 99.2203 251.7 94.8255 249.604C94.8255 249.604 92.8855 248.576 92.3495 248.364C91.2839 247.937 90.1585 247.678 89.0135 247.596C86.9918 247.449 84.9662 247.822 83.1295 248.68C80.9164 249.827 78.6301 250.828 76.2855 251.676L76.1695 251.712C75.6391 251.878 75.1756 252.21 74.8466 252.658C74.5176 253.106 74.3401 253.648 74.3401 254.204C74.3401 254.76 74.5176 255.301 74.8466 255.75C75.1756 256.198 75.6391 256.529 76.1695 256.696C79.2411 257.453 82.4448 257.501 85.5375 256.836C86.2799 256.633 87.0671 256.666 87.7895 256.932C88.0295 257.036 89.5215 258.104 89.5215 258.104C94.6263 261.623 100.426 264.007 106.53 265.096C112.353 266.189 118.295 266.504 124.202 266.032C130.144 265.752 136.017 264.639 141.65 262.724C142.559 262.385 143.314 261.725 143.77 260.868C144.226 260.011 144.353 259.017 144.126 258.073C143.899 257.129 143.334 256.3 142.538 255.745C141.742 255.189 140.77 254.944 139.806 255.056C139.806 255.056 134.45 255.468 131.862 255.504ZM209.442 209.98C216.431 208.162 223.549 206.883 230.734 206.156C237.815 205.271 244.945 204.829 252.082 204.832L262.786 204.944L268.466 205.172C270.42 205.386 272.359 205.717 274.274 206.164C281.614 208.029 288.513 211.327 294.574 215.868C295.121 216.266 295.497 216.857 295.626 217.522C295.755 218.186 295.627 218.875 295.269 219.449C294.91 220.023 294.347 220.44 293.693 220.616C293.04 220.791 292.344 220.713 291.746 220.396L291.562 220.296C285.715 217.162 279.36 215.09 272.79 214.176C271.225 214.008 269.651 213.934 268.078 213.956L263.19 214.384L252.726 215.584C245.762 216.452 238.786 217.016 231.818 217.492C224.87 218.092 217.89 218.472 211.074 219.016H211.002C209.856 219.106 208.719 218.764 207.812 218.059C206.906 217.354 206.295 216.335 206.1 215.203C205.906 214.071 206.141 212.907 206.759 211.939C207.378 210.972 208.336 210.27 209.446 209.972L209.442 209.98ZM179.19 295.468C178.129 295.468 177.111 295.046 176.361 294.296C175.611 293.546 175.19 292.529 175.19 291.468V283.868C175.19 282.807 175.611 281.79 176.361 281.039C177.111 280.289 178.129 279.868 179.19 279.868C180.25 279.868 181.268 280.289 182.018 281.039C182.768 281.79 183.19 282.807 183.19 283.868V291.468C183.19 292.529 182.768 293.546 182.018 294.296C181.268 295.046 180.25 295.468 179.19 295.468ZM179.19 267.868C178.129 267.868 177.111 267.446 176.361 266.696C175.611 265.946 175.19 264.929 175.19 263.868V255.868C175.19 254.807 175.611 253.79 176.361 253.039C177.111 252.289 178.129 251.868 179.19 251.868C180.25 251.868 181.268 252.289 182.018 253.039C182.768 253.79 183.19 254.807 183.19 255.868V263.868C183.19 264.929 182.768 265.946 182.018 266.696C181.268 267.446 180.25 267.868 179.19 267.868ZM179.19 239.868C178.129 239.868 177.111 239.446 176.361 238.696C175.611 237.946 175.19 236.929 175.19 235.868V227.868C175.19 226.807 175.611 225.79 176.361 225.039C177.111 224.289 178.129 223.868 179.19 223.868C180.25 223.868 181.268 224.289 182.018 225.039C182.768 225.79 183.19 226.807 183.19 227.868V235.868C183.19 236.929 182.768 237.946 182.018 238.696C181.268 239.446 180.25 239.868 179.19 239.868ZM179.19 211.868C178.129 211.868 177.111 211.446 176.361 210.696C175.611 209.946 175.19 208.929 175.19 207.868V199.868C175.19 198.807 175.611 197.79 176.361 197.039C177.111 196.289 178.129 195.868 179.19 195.868C180.25 195.868 181.268 196.289 182.018 197.039C182.768 197.79 183.19 198.807 183.19 199.868V207.868C183.19 208.929 182.768 209.946 182.018 210.696C181.268 211.446 180.25 211.868 179.19 211.868ZM268.438 301.832H268.39C265.642 301.792 262.842 301.632 260.07 301.36C259.547 301.307 259.04 301.152 258.577 300.904C258.114 300.655 257.705 300.318 257.372 299.911C257.04 299.505 256.791 299.036 256.639 298.533C256.488 298.03 256.437 297.503 256.49 296.98C256.542 296.457 256.697 295.95 256.946 295.487C257.194 295.024 257.531 294.615 257.938 294.283C258.345 293.95 258.813 293.701 259.316 293.55C259.819 293.398 260.347 293.347 260.87 293.4C263.426 293.652 266.002 293.8 268.526 293.832C269.586 293.839 270.601 294.268 271.346 295.023C272.091 295.779 272.505 296.799 272.498 297.86C272.49 298.921 272.062 299.935 271.306 300.68C270.551 301.425 269.53 301.839 268.47 301.832H268.438ZM288.23 299.536C287.271 299.539 286.344 299.198 285.616 298.576C284.888 297.953 284.407 297.09 284.262 296.143C284.117 295.196 284.316 294.228 284.824 293.416C285.332 292.603 286.115 292 287.03 291.716C288.1 291.415 289.131 290.99 290.102 290.448C291.009 289.897 292.097 289.73 293.128 289.982C294.159 290.234 295.047 290.885 295.598 291.792C296.148 292.699 296.316 293.787 296.064 294.818C295.812 295.849 295.161 296.737 294.254 297.288C292.725 298.166 291.098 298.86 289.406 299.356C289.025 299.474 288.628 299.535 288.23 299.536ZM240.89 297.336C240.47 297.335 240.053 297.269 239.654 297.14C236.998 296.28 234.385 295.296 231.822 294.192C230.856 293.766 230.098 292.975 229.713 291.993C229.328 291.01 229.346 289.915 229.765 288.946C230.183 287.978 230.968 287.213 231.947 286.82C232.926 286.427 234.021 286.437 234.994 286.848C237.326 287.853 239.705 288.749 242.122 289.532C243.027 289.826 243.797 290.434 244.295 291.245C244.793 292.057 244.984 293.019 244.836 293.96C244.687 294.9 244.209 295.756 243.485 296.375C242.762 296.994 241.841 297.335 240.89 297.336ZM216.274 284.316C215.371 284.315 214.496 284.009 213.79 283.448C211.585 281.691 209.48 279.812 207.486 277.82C206.757 277.065 206.354 276.055 206.363 275.006C206.372 273.957 206.793 272.954 207.534 272.213C208.276 271.471 209.279 271.05 210.328 271.041C211.377 271.032 212.387 271.435 213.142 272.164C214.927 273.943 216.813 275.619 218.79 277.184C219.44 277.701 219.913 278.407 220.144 279.205C220.375 280.003 220.351 280.853 220.077 281.637C219.803 282.421 219.291 283.1 218.613 283.58C217.935 284.06 217.124 284.317 216.294 284.316H216.274ZM89.9415 301.832C88.8807 301.839 87.8603 301.425 87.1049 300.68C86.3495 299.935 85.921 298.921 85.9135 297.86C85.9061 296.799 86.3204 295.779 87.0653 295.023C87.8102 294.268 88.8247 293.839 89.8855 293.832C92.4424 293.795 94.9967 293.651 97.5415 293.4C98.0642 293.347 98.5921 293.398 99.0951 293.55C99.5981 293.701 100.066 293.95 100.473 294.283C100.88 294.615 101.217 295.024 101.466 295.487C101.714 295.95 101.869 296.457 101.922 296.98C101.974 297.503 101.923 298.03 101.772 298.533C101.62 299.036 101.371 299.505 101.039 299.911C100.706 300.318 100.297 300.655 99.8342 300.904C99.3714 301.152 98.8642 301.307 98.3415 301.36C95.5695 301.632 92.7695 301.792 90.0215 301.832H89.9415ZM70.1495 299.536C69.7427 299.537 69.3381 299.477 68.9495 299.356C67.2576 298.86 65.6302 298.166 64.1015 297.288C63.1945 296.737 62.5433 295.849 62.2913 294.818C62.0392 293.787 62.2069 292.699 62.7575 291.792C63.3081 290.885 64.1965 290.234 65.2272 289.982C66.2579 289.73 67.3465 289.897 68.2535 290.448C69.2241 290.99 70.2553 291.415 71.3255 291.716C72.2405 292 73.0231 292.603 73.531 293.416C74.0388 294.228 74.2382 295.196 74.0929 296.143C73.9476 297.09 73.4672 297.953 72.7391 298.576C72.011 299.198 71.0836 299.539 70.1255 299.536H70.1495ZM117.49 297.336C116.538 297.335 115.617 296.994 114.894 296.375C114.171 295.756 113.692 294.9 113.543 293.96C113.395 293.019 113.587 292.057 114.084 291.245C114.582 290.434 115.352 289.826 116.258 289.532C118.673 288.745 121.051 287.85 123.386 286.848C124.358 286.437 125.453 286.427 126.432 286.82C127.412 287.213 128.196 287.978 128.614 288.946C129.033 289.915 129.051 291.01 128.666 291.993C128.281 292.975 127.523 293.766 126.558 294.192C124.034 295.28 121.398 296.276 118.726 297.14C118.326 297.269 117.909 297.335 117.49 297.336ZM142.106 284.316C141.275 284.317 140.464 284.06 139.786 283.58C139.108 283.1 138.597 282.421 138.322 281.637C138.048 280.853 138.024 280.003 138.255 279.205C138.486 278.407 138.959 277.701 139.61 277.184C141.579 275.619 143.458 273.943 145.238 272.164C145.992 271.435 147.002 271.032 148.051 271.041C149.1 271.05 150.103 271.471 150.845 272.213C151.586 272.954 152.007 273.957 152.016 275.006C152.025 276.055 151.622 277.065 150.894 277.82C148.899 279.819 146.795 281.704 144.59 283.468C143.88 284.022 143.005 284.321 142.106 284.316ZM164.01 407.316C163.654 407.316 163.3 407.269 162.958 407.176C160.258 406.444 157.578 405.576 154.99 404.62C153.995 404.249 153.189 403.497 152.748 402.532C152.307 401.566 152.268 400.464 152.64 399.47C153.011 398.475 153.762 397.669 154.728 397.228C155.694 396.788 156.795 396.749 157.79 397.12C160.146 398 162.59 398.784 165.058 399.456C165.992 399.71 166.803 400.295 167.34 401.101C167.876 401.908 168.101 402.882 167.974 403.843C167.846 404.803 167.374 405.684 166.646 406.323C165.918 406.962 164.978 407.315 164.01 407.316ZM138.654 395.716C137.85 395.715 137.065 395.473 136.402 395.02C134.088 393.438 131.855 391.74 129.714 389.932C128.903 389.247 128.398 388.268 128.309 387.211C128.22 386.154 128.555 385.104 129.24 384.294C129.924 383.483 130.903 382.978 131.96 382.889C133.018 382.8 134.067 383.135 134.878 383.82C136.81 385.455 138.826 386.989 140.918 388.416C141.622 388.899 142.154 389.595 142.435 390.402C142.716 391.209 142.731 392.085 142.477 392.901C142.224 393.717 141.717 394.43 141.028 394.937C140.34 395.444 139.508 395.717 138.654 395.716ZM194.39 407.316C193.421 407.315 192.485 406.962 191.757 406.323C191.029 405.684 190.557 404.803 190.429 403.843C190.302 402.882 190.527 401.908 191.063 401.101C191.6 400.295 192.411 399.71 193.346 399.456C195.802 398.788 198.227 398.008 200.614 397.12C201.608 396.749 202.709 396.788 203.675 397.228C204.641 397.669 205.392 398.475 205.764 399.47C206.135 400.464 206.096 401.566 205.655 402.532C205.214 403.497 204.408 404.249 203.414 404.62C200.826 405.584 198.146 406.444 195.446 407.176C195.101 407.269 194.746 407.316 194.39 407.316ZM219.746 395.716C218.891 395.717 218.059 395.444 217.371 394.937C216.683 394.43 216.175 393.717 215.922 392.901C215.668 392.085 215.683 391.209 215.964 390.402C216.245 389.595 216.777 388.899 217.482 388.416C219.573 386.989 221.589 385.455 223.522 383.82C224.332 383.135 225.381 382.8 226.439 382.889C227.496 382.978 228.475 383.483 229.16 384.294C229.844 385.104 230.179 386.154 230.09 387.211C230.001 388.268 229.496 389.247 228.686 389.932C226.541 391.737 224.306 393.433 221.99 395.012C221.322 395.467 220.533 395.71 219.726 395.708L219.746 395.716ZM237.938 169.124C237.508 169.122 237.082 169.053 236.674 168.92C234.274 168.12 231.918 167.38 229.534 166.688C229.029 166.541 228.559 166.296 228.149 165.967C227.74 165.638 227.399 165.232 227.146 164.771C226.894 164.311 226.734 163.805 226.677 163.283C226.62 162.76 226.666 162.232 226.814 161.728C226.961 161.224 227.206 160.753 227.534 160.344C227.863 159.934 228.27 159.593 228.73 159.341C229.191 159.088 229.697 158.929 230.219 158.872C230.741 158.814 231.269 158.861 231.774 159.008C234.254 159.728 236.731 160.501 239.206 161.328C240.108 161.628 240.874 162.239 241.366 163.052C241.859 163.865 242.045 164.828 241.893 165.766C241.74 166.704 241.258 167.558 240.533 168.173C239.809 168.788 238.888 169.125 237.938 169.124ZM120.438 169.124C119.489 169.121 118.572 168.78 117.85 168.163C117.129 167.546 116.651 166.693 116.501 165.756C116.351 164.819 116.539 163.859 117.031 163.048C117.524 162.237 118.289 161.627 119.19 161.328C121.787 160.464 124.386 159.664 126.986 158.928C127.491 158.779 128.021 158.733 128.545 158.79C129.069 158.847 129.577 159.007 130.038 159.261C130.5 159.515 130.907 159.857 131.236 160.269C131.565 160.681 131.81 161.154 131.955 161.66C132.101 162.167 132.145 162.697 132.086 163.22C132.026 163.744 131.863 164.251 131.607 164.711C131.35 165.172 131.006 165.577 130.592 165.904C130.179 166.231 129.705 166.473 129.198 166.616C126.699 167.333 124.202 168.105 121.706 168.932C121.296 169.064 120.868 169.129 120.438 169.124ZM211.21 162.268C210.969 162.268 210.73 162.247 210.494 162.204C207.918 161.74 205.342 161.332 202.766 160.98C202.245 160.909 201.743 160.737 201.29 160.472C200.836 160.208 200.438 159.856 200.12 159.438C199.802 159.02 199.569 158.544 199.435 158.036C199.301 157.528 199.269 156.998 199.34 156.478C199.41 155.957 199.583 155.456 199.847 155.002C200.112 154.548 200.463 154.151 200.881 153.832C201.299 153.514 201.776 153.282 202.284 153.148C202.792 153.014 203.321 152.981 203.842 153.052C206.535 153.42 209.227 153.847 211.918 154.332C212.9 154.51 213.781 155.049 214.386 155.843C214.991 156.637 215.278 157.629 215.189 158.623C215.1 159.618 214.643 160.543 213.906 161.218C213.17 161.892 212.208 162.267 211.21 162.268ZM147.55 162.228C146.552 162.225 145.591 161.849 144.856 161.174C144.121 160.499 143.665 159.573 143.578 158.579C143.49 157.585 143.777 156.594 144.382 155.801C144.988 155.008 145.868 154.47 146.85 154.292C149.543 153.812 152.235 153.391 154.926 153.028C155.449 152.952 155.982 152.981 156.494 153.112C157.006 153.244 157.486 153.476 157.908 153.794C158.33 154.112 158.685 154.511 158.952 154.968C159.218 155.424 159.392 155.929 159.463 156.453C159.533 156.976 159.499 157.509 159.363 158.02C159.226 158.53 158.99 159.009 158.667 159.428C158.345 159.846 157.942 160.197 157.483 160.459C157.024 160.722 156.518 160.89 155.994 160.956C153.412 161.303 150.834 161.702 148.258 162.156C148.024 162.196 147.787 162.215 147.55 162.212V162.228ZM183.382 159.428H183.29C180.683 159.372 178.076 159.372 175.47 159.428H175.382C174.321 159.44 173.298 159.03 172.54 158.289C171.781 157.547 171.348 156.535 171.336 155.474C171.323 154.413 171.733 153.391 172.475 152.632C173.216 151.873 174.229 151.44 175.29 151.428C178.015 151.367 180.742 151.367 183.47 151.428C184.53 151.44 185.543 151.872 186.285 152.631C187.027 153.389 187.437 154.411 187.426 155.472C187.414 156.533 186.981 157.545 186.223 158.287C185.464 159.029 184.442 159.44 183.382 159.428Z" fill="black"/>
<path d="M348.19 241.036C347.922 240.744 347.618 240.5 347.338 240.236C353.806 203.588 353.526 137.968 336.07 101.768C307.622 42.792 241.67 0 179.27 0H179.154C116.726 0 50.7736 42.8 22.3296 101.768C4.8736 137.968 4.5936 203.588 11.0616 240.236C10.7816 240.516 10.4776 240.76 10.2096 241.036C1.66959 250.304 -1.67841 263.596 0.793593 278.46C4.62559 301.568 27.9176 326.368 51.4536 326.46C59.4216 353.532 71.3576 375.324 86.9936 390.492C98.7224 402.255 111.878 412.503 126.154 420.996C124.154 438.416 115.942 478.656 82.2816 492.196C80.9881 492.715 79.9159 493.669 79.2488 494.893C78.5818 496.116 78.3616 497.534 78.6261 498.903C78.8906 500.271 79.6233 501.505 80.6984 502.392C81.7734 503.279 83.1238 503.764 84.5176 503.764C85.2849 503.763 86.045 503.617 86.7576 503.332C123.558 488.532 134.314 448.248 137.466 426.932C147.203 431.519 157.391 435.082 167.866 437.564C175.332 439.34 183.111 439.34 190.578 437.564C201.052 435.082 211.24 431.519 220.978 426.932C224.118 448.232 234.874 488.532 271.69 503.332C272.421 503.626 273.203 503.772 273.991 503.764C274.779 503.755 275.557 503.592 276.282 503.282C277.006 502.973 277.663 502.524 278.214 501.961C278.765 501.397 279.2 500.731 279.494 500C280.087 498.524 280.07 496.872 279.446 495.409C278.821 493.945 277.642 492.79 276.166 492.196C242.506 478.672 234.29 438.432 232.294 420.996C246.57 412.503 259.727 402.255 271.458 390.492C287.09 375.324 299.026 353.532 306.998 326.46C330.53 326.36 353.822 301.56 357.654 278.46C360.078 263.596 356.73 250.304 348.19 241.036ZM12.5896 276.496C11.4914 271.755 11.4973 266.825 12.607 262.087C13.7167 257.348 15.9004 252.928 18.9896 249.168C21.724 246.421 24.9784 244.246 28.5628 242.771C32.1472 241.296 35.9896 240.549 39.8656 240.576C39.9456 247.637 40.1923 254.531 40.6056 261.256C36.2767 259.529 31.607 258.827 26.9616 259.204C25.3844 259.366 23.9352 260.145 22.9308 261.372C21.9263 262.598 21.4483 264.173 21.601 265.751C21.7537 267.329 22.5249 268.782 23.7459 269.794C24.967 270.805 26.5387 271.292 28.1176 271.148C30.6574 270.887 33.2231 271.229 35.6058 272.146C37.9885 273.064 40.1209 274.531 41.8296 276.428C43.1116 289.105 45.2093 301.685 48.1096 314.092C32.0936 311.584 15.3016 292.752 12.6056 276.496H12.5896ZM263.054 381.868C244.554 399.8 222.63 417.54 187.754 425.868C182.12 427.21 176.251 427.21 170.618 425.868C135.75 417.548 113.818 399.808 95.3256 381.868C65.3456 352.796 49.9496 296.268 51.9896 222.724C53.0702 204.556 55.4672 186.49 59.1616 168.668C93.7776 163.6 115.042 134.224 130.938 112.056C136.702 103.554 144.509 96.6344 153.643 91.9331C162.776 87.2318 172.944 84.8988 183.214 85.148C191.84 85.2937 200.292 87.6043 207.793 91.8677C215.293 96.1311 221.603 102.211 226.142 109.548C227.289 111.463 228.881 113.074 230.782 114.243C232.684 115.413 234.839 116.107 237.066 116.268C238.502 116.352 239.83 116.392 241.086 116.428C243.676 116.341 246.265 116.658 248.758 117.368C259.958 121.288 266.286 131.008 273.01 141.3C275.939 145.982 279.144 150.484 282.61 154.784C286.785 159.774 291.929 163.865 297.73 166.812C302.964 185.005 305.874 203.788 306.39 222.712C308.43 296.268 293.034 352.796 263.054 381.868ZM291.522 147.308C288.36 143.361 285.433 139.231 282.758 134.94C275.614 124.008 267.526 111.616 252.606 106.388C248.985 105.244 245.201 104.704 241.406 104.788C240.258 104.756 239.046 104.72 237.734 104.644C237.378 104.589 237.041 104.451 236.748 104.243C236.455 104.035 236.215 103.761 236.046 103.444C230.456 94.5131 222.741 87.1057 213.59 81.8834C204.44 76.661 194.138 73.7863 183.606 73.516C171.432 73.276 159.387 76.0501 148.545 81.5913C137.702 87.1326 128.399 95.2689 121.462 105.276C104.218 129.328 82.7816 159.3 46.0296 157.8C45.2553 157.752 44.4792 157.859 43.7469 158.115C43.0147 158.371 42.3409 158.771 41.7653 159.291C41.1896 159.811 40.7237 160.441 40.3948 161.144C40.0659 161.846 39.8807 162.608 39.85 163.383C39.8194 164.158 39.9439 164.931 40.2163 165.658C40.4887 166.384 40.9035 167.049 41.4363 167.613C41.9691 168.177 42.6092 168.628 43.319 168.941C44.0287 169.255 44.7939 169.423 45.5696 169.436C45.9696 169.436 46.3696 169.412 46.7496 169.436C43.2793 186.907 41.0206 204.597 39.9896 222.38C39.9336 224.492 39.9416 226.54 39.9096 228.624C33.7226 228.729 27.6205 230.083 21.9696 232.604C16.8896 197.404 17.8096 138.712 33.1176 106.964C59.6696 51.92 121.066 11.984 179.138 11.984H179.246C237.31 11.984 298.714 51.924 325.246 106.964C340.558 138.72 341.462 197.412 336.378 232.596C330.732 230.077 324.635 228.725 318.454 228.62C318.422 226.536 318.43 224.492 318.374 222.38C317.878 205.261 315.565 188.243 311.474 171.612C312.742 171.88 314.014 172.144 315.334 172.34C315.62 172.381 315.908 172.402 316.198 172.404C317.701 172.454 319.165 171.921 320.283 170.916C321.402 169.911 322.088 168.511 322.197 167.012C322.307 165.512 321.832 164.028 320.871 162.87C319.911 161.713 318.54 160.973 317.046 160.804C307.13 159.717 298.003 154.89 291.522 147.308ZM345.774 276.508C343.074 292.776 326.27 311.684 310.222 314.192C313.135 301.757 315.241 289.147 316.526 276.44C318.233 274.541 320.365 273.073 322.748 272.155C325.131 271.237 327.698 270.896 330.238 271.16C331.817 271.295 333.387 270.806 334.61 269.798C335.834 268.791 336.615 267.344 336.786 265.768C336.862 264.984 336.783 264.192 336.553 263.438C336.323 262.685 335.947 261.984 335.447 261.375C334.946 260.767 334.33 260.263 333.635 259.893C332.939 259.522 332.178 259.292 331.394 259.216C326.74 258.86 322.067 259.593 317.746 261.356C318.167 254.612 318.415 247.691 318.49 240.592C322.366 240.563 326.208 241.308 329.793 242.783C333.377 244.257 336.632 246.432 339.366 249.18C342.454 252.938 344.639 257.356 345.75 262.092C346.861 266.828 346.869 271.756 345.774 276.496V276.508Z" fill="black"/>
</svg>
