<svg width="512" height="512" viewBox="0 0 512 512" fill="none" xmlns="http://www.w3.org/2000/svg">
<path fill-rule="evenodd" clip-rule="evenodd" d="M287.861 197.237C287.957 195.499 288 193.76 288 192C288 139.019 244.981 96 192 96C139.019 96 96 139.019 96 192C96 235.691 125.259 272.608 165.237 284.213C167.955 284.998 170.872 284.673 173.35 283.309C175.828 281.946 177.663 279.654 178.453 276.939C179.238 274.221 178.913 271.304 177.55 268.826C176.186 266.348 173.894 264.513 171.179 263.723C155.653 259.202 142.012 249.767 132.303 236.835C122.594 223.903 117.342 208.171 117.333 192C117.333 150.795 150.795 117.333 192 117.333C202.147 117.339 212.187 119.411 221.507 123.424C230.826 127.438 239.231 133.307 246.208 140.675C253.185 148.043 258.587 156.755 262.086 166.28C265.585 175.805 267.108 185.942 266.56 196.075C266.421 198.891 267.403 201.647 269.29 203.741C271.178 205.835 273.817 207.097 276.632 207.251C279.447 207.405 282.209 206.438 284.313 204.561C286.417 202.685 287.693 200.052 287.861 197.237Z" fill="black"/>
<path fill-rule="evenodd" clip-rule="evenodd" d="M143.669 309.707C139.184 308.29 134.394 308.137 129.828 309.265C125.261 310.392 121.093 312.755 117.781 316.096L109.045 324.875C108.361 325.566 107.459 326.001 106.491 326.106C105.524 326.211 104.55 325.98 103.733 325.451C99.8167 322.852 96.0056 320.098 92.3092 317.195C91.5529 316.575 91.0322 315.715 90.8341 314.758C90.6361 313.801 90.7727 312.804 91.2212 311.936L96.9172 300.832C99.1988 296.372 100.119 291.34 99.5633 286.362C99.0076 281.384 97.0006 276.679 93.7919 272.832C90.5377 268.882 87.5344 264.731 84.7998 260.405C82.1202 256.146 78.2442 252.771 73.6567 250.703C69.0692 248.635 63.9739 247.966 59.0078 248.779L46.7838 250.741C45.8244 250.899 44.8399 250.721 43.9966 250.237C43.1532 249.753 42.5026 248.993 42.1545 248.085C40.5091 243.681 39.043 239.211 37.7598 234.688C37.5139 233.744 37.599 232.744 38.0007 231.855C38.4025 230.966 39.0968 230.242 39.9678 229.803L51.1038 224.16C55.5713 221.893 59.2738 218.363 61.7507 214.009C64.2276 209.654 65.3696 204.668 65.0345 199.669C64.7252 194.603 64.7252 189.461 65.0665 184.331C65.401 179.311 64.249 174.304 61.7543 169.935C59.2597 165.566 55.533 162.029 51.0398 159.765L39.9892 154.165C39.1201 153.728 38.4283 153.004 38.0301 152.116C37.6318 151.228 37.5515 150.231 37.8025 149.291C39.0612 144.768 40.5118 140.288 42.1225 135.872C42.4802 134.965 43.1378 134.207 43.986 133.726C44.8341 133.245 45.8216 133.068 46.7838 133.227L59.1038 135.2C64.0519 135.992 69.1238 135.313 73.6887 133.246C78.2537 131.178 82.1101 127.815 84.7785 123.573C87.5092 119.296 90.5279 115.136 93.8132 111.189C97.0367 107.324 99.0494 102.594 99.5995 97.5915C100.15 92.5886 99.213 87.5346 96.9065 83.0612L91.2638 72.0426C90.8137 71.1797 90.6761 70.1877 90.8744 69.2349C91.0727 68.2821 91.5948 67.4274 92.3518 66.8159C96.0359 63.8955 99.8326 61.12 103.733 58.4959C104.557 57.9719 105.535 57.7454 106.505 57.8541C107.475 57.9627 108.379 58.4 109.067 59.0932L117.877 67.9359C125.099 75.1892 135.968 77.4292 145.472 73.6212C150.197 71.7652 155.093 70.1759 160.075 68.9066C164.951 67.6726 169.356 65.0298 172.74 61.308C176.125 57.5862 178.338 52.9502 179.104 47.9786L181.003 35.7439C181.152 34.781 181.628 33.8987 182.35 33.2444C183.073 32.5902 183.998 32.2036 184.971 32.1492C189.664 31.9466 194.368 31.9466 199.061 32.1172C200.037 32.1744 200.963 32.5648 201.685 33.2229C202.407 33.8811 202.882 34.7672 203.029 35.7332L204.949 48.0639C205.728 53.0137 207.944 57.6257 211.321 61.3273C214.699 65.0288 219.089 67.6569 223.947 68.8852C228.853 70.1546 233.749 71.7439 238.517 73.6532C243.189 75.522 248.307 75.9733 253.234 74.9508C258.16 73.9283 262.676 71.4774 266.219 67.9039L274.955 59.1252C275.639 58.4335 276.541 57.9986 277.508 57.8937C278.476 57.7888 279.45 58.0203 280.267 58.5492C284.181 61.1412 287.989 63.9039 291.691 66.8052C292.447 67.4245 292.968 68.2847 293.166 69.2419C293.364 70.1991 293.227 71.1953 292.779 72.0639L287.083 83.1679C284.801 87.6274 283.881 92.6593 284.436 97.6377C284.992 102.616 286.999 107.321 290.208 111.168C293.44 115.093 296.459 119.253 299.2 123.595C301.879 127.854 305.755 131.228 310.343 133.296C314.93 135.364 320.026 136.034 324.992 135.221L337.216 133.259C338.175 133.101 339.16 133.279 340.003 133.763C340.847 134.247 341.497 135.007 341.845 135.915C343.499 140.32 344.949 144.789 346.24 149.312C346.486 150.256 346.401 151.256 345.999 152.145C345.597 153.034 344.903 153.758 344.032 154.197L332.896 159.84C328.428 162.107 324.726 165.637 322.249 169.991C319.772 174.346 318.63 179.332 318.965 184.331C319.115 186.837 319.189 189.408 319.189 191.989C319.186 194.818 320.307 197.532 322.306 199.535C324.304 201.537 327.016 202.664 329.845 202.667C332.674 202.669 335.388 201.548 337.391 199.55C339.393 197.552 340.52 194.84 340.523 192.011C340.523 189.003 340.437 185.984 340.256 182.976L340.245 182.912C340.191 182.082 340.383 181.255 340.796 180.534C341.21 179.813 341.827 179.23 342.571 178.859L353.611 173.259C358.884 170.607 363.08 166.214 365.486 160.823C367.893 155.433 368.362 149.377 366.816 143.68L366.784 143.541C365.331 138.431 363.673 133.382 361.813 128.405L361.792 128.352C359.698 122.841 355.763 118.223 350.655 115.28C345.546 112.337 339.578 111.25 333.76 112.203C329.845 112.811 325.419 113.536 321.557 114.176C320.728 114.309 319.878 114.196 319.112 113.851C318.346 113.506 317.698 112.944 317.248 112.235V112.224C314.023 107.116 310.478 102.217 306.635 97.5572L306.592 97.5146C306.059 96.8754 305.726 96.0935 305.635 95.2663C305.544 94.4392 305.699 93.6036 306.08 92.8639L311.723 81.8452C314.435 76.6013 315.249 70.5806 314.029 64.8045C312.808 59.0283 309.626 53.8524 305.024 50.1546L304.917 50.0692C300.743 46.7796 296.434 43.6657 292 40.7359L291.957 40.7039C287.023 37.4766 281.126 36.0535 275.263 36.6756C269.401 37.2976 263.933 39.9265 259.787 44.1172C256.981 46.9119 253.813 50.1012 251.061 52.8852C250.471 53.4817 249.718 53.8908 248.897 54.0616C248.075 54.2323 247.221 54.1571 246.443 53.8452C240.83 51.6011 235.08 49.7199 229.227 48.2132L229.173 48.2026C228.365 47.9994 227.636 47.5619 227.076 46.9451C226.516 46.3282 226.151 45.5596 226.027 44.7359L224.117 32.5119C223.226 26.6748 220.345 21.3252 215.961 17.3692C211.578 13.4133 205.961 11.0944 200.064 10.8052H199.925C194.615 10.6008 189.298 10.615 183.989 10.8479H183.936C178.047 11.1369 172.438 13.4525 168.061 17.4024C163.683 21.3524 160.805 26.694 159.915 32.5226C159.285 36.4266 158.603 40.8639 158.016 44.7359C157.888 45.5655 157.518 46.3389 156.953 46.9594C156.387 47.5798 155.651 48.0196 154.837 48.2239C148.962 49.7165 143.187 51.5905 137.547 53.8132C136.775 54.1214 135.929 54.1958 135.116 54.027C134.302 53.8582 133.556 53.4537 132.971 52.8639L124.235 44.0959C120.085 39.8948 114.611 37.2585 108.739 36.6344C102.867 36.0103 96.9607 37.4368 92.0212 40.6719L91.9039 40.7466C87.4985 43.7119 83.1998 46.8372 79.0398 50.1546L78.9972 50.1866C74.4033 53.8809 71.2272 59.0492 70.0065 64.8165C68.7858 70.5838 69.5955 76.5957 72.2985 81.8346C74.0905 85.3652 76.1492 89.3652 77.9519 92.8426C78.3342 93.5882 78.4885 94.4298 78.3955 95.2626C78.3026 96.0953 77.9665 96.8823 77.4292 97.5252V97.5359C73.5572 102.176 70.0052 107.072 66.7518 112.16L66.7199 112.213C66.2787 112.917 65.6394 113.475 64.8821 113.817C64.1249 114.158 63.2835 114.268 62.4638 114.133L50.2398 112.171C44.4132 111.215 38.4354 112.303 33.319 115.25C28.2026 118.197 24.2621 122.822 22.1652 128.341L22.1225 128.469C20.2985 133.461 18.6558 138.517 17.2372 143.637L17.2265 143.691C15.6808 149.379 16.149 155.427 18.5517 160.81C20.9544 166.192 25.1439 170.579 30.4105 173.227C33.9305 175.04 37.9412 177.056 41.4398 178.816C42.9758 179.584 43.8932 181.205 43.7865 182.912L43.7758 182.923C43.3865 188.95 43.3758 194.995 43.7438 201.024L43.7545 201.088C43.8087 201.917 43.617 202.744 43.2034 203.465C42.7898 204.186 42.1726 204.769 41.4292 205.141L30.3892 210.741C25.1153 213.393 20.9199 217.786 18.5134 223.176C16.1069 228.567 15.6372 234.623 17.1838 240.32L17.2158 240.459C18.6772 245.568 20.3198 250.624 22.1865 255.595L22.2078 255.648C24.3021 261.159 28.2365 265.777 33.345 268.72C38.4534 271.663 44.4218 272.75 50.2398 271.797C54.1545 271.189 58.5812 270.464 62.4425 269.824C63.2719 269.691 64.1221 269.804 64.8879 270.149C65.6538 270.494 66.3018 271.056 66.7518 271.765C69.9732 276.875 73.5252 281.781 77.3652 286.443L77.4078 286.485C77.9407 287.124 78.2734 287.906 78.3645 288.733C78.4555 289.561 78.3009 290.396 77.9198 291.136L72.2772 302.155C69.565 307.398 68.7502 313.419 69.9712 319.195C71.1921 324.971 74.3736 330.147 78.9758 333.845L79.0825 333.931C83.2638 337.216 87.5625 340.341 91.9998 343.264L92.0425 343.296C102.219 349.952 115.669 348.523 124.213 339.883C127.019 337.088 130.187 333.899 132.939 331.115C133.489 330.557 134.183 330.163 134.943 329.975C135.703 329.787 136.501 329.812 137.248 330.048C139.931 330.85 142.822 330.564 145.297 329.253C147.771 327.941 149.631 325.71 150.474 323.039C151.317 320.368 151.076 317.473 149.803 314.979C148.53 312.484 146.327 310.591 143.669 309.707Z" fill="black"/>
<path fill-rule="evenodd" clip-rule="evenodd" d="M160 417.835V384C160 317.205 207.221 261.44 270.112 248.277C271.836 241.344 275.831 235.187 281.46 230.787C287.089 226.388 294.029 223.998 301.173 224H338.827C345.971 223.998 352.911 226.388 358.54 230.787C364.169 235.187 368.164 241.344 369.888 248.277C432.768 261.44 480 317.205 480 384V417.835C486.242 420.035 491.646 424.119 495.468 429.522C499.289 434.925 501.338 441.382 501.333 448V450.496C501.334 458.296 498.485 465.828 493.323 471.675C488.161 477.523 481.041 481.283 473.301 482.251L326.613 500.587C322.222 501.141 317.778 501.141 313.387 500.587L166.699 482.251C158.959 481.283 151.839 477.523 146.677 471.675C141.515 465.828 138.666 458.296 138.667 450.496V448C138.661 441.382 140.711 434.925 144.532 429.522C148.353 424.119 153.758 420.035 160 417.835ZM480 448V450.496C480.002 453.097 479.053 455.609 477.332 457.56C475.611 459.511 473.237 460.765 470.656 461.088L323.968 479.424C321.333 479.755 318.667 479.755 316.032 479.424L169.344 461.088C166.763 460.765 164.388 459.511 162.668 457.56C160.947 455.609 159.998 453.097 160 450.496V448C159.996 446.598 160.269 445.209 160.803 443.913C161.338 442.617 162.123 441.439 163.115 440.448C164.106 439.457 165.284 438.671 166.58 438.137C167.876 437.602 169.265 437.329 170.667 437.333H469.333C470.735 437.329 472.124 437.602 473.42 438.137C474.716 438.671 475.894 439.457 476.885 440.448C477.876 441.439 478.662 442.617 479.197 443.913C479.731 445.209 480.004 446.598 480 448ZM270.539 270.059L286.752 416H181.333V384C181.333 328.896 219.317 282.667 270.539 270.059ZM331.787 416H308.213L290.571 257.173C290.406 255.683 290.557 254.174 291.014 252.746C291.472 251.317 292.226 250.001 293.226 248.884C294.227 247.767 295.452 246.873 296.821 246.261C298.19 245.649 299.673 245.333 301.173 245.333H338.827C340.326 245.335 341.808 245.652 343.177 246.265C344.545 246.877 345.769 247.771 346.77 248.888C347.77 250.005 348.524 251.32 348.982 252.747C349.44 254.175 349.592 255.683 349.429 257.173L331.787 416ZM369.461 270.059C420.683 282.667 458.667 328.896 458.667 384V416H353.248L369.461 270.059Z" fill="black"/>
</svg>
