<svg width="393" height="429" viewBox="0 0 393 429" fill="none" xmlns="http://www.w3.org/2000/svg">
<mask id="path-1-inside-1_19001_9771" fill="white">
<path d="M385.47 379.944H360.774L342.364 149.594C341.086 133.498 325.957 120.891 307.824 120.891H246.135C252.216 114.919 256.611 107.445 258.874 99.2275C261.136 91.0098 261.187 82.3399 259.02 74.0964C256.853 65.8528 252.546 58.3285 246.534 52.2858C240.523 46.2431 233.021 41.8966 224.789 39.6869C233.493 29.4284 250.556 13.8161 273.905 13.8161C275.737 13.8161 277.494 13.0883 278.79 11.7928C280.085 10.4973 280.813 8.74021 280.813 6.90807C280.813 5.07594 280.085 3.31884 278.79 2.02333C277.494 0.727812 275.737 0 273.905 0C238.052 0 215.187 28.4613 208.486 38.2016C199.255 38.963 190.437 42.3593 183.081 47.9866C175.724 53.6139 170.139 61.2356 166.988 69.9453C163.837 78.655 163.254 88.0862 165.308 97.1177C167.362 106.149 171.966 114.401 178.574 120.891H117.645C99.6145 120.891 84.4858 133.498 83.1042 149.594L81.239 172.391C81.1664 173.298 81.2733 174.211 81.5534 175.077C81.8335 175.942 82.2814 176.745 82.8716 177.438C83.4617 178.13 84.1826 178.7 84.9929 179.114C85.8033 179.529 86.6873 179.779 87.5944 179.852C88.5016 179.924 89.4142 179.817 90.2801 179.537C91.146 179.257 91.9483 178.809 92.6411 178.219C93.3338 177.629 93.9036 176.908 94.3178 176.098C94.732 175.287 94.9826 174.403 95.0552 173.496L96.9203 150.7C97.6457 141.719 106.73 134.707 117.645 134.707H307.893C318.808 134.707 327.892 141.615 328.617 150.7L334.593 225.272H333.936C326.403 225.272 319.178 228.262 313.848 233.586C308.518 238.91 305.519 246.131 305.51 253.664V258.811C305.51 261.623 304.392 264.32 302.404 266.309C300.415 268.298 297.718 269.415 294.906 269.415C292.093 269.415 289.396 268.298 287.408 266.309C285.419 264.32 284.302 261.623 284.302 258.811V253.664C284.293 246.131 281.294 238.91 275.964 233.586C270.634 228.262 263.408 225.272 255.875 225.272H254.563C247.029 225.272 239.804 228.262 234.474 233.586C229.144 238.91 226.145 246.131 226.136 253.664V307.167C226.157 309.04 225.67 310.883 224.727 312.5C223.785 314.118 222.421 315.45 220.782 316.355C219.416 317.074 218.33 318.229 217.697 319.637C217.065 321.045 216.922 322.625 217.291 324.123C217.661 325.622 218.522 326.954 219.737 327.906C220.952 328.858 222.451 329.376 223.994 329.377C225.115 329.385 226.219 329.112 227.207 328.582C229.26 327.492 231.135 326.094 232.768 324.438C235.052 322.18 236.864 319.491 238.097 316.525C239.331 313.56 239.961 310.379 239.952 307.167V253.664C239.961 249.795 241.504 246.088 244.243 243.355C246.982 240.623 250.694 239.088 254.563 239.088H255.84C259.71 239.088 263.421 240.623 266.16 243.355C268.899 246.088 270.442 249.795 270.451 253.664V258.811C270.451 265.288 273.024 271.499 277.604 276.078C282.183 280.658 288.395 283.231 294.871 283.231C301.348 283.231 307.559 280.658 312.139 276.078C316.718 271.499 319.291 265.288 319.291 258.811V253.664C319.3 249.795 320.844 246.088 323.583 243.355C326.322 240.623 330.033 239.088 333.902 239.088H335.663L346.923 379.944H210.005C208.173 379.944 206.416 380.672 205.121 381.967C203.825 383.263 203.097 385.02 203.097 386.852C203.097 388.684 203.825 390.441 205.121 391.737C206.416 393.032 208.173 393.76 210.005 393.76H377.595C376.194 399.615 372.878 404.834 368.172 408.589C363.466 412.344 357.641 414.419 351.621 414.484H190.974C191.922 412.543 192.574 410.471 192.908 408.336L209.107 308.445C215.159 297.941 218.34 286.028 218.33 273.905C218.364 238.57 192.735 209.936 159.197 207.242C153.372 199.458 145.812 193.138 137.118 188.785C128.425 184.432 118.836 182.166 109.113 182.166C99.3904 182.166 89.8016 184.432 81.1078 188.785C72.414 193.138 64.8546 199.458 59.0296 207.242C25.6981 209.936 9.86064e-05 238.57 9.86064e-05 273.905C-0.0203768 286.025 3.14826 297.937 9.18783 308.445L25.3873 408.336C26.5847 414.189 29.8379 419.42 34.5579 423.082C39.278 426.744 45.153 428.595 51.1198 428.3H351.621C362.501 428.182 372.89 423.751 380.505 415.979C388.121 408.208 392.342 397.732 392.24 386.852C392.241 385.044 391.532 383.307 390.266 382.015C389 380.724 387.279 379.98 385.47 379.944ZM177.814 86.3509C177.814 79.5195 179.84 72.8414 183.635 67.1613C187.43 61.4812 192.825 57.054 199.136 54.4398C205.448 51.8255 212.393 51.1415 219.093 52.4742C225.793 53.807 231.947 57.0966 236.778 61.9272C241.608 66.7577 244.898 72.9122 246.231 79.6124C247.564 86.3126 246.88 93.2575 244.265 99.5689C241.651 105.88 237.224 111.275 231.544 115.07C225.864 118.866 219.186 120.891 212.354 120.891C203.194 120.891 194.408 117.252 187.93 110.775C181.453 104.297 177.814 95.5116 177.814 86.3509ZM62.9326 220.851C63.5304 220.821 64.1222 220.716 64.6942 220.54H65.2123C71.3286 220.635 77.3601 221.987 82.9315 224.512C83.8252 224.945 84.8054 225.17 85.7983 225.169C87.3821 225.185 88.9236 224.657 90.1644 223.673C91.4052 222.688 92.2701 221.307 92.6141 219.761C92.9581 218.215 92.7604 216.598 92.0541 215.18C91.3478 213.763 90.1757 212.631 88.7343 211.974C85.0259 210.268 81.1473 208.96 77.1633 208.071C85.9718 200.215 97.3622 195.874 109.165 195.874C120.968 195.874 132.358 200.215 141.167 208.071C137.171 208.96 133.281 210.268 129.561 211.974C128.122 212.63 126.952 213.758 126.245 215.173C125.539 216.587 125.339 218.2 125.678 219.744C126.018 221.288 126.876 222.669 128.111 223.656C129.346 224.643 130.882 225.177 132.462 225.169C133.466 225.17 134.458 224.946 135.364 224.512C140.918 221.963 146.938 220.587 153.048 220.471H153.636C154.208 220.647 154.799 220.752 155.397 220.782C183.029 221.542 204.548 244.96 204.548 273.836C204.547 282.723 202.402 291.479 198.296 299.361H20.0335C15.9394 291.476 13.8068 282.72 13.8162 273.836C13.8162 244.891 35.404 221.611 62.9326 220.851ZM155.086 414.484L167.141 325.336C167.384 323.504 166.889 321.65 165.765 320.183C164.641 318.716 162.98 317.755 161.148 317.512C159.316 317.27 157.462 317.764 155.995 318.888C154.528 320.012 153.568 321.673 153.325 323.505L141.167 414.484H116.056V323.712C116.056 321.88 115.328 320.123 114.032 318.827C112.737 317.532 110.98 316.804 109.148 316.804C107.315 316.804 105.558 317.532 104.263 318.827C102.967 320.123 102.24 321.88 102.24 323.712V414.484H77.1633L64.936 323.505C64.8158 322.598 64.5181 321.723 64.0598 320.931C63.6016 320.139 62.9919 319.445 62.2654 318.888C61.5389 318.332 60.71 317.924 59.8259 317.688C58.9417 317.452 58.0198 317.392 57.1126 317.512C56.2054 317.632 55.3308 317.93 54.5387 318.388C53.7465 318.847 53.0524 319.456 52.4959 320.183C51.9394 320.909 51.5315 321.738 51.2954 322.622C51.0593 323.507 50.9996 324.428 51.1198 325.336L63.2435 414.484H51.1198C48.4598 414.69 45.8102 413.971 43.6197 412.448C41.4293 410.924 39.8325 408.691 39.0998 406.126L23.9711 313.247H194.359L179.265 406.126C178.545 408.692 176.956 410.928 174.77 412.453C172.584 413.977 169.936 414.695 167.279 414.484H155.086Z"/>
</mask>
<path d="M385.47 379.944H360.774L342.364 149.594C341.086 133.498 325.957 120.891 307.824 120.891H246.135C252.216 114.919 256.611 107.445 258.874 99.2275C261.136 91.0098 261.187 82.3399 259.02 74.0964C256.853 65.8528 252.546 58.3285 246.534 52.2858C240.523 46.2431 233.021 41.8966 224.789 39.6869C233.493 29.4284 250.556 13.8161 273.905 13.8161C275.737 13.8161 277.494 13.0883 278.79 11.7928C280.085 10.4973 280.813 8.74021 280.813 6.90807C280.813 5.07594 280.085 3.31884 278.79 2.02333C277.494 0.727812 275.737 0 273.905 0C238.052 0 215.187 28.4613 208.486 38.2016C199.255 38.963 190.437 42.3593 183.081 47.9866C175.724 53.6139 170.139 61.2356 166.988 69.9453C163.837 78.655 163.254 88.0862 165.308 97.1177C167.362 106.149 171.966 114.401 178.574 120.891H117.645C99.6145 120.891 84.4858 133.498 83.1042 149.594L81.239 172.391C81.1664 173.298 81.2733 174.211 81.5534 175.077C81.8335 175.942 82.2814 176.745 82.8716 177.438C83.4617 178.13 84.1826 178.7 84.9929 179.114C85.8033 179.529 86.6873 179.779 87.5944 179.852C88.5016 179.924 89.4142 179.817 90.2801 179.537C91.146 179.257 91.9483 178.809 92.6411 178.219C93.3338 177.629 93.9036 176.908 94.3178 176.098C94.732 175.287 94.9826 174.403 95.0552 173.496L96.9203 150.7C97.6457 141.719 106.73 134.707 117.645 134.707H307.893C318.808 134.707 327.892 141.615 328.617 150.7L334.593 225.272H333.936C326.403 225.272 319.178 228.262 313.848 233.586C308.518 238.91 305.519 246.131 305.51 253.664V258.811C305.51 261.623 304.392 264.32 302.404 266.309C300.415 268.298 297.718 269.415 294.906 269.415C292.093 269.415 289.396 268.298 287.408 266.309C285.419 264.32 284.302 261.623 284.302 258.811V253.664C284.293 246.131 281.294 238.91 275.964 233.586C270.634 228.262 263.408 225.272 255.875 225.272H254.563C247.029 225.272 239.804 228.262 234.474 233.586C229.144 238.91 226.145 246.131 226.136 253.664V307.167C226.157 309.04 225.67 310.883 224.727 312.5C223.785 314.118 222.421 315.45 220.782 316.355C219.416 317.074 218.33 318.229 217.697 319.637C217.065 321.045 216.922 322.625 217.291 324.123C217.661 325.622 218.522 326.954 219.737 327.906C220.952 328.858 222.451 329.376 223.994 329.377C225.115 329.385 226.219 329.112 227.207 328.582C229.26 327.492 231.135 326.094 232.768 324.438C235.052 322.18 236.864 319.491 238.097 316.525C239.331 313.56 239.961 310.379 239.952 307.167V253.664C239.961 249.795 241.504 246.088 244.243 243.355C246.982 240.623 250.694 239.088 254.563 239.088H255.84C259.71 239.088 263.421 240.623 266.16 243.355C268.899 246.088 270.442 249.795 270.451 253.664V258.811C270.451 265.288 273.024 271.499 277.604 276.078C282.183 280.658 288.395 283.231 294.871 283.231C301.348 283.231 307.559 280.658 312.139 276.078C316.718 271.499 319.291 265.288 319.291 258.811V253.664C319.3 249.795 320.844 246.088 323.583 243.355C326.322 240.623 330.033 239.088 333.902 239.088H335.663L346.923 379.944H210.005C208.173 379.944 206.416 380.672 205.121 381.967C203.825 383.263 203.097 385.02 203.097 386.852C203.097 388.684 203.825 390.441 205.121 391.737C206.416 393.032 208.173 393.76 210.005 393.76H377.595C376.194 399.615 372.878 404.834 368.172 408.589C363.466 412.344 357.641 414.419 351.621 414.484H190.974C191.922 412.543 192.574 410.471 192.908 408.336L209.107 308.445C215.159 297.941 218.34 286.028 218.33 273.905C218.364 238.57 192.735 209.936 159.197 207.242C153.372 199.458 145.812 193.138 137.118 188.785C128.425 184.432 118.836 182.166 109.113 182.166C99.3904 182.166 89.8016 184.432 81.1078 188.785C72.414 193.138 64.8546 199.458 59.0296 207.242C25.6981 209.936 9.86064e-05 238.57 9.86064e-05 273.905C-0.0203768 286.025 3.14826 297.937 9.18783 308.445L25.3873 408.336C26.5847 414.189 29.8379 419.42 34.5579 423.082C39.278 426.744 45.153 428.595 51.1198 428.3H351.621C362.501 428.182 372.89 423.751 380.505 415.979C388.121 408.208 392.342 397.732 392.24 386.852C392.241 385.044 391.532 383.307 390.266 382.015C389 380.724 387.279 379.98 385.47 379.944ZM177.814 86.3509C177.814 79.5195 179.84 72.8414 183.635 67.1613C187.43 61.4812 192.825 57.054 199.136 54.4398C205.448 51.8255 212.393 51.1415 219.093 52.4742C225.793 53.807 231.947 57.0966 236.778 61.9272C241.608 66.7577 244.898 72.9122 246.231 79.6124C247.564 86.3126 246.88 93.2575 244.265 99.5689C241.651 105.88 237.224 111.275 231.544 115.07C225.864 118.866 219.186 120.891 212.354 120.891C203.194 120.891 194.408 117.252 187.93 110.775C181.453 104.297 177.814 95.5116 177.814 86.3509ZM62.9326 220.851C63.5304 220.821 64.1222 220.716 64.6942 220.54H65.2123C71.3286 220.635 77.3601 221.987 82.9315 224.512C83.8252 224.945 84.8054 225.17 85.7983 225.169C87.3821 225.185 88.9236 224.657 90.1644 223.673C91.4052 222.688 92.2701 221.307 92.6141 219.761C92.9581 218.215 92.7604 216.598 92.0541 215.18C91.3478 213.763 90.1757 212.631 88.7343 211.974C85.0259 210.268 81.1473 208.96 77.1633 208.071C85.9718 200.215 97.3622 195.874 109.165 195.874C120.968 195.874 132.358 200.215 141.167 208.071C137.171 208.96 133.281 210.268 129.561 211.974C128.122 212.63 126.952 213.758 126.245 215.173C125.539 216.587 125.339 218.2 125.678 219.744C126.018 221.288 126.876 222.669 128.111 223.656C129.346 224.643 130.882 225.177 132.462 225.169C133.466 225.17 134.458 224.946 135.364 224.512C140.918 221.963 146.938 220.587 153.048 220.471H153.636C154.208 220.647 154.799 220.752 155.397 220.782C183.029 221.542 204.548 244.96 204.548 273.836C204.547 282.723 202.402 291.479 198.296 299.361H20.0335C15.9394 291.476 13.8068 282.72 13.8162 273.836C13.8162 244.891 35.404 221.611 62.9326 220.851ZM155.086 414.484L167.141 325.336C167.384 323.504 166.889 321.65 165.765 320.183C164.641 318.716 162.98 317.755 161.148 317.512C159.316 317.27 157.462 317.764 155.995 318.888C154.528 320.012 153.568 321.673 153.325 323.505L141.167 414.484H116.056V323.712C116.056 321.88 115.328 320.123 114.032 318.827C112.737 317.532 110.98 316.804 109.148 316.804C107.315 316.804 105.558 317.532 104.263 318.827C102.967 320.123 102.24 321.88 102.24 323.712V414.484H77.1633L64.936 323.505C64.8158 322.598 64.5181 321.723 64.0598 320.931C63.6016 320.139 62.9919 319.445 62.2654 318.888C61.5389 318.332 60.71 317.924 59.8259 317.688C58.9417 317.452 58.0198 317.392 57.1126 317.512C56.2054 317.632 55.3308 317.93 54.5387 318.388C53.7465 318.847 53.0524 319.456 52.4959 320.183C51.9394 320.909 51.5315 321.738 51.2954 322.622C51.0593 323.507 50.9996 324.428 51.1198 325.336L63.2435 414.484H51.1198C48.4598 414.69 45.8102 413.971 43.6197 412.448C41.4293 410.924 39.8325 408.691 39.0998 406.126L23.9711 313.247H194.359L179.265 406.126C178.545 408.692 176.956 410.928 174.77 412.453C172.584 413.977 169.936 414.695 167.279 414.484H155.086Z" fill="#9E366B" stroke="white" stroke-width="4" mask="url(#path-1-inside-1_19001_9771)"/>
</svg>
