<svg width="590" height="590" viewBox="0 0 590 590" fill="none" xmlns="http://www.w3.org/2000/svg">
<path d="M167.166 334.331H186.833V353.997H167.166V334.331ZM206.499 334.331H226.166V353.997H206.499V334.331ZM245.832 334.331H265.499V353.997H245.832V334.331ZM167.166 373.664H186.833V393.33H167.166V373.664ZM206.499 373.664H226.166V393.33H206.499V373.664ZM245.832 373.664H265.499V393.33H245.832V373.664ZM285.165 373.664H304.831V393.33H285.165V373.664ZM324.498 373.664H344.164V393.33H324.498V373.664ZM167.166 412.997H186.833V432.663H167.166V412.997ZM206.499 412.997H226.166V432.663H206.499V412.997ZM245.832 412.997H265.499V432.663H245.832V412.997ZM285.165 412.997H304.831V432.663H285.165V412.997ZM324.498 412.997H344.164V432.663H324.498V412.997ZM167.166 452.33H186.833V471.996H167.166V452.33ZM206.499 452.33H226.166V471.996H206.499V452.33ZM245.832 452.33H265.499V471.996H245.832V452.33ZM285.165 452.33H304.831V471.996H285.165V452.33ZM324.498 452.33H344.164V471.996H324.498V452.33ZM167.166 491.662H186.833V511.329H167.166V491.662ZM206.499 491.662H226.166V511.329H206.499V491.662ZM245.832 491.662H265.499V511.329H245.832V491.662ZM285.165 491.662H304.831V511.329H285.165V491.662ZM324.498 491.662H344.164V511.329H324.498V491.662ZM167.166 530.995H186.833V550.662H167.166V530.995ZM206.499 530.995H226.166V550.662H206.499V530.995ZM245.832 530.995H265.499V550.662H245.832V530.995ZM285.165 530.995H304.831V550.662H285.165V530.995ZM324.498 530.995H344.164V550.662H324.498V530.995Z" fill="black"/>
<path d="M580.161 29.5018H511.329V9.83541C511.329 7.22748 510.293 4.72636 508.449 2.88228C506.605 1.03819 504.104 0.00219727 501.496 0.00219727L403.163 0.00219727C400.556 0.00219727 398.054 1.03819 396.21 2.88228C394.366 4.72636 393.33 7.22748 393.33 9.83541V29.5018H9.83492C7.22699 29.5018 4.72588 30.5378 2.88179 32.3819C1.03771 34.226 0.00170898 36.7271 0.00170898 39.3351L0.00170898 78.6679C0.00170898 84.1032 4.40453 88.5011 9.83492 88.5011H39.3346V275.332C39.3346 280.768 43.7374 285.165 49.1678 285.165C51.1126 285.165 53.0138 285.742 54.6308 286.823C56.2479 287.903 57.5082 289.439 58.2525 291.236C58.9967 293.032 59.1915 295.01 58.8121 296.917C58.4326 298.824 57.4961 300.577 56.1209 301.952C54.7457 303.327 52.9936 304.263 51.0861 304.643C49.1787 305.022 47.2016 304.828 45.4048 304.083C43.608 303.339 42.0722 302.079 40.9918 300.462C39.9113 298.845 39.3346 296.943 39.3346 294.999H19.6681C19.6964 302.195 22.3723 309.134 27.1918 314.483L1.96958 348.102L2.09495 348.198C0.780321 349.849 0.0448533 351.887 0.00170898 353.998L0.00170898 393.331C0.00170898 395.943 1.03911 398.439 2.88284 400.283L22.5493 419.949C24.393 421.793 26.8937 422.83 29.5014 422.83H68.8342C71.4419 422.83 73.9426 421.793 75.7863 419.949L95.4527 400.283C96.3662 399.37 97.0909 398.286 97.5852 397.094C98.0796 395.901 98.334 394.622 98.3338 393.331V353.998C98.2907 351.887 97.5552 349.849 96.2406 348.198L96.3647 348.102L71.1426 314.483C74.3764 310.89 76.6715 306.553 77.8235 301.859C78.9756 297.164 78.9488 292.258 77.7456 287.576C76.5441 282.895 74.204 278.584 70.9337 275.026C67.6634 271.468 63.5642 268.774 59.001 267.183V88.5011H393.33V98.3343C393.33 103.77 397.733 108.168 403.163 108.168H422.83V570.329H383.497V177H363.831V216.333H304.831V196.666H285.165V216.333H226.166V206.5H206.499V216.333H147.5V186.833H275.332V167.167H147.5V127.834H127.833V570.329H112.238L65.9531 524.049C65.0403 523.135 63.9565 522.411 62.7636 521.917C61.5707 521.422 60.2922 521.168 59.001 521.168C57.7098 521.168 56.4312 521.422 55.2384 521.917C54.0455 522.411 52.9617 523.135 52.0489 524.049L5.76274 570.329H0.00170898V589.995H589.995V570.329H582.327C585.729 566.614 588.114 562.082 589.249 557.174C590.384 552.266 590.231 547.148 588.805 542.316C587.38 537.485 584.731 533.104 581.114 529.598C577.497 526.092 573.036 523.58 568.162 522.306C570.595 516.311 570.989 509.683 569.285 503.442C567.58 497.202 563.871 491.694 558.729 487.769C553.587 483.843 547.298 481.716 540.829 481.716C534.36 481.716 528.071 483.843 522.93 487.769C517.787 491.694 514.078 497.201 512.373 503.442C510.668 509.683 511.062 516.311 513.495 522.306C508.621 523.58 504.16 526.092 500.544 529.598C496.927 533.104 494.278 537.485 492.853 542.316C491.427 547.148 491.275 552.266 492.41 557.174C493.544 562.082 495.929 566.614 499.331 570.329H481.829V108.168H501.496C506.926 108.168 511.329 103.77 511.329 98.3343V88.5011H580.161C585.592 88.5011 589.995 84.1032 589.995 78.6679V39.3351C589.995 36.7271 588.959 34.226 587.114 32.3819C585.27 30.5378 582.769 29.5018 580.161 29.5018ZM54.0844 324.498L68.8342 344.165H29.5014L44.2512 324.498H54.0844ZM78.6674 389.264L64.762 403.164H33.5748L19.6681 389.264V363.831H78.6674V389.264ZM537.881 49.1683L511.329 66.8705V49.1683H537.881ZM412.997 19.6686H452.33V59.0015H412.997V19.6686ZM147.5 51.1374L174.052 68.8347H120.948L147.5 51.1374ZM88.5006 66.8705L61.9485 49.1683H115.053L88.5006 66.8705ZM179.947 49.1683H233.051L206.499 66.8705L179.947 49.1683ZM265.498 51.1374L292.051 68.8347H238.946L265.498 51.1374ZM297.946 49.1683H351.05L324.498 66.8705L297.946 49.1683ZM19.6681 49.1683H26.5538L56.0535 68.8347H19.6681V49.1683ZM356.945 68.8347L386.445 49.1683H393.33V68.8347H356.945ZM462.163 537.881L444.465 511.329L462.163 484.782V537.881ZM462.163 301.884L444.465 275.332L462.163 248.785V301.884ZM442.496 307.784L460.194 334.331L442.496 360.884V307.784ZM442.496 242.885V189.786L460.194 216.333L442.496 242.885ZM442.496 425.783L460.194 452.33L442.496 478.882V425.783ZM462.163 419.825L444.465 393.331L462.163 366.784V419.825ZM444.465 157.334L462.163 130.786V183.886L444.465 157.334ZM442.496 124.886V108.168H453.626L442.496 124.886ZM363.831 235.999V334.331H304.831V235.999H363.831ZM285.165 235.999V320.565L262.551 298.215C260.716 296.404 258.244 295.384 255.665 295.374H226.166V235.999H285.165ZM206.499 235.999V252.391H147.5V235.999H206.499ZM59.001 544.901L84.4297 570.329H33.5723L59.001 544.901ZM147.5 570.329V272.058H206.499V305.245C206.499 310.68 210.902 315.078 216.332 315.078H251.621L288.112 351.16C289.947 352.972 292.42 353.991 294.998 353.998H363.831V570.329H147.5ZM442.496 543.781L460.194 570.329H442.496V543.781ZM560.495 560.495C557.887 560.495 555.386 559.459 553.542 557.615C551.698 555.771 550.662 553.27 550.662 550.662C550.662 548.054 551.698 545.553 553.542 543.709C555.386 541.865 557.887 540.829 560.495 540.829C563.103 540.829 565.604 541.865 567.448 543.709C569.292 545.553 570.328 548.054 570.328 550.662C570.328 553.27 569.292 555.771 567.448 557.615C565.604 559.459 563.103 560.495 560.495 560.495ZM540.828 501.496C543.436 501.496 545.938 502.532 547.782 504.376C549.626 506.22 550.662 508.721 550.662 511.329C550.662 513.937 549.626 516.438 547.782 518.283C545.938 520.127 543.436 521.163 540.828 521.163C538.221 521.163 535.719 520.127 533.875 518.283C532.031 516.438 530.995 513.937 530.995 511.329C530.995 508.721 532.031 506.22 533.875 504.376C535.719 502.532 538.221 501.496 540.828 501.496ZM521.162 540.829C523.77 540.829 526.271 541.865 528.115 543.709C529.959 545.553 530.995 548.054 530.995 550.662C530.995 553.27 529.959 555.771 528.115 557.615C526.271 559.459 523.77 560.495 521.162 560.495C518.554 560.495 516.053 559.459 514.209 557.615C512.365 555.771 511.329 553.27 511.329 550.662C511.329 548.054 512.365 545.553 514.209 543.709C516.053 541.865 518.554 540.829 521.162 540.829ZM491.662 88.5011H412.997V78.6679H462.163C467.593 78.6679 471.996 74.27 471.996 68.8347V19.6686H491.662V88.5011ZM543.776 68.8347L570.328 51.1374V68.8347H543.776Z" fill="black"/>
</svg>
