<svg width="186" height="186" viewBox="0 0 186 186" fill="none" xmlns="http://www.w3.org/2000/svg">
<path d="M170.346 77.7019C178.586 77.7019 185.289 70.9986 185.289 62.7592V14.9427C185.289 6.70328 178.586 0 170.346 0H110.576C102.336 0 95.6331 6.70328 95.6331 14.9427V62.7592C95.6331 70.9986 102.336 77.7019 110.576 77.7019H131.495V125.686C131.495 127.046 131.182 128.405 130.584 129.625L128.077 117.097C127.194 112.734 124.832 108.81 121.39 105.988C117.948 103.166 113.637 101.62 109.186 101.61C107.178 101.613 105.252 102.411 103.832 103.832C102.411 105.252 101.613 107.178 101.61 109.186C101.61 110.686 102.049 112.139 102.883 113.388L105.958 118.002C107.097 119.709 107.832 121.687 108.086 123.722L110.202 140.67C110.525 143.246 111.517 145.706 113.074 147.78L119.541 156.399V161.381H113.564V185.289H185.289V161.381H179.312V156.109L183.711 147.311C184.742 145.249 185.289 142.936 185.289 140.628V104.599C185.289 99.6556 181.267 95.6331 176.323 95.6331C175.143 95.6331 174.022 95.8751 172.988 96.2906C172.48 94.3917 171.36 92.7131 169.802 91.5139C168.244 90.3148 166.335 89.6619 164.369 89.656C163.189 89.656 162.068 89.8981 161.034 90.3135C160.525 88.4146 159.406 86.736 157.848 85.5369C156.29 84.3378 154.381 83.6848 152.415 83.6789C151.363 83.6789 150.365 83.8941 149.427 84.2288V77.7019H170.346ZM110.576 71.7248C105.633 71.7248 101.61 67.7022 101.61 62.7592V14.9427C101.61 9.99963 105.633 5.97707 110.576 5.97707H170.346C175.289 5.97707 179.312 9.99963 179.312 14.9427V62.7592C179.312 67.7022 175.289 71.7248 170.346 71.7248H149.427V65.4937C150.144 65.6252 150.867 65.7477 151.596 65.7477C154.825 65.7387 157.92 64.4565 160.209 62.1794L164.369 58.0194C166.297 56.0918 167.358 53.5306 167.358 50.8051C167.358 48.0795 166.297 45.5154 164.369 43.5908L159.101 38.322C158.323 37.5394 157.397 36.919 156.378 36.4968C155.359 36.0746 154.266 35.8589 153.162 35.8624H152.768C149.57 35.8624 146.692 37.6406 145.261 40.5036C145.061 40.9061 144.752 41.2447 144.37 41.4808C143.987 41.7169 143.546 41.8411 143.097 41.8395H142.702C142.385 41.8404 142.07 41.7783 141.777 41.6567C141.483 41.5351 141.217 41.3565 140.993 41.1312L138.184 38.322C137.957 38.0983 137.778 37.8316 137.655 37.5375C137.533 37.2435 137.471 36.928 137.473 36.6095V36.215C137.473 35.2916 137.984 34.4638 138.808 34.0513C140.206 33.3585 141.382 32.2879 142.202 30.9611C143.022 29.6342 143.454 28.1041 143.45 26.5442V26.1497C143.45 23.9083 142.577 21.7984 140.99 20.2144L135.721 14.9427C131.869 11.0875 125.145 11.0875 121.293 14.9427L117.133 19.1027C114.864 21.371 113.564 24.509 113.564 27.9996C113.564 29.6582 113.896 31.272 114.55 32.7962C118.662 42.4151 125.227 50.7854 133.59 57.069C132.246 58.6614 131.505 60.6755 131.495 62.7592V71.7248H110.576ZM139.469 53.8952C130.868 48.1131 124.122 39.9682 120.043 30.4412C119.685 29.5785 119.514 28.6495 119.541 27.7157C119.541 26.0839 120.205 24.4821 121.358 23.3285L125.518 19.1685C127.09 17.5965 129.924 17.5965 131.495 19.1685L136.764 24.4372C136.99 24.6616 137.169 24.9285 137.29 25.2224C137.412 25.5164 137.474 25.8316 137.473 26.1497V26.5442C137.475 26.9937 137.35 27.4347 137.114 27.8172C136.878 28.1997 136.539 28.5083 136.137 28.7079C134.739 29.4007 133.563 30.4713 132.743 31.7981C131.923 33.125 131.491 34.6551 131.495 36.215V36.6095C131.495 38.8509 132.368 40.9608 133.955 42.5448L136.764 45.354C138.348 46.9439 140.458 47.8165 142.702 47.8165H143.097C146.295 47.8165 149.173 46.0384 150.604 43.1753C150.804 42.7728 151.113 42.4343 151.495 42.1982C151.878 41.9621 152.318 41.8378 152.768 41.8395H153.162C153.808 41.8395 154.415 42.0905 154.872 42.5478L160.144 47.8165C160.93 48.6025 161.381 49.6933 161.381 50.8051C161.381 51.9168 160.93 53.0076 160.144 53.7936L155.984 57.9536C155.051 58.8546 153.865 59.4489 152.585 59.6567C151.305 59.8644 149.993 59.6759 148.823 59.1162L148.566 58.9877C147.85 57.4402 146.706 56.1293 145.271 55.2092C143.835 54.2891 142.166 53.798 140.461 53.7936C140.12 53.7936 139.798 53.8564 139.469 53.8952ZM179.312 179.312H119.541V167.358H179.312V179.312ZM152.415 89.656C154.062 89.656 155.404 90.9979 155.404 92.6445V116.553H161.381V98.6216C161.415 97.8521 161.745 97.1256 162.302 96.5932C162.859 96.0609 163.599 95.7638 164.369 95.7638C165.14 95.7638 165.88 96.0609 166.437 96.5932C166.994 97.1256 167.323 97.8521 167.358 98.6216V116.553H173.335V104.599C173.369 103.829 173.699 103.103 174.256 102.57C174.813 102.038 175.553 101.741 176.323 101.741C177.094 101.741 177.834 102.038 178.391 102.57C178.948 103.103 179.278 103.829 179.312 104.599V140.628C179.312 142.012 178.986 143.402 178.365 144.639L173.335 154.698V161.381H125.518V154.409L117.859 144.197C116.924 142.947 116.33 141.477 116.134 139.929L114.019 122.981C113.644 120.015 112.587 117.177 110.931 114.688L107.856 110.074C107.697 109.833 107.605 109.553 107.592 109.264C107.578 108.975 107.643 108.688 107.779 108.434C107.915 108.179 108.118 107.965 108.366 107.816C108.614 107.667 108.897 107.588 109.186 107.587C112.256 107.594 115.23 108.66 117.604 110.607C119.978 112.553 121.607 115.259 122.216 118.268L126.056 137.473H133.342L135.895 132.368C136.926 130.306 137.473 127.993 137.473 125.686V62.7592C137.473 61.1125 138.814 59.7707 140.461 59.7707C142.108 59.7707 143.45 61.1125 143.45 62.7592V116.553H149.427V92.6445C149.427 90.9979 150.769 89.656 152.415 89.656ZM74.7133 95.6331H14.9427C6.70328 95.6331 0 102.336 0 110.576V158.392C0 166.632 6.70328 173.335 14.9427 173.335H74.7133C82.9527 173.335 89.656 166.632 89.656 158.392V110.576C89.656 102.336 82.9527 95.6331 74.7133 95.6331ZM83.6789 158.392C83.6789 163.335 79.6564 167.358 74.7133 167.358H14.9427C9.99963 167.358 5.97707 163.335 5.97707 158.392V110.576C5.97707 105.633 9.99963 101.61 14.9427 101.61H74.7133C79.6564 101.61 83.6789 105.633 83.6789 110.576V158.392ZM74.7133 0H14.9427C6.70328 0 0 6.70328 0 14.9427V62.7592C0 70.9986 6.70328 77.7019 14.9427 77.7019H74.7133C82.9527 77.7019 89.656 70.9986 89.656 62.7592V14.9427C89.656 6.70328 82.9527 0 74.7133 0ZM83.6789 62.7592C83.6789 67.7022 79.6564 71.7248 74.7133 71.7248H14.9427C9.99963 71.7248 5.97707 67.7022 5.97707 62.7592V14.9427C5.97707 9.99963 9.99963 5.97707 14.9427 5.97707H74.7133C79.6564 5.97707 83.6789 9.99963 83.6789 14.9427V62.7592Z" fill="black"/>
<path d="M44.827 11.9541C31.6446 11.9541 20.9187 22.6799 20.9187 35.8624V41.8394C20.9187 55.0219 31.6446 65.7477 44.827 65.7477V59.7706C34.9379 59.7706 26.8958 51.7285 26.8958 41.8394V35.8624C26.8958 25.9733 34.9379 17.9312 44.827 17.9312C54.716 17.9312 62.7582 25.9733 62.7582 35.8624V50.805C62.7582 52.4517 61.4163 53.7936 59.7697 53.7936C58.123 53.7936 56.7811 52.4517 56.7811 50.805V35.8624C56.7811 29.2697 51.4197 23.9082 44.827 23.9082C38.2343 23.9082 32.8729 29.2697 32.8729 35.8624V41.8394C32.8729 48.4321 38.2343 53.7936 44.827 53.7936C47.0654 53.7936 49.1365 53.1361 50.9296 52.0602C51.2287 54.194 52.2873 56.1484 53.9111 57.5646C55.5349 58.9809 57.615 59.7642 59.7697 59.7706C64.7127 59.7706 68.7353 55.7481 68.7353 50.805V35.8624C68.7353 22.6799 58.0094 11.9541 44.827 11.9541ZM44.827 47.8165C41.5306 47.8165 38.8499 45.1358 38.8499 41.8394V35.8624C38.8499 32.566 41.5306 29.8853 44.827 29.8853C48.1233 29.8853 50.8041 32.566 50.8041 35.8624V41.8394C50.8041 45.1358 48.1233 47.8165 44.827 47.8165ZM11.9531 155.404H77.7009V113.564H11.9531V155.404ZM34.8632 140.306C37.7651 142.341 41.2079 143.45 44.827 143.45C48.4461 143.45 51.8889 142.341 54.7908 140.306L66.192 149.427H23.462L34.8632 140.306ZM59.2616 136.229L71.7238 123.767V146.196L59.2616 136.229ZM52.917 134.122C48.5955 138.441 41.0585 138.441 36.737 134.122L22.156 119.541H67.498L52.917 134.122ZM30.3894 136.226L17.9302 146.196V123.767L30.3894 136.226Z" fill="black"/>
</svg>
