<svg width="512" height="512" viewBox="0 0 512 512" fill="none" xmlns="http://www.w3.org/2000/svg">
<path d="M25.6 512H486.4C493.19 512 499.701 509.303 504.502 504.502C509.303 499.701 512 493.189 512 486.4C512 426.846 500.907 334.694 500.813 333.653C499.207 321.909 494.171 310.9 486.335 302.006C478.499 293.112 468.212 286.729 456.764 283.656C464.925 272.968 469.342 259.891 469.333 246.443V231.424C469.449 215.452 463.226 200.086 452.028 188.696C440.83 177.306 425.572 170.822 409.6 170.667C401.713 170.659 393.904 172.235 386.637 175.304C379.371 178.372 372.795 182.868 367.3 188.527C356.096 199.991 349.837 215.394 349.867 231.424V246.443C349.84 262.487 356.109 277.902 367.326 289.374C375.596 297.862 386.229 303.665 397.841 306.031C395.483 309.794 393.621 313.847 392.303 318.088L389.231 328.328C386.956 324.506 383.73 321.337 379.868 319.13C376.006 316.922 371.638 315.752 367.189 315.733H144.811C140.362 315.757 135.995 316.93 132.135 319.14C128.274 321.35 125.05 324.521 122.778 328.345L119.697 318.105C118.382 313.863 116.52 309.81 114.159 306.048C125.784 303.677 136.427 297.861 144.7 289.357C155.908 277.888 162.168 262.479 162.133 246.443V231.424C162.16 215.379 155.891 199.965 144.674 188.493C139.179 182.843 132.606 178.355 125.345 175.293C118.083 172.231 110.281 170.658 102.4 170.667C86.4282 170.822 71.17 177.306 59.9721 188.696C48.7741 200.086 42.5507 215.452 42.6667 231.424V246.443C42.6558 259.894 47.073 272.974 55.2363 283.665C43.7746 286.75 33.4787 293.149 25.6396 302.062C17.8004 310.974 12.7669 322.003 11.1701 333.764C11.0933 334.694 0 426.846 0 486.4C0 493.189 2.69714 499.701 7.49807 504.502C12.299 509.303 18.8105 512 25.6 512ZM76.8 486.4V468.48C78.7442 469.029 80.7531 469.316 82.7733 469.333H429.227C431.247 469.316 433.256 469.029 435.2 468.48V486.4C435.2 488.663 434.301 490.834 432.701 492.434C431.1 494.034 428.93 494.933 426.667 494.933H85.3333C83.0702 494.933 80.8997 494.034 79.2994 492.434C77.6991 490.834 76.8 488.663 76.8 486.4ZM483.883 335.821C484.002 336.725 494.933 427.878 494.933 486.4C494.933 488.663 494.034 490.834 492.434 492.434C490.834 494.034 488.663 494.933 486.4 494.933H450.697C451.707 492.2 452.238 489.314 452.267 486.4V446.293C452.261 442.346 451.238 438.466 449.297 435.029L427.964 396.996L443.068 361.762C443.922 359.689 443.926 357.363 443.078 355.287C442.231 353.211 440.601 351.552 438.54 350.669C436.479 349.785 434.154 349.748 432.066 350.566C429.978 351.383 428.296 352.99 427.383 355.038L410.624 394.086C408.65 398.692 405.368 402.616 401.184 405.374C397.001 408.132 392.1 409.601 387.089 409.6H337.067C333.672 409.6 330.416 408.251 328.016 405.851C325.615 403.45 324.267 400.195 324.267 396.8C324.267 393.405 325.615 390.149 328.016 387.749C330.416 385.348 333.672 384 337.067 384H371.302C376.815 384.026 382.187 382.261 386.609 378.97C391.032 375.68 394.267 371.043 395.827 365.756L408.627 322.995C410.705 315.941 415.02 309.753 420.921 305.365C426.822 300.977 433.99 298.626 441.344 298.667C451.722 298.692 461.741 302.466 469.558 309.293C477.374 316.12 482.461 325.54 483.883 335.821ZM366.933 246.443V231.424C366.906 219.852 371.423 208.732 379.511 200.456C383.418 196.427 388.095 193.225 393.264 191.039C398.432 188.853 403.988 187.729 409.6 187.733C421.047 187.884 431.967 192.568 439.965 200.758C447.964 208.949 452.387 219.977 452.267 231.424V246.443C452.302 253.418 450.67 260.301 447.505 266.518C444.34 272.735 439.735 278.105 434.074 282.18C426.787 283.227 419.816 285.847 413.645 289.86C412.302 290.023 410.952 290.114 409.6 290.133C403.995 290.138 398.446 289.017 393.282 286.838C388.118 284.658 383.444 281.464 379.537 277.444C371.436 269.161 366.91 258.029 366.933 246.443ZM137.284 337.212C138.03 335.871 139.122 334.754 140.445 333.978C141.769 333.203 143.276 332.796 144.811 332.8H367.189C368.715 332.79 370.216 333.189 371.535 333.956C372.855 334.723 373.944 335.829 374.69 337.16L382.447 350.933L379.477 360.849C378.95 362.608 377.871 364.149 376.398 365.245C374.925 366.341 373.138 366.933 371.302 366.933H337.067C329.146 366.933 321.549 370.08 315.948 375.681C310.347 381.282 307.2 388.879 307.2 396.8C307.2 404.721 310.347 412.318 315.948 417.919C321.549 423.52 329.146 426.667 337.067 426.667H387.089C392.805 426.656 398.461 425.493 403.717 423.247C408.973 421 413.723 417.717 417.681 413.593L434.389 443.349C434.912 444.243 435.192 445.258 435.2 446.293C435.2 447.078 435.046 447.854 434.745 448.579C434.445 449.304 434.005 449.962 433.45 450.517C432.896 451.072 432.237 451.512 431.513 451.812C430.788 452.112 430.011 452.267 429.227 452.267H82.7733C81.9889 452.267 81.2122 452.112 80.4874 451.812C79.7627 451.512 79.1042 451.072 78.5496 450.517C77.9949 449.962 77.5549 449.304 77.2547 448.579C76.9545 447.854 76.8 447.078 76.8 446.293C76.8059 445.274 77.0764 444.275 77.5851 443.392L94.3189 413.593C98.2773 417.717 103.027 421 108.283 423.247C113.539 425.493 119.195 426.656 124.911 426.667H174.933C182.854 426.667 190.451 423.52 196.052 417.919C201.653 412.318 204.8 404.721 204.8 396.8C204.8 388.879 201.653 381.282 196.052 375.681C190.451 370.08 182.854 366.933 174.933 366.933H140.698C138.863 366.934 137.077 366.343 135.604 365.249C134.132 364.154 133.051 362.614 132.523 360.857L129.553 350.942L137.284 337.212ZM59.7333 231.424C59.6126 219.977 64.0365 208.949 72.0348 200.758C80.0331 192.568 90.9531 187.884 102.4 187.733C108.005 187.728 113.554 188.849 118.718 191.029C123.882 193.208 128.556 196.403 132.463 200.422C140.564 208.705 145.09 219.838 145.067 231.424V246.443C145.094 258.015 140.577 269.135 132.489 277.41C128.582 281.439 123.905 284.642 118.737 286.828C113.568 289.013 108.012 290.137 102.4 290.133C101.05 290.106 99.7028 290.006 98.3637 289.835C92.1887 285.823 85.2151 283.202 77.9264 282.155C72.2684 278.082 67.6655 272.716 64.501 266.504C61.3364 260.292 59.7018 253.414 59.7333 246.443V231.424ZM28.1003 335.923C29.5063 325.624 34.5881 316.181 42.4088 309.334C50.2295 302.487 60.2617 298.699 70.656 298.667C78.0055 298.631 85.1674 300.985 91.0634 305.373C96.9594 309.761 101.27 315.945 103.347 322.995L116.147 365.756C117.709 371.047 120.947 375.687 125.375 378.978C129.803 382.269 135.181 384.031 140.698 384H174.933C178.328 384 181.584 385.348 183.984 387.749C186.385 390.149 187.733 393.405 187.733 396.8C187.733 400.195 186.385 403.45 183.984 405.851C181.584 408.251 178.328 409.6 174.933 409.6H124.911C119.9 409.601 114.999 408.132 110.816 405.374C106.632 402.616 103.35 398.692 101.376 394.086L84.6421 355.038C84.2114 353.992 83.5771 353.043 82.7762 352.244C81.9752 351.446 81.0236 350.815 79.9766 350.387C78.9296 349.96 77.8081 349.745 76.6773 349.755C75.5465 349.765 74.429 350 73.3896 350.445C72.3503 350.891 71.4099 351.539 70.623 352.351C69.8362 353.163 69.2187 354.124 68.8063 355.177C68.394 356.229 68.195 357.354 68.221 358.484C68.247 359.615 68.4975 360.729 68.9579 361.762L84.0619 396.996L62.6773 435.08C60.75 438.503 59.7361 442.365 59.7333 446.293V486.4C59.7616 489.314 60.2928 492.2 61.3035 494.933H25.6C23.3368 494.933 21.1663 494.034 19.566 492.434C17.9657 490.834 17.0667 488.663 17.0667 486.4C17.0667 427.878 27.9979 336.725 28.1003 335.923Z" fill="black"/>
<path d="M221.867 170.667H270.259L311.381 201.054C314.126 203.129 317.396 204.395 320.823 204.707C324.249 205.019 327.695 204.366 330.769 202.82C333.969 201.21 336.654 198.737 338.521 195.68C340.388 192.623 341.362 189.105 341.333 185.523V170.667H358.4C365.19 170.667 371.701 167.97 376.502 163.169C381.303 158.368 384 151.856 384 145.067V59.7333C384 52.9438 381.303 46.4323 376.502 41.6314C371.701 36.8305 365.19 34.1333 358.4 34.1333H281.6V25.6C281.6 18.8105 278.903 12.299 274.102 7.49807C269.301 2.69714 262.79 0 256 0L119.467 0C112.677 0 106.166 2.69714 101.365 7.49807C96.5638 12.299 93.8667 18.8105 93.8667 25.6V110.933C93.8667 117.723 96.5638 124.234 101.365 129.035C106.166 133.836 112.677 136.533 119.467 136.533H136.533V151.39C136.503 154.974 137.477 158.495 139.346 161.554C141.215 164.613 143.903 167.087 147.106 168.695C150.166 170.242 153.598 170.902 157.014 170.6C160.429 170.299 163.692 169.048 166.434 166.989L196.267 144.922V145.067C196.267 151.856 198.964 158.368 203.765 163.169C208.566 167.97 215.077 170.667 221.867 170.667ZM358.4 51.2C360.663 51.2 362.834 52.099 364.434 53.6994C366.034 55.2997 366.933 57.4702 366.933 59.7333V145.067C366.933 147.33 366.034 149.5 364.434 151.101C362.834 152.701 360.663 153.6 358.4 153.6H332.8C330.537 153.6 328.366 154.499 326.766 156.099C325.166 157.7 324.267 159.87 324.267 162.133V185.515C324.295 185.928 324.203 186.341 324.001 186.703C323.8 187.065 323.498 187.36 323.132 187.554C322.884 187.692 322.6 187.747 322.319 187.712C322.038 187.676 321.776 187.552 321.57 187.358L278.136 155.273C276.67 154.184 274.892 153.597 273.067 153.6H221.867C219.604 153.6 217.433 152.701 215.833 151.101C214.232 149.5 213.333 147.33 213.333 145.067V136.533H256C259.582 136.525 263.121 135.76 266.387 134.29C269.653 132.819 272.572 130.676 274.953 128H315.733C317.997 128 320.167 127.101 321.767 125.501C323.368 123.9 324.267 121.73 324.267 119.467C324.267 117.203 323.368 115.033 321.767 113.433C320.167 111.832 317.997 110.933 315.733 110.933H281.6V93.8667H332.8C335.063 93.8667 337.234 92.9676 338.834 91.3673C340.434 89.767 341.333 87.5965 341.333 85.3333C341.333 83.0702 340.434 80.8997 338.834 79.2994C337.234 77.6991 335.063 76.8 332.8 76.8H281.6V51.2H358.4ZM156.245 153.276C156.043 153.455 155.789 153.567 155.52 153.596C155.251 153.625 154.98 153.57 154.744 153.438C154.376 153.244 154.073 152.949 153.87 152.587C153.667 152.225 153.574 151.812 153.6 151.398V128C153.6 125.737 152.701 123.566 151.101 121.966C149.5 120.366 147.33 119.467 145.067 119.467H119.467C117.204 119.467 115.033 118.568 113.433 116.967C111.832 115.367 110.933 113.197 110.933 110.933V25.6C110.933 23.3368 111.832 21.1663 113.433 19.566C115.033 17.9657 117.204 17.0667 119.467 17.0667H256C258.263 17.0667 260.434 17.9657 262.034 19.566C263.634 21.1663 264.533 23.3368 264.533 25.6V110.933C264.533 113.197 263.634 115.367 262.034 116.967C260.434 118.568 258.263 119.467 256 119.467H204.8C202.971 119.478 201.194 120.076 199.731 121.173L156.245 153.276Z" fill="black"/>
<path d="M145.067 59.7334H230.4C232.663 59.7334 234.834 58.8344 236.434 57.2341C238.034 55.6337 238.933 53.4633 238.933 51.2001C238.933 48.9369 238.034 46.7664 236.434 45.1661C234.834 43.5658 232.663 42.6667 230.4 42.6667H145.067C142.803 42.6667 140.633 43.5658 139.033 45.1661C137.432 46.7664 136.533 48.9369 136.533 51.2001C136.533 53.4633 137.432 55.6337 139.033 57.2341C140.633 58.8344 142.803 59.7334 145.067 59.7334ZM221.867 85.3334C221.867 83.0702 220.968 80.8998 219.367 79.2994C217.767 77.6991 215.596 76.8001 213.333 76.8001H145.067C142.803 76.8001 140.633 77.6991 139.033 79.2994C137.432 80.8998 136.533 83.0702 136.533 85.3334C136.533 87.5966 137.432 89.7671 139.033 91.3674C140.633 92.9677 142.803 93.8668 145.067 93.8668H213.333C215.596 93.8668 217.767 92.9677 219.367 91.3674C220.968 89.7671 221.867 87.5966 221.867 85.3334Z" fill="black"/>
</svg>
