<svg width="428" height="428" viewBox="0 0 428 428" fill="none" xmlns="http://www.w3.org/2000/svg">
<mask id="mask0_19004_1426" style="mask-type:luminance" maskUnits="userSpaceOnUse" x="0" y="0" width="429" height="429">
<path d="M420.896 420.896V7.10596H7.10547V420.896H420.896Z" fill="white" stroke="white" stroke-width="14.211"/>
</mask>
<g mask="url(#mask0_19004_1426)">
<path d="M84.7409 60.0707C105.508 23.7507 133.98 26.9323 148.341 41.9734C171.297 66.0176 145.866 119.87 122.942 175.944M113.554 199.673C104.197 224.447 96.7216 248.899 95.4995 270.658M139.519 339.948C208.525 365.164 255.012 261.191 303.891 261.191C320.347 261.191 329.956 273.222 334.757 283.525M377.552 321.597L345.515 308.528M310.686 355.463L297.62 323.432M317.658 303.191L340.402 358.941M396.876 304.076L304.076 396.875M356.02 263.22L263.221 356.019M381.246 251.203L370.267 240.225C369.076 239.034 367.46 238.364 365.775 238.364C364.09 238.364 362.474 239.034 361.283 240.225L352.534 248.973C351.343 250.165 350.674 251.781 350.674 253.465C350.674 255.15 351.343 256.766 352.534 257.958L402.138 307.562C403.33 308.753 404.946 309.422 406.631 309.422C408.316 309.422 409.932 308.753 411.123 307.562L419.871 298.814C421.063 297.622 421.732 296.006 421.732 294.321C421.732 292.636 421.063 291.02 419.871 289.829L399.636 269.594M272.975 218.321C272.975 218.321 257.725 227.381 240.879 220.608L237.015 219.056M272.975 218.321C272.435 222.71 270.88 226.914 268.433 230.598C265.987 234.282 262.715 237.345 258.879 239.545L227.949 257.277M272.975 218.321C276.863 186.733 279.416 171.181 311.827 145.094M196.353 216.612L189.145 220.744C72.7193 287.486 8.15124 305.956 6.26954 354.966C6.26954 354.966 36.5883 350.633 98.2205 324.01M311.827 145.094L324.986 134.504M311.827 145.094C293.051 160.206 287.363 184.302 299.123 198.914C310.883 213.525 343.445 215.242 381.934 184.265C420.423 153.287 425.706 121.111 413.946 106.499C402.186 91.8874 377.431 92.2928 358.655 107.405L344.177 119.058M230.75 182.259L185.693 227.315C170.314 242.694 156.511 257.152 144.141 270.657M127.277 289.469C61.8203 364.149 44.3341 404.731 44.3341 404.731C44.3341 404.731 107.69 377.433 221.75 263.372L227.194 257.928C230.953 254.169 233.816 249.611 235.57 244.593C237.323 239.575 237.923 234.227 237.323 228.945L231.897 181.111C229.402 159.12 235.28 146.987 285.182 78.2917M285.182 78.2917C268.447 101.329 240.134 109.292 221.942 96.0771C203.751 82.8634 202.57 53.4751 219.305 30.4383C236.039 7.40057 264.352 -0.562601 282.544 12.6519C300.735 25.8665 301.916 55.254 285.182 78.2917ZM248.974 352.534L240.226 361.282C239.034 362.473 238.365 364.089 238.365 365.774C238.365 367.459 239.034 369.075 240.226 370.266L289.829 419.87C291.02 421.062 292.636 421.731 294.321 421.731C296.006 421.731 297.622 421.062 298.814 419.87L307.563 411.122C308.754 409.931 309.423 408.315 309.423 406.63C309.423 404.945 308.754 403.329 307.563 402.138L257.959 352.534C256.767 351.342 255.151 350.673 253.466 350.673C251.781 350.673 250.165 351.342 248.974 352.534ZM212.377 237.561C212.456 237.482 212.5 237.376 212.5 237.265C212.5 237.154 212.455 237.048 212.377 236.969C212.298 236.891 212.192 236.847 212.081 236.847C211.97 236.847 211.864 236.891 211.785 236.97C211.707 237.048 211.663 237.155 211.663 237.266C211.663 237.377 211.707 237.483 211.786 237.561C211.864 237.64 211.971 237.684 212.082 237.684C212.193 237.684 212.299 237.639 212.377 237.561ZM14.9048 197.484C11.7767 202.363 4.32681 198.29 6.74352 193.023C30.9231 140.335 62.5944 71.4721 64.8581 67.33C68.5529 60.5722 77.026 58.0878 83.7838 61.7827C90.5415 65.4767 93.0259 73.9498 89.3319 80.7075C87.0674 84.8505 46.2016 148.687 14.9048 197.484Z" stroke="black" stroke-width="14.211" stroke-miterlimit="10" stroke-linecap="round" stroke-linejoin="round"/>
</g>
</svg>
