<svg width="362" height="512" viewBox="0 0 362 512" fill="none" xmlns="http://www.w3.org/2000/svg">
<path d="M189.359 220.258C179.242 229.069 171.763 220.261 164.794 212.939L154.167 223.567C161.118 231.095 169.68 239.464 180.736 238.857C191.778 239.469 200.374 231.088 207.305 223.567L196.678 212.939L189.359 220.258ZM218.31 165.629H233.34V180.659H218.31V165.629ZM128.133 165.629H143.162V180.659H128.133V165.629Z" fill="black"/>
<path d="M311.639 196.655C315.221 191.075 316.95 183.742 315.998 176.852C316.811 126.133 320.936 69.9318 278.571 33.1333L268.239 44.0468C300.666 72.8074 302.767 114.174 300.969 154.528C296.4 151.934 291.227 150.59 285.972 150.633V120.611H220.852C202.896 120.611 188.288 106.002 188.288 88.0464V67.7214H173.258V88.0454C173.258 106.001 158.649 120.61 140.694 120.61H75.5736V150.632C70.2891 150.624 65.0971 152.018 60.528 154.674C53.5523 81.4404 85.4972 18.7901 165.235 15.3854C196.459 14.3664 232.118 14.7421 257.65 35.2595L266.472 23.0916C238.232 0.670412 199.839 -1.03394 165.233 0.358799C99.2112 0.356796 45.4984 54.0695 45.4984 120.093V180.686C45.4933 186.331 47.0887 191.862 50.0995 196.637C2.91559 207.455 -1.86282 243.952 0.473785 286.044C21.4401 285.958 49.6566 288.885 66.7383 274.067L57.1073 262.544C45.6798 271.64 29.3957 271.4 15.5034 271.014C12.5405 239.302 25.9099 212.308 60.542 210.738C60.7765 210.789 75.5316 210.702 75.779 210.738C76.1748 224.682 76.3872 240.924 67.2843 252.392L78.6156 262.258C82.9022 256.626 86.1525 250.276 88.2145 243.505C97.0169 258.027 109.914 269.805 125.295 277.221C125.295 277.221 76.8612 303.25 75.5746 303.936V303.966C27.4619 329.989 39.3042 388.006 38.1279 432.982C37.166 453.163 48.84 472.601 58.9389 489.251L52.3098 511.998H67.6801L90.6032 437.287V312.925L137.414 287.773C144.123 309.381 164.175 318.006 186.077 315.945C203.992 315.946 219.177 304.048 224.156 287.741L271.027 312.925V437.289L293.951 512H310.397L302.692 489.253C317.822 464.331 325.1 451.25 323.505 421.132H308.475C309.256 440.149 307.283 453.424 296.67 469.626L286.057 435.035V322.147C302.236 334.787 309.884 355.382 308.475 376.043H323.505C325.382 346.755 311.587 318.525 286.057 303.968V303.938C284.768 303.251 236.296 277.202 236.296 277.202C251.702 269.761 264.614 257.943 273.41 243.373C287.441 285.204 322.332 288.004 361.166 286.044C363.515 243.976 358.698 207.492 311.639 196.655ZM64.9598 469.626C57.969 458.67 52.906 446.148 53.1545 432.983V369.154C53.1545 350.556 61.508 333.465 75.5726 322.147V435.035L64.9598 469.626ZM286.197 165.662C294.364 165.62 301.568 172.581 300.968 180.686H301.221C301.228 189.051 294.332 195.838 285.97 195.71V165.662H286.197ZM60.527 180.686C60.526 172.395 67.2813 165.649 75.5726 165.662V195.71C67.2813 195.722 60.527 188.977 60.527 180.686ZM186.077 300.917C171.497 301.78 158.513 299.971 152.43 285.204C166.423 286.314 195.137 286.316 209.132 285.202C205.504 294.394 196.541 300.917 186.077 300.917ZM198.298 270.841H163.245C122.334 271.043 88.8568 236.133 90.8076 195.709H90.6022V135.639C120.202 133.919 162.607 144.521 180.772 113.689C199.046 144.579 241.301 133.89 270.941 135.639V195.709H270.831C272.565 236.235 239.251 271.019 198.298 270.841ZM346.136 271.015C314.427 273.978 287.43 260.608 285.861 225.976V210.74H301.099C335.746 212.314 349.095 239.314 346.136 271.015Z" fill="black"/>
<path d="M308.479 391.073H323.508V406.572H308.479V391.073ZM90.5547 90.5343H105.584V105.564H90.5547V90.5343ZM120.614 90.5343H135.643V105.564H120.614V90.5343ZM197.154 376.056H164.311L134.243 338.469H120.646V420.757C120.646 445.842 141.054 466.25 166.138 466.25H195.39C220.474 466.25 240.883 445.842 240.883 420.757V338.469H227.222L197.154 376.056ZM225.852 420.757C223.001 456.354 192.173 451.177 166.137 451.219C149.339 451.22 135.675 437.555 135.675 420.757V364.319L157.086 391.085H204.377L225.852 364.24V420.757ZM90.5547 481.225H105.584V496.254H90.5547V481.225ZM120.645 481.225H135.675V496.254H120.645V481.225Z" fill="black"/>
</svg>
