<svg width="496" height="512" viewBox="0 0 496 512" fill="none" xmlns="http://www.w3.org/2000/svg">
<path d="M253.042 511.999H252.134C238.826 511.881 225.926 509.171 213.791 503.942C202.068 498.891 191.545 491.712 182.518 482.605C173.488 473.496 166.4 462.909 161.452 451.137C156.327 438.948 153.729 426.012 153.729 412.685C153.729 397.007 157.275 382.007 164.27 368.104C170.749 355.225 180.143 343.714 191.487 334.741L212.394 277.079C212.699 276.238 213.255 275.511 213.988 274.998C214.721 274.484 215.593 274.209 216.488 274.209H289.296C290.191 274.209 291.063 274.485 291.796 274.998C292.528 275.512 293.085 276.238 293.39 277.079L314.184 334.43C325.638 343.392 335.131 354.926 341.685 367.861C348.764 381.832 352.354 396.912 352.354 412.685C352.354 426.085 349.727 439.09 344.545 451.336C339.541 463.162 332.38 473.781 323.259 482.902C314.138 492.023 303.518 499.185 291.693 504.188C279.446 509.372 266.442 511.999 253.042 511.999ZM252.193 503.29H253.041C303 503.29 343.644 462.646 343.644 412.687C343.644 384.159 330.61 357.874 307.883 340.572C307.218 340.065 306.712 339.377 306.427 338.591L286.242 282.92H219.54L199.247 338.888C198.965 339.667 198.466 340.349 197.809 340.854C175.33 358.161 162.436 384.341 162.436 412.685C162.439 462.201 202.702 502.842 252.193 503.29ZM253.042 479.386C216.263 479.386 186.342 449.465 186.342 412.686C186.342 375.907 216.263 345.986 253.042 345.986C289.821 345.986 319.742 375.907 319.742 412.686C319.742 449.465 289.821 479.386 253.042 479.386ZM253.042 354.696C221.066 354.696 195.052 380.71 195.052 412.686C195.052 444.662 221.066 470.676 253.042 470.676C285.018 470.676 311.032 444.662 311.032 412.686C311.032 380.71 285.018 354.696 253.042 354.696Z" fill="black"/>
<path d="M253.042 479.386C216.263 479.386 186.342 449.465 186.342 412.686C186.342 375.907 216.263 345.986 253.042 345.986C289.821 345.986 319.742 375.907 319.742 412.686C319.742 449.465 289.821 479.386 253.042 479.386ZM253.042 354.696C221.066 354.696 195.052 380.71 195.052 412.686C195.052 444.662 221.066 470.676 253.042 470.676C285.018 470.676 311.032 444.662 311.032 412.686C311.032 380.71 285.018 354.696 253.042 354.696Z" fill="black"/>
<path d="M252.334 512C251.19 511.988 250.096 511.527 249.29 510.716C248.483 509.904 248.028 508.808 248.023 507.664C248.018 506.52 248.464 505.42 249.263 504.602C250.063 503.783 251.152 503.313 252.296 503.291C258.997 503.231 264.45 497.869 264.45 491.339C264.45 484.748 258.942 479.387 252.172 479.387C251.595 479.396 251.021 479.29 250.485 479.075C249.949 478.86 249.461 478.54 249.05 478.135C248.639 477.73 248.312 477.247 248.089 476.714C247.866 476.182 247.751 475.61 247.751 475.032C247.751 474.455 247.866 473.883 248.089 473.351C248.312 472.818 248.639 472.335 249.05 471.93C249.461 471.525 249.949 471.205 250.485 470.99C251.021 470.775 251.595 470.669 252.172 470.678C263.744 470.678 273.16 479.947 273.16 491.339C273.16 496.835 270.99 502.008 267.049 505.91C263.131 509.788 257.921 511.95 252.375 512H252.334ZM298.008 369.352C292.851 369.352 288.08 367.431 284.446 363.861C284.038 363.46 283.713 362.983 283.49 362.457C283.266 361.93 283.148 361.365 283.143 360.793C283.138 360.221 283.246 359.654 283.46 359.124C283.675 358.594 283.991 358.111 284.392 357.703C284.793 357.295 285.27 356.97 285.796 356.746C286.323 356.523 286.888 356.405 287.46 356.4C288.032 356.395 288.599 356.503 289.129 356.717C289.659 356.931 290.142 357.248 290.55 357.649C292.676 359.738 295.312 360.631 297.969 360.631C301.524 360.631 305.119 359.032 307.595 356.555C309.845 354.305 311.066 351.294 311.032 348.076C310.999 344.828 309.697 341.755 307.363 339.421C306.569 338.6 306.13 337.499 306.14 336.357C306.15 335.215 306.608 334.123 307.415 333.315C308.223 332.508 309.315 332.05 310.457 332.04C311.6 332.03 312.7 332.469 313.521 333.263C317.474 337.216 319.684 342.446 319.74 347.987C319.797 353.564 317.671 358.795 313.751 362.714C309.867 366.598 304.788 368.937 299.446 369.303C298.965 369.335 298.485 369.352 298.008 369.352ZM253.042 321.028C244.995 321.028 238.448 314.481 238.448 306.434C238.448 298.387 244.995 291.84 253.042 291.84C261.089 291.84 267.636 298.387 267.636 306.434C267.636 314.481 261.089 321.028 253.042 321.028ZM253.042 300.549C251.482 300.551 249.986 301.171 248.883 302.274C247.78 303.377 247.16 304.873 247.158 306.433C247.158 309.678 249.798 312.317 253.042 312.317C256.286 312.317 258.926 309.677 258.926 306.433C258.926 303.189 256.287 300.549 253.042 300.549ZM396.395 511.994H395.483C381.035 511.861 367.123 508.691 354.137 502.572C341.579 496.656 330.574 488.323 321.429 477.808C321.054 477.377 320.767 476.875 320.585 476.333C320.404 475.791 320.33 475.218 320.37 474.648C320.41 474.077 320.562 473.52 320.817 473.008C321.072 472.497 321.425 472.04 321.857 471.665C322.288 471.29 322.79 471.003 323.332 470.821C323.874 470.639 324.447 470.566 325.017 470.606C325.588 470.646 326.145 470.798 326.657 471.053C327.168 471.308 327.625 471.661 328 472.093C345.027 491.671 369.644 503.041 395.54 503.286H396.391C446.351 503.286 486.997 462.64 486.997 412.68C486.997 384.925 474.539 359.1 452.816 341.826C452.764 341.785 452.714 341.743 452.665 341.699C452.533 341.593 452.401 341.487 452.269 341.381C451.924 341.104 451.599 340.844 451.289 340.616C450.597 340.106 450.071 339.402 449.778 338.594L429.596 282.908H362.892L342.596 338.884C342.315 339.659 341.82 340.337 341.168 340.842C336.384 344.547 331.972 348.708 327.994 353.267C327.235 354.137 326.161 354.671 325.009 354.749C323.857 354.828 322.72 354.446 321.85 353.687C320.98 352.928 320.446 351.854 320.368 350.702C320.289 349.55 320.671 348.413 321.43 347.543C325.5 342.878 329.986 338.594 334.833 334.743L355.746 277.069C356.051 276.228 356.607 275.501 357.34 274.988C358.073 274.474 358.945 274.199 359.84 274.199H432.651C433.546 274.199 434.418 274.475 435.151 274.988C435.883 275.502 436.44 276.228 436.745 277.069L457.537 334.441L457.718 334.586C457.83 334.677 457.943 334.767 458.058 334.858C458.193 334.955 458.321 335.059 458.444 335.171C469.773 344.231 479.137 355.868 485.532 368.841C492.283 382.536 495.707 397.284 495.707 412.676C495.707 426.078 493.08 439.082 487.898 451.33C482.894 463.156 475.733 473.777 466.612 482.898C457.491 492.019 446.871 499.181 435.044 504.184C422.801 509.366 409.795 511.994 396.395 511.994ZM396.395 479.392C384.589 479.393 372.995 476.253 362.804 470.293C352.928 464.498 344.693 456.281 338.877 446.417C338.291 445.421 338.125 444.234 338.414 443.116C338.704 441.998 339.425 441.04 340.42 440.454C341.415 439.868 342.603 439.702 343.721 439.991C344.839 440.28 345.797 441.002 346.383 441.997C356.804 459.691 375.969 470.684 396.396 470.684C428.379 470.684 454.4 444.664 454.4 412.68C454.4 380.712 428.379 354.705 396.396 354.705C375.941 354.705 356.777 365.695 346.385 383.387C345.79 384.362 344.835 385.064 343.728 385.342C342.62 385.619 341.447 385.451 340.462 384.872C339.478 384.294 338.759 383.352 338.463 382.249C338.166 381.146 338.314 379.971 338.876 378.976C344.683 369.106 352.917 360.885 362.796 355.095C372.991 349.135 384.589 345.995 396.398 345.996C433.184 345.996 463.111 375.911 463.111 412.681C463.108 449.464 433.18 479.392 396.395 479.392Z" fill="black"/>
<path d="M395.693 512C394.549 511.988 393.455 511.527 392.649 510.716C391.842 509.905 391.387 508.808 391.382 507.664C391.377 506.52 391.823 505.42 392.622 504.602C393.422 503.784 394.511 503.313 395.655 503.291C402.356 503.231 407.809 497.869 407.809 491.339C407.809 484.748 402.301 479.387 395.531 479.387C394.959 479.387 394.393 479.274 393.865 479.056C393.336 478.837 392.856 478.516 392.452 478.111C392.048 477.707 391.727 477.227 391.508 476.699C391.289 476.17 391.177 475.604 391.177 475.032C391.177 473.877 391.636 472.77 392.452 471.953C393.269 471.137 394.376 470.678 395.531 470.678C407.103 470.678 416.519 479.947 416.519 491.339C416.519 496.835 414.349 502.008 410.408 505.91C406.49 509.788 401.28 511.95 395.734 512H395.693ZM441.363 369.354C436.208 369.354 431.436 367.433 427.802 363.864C427.394 363.463 427.069 362.986 426.846 362.46C426.622 361.933 426.504 361.368 426.499 360.796C426.494 360.224 426.602 359.657 426.816 359.127C427.031 358.597 427.347 358.114 427.748 357.706C428.149 357.298 428.626 356.973 429.152 356.749C429.679 356.526 430.244 356.408 430.816 356.403C431.388 356.398 431.955 356.506 432.485 356.72C433.015 356.934 433.498 357.251 433.906 357.652C438.877 362.534 446.624 360.885 450.951 356.557C453.201 354.307 454.422 351.296 454.388 348.078C454.355 344.83 453.053 341.757 450.719 339.423C449.925 338.602 449.486 337.502 449.496 336.359C449.506 335.217 449.964 334.125 450.771 333.317C451.579 332.51 452.671 332.052 453.813 332.042C454.955 332.032 456.056 332.471 456.877 333.265C460.83 337.218 463.04 342.448 463.096 347.989C463.153 353.566 461.027 358.797 457.107 362.716C453.223 366.6 448.144 368.939 442.802 369.305C442.323 369.337 441.841 369.354 441.363 369.354ZM396.401 321.028C388.354 321.028 381.807 314.481 381.807 306.434C381.807 298.387 388.354 291.84 396.401 291.84C404.448 291.84 410.995 298.387 410.995 306.434C410.995 314.481 404.448 321.028 396.401 321.028ZM396.401 300.549C394.841 300.551 393.345 301.171 392.242 302.274C391.139 303.377 390.519 304.873 390.517 306.433C390.517 309.678 393.157 312.317 396.401 312.317C399.645 312.317 402.285 309.677 402.285 306.433C402.285 303.189 399.645 300.549 396.401 300.549ZM404.319 282.909C403.747 282.909 403.181 282.796 402.653 282.578C402.124 282.359 401.644 282.038 401.24 281.633C400.836 281.229 400.515 280.749 400.296 280.221C400.077 279.692 399.965 279.126 399.965 278.554V243.077C399.965 201.344 366.013 167.393 324.281 167.393C282.564 167.393 248.626 201.345 248.626 243.077V278.554C248.626 279.709 248.167 280.817 247.351 281.633C246.534 282.45 245.426 282.909 244.271 282.909C243.117 282.909 242.009 282.45 241.192 281.633C240.376 280.817 239.917 279.709 239.917 278.554V243.077C239.917 196.542 277.764 158.684 324.282 158.684C370.817 158.684 408.675 196.543 408.675 243.077V278.554C408.675 279.126 408.562 279.692 408.343 280.221C408.124 280.749 407.804 281.229 407.399 281.634C406.995 282.038 406.514 282.359 405.986 282.578C405.457 282.797 404.891 282.909 404.319 282.909Z" fill="black"/>
<path d="M386.756 282.909C386.184 282.909 385.618 282.796 385.09 282.578C384.561 282.359 384.081 282.038 383.677 281.633C383.273 281.229 382.952 280.749 382.733 280.221C382.515 279.692 382.402 279.126 382.402 278.554V243.077C382.402 211.029 356.33 184.957 324.282 184.957C292.25 184.957 266.19 211.03 266.19 243.077V278.554C266.19 279.709 265.731 280.817 264.915 281.633C264.098 282.45 262.991 282.909 261.836 282.909C260.681 282.909 259.573 282.45 258.757 281.633C257.94 280.817 257.481 279.709 257.481 278.554V243.077C257.481 206.227 287.447 176.247 324.282 176.247C361.132 176.247 391.112 206.227 391.112 243.077V278.554C391.112 279.709 390.652 280.817 389.836 281.633C389.019 282.45 387.911 282.909 386.756 282.909ZM61.7871 279.862C61.1697 279.863 60.5592 279.732 59.9961 279.479C59.4331 279.226 58.9303 278.856 58.5211 278.393C58.1119 277.931 57.8057 277.387 57.6228 276.797C57.4399 276.208 57.3844 275.586 57.4601 274.973L60.3741 251.413C61.9261 238.864 72.6311 229.4 85.2771 229.4H118.935C131.579 229.4 142.285 238.864 143.838 251.413L146.752 274.973C146.874 276.109 146.544 277.248 145.834 278.144C145.124 279.039 144.091 279.619 142.957 279.76C141.822 279.9 140.679 279.589 139.772 278.893C138.865 278.198 138.268 277.174 138.109 276.042L135.195 252.482C134.182 244.288 127.192 238.111 118.936 238.111H85.2791C77.0231 238.111 70.0341 244.29 69.0201 252.482L66.1061 276.042C65.9746 277.095 65.4634 278.065 64.6682 278.768C63.8731 279.471 62.8487 279.86 61.7871 279.862ZM102.104 223.222C85.2841 223.222 71.6001 209.537 71.6001 192.718C71.6001 175.899 85.2851 162.214 102.104 162.214C118.923 162.214 132.608 175.899 132.608 192.718C132.608 209.537 118.926 223.222 102.104 223.222ZM102.104 170.923C90.0861 170.923 80.3091 180.7 80.3091 192.718C80.3091 204.736 90.0861 214.513 102.104 214.513C114.122 214.513 123.899 204.736 123.899 192.718C123.9 180.701 114.123 170.923 102.104 170.923Z" fill="black"/>
<path d="M154.899 279.862H49.31C37.972 279.862 28.749 270.639 28.749 259.301V153.713C28.749 142.375 37.972 133.152 49.31 133.152H154.898C166.236 133.152 175.459 142.375 175.459 153.713V259.301C175.46 270.639 166.236 279.862 154.899 279.862ZM49.31 141.863C42.775 141.863 37.458 147.18 37.458 153.715V259.303C37.458 265.838 42.775 271.155 49.31 271.155H154.898C161.433 271.155 166.75 265.838 166.75 259.303V153.714C166.75 147.179 161.433 141.862 154.898 141.862L49.31 141.863Z" fill="black"/>
<path d="M359.171 175.407C358.599 175.407 358.033 175.295 357.505 175.076C356.976 174.857 356.496 174.536 356.092 174.132C355.687 173.728 355.366 173.248 355.148 172.719C354.929 172.191 354.816 171.625 354.816 171.053V112.585C354.816 108.583 351.56 105.328 347.558 105.328H26.9091C20.1455 105.339 13.624 102.812 8.63407 98.2459C3.51207 93.5609 0.580074 87.2549 0.377074 80.4919C0.141074 73.4919 2.69407 66.8509 7.56607 61.8139C12.4371 56.7769 18.9761 54.0029 25.9801 54.0029H56.0851C56.6568 54.0029 57.223 54.1155 57.7513 54.3344C58.2795 54.5532 58.7595 54.8739 59.1638 55.2782C59.5681 55.6825 59.8888 56.1625 60.1076 56.6907C60.3265 57.219 60.4391 57.7852 60.4391 58.3569C60.4391 58.9287 60.3265 59.4949 60.1076 60.0231C59.8888 60.5514 59.5681 61.0314 59.1638 61.4357C58.7595 61.84 58.2795 62.1607 57.7513 62.3795C57.223 62.5983 56.6568 62.7109 56.0851 62.7109H25.9801C23.7108 62.7032 21.4636 63.1563 19.3746 64.0427C17.2856 64.9292 15.3983 66.2305 13.8271 67.8679C10.6101 71.1949 8.92607 75.5789 9.08107 80.2159C9.35307 89.2669 17.3501 96.6179 26.9101 96.6179H347.56C356.365 96.6179 363.527 103.78 363.527 112.585V171.053C363.526 172.208 363.067 173.315 362.25 174.132C361.433 174.948 360.326 175.407 359.171 175.407Z" fill="black"/>
<path d="M213.84 503.633H16.3181C7.51307 503.633 0.351074 496.471 0.351074 487.666V81.548C0.351074 80.9762 0.463694 80.4101 0.682503 79.8818C0.901312 79.3536 1.22203 78.8736 1.62633 78.4693C2.03064 78.065 2.51062 77.7443 3.03887 77.5255C3.56712 77.3066 4.1333 77.194 4.70507 77.194C5.27685 77.194 5.84303 77.3066 6.37128 77.5255C6.89953 77.7443 7.37951 78.065 7.78382 78.4693C8.18812 78.8736 8.50884 79.3536 8.72765 79.8818C8.94645 80.4101 9.05907 80.9762 9.05907 81.548V487.665C9.05907 491.667 12.3151 494.923 16.3161 494.923H213.838C214.41 494.923 214.976 495.036 215.504 495.254C216.033 495.473 216.513 495.794 216.917 496.198C217.321 496.603 217.642 497.083 217.861 497.611C218.079 498.139 218.192 498.705 218.192 499.277C218.193 499.849 218.081 500.415 217.862 500.944C217.644 501.472 217.323 501.953 216.919 502.357C216.515 502.762 216.035 503.083 215.507 503.302C214.978 503.521 214.412 503.633 213.84 503.633ZM404.319 265.374C403.747 265.374 403.181 265.261 402.653 265.043C402.124 264.824 401.644 264.503 401.24 264.098C400.836 263.694 400.515 263.214 400.296 262.686C400.077 262.157 399.965 261.591 399.965 261.019V87.441C399.965 85.123 399.085 82.918 397.483 81.219L397.14 80.898L397.069 80.83C395.431 79.232 393.223 78.353 390.849 78.353H336.822C335.667 78.353 334.56 77.8943 333.743 77.0778C332.927 76.2612 332.468 75.1538 332.468 73.999C332.468 72.8443 332.927 71.7368 333.743 70.9203C334.56 70.1037 335.667 69.645 336.822 69.645H390.849C395.49 69.645 399.844 71.39 403.114 74.561L403.516 74.938C403.572 74.991 403.626 75.044 403.679 75.098C406.887 78.4052 408.678 82.8328 408.673 87.44V261.018C408.673 261.59 408.561 262.156 408.342 262.685C408.124 263.214 407.803 263.694 407.399 264.098C406.994 264.503 406.514 264.824 405.986 265.043C405.457 265.262 404.891 265.374 404.319 265.374Z" fill="black"/>
<path d="M56.0901 105.324C54.9353 105.324 53.8279 104.865 53.0113 104.049C52.1948 103.232 51.7361 102.125 51.7361 100.97V11.09C51.7361 4.974 56.6981 0 62.7971 0H321.116C326.89 0 332.358 2.48 336.148 6.813L336.329 6.994C336.43 7.095 336.527 7.203 336.619 7.315C339.6 10.955 341.176 15.362 341.176 20.061V74.001C341.176 74.5729 341.063 75.1391 340.845 75.6674C340.626 76.1958 340.305 76.6758 339.9 77.0801C339.496 77.4844 339.016 77.8051 338.488 78.0239C337.959 78.2426 337.393 78.3551 336.821 78.355C335.666 78.355 334.559 77.8963 333.742 77.0797C332.926 76.2632 332.467 75.1558 332.467 74.001V20.061C332.467 17.464 331.617 15.024 330.008 12.99L329.882 12.864C329.804 12.7869 329.73 12.7069 329.658 12.624C328.6 11.3947 327.289 10.4086 325.815 9.7334C324.34 9.05818 322.737 8.70975 321.115 8.712H62.7971C61.5011 8.712 60.4451 9.78 60.4451 11.092V100.972C60.445 101.544 60.3322 102.11 60.1133 102.638C59.8943 103.166 59.5735 103.646 59.1691 104.05C58.7646 104.454 58.2846 104.775 57.7563 104.993C57.228 105.212 56.6618 105.324 56.0901 105.324Z" fill="black"/>
<path d="M400.552 82.4789C399.976 82.4797 399.405 82.3658 398.874 82.1439C398.342 81.9219 397.86 81.5962 397.455 81.1859L329.871 12.8409C328.18 11.1309 328.195 8.37388 329.906 6.68288C331.617 4.99188 334.373 5.00688 336.064 6.71788L403.648 75.0629C404.252 75.6737 404.662 76.4496 404.826 77.293C404.991 78.1363 404.902 79.0094 404.571 79.8023C404.24 80.5951 403.681 81.2723 402.966 81.7486C402.251 82.2249 401.411 82.479 400.552 82.4789Z" fill="black"/>
</svg>
