<svg width="513" height="512" viewBox="0 0 513 512" fill="none" xmlns="http://www.w3.org/2000/svg">
<path d="M83.2044 432H16.0044V360.232C16.0044 358.11 15.1615 356.075 13.6612 354.575C12.161 353.075 10.1261 352.232 8.00439 352.232C5.88266 352.232 3.84783 353.075 2.34754 354.575C0.847249 356.075 0.00439453 358.11 0.00439453 360.232L0.00439453 440C0.00439453 442.122 0.847249 444.157 2.34754 445.657C3.84783 447.157 5.88266 448 8.00439 448H83.2044C85.3261 448 87.361 447.157 88.8613 445.657C90.3615 444.157 91.2044 442.122 91.2044 440C91.2044 437.878 90.3615 435.843 88.8613 434.343C87.361 432.843 85.3261 432 83.2044 432ZM8.00439 303.088C10.1261 303.088 12.161 302.245 13.6612 300.745C15.1615 299.245 16.0044 297.21 16.0044 295.088V16H320.004V251.36C320.004 253.482 320.847 255.517 322.348 257.017C323.848 258.517 325.883 259.36 328.004 259.36C330.126 259.36 332.161 258.517 333.661 257.017C335.162 255.517 336.004 253.482 336.004 251.36V8C336.004 5.87827 335.162 3.84344 333.661 2.34315C332.161 0.842855 330.126 0 328.004 0L8.00439 0C5.88266 0 3.84783 0.842855 2.34754 2.34315C0.847249 3.84344 0.00439453 5.87827 0.00439453 8L0.00439453 295.088C0.00439453 297.21 0.847249 299.245 2.34754 300.745C3.84783 302.245 5.88266 303.088 8.00439 303.088Z" fill="black"/>
<path d="M290.324 184.096H64.0044C61.8827 184.096 59.8478 184.939 58.3475 186.439C56.8473 187.939 56.0044 189.974 56.0044 192.096C56.0044 194.218 56.8473 196.253 58.3475 197.753C59.8478 199.253 61.8827 200.096 64.0044 200.096H290.324C292.446 200.096 294.481 199.253 295.981 197.753C297.482 196.253 298.324 194.218 298.324 192.096C298.324 189.974 297.482 187.939 295.981 186.439C294.481 184.939 292.446 184.096 290.324 184.096ZM298.324 231.752C298.324 229.63 297.482 227.595 295.981 226.095C294.481 224.595 292.446 223.752 290.324 223.752H64.0044C61.8827 223.752 59.8478 224.595 58.3475 226.095C56.8473 227.595 56.0044 229.63 56.0044 231.752C56.0044 233.874 56.8473 235.909 58.3475 237.409C59.8478 238.909 61.8827 239.752 64.0044 239.752H290.324C292.446 239.752 294.481 238.909 295.981 237.409C297.482 235.909 298.324 233.874 298.324 231.752ZM64.0044 263.408C61.8827 263.408 59.8478 264.251 58.3475 265.751C56.8473 267.251 56.0044 269.286 56.0044 271.408C56.0044 273.53 56.8473 275.565 58.3475 277.065C59.8478 278.565 61.8827 279.408 64.0044 279.408H115.204C117.326 279.408 119.361 278.565 120.861 277.065C122.362 275.565 123.204 273.53 123.204 271.408C123.204 269.286 122.362 267.251 120.861 265.751C119.361 264.251 117.326 263.408 115.204 263.408H64.0044ZM105.036 147.256C105.778 148.57 106.876 149.647 108.204 150.363C109.532 151.079 111.035 151.405 112.54 151.304L128.14 150.264L132.5 165.28C132.923 166.733 133.748 168.036 134.881 169.038C136.013 170.041 137.407 170.702 138.9 170.944C139.334 171.014 139.773 171.049 140.212 171.048C141.498 171.048 142.765 170.739 143.905 170.145C145.046 169.552 146.026 168.693 146.764 167.64L168.004 137.264L189.276 167.664C190.014 168.717 190.995 169.576 192.136 170.169C193.276 170.763 194.543 171.072 195.828 171.072C196.268 171.073 196.707 171.038 197.14 170.968C198.634 170.726 200.027 170.065 201.16 169.062C202.293 168.06 203.118 166.757 203.54 165.304L207.9 150.288L223.5 151.328C224.985 151.449 226.473 151.144 227.789 150.448C229.106 149.752 230.197 148.695 230.932 147.4C231.684 146.121 232.064 144.657 232.032 143.174C231.999 141.691 231.555 140.245 230.748 139L208.804 105.072L211.948 103.4C215.377 101.597 217.964 98.5261 219.16 94.842C220.356 91.1579 220.064 87.1524 218.348 83.68L215.676 78.224L218.348 72.776C220.06 69.3029 220.349 65.2989 219.154 61.616C217.959 57.933 215.374 54.8619 211.948 53.056L206.58 50.208L205.532 44.24C204.876 40.4173 202.752 37.0022 199.614 34.7231C196.475 32.444 192.571 31.4812 188.732 32.04L182.716 32.888L178.404 28.664C175.631 25.9631 171.912 24.4517 168.04 24.4517C164.169 24.4517 160.45 25.9631 157.676 28.664L153.316 32.88L147.308 32.032C143.47 31.4667 139.564 32.426 136.424 34.7045C133.284 36.983 131.161 40.3999 130.508 44.224L129.46 50.2L124.1 53.048C120.674 54.8524 118.087 57.9235 116.892 61.607C115.696 65.2905 115.986 69.2953 117.7 72.768L120.372 78.216L117.7 83.664C115.984 87.1376 115.692 91.1442 116.888 94.8297C118.084 98.5151 120.672 101.588 124.1 103.392L128.556 105.792L105.476 138.76C104.611 139.991 104.111 141.442 104.033 142.945C103.956 144.448 104.303 145.942 105.036 147.256ZM208.62 134.28L202.516 133.872C200.691 133.723 198.871 134.216 197.371 135.266C195.871 136.317 194.785 137.858 194.3 139.624L192.804 144.8L179.876 126.32L182.732 123.56L188.74 124.408C190.765 124.689 192.825 124.55 194.794 124C196.762 123.449 198.596 122.499 200.18 121.208L208.62 134.28ZM134.94 71.672L132.54 66.696L137.444 64.096C139.453 63.0363 141.192 61.5294 142.526 59.6916C143.86 57.8538 144.755 55.7341 145.14 53.496L146.068 48L151.548 48.8C153.792 49.1324 156.083 48.9446 158.242 48.251C160.402 47.5575 162.374 46.3767 164.004 44.8L168.004 40.944L172.004 44.792C173.631 46.3771 175.6 47.5673 177.76 48.2705C179.92 48.9738 182.212 49.1714 184.46 48.848L189.956 48.048L190.916 53.52C191.303 55.7567 192.198 57.8748 193.532 59.7111C194.867 61.5475 196.605 63.0531 198.612 64.112L203.516 66.712L201.116 71.688C200.123 73.7294 199.607 75.9698 199.607 78.24C199.607 80.5102 200.123 82.7506 201.116 84.792L203.516 89.776L198.612 92.376C196.604 93.4344 194.866 94.9399 193.532 96.7763C192.197 98.6128 191.303 100.731 190.916 102.968L189.956 108.432L184.46 107.632C182.214 107.315 179.925 107.515 177.768 108.216C175.611 108.918 173.642 110.102 172.012 111.68L168.012 115.536L164.012 111.68C161.246 108.987 157.537 107.483 153.676 107.488C152.967 107.488 152.259 107.537 151.556 107.632L146.068 108.432L145.108 102.96C144.721 100.725 143.826 98.6078 142.492 96.7728C141.157 94.9378 139.42 93.4336 137.412 92.376L132.508 89.776L134.908 84.8C135.911 82.7581 136.435 80.5145 136.44 78.2397C136.446 75.9649 135.933 73.7188 134.94 71.672ZM136.748 121.936C139.82 124.052 143.576 124.935 147.268 124.408L153.276 123.56L156.132 126.32L143.204 144.8L141.708 139.64C141.214 137.88 140.126 136.345 138.628 135.296C137.13 134.247 135.316 133.75 133.492 133.888L128.14 134.24L136.748 121.936Z" fill="black"/>
<path d="M168.005 99.056C172.118 99.056 176.14 97.8361 179.56 95.5506C182.981 93.265 185.647 90.0165 187.221 86.2158C188.795 82.4151 189.207 78.2329 188.405 74.1981C187.602 70.1633 185.621 66.4571 182.712 63.5482C179.803 60.6392 176.097 58.6582 172.062 57.8557C168.028 57.0531 163.845 57.465 160.045 59.0393C156.244 60.6136 152.995 63.2796 150.71 66.7001C148.424 70.1207 147.204 74.1421 147.204 78.256C147.219 83.768 149.415 89.0499 153.313 92.9475C157.211 96.8451 162.493 99.0412 168.005 99.056ZM168.005 73.4C168.954 73.4 169.882 73.6815 170.671 74.2089C171.461 74.7364 172.076 75.486 172.439 76.3631C172.802 77.2402 172.897 78.2053 172.712 79.1364C172.527 80.0675 172.07 80.9228 171.399 81.5941C170.727 82.2654 169.872 82.7226 168.941 82.9078C168.01 83.093 167.045 82.9979 166.168 82.6346C165.291 82.2713 164.541 81.6561 164.013 80.8667C163.486 80.0774 163.204 79.1493 163.204 78.2C163.204 76.927 163.71 75.7061 164.61 74.8059C165.511 73.9057 166.731 73.4 168.005 73.4ZM505.501 309.04L240.117 258.64C238.919 258.406 237.682 258.458 236.508 258.792L5.8925 321.992C4.17677 322.461 2.6661 323.487 1.59921 324.91C0.532309 326.333 -0.0299662 328.071 0.00123163 329.85C0.0324295 331.628 0.655322 333.345 1.77148 334.73C2.88763 336.115 4.4334 337.088 6.1645 337.496L107.204 361.392V456.464C107.206 461.501 108.44 466.46 110.8 470.91C113.159 475.36 116.572 479.165 120.741 481.992C137.221 493.192 176.101 512 251.204 512C326.308 512 365.173 493.192 381.669 481.992C385.837 479.165 389.251 475.361 391.61 470.911C393.97 466.461 395.204 461.501 395.205 456.464V362.192L451.429 343.152V361.84C447.432 363.44 444.005 366.2 441.591 369.764C439.177 373.329 437.886 377.535 437.885 381.84V391.368C437.993 397.009 440.31 402.382 444.338 406.333C448.366 410.284 453.783 412.497 459.425 412.497C465.066 412.497 470.483 410.284 474.511 406.333C478.539 402.382 480.856 397.009 480.965 391.368V381.8C480.964 377.496 479.675 373.29 477.262 369.725C474.85 366.16 471.425 363.4 467.429 361.8V337.736L506.589 324.48C508.264 323.914 509.705 322.809 510.686 321.337C511.667 319.866 512.132 318.111 512.01 316.346C511.887 314.582 511.184 312.908 510.009 311.586C508.834 310.264 507.254 309.369 505.517 309.04H505.501ZM464.949 391.328C464.894 392.761 464.287 394.117 463.254 395.111C462.221 396.106 460.842 396.661 459.409 396.661C457.975 396.661 456.596 396.106 455.563 395.111C454.53 394.117 453.923 392.761 453.869 391.328V381.8C453.923 380.367 454.53 379.011 455.563 378.017C456.596 377.022 457.975 376.467 459.409 376.467C460.842 376.467 462.221 377.022 463.254 378.017C464.287 379.011 464.894 380.367 464.949 381.8V391.328ZM379.205 456.464C379.203 458.89 378.607 461.278 377.469 463.42C376.331 465.562 374.686 467.393 372.677 468.752C357.685 478.928 321.996 496 251.204 496C180.412 496 144.693 478.928 129.717 468.8C127.708 467.438 126.064 465.606 124.926 463.462C123.788 461.319 123.192 458.93 123.188 456.504V365.176L275.893 401.296C276.495 401.439 277.113 401.511 277.733 401.512C278.606 401.511 279.473 401.367 280.301 401.088L379.205 367.608V456.464ZM277.341 385.2L40.3565 329.144L238.956 274.744L472.605 319.088L277.341 385.2Z" fill="black"/>
</svg>
