<svg width="512" height="495" viewBox="0 0 512 495" fill="none" xmlns="http://www.w3.org/2000/svg">
<path d="M256 221.867C254.754 221.867 253.517 221.594 252.365 221.056L107.298 152.789C105.835 152.098 104.598 151.005 103.732 149.637C102.866 148.27 102.406 146.685 102.406 145.067C102.406 143.448 102.866 141.863 103.732 140.496C104.598 139.129 105.835 138.036 107.298 137.344L252.365 69.0773C253.502 68.5419 254.743 68.2643 256 68.2643C257.257 68.2643 258.498 68.5419 259.635 69.0773L404.702 137.344C406.165 138.036 407.402 139.129 408.268 140.496C409.134 141.863 409.594 143.448 409.594 145.067C409.594 146.685 409.134 148.27 408.268 149.637C407.402 151.005 406.165 152.098 404.702 152.789L259.635 221.056C258.483 221.594 257.246 221.867 256 221.867ZM130.978 145.067L256 203.904L381.022 145.067L256 86.2293L130.978 145.067Z" fill="black"/>
<path d="M256 290.133C254.694 290.133 253.38 289.835 252.186 289.237L149.786 238.037C148.368 237.328 147.175 236.237 146.342 234.889C145.508 233.54 145.067 231.986 145.067 230.4V165.146C145.067 163.709 145.43 162.296 146.122 161.037C146.814 159.778 147.813 158.714 149.025 157.944C150.238 157.174 151.625 156.722 153.059 156.631C154.493 156.54 155.926 156.812 157.227 157.423L256 203.904L354.765 157.423C356.066 156.81 357.5 156.537 358.935 156.627C360.37 156.717 361.759 157.168 362.972 157.938C364.186 158.709 365.186 159.773 365.878 161.033C366.571 162.293 366.934 163.708 366.933 165.146V230.4C366.933 233.634 365.107 236.587 362.214 238.037L259.814 289.237C258.62 289.835 257.306 290.133 256 290.133ZM162.133 225.126L256 272.06L349.867 225.126V178.594L259.635 221.056C258.498 221.591 257.257 221.869 256 221.869C254.743 221.869 253.502 221.591 252.365 221.056L162.133 178.594V225.126ZM401.067 153.6H256C253.737 153.6 251.566 152.701 249.966 151.101C248.366 149.5 247.467 147.33 247.467 145.067C247.467 142.803 248.366 140.633 249.966 139.033C251.566 137.432 253.737 136.533 256 136.533H401.067C403.33 136.533 405.5 137.432 407.101 139.033C408.701 140.633 409.6 142.803 409.6 145.067C409.6 147.33 408.701 149.5 407.101 151.101C405.5 152.701 403.33 153.6 401.067 153.6Z" fill="black"/>
<path d="M401.067 230.4C398.804 230.4 396.633 229.501 395.033 227.901C393.433 226.3 392.533 224.13 392.533 221.867V145.067C392.533 142.803 393.433 140.633 395.033 139.033C396.633 137.432 398.804 136.533 401.067 136.533C403.33 136.533 405.5 137.432 407.101 139.033C408.701 140.633 409.6 142.803 409.6 145.067V221.867C409.6 224.13 408.701 226.3 407.101 227.901C405.5 229.501 403.33 230.4 401.067 230.4ZM256 170.667C253.737 170.667 251.566 169.768 249.966 168.167C248.366 166.567 247.467 164.397 247.467 162.133V128C247.467 125.737 248.366 123.566 249.966 121.966C251.566 120.366 253.737 119.467 256 119.467C258.263 119.467 260.434 120.366 262.034 121.966C263.634 123.566 264.533 125.737 264.533 128V162.133C264.533 164.397 263.634 166.567 262.034 168.167C260.434 169.768 258.263 170.667 256 170.667Z" fill="black"/>
<path d="M383.991 256C382.447 255.999 380.932 255.578 379.608 254.784C378.284 253.989 377.2 252.851 376.473 251.489C375.745 250.127 375.4 248.593 375.475 247.051C375.551 245.508 376.043 244.015 376.9 242.731L393.967 217.131C395.223 215.248 397.176 213.941 399.395 213.498C401.615 213.054 403.92 213.511 405.803 214.767C407.686 216.023 408.992 217.976 409.436 220.195C409.879 222.415 409.422 224.72 408.166 226.603L391.1 252.203C390.319 253.372 389.262 254.331 388.022 254.993C386.782 255.656 385.397 256.002 383.991 256Z" fill="black"/>
<path d="M418.142 256C416.736 256.002 415.351 255.656 414.111 254.993C412.871 254.331 411.814 253.372 411.034 252.203L393.967 226.603C392.822 224.72 392.449 222.468 392.925 220.316C393.402 218.165 394.692 216.281 396.525 215.058C398.358 213.835 400.593 213.368 402.762 213.754C404.932 214.141 406.868 215.35 408.167 217.131L425.233 242.731C426.087 244.016 426.577 245.508 426.651 247.05C426.725 248.591 426.38 250.123 425.652 251.484C424.925 252.845 423.843 253.984 422.52 254.779C421.198 255.574 419.685 255.996 418.142 256ZM256 247.467C253.737 247.467 251.566 246.568 249.966 244.967C248.366 243.367 247.467 241.197 247.467 238.933V213.333C247.467 211.07 248.366 208.9 249.966 207.299C251.566 205.699 253.737 204.8 256 204.8C258.263 204.8 260.434 205.699 262.034 207.299C263.634 208.9 264.533 211.07 264.533 213.333V238.933C264.533 241.197 263.634 243.367 262.034 244.967C260.434 246.568 258.263 247.467 256 247.467Z" fill="black"/>
<path d="M503.467 324.267H8.53333C6.27015 324.267 4.09967 323.368 2.49936 321.767C0.899045 320.167 0 317.997 0 315.733V34.1419C0.0112904 25.0903 3.612 16.4128 10.0124 10.0124C16.4128 3.612 25.0903 0.0112904 34.1419 0L477.858 0C486.91 0.0112904 495.587 3.612 501.988 10.0124C508.388 16.4128 511.989 25.0903 512 34.1419V315.733C512 317.997 511.101 320.167 509.501 321.767C507.9 323.368 505.73 324.267 503.467 324.267ZM17.0667 307.2H494.933V34.1419C494.931 29.6139 493.131 25.2721 489.93 22.0704C486.728 18.8686 482.386 17.0689 477.858 17.0667H34.1419C29.6139 17.0689 25.2721 18.8686 22.0704 22.0704C18.8686 25.2721 17.0689 29.6139 17.0667 34.1419V307.2Z" fill="black"/>
<path d="M477.858 392.533H34.1419C25.0903 392.522 16.4128 388.921 10.0124 382.521C3.612 376.12 0.0112904 367.443 0 358.391L0 315.733C0 313.47 0.899045 311.3 2.49936 309.699C4.09967 308.099 6.27015 307.2 8.53333 307.2H503.467C505.73 307.2 507.9 308.099 509.501 309.699C511.101 311.3 512 313.47 512 315.733V358.391C511.989 367.443 508.388 376.12 501.988 382.521C495.587 388.921 486.91 392.522 477.858 392.533ZM17.0667 324.267V358.391C17.0667 367.812 24.7211 375.467 34.1419 375.467H477.858C482.386 375.464 486.728 373.665 489.93 370.463C493.131 367.261 494.931 362.919 494.933 358.391V324.267H17.0667Z" fill="black"/>
<path d="M281.6 358.4H230.4C228.137 358.4 225.966 357.501 224.366 355.901C222.766 354.3 221.867 352.13 221.867 349.867C221.867 347.604 222.766 345.433 224.366 343.833C225.966 342.232 228.137 341.333 230.4 341.333H281.6C283.863 341.333 286.034 342.232 287.634 343.833C289.234 345.433 290.133 347.604 290.133 349.867C290.133 352.13 289.234 354.3 287.634 355.901C286.034 357.501 283.863 358.4 281.6 358.4ZM469.333 324.267H42.6666C40.4035 324.267 38.233 323.368 36.6327 321.767C35.0323 320.167 34.1333 317.997 34.1333 315.733V42.6667C34.1333 40.4035 35.0323 38.233 36.6327 36.6327C38.233 35.0324 40.4035 34.1334 42.6666 34.1334H469.333C471.597 34.1334 473.767 35.0324 475.367 36.6327C476.968 38.233 477.867 40.4035 477.867 42.6667V315.733C477.867 317.997 476.968 320.167 475.367 321.767C473.767 323.368 471.597 324.267 469.333 324.267ZM51.2 307.2H460.8V51.2H51.2V307.2ZM366.933 494.933H145.067C130.953 494.933 119.467 483.448 119.467 469.333C119.467 455.219 130.953 443.733 145.067 443.733H366.933C381.047 443.733 392.533 455.219 392.533 469.333C392.533 483.448 381.047 494.933 366.933 494.933ZM145.067 460.8C140.365 460.8 136.533 464.632 136.533 469.333C136.533 474.035 140.365 477.867 145.067 477.867H366.933C371.635 477.867 375.467 474.035 375.467 469.333C375.467 464.632 371.635 460.8 366.933 460.8H145.067Z" fill="black"/>
<path d="M349.867 460.8H162.133C159.87 460.8 157.7 459.901 156.099 458.301C154.499 456.7 153.6 454.53 153.6 452.267C153.6 450.003 154.499 447.833 156.099 446.233C157.7 444.632 159.87 443.733 162.133 443.733C190.447 443.733 204.8 423.637 204.8 384C204.8 381.737 205.699 379.566 207.299 377.966C208.9 376.366 211.07 375.467 213.333 375.467H298.667C300.93 375.467 303.1 376.366 304.701 377.966C306.301 379.566 307.2 381.737 307.2 384C307.2 423.637 321.553 443.733 349.867 443.733C352.13 443.733 354.3 444.632 355.901 446.233C357.501 447.833 358.4 450.003 358.4 452.267C358.4 454.53 357.501 456.7 355.901 458.301C354.3 459.901 352.13 460.8 349.867 460.8ZM203.699 443.733H308.309C297.796 432.094 291.61 414.763 290.372 392.533H221.636C220.39 414.763 214.212 432.094 203.699 443.733Z" fill="black"/>
</svg>
