<svg width="494" height="512" viewBox="0 0 494 512" fill="none" xmlns="http://www.w3.org/2000/svg">
<path d="M449.79 55.5388C448.744 55.4961 447.696 55.4894 446.65 55.5187H407.17V21.5907C407.171 8.01946 394.216 0 380.645 0H344.25C330.679 0 320.809 8.01946 320.809 21.5907V55.5175H172.761V21.5907C172.761 8.01946 162.891 0 149.32 0H112.924C99.3544 0 86.3996 8.01946 86.3996 21.5907V55.5175H46.9209C21.7196 54.815 0.720461 74.6759 0.0179317 99.8761C-0.0115863 100.922 -0.00450173 101.971 0.0380043 103.017V459.565C0.0380043 486.708 19.7773 511.999 46.9198 511.999H446.651C473.793 511.999 493.533 486.708 493.533 459.565V103.017C494.565 77.8273 474.98 56.5708 449.79 55.5388ZM344.25 24.6747H382.496V92.5296H344.25V24.6747ZM112.926 24.6747H148.088V92.5296H112.926V24.6747ZM468.858 459.565C468.858 473.137 460.222 487.324 446.651 487.324H46.9209C33.3497 487.324 24.7139 473.137 24.7139 459.565V197.398H468.858V459.565ZM468.858 103.017V172.723H24.7127V103.017C23.6678 91.4812 32.1725 81.2821 43.7082 80.2371C44.776 80.1405 45.8497 80.1259 46.9198 80.1935H86.3996V93.7647C86.3996 107.336 99.3533 117.206 112.924 117.206H149.32C161.921 117.552 172.415 107.616 172.761 95.0151C172.773 94.5983 172.773 94.1815 172.761 93.7647V80.1923H320.809V93.7635C320.464 106.364 330.399 116.858 343 117.204C343.417 117.216 343.834 117.216 344.25 117.204H380.646C394.217 117.204 407.171 107.335 407.171 93.7635V80.1923H446.651C458.211 79.4638 468.173 88.2448 468.902 99.8052C468.969 100.875 468.954 101.949 468.858 103.017Z" fill="black"/>
<path d="M178.313 365.802L167.209 427.489C166.77 430.135 167.205 432.852 168.448 435.23C171.607 441.267 179.062 443.601 185.099 440.442L240.616 411.45L296.134 440.442L301.685 441.676C304.362 441.723 306.974 440.852 309.087 439.209C310.897 437.887 312.312 436.098 313.182 434.033C314.051 431.968 314.342 429.705 314.023 427.488L302.919 365.801L347.951 322.621C349.535 320.909 350.651 318.817 351.192 316.548C351.732 314.279 351.678 311.909 351.035 309.667C350.218 307.594 348.881 305.768 347.152 304.363C345.423 302.958 343.361 302.023 341.165 301.647L279.478 292.394L251.72 236.259C250.51 233.761 248.493 231.743 245.994 230.534C239.862 227.564 232.483 230.127 229.513 236.259L201.754 292.394L140.067 301.647C137.871 302.023 135.809 302.958 134.08 304.363C132.352 305.767 131.014 307.594 130.197 309.667C129.555 311.909 129.501 314.279 130.041 316.548C130.582 318.817 131.697 320.908 133.281 322.621L178.313 365.802ZM212.241 315.836C214.145 315.551 215.943 314.776 217.457 313.586C218.971 312.396 220.15 310.833 220.877 309.05L240.616 269.571L260.355 309.05C261.083 310.833 262.262 312.396 263.776 313.586C265.29 314.776 267.087 315.551 268.991 315.836L312.789 322.004L281.329 352.231C279.884 353.661 278.796 355.412 278.153 357.341C277.51 359.27 277.33 361.323 277.627 363.334L285.029 407.132L246.167 386.159L240.615 384.925L235.063 386.159L196.201 407.132L203.603 363.334C203.901 361.323 203.721 359.269 203.078 357.34C202.435 355.411 201.347 353.661 199.901 352.231L168.441 322.004L212.241 315.836Z" fill="black"/>
</svg>
