<svg width="325" height="282" viewBox="0 0 325 282" fill="none" xmlns="http://www.w3.org/2000/svg">
<mask id="path-1-inside-1_1398_9" fill="white">
<path d="M281.525 196.54H279.772L260.597 151.815C263.848 153.24 267.352 153.999 270.902 154.046C272.31 154.046 273.661 153.486 274.658 152.49C275.654 151.494 276.213 150.143 276.213 148.734V106.24C276.213 104.831 275.654 103.48 274.658 102.484C273.661 101.488 272.31 100.928 270.902 100.928C265.37 100.958 259.986 102.715 255.501 105.952C251.015 109.19 247.653 113.747 245.883 118.988C244.32 116.806 242.325 114.968 240.023 113.588C237.72 112.209 235.159 111.317 232.497 110.967C229.123 110.532 225.697 110.748 222.405 111.605H217.784C208.807 111.605 204.823 106.293 198.555 97.6348L195.421 93.226C198.635 93.0621 201.75 92.0545 204.451 90.3045C206.501 88.8168 208.236 86.9388 209.558 84.7784C210.88 82.618 211.762 80.2178 212.153 77.7156C213.88 76.721 215.389 75.3908 216.594 73.8034C217.798 72.216 218.672 70.4036 219.165 68.4731C219.389 66.9503 219.24 65.3959 218.732 63.9433C218.223 62.4907 217.369 61.1833 216.243 60.1335C214.074 56.4202 212.886 52.2158 212.791 47.9164C214.162 47.8343 215.448 47.2241 216.379 46.2138C217.31 45.2036 217.814 43.8719 217.784 42.4984C217.784 36.8684 216.666 31.2945 214.494 26.1004C212.322 20.9063 209.139 16.1955 205.131 12.2418C201.123 8.28815 196.37 5.17031 191.146 3.06945C185.923 0.968595 180.334 -0.0733943 174.705 0.00401755C163.658 0.22149 153.124 4.70682 145.311 12.5198C137.498 20.3329 133.012 30.867 132.795 41.9141C132.696 47.5461 133.725 53.141 135.824 58.3686C137.922 63.5961 141.046 68.3503 145.012 72.3507C146.187 73.5188 147.429 74.6184 148.73 75.644C128.227 80.6371 117.444 99.8658 111.92 116.545C110.348 114.961 108.477 113.704 106.417 112.847C104.356 111.99 102.146 111.55 99.9149 111.552H43.5036C40.6708 111.547 37.8823 112.255 35.3947 113.61C32.907 114.965 30.8002 116.924 29.268 119.307C28.5002 120.49 28.234 121.93 28.5278 123.31C28.8217 124.69 29.6516 125.896 30.835 126.664C32.0183 127.432 33.4582 127.698 34.8379 127.404C36.2176 127.11 37.424 126.28 38.1918 125.097C38.7641 124.21 39.5511 123.482 40.4796 122.981C41.4082 122.48 42.4483 122.221 43.5036 122.228H53.118V138.164C53.118 139.573 53.6776 140.924 54.6737 141.92C55.6699 142.916 57.021 143.476 58.4297 143.476H84.9887C86.3975 143.476 87.7486 142.916 88.7447 141.92C89.7409 140.924 90.3005 139.573 90.3005 138.164V122.175H99.9149C100.745 122.175 101.567 122.339 102.334 122.656C103.101 122.974 103.798 123.44 104.385 124.027C104.971 124.614 105.437 125.31 105.755 126.077C106.072 126.844 106.236 127.666 106.236 128.496V169.025C106.222 170.693 105.55 172.287 104.366 173.461C103.182 174.635 101.582 175.293 99.9149 175.293H43.5036C41.9824 175.335 40.4986 174.818 39.3335 173.839C38.1684 172.86 37.4031 171.487 37.1826 169.981H47.8062C49.2149 169.981 50.566 169.422 51.5622 168.426C52.5583 167.43 53.118 166.078 53.118 164.67C53.118 163.261 52.5583 161.91 51.5622 160.914C50.566 159.918 49.2149 159.358 47.8062 159.358H37.1826V148.734H42.4944C43.9031 148.734 45.2542 148.175 46.2504 147.179C47.2465 146.182 47.8062 144.831 47.8062 143.423C47.8062 142.014 47.2465 140.663 46.2504 139.666C45.2542 138.67 43.9031 138.111 42.4944 138.111H15.9354C14.5266 138.111 13.1755 138.67 12.1794 139.666C11.1832 140.663 10.6236 142.014 10.6236 143.423C10.6236 144.831 11.1832 146.182 12.1794 147.179C13.1755 148.175 14.5266 148.734 15.9354 148.734H26.559V159.358H5.3118C3.90302 159.358 2.55194 159.918 1.55579 160.914C0.559634 161.91 0 163.261 0 164.67C0 166.078 0.559634 167.43 1.55579 168.426C2.55194 169.422 3.90302 169.981 5.3118 169.981H26.559C26.8029 174.284 28.6825 178.331 31.8128 181.294C34.9431 184.256 39.0875 185.91 43.3974 185.917H69.9563C67.4983 188.327 65.4047 191.083 63.7415 194.097C56.6482 208.008 53.0045 223.42 53.118 239.035C53.118 240.444 53.6776 241.795 54.6737 242.791C55.6699 243.787 57.021 244.347 58.4297 244.347H74.737C76.0964 254.555 81.1168 263.923 88.8647 270.707C96.6127 277.492 106.561 281.232 116.859 281.232C127.158 281.232 137.106 277.492 144.854 270.707C152.602 263.923 157.623 254.555 158.982 244.347H239.403C240.425 252.462 243.768 260.11 249.03 266.372C254.292 272.634 261.25 277.245 269.068 279.65C276.886 282.056 285.232 282.154 293.104 279.932C300.976 277.711 308.04 273.265 313.447 267.128C318.855 260.991 322.376 253.423 323.589 245.334C324.801 237.245 323.653 228.978 320.283 221.525C316.912 214.072 311.462 207.75 304.588 203.318C297.713 198.886 289.705 196.533 281.525 196.54ZM79.6769 132.799H63.7415V122.175H79.6769V132.799ZM265.59 112.455V142.52C262.477 141.425 259.781 139.39 257.874 136.698C255.967 134.005 254.942 130.787 254.942 127.487C254.942 124.187 255.967 120.969 257.874 118.277C259.781 115.584 262.477 113.55 265.59 112.455ZM230.957 121.432C233.039 121.743 234.974 122.692 236.496 124.147C238.017 125.602 239.051 127.492 239.456 129.559L240.837 132.799C233.441 136.601 225.19 138.43 216.881 138.111C216.149 134.955 216.532 131.644 217.965 128.739C219.398 125.834 221.793 123.515 224.742 122.175C226.745 121.526 228.86 121.291 230.957 121.485V121.432ZM204.77 69.5885C203.886 70.034 203.144 70.7176 202.627 71.5624C202.111 72.4071 201.841 73.3792 201.848 74.3692C201.809 75.7064 201.491 77.0207 200.915 78.228C200.339 79.4354 199.517 80.5091 198.502 81.3807C195.474 83.3992 189.844 82.9211 182.566 80.0528C182.178 80.0098 181.786 80.0098 181.398 80.0528L180.601 79.3622V59.0181C180.601 57.5462 180.891 56.0888 181.454 54.729C182.017 53.3692 182.843 52.1336 183.884 51.0929C184.924 50.0521 186.16 49.2266 187.52 48.6633C188.88 48.1001 190.337 47.8102 191.809 47.8102H201.848C202.015 54.6861 204.174 61.3658 208.063 67.0389C207.102 68.0668 205.992 68.9442 204.77 69.6417V69.5885ZM143.418 42.0203C143.684 33.7788 147.077 25.9473 152.907 20.1166C158.738 14.2859 166.57 10.8932 174.811 10.6276H175.289C182.825 10.6227 190.118 13.2878 195.875 18.15C201.631 23.0121 205.479 29.7567 206.735 37.1866H191.809C186.023 37.2006 180.478 39.5052 176.387 43.5964C172.296 47.6875 169.991 53.2323 169.977 59.0181V73.9442C162.475 72.6768 155.673 68.7671 150.802 62.9219C145.931 57.0766 143.312 49.6815 143.418 42.0734V42.0203ZM159.354 84.9928C176.723 84.9928 183.098 94.0759 189.844 103.637C194.73 110.649 200.467 118.298 210.028 121.007C207.021 125.866 205.661 131.567 206.151 137.261C199.558 135.821 193.34 133.016 187.896 129.027C182.453 125.038 177.905 119.954 174.546 114.101C174.256 113.399 173.82 112.767 173.265 112.248C172.711 111.729 172.052 111.335 171.332 111.092C170.613 110.85 169.85 110.764 169.094 110.841C168.339 110.919 167.609 111.157 166.953 111.54C166.298 111.924 165.732 112.443 165.294 113.064C164.856 113.684 164.557 114.391 164.416 115.137C164.274 115.884 164.295 116.651 164.475 117.389C164.656 118.126 164.992 118.817 165.462 119.413C167.388 122.644 169.592 125.701 172.049 128.549L171.571 128.868C166.619 134.564 163.136 141.384 161.425 148.734H116.859V143.423C117.231 140.182 123.287 84.9928 159.354 84.9928ZM116.859 168.972V159.358H164.666C165.728 159.358 191.225 159.677 191.225 185.917V212.476H169.977V201.852C170.112 198.328 169.517 194.815 168.229 191.532C166.942 188.249 164.991 185.267 162.497 182.774C160.004 180.28 157.022 178.329 153.739 177.041C150.456 175.754 146.942 175.159 143.418 175.293H115.638C116.449 173.285 116.864 171.138 116.859 168.972ZM116.859 270.906C109.333 270.898 102.053 268.227 96.307 263.366C90.5612 258.505 86.7211 251.768 85.4668 244.347H96.356C97.5792 248.848 100.25 252.821 103.955 255.654C107.66 258.487 112.195 260.022 116.859 260.022C121.524 260.022 126.059 258.487 129.764 255.654C133.469 252.821 136.14 248.848 137.363 244.347H148.252C146.998 251.768 143.158 258.505 137.412 263.366C131.666 268.227 124.386 270.898 116.859 270.906ZM107.723 244.347H125.996C125.055 245.932 123.718 247.245 122.116 248.157C120.514 249.069 118.703 249.549 116.859 249.549C115.016 249.549 113.205 249.069 111.603 248.157C110.001 247.245 108.664 245.932 107.723 244.347ZM63.7415 233.723C64.4193 221.497 67.7162 209.559 73.409 198.718C75.5233 194.787 78.6785 191.513 82.5291 189.255C86.3797 186.997 90.7773 185.842 95.2405 185.917H143.418C145.541 185.802 147.665 186.135 149.65 186.895C151.636 187.656 153.439 188.825 154.942 190.329C156.445 191.832 157.615 193.635 158.375 195.621C159.135 197.606 159.469 199.729 159.354 201.852V217.788C159.354 223.534 161.218 229.126 164.666 233.723H63.7415ZM185.913 233.723C182.625 233.714 179.421 232.688 176.739 230.786C174.057 228.884 172.029 226.199 170.934 223.099H196.536C197.923 223.01 199.313 223.211 200.618 223.69C201.922 224.169 203.112 224.914 204.112 225.879C205.112 226.844 205.9 228.007 206.425 229.294C206.949 230.58 207.2 231.962 207.16 233.351C205.399 233.586 203.625 233.71 201.848 233.723H185.913ZM219.961 227.508C219.194 228.377 218.319 229.144 217.359 229.792C216.775 225.776 214.976 222.035 212.203 219.073C209.431 216.11 205.817 214.067 201.848 213.219V185.917C202.327 177.25 199.554 168.716 194.072 161.986C188.59 155.256 180.793 150.815 172.208 149.531C173.57 144.767 175.903 140.336 179.061 136.517C179.198 136.331 179.322 136.136 179.432 135.933C187.677 142.621 197.598 146.92 208.116 148.362L223.095 213.485C223.937 218.39 222.811 223.428 219.961 227.508ZM233.719 211.307L219.112 148.734C228.1 148.817 236.981 146.779 245.033 142.785L270.105 201.215L246.945 233.723H228.407C230.738 230.528 232.409 226.899 233.321 223.05C234.233 219.201 234.368 215.209 233.719 211.307ZM281.525 233.723H272.389C273.558 231.698 275.363 230.115 277.524 229.22C279.684 228.325 282.08 228.168 284.339 228.773C286.598 229.379 288.594 230.712 290.017 232.568C291.441 234.423 292.213 236.696 292.213 239.035C292.213 241.373 291.441 243.647 290.017 245.502C288.594 247.357 286.598 248.691 284.339 249.296C282.08 249.902 279.684 249.745 277.524 248.85C275.363 247.955 273.558 246.372 272.389 244.347H281.525C282.934 244.347 284.285 243.787 285.281 242.791C286.277 241.795 286.837 240.444 286.837 239.035C286.837 237.626 286.277 236.275 285.281 235.279C284.285 234.283 282.934 233.723 281.525 233.723ZM259.959 233.723L261.818 231.12C261.497 231.97 261.231 232.839 261.022 233.723H259.959ZM281.525 270.906C273.999 270.898 266.718 268.227 260.973 263.366C255.227 258.505 251.387 251.768 250.132 244.347H261.022C262.185 248.827 264.78 252.805 268.411 255.676C272.043 258.546 276.513 260.152 281.141 260.25C285.769 260.347 290.302 258.93 294.051 256.215C297.8 253.499 300.559 249.633 301.91 245.206C303.26 240.778 303.128 236.03 301.533 231.685C299.937 227.339 296.966 223.634 293.072 221.131C289.177 218.629 284.572 217.467 279.956 217.823C275.341 218.178 270.968 220.031 267.502 223.099L278.816 207.164H281.525C289.978 207.164 298.084 210.522 304.061 216.499C310.038 222.476 313.396 230.582 313.396 239.035C313.396 247.487 310.038 255.594 304.061 261.571C298.084 267.548 289.978 270.906 281.525 270.906Z"/>
</mask>
<path d="M281.525 196.54H279.772L260.597 151.815C263.848 153.24 267.352 153.999 270.902 154.046C272.31 154.046 273.661 153.486 274.658 152.49C275.654 151.494 276.213 150.143 276.213 148.734V106.24C276.213 104.831 275.654 103.48 274.658 102.484C273.661 101.488 272.31 100.928 270.902 100.928C265.37 100.958 259.986 102.715 255.501 105.952C251.015 109.19 247.653 113.747 245.883 118.988C244.32 116.806 242.325 114.968 240.023 113.588C237.72 112.209 235.159 111.317 232.497 110.967C229.123 110.532 225.697 110.748 222.405 111.605H217.784C208.807 111.605 204.823 106.293 198.555 97.6348L195.421 93.226C198.635 93.0621 201.75 92.0545 204.451 90.3045C206.501 88.8168 208.236 86.9388 209.558 84.7784C210.88 82.618 211.762 80.2178 212.153 77.7156C213.88 76.721 215.389 75.3908 216.594 73.8034C217.798 72.216 218.672 70.4036 219.165 68.4731C219.389 66.9503 219.24 65.3959 218.732 63.9433C218.223 62.4907 217.369 61.1833 216.243 60.1335C214.074 56.4202 212.886 52.2158 212.791 47.9164C214.162 47.8343 215.448 47.2241 216.379 46.2138C217.31 45.2036 217.814 43.8719 217.784 42.4984C217.784 36.8684 216.666 31.2945 214.494 26.1004C212.322 20.9063 209.139 16.1955 205.131 12.2418C201.123 8.28815 196.37 5.17031 191.146 3.06945C185.923 0.968595 180.334 -0.0733943 174.705 0.00401755C163.658 0.22149 153.124 4.70682 145.311 12.5198C137.498 20.3329 133.012 30.867 132.795 41.9141C132.696 47.5461 133.725 53.141 135.824 58.3686C137.922 63.5961 141.046 68.3503 145.012 72.3507C146.187 73.5188 147.429 74.6184 148.73 75.644C128.227 80.6371 117.444 99.8658 111.92 116.545C110.348 114.961 108.477 113.704 106.417 112.847C104.356 111.99 102.146 111.55 99.9149 111.552H43.5036C40.6708 111.547 37.8823 112.255 35.3947 113.61C32.907 114.965 30.8002 116.924 29.268 119.307C28.5002 120.49 28.234 121.93 28.5278 123.31C28.8217 124.69 29.6516 125.896 30.835 126.664C32.0183 127.432 33.4582 127.698 34.8379 127.404C36.2176 127.11 37.424 126.28 38.1918 125.097C38.7641 124.21 39.5511 123.482 40.4796 122.981C41.4082 122.48 42.4483 122.221 43.5036 122.228H53.118V138.164C53.118 139.573 53.6776 140.924 54.6737 141.92C55.6699 142.916 57.021 143.476 58.4297 143.476H84.9887C86.3975 143.476 87.7486 142.916 88.7447 141.92C89.7409 140.924 90.3005 139.573 90.3005 138.164V122.175H99.9149C100.745 122.175 101.567 122.339 102.334 122.656C103.101 122.974 103.798 123.44 104.385 124.027C104.971 124.614 105.437 125.31 105.755 126.077C106.072 126.844 106.236 127.666 106.236 128.496V169.025C106.222 170.693 105.55 172.287 104.366 173.461C103.182 174.635 101.582 175.293 99.9149 175.293H43.5036C41.9824 175.335 40.4986 174.818 39.3335 173.839C38.1684 172.86 37.4031 171.487 37.1826 169.981H47.8062C49.2149 169.981 50.566 169.422 51.5622 168.426C52.5583 167.43 53.118 166.078 53.118 164.67C53.118 163.261 52.5583 161.91 51.5622 160.914C50.566 159.918 49.2149 159.358 47.8062 159.358H37.1826V148.734H42.4944C43.9031 148.734 45.2542 148.175 46.2504 147.179C47.2465 146.182 47.8062 144.831 47.8062 143.423C47.8062 142.014 47.2465 140.663 46.2504 139.666C45.2542 138.67 43.9031 138.111 42.4944 138.111H15.9354C14.5266 138.111 13.1755 138.67 12.1794 139.666C11.1832 140.663 10.6236 142.014 10.6236 143.423C10.6236 144.831 11.1832 146.182 12.1794 147.179C13.1755 148.175 14.5266 148.734 15.9354 148.734H26.559V159.358H5.3118C3.90302 159.358 2.55194 159.918 1.55579 160.914C0.559634 161.91 0 163.261 0 164.67C0 166.078 0.559634 167.43 1.55579 168.426C2.55194 169.422 3.90302 169.981 5.3118 169.981H26.559C26.8029 174.284 28.6825 178.331 31.8128 181.294C34.9431 184.256 39.0875 185.91 43.3974 185.917H69.9563C67.4983 188.327 65.4047 191.083 63.7415 194.097C56.6482 208.008 53.0045 223.42 53.118 239.035C53.118 240.444 53.6776 241.795 54.6737 242.791C55.6699 243.787 57.021 244.347 58.4297 244.347H74.737C76.0964 254.555 81.1168 263.923 88.8647 270.707C96.6127 277.492 106.561 281.232 116.859 281.232C127.158 281.232 137.106 277.492 144.854 270.707C152.602 263.923 157.623 254.555 158.982 244.347H239.403C240.425 252.462 243.768 260.11 249.03 266.372C254.292 272.634 261.25 277.245 269.068 279.65C276.886 282.056 285.232 282.154 293.104 279.932C300.976 277.711 308.04 273.265 313.447 267.128C318.855 260.991 322.376 253.423 323.589 245.334C324.801 237.245 323.653 228.978 320.283 221.525C316.912 214.072 311.462 207.75 304.588 203.318C297.713 198.886 289.705 196.533 281.525 196.54ZM79.6769 132.799H63.7415V122.175H79.6769V132.799ZM265.59 112.455V142.52C262.477 141.425 259.781 139.39 257.874 136.698C255.967 134.005 254.942 130.787 254.942 127.487C254.942 124.187 255.967 120.969 257.874 118.277C259.781 115.584 262.477 113.55 265.59 112.455ZM230.957 121.432C233.039 121.743 234.974 122.692 236.496 124.147C238.017 125.602 239.051 127.492 239.456 129.559L240.837 132.799C233.441 136.601 225.19 138.43 216.881 138.111C216.149 134.955 216.532 131.644 217.965 128.739C219.398 125.834 221.793 123.515 224.742 122.175C226.745 121.526 228.86 121.291 230.957 121.485V121.432ZM204.77 69.5885C203.886 70.034 203.144 70.7176 202.627 71.5624C202.111 72.4071 201.841 73.3792 201.848 74.3692C201.809 75.7064 201.491 77.0207 200.915 78.228C200.339 79.4354 199.517 80.5091 198.502 81.3807C195.474 83.3992 189.844 82.9211 182.566 80.0528C182.178 80.0098 181.786 80.0098 181.398 80.0528L180.601 79.3622V59.0181C180.601 57.5462 180.891 56.0888 181.454 54.729C182.017 53.3692 182.843 52.1336 183.884 51.0929C184.924 50.0521 186.16 49.2266 187.52 48.6633C188.88 48.1001 190.337 47.8102 191.809 47.8102H201.848C202.015 54.6861 204.174 61.3658 208.063 67.0389C207.102 68.0668 205.992 68.9442 204.77 69.6417V69.5885ZM143.418 42.0203C143.684 33.7788 147.077 25.9473 152.907 20.1166C158.738 14.2859 166.57 10.8932 174.811 10.6276H175.289C182.825 10.6227 190.118 13.2878 195.875 18.15C201.631 23.0121 205.479 29.7567 206.735 37.1866H191.809C186.023 37.2006 180.478 39.5052 176.387 43.5964C172.296 47.6875 169.991 53.2323 169.977 59.0181V73.9442C162.475 72.6768 155.673 68.7671 150.802 62.9219C145.931 57.0766 143.312 49.6815 143.418 42.0734V42.0203ZM159.354 84.9928C176.723 84.9928 183.098 94.0759 189.844 103.637C194.73 110.649 200.467 118.298 210.028 121.007C207.021 125.866 205.661 131.567 206.151 137.261C199.558 135.821 193.34 133.016 187.896 129.027C182.453 125.038 177.905 119.954 174.546 114.101C174.256 113.399 173.82 112.767 173.265 112.248C172.711 111.729 172.052 111.335 171.332 111.092C170.613 110.85 169.85 110.764 169.094 110.841C168.339 110.919 167.609 111.157 166.953 111.54C166.298 111.924 165.732 112.443 165.294 113.064C164.856 113.684 164.557 114.391 164.416 115.137C164.274 115.884 164.295 116.651 164.475 117.389C164.656 118.126 164.992 118.817 165.462 119.413C167.388 122.644 169.592 125.701 172.049 128.549L171.571 128.868C166.619 134.564 163.136 141.384 161.425 148.734H116.859V143.423C117.231 140.182 123.287 84.9928 159.354 84.9928ZM116.859 168.972V159.358H164.666C165.728 159.358 191.225 159.677 191.225 185.917V212.476H169.977V201.852C170.112 198.328 169.517 194.815 168.229 191.532C166.942 188.249 164.991 185.267 162.497 182.774C160.004 180.28 157.022 178.329 153.739 177.041C150.456 175.754 146.942 175.159 143.418 175.293H115.638C116.449 173.285 116.864 171.138 116.859 168.972ZM116.859 270.906C109.333 270.898 102.053 268.227 96.307 263.366C90.5612 258.505 86.7211 251.768 85.4668 244.347H96.356C97.5792 248.848 100.25 252.821 103.955 255.654C107.66 258.487 112.195 260.022 116.859 260.022C121.524 260.022 126.059 258.487 129.764 255.654C133.469 252.821 136.14 248.848 137.363 244.347H148.252C146.998 251.768 143.158 258.505 137.412 263.366C131.666 268.227 124.386 270.898 116.859 270.906ZM107.723 244.347H125.996C125.055 245.932 123.718 247.245 122.116 248.157C120.514 249.069 118.703 249.549 116.859 249.549C115.016 249.549 113.205 249.069 111.603 248.157C110.001 247.245 108.664 245.932 107.723 244.347ZM63.7415 233.723C64.4193 221.497 67.7162 209.559 73.409 198.718C75.5233 194.787 78.6785 191.513 82.5291 189.255C86.3797 186.997 90.7773 185.842 95.2405 185.917H143.418C145.541 185.802 147.665 186.135 149.65 186.895C151.636 187.656 153.439 188.825 154.942 190.329C156.445 191.832 157.615 193.635 158.375 195.621C159.135 197.606 159.469 199.729 159.354 201.852V217.788C159.354 223.534 161.218 229.126 164.666 233.723H63.7415ZM185.913 233.723C182.625 233.714 179.421 232.688 176.739 230.786C174.057 228.884 172.029 226.199 170.934 223.099H196.536C197.923 223.01 199.313 223.211 200.618 223.69C201.922 224.169 203.112 224.914 204.112 225.879C205.112 226.844 205.9 228.007 206.425 229.294C206.949 230.58 207.2 231.962 207.16 233.351C205.399 233.586 203.625 233.71 201.848 233.723H185.913ZM219.961 227.508C219.194 228.377 218.319 229.144 217.359 229.792C216.775 225.776 214.976 222.035 212.203 219.073C209.431 216.11 205.817 214.067 201.848 213.219V185.917C202.327 177.25 199.554 168.716 194.072 161.986C188.59 155.256 180.793 150.815 172.208 149.531C173.57 144.767 175.903 140.336 179.061 136.517C179.198 136.331 179.322 136.136 179.432 135.933C187.677 142.621 197.598 146.92 208.116 148.362L223.095 213.485C223.937 218.39 222.811 223.428 219.961 227.508ZM233.719 211.307L219.112 148.734C228.1 148.817 236.981 146.779 245.033 142.785L270.105 201.215L246.945 233.723H228.407C230.738 230.528 232.409 226.899 233.321 223.05C234.233 219.201 234.368 215.209 233.719 211.307ZM281.525 233.723H272.389C273.558 231.698 275.363 230.115 277.524 229.22C279.684 228.325 282.08 228.168 284.339 228.773C286.598 229.379 288.594 230.712 290.017 232.568C291.441 234.423 292.213 236.696 292.213 239.035C292.213 241.373 291.441 243.647 290.017 245.502C288.594 247.357 286.598 248.691 284.339 249.296C282.08 249.902 279.684 249.745 277.524 248.85C275.363 247.955 273.558 246.372 272.389 244.347H281.525C282.934 244.347 284.285 243.787 285.281 242.791C286.277 241.795 286.837 240.444 286.837 239.035C286.837 237.626 286.277 236.275 285.281 235.279C284.285 234.283 282.934 233.723 281.525 233.723ZM259.959 233.723L261.818 231.12C261.497 231.97 261.231 232.839 261.022 233.723H259.959ZM281.525 270.906C273.999 270.898 266.718 268.227 260.973 263.366C255.227 258.505 251.387 251.768 250.132 244.347H261.022C262.185 248.827 264.78 252.805 268.411 255.676C272.043 258.546 276.513 260.152 281.141 260.25C285.769 260.347 290.302 258.93 294.051 256.215C297.8 253.499 300.559 249.633 301.91 245.206C303.26 240.778 303.128 236.03 301.533 231.685C299.937 227.339 296.966 223.634 293.072 221.131C289.177 218.629 284.572 217.467 279.956 217.823C275.341 218.178 270.968 220.031 267.502 223.099L278.816 207.164H281.525C289.978 207.164 298.084 210.522 304.061 216.499C310.038 222.476 313.396 230.582 313.396 239.035C313.396 247.487 310.038 255.594 304.061 261.571C298.084 267.548 289.978 270.906 281.525 270.906Z" fill="black" stroke="black" stroke-width="2.74693" mask="url(#path-1-inside-1_1398_9)"/>
</svg>
