<svg width="512" height="512" viewBox="0 0 512 512" fill="none" xmlns="http://www.w3.org/2000/svg">
<path d="M330.496 467.542H34.9065" stroke="black" stroke-width="12" stroke-miterlimit="10" stroke-linecap="round" stroke-linejoin="round"/>
<path d="M77.6399 467.539L115.42 384.499" stroke="black" stroke-width="12" stroke-miterlimit="10" stroke-linecap="round" stroke-linejoin="round"/>
<mask id="mask0_6002_601" style="mask-type:luminance" maskUnits="userSpaceOnUse" x="0" y="0" width="512" height="512">
<path d="M505.998 505.999V6.00049H6V505.999H505.998Z" fill="white" stroke="white" stroke-width="12"/>
</mask>
<g mask="url(#mask0_6002_601)">
<path d="M238.139 467.539L215.939 421.449C215.164 419.834 213.948 418.472 212.432 417.518C210.915 416.564 209.161 416.059 207.37 416.059H158.03C156.239 416.061 154.485 416.568 152.97 417.522C151.454 418.475 150.238 419.836 149.46 421.449L127.26 467.539" stroke="black" stroke-width="12" stroke-miterlimit="10" stroke-linecap="round" stroke-linejoin="round"/>
<path d="M249.979 384.499L287.759 467.539" stroke="black" stroke-width="12" stroke-miterlimit="10" stroke-linecap="round" stroke-linejoin="round"/>
<path d="M7.5 352.401V214.733" stroke="black" stroke-width="12" stroke-miterlimit="10" stroke-linecap="round" stroke-linejoin="round"/>
<path d="M357.899 262.889V207.509" stroke="black" stroke-width="12" stroke-miterlimit="10" stroke-linecap="round" stroke-linejoin="round"/>
<path d="M7.5 179.729V131.19C7.49987 130.198 7.69506 129.216 8.07442 128.3C8.45378 127.384 9.00989 126.552 9.71098 125.85C10.4121 125.149 11.2444 124.593 12.1605 124.213C13.0766 123.834 14.0584 123.639 15.05 123.639H319.689" stroke="black" stroke-width="12" stroke-miterlimit="10" stroke-linecap="round" stroke-linejoin="round"/>
<path d="M357.899 361.669V376.949C357.899 378.951 357.104 380.872 355.688 382.288C354.272 383.704 352.351 384.499 350.349 384.499H15.05C13.0476 384.499 11.1272 383.704 9.71133 382.288C8.29543 380.872 7.5 378.951 7.5 376.949V346.969H337.289" stroke="black" stroke-width="12" stroke-miterlimit="10" stroke-linecap="round" stroke-linejoin="round"/>
<path d="M182.7 210.209C148.99 210.209 119.084 224.855 100.297 247.477C98.9773 249.072 98.2554 251.076 98.2554 253.146C98.2554 255.216 98.9773 257.221 100.297 258.815C119.084 281.437 148.99 296.083 182.7 296.083C216.409 296.083 246.316 281.437 265.103 258.815C266.422 257.22 267.144 255.216 267.144 253.146C267.144 251.077 266.422 249.072 265.103 247.477C246.316 224.855 216.409 210.209 182.7 210.209Z" stroke="black" stroke-width="12" stroke-miterlimit="10" stroke-linecap="round" stroke-linejoin="round"/>
<path d="M168.015 211.157C150.666 217.223 138.219 233.726 138.219 253.145C138.219 272.565 150.666 289.067 168.015 295.135" stroke="black" stroke-width="12" stroke-miterlimit="10" stroke-linecap="round" stroke-linejoin="round"/>
<path d="M197.385 295.135C214.734 289.068 227.182 272.566 227.182 253.146C227.182 233.727 214.734 217.224 197.385 211.157" stroke="black" stroke-width="12" stroke-miterlimit="10" stroke-linecap="round" stroke-linejoin="round"/>
<path d="M182.699 172.56V179.851" stroke="black" stroke-width="12" stroke-miterlimit="10" stroke-linecap="round" stroke-linejoin="round"/>
<path d="M237.299 188.802L240.281 185.82" stroke="black" stroke-width="12" stroke-miterlimit="10" stroke-linecap="round" stroke-linejoin="round"/>
<path d="M128.102 188.802L125.12 185.82" stroke="black" stroke-width="12" stroke-miterlimit="10" stroke-linecap="round" stroke-linejoin="round"/>
<path d="M394.939 306.359C391.619 265.289 358.189 257.598 312.389 260.289C308.689 260.508 305.719 263.479 305.509 267.178C302.819 312.968 310.509 346.399 351.569 349.729" stroke="black" stroke-width="12" stroke-miterlimit="10" stroke-linecap="round" stroke-linejoin="round"/>
<path d="M414.209 399.889L399.019 384.7" stroke="black" stroke-width="12" stroke-miterlimit="10" stroke-linecap="round" stroke-linejoin="round"/>
<path d="M429.919 353.799L490.139 414.029C490.604 414.492 490.974 415.043 491.226 415.649C491.479 416.256 491.609 416.906 491.609 417.564C491.609 418.221 491.479 418.871 491.226 419.478C490.974 420.084 490.604 420.635 490.139 421.099L466.309 444.928C465.371 445.865 464.099 446.391 462.774 446.391C461.448 446.391 460.177 445.865 459.239 444.928L438.949 424.638" stroke="black" stroke-width="12" stroke-miterlimit="10" stroke-linecap="round" stroke-linejoin="round"/>
<path d="M384.846 388.616L353.334 357.104C352.661 356.43 352.126 355.631 351.762 354.751C351.398 353.871 351.21 352.928 351.21 351.976C351.21 351.024 351.398 350.08 351.762 349.201C352.126 348.321 352.661 347.521 353.334 346.848L392.063 308.119C393.423 306.759 395.268 305.995 397.191 305.995C399.115 305.995 400.96 306.759 402.32 308.119L433.831 339.632C434.504 340.305 435.039 341.105 435.403 341.984C435.768 342.864 435.955 343.807 435.955 344.759C435.955 345.712 435.768 346.655 435.403 347.534C435.039 348.414 434.504 349.214 433.831 349.887L395.102 388.616C394.429 389.289 393.629 389.824 392.749 390.188C391.87 390.553 390.926 390.741 389.974 390.741C389.022 390.741 388.078 390.553 387.199 390.188C386.319 389.824 385.519 389.289 384.846 388.616Z" stroke="black" stroke-width="12" stroke-miterlimit="10" stroke-linecap="round" stroke-linejoin="round"/>
<path d="M365.194 81.708H458.993" stroke="black" stroke-width="12" stroke-miterlimit="10" stroke-linecap="round" stroke-linejoin="round"/>
<path d="M365.194 115.786H458.993" stroke="black" stroke-width="12" stroke-miterlimit="10" stroke-linecap="round" stroke-linejoin="round"/>
<path d="M365.194 149.863H410.652" stroke="black" stroke-width="12" stroke-miterlimit="10" stroke-linecap="round" stroke-linejoin="round"/>
<path d="M485.813 44.4561H338.374C328.055 44.4561 319.689 52.821 319.689 63.141V168.43C319.689 175.818 323.982 182.191 330.207 185.218C333.335 186.738 335.409 189.811 335.409 193.29V216.772C335.409 222.099 341.936 224.666 345.564 220.767L372.223 192.118C373.692 190.539 375.47 189.281 377.446 188.42C379.423 187.559 381.556 187.115 383.712 187.115H485.813C496.133 187.115 504.499 178.75 504.499 168.43V63.142C504.499 52.821 496.133 44.4561 485.813 44.4561Z" stroke="black" stroke-width="12" stroke-miterlimit="10" stroke-linecap="round" stroke-linejoin="round"/>
</g>
</svg>
