<svg width="361" height="450" viewBox="0 0 361 450" fill="none" xmlns="http://www.w3.org/2000/svg">
<path d="M161.265 349.21L218.574 369.521L318.953 317.444C331.944 310.704 348.086 315.818 354.826 328.809C358.196 335.304 355.637 343.376 349.143 346.745L287.144 378.909M275.334 385.037L213.336 417.201L110.273 407.361L24.956 445.805H5V353.265H24.9568L110.29 305.797L202.802 300.366C213.758 299.722 224.432 303.679 227.371 314.253C230.309 324.828 223.899 335.369 213.484 338.822L126.278 356.172" stroke="black" stroke-width="8.20591" stroke-miterlimit="22.9256"/>
<path d="M228.084 319.624L268.424 298.696C281.414 291.956 297.556 297.071 304.296 310.061C307.665 316.556 305.106 324.628 298.613 327.997M21.0078 64.867V211.211C21.0078 218.515 27.007 224.515 34.3118 224.515H205.65L233.872 252.737L262.094 224.515H327.002C334.307 224.515 340.306 218.528 340.306 211.211V18.304C340.306 10.9868 334.319 5 327.002 5H34.3118C26.9946 5 21.0078 11.0045 21.0078 18.304V51.5639" stroke="black" stroke-width="8.20591" stroke-miterlimit="22.9256"/>
<path d="M67.5703 171.115H293.736M154.045 117.9H293.736M174 91.2932H293.735M67.5703 144.508H174.001M187.305 144.508H293.736M313.694 38.26V24.9561M313.694 64.868V51.564M79.2831 90.5021L102.801 114.02C107.975 119.194 116.441 119.194 121.615 114.02L154.541 81.0944C159.715 75.92 159.715 67.4543 154.541 62.2799C149.367 57.1064 140.9 57.1064 135.727 62.2799L112.209 85.7978L98.0976 71.6867C92.9241 66.5132 84.4575 66.5132 79.2831 71.6867C74.1097 76.8611 74.1088 85.3277 79.2831 90.5021Z" stroke="black" stroke-width="8.20591" stroke-miterlimit="22.9256"/>
</svg>
