<svg width="471" height="513" viewBox="0 0 471 513" fill="none" xmlns="http://www.w3.org/2000/svg">
<path fill-rule="evenodd" clip-rule="evenodd" d="M32.4924 512.012C31.4178 512.007 30.3672 511.694 29.4656 511.109C28.5639 510.524 27.8491 509.693 27.4062 508.714C26.9634 507.735 26.811 506.649 26.9672 505.586C27.1235 504.523 27.5818 503.527 28.2876 502.716L85.0636 438.098H63.5084C46.6696 438.076 30.5269 431.376 18.6212 419.468C6.71544 407.56 0.0187512 391.416 0 374.578V200.801C0.0187512 183.962 6.71544 167.818 18.6212 155.91C30.5269 144.002 46.6696 137.302 63.5084 137.281H119.611C121.094 137.281 122.517 137.87 123.566 138.919C124.615 139.967 125.204 141.39 125.204 142.873C125.204 144.356 124.615 145.779 123.566 146.828C122.517 147.876 121.094 148.466 119.611 148.466H63.5084C49.633 148.478 36.3293 153.994 26.5157 163.803C16.7021 173.612 11.1803 186.914 11.1615 200.789V374.566C11.174 388.443 16.6915 401.749 26.5032 411.563C36.3149 421.377 49.6192 426.897 63.4966 426.913H97.4063C98.4764 426.921 99.5218 427.236 100.419 427.82C101.316 428.403 102.028 429.231 102.47 430.206C102.912 431.18 103.066 432.261 102.914 433.32C102.762 434.38 102.31 435.374 101.611 436.184L53.3508 491.153L198.498 427.397C199.205 427.086 199.969 426.925 200.742 426.925H406.857C420.735 426.909 434.039 421.388 443.851 411.574C453.663 401.761 459.18 388.455 459.192 374.578V200.801C459.174 186.926 453.654 173.626 443.843 163.815C434.033 154.004 420.732 148.484 406.857 148.466H350.755C349.271 148.466 347.849 147.876 346.8 146.828C345.751 145.779 345.162 144.356 345.162 142.873C345.162 141.39 345.751 139.967 346.8 138.919C347.849 137.87 349.271 137.281 350.755 137.281H406.857C423.696 137.302 439.839 144.002 451.745 155.91C463.65 167.818 470.347 183.962 470.366 200.801V374.578C470.347 391.416 463.65 407.56 451.745 419.468C439.839 431.376 423.696 438.076 406.857 438.098H201.899L34.7365 511.527C34.0284 511.836 33.2648 512.009 32.4924 512.012Z" fill="black"/>
<path fill-rule="evenodd" clip-rule="evenodd" d="M273.358 312.522C272.623 312.522 271.896 312.377 271.217 312.096C270.539 311.814 269.922 311.402 269.403 310.882C268.884 310.362 268.473 309.744 268.193 309.065C267.913 308.386 267.77 307.658 267.771 306.924C267.771 256.785 288.441 233.695 308.437 211.348C327.996 189.498 346.48 168.875 346.48 122.481C346.48 61.1107 296.555 11.1733 235.173 11.1733C173.814 11.1733 123.876 61.1107 123.876 122.481C123.876 169.017 142.349 189.557 161.896 211.301C181.904 233.553 202.598 256.561 202.598 306.924C202.598 308.407 202.008 309.829 200.959 310.878C199.911 311.927 198.488 312.516 197.005 312.516C195.522 312.516 194.099 311.927 193.05 310.878C192.002 309.829 191.412 308.407 191.412 306.924C191.412 260.86 173.046 240.427 153.581 218.777C133.491 196.419 112.703 173.304 112.703 122.481C112.703 54.9453 167.648 0 235.184 0C302.709 0 357.666 54.9453 357.666 122.481C357.666 173.151 336.878 196.36 316.764 218.813C297.323 240.533 278.945 261.061 278.945 306.924C278.945 308.405 278.356 309.826 277.308 310.874C276.261 311.922 274.84 312.522 273.358 312.522Z" fill="black"/>
<path fill-rule="evenodd" clip-rule="evenodd" d="M300.476 65.8472C299.72 65.8481 298.971 65.6946 298.277 65.396C297.582 65.0974 296.956 64.6601 296.436 64.1109C288.559 55.7846 279.058 49.1611 268.521 44.6493C257.984 40.1376 246.634 37.8332 235.172 37.8784C233.69 37.8784 232.269 37.2898 231.222 36.2421C230.174 35.1944 229.585 33.7735 229.585 32.2918C229.585 30.8101 230.174 29.3891 231.222 28.3414C232.269 27.2937 233.69 26.7051 235.172 26.7051C261.641 26.7051 286.267 37.2525 304.503 56.4101C305.261 57.1988 305.77 58.193 305.967 59.2688C306.164 60.3447 306.04 61.4547 305.61 62.4606C305.181 63.4665 304.465 64.324 303.552 64.9261C302.639 65.5283 301.569 65.8486 300.476 65.8472ZM325.374 128.068C324.639 128.069 323.911 127.926 323.232 127.646C322.553 127.366 321.936 126.955 321.416 126.436C320.895 125.917 320.483 125.3 320.201 124.622C319.92 123.943 319.775 123.216 319.775 122.481C319.78 107.781 315.954 93.3339 308.673 80.5638C307.977 79.2775 307.812 77.7699 308.213 76.3635C308.615 74.9571 309.55 73.7637 310.82 73.0384C312.09 72.3131 313.594 72.1136 315.009 72.4826C316.424 72.8515 317.639 73.7596 318.393 75.0126C326.637 89.4787 330.968 105.843 330.96 122.493C330.957 123.973 330.367 125.391 329.32 126.436C328.272 127.481 326.853 128.068 325.374 128.068ZM196.502 312.522C194.203 312.685 192.051 313.712 190.479 315.397C188.907 317.083 188.031 319.301 188.028 321.606C188.025 323.91 188.895 326.131 190.463 327.82C192.031 329.509 194.18 330.542 196.479 330.711H273.842C276.177 330.592 278.377 329.581 279.987 327.886C281.598 326.191 282.496 323.943 282.496 321.605C282.496 319.267 281.598 317.018 279.987 315.323C278.377 313.629 276.177 312.617 273.842 312.498L196.502 312.522ZM273.865 341.908H196.502C191.123 341.902 185.965 339.762 182.161 335.958C178.357 332.154 176.217 326.996 176.211 321.617C176.22 316.241 178.36 311.088 182.161 307.287C185.962 303.486 191.115 301.346 196.491 301.337H273.853C279.229 301.346 284.382 303.486 288.183 307.287C291.984 311.088 294.124 316.241 294.133 321.617C294.133 332.814 285.039 341.908 273.853 341.908H273.865Z" fill="black"/>
<path fill-rule="evenodd" clip-rule="evenodd" d="M273.865 371.294H196.502C191.125 371.288 185.969 369.15 182.165 365.348C178.362 361.547 176.22 356.392 176.211 351.014C176.214 345.635 178.351 340.476 182.153 336.67C185.955 332.863 191.111 330.721 196.491 330.711C197.974 330.711 199.396 331.3 200.445 332.349C201.494 333.398 202.083 334.82 202.083 336.304C202.083 337.787 201.494 339.209 200.445 340.258C199.396 341.307 197.974 341.896 196.491 341.896C194.156 342.015 191.956 343.027 190.345 344.721C188.734 346.416 187.836 348.665 187.836 351.003C187.836 353.341 188.734 355.589 190.345 357.284C191.956 358.979 194.156 359.99 196.491 360.109H273.853C276.188 359.99 278.388 358.979 279.999 357.284C281.61 355.589 282.508 353.341 282.508 351.003C282.508 348.665 281.61 346.416 279.999 344.721C278.388 343.027 276.188 342.015 273.853 341.896C272.37 341.896 270.948 341.307 269.899 340.258C268.85 339.209 268.261 337.787 268.261 336.304C268.261 334.82 268.85 333.398 269.899 332.349C270.948 331.3 272.37 330.711 273.853 330.711C285.05 330.711 294.133 339.806 294.133 351.003C294.124 356.378 291.984 361.531 288.183 365.332C284.382 369.133 279.229 371.273 273.853 371.282L273.865 371.294Z" fill="black"/>
<path fill-rule="evenodd" clip-rule="evenodd" d="M261.357 400.668H208.998C197.813 400.668 188.719 391.574 188.719 380.401C188.719 369.215 197.813 360.121 208.998 360.121C210.48 360.121 211.901 360.709 212.949 361.757C213.997 362.805 214.585 364.226 214.585 365.708C214.585 367.189 213.997 368.61 212.949 369.658C211.901 370.706 210.48 371.294 208.998 371.294C206.642 371.379 204.41 372.375 202.772 374.072C201.135 375.77 200.22 378.036 200.22 380.395C200.22 382.753 201.135 385.019 202.772 386.717C204.41 388.414 206.642 389.41 208.998 389.495H261.357C263.689 389.376 265.886 388.366 267.495 386.674C269.103 384.981 270 382.735 270 380.401C270 378.066 269.103 375.82 267.495 374.127C265.886 372.435 263.689 371.425 261.357 371.306C259.874 371.306 258.451 370.717 257.403 369.668C256.354 368.619 255.765 367.197 255.765 365.713C255.765 364.23 256.354 362.808 257.403 361.759C258.451 360.71 259.874 360.121 261.357 360.121C272.542 360.121 281.649 369.215 281.649 380.401C281.636 385.776 279.493 390.928 275.69 394.727C271.887 398.526 266.733 400.662 261.357 400.668ZM247.786 312.522C247.052 312.522 246.324 312.377 245.645 312.096C244.967 311.814 244.351 311.402 243.832 310.882C243.313 310.362 242.901 309.744 242.621 309.065C242.341 308.386 242.198 307.658 242.199 306.924V185.163H228.156V306.935C228.156 308.419 227.567 309.841 226.518 310.89C225.469 311.939 224.047 312.528 222.564 312.528C221.08 312.528 219.658 311.939 218.609 310.89C217.56 309.841 216.971 308.419 216.971 306.935V179.564C216.971 176.482 219.475 173.978 222.558 173.978H247.774C250.857 173.978 253.361 176.482 253.361 179.564V306.912C253.361 308.393 252.772 309.814 251.725 310.862C250.677 311.91 249.256 312.498 247.774 312.498L247.786 312.522Z" fill="black"/>
<path fill-rule="evenodd" clip-rule="evenodd" d="M208.761 157.548C206.657 157.661 204.676 158.577 203.227 160.106C201.777 161.635 200.97 163.662 200.97 165.769C200.97 167.876 201.777 169.903 203.227 171.432C204.676 172.961 206.657 173.877 208.761 173.99H216.982V165.769C216.978 163.59 216.111 161.501 214.57 159.96C213.029 158.419 210.94 157.552 208.761 157.548ZM222.58 185.163H208.761C203.62 185.153 198.693 183.107 195.058 179.472C191.423 175.837 189.377 170.91 189.367 165.769C189.367 155.068 198.06 146.363 208.761 146.363C219.45 146.363 228.167 155.068 228.167 165.769V179.576C228.167 180.311 228.022 181.038 227.74 181.717C227.459 182.395 227.046 183.012 226.526 183.531C226.006 184.05 225.389 184.461 224.71 184.741C224.031 185.021 223.315 185.164 222.58 185.163ZM253.372 173.978H261.592C263.678 173.841 265.633 172.916 267.061 171.39C268.49 169.865 269.285 167.853 269.285 165.763C269.285 163.673 268.49 161.661 267.061 160.136C265.633 158.611 263.678 157.685 261.592 157.548C259.413 157.552 257.324 158.419 255.783 159.96C254.242 161.501 253.375 163.59 253.372 165.769V173.978ZM261.592 185.163H247.773C246.294 185.16 244.876 184.57 243.83 183.522C242.785 182.475 242.198 181.056 242.198 179.576V165.757C242.198 155.068 250.891 146.363 261.592 146.363C272.293 146.363 280.998 155.068 280.998 165.769C280.998 176.458 272.293 185.163 261.592 185.163Z" fill="black"/>
</svg>
