<svg width="497" height="512" viewBox="0 0 497 512" fill="none" xmlns="http://www.w3.org/2000/svg">
<path d="M464.477 55.4916L477.46 42.6252C480.441 39.6724 480.363 34.6901 477.293 31.8301C462.332 17.8886 445.102 7.58763 428.778 2.82499C415.473 -1.05621 395.335 -2.66439 385.422 9.65101C374.331 23.4067 363.076 37.0288 351.659 50.5143C345.605 57.6648 356.759 67.6643 363.088 60.1874C374.483 46.7283 385.718 33.1338 396.79 19.4069C407.921 8.96921 436.711 17.4423 461.218 37.6409L297.75 199.632C286.127 189.799 273.234 181.575 259.418 175.18C285.615 147.809 311.225 119.886 335.64 92.0435C341.817 84.9989 330.839 74.8067 324.382 82.1708C298.833 111.307 271.967 140.533 244.486 169.115C240.062 167.561 234.508 164.789 230.491 168.932C215.307 184.601 199.93 200.083 184.363 215.373C180.649 219.021 181.83 225.413 186.528 227.535C138.375 274.548 90.5247 317.573 44.1621 355.524C32.0094 365.548 17.1564 376.164 7.0212 388.267C-1.15745 397.585 -2.23257 412.344 4.01448 429.88C16.804 468.44 66.8573 512.585 104.627 511.993C111.854 511.994 122.116 510.158 126.411 503.461L156.122 467.266C187.927 429.113 221.319 391.705 255.791 355.575V468.184C255.791 475.735 266.552 478.657 270.027 471.425L298.724 411.675L316.111 423.125C321.001 426.346 327.716 422.726 327.716 416.872V298.099C333.814 292.184 339.942 286.299 346.098 280.444C347.142 279.452 347.878 278.18 348.218 276.781C348.557 275.381 348.486 273.914 348.012 272.554C347.299 270.521 346.546 268.503 345.754 266.5C390.801 224.374 437.563 184.119 485.92 145.839C493.306 140.003 496.123 128.813 496.123 119.933C496.122 100.245 484.061 75.793 464.477 55.4916ZM51.2946 369.183C99.5908 329.643 151.921 282.498 202.059 233.278C215.836 239.156 228.724 247.033 239.064 256.166L106.841 387.194C91.3034 375.811 70.5937 368.488 51.2946 369.183ZM46.7665 467.348C18.7107 439.545 9.25129 408.805 18.1577 398.286C32.3488 384.626 52.3567 381.406 71.1008 386.555L45.4997 412.156C41.903 415.75 40.179 420.73 40.3567 425.765C40.798 438.253 52.1371 453.979 75.0229 473.84C77.9129 476.348 82.4269 476.148 85.0953 473.604L104.06 455.527C115.954 474.472 114.798 488.804 113.235 495.275C103.81 500.383 73.9838 494.319 46.7665 467.348ZM56.0871 422.743C66.0307 412.8 89.1002 436.446 95.0698 443.41L79.7546 458.009C76.7789 455.29 48.3727 430.468 56.0871 422.743ZM312.742 402.978L299.802 394.457C296.068 391.998 290.87 393.439 288.936 397.469L270.766 435.302V340.032C276.133 334.511 281.53 329.019 286.954 323.554C288.889 328.482 295.497 329.82 299.202 326.123C303.699 321.637 308.212 317.166 312.741 312.711V402.978H312.742ZM296.712 307.486C294.451 302.272 291.925 297.178 289.143 292.222C284.558 284.051 271.292 291.01 276.086 299.552C277.742 302.505 279.299 305.513 280.754 308.57C233.322 356.057 187.537 406.198 144.585 457.723L128.406 477.432C124.077 449.564 99.2874 415.534 71.3144 407.517L86.407 392.425C92.113 395.213 98.1524 398.811 104.524 403.396C107.429 405.487 111.677 405.106 114.167 402.638L251.312 266.732C258.566 274.057 270.591 265.059 263.111 257.355C246.283 240.022 225.822 226.439 203.397 217.63C215.036 206.092 226.57 194.447 237.997 182.698C281.222 197.372 315.959 230.661 332.224 272.978C326.473 278.462 302.758 301.501 296.712 307.486ZM476.267 134.383C429.054 171.772 383.352 211.029 339.27 252.063C331.354 236.479 321.06 222.222 308.758 209.804L453.839 66.0331C471.832 84.5946 490.309 117.576 476.267 134.383Z" fill="black"/>
</svg>
