<svg width="424" height="463" viewBox="0 0 424 463" fill="none" xmlns="http://www.w3.org/2000/svg">
<path d="M416.442 410.646H389.761L369.872 161.788C368.491 144.399 352.147 130.779 332.557 130.779H265.911C272.481 124.327 277.229 116.253 279.673 107.375C282.118 98.4967 282.173 89.1303 279.832 80.2244C277.49 71.3185 272.837 63.1896 266.343 56.6614C259.848 50.1331 251.744 45.4375 242.85 43.0502C252.253 31.9674 270.687 15.1008 295.913 15.1008C297.892 15.1008 299.79 14.3145 301.19 12.9149C302.59 11.5153 303.376 9.61702 303.376 7.63768C303.376 5.65834 302.59 3.76006 301.19 2.36046C299.79 0.960851 297.892 0.174561 295.913 0.174561C257.179 0.174561 232.476 30.9226 225.237 41.4456C215.265 42.2681 205.738 45.9373 197.791 52.0167C189.843 58.0962 183.809 66.3303 180.405 75.7397C177.001 85.1492 176.371 95.3383 178.59 105.095C180.809 114.852 185.783 123.767 192.922 130.779H127.097C107.618 130.779 91.274 144.399 89.7814 161.788L87.7663 186.417C87.688 187.397 87.8034 188.383 88.106 189.318C88.4086 190.254 88.8925 191.12 89.5301 191.869C90.1676 192.617 90.9464 193.233 91.8219 193.68C92.6973 194.128 93.6524 194.398 94.6324 194.477C95.6125 194.555 96.5984 194.44 97.5339 194.137C98.4694 193.835 99.3361 193.351 100.085 192.713C100.833 192.076 101.449 191.297 101.896 190.421C102.344 189.546 102.614 188.591 102.693 187.611L104.708 162.982C105.491 153.28 115.305 145.705 127.097 145.705H332.631C344.423 145.705 354.237 153.168 355.021 162.982L361.476 243.547H360.767C352.629 243.547 344.823 246.777 339.065 252.529C333.306 258.28 330.066 266.082 330.056 274.22V279.78C330.056 282.819 328.849 285.732 326.701 287.881C324.553 290.029 321.639 291.236 318.601 291.236C315.562 291.236 312.648 290.029 310.5 287.881C308.352 285.732 307.145 282.819 307.145 279.78V274.22C307.135 266.082 303.895 258.28 298.137 252.529C292.378 246.777 284.572 243.547 276.434 243.547H275.016C266.877 243.547 259.072 246.777 253.313 252.529C247.555 258.28 244.315 266.082 244.305 274.22V332.022C244.328 334.045 243.802 336.036 242.784 337.784C241.765 339.531 240.292 340.97 238.521 341.948C237.045 342.724 235.872 343.973 235.189 345.494C234.505 347.015 234.351 348.721 234.75 350.34C235.15 351.959 236.08 353.398 237.392 354.427C238.705 355.455 240.324 356.015 241.992 356.016C243.202 356.025 244.395 355.729 245.462 355.158C247.681 353.979 249.707 352.469 251.47 350.68C253.938 348.241 255.895 345.335 257.228 342.132C258.561 338.928 259.242 335.492 259.231 332.022V274.22C259.241 270.04 260.909 266.035 263.868 263.083C266.827 260.131 270.836 258.473 275.016 258.473H276.397C280.576 258.473 284.586 260.131 287.545 263.083C290.504 266.035 292.171 270.04 292.181 274.22V279.78C292.181 286.777 294.961 293.488 299.908 298.435C304.856 303.383 311.566 306.162 318.563 306.162C325.56 306.162 332.271 303.383 337.218 298.435C342.166 293.488 344.945 286.777 344.945 279.78V274.22C344.955 270.04 346.623 266.035 349.582 263.083C352.541 260.131 356.55 258.473 360.73 258.473H362.633L374.798 410.646H226.879C224.9 410.646 223.001 411.432 221.602 412.832C220.202 414.231 219.416 416.13 219.416 418.109C219.416 420.088 220.202 421.987 221.602 423.386C223.001 424.786 224.9 425.572 226.879 425.572H407.934C406.421 431.898 402.838 437.536 397.754 441.593C392.67 445.649 386.376 447.891 379.873 447.962H206.318C207.342 445.864 208.046 443.625 208.408 441.319L225.909 333.403C232.447 322.054 235.883 309.184 235.872 296.087C235.909 257.913 208.221 226.979 171.988 224.068C165.695 215.658 157.528 208.831 148.135 204.128C138.743 199.425 128.384 196.977 117.88 196.977C107.376 196.977 97.0169 199.425 87.6246 204.128C78.2323 208.831 70.0655 215.658 63.7724 224.068C27.7629 226.979 0.000106529 257.913 0.000106529 296.087C-0.0220141 309.181 3.40121 322.05 9.92605 333.403L27.4271 441.319C28.7207 447.642 32.2352 453.293 37.3345 457.25C42.4338 461.206 48.781 463.206 55.2272 462.888H379.873C391.627 462.76 402.85 457.972 411.078 449.577C419.306 441.181 423.865 429.864 423.756 418.109C423.756 416.155 422.99 414.279 421.623 412.884C420.255 411.489 418.395 410.685 416.442 410.646ZM192.101 93.4635C192.101 86.0832 194.289 78.8686 198.39 72.7321C202.49 66.5956 208.318 61.8127 215.136 58.9884C221.955 56.1641 229.458 55.4251 236.696 56.8649C243.935 58.3048 250.584 61.8587 255.802 67.0774C261.021 72.2961 264.575 78.9451 266.015 86.1836C267.455 93.4221 266.716 100.925 263.891 107.744C261.067 114.562 256.284 120.39 250.148 124.49C244.011 128.591 236.797 130.779 229.416 130.779C219.52 130.779 210.028 126.848 203.03 119.85C196.032 112.852 192.101 103.36 192.101 93.4635ZM67.9891 238.77C68.6349 238.738 69.2742 238.625 69.8922 238.435H70.4519C77.0597 238.537 83.5757 239.998 89.5948 242.726C90.5603 243.193 91.6193 243.436 92.692 243.435C94.4031 243.453 96.0684 242.882 97.4089 241.819C98.7494 240.755 99.6838 239.263 100.055 237.593C100.427 235.923 100.213 234.176 99.4504 232.644C98.6873 231.112 97.4211 229.89 95.8638 229.18C91.8576 227.337 87.6673 225.924 83.3631 224.964C92.8794 216.477 105.185 211.787 117.936 211.787C130.687 211.787 142.993 216.477 152.509 224.964C148.193 225.924 143.99 227.337 139.971 229.18C138.417 229.888 137.152 231.108 136.389 232.636C135.626 234.163 135.409 235.907 135.776 237.575C136.143 239.243 137.07 240.734 138.404 241.801C139.738 242.867 141.398 243.444 143.105 243.435C144.19 243.436 145.261 243.194 146.24 242.726C152.24 239.972 158.744 238.485 165.345 238.36H165.98C166.598 238.55 167.237 238.663 167.883 238.696C197.735 239.517 220.983 264.817 220.983 296.013C220.982 305.614 218.665 315.073 214.229 323.589H21.6431C17.2201 315.07 14.9161 305.611 14.9263 296.013C14.9263 264.742 38.2486 239.591 67.9891 238.77ZM167.547 447.962L180.57 351.65C180.832 349.671 180.298 347.668 179.084 346.083C177.869 344.498 176.075 343.46 174.096 343.198C172.117 342.936 170.114 343.471 168.529 344.685C166.944 345.899 165.906 347.693 165.644 349.672L152.509 447.962H125.38V349.896C125.38 347.917 124.594 346.019 123.195 344.619C121.795 343.219 119.897 342.433 117.917 342.433C115.938 342.433 114.04 343.219 112.64 344.619C111.241 346.019 110.454 347.917 110.454 349.896V447.962H83.3631L70.1534 349.672C70.0235 348.692 69.7019 347.747 69.2069 346.892C68.7119 346.036 68.0531 345.286 67.2683 344.685C66.4834 344.084 65.5879 343.643 64.6327 343.388C63.6775 343.133 62.6815 343.068 61.7014 343.198C60.7214 343.328 59.7765 343.65 58.9207 344.145C58.0649 344.64 57.315 345.298 56.7138 346.083C56.1126 346.868 55.6719 347.764 55.4168 348.719C55.1618 349.674 55.0973 350.67 55.2272 351.65L68.3249 447.962H55.2272C52.3534 448.184 49.4909 447.407 47.1245 445.761C44.758 444.116 43.0329 441.703 42.2413 438.931L25.8971 338.59H209.975L193.668 438.931C192.89 441.704 191.174 444.12 188.812 445.767C186.45 447.414 183.59 448.19 180.719 447.962H167.547Z" fill="black"/>
</svg>
