<svg width="200" height="200" viewBox="0 0 200 200" fill="none" xmlns="http://www.w3.org/2000/svg">
<path d="M162.907 0C172.614 0 181.75 3.78837 188.631 10.6729C195.515 17.5573 199.303 26.6928 199.307 36.3965V120.736C199.306 140.802 182.979 157.129 162.91 157.129H106.049L68.2246 194.749C65.31 197.759 61.4768 199.352 57.5039 199.352C55.5747 199.355 53.6101 198.976 51.7031 198.207C45.8233 195.826 42.172 190.379 42.1719 183.99V157.129H36.3965C16.328 157.129 0.000223493 140.802 0 120.736V36.3965C0 16.3279 16.3279 0 36.3965 0H162.907ZM36.3965 9.53516C21.585 9.53516 9.53516 21.585 9.53516 36.3965V120.736C9.53538 135.544 21.5851 147.594 36.3965 147.594H46.9395C49.5742 147.594 51.707 149.73 51.707 152.361V183.99C51.7072 187.632 54.4428 189.027 55.2822 189.364C56.1054 189.701 58.9787 190.585 61.4355 188.049L100.715 148.982C101.608 148.092 102.819 147.594 104.078 147.594H162.907C177.719 147.594 189.768 135.544 189.769 120.736V36.3965C189.769 29.2387 186.971 22.5005 181.889 17.415C176.806 12.3327 170.065 9.53516 162.907 9.53516H36.3965Z" fill="black"/>
<path d="M162.907 0C172.614 0 181.75 3.78837 188.631 10.6729C195.515 17.5573 199.303 26.6928 199.307 36.3965V120.736C199.306 140.802 182.979 157.129 162.91 157.129H106.049L68.2246 194.749C65.31 197.759 61.4768 199.352 57.5039 199.352C55.5747 199.355 53.6101 198.976 51.7031 198.207C45.8233 195.826 42.172 190.379 42.1719 183.99V157.129H36.3965C16.328 157.129 0.000223493 140.802 0 120.736V36.3965C0 16.3279 16.3279 0 36.3965 0H162.907ZM36.3965 9.53516C21.585 9.53516 9.53516 21.585 9.53516 36.3965V120.736C9.53538 135.544 21.5851 147.594 36.3965 147.594H46.9395C49.5742 147.594 51.707 149.73 51.707 152.361V183.99C51.7072 187.632 54.4428 189.027 55.2822 189.364C56.1054 189.701 58.9787 190.585 61.4355 188.049L100.715 148.982C101.608 148.092 102.819 147.594 104.078 147.594H162.907C177.719 147.594 189.768 135.544 189.769 120.736V36.3965C189.769 29.2387 186.971 22.5005 181.889 17.415C176.806 12.3327 170.065 9.53516 162.907 9.53516H36.3965Z" stroke="white"/>
<path d="M98.0771 94.6309C100.83 94.6309 103.128 96.9259 103.128 99.6816C103.128 102.37 100.896 104.731 98.0771 104.731C95.2582 104.731 93.0939 102.37 93.0938 99.6816C93.0938 96.9261 95.3248 94.6311 98.0771 94.6309Z" fill="black"/>
<path d="M98.0771 94.6309C100.83 94.6309 103.128 96.9259 103.128 99.6816C103.128 102.37 100.896 104.731 98.0771 104.731C95.2582 104.731 93.0939 102.37 93.0938 99.6816C93.0938 96.9261 95.3248 94.6311 98.0771 94.6309Z" stroke="white"/>
<path d="M99.0508 52.3994C108.672 52.3995 115.06 57.7364 115.057 64.7988C115.056 71.8643 108.668 76.975 106.641 78.5547C102.509 81.7872 102.433 84.0407 102.433 87.9502C102.433 89.3805 101.682 91.0332 97.998 91.0332C94.9154 91.0331 93.8634 89.908 93.8633 85.999C93.8633 79.5341 96.721 76.4507 98.9014 74.5723C101.381 72.4682 105.589 70.1379 105.589 66.0791C105.589 62.6213 102.582 60.9689 98.8252 60.9688C91.1588 60.9688 92.8108 66.7568 88.752 66.7568C86.721 66.7566 84.2422 65.402 84.2422 62.4717C84.2423 58.4128 88.9054 52.3994 99.0508 52.3994Z" fill="black"/>
<path d="M99.0508 52.3994C108.672 52.3995 115.06 57.7364 115.057 64.7988C115.056 71.8643 108.668 76.975 106.641 78.5547C102.509 81.7872 102.433 84.0407 102.433 87.9502C102.433 89.3805 101.682 91.0332 97.998 91.0332C94.9154 91.0331 93.8634 89.908 93.8633 85.999C93.8633 79.5341 96.721 76.4507 98.9014 74.5723C101.381 72.4682 105.589 70.1379 105.589 66.0791C105.589 62.6213 102.582 60.9689 98.8252 60.9688C91.1588 60.9688 92.8108 66.7568 88.752 66.7568C86.721 66.7566 84.2422 65.402 84.2422 62.4717C84.2423 58.4128 88.9054 52.3994 99.0508 52.3994Z" stroke="white"/>
<path d="M99.6543 24.394C129.522 24.394 153.824 48.6963 153.824 78.564C153.824 108.432 129.522 132.734 99.6543 132.734C69.7866 132.734 45.4844 108.432 45.4844 78.564C45.4844 48.6963 69.7866 24.3941 99.6543 24.394ZM99.6543 33.9292C75.0438 33.9292 55.0196 53.9534 55.0195 78.564C55.0195 103.175 75.0437 123.199 99.6543 123.199C124.265 123.199 144.289 103.175 144.289 78.564C144.289 53.9534 124.265 33.9292 99.6543 33.9292Z" fill="black"/>
<path d="M99.6543 24.394C129.522 24.394 153.824 48.6963 153.824 78.564C153.824 108.432 129.522 132.734 99.6543 132.734C69.7866 132.734 45.4844 108.432 45.4844 78.564C45.4844 48.6963 69.7866 24.3941 99.6543 24.394ZM99.6543 33.9292C75.0438 33.9292 55.0196 53.9534 55.0195 78.564C55.0195 103.175 75.0437 123.199 99.6543 123.199C124.265 123.199 144.289 103.175 144.289 78.564C144.289 53.9534 124.265 33.9292 99.6543 33.9292Z" stroke="white"/>
</svg>
