<svg width="246" height="246" viewBox="0 0 246 246" fill="none" xmlns="http://www.w3.org/2000/svg">
<path d="M213.412 156.336C215.282 156.767 218.112 155.665 218.831 154.322C219.167 153.651 219.358 148.281 219.358 138.739V124.115L222.379 121.478C230.961 113.902 238.154 102.874 241.894 91.5586C244.722 82.8804 245.393 77.6538 245.105 67.5371C244.818 58.2356 244.243 54.7834 241.605 46.8242C234.989 26.9262 218.16 10.0963 198.262 3.47949C188.816 0.362951 187.521 0.171173 170.932 0.0273438C159.616 -0.0685565 154.869 0.0752256 151.992 0.554688C130.128 4.39042 111.717 17.72 101.408 37.2822C98.9149 42.077 96.2291 49.6055 94.9346 55.4551C93.8798 60.2502 93.4488 73.8188 94.168 79.0449C98.3395 108.484 119.964 131.547 149.403 138.02C154.006 139.026 155.541 139.123 169.493 139.123C182.438 139.123 185.22 138.979 188.815 138.212L193.035 137.349L202.48 146.698C209.432 153.554 212.309 156.096 213.412 156.336ZM203.68 133.513C200.275 130.156 196.918 127.184 196.199 126.896C195.096 126.513 193.754 126.704 189.487 127.711C184.261 129.006 183.733 129.054 169.973 129.054C154.534 129.054 151.848 128.718 143.841 125.985C123.607 118.937 108.216 100.86 104.524 79.7158C103.613 74.3457 103.613 64.948 104.524 59.6738C107.114 44.7623 114.881 31.6723 126.58 22.6104C136.841 14.6992 147.246 10.7677 161.103 9.71289C165.946 9.32938 181.336 9.90493 185.315 10.5762C207.994 14.5558 226.071 30.474 232.735 52.3379C236.283 63.7972 235.995 77.9895 232.016 89.1611C228.276 99.6616 222.57 107.669 212.789 116.396L209.769 119.033V139.603L203.68 133.513Z" fill="black"/>
<path d="M213.412 156.336C215.282 156.767 218.112 155.665 218.831 154.322C219.167 153.651 219.358 148.281 219.358 138.739V124.115L222.379 121.478C230.961 113.902 238.154 102.874 241.894 91.5586C244.722 82.8804 245.393 77.6538 245.105 67.5371C244.818 58.2356 244.243 54.7834 241.605 46.8242C234.989 26.9262 218.16 10.0963 198.262 3.47949C188.816 0.362951 187.521 0.171173 170.932 0.0273438C159.616 -0.0685565 154.869 0.0752256 151.992 0.554688C130.128 4.39042 111.717 17.72 101.408 37.2822C98.9149 42.077 96.2291 49.6055 94.9346 55.4551C93.8798 60.2502 93.4488 73.8188 94.168 79.0449C98.3395 108.484 119.964 131.547 149.403 138.02C154.006 139.026 155.541 139.123 169.493 139.123C182.438 139.123 185.22 138.979 188.815 138.212L193.035 137.349L202.48 146.698C209.432 153.554 212.309 156.096 213.412 156.336ZM203.68 133.513C200.275 130.156 196.918 127.184 196.199 126.896C195.096 126.513 193.754 126.704 189.487 127.711C184.261 129.006 183.733 129.054 169.973 129.054C154.534 129.054 151.848 128.718 143.841 125.985C123.607 118.937 108.216 100.86 104.524 79.7158C103.613 74.3457 103.613 64.948 104.524 59.6738C107.114 44.7623 114.881 31.6723 126.58 22.6104C136.841 14.6992 147.246 10.7677 161.103 9.71289C165.946 9.32938 181.336 9.90493 185.315 10.5762C207.994 14.5558 226.071 30.474 232.735 52.3379C236.283 63.7972 235.995 77.9895 232.016 89.1611C228.276 99.6616 222.57 107.669 212.789 116.396L209.769 119.033V139.603L203.68 133.513Z" stroke="white"/>
<path d="M167.477 88.1069C169.634 90.0728 172.367 90.0728 174.333 88.1069L175.724 86.7163V73.771L177.45 73.1958C184.834 70.7504 190.251 63.8939 191.019 56.0308C192.025 45.8181 186.464 37.235 177.019 34.2622C173.758 33.2553 167.812 33.1598 164.936 34.0708C157.552 36.4202 152.038 42.6057 150.743 50.0854C149.736 55.6468 151.366 58.5715 155.394 58.5718C158.318 58.5718 159.758 57.0371 160.381 53.3931C161.34 47.3999 164.84 43.8996 170.162 43.564C174.142 43.3243 177.115 44.7626 179.416 48.0708C183.444 53.7286 180.614 61.0653 173.422 63.7983C169.251 65.4284 168.292 66.0993 166.949 68.5444C165.99 70.4144 165.895 71.1819 165.895 78.6138V86.7163L167.477 88.1069Z" fill="black"/>
<path d="M167.477 88.1069C169.634 90.0728 172.367 90.0728 174.333 88.1069L175.724 86.7163V73.771L177.45 73.1958C184.834 70.7504 190.251 63.8939 191.019 56.0308C192.025 45.8181 186.464 37.235 177.019 34.2622C173.758 33.2553 167.812 33.1598 164.936 34.0708C157.552 36.4202 152.038 42.6057 150.743 50.0854C149.736 55.6468 151.366 58.5715 155.394 58.5718C158.318 58.5718 159.758 57.0371 160.381 53.3931C161.34 47.3999 164.84 43.8996 170.162 43.564C174.142 43.3243 177.115 44.7626 179.416 48.0708C183.444 53.7286 180.614 61.0653 173.422 63.7983C169.251 65.4284 168.292 66.0993 166.949 68.5444C165.99 70.4144 165.895 71.1819 165.895 78.6138V86.7163L167.477 88.1069Z" stroke="white"/>
<path d="M168.82 108.005C172.272 109.444 175.724 107.286 175.725 103.69C175.677 99.3267 170.93 97.0252 167.67 99.8062C164.889 102.156 165.464 106.615 168.82 108.005Z" fill="black"/>
<path d="M168.82 108.005C172.272 109.444 175.724 107.286 175.725 103.69C175.677 99.3267 170.93 97.0252 167.67 99.8062C164.889 102.156 165.464 106.615 168.82 108.005Z" stroke="white"/>
<path d="M84.9629 245.326C89.5175 245.326 90.2851 243.264 90.333 231.086L90.3809 224.277L117.375 224.134L144.321 223.989L147.821 222.695C153.287 220.682 156.452 218.62 160.671 214.448C164.842 210.229 166.904 207.064 168.918 201.599L170.165 198.098L170.356 176.714L170.5 155.377L169.206 154.083C167.432 152.261 163.931 152.26 162.157 153.986L160.959 155.233L160.768 174.987C160.576 193.399 160.479 194.934 159.568 197.379C157.842 202.03 156.596 204.092 153.432 207.208C150.315 210.325 148.3 211.62 143.602 213.346C141.061 214.304 139.908 214.352 111.957 214.544L82.9492 214.688L81.6543 215.982C80.3597 217.181 80.3115 217.325 80.3115 222.743V228.257L73.5029 221.496L66.6465 214.735L47.9473 214.544C27.6661 214.304 27.7613 214.305 21.8643 211.332C19.1313 209.894 14.0009 204.715 12.5625 201.838C9.39799 195.557 9.58984 198.386 9.58984 153.747C9.58984 109.109 9.39809 111.937 12.5625 105.656C14.0009 102.779 19.1313 97.6005 21.8643 96.1621C28.0491 93.0457 26.5635 93.142 56.6738 92.9502L84.0996 92.8057L85.2979 91.5596C87.0719 89.7855 87.0719 86.3327 85.2979 84.5107L84.0039 83.2646L55.9062 83.3125C32.9895 83.3125 27.3308 83.456 25.2207 84.0312C13.5216 87.1478 4.9862 95.1552 1.15039 106.519L0 109.875V197.619L1.15039 200.975C2.97236 206.488 5.32178 210.229 9.54102 214.448C13.7604 218.62 16.9256 220.682 22.3916 222.695L25.8916 223.941L43.6318 224.134L61.3721 224.277L71.9688 234.826L82.5654 245.326H84.9629Z" fill="black"/>
<path d="M84.9629 245.326C89.5175 245.326 90.2851 243.264 90.333 231.086L90.3809 224.277L117.375 224.134L144.321 223.989L147.821 222.695C153.287 220.682 156.452 218.62 160.671 214.448C164.842 210.229 166.904 207.064 168.918 201.599L170.165 198.098L170.356 176.714L170.5 155.377L169.206 154.083C167.432 152.261 163.931 152.26 162.157 153.986L160.959 155.233L160.768 174.987C160.576 193.399 160.479 194.934 159.568 197.379C157.842 202.03 156.596 204.092 153.432 207.208C150.315 210.325 148.3 211.62 143.602 213.346C141.061 214.304 139.908 214.352 111.957 214.544L82.9492 214.688L81.6543 215.982C80.3597 217.181 80.3115 217.325 80.3115 222.743V228.257L73.5029 221.496L66.6465 214.735L47.9473 214.544C27.6661 214.304 27.7613 214.305 21.8643 211.332C19.1313 209.894 14.0009 204.715 12.5625 201.838C9.39799 195.557 9.58984 198.386 9.58984 153.747C9.58984 109.109 9.39809 111.937 12.5625 105.656C14.0009 102.779 19.1313 97.6005 21.8643 96.1621C28.0491 93.0457 26.5635 93.142 56.6738 92.9502L84.0996 92.8057L85.2979 91.5596C87.0719 89.7855 87.0719 86.3327 85.2979 84.5107L84.0039 83.2646L55.9062 83.3125C32.9895 83.3125 27.3308 83.456 25.2207 84.0312C13.5216 87.1478 4.9862 95.1552 1.15039 106.519L0 109.875V197.619L1.15039 200.975C2.97236 206.488 5.32178 210.229 9.54102 214.448C13.7604 218.62 16.9256 220.682 22.3916 222.695L25.8916 223.941L43.6318 224.134L61.3721 224.277L71.9688 234.826L82.5654 245.326H84.9629Z" stroke="white"/>
<path d="M104.002 129.965C105.009 128.958 105.249 128.239 105.249 126.417C105.249 124.595 105.009 123.876 104.002 122.869L102.707 121.622H28.1973L26.9033 122.869C25.8965 123.876 25.6563 124.595 25.6562 126.417C25.6562 128.239 25.8964 128.958 26.9033 129.965L28.1973 131.212H102.707L104.002 129.965Z" fill="black"/>
<path d="M104.002 129.965C105.009 128.958 105.249 128.239 105.249 126.417C105.249 124.595 105.009 123.876 104.002 122.869L102.707 121.622H28.1973L26.9033 122.869C25.8965 123.876 25.6563 124.595 25.6562 126.417C25.6562 128.239 25.8964 128.958 26.9033 129.965L28.1973 131.212H102.707L104.002 129.965Z" stroke="white"/>
<path d="M135.168 156.815C136.942 154.993 136.942 151.541 135.168 149.719L133.873 148.472H28.1973L26.9033 149.719C25.8965 150.726 25.6563 151.445 25.6562 153.267C25.6562 155.089 25.8964 155.808 26.9033 156.815L28.1973 158.062H133.873L135.168 156.815Z" fill="black"/>
<path d="M135.168 156.815C136.942 154.993 136.942 151.541 135.168 149.719L133.873 148.472H28.1973L26.9033 149.719C25.8965 150.726 25.6563 151.445 25.6562 153.267C25.6562 155.089 25.8964 155.808 26.9033 156.815L28.1973 158.062H133.873L135.168 156.815Z" stroke="white"/>
<path d="M116.324 183.522C117.427 182.419 117.715 181.7 117.715 180.118C117.715 178.536 117.427 177.816 116.324 176.713L114.934 175.323H28.1973L26.9033 176.57C25.8965 177.577 25.6563 178.296 25.6562 180.118C25.6562 181.94 25.8964 182.659 26.9033 183.666L28.1973 184.913H114.934L116.324 183.522Z" fill="black"/>
<path d="M116.324 183.522C117.427 182.419 117.715 181.7 117.715 180.118C117.715 178.536 117.427 177.816 116.324 176.713L114.934 175.323H28.1973L26.9033 176.57C25.8965 177.577 25.6563 178.296 25.6562 180.118C25.6562 181.94 25.8964 182.659 26.9033 183.666L28.1973 184.913H114.934L116.324 183.522Z" stroke="white"/>
<path d="M131.615 184.913C133.437 184.913 134.156 184.672 135.163 183.666C136.17 182.659 136.41 181.94 136.41 180.118C136.41 178.296 136.17 177.577 135.163 176.57C134.156 175.563 133.437 175.323 131.615 175.323C129.793 175.323 129.074 175.563 128.067 176.57C127.061 177.577 126.82 178.296 126.82 180.118C126.82 181.94 127.06 182.659 128.067 183.666C129.074 184.672 129.793 184.913 131.615 184.913Z" fill="black"/>
<path d="M131.615 184.913C133.437 184.913 134.156 184.672 135.163 183.666C136.17 182.659 136.41 181.94 136.41 180.118C136.41 178.296 136.17 177.577 135.163 176.57C134.156 175.563 133.437 175.323 131.615 175.323C129.793 175.323 129.074 175.563 128.067 176.57C127.061 177.577 126.82 178.296 126.82 180.118C126.82 181.94 127.06 182.659 128.067 183.666C129.074 184.672 129.793 184.913 131.615 184.913Z" stroke="white"/>
</svg>
