<svg width="490" height="477" viewBox="0 0 490 477" fill="none" xmlns="http://www.w3.org/2000/svg">
<path d="M245 476.893L175.453 407.347H102.493C75.5223 407.29 49.672 396.551 30.6005 377.48C11.529 358.408 0.789765 332.558 0.733398 305.587V102.067C0.733339 75.0585 11.4476 49.1535 30.5252 30.0359C49.6028 10.9183 75.4854 0.149764 102.493 0.0932617H387.507C414.515 0.149764 440.397 10.9183 459.475 30.0359C478.553 49.1535 489.267 75.0585 489.267 102.067V305.587C489.21 332.558 478.471 358.408 459.4 377.48C440.328 396.551 414.478 407.29 387.507 407.347H314.547L245 476.893ZM102.493 40.8399C86.2724 40.8962 70.7318 47.3649 59.2617 58.8349C47.7917 70.305 41.323 85.8456 41.2667 102.067V305.587C41.323 321.808 47.7917 337.348 59.2617 348.818C70.7318 360.288 86.2724 366.757 102.493 366.813H192.307L245 419.293L297.693 366.813H387.507C403.728 366.757 419.268 360.288 430.738 348.818C442.209 337.348 448.677 321.808 448.733 305.587V102.067C448.677 85.8456 442.209 70.305 430.738 58.8349C419.268 47.3649 403.728 40.8962 387.507 40.8399H102.493Z" fill="black"/>
<path d="M266.333 245H225.8V220.68C225.882 204.687 232.241 189.365 243.507 178.013L259.293 159.667C261.3 158.006 262.956 155.962 264.165 153.654C265.373 151.347 266.111 148.822 266.333 146.227V142.6C266.333 136.942 264.086 131.516 260.085 127.515C256.084 123.514 250.658 121.267 245 121.267C239.342 121.267 233.916 123.514 229.915 127.515C225.914 131.516 223.667 136.942 223.667 142.6H183.987C183.987 134.588 185.565 126.654 188.631 119.251C191.697 111.849 196.192 105.123 201.857 99.4571C207.523 93.7915 214.249 89.2972 221.651 86.231C229.054 83.1648 236.988 81.5867 245 81.5867C253.013 81.5867 260.946 83.1648 268.349 86.231C275.751 89.2972 282.477 93.7915 288.143 99.4571C293.809 105.123 298.303 111.849 301.369 119.251C304.435 126.654 306.013 134.588 306.013 142.6V146.227C306.015 154.173 304.43 162.04 301.353 169.366C298.276 176.692 293.768 183.331 288.093 188.893L271.453 205.747C269.475 207.605 267.904 209.854 266.839 212.351C265.774 214.848 265.239 217.539 265.267 220.253L266.333 245ZM224.733 264.84H265.48V305.587H224.733V264.84Z" fill="black"/>
</svg>
