<svg width="464" height="335" viewBox="0 0 464 335" fill="none" xmlns="http://www.w3.org/2000/svg">
<path d="M432.8 92.5601H291.2V31.5601C291.191 23.3413 287.921 15.4618 282.11 9.65028C276.298 3.83871 268.419 0.569586 260.2 0.560059H31.0801C22.8613 0.569586 14.9819 3.83871 9.17029 9.65028C3.35873 15.4618 0.0896059 23.3413 0.0800781 31.5601V173.36C0.0896059 181.579 3.35873 189.458 9.17029 195.27C14.9819 201.081 22.8613 204.351 31.0801 204.36H54.6401V223C54.6176 226.772 55.6839 230.47 57.711 233.651C59.738 236.831 62.6398 239.36 66.0681 240.932C68.6967 242.167 71.564 242.81 74.4681 242.816C79.1124 242.807 83.6034 241.154 87.1441 238.148L127.388 204.36H172.68V265.36C172.69 273.579 175.959 281.458 181.77 287.27C187.582 293.081 195.461 296.351 203.68 296.36H336.48L376.684 330.156C380.226 333.168 384.722 334.825 389.372 334.832C392.276 334.826 395.143 334.185 397.772 332.952C401.205 331.379 404.112 328.848 406.142 325.664C408.173 322.479 409.242 318.777 409.22 315V296.36H432.78C440.999 296.351 448.878 293.081 454.69 287.27C460.501 281.458 463.771 273.579 463.78 265.36V123.56C463.772 115.344 460.506 107.467 454.698 101.656C448.891 95.8449 441.016 92.5738 432.8 92.5601ZM124.84 190.36C123.193 190.36 121.598 190.941 120.336 192L78.1481 227.432C77.3042 228.14 76.2758 228.592 75.1837 228.736C74.0916 228.88 72.9811 228.709 71.9827 228.244C70.9843 227.778 70.1395 227.038 69.5474 226.109C68.9553 225.18 68.6405 224.102 68.6401 223V197.36C68.6401 195.504 67.9026 193.723 66.5898 192.41C65.2771 191.098 63.4966 190.36 61.6401 190.36H31.0801C26.573 190.355 22.2521 188.562 19.0651 185.375C15.8781 182.188 14.0854 177.867 14.0801 173.36V31.5601C14.0854 27.053 15.8781 22.7321 19.0651 19.5451C22.2521 16.3581 26.573 14.5654 31.0801 14.5601H260.2C264.707 14.5654 269.028 16.3581 272.215 19.5451C275.402 22.7321 277.195 27.053 277.2 31.5601V173.36C277.195 177.867 275.402 182.188 272.215 185.375C269.028 188.562 264.707 190.355 260.2 190.36H124.84ZM449.8 265.36C449.795 269.867 448.002 274.188 444.815 277.375C441.628 280.562 437.307 282.355 432.8 282.36H402.24C400.384 282.36 398.603 283.098 397.29 284.41C395.978 285.723 395.24 287.504 395.24 289.36V315C395.239 316.105 394.923 317.186 394.329 318.117C393.735 319.048 392.887 319.79 391.886 320.257C390.885 320.723 389.771 320.894 388.676 320.749C387.581 320.604 386.55 320.15 385.704 319.44L343.544 284C342.282 282.941 340.688 282.36 339.04 282.36H203.68C199.173 282.355 194.852 280.562 191.665 277.375C188.478 274.188 186.685 269.867 186.68 265.36V204.36H260.2C268.419 204.351 276.298 201.081 282.11 195.27C287.921 189.458 291.191 181.579 291.2 173.36V106.56H432.8C437.307 106.565 441.628 108.358 444.815 111.545C448.002 114.732 449.795 119.053 449.8 123.56V265.36Z" fill="black"/>
<path d="M404.4 139.148H328.048C326.192 139.148 324.411 139.885 323.098 141.198C321.786 142.511 321.048 144.291 321.048 146.148C321.048 148.004 321.786 149.785 323.098 151.098C324.411 152.41 326.192 153.148 328.048 153.148H404.4C406.257 153.148 408.037 152.41 409.35 151.098C410.663 149.785 411.4 148.004 411.4 146.148C411.4 144.291 410.663 142.511 409.35 141.198C408.037 139.885 406.257 139.148 404.4 139.148ZM404.4 188.012H328.048C326.192 188.012 324.411 188.749 323.098 190.062C321.786 191.375 321.048 193.155 321.048 195.012C321.048 196.868 321.786 198.649 323.098 199.962C324.411 201.274 326.192 202.012 328.048 202.012H404.4C406.257 202.012 408.037 201.274 409.35 199.962C410.663 198.649 411.4 196.868 411.4 195.012C411.4 193.155 410.663 191.375 409.35 190.062C408.037 188.749 406.257 188.012 404.4 188.012ZM404.4 236.876H232.048C230.192 236.876 228.411 237.613 227.098 238.926C225.786 240.239 225.048 242.019 225.048 243.876C225.048 245.732 225.786 247.513 227.098 248.826C228.411 250.138 230.192 250.876 232.048 250.876H404.4C406.257 250.876 408.037 250.138 409.35 248.826C410.663 247.513 411.4 245.732 411.4 243.876C411.4 242.019 410.663 240.239 409.35 238.926C408.037 237.613 406.257 236.876 404.4 236.876ZM146.116 39.82C141.653 39.7574 137.222 40.5823 133.081 42.2468C128.94 43.9113 125.17 46.3821 121.992 49.5157C118.814 52.6493 116.29 56.3833 114.567 60.5006C112.844 64.618 111.957 69.0367 111.956 73.5C111.956 75.3565 112.694 77.1369 114.006 78.4497C115.319 79.7625 117.1 80.5 118.956 80.5C120.813 80.5 122.593 79.7625 123.906 78.4497C125.219 77.1369 125.956 75.3565 125.956 73.5C125.951 70.8933 126.467 68.312 127.474 65.9078C128.481 63.5036 129.959 61.3249 131.82 59.5C133.657 57.6404 135.856 56.1781 138.282 55.2038C140.707 54.2295 143.307 53.7639 145.92 53.8359C151.013 54.0009 155.852 56.0978 159.455 59.7009C163.058 63.3039 165.155 68.1431 165.32 73.2359C165.383 76.913 164.411 80.5336 162.514 83.6841C160.617 86.8346 157.872 89.3878 154.592 91.052C149.876 93.3509 145.889 96.9114 143.073 101.338C140.257 105.765 138.723 110.886 138.64 116.132V130.104C138.64 131.96 139.378 133.741 140.69 135.054C142.003 136.366 143.784 137.104 145.64 137.104C147.497 137.104 149.277 136.366 150.59 135.054C151.903 133.741 152.64 131.96 152.64 130.104V116.116C152.729 113.449 153.555 110.859 155.024 108.631C156.494 106.404 158.551 104.627 160.968 103.496C166.579 100.652 171.276 96.2856 174.522 90.8966C177.768 85.5077 179.43 79.3138 179.32 73.024C179.138 64.2747 175.582 55.9344 169.394 49.7464C163.206 43.5584 154.865 40.0018 146.116 39.82Z" fill="black"/>
<path d="M145.64 162.636C149.506 162.636 152.64 159.502 152.64 155.636C152.64 151.77 149.506 148.636 145.64 148.636C141.774 148.636 138.64 151.77 138.64 155.636C138.64 159.502 141.774 162.636 145.64 162.636Z" fill="black"/>
</svg>
