<svg width="246" height="246" viewBox="0 0 246 246" fill="none" xmlns="http://www.w3.org/2000/svg">
<path d="M213.412 156.337C215.282 156.768 218.112 155.666 218.831 154.323C219.167 153.652 219.358 148.282 219.358 138.74V124.116L222.379 121.479C230.961 113.903 238.154 102.875 241.894 91.5593C244.722 82.8811 245.393 77.6545 245.105 67.5378C244.818 58.2363 244.243 54.7841 241.605 46.8249C234.989 26.9269 218.16 10.097 198.262 3.4802C188.816 0.36366 187.521 0.171882 170.932 0.0280525C159.616 -0.0678478 154.869 0.0759342 151.992 0.555397C130.128 4.39113 111.717 17.7207 101.408 37.2829C98.9148 42.0777 96.229 49.6062 94.9345 55.4558C93.8797 60.2509 93.4487 73.8195 94.1679 79.0456C98.3394 108.485 119.964 131.548 149.403 138.021C154.006 139.027 155.541 139.124 169.493 139.124C182.438 139.124 185.22 138.98 188.815 138.213L193.035 137.35L202.48 146.699C209.432 153.555 212.309 156.097 213.412 156.337ZM203.68 133.514C200.275 130.157 196.918 127.185 196.199 126.897C195.096 126.514 193.754 126.705 189.487 127.712C184.261 129.007 183.733 129.055 169.973 129.055C154.534 129.055 151.848 128.719 143.841 125.986C123.607 118.938 108.216 100.861 104.524 79.7165C103.613 74.3464 103.613 64.9487 104.524 59.6745C107.114 44.763 114.881 31.673 126.58 22.6111C136.841 14.6999 147.246 10.7684 161.103 9.7136C165.946 9.33009 181.336 9.90564 185.315 10.5769C207.994 14.5565 226.071 30.4747 232.735 52.3386C236.283 63.7979 235.995 77.9902 232.016 89.1618C228.276 99.6623 222.57 107.67 212.789 116.397L209.769 119.034V139.604L203.68 133.514Z" fill="black"/>
<path d="M167.477 88.1075C169.634 90.0734 172.367 90.0734 174.333 88.1075L175.724 86.7169V73.7716L177.45 73.1964C184.834 70.751 190.251 63.8945 191.019 56.0314C192.025 45.8187 186.464 37.2356 177.019 34.2628C173.758 33.2559 167.812 33.1604 164.936 34.0714C157.552 36.4208 152.038 42.6063 150.743 50.086C149.736 55.6474 151.366 58.5721 155.394 58.5724C158.318 58.5724 159.758 57.0377 160.381 53.3937C161.34 47.4005 164.84 43.9002 170.162 43.5646C174.142 43.3249 177.115 44.7632 179.416 48.0714C183.444 53.7292 180.614 61.0659 173.422 63.7989C169.251 65.429 168.292 66.0999 166.949 68.545C165.99 70.415 165.895 71.1825 165.895 78.6144V86.7169L167.477 88.1075Z" fill="black"/>
<path d="M168.82 108.006C172.272 109.445 175.724 107.287 175.725 103.691C175.677 99.3274 170.93 97.0259 167.67 99.8069C164.889 102.157 165.464 106.616 168.82 108.006Z" fill="black"/>
<path d="M84.9629 245.327C89.5175 245.327 90.2851 243.265 90.333 231.087L90.3809 224.278L117.375 224.135L144.321 223.99L147.821 222.696C153.287 220.683 156.452 218.621 160.671 214.449C164.842 210.23 166.904 207.065 168.918 201.6L170.165 198.099L170.356 176.715L170.5 155.378L169.206 154.084C167.432 152.262 163.931 152.261 162.157 153.987L160.959 155.234L160.768 174.988C160.576 193.4 160.479 194.935 159.568 197.38C157.842 202.031 156.596 204.093 153.432 207.209C150.315 210.326 148.3 211.621 143.602 213.347C141.061 214.305 139.908 214.353 111.957 214.545L82.9492 214.689L81.6543 215.983C80.3597 217.182 80.3115 217.326 80.3115 222.744V228.258L73.5029 221.497L66.6465 214.736L47.9473 214.545C27.6661 214.305 27.7613 214.306 21.8643 211.333C19.1313 209.895 14.0009 204.716 12.5625 201.839C9.39799 195.558 9.58984 198.387 9.58984 153.748C9.58984 109.11 9.39809 111.938 12.5625 105.657C14.0009 102.78 19.1313 97.601 21.8643 96.1626C28.0491 93.0462 26.5635 93.1425 56.6738 92.9507L84.0996 92.8062L85.2979 91.5601C87.0719 89.786 87.0719 86.3332 85.2979 84.5112L84.0039 83.2651L55.9062 83.313C32.9895 83.313 27.3308 83.4565 25.2207 84.0317C13.5216 87.1483 4.9862 95.1557 1.15039 106.52L0 109.876V197.62L1.15039 200.976C2.97236 206.489 5.32178 210.23 9.54102 214.449C13.7604 218.621 16.9256 220.683 22.3916 222.696L25.8916 223.942L43.6318 224.135L61.3721 224.278L71.9688 234.827L82.5654 245.327H84.9629Z" fill="black"/>
<path d="M104.002 129.966C105.009 128.959 105.249 128.24 105.249 126.418C105.249 124.596 105.009 123.877 104.002 122.87L102.707 121.623H28.1973L26.9033 122.87C25.8965 123.877 25.6563 124.596 25.6562 126.418C25.6562 128.24 25.8964 128.959 26.9033 129.966L28.1973 131.213H102.707L104.002 129.966Z" fill="black"/>
<path d="M135.168 156.816C136.942 154.994 136.942 151.542 135.168 149.72L133.873 148.473H28.1973L26.9033 149.72C25.8965 150.727 25.6563 151.446 25.6562 153.268C25.6562 155.09 25.8964 155.809 26.9033 156.816L28.1973 158.063H133.873L135.168 156.816Z" fill="black"/>
<path d="M116.324 183.523C117.427 182.42 117.715 181.701 117.715 180.119C117.715 178.537 117.427 177.817 116.324 176.714L114.934 175.324H28.1973L26.9033 176.571C25.8965 177.578 25.6563 178.297 25.6562 180.119C25.6562 181.941 25.8964 182.66 26.9033 183.667L28.1973 184.914H114.934L116.324 183.523Z" fill="black"/>
<path d="M131.615 184.914C133.437 184.914 134.156 184.673 135.163 183.667C136.17 182.66 136.41 181.941 136.41 180.119C136.41 178.297 136.17 177.578 135.163 176.571C134.156 175.564 133.437 175.324 131.615 175.324C129.793 175.324 129.074 175.564 128.067 176.571C127.061 177.578 126.82 178.297 126.82 180.119C126.82 181.941 127.06 182.66 128.067 183.667C129.074 184.673 129.793 184.914 131.615 184.914Z" fill="black"/>
</svg>
