<svg width="442" height="442" viewBox="0 0 442 442" fill="none" xmlns="http://www.w3.org/2000/svg">
<mask id="path-1-inside-1_1085_25" fill="white">
<path d="M7.36813 441.991H360.967C361.935 441.991 362.893 441.801 363.787 441.431C364.68 441.061 365.493 440.519 366.177 439.835C366.861 439.151 367.404 438.339 367.774 437.445C368.145 436.552 368.335 435.594 368.336 434.627V368.326H419.899C420.867 368.327 421.825 368.136 422.719 367.766C423.613 367.397 424.425 366.854 425.11 366.17C425.794 365.486 426.337 364.674 426.707 363.78C427.078 362.886 427.268 361.928 427.268 360.961V287.292C427.268 283.226 423.971 279.927 419.899 279.927H368.336V213.626C368.336 212.658 368.145 211.7 367.775 210.806C367.405 209.912 366.862 209.1 366.178 208.416C365.493 207.731 364.681 207.189 363.787 206.818C362.893 206.448 361.935 206.258 360.967 206.258H347.448C347.961 203.877 347.958 201.414 347.438 199.035C346.919 196.656 345.895 194.415 344.436 192.465L311.15 148.094L326.52 136.564C329.882 134.047 332.569 130.736 334.342 126.929C336.115 123.121 336.918 118.934 336.681 114.74L335.943 101.473C335.843 99.7018 336.183 97.9332 336.932 96.3247C337.68 94.7162 338.815 93.3177 340.235 92.2534L355.602 80.7277L362.07 89.3468C362.65 90.1207 363.376 90.7728 364.208 91.2657C365.041 91.7587 365.962 92.0829 366.919 92.2198C367.263 92.2673 367.61 92.294 367.961 92.2906C369.555 92.2929 371.107 91.7756 372.382 90.8169L433.163 45.2217C442.922 37.9011 444.901 24.0506 437.58 14.2886L433.487 8.8257C426.156 -0.923364 412.312 -2.89597 402.547 4.41432L341.772 50.0069C338.518 52.4483 337.857 57.0686 340.299 60.3223L346.764 68.9413L331.396 80.4713C328.034 82.9877 325.346 86.2972 323.573 90.1047C321.8 93.9122 320.997 98.0993 321.236 102.293L321.971 115.559C322.072 117.33 321.734 119.099 320.985 120.708C320.237 122.316 319.102 123.715 317.681 124.779L302.315 136.309L269.024 91.9366C267.31 89.6157 265.036 87.7667 262.415 86.5621C259.793 85.3575 256.909 84.8364 254.032 85.0476C251.285 85.2476 248.633 86.1385 246.322 87.6376C244.012 89.1368 242.117 91.1955 240.816 93.6226L180.285 206.258H7.36899C6.40129 206.258 5.44302 206.448 4.54893 206.818C3.65484 207.188 2.84243 207.731 2.15813 208.415C1.47382 209.1 0.931014 209.912 0.560717 210.806C0.19042 211.7 -0.00011337 212.658 5.06075e-08 213.626V287.292C-0.000113341 288.259 0.190391 289.217 0.560634 290.111C0.930877 291.005 1.4736 291.818 2.15782 292.502C2.84204 293.186 3.65434 293.729 4.54833 294.099C5.44233 294.469 6.4005 294.66 7.36813 294.66H58.9321V353.593H7.36899C6.40129 353.593 5.44302 353.783 4.54893 354.153C3.65484 354.523 2.84243 355.066 2.15813 355.75C1.47382 356.434 0.931014 357.247 0.560717 358.141C0.19042 359.035 -0.00011337 359.993 5.06075e-08 360.961V434.627C5.06075e-08 438.694 3.29774 441.991 7.36813 441.991ZM411.389 16.1973C414.64 13.7559 419.256 14.4129 421.701 17.6675L425.796 23.1303C426.966 24.6932 427.468 26.6566 427.192 28.5895C426.916 30.5223 425.883 32.2664 424.322 33.4388L369.432 74.6174L356.5 57.3716L411.389 16.1973ZM132.602 368.326H235.733V427.258H132.602V368.326ZM191.534 294.66H294.666V353.593H191.534V294.66ZM353.603 427.258H250.466V368.326H353.603V427.258ZM412.535 353.593H309.399V294.66H412.536L412.535 353.593ZM353.603 279.927H250.466V237.029L325.87 220.991H353.603V279.927ZM253.799 100.603C254.049 100.087 254.567 99.7571 255.141 99.7398L255.286 99.7329C255.671 99.7393 256.049 99.8371 256.388 100.018C256.728 100.199 257.019 100.459 257.239 100.775L290.522 145.147L260.132 167.946C258.568 169.119 257.535 170.864 257.258 172.799C256.982 174.734 257.485 176.699 258.658 178.262C261.099 181.516 265.716 182.173 268.974 179.735L299.363 156.936L332.651 201.307C333.18 201.954 333.335 202.828 333.056 203.614C332.97 203.882 332.812 204.121 332.6 204.306C332.387 204.491 332.129 204.614 331.851 204.662L185.704 235.741C185.259 235.81 184.804 235.753 184.39 235.576C183.976 235.399 183.621 235.109 183.364 234.739C183.077 234.392 182.895 233.97 182.841 233.523C182.788 233.075 182.864 232.622 183.06 232.217L253.799 100.603ZM171.581 243.581C173.502 246.223 176.149 248.25 179.2 249.417C182.251 250.583 185.576 250.838 188.769 250.151L235.733 240.162V279.927H132.602V220.991H172.363L170.081 225.24C168.536 228.116 167.856 231.378 168.122 234.632C168.388 237.886 169.59 240.994 171.581 243.581ZM14.7328 250.461H29.4665C30.4433 250.475 31.4134 250.296 32.3202 249.933C33.2271 249.569 34.0526 249.029 34.7487 248.343C35.4447 247.658 35.9975 246.841 36.3749 245.939C36.7522 245.038 36.9465 244.071 36.9465 243.094C36.9465 242.117 36.7522 241.15 36.3749 240.249C35.9975 239.348 35.4447 238.53 34.7487 237.845C34.0526 237.159 33.2271 236.619 32.3202 236.256C31.4134 235.892 30.4433 235.713 29.4665 235.728H14.7328V220.992H117.869V279.927H14.7319L14.7328 250.461ZM73.6657 294.661H176.801V353.593H73.6657V294.661ZM14.7328 368.326H117.869V427.258H14.7319L14.7328 368.326Z"/>
</mask>
<path d="M7.36813 441.991H360.967C361.935 441.991 362.893 441.801 363.787 441.431C364.68 441.061 365.493 440.519 366.177 439.835C366.861 439.151 367.404 438.339 367.774 437.445C368.145 436.552 368.335 435.594 368.336 434.627V368.326H419.899C420.867 368.327 421.825 368.136 422.719 367.766C423.613 367.397 424.425 366.854 425.11 366.17C425.794 365.486 426.337 364.674 426.707 363.78C427.078 362.886 427.268 361.928 427.268 360.961V287.292C427.268 283.226 423.971 279.927 419.899 279.927H368.336V213.626C368.336 212.658 368.145 211.7 367.775 210.806C367.405 209.912 366.862 209.1 366.178 208.416C365.493 207.731 364.681 207.189 363.787 206.818C362.893 206.448 361.935 206.258 360.967 206.258H347.448C347.961 203.877 347.958 201.414 347.438 199.035C346.919 196.656 345.895 194.415 344.436 192.465L311.15 148.094L326.52 136.564C329.882 134.047 332.569 130.736 334.342 126.929C336.115 123.121 336.918 118.934 336.681 114.74L335.943 101.473C335.843 99.7018 336.183 97.9332 336.932 96.3247C337.68 94.7162 338.815 93.3177 340.235 92.2534L355.602 80.7277L362.07 89.3468C362.65 90.1207 363.376 90.7728 364.208 91.2657C365.041 91.7587 365.962 92.0829 366.919 92.2198C367.263 92.2673 367.61 92.294 367.961 92.2906C369.555 92.2929 371.107 91.7756 372.382 90.8169L433.163 45.2217C442.922 37.9011 444.901 24.0506 437.58 14.2886L433.487 8.8257C426.156 -0.923364 412.312 -2.89597 402.547 4.41432L341.772 50.0069C338.518 52.4483 337.857 57.0686 340.299 60.3223L346.764 68.9413L331.396 80.4713C328.034 82.9877 325.346 86.2972 323.573 90.1047C321.8 93.9122 320.997 98.0993 321.236 102.293L321.971 115.559C322.072 117.33 321.734 119.099 320.985 120.708C320.237 122.316 319.102 123.715 317.681 124.779L302.315 136.309L269.024 91.9366C267.31 89.6157 265.036 87.7667 262.415 86.5621C259.793 85.3575 256.909 84.8364 254.032 85.0476C251.285 85.2476 248.633 86.1385 246.322 87.6376C244.012 89.1368 242.117 91.1955 240.816 93.6226L180.285 206.258H7.36899C6.40129 206.258 5.44302 206.448 4.54893 206.818C3.65484 207.188 2.84243 207.731 2.15813 208.415C1.47382 209.1 0.931014 209.912 0.560717 210.806C0.19042 211.7 -0.00011337 212.658 5.06075e-08 213.626V287.292C-0.000113341 288.259 0.190391 289.217 0.560634 290.111C0.930877 291.005 1.4736 291.818 2.15782 292.502C2.84204 293.186 3.65434 293.729 4.54833 294.099C5.44233 294.469 6.4005 294.66 7.36813 294.66H58.9321V353.593H7.36899C6.40129 353.593 5.44302 353.783 4.54893 354.153C3.65484 354.523 2.84243 355.066 2.15813 355.75C1.47382 356.434 0.931014 357.247 0.560717 358.141C0.19042 359.035 -0.00011337 359.993 5.06075e-08 360.961V434.627C5.06075e-08 438.694 3.29774 441.991 7.36813 441.991ZM411.389 16.1973C414.64 13.7559 419.256 14.4129 421.701 17.6675L425.796 23.1303C426.966 24.6932 427.468 26.6566 427.192 28.5895C426.916 30.5223 425.883 32.2664 424.322 33.4388L369.432 74.6174L356.5 57.3716L411.389 16.1973ZM132.602 368.326H235.733V427.258H132.602V368.326ZM191.534 294.66H294.666V353.593H191.534V294.66ZM353.603 427.258H250.466V368.326H353.603V427.258ZM412.535 353.593H309.399V294.66H412.536L412.535 353.593ZM353.603 279.927H250.466V237.029L325.87 220.991H353.603V279.927ZM253.799 100.603C254.049 100.087 254.567 99.7571 255.141 99.7398L255.286 99.7329C255.671 99.7393 256.049 99.8371 256.388 100.018C256.728 100.199 257.019 100.459 257.239 100.775L290.522 145.147L260.132 167.946C258.568 169.119 257.535 170.864 257.258 172.799C256.982 174.734 257.485 176.699 258.658 178.262C261.099 181.516 265.716 182.173 268.974 179.735L299.363 156.936L332.651 201.307C333.18 201.954 333.335 202.828 333.056 203.614C332.97 203.882 332.812 204.121 332.6 204.306C332.387 204.491 332.129 204.614 331.851 204.662L185.704 235.741C185.259 235.81 184.804 235.753 184.39 235.576C183.976 235.399 183.621 235.109 183.364 234.739C183.077 234.392 182.895 233.97 182.841 233.523C182.788 233.075 182.864 232.622 183.06 232.217L253.799 100.603ZM171.581 243.581C173.502 246.223 176.149 248.25 179.2 249.417C182.251 250.583 185.576 250.838 188.769 250.151L235.733 240.162V279.927H132.602V220.991H172.363L170.081 225.24C168.536 228.116 167.856 231.378 168.122 234.632C168.388 237.886 169.59 240.994 171.581 243.581ZM14.7328 250.461H29.4665C30.4433 250.475 31.4134 250.296 32.3202 249.933C33.2271 249.569 34.0526 249.029 34.7487 248.343C35.4447 247.658 35.9975 246.841 36.3749 245.939C36.7522 245.038 36.9465 244.071 36.9465 243.094C36.9465 242.117 36.7522 241.15 36.3749 240.249C35.9975 239.348 35.4447 238.53 34.7487 237.845C34.0526 237.159 33.2271 236.619 32.3202 236.256C31.4134 235.892 30.4433 235.713 29.4665 235.728H14.7328V220.992H117.869V279.927H14.7319L14.7328 250.461ZM73.6657 294.661H176.801V353.593H73.6657V294.661ZM14.7328 368.326H117.869V427.258H14.7319L14.7328 368.326Z" fill="black" stroke="black" stroke-width="6" mask="url(#path-1-inside-1_1085_25)"/>
<path d="M58.9355 237.228H88.4014C91.6446 237.228 94.2703 239.854 94.2705 243.092V243.093C94.2705 243.863 94.1181 244.626 93.8232 245.338C93.5284 246.05 93.0967 246.697 92.5518 247.242C92.0068 247.787 91.3595 248.219 90.6475 248.514C89.9354 248.809 89.172 248.96 88.4014 248.96H58.9355C58.1652 248.96 57.4021 248.809 56.6904 248.514C55.9787 248.219 55.3318 247.786 54.7871 247.241C54.2425 246.696 53.8112 246.049 53.5166 245.337C53.222 244.625 53.07 243.862 53.0703 243.092L53.0771 242.801C53.1494 241.351 53.7579 239.976 54.7891 238.945C55.8202 237.915 57.1952 237.307 58.6445 237.235L58.9355 237.228Z" fill="black" stroke="black" stroke-width="3"/>
</svg>
