<svg width="478" height="478" viewBox="0 0 478 478" fill="none" xmlns="http://www.w3.org/2000/svg">
<path d="M205.134 248.967V272.867H272.866V248.967H284.8V476H2V296.766H13.9336V320.667H33.8662V304.733H45.7998V320.667H93.5996V332.6H77.667V352.533H113.533V272.867H193.2V248.967H205.134ZM13.9336 464.066H113.533V364.467H13.9336V464.066ZM125.467 464.066H272.866V284.8H125.467V464.066ZM13.9336 352.533H33.8662V332.6H13.9336V352.533ZM45.7998 352.533H65.7334V332.6H45.7998V352.533Z" fill="black" stroke="black" stroke-width="4"/>
<mask id="path-2-inside-1_1085_16" fill="white">
<path d="M470.03 8.4715e-06H79.6632C78.4948 -0.00169535 77.3403 0.253631 76.2816 0.747888C75.2228 1.24215 74.2858 1.96323 73.5368 2.86004L33.7035 50.66C32.7318 51.8236 32.1122 53.2402 31.9175 54.7435C31.7229 56.2469 31.9611 57.7746 32.6044 59.1472C33.2476 60.5199 34.2692 61.6805 35.549 62.4929C36.8289 63.3052 38.314 63.7356 39.8299 63.7333H135.43V95.6H159.33V131.06L77.3369 183.233H39.8299V231.033H294.763V183.233H249.473L175.263 131.283V95.6H199.163V63.7333H333.513L304.57 98.46C303.381 99.8964 302.731 101.702 302.73 103.567V135.433C302.73 137.546 303.569 139.573 305.063 141.067C306.557 142.561 308.584 143.4 310.697 143.4H342.563V478H438.163V143.4H470.03C472.143 143.4 474.169 142.561 475.663 141.067C477.157 139.573 477.997 137.546 477.997 135.433V7.96668C477.997 5.85378 477.157 3.82743 475.663 2.33339C474.169 0.839351 472.143 8.4715e-06 470.03 8.4715e-06ZM448.52 15.9333L414.685 44.9161L385.695 15.9333H448.52ZM395.032 47.8H337.895L366.463 19.2315L395.032 47.8ZM56.8387 47.8L80.197 19.7733L108.232 47.8H56.8387ZM127.463 44.5018L98.8947 15.9333H156.032L127.463 44.5018ZM278.83 199.167V215.1H55.7632V199.167H278.83ZM221.693 183.233H107.021L167.089 144.993L221.693 183.233ZM183.23 79.6667H151.363V63.7333H183.23V79.6667ZM146.695 47.8L175.263 19.2315L203.832 47.8H146.695ZM194.495 15.9333H251.632L223.063 44.5018L194.495 15.9333ZM242.295 47.8L270.863 19.2315L299.432 47.8H242.295ZM318.663 44.5018L290.095 15.9333H347.232L318.663 44.5018ZM354.266 63.7333H390.363V95.6H327.705L354.266 63.7333ZM361.795 294.767L390.363 266.198L418.932 294.767L390.363 323.335L361.795 294.767ZM419.418 374.927L390.363 409.789L361.309 374.927L390.363 345.865L419.418 374.927ZM361.795 215.1L390.363 186.532L418.932 215.1L390.363 243.668L361.795 215.1ZM369.761 143.4H410.965L390.363 164.002L369.761 143.4ZM379.098 175.267L358.497 195.868V154.665L379.098 175.267ZM379.098 254.933L358.497 275.535V234.332L379.098 254.933ZM379.098 334.6L358.497 355.202V313.998L379.098 334.6ZM380.007 422.233L358.497 448.021V396.445L380.007 422.233ZM367.563 462.067L390.363 434.685L413.18 462.067H367.563ZM422.23 448.021L400.72 422.233L422.23 396.445V448.021ZM422.23 355.202L401.628 334.6L422.23 313.998V355.202ZM422.23 275.535L401.628 254.933L422.23 234.332V275.535ZM422.23 195.868L401.628 175.267L422.23 154.665V195.868ZM462.063 127.467H318.663V111.533H398.33C400.443 111.533 402.469 110.694 403.963 109.2C405.457 107.706 406.297 105.68 406.297 103.567V63.7333H462.063V127.467ZM462.063 47.8H435.773L462.063 25.2782V47.8Z"/>
</mask>
<path d="M470.03 8.4715e-06H79.6632C78.4948 -0.00169535 77.3403 0.253631 76.2816 0.747888C75.2228 1.24215 74.2858 1.96323 73.5368 2.86004L33.7035 50.66C32.7318 51.8236 32.1122 53.2402 31.9175 54.7435C31.7229 56.2469 31.9611 57.7746 32.6044 59.1472C33.2476 60.5199 34.2692 61.6805 35.549 62.4929C36.8289 63.3052 38.314 63.7356 39.8299 63.7333H135.43V95.6H159.33V131.06L77.3369 183.233H39.8299V231.033H294.763V183.233H249.473L175.263 131.283V95.6H199.163V63.7333H333.513L304.57 98.46C303.381 99.8964 302.731 101.702 302.73 103.567V135.433C302.73 137.546 303.569 139.573 305.063 141.067C306.557 142.561 308.584 143.4 310.697 143.4H342.563V478H438.163V143.4H470.03C472.143 143.4 474.169 142.561 475.663 141.067C477.157 139.573 477.997 137.546 477.997 135.433V7.96668C477.997 5.85378 477.157 3.82743 475.663 2.33339C474.169 0.839351 472.143 8.4715e-06 470.03 8.4715e-06ZM448.52 15.9333L414.685 44.9161L385.695 15.9333H448.52ZM395.032 47.8H337.895L366.463 19.2315L395.032 47.8ZM56.8387 47.8L80.197 19.7733L108.232 47.8H56.8387ZM127.463 44.5018L98.8947 15.9333H156.032L127.463 44.5018ZM278.83 199.167V215.1H55.7632V199.167H278.83ZM221.693 183.233H107.021L167.089 144.993L221.693 183.233ZM183.23 79.6667H151.363V63.7333H183.23V79.6667ZM146.695 47.8L175.263 19.2315L203.832 47.8H146.695ZM194.495 15.9333H251.632L223.063 44.5018L194.495 15.9333ZM242.295 47.8L270.863 19.2315L299.432 47.8H242.295ZM318.663 44.5018L290.095 15.9333H347.232L318.663 44.5018ZM354.266 63.7333H390.363V95.6H327.705L354.266 63.7333ZM361.795 294.767L390.363 266.198L418.932 294.767L390.363 323.335L361.795 294.767ZM419.418 374.927L390.363 409.789L361.309 374.927L390.363 345.865L419.418 374.927ZM361.795 215.1L390.363 186.532L418.932 215.1L390.363 243.668L361.795 215.1ZM369.761 143.4H410.965L390.363 164.002L369.761 143.4ZM379.098 175.267L358.497 195.868V154.665L379.098 175.267ZM379.098 254.933L358.497 275.535V234.332L379.098 254.933ZM379.098 334.6L358.497 355.202V313.998L379.098 334.6ZM380.007 422.233L358.497 448.021V396.445L380.007 422.233ZM367.563 462.067L390.363 434.685L413.18 462.067H367.563ZM422.23 448.021L400.72 422.233L422.23 396.445V448.021ZM422.23 355.202L401.628 334.6L422.23 313.998V355.202ZM422.23 275.535L401.628 254.933L422.23 234.332V275.535ZM422.23 195.868L401.628 175.267L422.23 154.665V195.868ZM462.063 127.467H318.663V111.533H398.33C400.443 111.533 402.469 110.694 403.963 109.2C405.457 107.706 406.297 105.68 406.297 103.567V63.7333H462.063V127.467ZM462.063 47.8H435.773L462.063 25.2782V47.8Z" fill="black" stroke="black" stroke-width="8" mask="url(#path-2-inside-1_1085_16)"/>
<path d="M252.934 416.266V444.133H209.134V432.2H241.001V416.266H252.934ZM189.2 432.2V444.133H177.268V432.2H189.2ZM93.6006 384.4V428.2H33.8672V384.4H93.6006ZM45.8008 416.266H81.667V396.334H45.8008V416.266ZM252.934 304.733V396.334H145.4V304.733H252.934ZM157.334 384.4H241.001V316.667H157.334V384.4ZM436.167 81.6667V93.6003H424.233V81.6667H436.167Z" fill="black" stroke="black" stroke-width="4"/>
</svg>
