<svg width="496" height="496" viewBox="0 0 496 496" fill="none" xmlns="http://www.w3.org/2000/svg">
<path d="M488 447.982H480V423.982C480 421.86 479.157 419.825 477.657 418.325C476.157 416.825 474.122 415.982 472 415.982H464V303.774C469.322 299.789 473.563 294.537 476.338 288.495C479.112 282.454 480.333 275.814 479.888 269.181C479.442 262.547 477.346 256.13 473.789 250.514C470.232 244.897 465.327 240.259 459.52 237.021C453.714 233.783 447.19 232.048 440.542 231.973C433.894 231.899 427.333 233.488 421.456 236.596C415.578 239.704 410.571 244.231 406.89 249.767C403.208 255.303 400.969 261.672 400.376 268.294L392.568 276.102C354.225 314.442 302.223 335.981 248 335.981C193.777 335.981 141.775 314.442 103.432 276.102L95.624 268.294C95.0337 261.669 92.7961 255.297 89.1149 249.757C85.4337 244.217 80.4256 239.686 74.5465 236.576C68.6674 233.466 62.1038 231.875 55.453 231.948C48.8022 232.022 42.2753 233.757 36.4663 236.996C30.6573 240.236 25.7505 244.876 22.1925 250.496C18.6345 256.115 16.5382 262.536 16.0943 269.172C15.6505 275.808 16.8731 282.45 19.6511 288.494C22.4291 294.537 26.6741 299.79 32 303.774V415.982H24C21.8783 415.982 19.8434 416.825 18.3431 418.325C16.8429 419.825 16 421.86 16 423.982V447.982H8C5.87827 447.982 3.84344 448.825 2.34315 450.325C0.842854 451.825 0 453.86 0 455.982V487.982C0 490.103 0.842854 492.138 2.34315 493.639C3.84344 495.139 5.87827 495.982 8 495.982H488C490.122 495.982 492.157 495.139 493.657 493.639C495.157 492.138 496 490.103 496 487.982V455.982C496 453.86 495.157 451.825 493.657 450.325C492.157 448.825 490.122 447.982 488 447.982ZM416 447.982V431.982H464V447.982H416ZM88 415.982H80V315.294L92.12 327.414C133.462 368.756 189.534 391.981 248 391.981C306.466 391.981 362.538 368.756 403.88 327.414L416 315.294V415.982H408C405.878 415.982 403.843 416.825 402.343 418.325C400.843 419.825 400 421.86 400 423.982V447.982H96V423.982C96 421.86 95.1571 419.825 93.6569 418.325C92.1566 416.825 90.1217 415.982 88 415.982ZM448 415.982H432V311.182C437.279 312.259 442.721 312.259 448 311.182V415.982ZM440 247.982C444.747 247.982 449.387 249.389 453.334 252.026C457.28 254.664 460.357 258.412 462.173 262.797C463.99 267.183 464.465 272.008 463.539 276.664C462.613 281.319 460.327 285.596 456.971 288.952C453.614 292.309 449.338 294.595 444.682 295.521C440.027 296.447 435.201 295.971 430.816 294.155C426.43 292.338 422.682 289.262 420.045 285.315C417.408 281.369 416 276.728 416 271.982C416 265.617 418.529 259.512 423.029 255.011C427.53 250.51 433.635 247.982 440 247.982ZM248 351.982C276.838 352.059 305.406 346.439 332.066 335.446C358.726 324.452 382.952 308.3 403.352 287.918C405.076 291.765 407.398 295.316 410.232 298.438L392.568 316.102C354.225 354.442 302.223 375.981 248 375.981C193.777 375.981 141.775 354.442 103.432 316.102L85.768 298.438C88.6021 295.316 90.9241 291.765 92.648 287.918C113.048 308.3 137.274 324.452 163.934 335.446C190.594 346.439 219.162 352.059 248 351.982ZM56 247.982C60.7468 247.982 65.3869 249.389 69.3337 252.026C73.2805 254.664 76.3566 258.412 78.1731 262.797C79.9896 267.183 80.4649 272.008 79.5388 276.664C78.6128 281.319 76.327 285.596 72.9706 288.952C69.6141 292.309 65.3377 294.595 60.6822 295.521C56.0266 296.447 51.201 295.971 46.8156 294.155C42.4302 292.338 38.6819 289.262 36.0447 285.315C33.4076 281.369 32 276.728 32 271.982C32 265.617 34.5286 259.512 39.0294 255.011C43.5303 250.51 49.6348 247.982 56 247.982ZM48 311.182C53.2789 312.259 58.7211 312.259 64 311.182V415.982H48V311.182ZM32 431.982H80V447.982H32V431.982ZM480 479.982H16V463.982H480V479.982Z" fill="black"/>
<path d="M241.464 284.582C242.203 285.628 243.182 286.482 244.319 287.072C245.457 287.661 246.719 287.969 248 287.969C249.281 287.969 250.543 287.661 251.681 287.072C252.818 286.482 253.797 285.628 254.536 284.582L277.008 252.67C307.61 245.549 334.525 227.422 352.625 201.74C370.726 176.058 378.748 144.615 375.165 113.401C371.581 82.186 356.642 53.3798 333.192 32.4681C309.742 11.5563 279.42 0 248 0C216.58 0 186.258 11.5563 162.808 32.4681C139.358 53.3798 124.419 82.186 120.835 113.401C117.252 144.615 125.274 176.058 143.375 201.74C161.475 227.422 188.39 245.549 218.992 252.67L241.464 284.582ZM136 127.982C136.004 106.802 142.013 86.0567 153.331 68.1539C164.648 50.2511 180.81 35.9244 199.941 26.8361C219.072 17.7478 240.388 14.2705 261.416 16.8076C282.444 19.3446 302.321 27.7921 318.741 41.1699C335.162 54.5476 347.452 72.3072 354.187 92.3881C360.922 112.469 361.825 134.048 356.791 154.621C351.757 175.194 340.992 193.918 325.746 208.621C310.501 223.323 291.398 233.401 270.656 237.686C268.664 238.087 266.899 239.231 265.72 240.886L248 266.086L230.28 240.918C229.101 239.263 227.336 238.119 225.344 237.718C200.127 232.443 177.489 218.663 161.223 198.684C144.958 178.706 136.052 153.744 136 127.982Z" fill="black"/>
<path d="M283.68 190.982C284.994 191.709 286.486 192.051 287.985 191.97C289.485 191.888 290.931 191.387 292.159 190.522C293.387 189.657 294.346 188.465 294.928 187.08C295.509 185.696 295.69 184.176 295.448 182.694L288.544 140.366L317.728 110.462C318.755 109.409 319.473 108.093 319.801 106.659C320.129 105.225 320.056 103.729 319.588 102.334C319.121 100.939 318.279 99.6999 317.153 98.7529C316.027 97.8058 314.662 97.1875 313.208 96.9658L273.208 90.8538L255.24 52.5818C254.594 51.2074 253.57 50.0453 252.288 49.2314C251.006 48.4174 249.519 47.9851 248 47.9851C246.481 47.9851 244.994 48.4174 243.712 49.2314C242.43 50.0453 241.406 51.2074 240.76 52.5818L222.792 90.8538L182.792 96.9658C181.338 97.1875 179.973 97.8058 178.847 98.7529C177.722 99.6999 176.879 100.939 176.412 102.334C175.945 103.729 175.871 105.225 176.199 106.659C176.527 108.093 177.245 109.409 178.272 110.462L207.456 140.366L200.552 182.694C200.31 184.176 200.491 185.696 201.072 187.08C201.654 188.465 202.614 189.657 203.841 190.522C205.069 191.387 206.515 191.888 208.015 191.97C209.514 192.051 211.006 191.709 212.32 190.982L248 171.262L283.68 190.982ZM218.992 169.006L223.896 138.958C224.097 137.723 224.006 136.457 223.63 135.264C223.253 134.07 222.602 132.982 221.728 132.086L200.6 110.43L229.4 106.03C230.699 105.831 231.928 105.315 232.98 104.528C234.032 103.741 234.874 102.707 235.432 101.518L248 74.8138L260.536 101.518C261.094 102.707 261.936 103.741 262.988 104.528C264.04 105.315 265.269 105.831 266.568 106.03L295.368 110.43L274.24 132.086C273.366 132.982 272.715 134.07 272.339 135.264C271.962 136.457 271.871 137.723 272.072 138.958L276.976 169.006L251.84 155.118C250.655 154.462 249.323 154.118 247.968 154.118C246.614 154.118 245.281 154.462 244.096 155.118L218.992 169.006Z" fill="black"/>
</svg>
