<svg width="512" height="512" viewBox="0 0 512 512" fill="none" xmlns="http://www.w3.org/2000/svg">
<path d="M308 296H248C243.2 296 240 292.8 240 288C240 283.2 243.2 280 248 280H308C312.8 280 316 283.2 316 288C316 292.8 312.8 296 308 296ZM200 296H16C11.2 296 8 292.8 8 288V256C8 251.2 11.2 248 16 248H280C284.8 248 288 251.2 288 256C288 260.8 284.8 264 280 264H24V280H200C204.8 280 208 283.2 208 288C208 292.8 204.8 296 200 296ZM496 296H460C455.2 296 452 292.8 452 288C452 283.2 455.2 280 460 280H488V264H465.6C460.8 264 457.6 260.8 457.6 256C457.6 251.2 460.8 248 465.6 248H496C500.8 248 504 251.2 504 256V288C504 292.8 500.8 296 496 296Z" fill="black"/>
<path d="M496 504C491.2 504 488 500.8 488 496V288C488 283.2 491.2 280 496 280C500.8 280 504 283.2 504 288V496C504 500.8 500.8 504 496 504ZM16 504C11.2 504 8 500.8 8 496V288C8 283.2 11.2 280 16 280C20.8 280 24 283.2 24 288V496C24 500.8 20.8 504 16 504ZM128 504C123.2 504 120 500.8 120 496V256C120 251.2 123.2 248 128 248C132.8 248 136 251.2 136 256V496C136 500.8 132.8 504 128 504ZM112 264C107.2 264 104 260.8 104 256V168H56V256C56 260.8 52.8 264 48 264C43.2 264 40 260.8 40 256V160C40 155.2 43.2 152 48 152H112C116.8 152 120 155.2 120 160V256C120 260.8 116.8 264 112 264Z" fill="black"/>
<path d="M48 232H24C15.2 232 8 224.8 8 216V184C8 175.2 15.2 168 24 168H48C52.8 168 56 171.2 56 176C56 180.8 52.8 184 48 184H24V216H48C52.8 216 56 219.2 56 224C56 228.8 52.8 232 48 232ZM64 135.2C62.4 135.2 61.6 135.2 60 134.4C56 132 55.2 127.2 56.8 123.2C62.4 113.6 60 109.6 55.2 102.4C49.6 92.8 41.6 80 57.6 59.2C60 56 65.6 55.2 68.8 57.6C72 60 72.8 65.6 70.4 68.8C60.8 80.8 64 85.6 68.8 93.6C74.4 101.6 81.6 113.6 70.4 131.2C69.6 133.6 66.4 135.2 64 135.2ZM96 136C94.4 136 92.8 135.2 91.2 134.4C88 131.2 87.2 126.4 90.4 123.2C91.2 122.4 91.2 120.8 88.8 115.2C85.6 108 80 95.2 92.8 83.2C96 80 100.8 80 104 83.2C107.2 86.4 107.2 91.2 104 94.4C100 98.4 100 100 104 108C106.4 114.4 111.2 123.2 103.2 132.8C100.8 135.2 98.4 136 96 136ZM288 216H160C146.4 216 136 205.6 136 192V32C136 18.4 146.4 8 160 8H416C429.6 8 440 18.4 440 32V136C440 140.8 436.8 144 432 144C427.2 144 424 140.8 424 136V32C424 27.2 420.8 24 416 24H160C155.2 24 152 27.2 152 32V192C152 196.8 155.2 200 160 200H288C292.8 200 296 203.2 296 208C296 212.8 292.8 216 288 216Z" fill="black"/>
<path d="M296 184H144C139.2 184 136 180.8 136 176C136 171.2 139.2 168 144 168H296C300.8 168 304 171.2 304 176C304 180.8 300.8 184 296 184ZM176 96C173.6 96 172 95.2 170.4 93.6C167.2 90.4 167.2 85.6 170.4 82.4L210.4 42.4C213.6 39.2 218.4 39.2 221.6 42.4C224.8 45.6 224.8 50.4 221.6 53.6L181.6 93.6C180 95.2 178.4 96 176 96ZM232 88C229.6 88 228 87.2 226.4 85.6C223.2 82.4 223.2 77.6 226.4 74.4L242.4 58.4C245.6 55.2 250.4 55.2 253.6 58.4C256.8 61.6 256.8 66.4 253.6 69.6L237.6 85.6C236 87.2 234.4 88 232 88ZM176 144C173.6 144 172 143.2 170.4 141.6C167.2 138.4 167.2 133.6 170.4 130.4L202.4 98.4C205.6 95.2 210.4 95.2 213.6 98.4C216.8 101.6 216.8 106.4 213.6 109.6L181.6 141.6C180 143.2 178.4 144 176 144ZM264 264C259.2 264 256 260.8 256 256V208C256 203.2 259.2 200 264 200C268.8 200 272 203.2 272 208V256C272 260.8 268.8 264 264 264ZM232 504C218.4 504 208 493.6 208 480C208 466.4 218.4 456 232 456C245.6 456 256 466.4 256 480C256 493.6 245.6 504 232 504ZM232 472C227.2 472 224 475.2 224 480C224 484.8 227.2 488 232 488C236.8 488 240 484.8 240 480C240 475.2 236.8 472 232 472ZM408 504C394.4 504 384 493.6 384 480C384 466.4 394.4 456 408 456C421.6 456 432 466.4 432 480C432 493.6 421.6 504 408 504ZM408 472C403.2 472 400 475.2 400 480C400 484.8 403.2 488 408 488C412.8 488 416 484.8 416 480C416 475.2 412.8 472 408 472Z" fill="black"/>
<path d="M408 472C403.2 472 400 468.8 400 464C400 455.2 392.8 448 384 448H256C247.2 448 240 455.2 240 464C240 468.8 236.8 472 232 472C227.2 472 224 468.8 224 464C224 446.4 238.4 432 256 432H384C401.6 432 416 446.4 416 464C416 468.8 412.8 472 408 472ZM424 400H224C210.4 400 200 389.6 200 376C200 362.4 210.4 352 224 352H289.6L318.4 180C320 168 330.4 160 342.4 160H461.6C468.8 160 475.2 163.2 480 168.8C484.8 174.4 486.4 181.6 485.6 188L458.4 353.6C456.8 358.4 456 363.2 456 368C456 385.6 441.6 400 424 400ZM224 368C219.2 368 216 371.2 216 376C216 380.8 219.2 384 224 384H424C432.8 384 440 376.8 440 368C440 362.4 440.8 356.8 441.6 350.4L468.8 184.8C468.8 182.4 468.8 180 467.2 178.4C465.6 176.8 463.2 175.2 460.8 175.2H341.6C337.6 175.2 334.4 178.4 333.6 181.6L304 361.6C303.2 365.6 300 368 296 368H224Z" fill="black"/>
<path d="M208 382.4H206.4C202.4 381.6 199.2 377.6 200 373.6V372L209.6 312C212.8 293.6 228.8 280 247.2 280H256C260.8 280 264 283.2 264 288C264 292.8 260.8 296 256 296H248C236.8 296 228 304 226.4 314.4L216 375.2C215.2 379.2 212 382.4 208 382.4ZM304 448C299.2 448 296 444.8 296 440V392C296 387.2 299.2 384 304 384C308.8 384 312 387.2 312 392V440C312 444.8 308.8 448 304 448ZM336 448C331.2 448 328 444.8 328 440V392C328 387.2 331.2 384 336 384C340.8 384 344 387.2 344 392V440C344 444.8 340.8 448 336 448Z" fill="black"/>
</svg>
