<svg width="345" height="463" viewBox="0 0 345 463" fill="none" xmlns="http://www.w3.org/2000/svg">
<path d="M3.84976 229.402C20.8185 229.3 52.0986 229.505 77.5778 233.693C119.193 239.692 152.503 273.068 158.576 314.857C163.827 350.847 166.946 387.115 167.916 423.473C167.905 424.559 168.327 425.605 169.088 426.381C169.848 427.157 170.886 427.598 171.972 427.609C173.058 427.619 174.104 427.198 174.88 426.437C175.656 425.677 176.097 424.639 176.108 423.553C181.384 281.698 187.243 224.913 340.12 229.409C345.296 229.228 345.387 221.319 340.018 221.217C327.396 221.319 314.94 221.202 291.713 219.349C293.014 199.985 292.783 171.66 314.156 167.886C320.91 166.995 327.711 166.51 334.523 166.431C339.754 166.169 339.693 158.365 334.405 158.239C327.661 158.31 320.924 157.805 314.265 156.732C303.976 155.15 295.68 144.693 294.092 131.301C292.634 119.042 291.768 106.719 291.499 94.3757C291.328 88.9485 283.511 89.0222 283.307 94.2917C283.04 106.663 282.174 119.014 280.711 131.301C276.569 157.181 259.803 158.376 240.176 158.247C235.131 158.604 235.11 166.098 240.208 166.425C279.212 164.367 281.1 183.493 283.052 218.565C234.801 217.913 192.587 185.606 185.447 135.551C180.192 99.5355 177.074 63.2409 176.108 26.8572C175.898 21.6962 168.152 21.5324 167.916 26.8572C166.948 63.2416 163.829 99.5368 158.575 135.553C152.498 177.342 119.188 210.719 77.5767 216.719C52.3587 220.901 20.3802 221.211 3.82518 221.225C-1.20061 221.467 -1.35728 229.135 3.84976 229.402ZM96.829 220.542C142.883 205.898 165.018 163.188 172.024 118.171C179.628 163.185 201.208 204.89 244.177 224.415C244.436 225.159 244.459 225.964 244.242 226.72C244.025 227.477 243.579 228.148 242.965 228.641C202.671 249.35 183.993 279.178 175.108 320.578C174.982 321.176 174.656 321.712 174.183 322.098C173.71 322.485 173.12 322.697 172.509 322.701C171.899 322.705 171.305 322.499 170.828 322.119C170.351 321.738 170.018 321.206 169.885 320.61C163.062 280.175 136.773 242.518 96.7603 229.829C92.3981 228.514 92.4125 221.821 96.8259 220.542H96.829Z" fill="black"/>
<path d="M128.748 323.71C115.743 323.392 104.007 323.325 101.022 304.445C99.9285 295.229 99.2813 285.939 99.0868 276.846C98.9107 271.607 91.0853 271.547 90.8948 276.846C90.6948 286.072 90.0489 295.282 88.9594 304.444C86.5141 320.243 77.1722 323.536 64.5073 323.676C59.0382 323.676 56.5201 323.021 55.7398 327.807C56.5457 332.592 59.0914 331.903 64.5268 331.878C67.9171 331.997 71.2951 332.35 74.6367 332.934C81.9542 334.226 87.8463 341.69 88.9594 351.083C89.8134 358.283 90.6634 372.587 90.8948 383.647C90.8948 384.733 91.3263 385.775 92.0945 386.543C92.8626 387.311 93.9045 387.743 94.9908 387.743C96.0771 387.743 97.119 387.311 97.8871 386.543C98.6553 385.775 99.0868 384.733 99.0868 383.647C99.3182 372.587 100.168 358.28 101.022 351.083C102.163 341.473 108.102 333.853 115.145 332.965C120.171 332.302 125.232 331.941 130.3 331.884C136.406 331.178 135.015 322.681 128.748 323.71ZM52.2623 129.255C45.2479 129.187 45.3544 141.434 52.2623 141.351C59.2757 141.418 59.1672 129.172 52.2623 129.255ZM16.8862 58.9874C21.9158 58.8722 26.9451 59.2249 31.9093 60.0411C39.2268 61.3334 45.1189 68.7963 46.232 78.1905C47.085 85.3841 47.9359 99.6873 48.1674 110.754C48.1674 111.84 48.5989 112.882 49.3671 113.65C50.1352 114.418 51.177 114.85 52.2634 114.85C53.3497 114.85 54.3915 114.418 55.1597 113.65C55.9278 112.882 56.3594 111.84 56.3594 110.754C56.5908 99.6945 57.4407 85.3882 58.2947 78.1905C59.4355 68.5803 65.3747 60.9597 72.4177 60.0657C76.9522 59.4832 81.513 59.1288 86.083 59.0038C93.3084 59.8589 93.251 49.8349 86.0206 50.8118C81.5016 50.7597 76.9923 50.3833 72.5273 49.6854C65.2825 48.5723 59.4303 41.1145 58.2937 31.5514C57.2001 22.3354 56.5529 13.0446 56.3583 3.95254C56.1843 -1.28726 48.3558 -1.34768 48.1663 3.95254C46.3467 30.7076 50.7263 52.7973 16.8534 50.8087C11.802 51.1702 11.7939 58.6587 16.8862 58.9874ZM287.403 265.644C288.49 265.644 289.532 265.212 290.3 264.444C291.068 263.676 291.499 262.634 291.499 261.548V249.389C291.363 243.99 283.445 243.984 283.307 249.389V261.548C283.307 262.634 283.739 263.676 284.507 264.444C285.275 265.212 286.317 265.644 287.403 265.644ZM292.52 284.031C292.598 278.546 284.703 276.971 282.68 282.076C279.97 289.737 292.082 292.151 292.52 284.031ZM176.108 458.329V449.946C176.017 444.563 168.007 444.56 167.916 449.946V458.329C168.008 463.71 176.018 463.714 176.108 458.329Z" fill="black"/>
</svg>
