<svg width="441" height="513" viewBox="0 0 441 513" fill="none" xmlns="http://www.w3.org/2000/svg">
<path d="M112.566 286.235L102.859 308.865L100.504 302.013C99.1523 298.083 94.8713 295.989 90.9453 297.345C90.0111 297.666 89.1493 298.167 88.4091 298.821C87.6688 299.475 87.0647 300.269 86.6312 301.157C86.1978 302.044 85.9434 303.008 85.8827 303.994C85.8219 304.98 85.956 305.969 86.2773 306.903L94.9843 332.223C95.3263 333.217 95.8729 334.128 96.5889 334.898C97.3049 335.668 98.1744 336.279 99.1413 336.693C100.106 337.107 101.148 337.315 102.198 337.301C103.249 337.288 104.284 337.053 105.238 336.614L129.547 325.454C130.445 325.042 131.253 324.457 131.924 323.733C132.596 323.009 133.119 322.16 133.462 321.233C133.806 320.307 133.964 319.323 133.927 318.336C133.89 317.349 133.659 316.379 133.247 315.481C132.835 314.583 132.25 313.776 131.526 313.104C130.802 312.432 129.953 311.909 129.027 311.566C128.101 311.222 127.116 311.065 126.129 311.102C125.142 311.139 124.172 311.37 123.274 311.782L116.684 314.806L126.391 292.166C126.781 291.258 126.988 290.283 127.001 289.295C127.014 288.307 126.832 287.327 126.465 286.41C126.099 285.493 125.555 284.657 124.865 283.95C124.176 283.243 123.353 282.679 122.445 282.29C118.625 280.653 114.203 282.419 112.566 286.235ZM226.879 314.544C226.82 271.106 248.723 229.439 269.242 204.923C271.906 201.735 271.488 196.993 268.301 194.329C267.544 193.695 266.669 193.216 265.727 192.92C264.785 192.624 263.793 192.516 262.81 192.603C261.826 192.69 260.869 192.97 259.993 193.427C259.118 193.884 258.341 194.509 257.707 195.267C243.223 212.571 228.109 237.833 219.355 266.474C210.602 237.833 195.488 212.571 181.008 195.271C180.375 194.513 179.598 193.887 178.723 193.43C177.847 192.972 176.89 192.692 175.906 192.604C174.923 192.517 173.931 192.624 172.989 192.92C172.046 193.216 171.171 193.695 170.414 194.329C169.656 194.962 169.031 195.739 168.573 196.614C168.116 197.49 167.835 198.447 167.748 199.431C167.661 200.415 167.768 201.406 168.064 202.348C168.36 203.291 168.839 204.166 169.473 204.923C189.988 229.439 211.895 271.11 211.836 314.544C211.805 335.36 205.957 354.336 195.359 367.977C194.136 369.553 193.589 371.55 193.838 373.529C194.087 375.509 195.112 377.308 196.687 378.531C198.004 379.558 199.627 380.115 201.297 380.113C203.539 380.113 205.757 379.113 207.242 377.203C209.178 374.702 210.967 372.09 212.598 369.379V504.48C212.598 506.475 213.39 508.387 214.801 509.798C216.211 511.208 218.124 512 220.118 512C221.106 512 222.084 511.806 222.997 511.428C223.909 511.051 224.739 510.497 225.437 509.798C226.136 509.1 226.69 508.271 227.068 507.358C227.446 506.446 227.641 505.468 227.641 504.48V371.805C228.841 373.658 230.12 375.459 231.473 377.203C232.175 378.11 233.076 378.843 234.106 379.347C235.136 379.851 236.267 380.112 237.414 380.109C239.084 380.112 240.707 379.555 242.024 378.527C243.599 377.305 244.624 375.506 244.873 373.527C245.122 371.549 244.575 369.553 243.352 367.977C232.758 354.336 226.906 335.36 226.879 314.544ZM344.836 375.648C341.02 377.285 339.254 381.711 340.891 385.528C341.473 386.881 342.438 388.032 343.668 388.842C344.897 389.651 346.337 390.082 347.809 390.082C348.828 390.082 349.837 389.874 350.773 389.469C355.426 387.473 360.129 385.109 364.75 382.449C364.902 382.363 365.055 382.269 365.2 382.168L365.45 382C367.07 380.869 368.18 379.145 368.54 377.201C368.899 375.257 368.479 373.25 367.37 371.614C366.261 369.978 364.553 368.843 362.615 368.457C360.676 368.07 358.664 368.462 357.012 369.547C353.071 371.809 349.006 373.846 344.836 375.648ZM320.781 382.563C316.234 383.221 311.64 383.495 307.047 383.383C306.059 383.356 305.075 383.523 304.152 383.877C303.228 384.23 302.384 384.763 301.668 385.444C300.951 386.125 300.376 386.941 299.976 387.845C299.576 388.749 299.358 389.723 299.336 390.711C299.311 391.699 299.48 392.682 299.835 393.604C300.189 394.525 300.722 395.369 301.403 396.084C302.083 396.8 302.898 397.375 303.801 397.776C304.704 398.177 305.676 398.396 306.664 398.421C307.461 398.441 308.266 398.453 309.078 398.453C313.652 398.453 318.308 398.117 322.926 397.449C323.903 397.309 324.844 396.978 325.693 396.474C326.543 395.97 327.284 395.303 327.876 394.512C328.467 393.721 328.897 392.822 329.141 391.865C329.385 390.908 329.437 389.912 329.296 388.934C328.707 384.82 324.875 381.969 320.781 382.563ZM280.36 393.434C282.127 393.435 283.839 392.813 285.193 391.677C286.548 390.542 287.459 388.966 287.768 387.226C288.076 385.485 287.762 383.692 286.88 382.16C285.999 380.628 284.606 379.456 282.946 378.848C280.481 377.946 278.07 376.905 275.723 375.73C273.943 374.859 271.891 374.724 270.013 375.357C268.135 375.989 266.582 377.337 265.692 379.107C264.802 380.878 264.646 382.928 265.259 384.813C265.872 386.697 267.204 388.264 268.965 389.172C271.827 390.608 274.769 391.876 277.777 392.972C278.629 393.285 279.505 393.434 280.36 393.434ZM400.41 329.247C401.102 329.447 401.797 329.54 402.484 329.54C404.117 329.538 405.705 329.006 407.009 328.022C408.313 327.038 409.261 325.657 409.711 324.087C411.221 318.819 412.245 313.424 412.77 307.97C412.864 306.986 412.764 305.994 412.474 305.049C412.185 304.104 411.712 303.226 411.083 302.464C410.454 301.702 409.681 301.072 408.808 300.609C407.935 300.146 406.979 299.86 405.996 299.767C405.013 299.673 404.021 299.774 403.076 300.063C402.132 300.353 401.254 300.826 400.493 301.455C399.731 302.084 399.101 302.856 398.639 303.729C398.176 304.601 397.889 305.556 397.796 306.54C397.357 311.077 396.503 315.564 395.246 319.946C394.698 321.864 394.934 323.921 395.902 325.665C396.87 327.409 398.492 328.698 400.41 329.247ZM384.816 342.263C382.234 346.103 379.361 349.74 376.223 353.141C373.41 356.199 373.605 360.957 376.66 363.77C378.047 365.051 379.866 365.761 381.754 365.758C382.794 365.76 383.823 365.544 384.776 365.127C385.729 364.709 386.584 364.098 387.289 363.332C390.952 359.362 394.305 355.115 397.316 350.629C399.629 347.18 398.703 342.509 395.25 340.196C393.592 339.086 391.561 338.681 389.605 339.068C387.648 339.456 385.925 340.605 384.816 342.263ZM310.695 325.454L335.004 336.614C335.958 337.052 336.994 337.286 338.045 337.3C339.095 337.313 340.136 337.106 341.102 336.692C342.068 336.278 342.936 335.667 343.651 334.898C344.367 334.128 344.912 333.217 345.254 332.224L353.961 306.904C354.298 305.966 354.446 304.97 354.396 303.975C354.345 302.979 354.097 302.004 353.666 301.105C353.235 300.206 352.63 299.402 351.886 298.739C351.141 298.077 350.273 297.568 349.33 297.244C348.387 296.92 347.39 296.787 346.395 296.851C345.401 296.916 344.429 297.178 343.536 297.622C342.644 298.065 341.848 298.682 341.196 299.436C340.544 300.19 340.048 301.066 339.738 302.013L337.378 308.864L327.676 286.235C326.039 282.419 321.613 280.653 317.796 282.29C315.963 283.076 314.517 284.558 313.777 286.41C313.037 288.261 313.062 290.332 313.848 292.165L323.558 314.805L316.968 311.782C315.155 310.95 313.086 310.872 311.215 311.566C309.345 312.26 307.827 313.668 306.995 315.481C306.164 317.294 306.086 319.363 306.78 321.233C307.474 323.104 308.882 324.622 310.695 325.454ZM52.9504 363.332C53.6543 364.098 54.5097 364.709 55.4624 365.127C56.4151 365.545 57.4442 365.76 58.4844 365.758C59.9456 365.758 61.3752 365.333 62.5984 364.533C63.8216 363.734 64.7855 362.595 65.3722 361.257C65.9589 359.919 66.143 358.439 65.902 356.997C65.6611 355.556 65.0055 354.216 64.0154 353.141C60.878 349.739 58.0053 346.102 55.4224 342.262C54.2973 340.641 52.5806 339.527 50.6422 339.16C48.7038 338.793 46.6988 339.203 45.0593 340.3C43.4199 341.398 42.2772 343.095 41.8775 345.027C41.4777 346.959 41.853 348.971 42.9224 350.628C45.9334 355.114 49.2866 359.362 52.9504 363.332ZM83.2273 369.547C79.7933 367.227 75.1293 368.125 72.7973 371.551C71.677 373.202 71.2576 375.229 71.6311 377.188C72.0046 379.147 73.1405 380.878 74.7893 382L75.0393 382.168C75.1843 382.27 75.3363 382.363 75.4893 382.449C80.1093 385.109 84.8123 387.473 89.4653 389.469C90.4014 389.874 91.4105 390.083 92.4303 390.082C93.9024 390.082 95.3422 389.651 96.5717 388.841C97.8013 388.032 98.7666 386.88 99.3483 385.527C100.134 383.694 100.16 381.624 99.4202 379.771C98.6803 377.919 97.2351 376.436 95.4023 375.648C91.2322 373.846 87.1674 371.809 83.2273 369.547ZM44.9924 319.946C43.7347 315.564 42.8812 311.077 42.4424 306.54C42.3494 305.556 42.0634 304.601 41.6009 303.728C41.1383 302.855 40.5082 302.082 39.7466 301.453C38.985 300.824 38.1068 300.351 37.1624 300.062C36.2179 299.773 35.2257 299.672 34.2424 299.767C32.257 299.956 30.4281 300.926 29.1579 302.463C27.8877 304.001 27.2804 305.98 27.4694 307.966C27.9932 313.42 29.0168 318.815 30.5274 324.083C30.976 325.654 31.9238 327.036 33.2277 328.02C34.5316 329.005 36.1206 329.538 37.7544 329.54C38.4414 329.54 39.1374 329.446 39.8284 329.247C41.7461 328.698 43.3674 327.41 44.3357 325.666C45.3041 323.922 45.5403 321.865 44.9924 319.947V319.946ZM131.16 398.453C131.977 398.453 132.777 398.441 133.574 398.422C134.562 398.398 135.535 398.178 136.438 397.777C137.34 397.376 138.155 396.801 138.836 396.085C139.516 395.369 140.049 394.526 140.404 393.604C140.758 392.682 140.928 391.699 140.902 390.711C140.801 386.625 137.453 383.383 133.387 383.383H133.191C128.742 383.496 124.062 383.223 119.461 382.563C115.359 381.973 111.535 384.82 110.941 388.933C110.8 389.911 110.854 390.907 111.098 391.864C111.342 392.822 111.772 393.721 112.364 394.512C112.956 395.303 113.698 395.97 114.548 396.473C115.398 396.977 116.338 397.309 117.316 397.449C121.901 398.114 126.528 398.45 131.16 398.453ZM164.516 375.73C162.17 376.907 159.758 377.948 157.293 378.848C156.365 379.188 155.514 379.707 154.786 380.375C154.059 381.044 153.471 381.849 153.055 382.745C152.214 384.554 152.127 386.623 152.813 388.497C153.498 390.371 154.9 391.895 156.709 392.735C158.518 393.576 160.588 393.663 162.461 392.977C165.47 391.877 168.413 390.607 171.277 389.172C173.059 388.275 174.412 386.707 175.037 384.812C175.663 382.918 175.51 380.852 174.613 379.07C174.17 378.188 173.556 377.402 172.809 376.757C172.061 376.111 171.194 375.619 170.256 375.309C169.319 374.999 168.329 374.877 167.344 374.949C166.359 375.021 165.398 375.287 164.516 375.73ZM148.273 429.793C147.569 429.014 146.709 428.391 145.749 427.965C144.788 427.538 143.75 427.317 142.699 427.316H142.695C141.645 427.316 140.606 427.536 139.646 427.962C138.686 428.388 137.826 429.011 137.121 429.789L119.137 449.625C116.347 452.703 116.582 457.461 119.66 460.25C122.738 463.039 127.496 462.809 130.285 459.73L135.152 454.36V478.98C135.141 479.975 135.327 480.963 135.7 481.885C136.073 482.808 136.625 483.647 137.324 484.355C138.024 485.063 138.857 485.625 139.775 486.008C140.693 486.392 141.679 486.589 142.674 486.589C143.669 486.589 144.654 486.392 145.572 486.008C146.491 485.625 147.324 485.063 148.023 484.355C148.723 483.647 149.275 482.808 149.648 481.885C150.021 480.963 150.207 479.975 150.195 478.98V454.348L155.059 459.723C155.764 460.505 156.625 461.129 157.587 461.555C158.548 461.982 159.589 462.201 160.641 462.199C162.438 462.199 164.242 461.559 165.684 460.258C167.163 458.92 168.05 457.048 168.149 455.056C168.249 453.063 167.553 451.113 166.214 449.633L148.273 429.793ZM303.16 429.793C302.455 429.014 301.595 428.391 300.635 427.965C299.675 427.538 298.636 427.317 297.586 427.316H297.582C296.532 427.316 295.493 427.536 294.533 427.962C293.573 428.388 292.713 429.011 292.008 429.789L274.028 449.625C271.234 452.703 271.468 457.461 274.547 460.25C277.626 463.039 282.383 462.809 285.172 459.73L290.039 454.36V478.98C290.027 479.975 290.214 480.963 290.586 481.885C290.959 482.808 291.511 483.647 292.211 484.355C292.911 485.063 293.744 485.625 294.662 486.008C295.58 486.392 296.565 486.589 297.56 486.589C298.555 486.589 299.541 486.392 300.459 486.008C301.377 485.625 302.21 485.063 302.91 484.355C303.609 483.647 304.162 482.808 304.534 481.885C304.907 480.963 305.093 479.975 305.082 478.98V454.348L309.945 459.723C310.649 460.505 311.511 461.129 312.472 461.555C313.434 461.982 314.475 462.201 315.527 462.199C317.324 462.199 319.133 461.559 320.57 460.258C322.049 458.92 322.936 457.048 323.036 455.056C323.136 453.063 322.44 451.113 321.102 449.633L303.16 429.793ZM351.887 124.474C353.172 124.474 354.435 124.143 355.555 123.513C356.417 123.031 357.175 122.383 357.787 121.608C358.398 120.833 358.851 119.944 359.12 118.994C359.388 118.044 359.466 117.05 359.351 116.069C359.235 115.088 358.927 114.14 358.445 113.278C339.973 80.251 337.863 54.3371 339.348 38.4151C340.941 21.2901 346.918 11.7082 346.953 11.6532C347.493 10.8265 347.866 9.9015 348.049 8.93095C348.232 7.96039 348.221 6.9633 348.019 5.99662C347.817 5.02994 347.426 4.11261 346.869 3.297C346.312 2.4814 345.6 1.78351 344.773 1.24318C343.103 0.151704 341.067 -0.231793 339.114 0.17701C337.162 0.585812 335.451 1.75345 334.359 3.42317C333.16 5.25917 305.399 49.2471 345.316 120.623C345.97 121.791 346.923 122.763 348.078 123.44C349.233 124.117 350.547 124.473 351.886 124.473L351.887 124.474Z" fill="black"/>
<path d="M432.902 246.451C419.367 194.919 390.734 157.024 379.055 143.126C378.43 142.376 377.805 141.626 377.188 140.872C375.924 139.329 374.099 138.351 372.114 138.153C370.129 137.955 368.146 138.554 366.602 139.817C365.059 141.082 364.082 142.907 363.885 144.892C363.688 146.878 364.287 148.86 365.551 150.403C366.207 151.208 366.867 152.005 367.535 152.802C378.563 165.922 405.59 201.692 418.352 250.271C434.301 310.997 422.555 369.442 383.438 423.984C373.957 437.204 365.141 450.473 358.516 460.559L332.386 500.348C331.835 501.174 331.453 502.1 331.261 503.074C331.07 504.048 331.073 505.051 331.271 506.023C331.469 506.996 331.857 507.92 332.414 508.742C332.97 509.564 333.684 510.268 334.514 510.813C335.343 511.357 336.273 511.733 337.248 511.917C338.224 512.101 339.226 512.09 340.197 511.884C341.168 511.679 342.089 511.284 342.907 510.721C343.725 510.158 344.423 509.439 344.961 508.605L371.09 468.816C377.633 458.852 386.34 445.75 395.66 432.754C418.34 401.133 432.527 367.7 437.836 333.388C442.238 304.927 440.578 275.678 432.902 246.451ZM81.7198 460.559C75.0988 450.473 66.2818 437.203 56.8018 423.984C15.8219 366.845 4.87191 305.587 24.2589 241.911C24.8389 240.002 24.6377 237.942 23.6995 236.182C22.7612 234.422 21.1626 233.106 19.2549 232.524C18.31 232.236 17.3175 232.137 16.3343 232.232C15.3511 232.328 14.3964 232.616 13.5247 233.081C12.6529 233.546 11.8813 234.178 11.2539 234.941C10.6264 235.704 10.1555 236.583 9.86789 237.528C0.637913 267.848 -2.13608 298.243 1.62591 327.876C6.2309 364.149 20.6809 399.434 44.5788 432.754C53.8988 445.75 62.6058 458.852 69.1458 468.816L95.2777 508.606C95.9619 509.65 96.8956 510.508 97.9944 511.1C99.0932 511.693 100.322 512.002 101.571 512C103.037 512.001 104.471 511.572 105.696 510.766C107.363 509.67 108.526 507.957 108.931 506.004C109.335 504.05 108.947 502.016 107.853 500.348L81.7198 460.559ZM26.6649 213.364C27.5597 213.782 28.5283 214.02 29.5151 214.064C30.502 214.108 31.4879 213.958 32.4165 213.621C33.3451 213.284 34.1982 212.767 34.9271 212.1C35.6561 211.434 36.2465 210.63 36.6648 209.735C49.5668 182.157 64.7818 162.228 72.7048 152.802C78.8558 145.482 84.0597 138.419 88.6147 131.212C137.602 53.6962 107.195 5.43828 105.879 3.42128C103.605 -0.0547091 98.9287 -1.05471 95.4527 1.22329C91.9767 3.49628 90.9837 8.13728 93.2577 11.6133C93.3237 11.7153 99.9097 22.2812 101.098 41.0742C102.688 66.1762 93.9767 94.5661 75.8948 123.172C71.7068 129.801 66.8948 136.328 61.1838 143.122C52.7848 153.113 36.6678 174.222 23.0349 203.359C22.1899 205.167 22.0976 207.237 22.7783 209.113C23.459 210.989 24.857 212.517 26.6649 213.363V213.364Z" fill="black"/>
</svg>
