<svg width="427" height="421" viewBox="0 0 427 421" fill="none" xmlns="http://www.w3.org/2000/svg">
<path d="M332.44 269.605C331.75 268.984 330.834 268.656 329.895 268.712C328.968 268.757 328.086 269.176 327.464 269.877C325.768 271.765 324.23 273.79 322.861 275.927C322.522 276.459 322.33 277.069 322.307 277.703C322.284 278.336 322.431 278.958 322.737 279.512C323.042 280.066 323.483 280.53 324.026 280.846C324.569 281.174 325.191 281.344 325.813 281.344C326.412 281.344 326.989 281.208 327.52 280.914C328.052 280.62 328.482 280.224 328.81 279.716C329.952 277.895 331.264 276.176 332.711 274.581C333.333 273.892 333.661 272.976 333.605 272.037C333.559 271.11 333.141 270.227 332.44 269.605ZM366.841 250.788V250.652C364.331 250.833 361.843 251.195 359.389 251.738C358.461 251.839 357.602 252.314 357.014 253.038C356.426 253.773 356.154 254.7 356.256 255.639C356.358 256.566 356.833 257.426 357.557 258.014C358.292 258.602 359.219 258.873 360.158 258.772C360.406 258.806 360.655 258.806 360.893 258.772C363.019 258.308 365.19 257.991 367.361 257.822C368.289 257.754 369.159 257.313 369.77 256.6C370.381 255.888 370.686 254.972 370.618 254.033C370.55 253.106 370.109 252.235 369.397 251.624C368.684 251.014 367.768 250.708 366.83 250.776L366.841 250.788ZM350.398 258.229C350.206 257.765 349.923 257.335 349.55 256.996C349.188 256.646 348.747 256.385 348.272 256.227C347.797 256.069 347.288 256.012 346.779 256.058C346.282 256.103 345.795 256.261 345.354 256.521V256.657C343.115 257.697 340.944 258.873 338.852 260.174C338.072 260.683 337.529 261.474 337.336 262.39C337.144 263.295 337.325 264.245 337.823 265.025C338.139 265.523 338.58 265.93 339.089 266.213C339.598 266.496 340.186 266.643 340.774 266.643C341.453 266.643 342.109 266.45 342.674 266.077C344.529 264.878 346.463 263.781 348.442 262.809C349.301 262.458 349.991 261.78 350.364 260.92C350.726 260.061 350.737 259.088 350.387 258.229H350.398ZM321.334 287.473C320.871 287.36 320.396 287.349 319.932 287.428C319.469 287.507 319.016 287.677 318.62 287.926C318.225 288.175 317.885 288.514 317.614 288.898C317.342 289.283 317.162 289.724 317.071 290.188V290.21C316.562 292.766 316.313 295.367 316.325 297.979C316.325 298.907 316.698 299.8 317.354 300.467C318.01 301.134 318.903 301.496 319.842 301.496C320.78 301.496 321.662 301.123 322.33 300.467C322.986 299.811 323.359 298.918 323.359 297.979C323.359 295.865 323.562 293.761 323.958 291.692C324.173 290.787 324.015 289.826 323.528 289.034C323.042 288.242 322.25 287.677 321.346 287.462L321.334 287.473ZM195.705 276.018C194.314 273.858 192.776 271.811 191.102 269.866C190.797 269.515 190.424 269.232 190.005 269.029C189.587 268.825 189.135 268.701 188.671 268.678C188.207 268.656 187.744 268.712 187.303 268.87C186.862 269.029 186.466 269.266 186.115 269.572C185.765 269.877 185.493 270.261 185.29 270.68C185.086 271.098 184.973 271.551 184.95 272.014C184.928 272.478 184.996 272.942 185.154 273.383C185.312 273.824 185.55 274.219 185.866 274.57C187.303 276.165 188.614 277.884 189.768 279.704C190.085 280.202 190.537 280.62 191.057 280.903C191.577 281.186 192.165 281.333 192.765 281.333C193.443 281.333 194.099 281.14 194.665 280.767C195.422 280.27 195.954 279.489 196.146 278.607C196.338 277.725 196.191 276.798 195.716 276.018H195.705ZM201.506 290.323C201.359 289.407 200.851 288.582 200.093 288.039C199.335 287.496 198.397 287.27 197.469 287.428L197.356 287.451C196.904 287.541 196.474 287.722 196.09 287.982C195.705 288.242 195.377 288.57 195.128 288.955C194.879 289.339 194.699 289.769 194.608 290.221C194.518 290.674 194.529 291.137 194.608 291.59C195.004 293.705 195.207 295.842 195.207 297.991C195.207 298.918 195.581 299.823 196.237 300.478C196.892 301.134 197.786 301.508 198.724 301.508C199.663 301.508 200.545 301.134 201.212 300.478C201.868 299.823 202.242 298.929 202.242 297.991C202.242 295.423 202.004 292.856 201.506 290.323ZM159.144 251.738C156.701 251.195 154.224 250.822 151.725 250.652C150.798 250.584 149.882 250.889 149.181 251.489C148.479 252.099 148.038 252.959 147.971 253.886C147.903 254.814 148.208 255.73 148.807 256.431C149.418 257.132 150.278 257.573 151.205 257.641C153.376 257.81 155.536 258.127 157.674 258.591C157.922 258.625 158.171 258.625 158.409 258.591C159.223 258.613 160.026 258.342 160.67 257.833C161.315 257.324 161.756 256.612 161.926 255.809C162.095 254.904 161.892 253.965 161.372 253.196C160.851 252.439 160.048 251.907 159.144 251.726V251.738ZM179.68 260.208V260.31C177.6 258.998 175.44 257.833 173.212 256.793C172.816 256.431 172.33 256.171 171.821 256.024C171.301 255.877 170.758 255.854 170.226 255.944C169.695 256.035 169.197 256.261 168.767 256.578C168.338 256.906 167.987 257.313 167.738 257.799C167.49 258.274 167.365 258.806 167.354 259.348C167.354 259.891 167.467 260.423 167.693 260.909C167.931 261.395 168.27 261.825 168.688 262.153C169.107 262.481 169.604 262.718 170.136 262.832C172.115 263.815 174.037 264.912 175.903 266.1C176.469 266.462 177.125 266.665 177.803 266.665C178.561 266.665 179.296 266.416 179.907 265.964C180.517 265.512 180.958 264.867 181.173 264.143C181.388 263.42 181.365 262.639 181.094 261.927C180.834 261.214 180.348 260.615 179.703 260.197L179.68 260.208ZM373.129 175.2C372.982 175.109 372.823 175.03 372.665 174.962H372.529L369.476 173.413C365.348 171.287 360.678 170.45 356.075 171.015C351.472 171.581 347.141 173.515 343.647 176.579C337.235 181.838 329.398 185.05 321.142 185.807C312.887 186.565 304.586 184.835 297.326 180.831C296.546 180.537 295.697 180.526 294.906 180.797C294.125 181.069 293.458 181.612 293.04 182.335C292.621 183.048 292.463 183.896 292.61 184.71C292.746 185.525 293.176 186.271 293.809 186.802C300.877 190.987 308.963 193.135 317.184 193.022C318.733 193.022 320.317 193.022 321.855 192.807C328.075 192.276 334.136 190.568 339.711 187.775H340.062C342.606 187.345 345.219 187.605 347.639 188.521C350.059 189.437 352.185 190.975 353.813 192.977C354.367 193.723 355.204 194.221 356.132 194.345C357.059 194.481 357.986 194.232 358.733 193.678C359.479 193.124 359.977 192.287 360.101 191.36C360.225 190.433 359.988 189.494 359.434 188.759C356.776 185.287 353.09 182.743 348.894 181.521C351.325 179.531 354.288 178.298 357.41 177.97C360.531 177.642 363.686 178.242 366.468 179.689L369.521 181.205C369.917 181.442 370.358 181.6 370.81 181.668C371.263 181.736 371.738 181.713 372.179 181.6C372.631 181.487 373.05 181.295 373.423 181.012C373.796 180.741 374.113 180.39 374.35 179.995C374.588 179.599 374.746 179.158 374.814 178.705C374.882 178.253 374.859 177.778 374.746 177.337C374.633 176.885 374.441 176.466 374.158 176.093C373.886 175.72 373.536 175.403 373.14 175.166L373.129 175.2ZM369.51 124.819C331.094 114.279 299.214 120.883 290.36 141.058C289.986 141.907 289.953 142.879 290.292 143.75C290.631 144.621 291.298 145.322 292.146 145.695C292.587 145.899 293.074 145.989 293.549 145.978C294.227 145.978 294.883 145.774 295.449 145.412C296.014 145.039 296.466 144.519 296.738 143.908C304.122 127.318 333.254 122.252 367.633 131.604C368.074 131.729 368.549 131.763 369.012 131.717C369.476 131.661 369.917 131.514 370.324 131.288C370.731 131.061 371.082 130.756 371.365 130.383C371.647 130.021 371.862 129.603 371.987 129.15C372.111 128.698 372.145 128.234 372.088 127.771C372.032 127.307 371.885 126.866 371.647 126.459C371.421 126.052 371.104 125.701 370.743 125.418C370.369 125.136 369.951 124.932 369.51 124.808V124.819ZM226.838 182.313C226.635 181.793 226.318 181.318 225.9 180.945C225.481 180.571 224.984 180.3 224.441 180.164C223.898 180.028 223.332 180.017 222.79 180.142C222.247 180.266 221.738 180.515 221.308 180.877C214.014 184.903 205.691 186.633 197.401 185.853C189.112 185.072 181.252 181.804 174.852 176.489C171.357 173.481 167.049 171.592 162.468 171.061C157.888 170.518 153.263 171.366 149.158 173.469L146.105 175.019C145.652 175.2 145.256 175.482 144.917 175.833C144.578 176.183 144.318 176.591 144.16 177.043C143.99 177.495 143.922 177.982 143.945 178.468C143.967 178.954 144.103 179.418 144.318 179.848C144.533 180.277 144.838 180.662 145.211 180.967C145.584 181.272 146.014 181.51 146.478 181.634C146.941 181.77 147.428 181.804 147.903 181.747C148.378 181.68 148.841 181.521 149.26 181.272H149.226L152.279 179.757C155.073 178.31 158.216 177.721 161.349 178.049C164.47 178.377 167.433 179.621 169.853 181.623C165.68 182.777 161.982 185.242 159.313 188.657C158.748 189.403 158.51 190.342 158.646 191.269C158.782 192.197 159.268 193.022 160.014 193.588C160.761 194.142 161.699 194.391 162.615 194.255C163.543 194.119 164.368 193.633 164.934 192.887C166.574 190.919 168.7 189.426 171.097 188.544C173.495 187.662 176.084 187.424 178.606 187.865H178.923C184.509 190.659 190.582 192.366 196.813 192.887C198.363 192.887 199.946 193.101 201.45 193.101C209.66 193.226 217.757 191.066 224.825 186.882C225.255 186.712 225.651 186.463 225.99 186.147C226.329 185.83 226.589 185.445 226.782 185.027C226.974 184.609 227.076 184.156 227.087 183.693C227.098 183.229 227.019 182.765 226.861 182.335L226.838 182.313ZM228.218 141.058C219.295 120.883 187.484 114.381 149.068 124.819C148.615 124.932 148.197 125.147 147.835 125.43C147.462 125.712 147.156 126.063 146.93 126.47C146.704 126.877 146.546 127.318 146.489 127.782C146.433 128.245 146.467 128.709 146.591 129.162C146.715 129.614 146.919 130.032 147.213 130.394C147.496 130.756 147.857 131.061 148.253 131.288C148.66 131.514 149.101 131.661 149.565 131.717C150.029 131.774 150.492 131.74 150.933 131.604C185.312 122.252 214.444 127.318 221.794 143.908C222.077 144.53 222.53 145.062 223.106 145.424C223.683 145.797 224.35 145.989 225.029 145.978C225.515 145.978 225.99 145.887 226.431 145.695C226.849 145.503 227.234 145.243 227.551 144.903C227.867 144.564 228.116 144.18 228.286 143.75C228.455 143.32 228.534 142.856 228.523 142.404C228.523 141.94 228.41 141.488 228.229 141.07L228.218 141.058ZM312.039 218.829L312.14 219.044C309.958 218.625 307.753 218.094 305.638 217.495C304.744 217.234 303.783 217.336 302.969 217.789C302.155 218.241 301.544 218.987 301.284 219.881C301.046 220.774 301.171 221.724 301.623 222.516C302.076 223.307 302.822 223.907 303.715 224.167C306.056 224.823 308.397 225.388 310.749 225.852C310.953 225.886 311.179 225.886 311.383 225.852C312.321 225.942 313.249 225.659 313.972 225.06C314.696 224.461 315.149 223.601 315.239 222.674C315.33 221.747 315.047 220.808 314.447 220.096C313.848 219.372 312.989 218.919 312.061 218.829H312.039ZM293.266 212.541C291.604 211.693 289.975 210.754 288.415 209.725C287.634 209.228 286.684 209.058 285.768 209.25C284.864 209.454 284.061 209.997 283.563 210.777C283.065 211.557 282.885 212.507 283.088 213.423C283.292 214.339 283.834 215.131 284.615 215.629C286.334 216.748 288.132 217.811 290.032 218.795C290.529 219.055 291.083 219.18 291.649 219.18C292.44 219.18 293.21 218.919 293.831 218.433C294.453 217.947 294.894 217.268 295.075 216.499C295.256 215.73 295.189 214.927 294.861 214.204C294.533 213.48 293.967 212.903 293.266 212.541ZM370.053 202.262C369.623 202.069 369.171 201.956 368.707 201.934C368.243 201.922 367.78 201.99 367.339 202.16C366.898 202.329 366.502 202.578 366.163 202.895C365.823 203.212 365.552 203.596 365.36 204.026C364.545 205.801 363.448 207.418 362.091 208.809C361.435 209.465 361.074 210.359 361.074 211.286C361.074 212.213 361.435 213.107 362.091 213.763C362.747 214.419 363.641 214.78 364.568 214.78C365.495 214.78 366.389 214.407 367.045 213.763C369.069 211.784 370.72 209.454 371.896 206.876C372.077 206.446 372.179 205.993 372.179 205.53C372.179 205.066 372.1 204.614 371.93 204.184C371.76 203.754 371.5 203.37 371.184 203.031C370.856 202.703 370.483 202.443 370.053 202.25V202.262ZM356.674 217.822C356.516 217.336 356.245 216.895 355.894 216.522C355.544 216.149 355.114 215.866 354.639 215.674C354.164 215.482 353.655 215.402 353.146 215.436C352.637 215.459 352.14 215.606 351.687 215.843L351.585 215.708C349.561 216.545 347.503 217.28 345.4 217.89C344.959 218.015 344.54 218.23 344.178 218.512C343.816 218.795 343.511 219.157 343.285 219.564C343.059 219.971 342.912 220.412 342.866 220.876C342.81 221.34 342.855 221.803 342.98 222.244C343.194 223.002 343.658 223.658 344.303 224.11C344.936 224.574 345.716 224.8 346.497 224.766C346.813 224.811 347.13 224.811 347.446 224.766C349.844 224.088 352.185 223.251 354.481 222.267C354.922 222.12 355.317 221.882 355.668 221.588C356.019 221.283 356.301 220.91 356.505 220.503C356.708 220.084 356.833 219.643 356.867 219.18C356.901 218.716 356.844 218.252 356.686 217.822H356.674ZM332.361 220.175H332.259C330.393 220.175 328.459 220.424 326.525 220.424H325.541C324.603 220.424 323.721 220.797 323.053 221.453C322.398 222.109 322.024 223.002 322.024 223.941C322.024 224.879 322.398 225.761 323.053 226.428C323.709 227.084 324.603 227.458 325.541 227.458H326.627C328.73 227.458 330.845 227.458 332.881 227.209C333.819 227.141 334.679 226.7 335.29 225.999C335.9 225.286 336.206 224.37 336.126 223.432C336.059 222.504 335.617 221.634 334.916 221.023C334.204 220.412 333.288 220.107 332.349 220.175H332.361ZM173.336 217.89H173.314C171.21 217.28 169.152 216.545 167.128 215.708C166.698 215.482 166.223 215.346 165.737 215.301C165.25 215.267 164.764 215.323 164.312 215.482C163.848 215.64 163.43 215.9 163.079 216.228C162.729 216.556 162.435 216.963 162.242 217.404C162.05 217.845 161.948 218.331 161.948 218.818C161.948 219.304 162.061 219.779 162.254 220.231C162.446 220.684 162.74 221.068 163.102 221.396C163.464 221.724 163.882 221.973 164.346 222.131C166.63 223.115 168.982 223.952 171.38 224.63C171.651 224.721 171.934 224.766 172.228 224.766C173.008 224.8 173.789 224.563 174.422 224.11C175.055 223.647 175.519 222.991 175.745 222.244C176.005 221.351 175.892 220.39 175.44 219.575C174.987 218.761 174.23 218.15 173.336 217.902V217.89ZM156.407 208.821C155.05 207.43 153.953 205.813 153.139 204.037C152.766 203.189 152.064 202.522 151.194 202.182C150.323 201.843 149.362 201.866 148.502 202.25C147.688 202.669 147.077 203.392 146.794 204.263C146.512 205.123 146.568 206.073 146.964 206.898C148.038 209.397 149.554 211.682 151.431 213.65C151.759 214 152.155 214.283 152.596 214.475C153.037 214.667 153.512 214.769 153.998 214.769C154.903 214.769 155.774 214.407 156.418 213.785C157.074 213.129 157.436 212.236 157.436 211.309C157.436 210.381 157.074 209.488 156.418 208.832L156.407 208.821ZM234.743 210.585C234.234 209.884 233.488 209.386 232.64 209.205C231.791 209.024 230.909 209.16 230.152 209.59C228.591 210.619 226.963 211.557 225.3 212.406C224.475 212.835 223.841 213.57 223.559 214.452C223.276 215.346 223.355 216.307 223.785 217.133C224.079 217.721 224.531 218.196 225.085 218.535C225.639 218.874 226.273 219.044 226.917 219.044C227.483 219.044 228.026 218.908 228.534 218.659C230.4 217.675 232.221 216.624 233.951 215.493C234.325 215.221 234.641 214.882 234.89 214.486C235.127 214.091 235.297 213.661 235.376 213.197C235.455 212.745 235.433 212.27 235.331 211.829C235.229 211.376 235.037 210.958 234.766 210.585H234.743ZM193.138 220.412H192.12C190.186 220.412 188.253 220.412 186.387 220.163C185.459 220.096 184.532 220.401 183.819 221.012C183.107 221.622 182.677 222.493 182.609 223.42C182.542 224.348 182.847 225.275 183.458 225.987C184.068 226.7 184.939 227.13 185.866 227.197C187.834 227.333 189.949 227.446 192.052 227.446H193.138C194.065 227.446 194.97 227.073 195.626 226.417C196.282 225.761 196.655 224.868 196.655 223.929C196.655 222.991 196.282 222.097 195.626 221.441C194.97 220.785 194.077 220.412 193.138 220.412ZM217.327 220.152C217.305 220.062 217.282 219.971 217.248 219.881C217.124 219.44 216.909 219.021 216.615 218.671C216.321 218.309 215.97 218.015 215.563 217.789C215.156 217.562 214.715 217.427 214.251 217.381C213.788 217.336 213.324 217.381 212.883 217.506C210.78 218.105 208.563 218.625 206.381 219.055C205.453 219.134 204.594 219.587 203.983 220.31C203.384 221.034 203.09 221.962 203.18 222.889C203.259 223.816 203.712 224.687 204.435 225.286C205.148 225.886 206.075 226.18 207.014 226.089C207.24 226.123 207.466 226.123 207.681 226.089C210.045 225.637 212.397 225.071 214.715 224.404C215.167 224.291 215.586 224.099 215.959 223.827C216.332 223.556 216.649 223.217 216.898 222.821C217.135 222.425 217.305 221.995 217.373 221.532C217.441 221.068 217.429 220.616 217.327 220.163V220.152ZM276.156 249.057C275.523 248.515 274.708 248.209 273.871 248.209C273.035 248.209 272.22 248.503 271.587 249.057C264.881 255.775 254.002 255.786 247.284 249.069H247.273C246.595 248.481 245.735 248.175 244.853 248.209C243.971 248.243 243.134 248.605 242.501 249.238C241.868 249.872 241.506 250.708 241.472 251.591C241.438 252.473 241.743 253.343 242.32 254.011C244.57 256.261 247.239 258.037 250.168 259.235C253.108 260.445 256.252 261.056 259.43 261.033C262.608 261.045 265.752 260.434 268.692 259.235C271.632 258.025 274.301 256.25 276.552 254.011C277.162 253.298 277.456 252.382 277.388 251.455C277.321 250.528 276.88 249.657 276.167 249.057H276.156Z" fill="black" stroke="black" stroke-width="5" stroke-miterlimit="10"/>
<path d="M371.297 91.526C359.909 82.4902 322.092 53.5284 311.123 45.2051C312.604 43.5201 314.04 41.6881 315.409 39.9352C323.427 29.3954 331.297 8.30451 331.614 7.45635C331.852 6.60819 331.761 5.70348 331.354 4.91187C330.958 4.13156 330.268 3.52089 329.443 3.21555C328.617 2.91021 327.701 2.93283 326.887 3.26078C326.073 3.60005 325.406 4.22203 325.044 5.02496C325.044 5.23982 317.207 26.1159 309.822 35.6718C289.263 62.485 257.869 80.0588 216.502 87.5113L138.935 103.536C85.693 114.483 51.416 166.526 62.3629 219.756C65.4502 234.775 72.0093 248.854 81.4974 260.887C81.5766 260.966 81.6444 261.067 81.7123 261.169C88.3505 269.006 95.2828 276.809 101.955 284.364C136.684 323.583 169.469 360.63 150.526 391.04C147.79 395.439 134.604 407.844 118.511 406.928C117.572 406.872 116.668 407.2 115.967 407.822C115.277 408.444 114.847 409.315 114.802 410.253C114.745 411.18 115.073 412.096 115.695 412.798C116.317 413.487 117.188 413.917 118.127 413.962H120.343C127.422 413.691 134.355 411.814 140.609 408.489C146.862 405.164 152.291 400.46 156.475 394.737C178.233 359.872 143.718 320.925 107.27 279.693C100.632 272.173 93.7335 264.404 87.0953 256.499C55.8604 216.85 62.6909 159.39 102.34 128.166C109.441 122.569 117.335 118.056 125.76 114.788V223.748C125.794 238.031 128.746 252.156 134.434 265.252C140.134 278.347 148.446 290.142 158.861 299.913L223.57 360.302C231.497 367.676 241.913 371.781 252.747 371.792H265.82C276.744 371.803 287.261 367.653 295.234 360.189L335.832 322.576V338.431C335.776 366.296 344.438 393.482 360.61 416.179C360.938 416.643 361.368 417.027 361.865 417.287C362.363 417.547 362.928 417.694 363.494 417.694C364.217 417.694 364.919 417.468 365.495 417.027C366.253 416.484 366.762 415.67 366.92 414.754C367.079 413.838 366.864 412.899 366.332 412.142C350.997 390.587 342.787 364.78 342.855 338.329V318.12C342.832 317.498 342.651 316.888 342.324 316.368L359.897 299.958C370.313 290.188 378.625 278.393 384.313 265.297C390.001 252.201 392.942 238.077 392.976 223.794V124.887C421.282 165.893 425.183 218.999 403.199 263.725C402.803 264.562 402.746 265.523 403.063 266.405C403.368 267.276 404.013 268 404.85 268.407C405.325 268.667 405.856 268.803 406.399 268.791C407.055 268.791 407.688 268.599 408.243 268.249C408.797 267.898 409.238 267.4 409.532 266.824C439.297 206.616 423.204 132.803 371.285 91.5373L371.297 91.526ZM385.953 116.835V223.794C385.93 237.115 383.182 250.29 377.878 262.504C372.575 274.717 364.817 285.721 355.091 294.824L290.416 355.213C283.744 361.456 274.946 364.927 265.808 364.916H252.735C243.598 364.916 234.8 361.456 228.127 355.213L163.418 294.824C153.693 285.721 145.935 274.717 140.62 262.504C135.305 250.29 132.545 237.115 132.523 223.794V112.447C135.09 111.678 137.691 110.966 140.326 110.446L217.859 94.4549C255.325 87.4209 285.022 72.7647 306.362 50.4524C316.585 58.2555 355.566 87.9184 366.92 97.056C373.966 102.665 380.423 108.975 386.179 115.896C386.043 116.202 385.964 116.518 385.93 116.846L385.953 116.835ZM88.2601 23.4809C87.525 22.9155 86.5977 22.6554 85.6817 22.7685C84.7543 22.8815 83.9175 23.3565 83.3408 24.0803C72.8914 37.9449 65.4728 53.845 61.56 70.7517C57.6472 87.6583 57.3305 105.21 60.6327 122.252C60.7797 123.078 61.2094 123.824 61.854 124.355C62.4986 124.887 63.3129 125.181 64.1497 125.17H64.783C65.2354 125.09 65.6764 124.921 66.0609 124.672C66.4454 124.423 66.7847 124.107 67.0561 123.722C67.3162 123.349 67.5084 122.919 67.6102 122.467C67.712 122.014 67.7233 121.551 67.6441 121.098C64.4777 105.017 64.7378 88.4613 68.4018 72.4933C72.0546 56.5252 79.0321 41.5071 88.8821 28.4116C89.4475 27.6765 89.7076 26.7492 89.5945 25.8331C89.4814 24.9058 89.0065 24.069 88.2827 23.4922L88.2601 23.4809ZM86.6882 96.3209H86.6768C86.2358 96.1399 85.7721 96.0495 85.2972 96.0495C84.8222 96.0495 84.3585 96.1513 83.9288 96.3435C83.4991 96.5358 83.1033 96.8072 82.7866 97.1577C82.4587 97.497 82.2099 97.9041 82.0515 98.3565C78.5684 106.702 75.9335 115.376 74.2145 124.265C74.0336 125.181 74.2372 126.12 74.7574 126.9C75.2776 127.669 76.0805 128.2 76.9965 128.381C77.2227 128.415 77.4376 128.415 77.6637 128.381C78.4893 128.393 79.2922 128.121 79.9368 127.601C80.5814 127.081 81.0224 126.346 81.1808 125.532C82.8205 117.106 85.3085 108.862 88.5993 100.924C88.7803 100.494 88.8708 100.041 88.8708 99.5778C88.8708 99.1142 88.7803 98.6618 88.6106 98.2321C88.441 97.8023 88.1809 97.4178 87.853 97.0899C87.525 96.7619 87.1405 96.5018 86.7108 96.3209H86.6882Z" fill="black" stroke="black" stroke-width="5" stroke-miterlimit="10"/>
<path d="M261.76 38.3633C261.454 37.9788 261.059 37.6621 260.618 37.436C260.177 37.2098 259.69 37.0854 259.193 37.0515C258.695 37.0288 258.197 37.108 257.734 37.2889C257.27 37.4699 256.852 37.7526 256.501 38.1032C243.078 49.9661 226.589 57.8257 208.914 60.7773C208.461 60.8565 208.032 61.0374 207.636 61.2862C207.251 61.535 206.912 61.863 206.652 62.2475C206.392 62.632 206.211 63.0617 206.109 63.5027C206.019 63.9551 206.007 64.4188 206.087 64.8711C206.245 65.6967 206.686 66.4317 207.319 66.9519C207.964 67.4721 208.767 67.7549 209.592 67.7322L210.192 67.6983C229.145 64.5205 246.821 56.0616 261.194 43.3052C261.918 42.7172 262.382 41.869 262.484 40.9417C262.585 40.0144 262.314 39.087 261.726 38.3633H261.76ZM279.209 14.0607C278.813 13.8345 278.361 13.6762 277.909 13.6196C277.445 13.5631 276.981 13.597 276.54 13.7101C276.088 13.8345 275.67 14.0381 275.308 14.3208C274.946 14.6035 274.629 14.9541 274.403 15.3612C272.413 18.8669 270.207 22.2482 267.799 25.4826C267.245 26.2289 266.996 27.1676 267.131 28.0836C267.267 29.0109 267.753 29.8365 268.5 30.4019C269.11 30.8429 269.857 31.0804 270.603 31.0691C271.157 31.0917 271.7 30.9786 272.209 30.7412C272.707 30.5037 273.148 30.1644 273.487 29.7347C276.065 26.2742 278.406 22.6441 280.521 18.8782C280.747 18.4824 280.906 18.0301 280.962 17.5777C281.019 17.1141 280.996 16.6504 280.872 16.2093C280.747 15.757 280.544 15.3386 280.261 14.9767C279.978 14.6148 279.628 14.2982 279.221 14.072L279.209 14.0607ZM77.2906 325.889L43.5791 311.233C25.4059 303.181 13.7691 290.142 9.94674 273.552C9.73187 272.648 9.17774 271.856 8.38613 271.358C7.59451 270.861 6.64457 270.703 5.72856 270.917C4.82386 271.121 4.03224 271.686 3.53465 272.478C3.03707 273.27 2.87874 274.22 3.09361 275.136C6.07913 288.31 15.0809 306.348 40.7067 317.702L74.4521 332.392C110.719 348.134 127.671 366.522 124.822 387.014C124.754 387.466 124.788 387.941 124.901 388.382C125.014 388.834 125.217 389.253 125.5 389.615C125.783 389.976 126.122 390.293 126.518 390.531C126.914 390.768 127.355 390.915 127.818 390.983H127.852H128.339C129.198 390.983 130.024 390.678 130.679 390.123C131.324 389.558 131.743 388.778 131.856 387.93C135.158 363.955 116.815 343.079 77.3019 325.889H77.2906ZM259.419 183.331C258.492 183.331 257.598 183.704 256.931 184.36C256.275 185.016 255.902 185.909 255.902 186.848V193.871C255.902 194.809 256.275 195.703 256.931 196.359C257.587 197.014 258.48 197.388 259.419 197.388C260.357 197.388 261.251 197.014 261.907 196.359C262.563 195.703 262.936 194.809 262.936 193.871V186.848C262.936 184.903 261.364 183.331 259.419 183.331ZM259.419 162.251C258.492 162.251 257.598 162.624 256.931 163.28C256.275 163.936 255.902 164.83 255.902 165.768V172.802C255.902 173.73 256.275 174.623 256.931 175.29C257.587 175.946 258.48 176.319 259.419 176.319C260.357 176.319 261.251 175.946 261.907 175.29C262.563 174.634 262.936 173.741 262.936 172.802V165.768C262.936 163.823 261.364 162.251 259.419 162.251ZM259.419 204.422C258.492 204.422 257.598 204.795 256.931 205.451C256.275 206.107 255.902 207 255.902 207.939V214.973C255.902 215.9 256.275 216.794 256.931 217.461C257.587 218.117 258.48 218.49 259.419 218.49C260.357 218.49 261.251 218.117 261.907 217.461C262.563 216.805 262.936 215.911 262.936 214.973V207.939C262.936 205.994 261.364 204.422 259.419 204.422ZM298.615 295.458C293.277 286.23 284.852 279.173 274.821 275.531C272.729 274.785 270.501 274.514 268.296 274.728C266.091 274.943 263.954 275.656 262.065 276.798C261.217 277.273 260.256 277.522 259.283 277.522C258.311 277.522 257.349 277.273 256.501 276.798C254.613 275.645 252.475 274.932 250.27 274.706C248.065 274.48 245.837 274.751 243.745 275.498C233.714 279.15 225.289 286.218 219.951 295.458C219.646 295.989 219.476 296.6 219.476 297.21C219.476 297.821 219.634 298.432 219.951 298.963C232.56 320.687 260.403 328.072 282.127 315.451C288.969 311.482 294.646 305.794 298.615 298.963C298.92 298.432 299.09 297.821 299.09 297.21C299.09 296.6 298.932 295.989 298.615 295.458ZM259.419 314.615C253.041 314.615 246.764 313.031 241.144 310.001C235.535 306.97 230.762 302.593 227.257 297.256C231.78 290.289 238.464 284.986 246.267 282.147C247.375 281.751 248.551 281.616 249.716 281.74C250.881 281.864 252.012 282.238 253.007 282.848C254.952 283.968 257.157 284.556 259.408 284.556C261.658 284.556 263.863 283.968 265.808 282.848C266.815 282.238 267.934 281.853 269.099 281.74C270.264 281.616 271.451 281.763 272.548 282.147C280.363 284.986 287.035 290.289 291.558 297.256C288.064 302.593 283.292 306.97 277.671 310.001C272.062 313.031 265.774 314.615 259.396 314.615H259.419Z" fill="black" stroke="black" stroke-width="5" stroke-miterlimit="10"/>
</svg>
