<svg width="379" height="443" viewBox="0 0 379 443" fill="none" xmlns="http://www.w3.org/2000/svg">
<path d="M149.728 406.29C149.382 406.013 112.366 381.797 114.096 332.673C114.129 331.756 113.799 330.863 113.177 330.189C112.555 329.515 111.691 329.114 110.775 329.075C109.864 329.064 108.984 329.402 108.315 330.019C107.646 330.637 107.239 331.487 107.177 332.396C105.309 385.464 144.331 411.064 145.992 412.102C146.545 412.448 147.237 412.655 147.86 412.655C148.606 412.653 149.331 412.41 149.928 411.962C150.525 411.515 150.96 410.886 151.171 410.17C151.381 409.454 151.354 408.69 151.094 407.99C150.834 407.291 150.355 406.695 149.728 406.29ZM288.522 287.907C286.654 288.253 285.408 290.052 285.754 291.92C289.144 310.67 285.339 331.427 275.376 348.724C274.407 350.385 274.961 352.461 276.621 353.429C277.175 353.706 277.728 353.914 278.351 353.914C279.527 353.914 280.703 353.291 281.326 352.184C292.119 333.434 296.132 311.016 292.535 290.675C292.355 289.783 291.836 288.996 291.087 288.48C290.339 287.964 289.419 287.758 288.522 287.907Z" fill="black"/>
<path d="M370.857 156.379C359.302 113.966 322.078 13.9872 226.32 1.87914C168.963 -5.45491 85.3821 7.96779 37.5724 54.7397C16.6081 75.2197 3.11619 103.726 0.556187 132.993C-2.14219 163.505 4.9843 190.696 21.7973 213.944C21.7973 214.013 21.8665 214.013 21.8665 214.013C16.7465 239.336 18.5454 267.012 27.8167 292.82C43.1767 335.648 66.8394 367.336 100.05 389.685C123.644 423.38 157.339 442.753 192.695 442.753C228.742 442.753 261.192 422.965 283.955 391.345C284.509 391.276 285.062 391.207 285.546 390.861C321.94 365.538 350.308 328.66 365.391 287.215C380.543 245.425 382.48 198.999 370.857 156.379ZM192.695 435.834C159.899 435.834 128.487 417.845 106.208 386.433V386.225C94.1 356.889 87.1811 328.798 84.4827 297.801C82.9605 280.158 84.0675 264.175 87.6654 249.922C90.8481 269.71 107.938 284.863 128.556 284.863C151.458 284.863 170.07 266.251 170.07 243.349C170.062 236.504 168.363 229.766 165.124 223.735C161.884 217.704 157.205 212.567 151.501 208.781C145.798 204.994 139.247 202.676 132.432 202.032C125.616 201.387 118.747 202.437 112.435 205.088C127.242 190.212 147.583 179.903 173.252 174.714C180.725 173.192 188.889 171.877 197.33 170.493C217.741 167.172 240.228 163.436 260.5 156.171C292.189 184.539 310.385 230.203 310.385 281.819C310.455 366.783 257.663 435.834 192.695 435.834ZM128.556 208.824C147.583 208.824 163.151 224.322 163.151 243.419C163.151 262.515 147.652 278.013 128.556 278.013C109.46 278.013 93.9616 262.515 93.9616 243.419C94.0308 224.322 109.529 208.824 128.556 208.824ZM358.956 284.794C346.087 320.219 323.185 351.976 293.849 375.847C305.957 354.19 313.983 328.59 316.543 300.776C328.167 263.691 329.205 218.58 319.172 185.576C318.619 183.778 316.682 182.74 314.883 183.293C313.084 183.847 312.046 185.784 312.599 187.583C319.588 210.485 320.902 239.475 316.889 267.289C313.845 221.14 296.409 180.456 267.765 153.473C292.258 143.371 312.461 127.181 320.072 98.744C320.305 97.8634 320.182 96.9262 319.728 96.136C319.275 95.3458 318.528 94.7664 317.65 94.5235C316.77 94.2901 315.832 94.4135 315.042 94.8668C314.252 95.3202 313.673 96.067 313.43 96.9451C300.145 146.692 242.58 156.102 196.362 163.713C187.851 165.096 179.618 166.48 172.007 168.002C104.963 181.494 71.4751 227.782 77.6329 298.424C80.0546 326.307 85.7973 351.838 95.5529 377.992C67.9464 356.889 47.8124 328.175 34.3205 290.467C19.7216 249.784 24.3573 204.534 46.3594 172.292C63.034 147.938 90.2946 129.187 123.159 119.57C150.212 111.682 181.348 109.468 218.433 112.789C218.883 112.83 219.336 112.782 219.767 112.648C220.198 112.514 220.599 112.296 220.946 112.006C221.293 111.717 221.579 111.363 221.789 110.963C221.999 110.563 222.128 110.126 222.169 109.676C222.21 109.226 222.162 108.773 222.028 108.342C221.893 107.91 221.675 107.51 221.386 107.163C221.097 106.816 220.742 106.529 220.343 106.32C219.943 106.11 219.505 105.981 219.056 105.94C181.071 102.48 149.105 104.763 121.222 112.928C114.096 115.003 107.315 117.563 100.742 120.469C115.964 102.619 138.035 90.1646 161.213 87.2586C163.082 87.051 164.465 85.3213 164.189 83.384C163.912 81.4467 162.251 80.1321 160.314 80.4089C130.424 84.1451 103.164 101.581 87.181 127.112C73.1356 134.861 60.82 144.547 50.7875 155.687C58.6059 135.76 67.8773 120.054 78.9475 108.085C80.2621 106.701 80.1238 104.487 78.74 103.172C77.3562 101.858 75.1421 101.927 73.8275 103.38C58.6059 119.916 46.567 142.887 37.1573 173.676C31.4146 183.224 26.9865 193.672 23.8729 204.673C10.5886 183.985 4.91511 160.115 7.26754 133.477C9.68916 105.87 22.42 78.8867 42.2773 59.5829C88.4956 14.4024 169.585 1.53319 225.352 8.65968C317.097 20.3527 353.006 117.148 364.215 158.178C375.423 199.483 373.555 244.387 358.956 284.794Z" fill="black"/>
<path d="M255.103 232.141C255.873 231.645 256.414 230.863 256.609 229.968C256.803 229.073 256.635 228.138 256.141 227.367L253.581 223.354C252.543 221.763 250.398 221.278 248.807 222.316C247.215 223.354 246.731 225.499 247.769 227.09L250.329 231.103C251.021 232.141 252.128 232.694 253.235 232.694C253.858 232.694 254.549 232.556 255.103 232.141ZM267.972 229.581C268.387 229.581 268.802 229.512 269.218 229.373L273.646 227.713C275.445 227.021 276.344 225.014 275.652 223.285C275.495 222.861 275.255 222.473 274.946 222.143C274.638 221.812 274.268 221.546 273.856 221.36C273.444 221.173 273 221.07 272.548 221.056C272.096 221.042 271.646 221.117 271.224 221.278L266.796 222.939C264.997 223.631 264.098 225.637 264.789 227.367C265.205 228.681 266.519 229.581 267.972 229.581ZM257.386 238.368L252.958 240.028C252.196 240.306 251.557 240.846 251.155 241.55C250.753 242.255 250.614 243.08 250.764 243.878C250.913 244.675 251.341 245.394 251.971 245.905C252.601 246.417 253.392 246.688 254.204 246.671C254.619 246.671 255.034 246.601 255.449 246.463L259.877 244.803C261.676 244.111 262.575 242.104 261.884 240.374C261.72 239.947 261.474 239.556 261.16 239.224C260.845 238.892 260.468 238.625 260.051 238.439C259.633 238.253 259.183 238.15 258.726 238.138C258.268 238.126 257.813 238.204 257.386 238.368ZM245.278 234.978L241.058 232.833C239.328 231.933 237.252 232.625 236.422 234.355C235.592 236.085 236.284 238.16 237.944 238.991L242.165 241.135C242.992 241.532 243.941 241.587 244.808 241.289C245.675 240.991 246.391 240.365 246.8 239.544C247.012 239.147 247.14 238.71 247.178 238.262C247.215 237.813 247.161 237.361 247.019 236.934C246.876 236.507 246.649 236.114 246.349 235.777C246.05 235.441 245.686 235.169 245.278 234.978ZM242.026 249.577C241.404 247.778 239.466 246.74 237.667 247.362C235.868 247.985 234.9 249.923 235.453 251.721L236.906 256.219C237.048 256.648 237.274 257.045 237.571 257.386C237.868 257.727 238.23 258.006 238.636 258.206C239.042 258.405 239.483 258.522 239.935 258.549C240.386 258.576 240.838 258.513 241.265 258.364C243.064 257.741 244.033 255.804 243.479 254.005L242.026 249.577ZM253.65 254.281C253.202 254.348 252.772 254.504 252.386 254.74C251.999 254.976 251.664 255.287 251.399 255.655C251.135 256.022 250.947 256.439 250.846 256.881C250.746 257.322 250.734 257.779 250.813 258.225L251.574 262.93C251.851 264.66 253.304 265.836 254.965 265.836C255.172 265.836 255.311 265.836 255.518 265.767C257.386 265.49 258.701 263.691 258.355 261.823L257.594 257.118C257.444 256.22 256.946 255.418 256.207 254.887C255.468 254.355 254.549 254.137 253.65 254.281ZM269.079 251.168C267.834 249.715 265.689 249.507 264.236 250.753C262.783 251.998 262.575 254.143 263.821 255.596L266.865 259.194C267.154 259.542 267.509 259.829 267.91 260.039C268.311 260.249 268.749 260.377 269.2 260.415C269.651 260.454 270.104 260.403 270.535 260.264C270.966 260.126 271.365 259.903 271.708 259.609C273.161 258.364 273.369 256.219 272.124 254.766L269.079 251.168ZM274.268 236.569C273.023 235.116 270.878 234.908 269.425 236.154C267.972 237.399 267.765 239.544 269.01 241.066L272.054 244.664C272.343 245.012 272.698 245.3 273.099 245.509C273.5 245.719 273.938 245.847 274.389 245.886C274.84 245.924 275.294 245.873 275.724 245.735C276.155 245.596 276.554 245.373 276.898 245.079C278.351 243.834 278.558 241.689 277.313 240.167L274.268 236.569Z" fill="black"/>
<path d="M298.208 243.419C298.208 220.517 279.596 201.905 256.695 201.905C233.793 201.905 215.181 220.517 215.181 243.419C215.181 266.32 233.793 284.932 256.695 284.932C279.596 284.932 298.208 266.251 298.208 243.419ZM256.695 277.944C237.667 277.944 222.1 262.446 222.1 243.35C222.1 224.323 237.598 208.755 256.695 208.755C275.791 208.755 291.289 224.253 291.289 243.35C291.289 262.446 275.791 277.944 256.695 277.944ZM122.191 231.103C122.883 232.141 123.99 232.694 125.097 232.694C125.717 232.693 126.326 232.526 126.859 232.208C127.393 231.891 127.831 231.436 128.128 230.892C128.425 230.347 128.57 229.732 128.548 229.112C128.526 228.492 128.338 227.889 128.003 227.367L125.512 223.423C124.474 221.832 122.329 221.347 120.738 222.385C119.146 223.423 118.662 225.568 119.7 227.159L122.191 231.103ZM139.834 229.581C140.249 229.581 140.664 229.512 141.079 229.373L145.508 227.713C147.306 227.021 148.206 225.014 147.514 223.285C147.182 222.44 146.534 221.757 145.707 221.383C144.88 221.008 143.94 220.971 143.086 221.278L138.658 222.939C137.901 223.215 137.267 223.748 136.865 224.446C136.463 225.144 136.319 225.961 136.46 226.753C136.6 227.546 137.015 228.264 137.632 228.781C138.249 229.298 139.029 229.581 139.834 229.581ZM122.813 244.457C123.367 245.84 124.682 246.671 126.065 246.671C126.48 246.671 126.896 246.602 127.311 246.463L131.739 244.803C133.538 244.111 134.437 242.104 133.745 240.374C133.414 239.529 132.765 238.847 131.939 238.472C131.112 238.098 130.171 238.06 129.317 238.368L124.82 240.029C123.09 240.72 122.191 242.658 122.813 244.457ZM109.806 238.991L114.026 241.136C114.839 241.458 115.744 241.463 116.561 241.151C117.377 240.839 118.048 240.232 118.439 239.45C118.83 238.668 118.913 237.767 118.673 236.926C118.432 236.086 117.885 235.366 117.14 234.909L112.919 232.764C112.517 232.549 112.076 232.418 111.621 232.379C111.167 232.339 110.71 232.392 110.276 232.535C109.843 232.677 109.443 232.905 109.101 233.206C108.758 233.507 108.48 233.874 108.284 234.286C107.384 236.085 108.076 238.16 109.806 238.991ZM108.837 256.288C108.979 256.717 109.205 257.114 109.502 257.456C109.799 257.797 110.161 258.075 110.567 258.275C110.973 258.475 111.414 258.591 111.866 258.619C112.317 258.646 112.769 258.583 113.196 258.433C114.995 257.81 115.964 255.873 115.41 254.074L113.888 249.577C113.265 247.778 111.328 246.74 109.529 247.363C107.73 247.985 106.762 249.923 107.315 251.721L108.837 256.288ZM125.512 254.281C125.064 254.348 124.634 254.505 124.248 254.74C123.861 254.976 123.526 255.287 123.261 255.655C122.997 256.022 122.809 256.439 122.708 256.881C122.607 257.322 122.596 257.779 122.675 258.225L123.436 262.93C123.713 264.66 125.166 265.836 126.826 265.836C127.034 265.836 127.172 265.836 127.38 265.767C129.248 265.49 130.563 263.691 130.217 261.823L129.456 257.118C129.306 256.22 128.808 255.418 128.069 254.887C127.33 254.355 126.411 254.138 125.512 254.281ZM138.727 259.263C139.016 259.611 139.371 259.899 139.772 260.108C140.172 260.318 140.611 260.446 141.062 260.485C141.512 260.523 141.966 260.472 142.397 260.333C142.828 260.195 143.226 259.972 143.57 259.678C145.023 258.433 145.231 256.288 143.985 254.835L140.941 251.237C139.696 249.784 137.551 249.577 136.098 250.822C134.645 252.067 134.437 254.212 135.683 255.665L138.727 259.263ZM141.287 236.154C139.834 237.399 139.626 239.544 140.872 241.066L143.916 244.664C144.205 245.012 144.56 245.3 144.961 245.51C145.362 245.719 145.8 245.847 146.251 245.886C146.702 245.924 147.155 245.873 147.586 245.735C148.017 245.596 148.416 245.373 148.759 245.079C150.212 243.834 150.42 241.689 149.175 240.167L146.13 236.569C145.841 236.222 145.486 235.935 145.085 235.726C144.684 235.517 144.246 235.389 143.795 235.35C143.345 235.312 142.891 235.363 142.461 235.501C142.03 235.639 141.631 235.861 141.287 236.154ZM192.625 333.296C198.368 333.296 204.111 331.289 209.715 327.207C211.237 326.1 211.583 323.955 210.476 322.364C209.928 321.629 209.115 321.139 208.21 320.997C207.304 320.854 206.38 321.072 205.633 321.603C196.708 328.037 188.405 328.037 179.549 321.603C178.026 320.496 175.812 320.841 174.705 322.364C173.598 323.886 173.944 326.1 175.466 327.207C181.14 331.289 186.883 333.296 192.625 333.296ZM238.636 357.304C234.554 355.782 230.264 354.675 225.767 353.499C220.37 352.115 214.835 350.731 208.677 348.379C204.457 346.787 200.029 346.995 196.292 349.14C194.009 350.454 191.311 350.454 189.027 349.14C185.222 347.064 180.794 346.787 176.573 348.379C170.416 350.731 164.88 352.115 159.484 353.499C154.917 354.675 150.628 355.713 146.615 357.304C145.577 357.65 144.816 358.48 144.539 359.518C144.262 360.556 144.4 361.663 145.023 362.563C157.546 379.791 172.215 387.54 192.625 387.678C213.036 387.54 227.704 379.791 240.228 362.563C240.538 362.131 240.744 361.634 240.832 361.11C240.919 360.586 240.884 360.049 240.73 359.54C240.576 359.032 240.307 358.566 239.944 358.178C239.581 357.79 239.133 357.491 238.636 357.304ZM179.064 354.883C181.348 353.983 183.631 354.121 185.637 355.229C189.996 357.65 195.255 357.65 199.613 355.229C201.551 354.121 203.903 354.052 206.186 354.883C212.69 357.443 218.779 358.896 224.106 360.279C224.176 360.279 224.245 360.349 224.383 360.349C203.28 365.123 182.039 365.123 160.937 360.349C161.006 360.349 161.144 360.279 161.213 360.279C166.541 358.896 172.56 357.373 179.064 354.883ZM192.625 380.759C178.165 380.69 166.956 376.262 157.408 366.576C169.101 369.412 180.863 370.934 192.625 370.934C204.388 370.934 216.08 369.343 227.773 366.576C218.225 376.262 207.086 380.69 192.625 380.759Z" fill="black"/>
</svg>
