<svg width="512" height="428" viewBox="0 0 512 428" fill="none" xmlns="http://www.w3.org/2000/svg">
<path d="M509.69 388.937C508.089 386.042 505.742 383.63 502.892 381.95C500.043 380.27 496.796 379.384 493.488 379.384H467.258V365.227C467.258 361.085 463.901 357.726 459.758 357.726C455.615 357.726 452.257 361.085 452.257 365.227V379.384H404.766V201.863C404.766 186.698 392.428 174.361 377.264 174.361H319.589C308.284 174.361 299.087 183.558 299.087 194.862L299.086 199.805C299.083 205.316 294.598 209.8 289.086 209.8C283.575 209.8 279.089 205.316 279.086 199.809V194.863C279.086 183.558 269.889 174.361 258.584 174.361H215.465C204.16 174.361 194.964 183.558 194.964 194.863L194.963 298.697V298.788C194.923 302.889 191.573 306.214 187.462 306.214C183.335 306.214 179.976 302.862 179.962 298.738V194.863C179.962 183.558 170.765 174.361 159.46 174.361H62.2411C61.5782 174.36 60.9428 174.097 60.4741 173.628C60.0054 173.159 59.7417 172.524 59.7409 171.861V158.657C59.7409 157.279 60.863 156.157 62.2411 156.157H98.8607C100.85 156.157 102.758 155.367 104.164 153.96C105.571 152.553 106.361 150.646 106.361 148.656C106.361 146.667 105.571 144.759 104.164 143.353C102.758 141.946 100.85 141.156 98.8607 141.156H62.2411C52.5914 141.156 44.7398 149.007 44.7398 158.657V171.861C44.7398 178.564 48.5321 184.393 54.0805 187.331V379.384H18.5109C15.2034 379.384 11.9563 380.27 9.10702 381.95C6.25776 383.63 3.91036 386.042 2.30875 388.936C0.710237 391.827 -0.0845138 395.095 0.00711558 398.397C0.098745 401.7 1.07341 404.918 2.82978 407.717L10.0283 419.187C11.5981 421.704 13.7846 423.778 16.3806 425.213C18.9766 426.648 21.8961 427.397 24.8624 427.387H487.138C493.203 427.387 498.749 424.322 501.971 419.187L509.17 407.717C510.926 404.918 511.901 401.7 511.992 398.398C512.084 395.095 511.289 391.828 509.69 388.937ZM215.465 189.362H258.585C261.617 189.362 264.086 191.829 264.086 194.864L264.087 199.812C264.094 213.59 275.309 224.8 289.087 224.8C302.864 224.8 314.08 213.591 314.089 199.808V194.862C314.089 191.828 316.556 189.361 319.59 189.361H377.265C384.158 189.361 389.766 194.969 389.766 201.862V239.864H354.103C349.96 239.864 346.603 243.222 346.603 247.364C346.603 251.507 349.96 254.865 354.103 254.865H389.766V269.866H209.965V254.865H318.994C323.137 254.865 326.494 251.507 326.494 247.364C326.494 243.222 323.137 239.864 318.994 239.864H209.965V194.862C209.967 193.404 210.547 192.006 211.578 190.975C212.609 189.944 214.007 189.364 215.465 189.362ZM187.463 321.215C199.871 321.215 209.965 311.121 209.965 298.713V284.868H389.766V327.314C382.208 328.251 377.403 330.529 373.057 332.601C368.05 334.987 364.096 336.872 355.3 336.872C346.505 336.872 342.55 334.988 337.544 332.601C331.909 329.914 325.522 326.871 313.334 326.871C301.147 326.871 294.762 329.915 289.126 332.602C284.121 334.988 280.168 336.872 271.374 336.872C262.58 336.872 258.626 334.988 253.621 332.602C247.986 329.915 241.599 326.871 229.413 326.871C217.227 326.871 210.841 329.915 205.205 332.602C200.2 334.988 196.247 336.872 187.453 336.872C178.659 336.872 174.706 334.988 169.701 332.602C164.066 329.915 157.68 326.871 145.494 326.871C133.309 326.871 126.924 329.915 121.289 332.602C116.285 334.988 112.332 336.872 103.54 336.872C94.7464 336.872 90.7931 334.988 85.7878 332.602C81.4425 330.529 76.6371 328.251 69.0816 327.314V284.868H164.961V298.713C164.961 311.121 175.055 321.215 187.463 321.215ZM164.961 269.867H69.0816V254.866H164.961V269.867ZM164.961 194.863V239.865H69.0816V189.362H159.461C162.493 189.362 164.961 191.83 164.961 194.863ZM496.464 399.742L489.265 411.213C489.04 411.574 488.726 411.871 488.354 412.076C487.981 412.281 487.563 412.388 487.138 412.386H24.8624C24.437 412.388 24.0183 412.281 23.6458 412.076C23.2734 411.87 22.9596 411.573 22.7342 411.212L15.5347 399.742C14.5816 398.224 15.0637 396.868 15.4357 396.195C15.7367 395.651 16.6388 394.385 18.5109 394.385H137.033C139.023 394.385 140.931 393.595 142.337 392.188C143.744 390.782 144.534 388.874 144.534 386.884C144.534 384.895 143.744 382.987 142.337 381.581C140.931 380.174 139.023 379.384 137.033 379.384H69.0816V342.473C73.1699 343.213 76.0251 344.566 79.3323 346.143C84.9667 348.829 91.3542 351.873 103.54 351.873C115.725 351.873 122.11 348.829 127.745 346.143C132.749 343.756 136.702 341.872 145.494 341.872C154.288 341.872 158.241 343.756 163.246 346.143C168.881 348.829 175.267 351.873 187.453 351.873C199.639 351.873 206.025 348.829 211.66 346.143C216.665 343.756 220.618 341.872 229.412 341.872C238.206 341.872 242.16 343.756 247.165 346.143C252.8 348.829 259.187 351.873 271.374 351.873C283.561 351.873 289.947 348.829 295.582 346.143C300.587 343.756 304.541 341.872 313.334 341.872C322.13 341.872 326.084 343.756 331.09 346.144C336.726 348.83 343.112 351.873 355.3 351.873C367.488 351.873 373.875 348.829 379.51 346.144C382.818 344.566 385.675 343.212 389.766 342.473V379.384H172.015C170.026 379.384 168.118 380.174 166.711 381.581C165.305 382.987 164.514 384.895 164.514 386.884C164.514 388.874 165.305 390.782 166.711 392.188C168.118 393.595 170.026 394.385 172.015 394.385H493.488C495.359 394.385 496.261 395.651 496.562 396.196C496.934 396.869 497.417 398.224 496.464 399.742Z" fill="black"/>
<path d="M133.97 156.157H359.58C370.861 156.157 381.156 149.125 385.195 138.66C389.673 127.056 398.876 113.298 417.206 113.371C436.514 113.498 452.225 129.164 452.259 148.309L452.252 148.569C452.251 148.703 452.253 148.836 452.259 148.968V330.161C452.259 334.304 455.616 337.662 459.759 337.662C463.903 337.662 467.26 334.304 467.26 330.161V148.648L467.259 148.517L467.26 148.373C467.26 120.983 444.851 98.5517 417.306 98.3697L416.958 98.3687C396.13 98.3687 379.888 110.748 371.2 133.258C369.377 137.982 364.707 141.155 359.58 141.155H260.916C269.084 134.914 272.611 127.653 273.346 120.222C276.749 120.994 280.227 121.387 283.717 121.394C286.535 121.394 289.362 121.141 292.153 120.629L323.415 114.9C325.629 114.497 327.674 113.45 329.296 111.89C330.917 110.331 332.043 108.327 332.531 106.131C333.024 103.936 332.859 101.645 332.057 99.5429C331.254 97.4412 329.85 95.6229 328.019 94.3154L302.042 75.7231C295.036 70.6981 286.783 67.6968 278.185 67.0475C281.263 58.9956 282.064 50.2517 280.5 41.7746L274.742 10.3524C274.338 8.13919 273.291 6.09415 271.731 4.47311C270.172 2.85207 268.168 1.72701 265.972 1.2387C263.777 0.745235 261.486 0.91014 259.384 1.71277C257.283 2.5154 255.465 3.9201 254.157 5.75103L235.658 31.5959C231.674 37.1688 228.953 43.5433 227.685 50.2752C220.292 48.3581 211.714 49.4292 201.812 55.7126C190.082 63.1552 178.156 77.1302 170.687 92.1823C161.601 110.498 160.678 127.015 168.086 138.692C168.628 139.546 169.226 140.36 169.852 141.155H133.97C131.98 141.155 130.072 141.945 128.666 143.352C127.259 144.759 126.469 146.666 126.469 148.656C126.469 150.645 127.259 152.553 128.666 153.96C130.072 155.367 131.98 156.157 133.97 156.157ZM312.493 101.652L289.449 105.875C283.29 106.994 276.939 106.292 271.173 103.856C268.836 96.7206 265.115 90.0361 261.807 84.6277C266.892 82.3936 272.472 81.5224 277.996 82.1C283.52 82.6777 288.798 84.6842 293.311 87.922L312.493 101.652ZM247.857 40.3275L261.493 21.2771L265.745 44.4808C266.54 48.7827 266.442 53.202 265.459 57.4646C264.475 61.7272 262.626 65.7422 260.026 69.2606C257.821 69.985 255.673 70.8708 253.598 71.9108C250.335 67.2225 246.453 62.3051 241.883 58.2658C242.029 51.8224 244.111 45.572 247.857 40.3275ZM180.753 130.655C176.329 123.682 177.558 112.09 184.126 98.8497C190.35 86.3068 200.447 74.346 209.849 68.3795C213.787 65.8814 217.308 64.5523 220.713 64.5523C228.611 64.5523 235.88 71.7058 246.228 88.013C251.842 96.9316 256.205 104.999 257.855 111.694C259.939 120.43 257.095 126.028 249.491 130.853C240.087 136.819 224.966 140.861 210.967 141.149C199.271 141.828 184.298 137.507 180.753 130.655Z" fill="black"/>
</svg>
