<svg width="476" height="476" viewBox="0 0 476 476" fill="none" xmlns="http://www.w3.org/2000/svg">
<path d="M352.763 0.768799C375.412 0.768799 393.845 19.1941 393.845 41.8511V191.426C393.845 214.073 375.42 232.508 352.763 232.508H301.818L274.047 281.118C266.75 293.88 253.079 301.816 238.375 301.816C223.674 301.816 210 293.889 202.705 281.118L174.934 232.508H123.988C101.34 232.508 82.9053 214.084 82.9053 191.426V41.8511C82.9053 19.2034 101.331 0.768799 123.988 0.768799H352.763ZM123.988 14.6917C109.016 14.6917 96.8284 26.8794 96.8284 41.8511V191.426C96.8284 206.398 109.016 218.585 123.988 218.585H228.472C232.314 218.585 235.434 221.704 235.434 225.547C235.434 229.389 232.314 232.508 228.472 232.508H190.965L214.792 274.203C219.619 282.64 228.65 287.882 238.375 287.882C248.103 287.882 257.133 282.64 261.96 274.203L291.737 222.094C292.971 219.922 295.282 218.587 297.779 218.585H352.763C367.735 218.585 379.924 206.398 379.924 191.426V41.8511C379.924 26.8794 367.735 14.6917 352.763 14.6917H123.988Z" fill="#826689"/>
<path d="M337.395 57.6838C346.694 57.6838 354.26 65.2482 354.26 74.5483V84.4525C354.26 93.7528 346.696 101.317 337.395 101.317H218.586C209.287 101.317 201.723 93.7526 201.723 84.4525V74.5483C201.723 65.2484 209.287 57.684 218.586 57.6838H337.395ZM218.586 71.6167C216.964 71.6169 215.645 72.9341 215.645 74.5582V84.4624C215.645 86.0863 216.964 87.4037 218.586 87.4039H337.395C339.019 87.4039 340.336 86.0865 340.336 84.4624V74.5582C340.336 72.9339 339.019 71.6167 337.395 71.6167H218.586Z" fill="#826689"/>
<path d="M159.169 57.6838C168.469 57.6838 176.033 65.2482 176.033 74.5483V84.4525C176.033 93.7528 168.469 101.317 159.169 101.317H139.371C130.07 101.317 122.506 93.7526 122.506 84.4525V74.5483C122.506 65.2484 130.07 57.684 139.371 57.6838H159.169ZM139.371 71.6167C137.746 71.6169 136.429 72.9341 136.429 74.5582V84.4624C136.429 86.0863 137.747 87.4037 139.371 87.4039H159.169C160.793 87.4039 162.112 86.0865 162.112 84.4624V74.5582C162.112 72.9339 160.793 71.6167 159.169 71.6167H139.371Z" fill="#826689"/>
<path d="M337.379 131.939C346.68 131.939 354.246 139.503 354.246 148.803V158.707C354.246 168.008 346.68 175.572 337.379 175.572H139.371C130.07 175.572 122.506 168.008 122.506 158.707V148.803C122.506 139.503 130.07 131.939 139.371 131.939H337.379ZM139.371 145.871C137.746 145.872 136.429 147.189 136.429 148.813V158.717C136.429 160.341 137.747 161.659 139.371 161.659H337.379C339.003 161.659 340.322 160.341 340.322 158.717V148.813C340.322 147.189 339.003 145.871 337.379 145.871H139.371Z" fill="#826689"/>
<path d="M238.379 337.171C247.272 337.179 254.8 342.638 257.548 351.102L265.241 374.77H290.145C299.038 374.77 306.565 380.229 309.313 388.694C312.061 397.159 309.182 406.003 301.99 411.23L281.847 425.857L289.543 449.536C292.288 458.001 289.411 466.848 282.217 472.072C278.627 474.691 274.496 475.998 270.374 475.998C266.253 475.998 262.132 474.691 258.531 472.072L238.389 457.444L218.247 472.072C211.045 477.299 201.745 477.299 194.551 472.072C187.349 466.848 184.48 458.001 187.228 449.536L194.922 425.857L174.78 411.23C167.587 406.003 164.71 397.159 167.457 388.694C170.204 380.237 177.732 374.77 186.624 374.77H211.518L219.213 351.092C221.96 342.638 229.488 337.171 238.379 337.171ZM238.418 351.102C237.349 351.102 233.785 351.41 232.486 355.41L223.231 383.896C222.304 386.762 219.631 388.702 216.615 388.704H186.662C182.457 388.704 181.056 391.999 180.731 393.009C180.406 394.021 179.599 397.512 182.996 399.981L207.22 417.588C209.653 419.351 210.673 422.497 209.744 425.366L200.492 453.854C199.193 457.852 201.893 460.201 202.757 460.824C203.612 461.446 206.683 463.292 210.079 460.824L234.306 443.215C235.531 442.334 236.959 441.888 238.397 441.888C239.836 441.888 241.276 442.334 242.49 443.215L266.718 460.824C270.104 463.292 273.176 461.446 274.041 460.824C274.904 460.201 277.605 457.852 276.306 453.854L267.053 425.366C266.116 422.497 267.136 419.351 269.576 417.578L293.801 399.971L293.838 399.981C297.236 397.512 296.438 394.021 296.104 393.009C295.769 391.999 294.377 388.704 290.173 388.704H260.22C257.204 388.704 254.531 386.762 253.602 383.896L244.347 355.41C243.048 351.41 239.476 351.102 238.418 351.102Z" fill="#826689"/>
<path d="M404.043 272.205C412.936 272.205 420.464 277.671 423.212 286.136L430.905 309.804H455.799C464.692 309.804 472.219 315.263 474.967 323.728L474.975 323.72C477.721 332.185 474.844 341.029 467.652 346.254L447.509 360.883L455.205 384.56C457.95 393.025 455.075 401.872 447.881 407.096C440.679 412.323 431.38 412.323 424.185 407.096L404.043 392.468L383.903 407.096C380.311 409.715 376.18 411.024 372.058 411.024C367.937 411.024 363.815 409.715 360.215 407.096C353.013 401.872 350.144 393.025 352.892 384.56L360.587 360.891L340.445 346.264C333.243 341.039 330.374 332.182 333.121 323.728C335.869 315.273 343.397 309.804 352.288 309.804H377.182L384.877 286.136C387.624 277.671 395.152 272.205 404.043 272.205ZM404.072 286.118C403.005 286.118 399.441 286.425 398.14 290.425L388.885 318.911C387.958 321.778 385.285 323.72 382.269 323.72H352.316C348.112 323.72 346.71 327.013 346.385 328.025C346.059 329.037 345.253 332.528 348.649 334.997L372.876 352.603C375.307 354.375 376.327 357.523 375.4 360.39L366.145 388.877C364.846 392.878 367.547 395.225 368.412 395.847C369.264 396.47 372.337 398.316 375.735 395.847L399.96 378.239C402.401 376.467 405.704 376.467 408.146 378.239L432.372 395.847C435.768 398.316 438.83 396.47 439.695 395.847C440.558 395.225 443.259 392.878 441.96 388.877L432.707 360.39C431.769 357.523 432.79 354.375 435.23 352.603L459.455 334.997H459.494C462.89 332.528 462.092 329.037 461.758 328.025C461.423 327.013 460.031 323.72 455.827 323.72H425.874C422.858 323.72 420.185 321.778 419.258 318.911L410.001 290.425C408.702 286.425 405.138 286.118 404.072 286.118Z" fill="#826689"/>
<path d="M72.7077 272.199C81.5998 272.199 89.1273 277.666 91.8747 286.12L99.5691 309.798H124.483C133.375 309.798 140.903 315.257 143.65 323.72C146.397 332.185 143.52 341.032 136.327 346.258L116.185 360.885L123.879 384.564C126.627 393.029 123.758 401.874 116.556 407.101C109.354 412.325 100.053 412.325 92.8592 407.101L72.7176 392.472L52.5761 407.101C48.9841 409.717 44.8534 411.026 40.7324 411.026C36.6117 411.026 32.4903 409.717 28.889 407.101C21.6865 401.874 18.8183 393.029 21.5655 384.564L29.2599 360.885L9.1184 346.258C1.92515 341.032 -0.952486 332.185 1.7949 323.72C4.54233 315.265 12.0702 309.798 20.9619 309.798H45.8464L53.5408 286.12C56.2882 277.666 63.8161 272.199 72.7077 272.199ZM72.7176 286.12C71.6499 286.12 68.0864 286.428 66.7869 290.428L57.532 318.914C56.6037 321.78 53.9313 323.72 50.9148 323.72H20.9895C16.7856 323.722 15.3838 327.015 15.0589 328.027C14.734 329.039 13.927 332.528 17.3238 334.999L41.5492 352.606C43.9808 354.369 45.0023 357.515 44.0746 360.384L34.8197 388.872C33.5207 392.87 36.2214 395.219 37.0846 395.842C37.9386 396.464 41.011 398.31 44.4081 395.842L68.6337 378.233C71.0748 376.459 74.3803 376.459 76.8212 378.233L101.047 395.842C104.443 398.308 107.504 396.464 108.368 395.842C109.231 395.219 111.933 392.872 110.633 388.872L101.38 360.384C100.443 357.515 101.465 354.379 103.906 352.606L128.131 334.999H128.139C131.536 332.528 130.729 329.039 130.404 328.027C130.07 327.015 128.677 323.722 124.473 323.72H94.5204C91.504 323.72 88.8314 321.78 87.9032 318.914L78.6482 290.428C77.3487 286.428 73.785 286.12 72.7176 286.12Z" fill="#826689"/>
</svg>
