<svg width="245" height="207" viewBox="0 0 245 207" fill="none" xmlns="http://www.w3.org/2000/svg">
<path fill-rule="evenodd" clip-rule="evenodd" d="M44.2138 39.2458L56.4 40.6478C57.5836 40.785 58.5843 41.5977 58.95 42.7305C59.3158 43.8633 58.9907 45.1078 58.1119 45.9155L49.0751 54.2157L51.5083 66.2394C51.747 67.4077 51.2797 68.6065 50.3145 69.3075C49.7812 69.6936 49.1513 69.8917 48.5214 69.8917C48.0083 69.8917 47.4902 69.7647 47.0229 69.5005L36.3402 63.4709L25.6525 69.5005C24.6163 70.0898 23.3311 70.0136 22.366 69.3126C21.4008 68.6116 20.9335 67.4128 21.1722 66.2444L23.6054 54.2208L14.5686 45.9205C13.6898 45.1179 13.3596 43.8734 13.7305 42.7356C14.1013 41.5977 15.0969 40.785 16.2805 40.6478L28.4667 39.2458L33.5667 28.0857C34.0645 26.9986 35.1465 26.3027 36.3402 26.3027C37.534 26.3027 38.616 26.9986 39.1138 28.0857L44.2138 39.2458ZM42.761 53.7433C42.5477 52.6969 42.8982 51.6149 43.6855 50.8936L49.0802 45.9409L41.806 45.1027C40.7444 44.9808 39.8249 44.3103 39.383 43.34L36.3402 36.6806L33.2975 43.34C32.8556 44.3103 31.9361 44.9808 30.8745 45.1027L23.6003 45.9409L28.995 50.8936C29.7823 51.6149 30.1328 52.6969 29.9195 53.7433L28.4667 60.9158L34.8417 57.3194C35.7713 56.7962 36.9092 56.7962 37.8388 57.3194L44.2138 60.9158L42.761 53.7433ZM99.8773 69.3126C99.3439 69.6986 98.714 69.8968 98.0841 69.8968C97.5711 69.8968 97.0529 69.7647 96.5856 69.5005L85.903 63.4709L75.2153 69.5005C74.179 70.0898 72.8938 70.0136 71.9287 69.3126C70.9636 68.6116 70.4962 67.4128 70.735 66.2444L73.1681 54.2208L64.1313 45.9205C63.2526 45.1179 62.9224 43.8734 63.2932 42.7356C63.664 41.5977 64.6596 40.785 65.8432 40.6478L78.0294 39.2458L83.1295 28.0857C83.6273 26.9986 84.7093 26.3027 85.903 26.3027C87.0967 26.3027 88.1787 26.9986 88.6765 28.0857L93.7765 39.2458L105.963 40.6478C107.146 40.785 108.147 41.6028 108.513 42.7356C108.879 43.8683 108.553 45.1129 107.675 45.9205L98.6378 54.2208L101.071 66.2444C101.31 67.4128 100.842 68.6116 99.8773 69.3126ZM84.4045 57.3194C85.3341 56.7962 86.4719 56.7962 87.4015 57.3194L93.7765 60.9158L92.3237 53.7433C92.1104 52.6969 92.4609 51.6149 93.2482 50.8936L98.6429 45.9409L91.3687 45.1027C90.3071 44.9808 89.3877 44.3103 88.9457 43.34L85.903 36.6806L82.8602 43.34C82.4183 44.3103 81.4989 44.9808 80.4372 45.1027L73.1631 45.9409L78.5577 50.8936C79.3451 51.6149 79.6956 52.6969 79.4822 53.7433L78.0294 60.9158L84.4045 57.3194ZM120.293 66.2444L122.726 54.2208L113.689 45.9155C112.81 45.1129 112.48 43.8683 112.851 42.7305C113.222 41.5926 114.217 40.7799 115.401 40.6427L127.587 39.2407L132.687 28.0806C133.185 26.9936 134.267 26.2976 135.461 26.2976C136.654 26.2976 137.736 26.9936 138.234 28.0806L143.334 39.2407L155.52 40.6427C156.704 40.7799 157.705 41.5977 158.07 42.7305C158.436 43.8633 158.111 45.1078 157.232 45.9155L148.195 54.2157L150.629 66.2394C150.867 67.4077 150.4 68.6065 149.435 69.3075C148.902 69.6936 148.272 69.8917 147.642 69.8917C147.129 69.8917 146.611 69.7647 146.143 69.5005L135.461 63.4709L124.778 69.5005C123.737 70.0898 122.451 70.0136 121.486 69.3126C120.521 68.6116 120.054 67.4128 120.293 66.2444ZM132.418 43.34C131.976 44.3103 131.057 44.9808 129.995 45.1027L122.721 45.9409L128.115 50.8936C128.903 51.6149 129.253 52.6969 129.04 53.7433L127.587 60.9158L133.962 57.3194C134.429 57.0603 134.943 56.9283 135.461 56.9283C135.979 56.9283 136.492 57.0552 136.959 57.3194L143.334 60.9158L141.881 53.7433C141.668 52.6969 142.019 51.6149 142.806 50.8936L148.201 45.9409L140.926 45.1027C139.865 44.9808 138.945 44.3103 138.503 43.34L135.461 36.6806L132.418 43.34ZM171.801 81.1331H220.896C234.098 81.1331 244.842 90.4746 244.847 101.965V161.448C244.847 172.934 234.104 182.28 220.901 182.28H216.741V200.516C216.741 202.889 215.197 204.976 212.809 205.825C212.078 206.084 211.321 206.211 210.574 206.211C209.076 206.211 207.603 205.703 206.45 204.732L179.659 182.28H111.368C98.1654 182.28 87.4218 172.934 87.4218 161.448V110.179H70.989L46.5606 130.65L41.5673 134.836C40.3532 135.852 38.8141 136.385 37.2394 136.385C36.452 136.385 35.6545 136.253 34.8875 135.979C32.8911 135.267 31.4586 133.733 30.9659 131.879L30.7729 110.184H25.9319C11.6325 110.184 0 100.08 0 87.6605V22.5234C0 10.1035 11.6325 0 25.9319 0H145.869C160.168 0 171.801 10.1035 171.801 22.5234V81.1331ZM80.7521 149.721C80.5234 149.571 80.2019 149.436 79.7993 149.312C80.1827 149.46 80.5031 149.596 80.7521 149.721ZM67.9208 104.794C68.4694 104.337 69.1603 104.083 69.8765 104.083V104.088H87.4167V101.965C87.4167 90.4797 98.1603 81.1331 111.362 81.1331H165.71V22.5234C165.71 13.4663 156.811 6.09564 145.874 6.09564H25.9319C14.9953 6.09564 6.09565 13.4663 6.09565 22.5234V87.6503C6.09565 96.7074 14.9953 104.078 25.9319 104.078H33.8258C35.5072 104.078 36.8736 105.445 36.8736 107.126V130.208C36.884 130.215 36.8967 130.22 36.9117 130.225C36.9188 130.227 36.9264 130.23 36.9346 130.233C37.2038 130.33 37.4832 130.3 37.6508 130.162L67.9208 104.794ZM220.896 176.185C230.741 176.185 238.746 169.576 238.746 161.448V101.965C238.746 93.8374 230.741 87.2287 220.896 87.2287H111.362C101.518 87.2287 93.5124 93.8374 93.5124 101.965V161.448C93.5124 169.576 101.518 176.185 111.362 176.185H180.761C181.478 176.185 182.169 176.433 182.717 176.896L210.361 200.064C210.407 200.1 210.508 200.135 210.64 200.115V179.232C210.64 177.551 212.007 176.185 213.688 176.185H220.896ZM209.142 110.839C210.823 110.839 212.19 109.473 212.19 107.791C212.19 106.105 210.828 104.744 209.142 104.744H133.439C131.758 104.744 130.391 106.11 130.391 107.791C130.391 109.473 131.758 110.839 133.439 110.839H209.142ZM209.142 134.348C210.823 134.348 212.19 132.982 212.19 131.3C212.19 129.614 210.828 128.252 209.147 128.252H123.117C121.436 128.252 120.069 129.619 120.069 131.3C120.069 132.982 121.436 134.348 123.117 134.348H209.142ZM209.142 157.852C210.823 157.852 212.19 156.485 212.19 154.804C212.19 153.123 210.828 151.756 209.147 151.756H123.117C121.436 151.756 120.069 153.123 120.069 154.804C120.069 156.485 121.436 157.852 123.117 157.852H209.142Z" fill="black"/>
</svg>
