<svg width="521" height="439" viewBox="0 0 521 439" fill="none" xmlns="http://www.w3.org/2000/svg">
<path fill-rule="evenodd" clip-rule="evenodd" d="M94.2061 83.5055L120.129 86.4879C122.647 86.7798 124.776 88.5086 125.553 90.9183C126.332 93.328 125.64 95.9754 123.771 97.6936L104.547 115.35L109.723 140.927C110.231 143.413 109.237 145.963 107.184 147.454C106.049 148.275 104.709 148.697 103.369 148.697C102.278 148.697 101.176 148.426 100.182 147.864L77.4571 135.038L54.7218 147.864C52.5176 149.118 49.7837 148.956 47.7307 147.465C45.6775 145.973 44.6834 143.423 45.1912 140.938L50.3672 115.361L31.1438 97.7042C29.2744 95.9969 28.572 93.3495 29.3609 90.9292C30.1497 88.5086 32.2676 86.7798 34.7854 86.4879L60.7083 83.5055L71.5572 59.7654C72.6161 57.4529 74.9178 55.9725 77.4571 55.9725C79.9966 55.9725 82.2983 57.4529 83.3572 59.7654L94.2061 83.5055ZM91.1156 114.345C90.6619 112.119 91.4075 109.818 93.0823 108.283L104.558 97.7476L89.0841 95.9645C86.8259 95.7052 84.8699 94.2789 83.9298 92.2149L77.4571 78.0488L70.9846 92.2149C70.0445 94.2789 68.0885 95.7052 65.8303 95.9645L50.3563 97.7476L61.8321 108.283C63.5069 109.818 64.2525 112.119 63.7988 114.345L60.7083 129.603L74.2694 121.952C76.2469 120.839 78.6675 120.839 80.645 121.952L94.2061 129.603L91.1156 114.345ZM212.615 147.465C211.481 148.286 210.141 148.707 208.801 148.707C207.71 148.707 206.607 148.426 205.613 147.864L182.889 135.038L160.154 147.864C157.949 149.118 155.215 148.956 153.162 147.465C151.109 145.973 150.115 143.423 150.623 140.938L155.799 115.361L136.575 97.7042C134.706 95.9969 134.004 93.3495 134.792 90.9292C135.581 88.5086 137.699 86.7798 140.217 86.4879L166.14 83.5055L176.989 59.7654C178.048 57.4529 180.35 55.9725 182.889 55.9725C185.428 55.9725 187.73 57.4529 188.789 59.7654L199.638 83.5055L225.561 86.4879C228.078 86.7798 230.207 88.5194 230.986 90.9292C231.764 93.3387 231.071 95.9862 229.203 97.7042L209.979 115.361L215.155 140.938C215.663 143.423 214.668 145.973 212.615 147.465ZM179.701 121.952C181.679 120.839 184.099 120.839 186.076 121.952L199.638 129.603L196.547 114.345C196.093 112.119 196.839 109.818 198.514 108.283L209.99 97.7476L194.516 95.9645C192.257 95.7052 190.302 94.2789 189.361 92.2149L182.889 78.0488L176.416 92.2149C175.476 94.2789 173.52 95.7052 171.262 95.9645L155.788 97.7476L167.264 108.283C168.939 109.818 169.684 112.119 169.23 114.345L166.14 129.603L179.701 121.952ZM256.044 140.938L261.22 115.361L241.996 97.6936C240.126 95.9862 239.424 93.3387 240.214 90.9183C241.003 88.4977 243.119 86.7689 245.638 86.4771L271.56 83.4947L282.409 59.7545C283.469 57.4422 285.77 55.9617 288.31 55.9617C290.848 55.9617 293.15 57.4422 294.209 59.7545L305.058 83.4947L330.981 86.4771C333.499 86.7689 335.629 88.5086 336.405 90.9183C337.184 93.328 336.492 95.9754 334.622 97.6936L315.399 115.35L320.576 140.927C321.082 143.413 320.089 145.963 318.036 147.454C316.902 148.275 315.562 148.697 314.222 148.697C313.131 148.697 312.029 148.426 311.033 147.864L288.31 135.038L265.585 147.864C263.371 149.118 260.635 148.956 258.582 147.465C256.529 145.973 255.536 143.423 256.044 140.938ZM281.837 92.2149C280.897 94.2789 278.942 95.7052 276.683 95.9645L261.209 97.7476L272.684 108.283C274.36 109.818 275.104 112.119 274.651 114.345L271.56 129.603L285.122 121.952C286.115 121.401 287.208 121.12 288.31 121.12C289.412 121.12 290.503 121.39 291.497 121.952L305.058 129.603L301.967 114.345C301.514 112.119 302.261 109.818 303.935 108.283L315.411 97.7476L299.936 95.9645C297.679 95.7052 295.722 94.2789 294.781 92.2149L288.31 78.0488L281.837 92.2149ZM365.614 172.61H470.051C498.134 172.61 520.989 192.481 521 216.924V343.458C521 367.892 498.147 387.773 470.061 387.773H461.212V426.565C461.212 431.613 457.928 436.053 452.848 437.859C451.293 438.41 449.682 438.68 448.093 438.68C444.907 438.68 441.773 437.599 439.321 435.534L382.33 387.773H237.059C208.974 387.773 186.12 367.892 186.12 343.458V234.397H151.163L99.1983 277.944L88.5764 286.848C85.9937 289.01 82.7197 290.143 79.3699 290.143C77.6949 290.143 75.9984 289.863 74.3669 289.28C70.12 287.765 67.0728 284.502 66.0247 280.558L65.6141 234.408H55.3162C24.898 234.408 0.152954 212.914 0.152954 186.495V47.9331C0.152954 21.513 24.898 0.0205078 55.3162 0.0205078H310.451C340.868 0.0205078 365.614 21.513 365.614 47.9331V172.61ZM144.636 222.942C145.803 221.97 147.273 221.429 148.797 221.429V221.44H186.109V216.924C186.109 192.492 208.963 172.61 237.046 172.61H352.657V47.9331C352.657 28.6665 333.727 12.9874 310.461 12.9874H55.3162C32.0515 12.9874 13.1198 28.6665 13.1198 47.9331V186.473C13.1198 205.74 32.0515 221.419 55.3162 221.419H72.1084C75.6851 221.419 78.5918 224.327 78.5918 227.903V277.003C78.6139 277.018 78.6409 277.029 78.6728 277.04C78.6879 277.044 78.7041 277.05 78.7215 277.057C79.2942 277.263 79.8885 277.199 80.245 276.906L144.636 222.942ZM470.051 374.807C490.993 374.807 508.022 360.748 508.022 343.458V216.924C508.022 199.635 490.993 185.576 470.051 185.576H237.046C216.106 185.576 199.076 199.635 199.076 216.924V343.458C199.076 360.748 216.106 374.807 237.046 374.807H384.674C386.199 374.807 387.669 375.335 388.835 376.32L447.64 425.604C447.738 425.68 447.953 425.755 448.234 425.712V381.289C448.234 377.713 451.142 374.807 454.718 374.807H470.051ZM445.047 235.801C448.623 235.801 451.531 232.895 451.531 229.317C451.531 225.731 448.634 222.836 445.047 222.836H284.009C280.433 222.836 277.525 225.741 277.525 229.317C277.525 232.895 280.433 235.801 284.009 235.801H445.047ZM445.047 285.81C448.623 285.81 451.531 282.904 451.531 279.326C451.531 275.74 448.634 272.843 445.058 272.843H262.052C258.476 272.843 255.568 275.751 255.568 279.326C255.568 282.904 258.476 285.81 262.052 285.81H445.047ZM445.047 335.809C448.623 335.809 451.531 332.901 451.531 329.325C451.531 325.749 448.634 322.841 445.058 322.841H262.052C258.476 322.841 255.568 325.749 255.568 329.325C255.568 332.901 258.476 335.809 262.052 335.809H445.047Z" fill="black"/>
</svg>
