<svg width="208" height="208" viewBox="0 0 208 208" fill="none" xmlns="http://www.w3.org/2000/svg">
<path d="M72.2157 48.8396C71.6181 50.6787 72.2063 52.6498 73.7135 53.8616L87.1339 64.6484L82.6169 81.2635C82.1098 83.129 82.7928 85.0693 84.358 86.2076C85.9237 87.3434 87.9789 87.3934 89.597 86.3347L104.003 76.9045L118.409 86.3351C119.16 86.83 120.039 87.0945 120.939 87.096C121.913 87.0946 122.862 86.7834 123.648 86.2076C125.214 85.0705 125.897 83.129 125.389 81.2635L120.872 64.6488L134.291 53.8625C135.8 52.651 136.388 50.6795 135.79 48.8396C135.192 46.9993 133.558 45.7501 131.626 45.6566L114.428 44.8181L108.317 28.7218C107.63 26.9136 105.937 25.7448 104.003 25.7448C102.068 25.7448 100.375 26.9132 99.689 28.7214L93.577 44.8186L76.3805 45.6566C74.448 45.7501 72.8133 46.9993 72.2157 48.8396ZM95.1265 51.2503C96.0231 51.2068 96.8876 50.9025 97.6139 50.3748C98.3402 49.847 98.8966 49.1188 99.215 48.2794L104.002 35.6715L108.789 48.2806C109.108 49.1196 109.665 49.8473 110.391 50.3748C111.117 50.9023 111.981 51.2065 112.878 51.2503L126.348 51.9072L115.836 60.3559C115.136 60.9183 114.616 61.6726 114.338 62.5264C114.061 63.3802 114.039 64.2964 114.274 65.1627L117.812 78.1764L106.528 70.7896C105.777 70.2981 104.899 70.0364 104.001 70.0364C103.103 70.0365 102.225 70.2984 101.474 70.79L90.1909 78.1764L93.729 65.1635C93.9648 64.2971 93.9426 63.3807 93.6652 62.5267C93.3877 61.6727 92.867 60.9183 92.1669 60.3559L81.6553 51.9076L95.1265 51.2503ZM100.752 15.1766V3.24999C100.752 2.38804 101.095 1.56139 101.704 0.9519C102.314 0.342409 103.14 0 104.002 0C104.864 0 105.691 0.342409 106.3 0.9519C106.91 1.56139 107.252 2.38804 107.252 3.24999V15.1766C107.252 16.0386 106.91 16.8652 106.3 17.4747C105.691 18.0842 104.864 18.4266 104.002 18.4266C103.14 18.4266 102.314 18.0842 101.704 17.4747C101.095 16.8652 100.752 16.0386 100.752 15.1766ZM120.544 34.432C119.967 33.7915 119.669 32.948 119.714 32.0873C119.759 31.2265 120.144 30.419 120.785 29.8422L134.075 17.8749C134.392 17.5893 134.763 17.369 135.165 17.2265C135.567 17.084 135.994 17.0221 136.42 17.0445C136.846 17.0668 137.264 17.1728 137.649 17.3565C138.034 17.5403 138.38 17.7981 138.665 18.1152C138.951 18.4324 139.171 18.8027 139.314 19.205C139.456 19.6073 139.518 20.0338 139.496 20.46C139.473 20.8862 139.367 21.3039 139.184 21.6891C139 22.0743 138.742 22.4196 138.425 22.7052L125.134 34.6725C124.538 35.2107 123.763 35.5083 122.96 35.5073C122.504 35.508 122.054 35.4125 121.638 35.2272C121.221 35.042 120.849 34.771 120.544 34.432ZM69.339 18.1154C69.6246 17.7982 69.9699 17.5404 70.3551 17.3566C70.7404 17.1728 71.1581 17.0668 71.5843 17.0444C72.0106 17.0221 72.437 17.0839 72.8394 17.2264C73.2417 17.3689 73.6121 17.5893 73.9292 17.8749L87.2201 29.8422C87.8606 30.419 88.2458 31.2266 88.2908 32.0874C88.3359 32.9482 88.0372 33.7917 87.4604 34.4322C86.8835 35.0727 86.0759 35.4579 85.2151 35.503C84.3543 35.548 83.5109 35.2493 82.8704 34.6725L69.5795 22.7052C68.939 22.1285 68.5538 21.3209 68.5087 20.4601C68.4636 19.5994 68.7623 18.756 69.339 18.1154ZM145.697 53.8616L159.118 64.6484L154.6 81.2635C154.093 83.129 154.776 85.0693 156.342 86.2076C157.906 87.3434 159.962 87.393 161.581 86.3347L175.987 76.9045L190.393 86.3351C191.144 86.83 192.023 87.0945 192.922 87.096C193.897 87.0946 194.845 86.7834 195.631 86.2076C197.196 85.0713 197.88 83.1306 197.372 81.2635L192.855 64.6488L206.275 53.8625C207.783 52.6514 208.371 50.6799 207.773 48.8396C207.175 46.9993 205.541 45.7501 203.609 45.6566L186.412 44.8181L180.301 28.7218C179.614 26.9136 177.921 25.7448 175.987 25.7448C174.052 25.7448 172.358 26.9132 171.672 28.7214L165.561 44.8181L148.365 45.6562C146.432 45.7497 144.797 46.9993 144.199 48.8396C143.601 50.6795 144.189 52.651 145.697 53.8616ZM167.11 51.2503C168.007 51.2068 168.871 50.9024 169.598 50.3746C170.324 49.8469 170.881 49.1185 171.199 48.279L175.986 35.6711L180.773 48.2786C181.091 49.1181 181.648 49.8464 182.374 50.3742C183.1 50.902 183.965 51.2063 184.862 51.2499L198.332 51.9068L187.821 60.3547C187.121 60.9169 186.6 61.6713 186.322 62.5253C186.045 63.3793 186.022 64.2958 186.258 65.1623L189.796 78.176L178.512 70.7892C177.761 70.2974 176.883 70.0354 175.985 70.0355C175.087 70.0356 174.209 70.2976 173.458 70.7896L162.175 78.176L165.713 65.1631C165.949 64.2967 165.926 63.3803 165.649 62.5264C165.371 61.6724 164.851 60.918 164.151 60.3555L153.639 51.9068L167.11 51.2503ZM1.72911 53.8616L15.1495 64.6484L10.6325 81.2635C10.1255 83.129 10.8084 85.0693 12.3736 86.2076C13.9393 87.3434 15.9945 87.3934 17.6126 86.3347L32.0186 76.9045L46.425 86.3351C47.1758 86.83 48.055 87.0945 48.9543 87.096C49.9286 87.0946 50.8772 86.7834 51.6632 86.2076C53.2284 85.0713 53.9117 83.1306 53.4043 81.2635L48.8873 64.6488L62.3069 53.8625C63.814 52.6522 64.4027 50.6811 63.8051 48.8376C63.2063 46.9985 61.5716 45.7497 59.6415 45.6562L42.4437 44.8177L36.3326 28.7218C35.6464 26.9136 33.9527 25.7448 32.0186 25.7448C30.084 25.7448 28.3904 26.9132 27.7042 28.7214L21.593 44.8181L4.39654 45.6562C2.46402 45.7497 0.829274 46.9993 0.232089 48.8376C-0.367128 50.6783 0.220714 52.6506 1.72911 53.8616ZM23.1417 51.2503C24.0386 51.2068 24.9033 50.9024 25.6297 50.3746C26.3562 49.8469 26.9128 49.1185 27.2314 48.279L32.0182 35.6711L36.8046 48.2786C37.1231 49.1181 37.6797 49.8464 38.4061 50.3742C39.1324 50.902 39.9971 51.2063 40.8939 51.2499L54.3639 51.9068L43.853 60.3547C43.1528 60.9169 42.632 61.6713 42.3544 62.5253C42.0767 63.3793 42.0544 64.2958 42.2902 65.1623L45.8282 78.176L34.5442 70.7892C33.7932 70.2974 32.9149 70.0354 32.0171 70.0355C31.1193 70.0356 30.2411 70.2976 29.4901 70.7896L18.207 78.176L21.745 65.1631C21.9806 64.2967 21.9583 63.3803 21.6809 62.5264C21.4034 61.6724 20.8828 60.918 20.183 60.3555L9.67127 51.9068L23.1417 51.2503ZM207.49 172.628C205.204 165.244 200.52 158.613 194.301 153.956C191.365 151.755 188.116 150.004 184.663 148.762C189.404 145.04 192.459 139.264 192.459 132.783C192.459 121.584 183.348 112.474 172.15 112.474C160.951 112.474 151.84 121.584 151.84 132.783C151.84 139.256 154.888 145.027 159.62 148.749C153.278 151.012 147.66 154.989 143.357 160.349C141.33 157.512 139.004 154.903 136.419 152.564C131.219 147.857 125.055 144.341 118.357 142.26C125.399 137.591 130.055 129.598 130.055 120.534C130.055 106.169 118.368 94.482 104.003 94.482C89.6376 94.482 77.9503 106.169 77.9503 120.534C77.9503 129.598 82.6055 137.591 89.6478 142.26C82.9495 144.341 76.7856 147.857 71.5856 152.564C69.0003 154.902 66.6743 157.512 64.6477 160.348C60.3455 154.989 54.7271 151.012 48.3847 148.747C53.1163 145.026 56.1644 139.255 56.1644 132.782C56.1644 121.583 47.0534 112.472 35.8552 112.472C24.6566 112.472 15.5456 121.583 15.5456 132.782C15.5456 139.262 18.6006 145.039 23.3415 148.76C19.8879 150.003 16.639 151.753 13.7025 153.955C7.48403 158.611 2.80039 165.242 0.513619 172.627C-0.543033 176.038 0.042371 179.499 2.16177 182.375C4.28076 185.249 7.41456 186.832 10.9855 186.832H55.9137V192.697C55.9137 201.135 62.7781 208 71.2159 208H136.788C145.226 208 152.091 201.135 152.091 192.697V186.834H197.019C200.59 186.834 203.724 185.251 205.843 182.376C207.962 179.501 208.547 176.039 207.49 172.628ZM172.15 118.974C179.764 118.974 185.959 125.168 185.959 132.783C185.959 140.397 179.764 146.592 172.15 146.592C164.535 146.592 158.34 140.397 158.34 132.783C158.34 125.168 164.535 118.974 172.15 118.974ZM84.4502 120.534C84.4502 109.753 93.2216 100.982 104.003 100.982C114.784 100.982 123.555 109.753 123.555 120.534C123.555 131.312 114.789 140.08 104.013 140.086H103.992C93.2155 140.08 84.4502 131.311 84.4502 120.534ZM35.8552 118.972C43.4695 118.972 49.6644 125.167 49.6644 132.781C49.6644 140.396 43.4695 146.591 35.8552 146.591C28.2405 146.591 22.0456 140.396 22.0456 132.781C22.0456 125.167 28.2405 118.972 35.8552 118.972ZM56.3358 180.332H10.9859C9.49009 180.332 8.2819 179.721 7.39425 178.517C6.50619 177.313 6.28072 175.978 6.72313 174.55C10.6979 161.714 22.4055 153.091 35.8552 153.091C46.0289 153.091 55.2966 158.006 60.9967 166.327C58.7318 170.728 57.1596 175.452 56.3358 180.332ZM145.591 192.697C145.591 197.551 141.642 201.499 136.788 201.499H71.2159C66.3624 201.499 62.4137 197.551 62.4137 192.697V183.758C64.7667 162.557 82.6108 146.591 103.992 146.586L104.003 146.586L104.013 146.586C125.394 146.592 143.237 162.557 145.591 183.758V192.697ZM200.611 178.519C199.723 179.723 198.515 180.333 197.019 180.333H151.669C150.845 175.453 149.273 170.729 147.008 166.328C152.709 158.008 161.976 153.092 172.15 153.092C185.599 153.092 197.307 161.716 201.282 174.552C201.724 175.98 201.498 177.314 200.611 178.519Z" fill="black"/>
</svg>
