<svg width="236" height="236" viewBox="0 0 236 236" fill="none" xmlns="http://www.w3.org/2000/svg">
<path d="M174.231 0C185.442 0 194.566 9.12019 194.566 20.335V94.3721C194.566 105.582 185.446 114.707 174.231 114.707H149.014L135.268 138.768C131.656 145.085 124.889 149.013 117.611 149.013C110.334 149.013 103.566 145.089 99.9551 138.768L86.209 114.707H60.9912C49.781 114.707 40.6562 105.587 40.6562 94.3721V20.335C40.6562 9.12479 49.7764 0 60.9912 0H174.231ZM60.9912 6.8916C53.5806 6.8916 47.5479 12.9243 47.5479 20.335V94.3721C47.5479 101.783 53.5806 107.815 60.9912 107.815H112.709C114.611 107.815 116.155 109.359 116.155 111.261C116.155 113.163 114.611 114.707 112.709 114.707H94.1436L105.938 135.345C108.327 139.521 112.797 142.116 117.611 142.116C122.426 142.116 126.896 139.521 129.285 135.345L144.024 109.552C144.635 108.477 145.779 107.816 147.015 107.815H174.231C181.642 107.815 187.675 101.783 187.675 94.3721V20.335C187.675 12.9243 181.642 6.8916 174.231 6.8916H60.9912Z" fill="black"/>
<path d="M174.231 0C185.442 0 194.566 9.12019 194.566 20.335V94.3721C194.566 105.582 185.446 114.707 174.231 114.707H149.014L135.268 138.768C131.656 145.085 124.889 149.013 117.611 149.013C110.334 149.013 103.566 145.089 99.9551 138.768L86.209 114.707H60.9912C49.781 114.707 40.6562 105.587 40.6562 94.3721V20.335C40.6562 9.12479 49.7764 0 60.9912 0H174.231ZM60.9912 6.8916C53.5806 6.8916 47.5479 12.9243 47.5479 20.335V94.3721C47.5479 101.783 53.5806 107.815 60.9912 107.815H112.709C114.611 107.815 116.155 109.359 116.155 111.261C116.155 113.163 114.611 114.707 112.709 114.707H94.1436L105.938 135.345C108.327 139.521 112.797 142.116 117.611 142.116C122.426 142.116 126.896 139.521 129.285 135.345L144.024 109.552C144.635 108.477 145.779 107.816 147.015 107.815H174.231C181.642 107.815 187.675 101.783 187.675 94.3721V20.335C187.675 12.9243 181.642 6.8916 174.231 6.8916H60.9912Z" stroke="white"/>
<path d="M166.624 28.1719C171.227 28.1719 174.972 31.9161 174.972 36.5195V41.4219C174.972 46.0254 171.228 49.7695 166.624 49.7695H107.816C103.213 49.7694 99.4688 46.0253 99.4688 41.4219V36.5195C99.4689 31.9162 103.213 28.172 107.816 28.1719H166.624ZM107.816 35.0684C107.013 35.0685 106.36 35.7205 106.36 36.5244V41.4268C106.36 42.2306 107.013 42.8827 107.816 42.8828H166.624C167.428 42.8828 168.08 42.2307 168.08 41.4268V36.5244C168.08 35.7204 167.428 35.0684 166.624 35.0684H107.816Z" fill="black"/>
<path d="M166.624 28.1719C171.227 28.1719 174.972 31.9161 174.972 36.5195V41.4219C174.972 46.0254 171.228 49.7695 166.624 49.7695H107.816C103.213 49.7694 99.4688 46.0253 99.4688 41.4219V36.5195C99.4689 31.9162 103.213 28.172 107.816 28.1719H166.624ZM107.816 35.0684C107.013 35.0685 106.36 35.7205 106.36 36.5244V41.4268C106.36 42.2306 107.013 42.8827 107.816 42.8828H166.624C167.428 42.8828 168.08 42.2307 168.08 41.4268V36.5244C168.08 35.7204 167.428 35.0684 166.624 35.0684H107.816Z" stroke="white"/>
<path d="M78.4053 28.1719C83.0087 28.1719 86.7528 31.9161 86.7529 36.5195V41.4219C86.7529 46.0254 83.0088 49.7695 78.4053 49.7695H68.6055C64.0021 49.7694 60.2578 46.0253 60.2578 41.4219V36.5195C60.2579 31.9162 64.0021 28.172 68.6055 28.1719H78.4053ZM68.6055 35.0684C67.8016 35.0685 67.1494 35.7205 67.1494 36.5244V41.4268C67.1495 42.2306 67.8017 42.8827 68.6055 42.8828H78.4053C79.2092 42.8828 79.8622 42.2307 79.8623 41.4268V36.5244C79.8623 35.7204 79.2093 35.0684 78.4053 35.0684H68.6055Z" fill="black"/>
<path d="M78.4053 28.1719C83.0087 28.1719 86.7528 31.9161 86.7529 36.5195V41.4219C86.7529 46.0254 83.0088 49.7695 78.4053 49.7695H68.6055C64.0021 49.7694 60.2578 46.0253 60.2578 41.4219V36.5195C60.2579 31.9162 64.0021 28.172 68.6055 28.1719H78.4053ZM68.6055 35.0684C67.8016 35.0685 67.1494 35.7205 67.1494 36.5244V41.4268C67.1495 42.2306 67.8017 42.8827 68.6055 42.8828H78.4053C79.2092 42.8828 79.8622 42.2307 79.8623 41.4268V36.5244C79.8623 35.7204 79.2093 35.0684 78.4053 35.0684H68.6055Z" stroke="white"/>
<path d="M166.616 64.9268C171.22 64.9268 174.965 68.671 174.965 73.2744V78.1768C174.965 82.7803 171.22 86.5244 166.616 86.5244H68.6055C64.0021 86.5243 60.2578 82.7802 60.2578 78.1768V73.2744C60.2579 68.6711 64.0021 64.9269 68.6055 64.9268H166.616ZM68.6055 71.8232C67.8016 71.8234 67.1494 72.4754 67.1494 73.2793V78.1816C67.1495 78.9855 67.8017 79.6376 68.6055 79.6377H166.616C167.42 79.6377 168.073 78.9855 168.073 78.1816V73.2793C168.073 72.4753 167.42 71.8232 166.616 71.8232H68.6055Z" fill="black"/>
<path d="M166.616 64.9268C171.22 64.9268 174.965 68.671 174.965 73.2744V78.1768C174.965 82.7803 171.22 86.5244 166.616 86.5244H68.6055C64.0021 86.5243 60.2578 82.7802 60.2578 78.1768V73.2744C60.2579 68.6711 64.0021 64.9269 68.6055 64.9268H166.616ZM68.6055 71.8232C67.8016 71.8234 67.1494 72.4754 67.1494 73.2793V78.1816C67.1495 78.9855 67.8017 79.6376 68.6055 79.6377H166.616C167.42 79.6377 168.073 78.9855 168.073 78.1816V73.2793C168.073 72.4753 167.42 71.8232 166.616 71.8232H68.6055Z" stroke="white"/>
<path d="M117.613 166.513C122.015 166.517 125.741 169.219 127.101 173.409L130.909 185.124H143.236C147.638 185.124 151.364 187.826 152.724 192.016C154.084 196.206 152.659 200.584 149.099 203.171L139.129 210.411L142.938 222.132C144.297 226.322 142.873 230.701 139.312 233.287C137.535 234.583 135.49 235.23 133.45 235.23C131.41 235.23 129.37 234.583 127.588 233.287L117.618 226.046L107.648 233.287C104.083 235.874 99.4795 235.874 95.9189 233.287C92.3538 230.701 90.9341 226.322 92.2939 222.132L96.1025 210.411L86.1328 203.171C82.5723 200.584 81.1479 196.206 82.5078 192.016C83.8677 187.83 87.5939 185.124 91.9951 185.124H104.317L108.126 173.404C109.486 169.219 113.212 166.513 117.613 166.513ZM117.632 173.409C117.103 173.409 115.339 173.561 114.696 175.541L110.115 189.641C109.656 191.06 108.333 192.02 106.84 192.021H92.0137C89.9325 192.021 89.2389 193.652 89.0781 194.152C88.9173 194.653 88.5178 196.381 90.1992 197.603L102.19 206.318C103.394 207.191 103.899 208.748 103.439 210.168L98.8594 224.269C98.2165 226.248 99.5532 227.411 99.9805 227.719C100.404 228.027 101.924 228.941 103.605 227.719L115.597 219.003C116.203 218.567 116.91 218.346 117.622 218.346C118.334 218.346 119.047 218.567 119.648 219.003L131.64 227.719C133.316 228.941 134.837 228.027 135.265 227.719C135.692 227.411 137.029 226.248 136.386 224.269L131.806 210.168C131.342 208.748 131.847 207.191 133.055 206.313L145.046 197.598L145.064 197.603C146.746 196.381 146.351 194.653 146.186 194.152C146.02 193.652 145.331 192.021 143.25 192.021H128.424C126.931 192.021 125.608 191.06 125.148 189.641L120.567 175.541C119.924 173.561 118.156 173.409 117.632 173.409Z" fill="black"/>
<path d="M117.613 166.513C122.015 166.517 125.741 169.219 127.101 173.409L130.909 185.124H143.236C147.638 185.124 151.364 187.826 152.724 192.016C154.084 196.206 152.659 200.584 149.099 203.171L139.129 210.411L142.938 222.132C144.297 226.322 142.873 230.701 139.312 233.287C137.535 234.583 135.49 235.23 133.45 235.23C131.41 235.23 129.37 234.583 127.588 233.287L117.618 226.046L107.648 233.287C104.083 235.874 99.4795 235.874 95.9189 233.287C92.3538 230.701 90.9341 226.322 92.2939 222.132L96.1025 210.411L86.1328 203.171C82.5723 200.584 81.1479 196.206 82.5078 192.016C83.8677 187.83 87.5939 185.124 91.9951 185.124H104.317L108.126 173.404C109.486 169.219 113.212 166.513 117.613 166.513ZM117.632 173.409C117.103 173.409 115.339 173.561 114.696 175.541L110.115 189.641C109.656 191.06 108.333 192.02 106.84 192.021H92.0137C89.9325 192.021 89.2389 193.652 89.0781 194.152C88.9173 194.653 88.5178 196.381 90.1992 197.603L102.19 206.318C103.394 207.191 103.899 208.748 103.439 210.168L98.8594 224.269C98.2165 226.248 99.5532 227.411 99.9805 227.719C100.404 228.027 101.924 228.941 103.605 227.719L115.597 219.003C116.203 218.567 116.91 218.346 117.622 218.346C118.334 218.346 119.047 218.567 119.648 219.003L131.64 227.719C133.316 228.941 134.837 228.027 135.265 227.719C135.692 227.411 137.029 226.248 136.386 224.269L131.806 210.168C131.342 208.748 131.847 207.191 133.055 206.313L145.046 197.598L145.064 197.603C146.746 196.381 146.351 194.653 146.186 194.152C146.02 193.652 145.331 192.021 143.25 192.021H128.424C126.931 192.021 125.608 191.06 125.148 189.641L120.567 175.541C119.924 173.561 118.156 173.409 117.632 173.409Z" stroke="white"/>
<path d="M199.614 134.356C204.016 134.356 207.742 137.062 209.102 141.252L212.91 152.967H225.232C229.634 152.967 233.36 155.669 234.72 159.859L234.724 159.855C236.083 164.045 234.659 168.423 231.099 171.009L221.129 178.25L224.938 189.97C226.297 194.16 224.874 198.539 221.313 201.125C217.748 203.712 213.145 203.712 209.584 201.125L199.614 193.884L189.645 201.125C187.867 202.421 185.822 203.069 183.782 203.069C181.742 203.069 179.702 202.421 177.92 201.125C174.355 198.539 172.935 194.16 174.295 189.97L178.104 178.254L168.134 171.014C164.569 168.428 163.149 164.044 164.509 159.859C165.869 155.674 169.595 152.967 173.996 152.967H186.318L190.127 141.252C191.487 137.062 195.213 134.356 199.614 134.356ZM199.628 141.243C199.1 141.243 197.336 141.395 196.692 143.375L192.111 157.475C191.652 158.894 190.329 159.855 188.836 159.855H174.01C171.929 159.855 171.235 161.485 171.074 161.986C170.913 162.487 170.514 164.215 172.195 165.437L184.187 174.152C185.39 175.029 185.895 176.587 185.436 178.006L180.855 192.107C180.212 194.087 181.549 195.249 181.977 195.557C182.399 195.865 183.92 196.779 185.602 195.557L197.593 186.841C198.801 185.964 200.436 185.964 201.645 186.841L213.636 195.557C215.317 196.779 216.833 195.865 217.261 195.557C217.688 195.249 219.025 194.087 218.382 192.107L213.802 178.006C213.338 176.587 213.843 175.029 215.051 174.152L227.042 165.437H227.061C228.742 164.215 228.347 162.487 228.182 161.986C228.016 161.485 227.327 159.855 225.246 159.855H210.42C208.927 159.855 207.604 158.894 207.145 157.475L202.563 143.375C201.92 141.395 200.156 141.243 199.628 141.243Z" fill="black"/>
<path d="M199.614 134.356C204.016 134.356 207.742 137.062 209.102 141.252L212.91 152.967H225.232C229.634 152.967 233.36 155.669 234.72 159.859L234.724 159.855C236.083 164.045 234.659 168.423 231.099 171.009L221.129 178.25L224.938 189.97C226.297 194.16 224.874 198.539 221.313 201.125C217.748 203.712 213.145 203.712 209.584 201.125L199.614 193.884L189.645 201.125C187.867 202.421 185.822 203.069 183.782 203.069C181.742 203.069 179.702 202.421 177.92 201.125C174.355 198.539 172.935 194.16 174.295 189.97L178.104 178.254L168.134 171.014C164.569 168.428 163.149 164.044 164.509 159.859C165.869 155.674 169.595 152.967 173.996 152.967H186.318L190.127 141.252C191.487 137.062 195.213 134.356 199.614 134.356ZM199.628 141.243C199.1 141.243 197.336 141.395 196.692 143.375L192.111 157.475C191.652 158.894 190.329 159.855 188.836 159.855H174.01C171.929 159.855 171.235 161.485 171.074 161.986C170.913 162.487 170.514 164.215 172.195 165.437L184.187 174.152C185.39 175.029 185.895 176.587 185.436 178.006L180.855 192.107C180.212 194.087 181.549 195.249 181.977 195.557C182.399 195.865 183.92 196.779 185.602 195.557L197.593 186.841C198.801 185.964 200.436 185.964 201.645 186.841L213.636 195.557C215.317 196.779 216.833 195.865 217.261 195.557C217.688 195.249 219.025 194.087 218.382 192.107L213.802 178.006C213.338 176.587 213.843 175.029 215.051 174.152L227.042 165.437H227.061C228.742 164.215 228.347 162.487 228.182 161.986C228.016 161.485 227.327 159.855 225.246 159.855H210.42C208.927 159.855 207.604 158.894 207.145 157.475L202.563 143.375C201.92 141.395 200.156 141.243 199.628 141.243Z" stroke="white"/>
<path d="M35.6084 134.353C40.0098 134.353 43.7358 137.059 45.0957 141.244L48.9043 152.964H61.2363C65.6375 152.964 69.3637 155.666 70.7236 159.855C72.0835 164.045 70.6591 168.424 67.0986 171.011L57.1289 178.251L60.9375 189.972C62.2973 194.162 60.8776 198.54 57.3125 201.127C53.7474 203.713 49.1436 203.713 45.583 201.127L35.6133 193.886L25.6436 201.127C23.8656 202.422 21.821 203.07 19.7812 203.07C17.7415 203.07 15.7015 202.422 13.9189 201.127C10.3538 198.54 8.9341 194.162 10.2939 189.972L14.1025 178.251L4.13281 171.011C0.57228 168.424 -0.852097 164.045 0.507812 159.855C1.86774 155.67 5.59389 152.964 9.99512 152.964H22.3125L26.1211 141.244C27.481 137.059 31.2072 134.353 35.6084 134.353ZM35.6133 141.244C35.0848 141.244 33.3209 141.396 32.6777 143.376L28.0967 157.476C27.6372 158.895 26.3144 159.855 24.8213 159.855H10.0088C7.92796 159.856 7.23409 161.486 7.07324 161.987C6.91245 162.488 6.513 164.215 8.19434 165.438L20.1855 174.153C21.3891 175.026 21.8947 176.583 21.4355 178.003L16.8545 192.104C16.2115 194.083 17.5483 195.246 17.9756 195.554C18.3983 195.862 19.9191 196.776 21.6006 195.554L33.5918 186.838C34.8001 185.96 36.4363 185.96 37.6445 186.838L49.6357 195.554C51.3167 196.775 52.8321 195.862 53.2598 195.554C53.687 195.246 55.024 194.084 54.3809 192.104L49.8008 178.003C49.3369 176.583 49.8426 175.031 51.0508 174.153L63.042 165.438H63.0459C64.7274 164.215 64.3278 162.488 64.167 161.987C64.0015 161.486 63.3124 159.856 61.2314 159.855H46.4053C44.9122 159.855 43.5893 158.895 43.1299 157.476L38.5488 143.376C37.9056 141.396 36.1416 141.244 35.6133 141.244Z" fill="black"/>
<path d="M35.6084 134.353C40.0098 134.353 43.7358 137.059 45.0957 141.244L48.9043 152.964H61.2363C65.6375 152.964 69.3637 155.666 70.7236 159.855C72.0835 164.045 70.6591 168.424 67.0986 171.011L57.1289 178.251L60.9375 189.972C62.2973 194.162 60.8776 198.54 57.3125 201.127C53.7474 203.713 49.1436 203.713 45.583 201.127L35.6133 193.886L25.6436 201.127C23.8656 202.422 21.821 203.07 19.7812 203.07C17.7415 203.07 15.7015 202.422 13.9189 201.127C10.3538 198.54 8.9341 194.162 10.2939 189.972L14.1025 178.251L4.13281 171.011C0.57228 168.424 -0.852097 164.045 0.507812 159.855C1.86774 155.67 5.59389 152.964 9.99512 152.964H22.3125L26.1211 141.244C27.481 137.059 31.2072 134.353 35.6084 134.353ZM35.6133 141.244C35.0848 141.244 33.3209 141.396 32.6777 143.376L28.0967 157.476C27.6372 158.895 26.3144 159.855 24.8213 159.855H10.0088C7.92796 159.856 7.23409 161.486 7.07324 161.987C6.91245 162.488 6.513 164.215 8.19434 165.438L20.1855 174.153C21.3891 175.026 21.8947 176.583 21.4355 178.003L16.8545 192.104C16.2115 194.083 17.5483 195.246 17.9756 195.554C18.3983 195.862 19.9191 196.776 21.6006 195.554L33.5918 186.838C34.8001 185.96 36.4363 185.96 37.6445 186.838L49.6357 195.554C51.3167 196.775 52.8321 195.862 53.2598 195.554C53.687 195.246 55.024 194.084 54.3809 192.104L49.8008 178.003C49.3369 176.583 49.8426 175.031 51.0508 174.153L63.042 165.438H63.0459C64.7274 164.215 64.3278 162.488 64.167 161.987C64.0015 161.486 63.3124 159.856 61.2314 159.855H46.4053C44.9122 159.855 43.5893 158.895 43.1299 157.476L38.5488 143.376C37.9056 141.396 36.1416 141.244 35.6133 141.244Z" stroke="white"/>
</svg>
