<svg width="235" height="235" viewBox="0 0 235 235" fill="none" xmlns="http://www.w3.org/2000/svg">
<mask id="mask0_946_54" style="mask-type:luminance" maskUnits="userSpaceOnUse" x="0" y="0" width="235" height="235">
<path d="M230.79 230.79V4H4V230.79H230.79Z" fill="white" stroke="white" stroke-width="8"/>
</mask>
<g mask="url(#mask0_946_54)">
<path d="M188.189 61.1534C188.598 61.5382 189.239 61.5267 189.65 61.1438C191.113 59.78 193.094 58.944 195.261 58.95C199.706 58.9638 203.332 62.6131 203.27 66.9989C203.157 74.8368 191.88 81.1436 189.394 82.4395C189.091 82.5973 188.731 82.601 188.426 82.4496C185.896 81.2023 174.394 75.0785 174.556 66.9989C174.644 62.7025 178.261 58.9812 182.614 58.95C184.782 58.9349 186.74 59.7869 188.189 61.1534Z" stroke="black" stroke-width="8" stroke-miterlimit="10" stroke-linecap="round" stroke-linejoin="round"/>
<path d="M160.9 43.0874H212.669C217.559 43.0874 221.523 47.0517 221.523 51.9415V83.8555C221.523 88.7458 217.559 92.7097 212.669 92.7097H201.737C200.446 92.7097 199.207 93.2169 198.287 94.1221L190.651 101.634C189.689 102.58 188.144 102.575 187.189 101.622L179.699 94.1469C178.777 93.2265 177.528 92.7097 176.224 92.7097H165.159C160.269 92.7097 156.305 88.7458 156.305 83.8555V66.3178" stroke="black" stroke-width="8" stroke-miterlimit="10" stroke-linecap="round" stroke-linejoin="round"/>
<path d="M45.0483 61.1534C45.4569 61.5382 46.0979 61.5267 46.5088 61.1438C47.9721 59.78 49.9532 58.944 52.1204 58.95C56.5649 58.9638 60.1913 62.6131 60.1285 66.9989C60.0161 74.8368 48.7389 81.1436 46.2529 82.4395C45.9503 82.5973 45.5903 82.601 45.2844 82.4496C42.7554 81.2023 31.253 75.0785 31.4158 66.9989C31.5024 62.7025 35.1197 58.9812 39.4734 58.95C41.6411 58.9349 43.5987 59.7869 45.0483 61.1534Z" stroke="black" stroke-width="8" stroke-miterlimit="10" stroke-linecap="round" stroke-linejoin="round"/>
<path d="M78.382 65.2056V83.8558C78.382 88.746 74.4177 92.71 69.5279 92.71H58.5955C57.3046 92.71 56.0655 93.2172 55.1456 94.1224L47.5104 101.634C46.5483 102.581 45.0033 102.575 44.0481 101.622L36.5578 94.1467C35.636 93.2263 34.3864 92.71 33.0836 92.71H22.0178C17.128 92.71 13.1641 88.746 13.1641 83.8558V51.9413C13.1641 47.0516 17.128 43.0876 22.0178 43.0876H74.6071" stroke="black" stroke-width="8" stroke-miterlimit="10" stroke-linecap="round" stroke-linejoin="round"/>
<path d="M120 3.43928H148.019C154.81 3.43928 160.316 8.94492 160.316 15.7359V56.1574C160.316 62.9489 154.81 68.4546 148.019 68.4546H133.355C131.256 68.4546 129.256 69.3492 127.856 70.9134L120.178 79.4952C118.802 81.0333 116.392 81.0236 115.028 79.4746L107.531 70.9575C106.13 69.3667 104.113 68.4546 101.993 68.4546H87.1643C80.3724 68.4546 74.8672 62.9489 74.8672 56.1574V15.7359C74.8672 8.94492 80.3724 3.43928 87.1643 3.43928H103.95" stroke="black" stroke-width="8" stroke-miterlimit="10" stroke-linecap="round" stroke-linejoin="round"/>
<path d="M116.48 23.5382C117.107 24.1288 118.091 24.1114 118.721 23.5244C120.966 21.431 124.005 20.1484 127.33 20.1585C134.149 20.1787 139.713 25.7774 139.616 32.507C139.443 44.5308 122.142 54.2072 118.328 56.1951C117.864 56.4368 117.312 56.4432 116.843 56.2111C112.963 54.2971 95.3152 44.9027 95.5651 32.507C95.6981 25.915 101.248 20.2053 107.927 20.1585C111.253 20.1346 114.257 21.442 116.48 23.5382Z" stroke="black" stroke-width="8" stroke-miterlimit="10" stroke-linecap="round" stroke-linejoin="round"/>
<path d="M36.2265 197.296L16.7761 205.311C12.477 207.082 9.67188 211.272 9.67188 215.922V226.76C9.67188 229.296 11.7272 231.351 14.2627 231.351H72.1178" stroke="black" stroke-width="8" stroke-miterlimit="10" stroke-linecap="round" stroke-linejoin="round"/>
<path d="M73.2273 204.735L55.1751 197.296L55.1719 197.3" stroke="black" stroke-width="8" stroke-miterlimit="10" stroke-linecap="round" stroke-linejoin="round"/>
<path d="M179.617 187.07V197.297" stroke="black" stroke-width="8" stroke-miterlimit="10" stroke-linecap="round" stroke-linejoin="round"/>
<path d="M198.562 197.297V187.421" stroke="black" stroke-width="8" stroke-miterlimit="10" stroke-linecap="round" stroke-linejoin="round"/>
<path d="M162.878 231.351H189.083L187.716 229.846C179.752 221.083 179.61 209.2 179.61 197.296L161.625 204.707" stroke="black" stroke-width="8" stroke-miterlimit="10" stroke-linecap="round" stroke-linejoin="round"/>
<path d="M218.016 205.31L198.566 197.295C198.566 209.041 198.439 221.12 190.39 229.924L189.086 231.35H220.529C223.065 231.35 225.12 229.295 225.12 226.76V215.921C225.12 211.271 222.315 207.081 218.016 205.31Z" stroke="black" stroke-width="8" stroke-miterlimit="10" stroke-linecap="round" stroke-linejoin="round"/>
<path d="M36.2266 182.951V197.301L36.2298 197.305C41.2264 203.072 50.1741 203.074 55.1726 197.308L55.1785 197.301V183.088" stroke="black" stroke-width="8" stroke-miterlimit="10" stroke-linecap="round" stroke-linejoin="round"/>
<path d="M23.9219 162.033C26.3239 174.758 36.9298 186.787 45.706 186.787C54.5427 186.787 65.2225 174.606 67.5341 161.794" stroke="black" stroke-width="8" stroke-miterlimit="10" stroke-linecap="round" stroke-linejoin="round"/>
<path d="M16.7734 205.31L36.2239 231.35" stroke="black" stroke-width="8" stroke-miterlimit="10" stroke-linecap="round" stroke-linejoin="round"/>
<path d="M71.4325 212.483L55.1797 231.351" stroke="black" stroke-width="8" stroke-miterlimit="10" stroke-linecap="round" stroke-linejoin="round"/>
<path d="M19.4764 139.215C16.6704 148.522 19.3645 159.509 22.1168 163.809C22.1168 163.809 27.4418 154.654 39.7518 150.173C51.3101 145.966 56.5081 134.058 52.5634 127.895C49.0274 122.371 38.9983 121.601 29.8048 126.729" stroke="black" stroke-width="8" stroke-miterlimit="10" stroke-linecap="round" stroke-linejoin="round"/>
<path d="M53.8321 131.649C57.9679 129.855 64.797 129.696 69.1705 134.124C78.4479 143.519 72.5955 158.358 69.2879 163.526C69.2879 163.526 64.4627 157.493 57.1907 152.838C53.3845 150.402 50.6904 147.059 49.4609 143.686" stroke="black" stroke-width="8" stroke-miterlimit="10" stroke-linecap="round" stroke-linejoin="round"/>
<path d="M105.562 171.692V188.458L105.566 188.462C111.86 195.726 123.13 195.728 129.426 188.466L129.433 188.458V171.692" stroke="black" stroke-width="8" stroke-miterlimit="10" stroke-linecap="round" stroke-linejoin="round"/>
<path d="M99.1484 164.962C103.592 171.081 109.754 175.215 117.496 175.215C134.081 175.215 143.504 155.98 144.223 139.177" stroke="black" stroke-width="8" stroke-miterlimit="10" stroke-linecap="round" stroke-linejoin="round"/>
<path d="M91.1094 142.809C91.3886 145.362 91.8605 147.934 92.5199 150.451" stroke="black" stroke-width="8" stroke-miterlimit="10" stroke-linecap="round" stroke-linejoin="round"/>
<path d="M105.564 188.458L80.6425 198.727C75.4836 200.852 72.1172 205.88 72.1172 211.459V231.35H162.88V211.459C162.88 205.88 159.514 200.852 154.355 198.727L129.434 188.458L129.43 188.462" stroke="black" stroke-width="8" stroke-miterlimit="10" stroke-linecap="round" stroke-linejoin="round"/>
<path d="M167.906 161.917C168.241 175.502 179.752 191.373 189.086 191.373C198.565 191.373 210.274 175.027 210.274 161.313C210.274 150.698 205.798 141.64 197.416 138.086L197.415 138.088C195.048 148.891 186.585 157.314 175.77 159.628L167.898 161.313L167.906 161.917Z" stroke="black" stroke-width="8" stroke-miterlimit="10" stroke-linecap="round" stroke-linejoin="round"/>
<path d="M161.266 138.757C157.401 144.269 155.133 150.983 155.133 158.227V199.079" stroke="black" stroke-width="8" stroke-miterlimit="10" stroke-linecap="round" stroke-linejoin="round"/>
<path d="M223.041 208.987V158.228C223.041 139.475 207.84 124.273 189.087 124.273C183.506 124.273 178.239 125.62 173.594 128.006" stroke="black" stroke-width="8" stroke-miterlimit="10" stroke-linecap="round" stroke-linejoin="round"/>
<path d="M93.0547 193.614L93.2028 193.789C102.093 204.253 107.357 217.316 108.207 231.021L108.227 231.351" stroke="black" stroke-width="8" stroke-miterlimit="10" stroke-linecap="round" stroke-linejoin="round"/>
<path d="M141.586 193.913C132.764 204.298 127.512 217.244 126.604 230.841L126.57 231.351" stroke="black" stroke-width="8" stroke-miterlimit="10" stroke-linecap="round" stroke-linejoin="round"/>
<path d="M145.107 113.57C145.028 113.56 144.948 113.55 144.867 113.542C145.753 111.93 146.193 110.038 146.014 108.031C145.605 103.437 141.883 99.7201 137.287 99.3193C133.959 99.029 130.944 100.435 129.009 102.768C128.349 96.9361 123.401 92.4031 117.393 92.4031C114.443 92.4031 111.75 93.4973 109.693 95.2995C107.934 92.9859 105.161 91.486 102.03 91.486C97.0181 91.486 92.9037 95.3164 92.4461 100.209C85.0396 100.428 79.1016 106.496 79.1016 113.956C79.1016 117.564 80.4924 120.845 82.7642 123.299C82.7642 123.299 82.3795 128.228 83.2287 132.758C84.6045 140.095 91.0245 142.388 91.0245 142.388C91.0245 135.051 100.577 137.061 102.03 130.465C102.03 130.465 104.432 130.923 105.699 130.923C113.018 130.923 119.221 126.158 121.385 119.563C123.405 122.544 126.819 124.503 130.691 124.503C131.902 124.503 133.068 124.309 134.161 123.954C136.882 133.675 144.219 130.465 144.219 139.178C148.831 137.095 151.512 129.993 152.827 125.262C154.34 119.816 150.716 114.265 145.107 113.57Z" stroke="black" stroke-width="8" stroke-miterlimit="10" stroke-linecap="round" stroke-linejoin="round"/>
</g>
</svg>
