<svg width="497" height="497" viewBox="0 0 497 497" fill="none" xmlns="http://www.w3.org/2000/svg">
<path d="M496 270.96V223.04C496 219.68 493.92 216.72 490.8 215.52C487.68 214.32 484.16 215.2 482 217.76L379.28 335.12C377.68 314.96 375.04 295.6 371.28 277.28C363.92 241.12 342.96 151.44 332.8 108.24C352.88 113.12 390.56 120.88 405.84 114.72C417.52 110 438.72 134.96 449.44 153.28C450.138 154.489 451.14 155.494 452.347 156.196C453.554 156.898 454.924 157.272 456.32 157.28C457.04 157.28 457.76 157.2 458.48 156.96C462 156 464.4 152.8 464.32 149.2C464.16 124.64 461.68 99.84 444.88 85.28C431.76 73.92 411.68 70.32 383.52 74.08C374.64 75.28 360.64 78.8 348.16 82.16C365.28 72 384.56 58.8 390 47.92C395.52 36.72 428 41.12 448.24 47.68C451.68 48.8 455.44 47.44 457.44 44.4C459.44 41.36 459.12 37.36 456.64 34.72C440.32 16.64 422.16 0 400.24 0H399.6C382.24 0.24 364.88 10.88 346.32 32.56C336.4 44.24 319.44 70.32 313.2 81.2C310.96 85.2 309.6 87.36 309.36 88.24C299.04 79.68 276.32 61.36 263.6 53.76C239.2 39.2 219.28 34.64 202.72 40C181.52 46.8 169.6 68.64 159.76 91.2C158.32 94.56 159.28 98.4 162.16 100.64C165.04 102.88 168.96 102.96 171.92 100.8C188.96 88.16 218.32 73.52 227.2 82.32C233.76 88.88 248.48 94.08 263.76 98.08C256.72 98.72 250.24 99.52 245.36 100.48C217.44 105.92 199.6 115.92 190.88 130.88C179.68 150.08 185.28 174.32 193.04 197.68C193.577 199.269 194.599 200.649 195.963 201.625C197.327 202.601 198.963 203.124 200.64 203.12H201.12C202.881 203.014 204.557 202.329 205.888 201.171C207.219 200.014 208.13 198.449 208.48 196.72C212.72 175.92 224.8 145.36 237.28 146.08C252.48 146.88 281.92 130.32 300.08 119.04C303.36 158.64 311.36 258.48 312.48 287.36C313.28 308.32 309.12 333.36 300.4 361.76H84.08C81.12 361.76 78.4 363.44 76.96 366.08L45.04 425.92C43.68 428.4 43.76 431.44 45.2 433.84C46.64 436.24 49.28 437.76 52.08 437.76H138.08L117.36 484.8C116.24 487.28 116.48 490.16 118 492.4C119.52 494.64 122 496 124.72 496H157.6C160.8 496 163.6 494.16 164.96 491.2L188.56 437.68H269.44C256 464.96 244.48 483.52 244.32 483.68C242.8 486.16 242.72 489.28 244.08 491.84C245.52 494.4 248.16 496 251.12 496H365.12C368.96 496 372.32 493.28 372.96 489.44C373.12 488.56 376.72 468.72 379.12 437.76H402.16L425.76 491.28C427.04 494.16 429.92 496.08 433.12 496.08H466C468.72 496.08 471.2 494.72 472.72 492.48C474.24 490.24 474.4 487.36 473.36 484.88L452.64 437.84H488.16C492.56 437.84 496.16 434.24 496.16 429.84V400.64C496.16 396.24 492.56 392.64 488.16 392.64H394.16L494.24 276.16C495.52 274.72 496.16 272.88 496.16 270.96H496ZM385.6 90C408.96 86.8 424.96 89.2 434.32 97.44C440.72 103.04 444.24 111.6 446.16 121.52C436 109.76 422.48 98.16 408.72 98.16C405.76 98.16 402.8 98.72 399.84 99.92C393.12 102.64 374.48 100.48 355.52 96.8C366.56 93.84 378.24 91.04 385.6 90ZM358.4 42.96C373.76 25.04 387.28 16.24 399.68 16C408.08 15.84 416.48 19.92 424.56 26.08C405.84 23.68 383.52 24.72 375.52 40.8C372.32 47.28 356.96 58.08 340.4 68C346.72 58.48 353.52 48.56 358.32 42.88L358.4 42.96ZM219.2 63.76C208.8 63.76 197.28 67.92 187.28 72.8C192.88 64.4 199.52 57.84 207.6 55.28C219.52 51.44 235.12 55.44 255.36 67.52C261.76 71.36 271.36 78.48 280.4 85.52C261.52 81.44 243.52 76.16 238.4 71.04C233.12 65.76 226.4 63.76 219.12 63.76H219.2ZM238.08 130.16C220.08 129.2 208.24 148.08 201.2 165.6C199.76 155.6 200.32 146.32 204.64 138.96C210.96 128.16 225.28 120.72 248.4 116.24C255.76 114.8 267.68 113.76 279.04 112.96C262.32 122.56 245.44 130.48 238.08 130.16ZM323.44 336.4C330.8 336.4 336.96 337.2 341.84 338.64C343.877 339.251 346.073 339.029 347.947 338.025C349.821 337.02 351.221 335.314 351.84 333.28C353.12 329.04 350.72 324.56 346.48 323.28C340.88 321.6 334.08 320.64 326.32 320.4C328.08 308.4 328.8 297.2 328.4 286.8C327.2 254.64 317.84 139.84 315.28 108.88C315.68 108.48 316 108.08 316.32 107.68C325.52 146.88 345.92 234.16 354.48 274.56C352.78 274.355 351.096 274.034 349.44 273.6C347.416 273.027 345.248 273.272 343.402 274.282C341.557 275.292 340.182 276.986 339.573 279C338.965 281.014 339.172 283.186 340.15 285.049C341.127 286.912 342.797 288.316 344.8 288.96C348.4 290 352.8 290.56 357.52 290.8C360.96 310.24 363.28 330.8 364.32 352.16L355.84 361.84H317.04C319.6 353.04 321.76 344.56 323.44 336.4ZM88.88 377.84H354.8L363.04 392.64H81.28L88.96 377.84H88.88ZM152.24 480.08H136.8L155.44 437.84H170.88L152.24 480.08ZM362.08 447.36C352.88 448.64 334.8 450.4 322.4 446.64C320.376 446.067 318.208 446.312 316.362 447.322C314.517 448.332 313.142 450.026 312.533 452.04C311.925 454.054 312.132 456.226 313.11 458.089C314.087 459.952 315.757 461.356 317.76 462C325.04 464.16 333.52 464.88 341.52 464.88C348.48 464.88 355.12 464.32 360.32 463.76C359.52 470.64 358.72 476.24 358.16 480.08H264.96C270.48 470.48 278.48 455.68 287.04 437.84H362.88C362.64 441.2 362.32 444.32 362.08 447.36ZM453.52 480.08H438.08L419.44 437.84H434.88L453.52 480.08ZM479.92 421.84H65.6L72.8 408.64H480V421.84H479.92ZM479.92 268L377.92 386.72L369.12 370.88L479.92 244.32V268ZM94.88 63.12C94.88 45.6 80.56 31.28 63.04 31.28C45.52 31.28 31.2 45.6 31.2 63.12C31.2 80.64 45.52 94.96 63.04 94.96C80.56 94.96 94.88 80.64 94.88 63.12ZM47.2 63.12C47.2 54.4 54.32 47.28 63.04 47.28C71.76 47.28 78.88 54.4 78.88 63.12C78.88 71.84 71.76 78.96 63.04 78.96C54.32 78.96 47.2 71.84 47.2 63.12ZM63.04 26C67.44 26 71.04 22.4 71.04 18V8.08C71.04 3.68 67.44 0.0799999 63.04 0.0799999C58.64 0.0799999 55.04 3.68 55.04 8.08V18C55.04 22.4 58.64 26 63.04 26ZM94.96 39.2C97.04 39.2 99.04 38.4 100.64 36.88L107.68 29.92C108.421 29.1793 109.008 28.3001 109.409 27.3323C109.81 26.3646 110.016 25.3274 110.016 24.28C110.016 23.2326 109.81 22.1954 109.409 21.2277C109.008 20.2599 108.421 19.3807 107.68 18.64C106.939 17.8993 106.06 17.3118 105.092 16.911C104.125 16.5101 103.087 16.3038 102.04 16.3038C100.993 16.3038 99.9554 16.5101 98.9877 16.911C98.0199 17.3118 97.1407 17.8993 96.4 18.64L89.36 25.6C88.2436 26.7172 87.4844 28.141 87.1789 29.6905C86.8733 31.2401 87.0351 32.8455 87.6438 34.3029C88.2525 35.7603 89.2805 37.0039 90.5974 37.8758C91.9143 38.7477 93.4606 39.2087 95.04 39.2H94.96ZM100.16 63.12C100.16 67.52 103.76 71.12 108.16 71.12H118.08C122.48 71.12 126.08 67.52 126.08 63.12C126.08 58.72 122.48 55.12 118.08 55.12H108.16C103.76 55.12 100.16 58.72 100.16 63.12ZM100.64 89.36C99.8993 88.6193 99.0201 88.0318 98.0523 87.631C97.0846 87.2301 96.0474 87.0238 95 87.0238C93.9526 87.0238 92.9154 87.2301 91.9477 87.631C90.9799 88.0318 90.1007 88.6193 89.36 89.36C88.6193 90.1007 88.0318 90.9799 87.631 91.9477C87.2301 92.9154 87.0238 93.9526 87.0238 95C87.0238 96.0474 87.2301 97.0846 87.631 98.0523C88.0318 99.0201 88.6193 99.8993 89.36 100.64L96.4 107.68C98 109.28 100 110 102.08 110C104.16 110 106.16 109.2 107.76 107.68C108.502 106.94 109.09 106.061 109.491 105.093C109.893 104.125 110.1 103.088 110.1 102.04C110.1 100.992 109.893 99.9548 109.491 98.987C109.09 98.0192 108.502 97.1401 107.76 96.4L100.72 89.36H100.64ZM55.04 108.24V118.16C55.04 122.56 58.64 126.16 63.04 126.16C67.44 126.16 71.04 122.56 71.04 118.16V108.24C71.04 103.84 67.44 100.24 63.04 100.24C58.64 100.24 55.04 103.84 55.04 108.24ZM25.44 89.36L18.4 96.4C17.2836 97.5172 16.5244 98.941 16.2189 100.491C15.9133 102.04 16.0751 103.645 16.6838 105.103C17.2925 106.56 18.3206 107.804 19.6374 108.676C20.9543 109.548 22.5006 110.009 24.08 110C26.16 110 28.16 109.2 29.76 107.68L36.8 100.64C38.2958 99.1442 39.1362 97.1154 39.1362 95C39.1362 92.8846 38.2958 90.8558 36.8 89.36C35.3042 87.8642 33.2754 87.0238 31.16 87.0238C29.0446 87.0238 27.0158 87.8642 25.52 89.36H25.44ZM25.92 63.12C25.92 58.72 22.32 55.12 17.92 55.12H8C3.6 55.12 0 58.72 0 63.12C0 67.52 3.6 71.12 8 71.12H17.92C22.32 71.12 25.92 67.52 25.92 63.12ZM25.44 36.88C27.04 38.4 29.04 39.2 31.12 39.2C33.2 39.2 35.2 38.4 36.8 36.88C37.5416 36.1399 38.13 35.2608 38.5315 34.293C38.9329 33.3252 39.1396 32.2877 39.1396 31.24C39.1396 30.1923 38.9329 29.1548 38.5315 28.187C38.13 27.2192 37.5416 26.3401 36.8 25.6L29.76 18.64C29.0193 17.8993 28.1401 17.3118 27.1723 16.911C26.2046 16.5101 25.1674 16.3038 24.12 16.3038C23.0726 16.3038 22.0354 16.5101 21.0677 16.911C20.0999 17.3118 19.2207 17.8993 18.48 18.64C17.7393 19.3807 17.1518 20.2599 16.751 21.2277C16.3501 22.1954 16.1438 23.2326 16.1438 24.28C16.1438 25.3274 16.3501 26.3646 16.751 27.3323C17.1518 28.3001 17.7393 29.1793 18.48 29.92L25.52 36.88H25.44Z" fill="black"/>
</svg>
