<svg width="619" height="619" viewBox="0 0 619 619" fill="none" xmlns="http://www.w3.org/2000/svg">
<path d="M451.288 390.486L513.478 310.158C523.758 296.879 521.973 278.217 509.469 268.263C496.71 258.107 477.687 260.882 467.197 274.432L436.953 313.497M415.21 341.579L377.5 390.288M10 483.561L91.9149 369.46C99.7023 358.612 109.961 349.775 121.841 343.679C133.722 337.584 146.883 334.404 160.236 334.404H283.537C299.411 334.404 312.28 347.272 312.28 363.146C312.28 379.021 299.411 391.889 283.537 391.889H175.29M184.186 549.938L131.072 609.001" stroke="black" stroke-width="18.0785" stroke-miterlimit="10" stroke-linecap="round" stroke-linejoin="round"/>
<path d="M238.864 391.89H449.89C461.787 391.891 473.204 387.196 481.66 378.826L559.997 301.283C572.14 289.264 592.022 290.415 602.695 303.755C611.634 314.928 611.004 330.971 601.215 341.407L515.781 432.492C494.967 454.683 466.98 468.804 436.765 472.361L269.399 492.063C246.518 494.757 225.293 505.343 209.375 521.998M401.784 102.795V94.3412C401.784 86.7748 395.65 80.6414 388.084 80.6414H230.918C223.352 80.6414 217.218 86.7748 217.218 94.3412V106.253C217.218 113.819 223.352 119.952 230.918 119.952C238.485 119.952 244.618 126.086 244.618 133.652V151.28H326.532M327.375 151.281H230.918C223.352 151.281 217.218 157.415 217.218 164.981V176.892C217.218 184.459 223.352 190.592 230.918 190.592C238.485 190.592 244.618 196.726 244.618 204.292V221.92H325.536M326.847 221.922H230.918C223.352 221.922 217.218 228.056 217.218 235.622V247.534C217.218 255.1 223.352 261.233 230.918 261.233C238.485 261.233 244.618 267.367 244.618 274.933V281.393C244.618 284.355 245.795 287.196 247.889 289.29C249.983 291.385 252.824 292.561 255.786 292.561H363.214C366.176 292.561 369.016 291.385 371.111 289.29C373.205 287.196 374.382 284.355 374.382 281.393V274.933C374.382 271.83 375.413 268.967 377.153 266.672" stroke="black" stroke-width="18.0785" stroke-miterlimit="10" stroke-linecap="round" stroke-linejoin="round"/>
<path d="M401.784 268.41C446.966 268.41 483.593 231.783 483.593 186.602C483.593 141.42 446.966 104.793 401.784 104.793C356.602 104.793 319.975 141.42 319.975 186.602C319.975 231.783 356.602 268.41 401.784 268.41Z" stroke="black" stroke-width="18.0785" stroke-miterlimit="10" stroke-linecap="round" stroke-linejoin="round"/>
<path d="M281.628 10H230.918C223.352 10 217.218 16.1334 217.218 23.6999V35.6112C217.218 43.1777 223.352 49.3111 230.918 49.3111C238.485 49.3111 244.618 55.4445 244.618 63.011V80.6387H374.383V63.0122C374.383 55.4457 380.516 49.3123 388.083 49.3123C395.649 49.3123 401.783 43.1789 401.783 35.6124V23.7011C401.783 16.1346 395.649 10.0012 388.083 10.0012H316.579M435.403 172.874H418.908C418.007 172.874 417.143 172.516 416.506 171.879C415.869 171.242 415.512 170.378 415.512 169.478V152.983C415.512 145.59 409.83 139.23 402.446 138.883C394.562 138.512 388.054 144.793 388.054 152.596V169.479C388.054 170.38 387.696 171.243 387.059 171.88C386.422 172.517 385.558 172.875 384.658 172.875H368.164C360.771 172.875 354.411 178.557 354.064 185.941C353.693 193.825 359.974 200.333 367.777 200.333H384.659C385.56 200.333 386.424 200.691 387.06 201.328C387.697 201.965 388.055 202.828 388.055 203.729V220.223C388.055 227.616 393.737 233.976 401.121 234.323C409.005 234.694 415.513 228.412 415.513 220.61V203.728C415.513 202.827 415.871 201.963 416.508 201.326C417.145 200.689 418.008 200.332 418.909 200.332H435.792C443.595 200.332 449.876 193.823 449.505 185.94C449.157 178.554 442.796 172.874 435.403 172.874Z" stroke="black" stroke-width="18.0785" stroke-miterlimit="10" stroke-linecap="round" stroke-linejoin="round"/>
</svg>
