<svg width="482" height="428" viewBox="0 0 482 428" fill="none" xmlns="http://www.w3.org/2000/svg">
<path d="M195.42 48.7941C208.891 48.7941 219.842 37.8582 219.842 24.4219C219.835 17.9468 217.26 11.7388 212.681 7.16028C208.103 2.58171 201.895 0.00657969 195.42 0C188.949 0 182.744 2.5704 178.168 7.14573C173.593 11.7211 171.023 17.9266 171.023 24.3971C171.023 30.8676 173.593 37.073 178.168 41.6484C182.744 46.2237 188.949 48.7941 195.42 48.7941ZM195.42 9.94175C199.259 9.9457 202.94 11.4725 205.654 14.1872C208.369 16.9019 209.896 20.5827 209.9 24.4219C209.9 32.3753 203.403 38.8523 195.42 38.8523C191.595 38.8471 187.928 37.3249 185.223 34.6197C182.519 31.9144 180.998 28.247 180.994 24.4219C180.992 20.5902 182.509 16.9138 185.213 14.1993C187.917 11.4847 191.588 9.95359 195.42 9.94175ZM439.51 346.057C433.039 346.057 426.834 348.628 422.258 353.203C417.683 357.778 415.112 363.984 415.112 370.454C415.112 376.925 417.683 383.13 422.258 387.706C426.834 392.281 433.039 394.851 439.51 394.851C452.981 394.851 463.931 383.92 463.931 370.479C463.925 364.004 461.35 357.796 456.771 353.218C452.193 348.639 445.985 346.064 439.51 346.057ZM439.51 384.91C435.685 384.903 432.019 383.381 429.315 380.676C426.611 377.971 425.089 374.304 425.084 370.479C425.081 366.647 426.599 362.971 429.303 360.257C432.007 357.542 435.678 356.011 439.51 355.999C443.349 356.003 447.029 357.53 449.744 360.245C452.459 362.959 453.986 366.64 453.99 370.479C453.99 378.433 447.493 384.91 439.51 384.91ZM32.733 394.856C46.2041 394.856 57.1549 383.92 57.1549 370.479C57.147 364.005 54.5714 357.797 49.9932 353.219C45.4149 348.641 39.2077 346.065 32.733 346.057C26.2625 346.057 20.057 348.628 15.4817 353.203C10.9063 357.778 8.33594 363.984 8.33594 370.454C8.33594 376.925 10.9063 383.13 15.4817 387.706C20.057 392.281 26.2625 394.851 32.733 394.851V394.856ZM32.733 355.999C36.5722 356.003 40.2529 357.53 42.9676 360.245C45.6823 362.959 47.2092 366.64 47.2131 370.479C47.2131 378.433 40.7212 384.91 32.733 384.91C28.9083 384.903 25.2422 383.381 22.5381 380.676C19.8341 377.971 18.3128 374.304 18.3075 370.479C18.3049 366.647 19.8221 362.971 22.5264 360.257C25.2307 357.542 28.9013 356.011 32.733 355.999ZM412.597 258.133L406.334 250.696C405.913 250.197 405.398 249.785 404.817 249.485C404.237 249.185 403.604 249.002 402.953 248.946C402.302 248.891 401.647 248.964 401.024 249.162C400.402 249.36 399.824 249.679 399.325 250.1C398.826 250.521 398.414 251.036 398.114 251.616C397.814 252.196 397.631 252.83 397.575 253.481C397.52 254.131 397.593 254.787 397.791 255.409C397.989 256.032 398.307 256.609 398.728 257.109L404.992 264.54C405.412 265.04 405.927 265.453 406.507 265.753C407.087 266.054 407.721 266.238 408.372 266.293C409.024 266.349 409.679 266.275 410.302 266.076C410.924 265.878 411.502 265.559 412.001 265.136C412.5 264.716 412.912 264.2 413.213 263.62C413.513 263.04 413.696 262.407 413.752 261.756C413.807 261.105 413.734 260.449 413.536 259.827C413.338 259.204 413.019 258.632 412.597 258.133ZM419.656 281.938L425.919 289.379C426.339 289.881 426.854 290.294 427.434 290.596C428.014 290.897 428.648 291.081 429.299 291.137C429.951 291.192 430.607 291.118 431.23 290.919C431.853 290.72 432.43 290.399 432.928 289.976C433.933 289.126 434.56 287.913 434.672 286.602C434.784 285.291 434.371 283.989 433.525 282.982L427.261 275.541C426.847 275.022 426.334 274.591 425.751 274.274C425.168 273.956 424.527 273.759 423.867 273.693C423.206 273.628 422.539 273.695 421.905 273.891C421.271 274.087 420.683 274.409 420.175 274.836C419.667 275.263 419.25 275.788 418.948 276.379C418.646 276.97 418.466 277.615 418.417 278.277C418.369 278.939 418.454 279.604 418.666 280.233C418.879 280.862 419.215 281.441 419.656 281.938ZM424.831 267.677C426.003 267.678 427.138 267.262 428.032 266.503L435.468 260.24C436.434 259.379 437.025 258.175 437.117 256.884C437.209 255.594 436.795 254.318 435.961 253.328C435.127 252.339 433.941 251.713 432.653 251.584C431.366 251.456 430.079 251.834 429.066 252.64L421.629 258.903C420.849 259.56 420.29 260.44 420.028 261.425C419.765 262.41 419.812 263.452 420.161 264.41C420.51 265.367 421.146 266.194 421.981 266.779C422.816 267.363 423.811 267.677 424.831 267.677ZM404.221 273.567L396.785 279.83C395.786 280.682 395.164 281.895 395.056 283.203C394.948 284.512 395.361 285.81 396.207 286.814C397.053 287.819 398.261 288.448 399.569 288.564C400.877 288.681 402.178 288.275 403.187 287.436L410.624 281.173C411.623 280.321 412.244 279.108 412.353 277.8C412.461 276.491 412.047 275.193 411.202 274.188C410.356 273.184 409.147 272.555 407.84 272.438C406.532 272.322 405.231 272.728 404.221 273.567ZM48.6547 258.133L42.3914 250.696C41.5411 249.688 40.3249 249.058 39.0105 248.946C37.696 248.834 36.391 249.249 35.3825 250.1C34.3739 250.95 33.7445 252.166 33.6326 253.481C33.5207 254.795 33.9356 256.1 34.786 257.109L41.0493 264.54C41.4697 265.04 41.9847 265.453 42.5648 265.753C43.145 266.054 43.7788 266.238 44.4299 266.293C45.081 266.349 45.7367 266.275 46.3593 266.076C46.9819 265.878 47.5593 265.559 48.0582 265.136C48.5579 264.716 48.9698 264.2 49.2703 263.62C49.5707 263.04 49.7539 262.407 49.8093 261.756C49.8647 261.105 49.7913 260.449 49.5931 259.827C49.395 259.204 49.0761 258.632 48.6547 258.133ZM55.7133 281.938L61.9766 289.379C62.3963 289.881 62.911 290.294 63.4912 290.596C64.0713 290.897 64.7054 291.081 65.3569 291.137C66.0084 291.192 66.6645 291.118 67.2873 290.919C67.91 290.72 68.4872 290.399 68.9856 289.976C69.9904 289.126 70.6175 287.913 70.7293 286.602C70.8411 285.291 70.4286 283.989 69.5821 282.982L63.3188 275.541C62.9049 275.022 62.3914 274.591 61.8084 274.274C61.2254 273.956 60.5848 273.759 59.9243 273.693C59.2639 273.628 58.597 273.695 57.9629 273.891C57.3289 274.087 56.7405 274.409 56.2326 274.836C55.7247 275.263 55.3075 275.788 55.0056 276.379C54.7037 276.97 54.5232 277.615 54.4748 278.277C54.4264 278.939 54.5111 279.604 54.7238 280.233C54.9365 280.862 55.273 281.441 55.7133 281.938ZM60.888 267.677C62.0605 267.678 63.1952 267.262 64.0893 266.503L71.5307 260.24C72.0391 259.822 72.4596 259.308 72.7676 258.726C73.0756 258.145 73.2651 257.508 73.3251 256.853C73.3851 256.197 73.3144 255.536 73.117 254.909C72.9197 254.281 72.5996 253.699 72.1755 253.195C71.7513 252.692 71.2315 252.278 70.6461 251.978C70.0607 251.677 69.4215 251.496 68.7655 251.444C68.1094 251.392 67.4497 251.471 66.8244 251.677C66.1992 251.882 65.6209 252.209 65.1232 252.64L57.6868 258.903C56.9069 259.56 56.3478 260.44 56.0851 261.425C55.8225 262.41 55.869 263.452 56.2184 264.41C56.5679 265.367 57.2033 266.194 58.0386 266.779C58.8738 267.363 59.8686 267.677 60.888 267.677ZM40.2788 273.567L32.8423 279.83C31.8432 280.682 31.2216 281.895 31.1134 283.203C31.0051 284.512 31.419 285.81 32.2645 286.814C33.1101 287.819 34.3187 288.448 35.6266 288.564C36.9344 288.681 38.2351 288.275 39.2448 287.436L46.6813 281.173C47.6804 280.321 48.302 279.108 48.4102 277.8C48.5185 276.491 48.1046 275.193 47.2591 274.188C46.4135 273.184 45.2049 272.555 43.897 272.438C42.5892 272.322 41.2885 272.728 40.2788 273.567ZM461.282 422.067C461.282 423.385 461.806 424.65 462.738 425.582C463.67 426.514 464.934 427.038 466.253 427.038H476.12C477.438 427.038 478.703 426.514 479.635 425.582C480.567 424.65 481.091 423.385 481.091 422.067C481.091 420.749 480.567 419.484 479.635 418.552C478.703 417.62 477.438 417.096 476.12 417.096H466.253C464.934 417.096 463.67 417.62 462.738 418.552C461.806 419.484 461.282 420.749 461.282 422.067Z" fill="black"/>
<path d="M211.188 82.5711C207.41 77.5456 199.123 77.5505 195.34 82.5711C182.347 99.8499 181.586 118.173 192.616 133.284C189.594 133.525 186.772 134.894 184.712 137.118C182.652 139.343 181.504 142.262 181.497 145.294V204.82H141.799C135.602 204.828 129.661 207.293 125.279 211.676C120.897 216.059 118.433 222 118.426 228.198V301.618H109.126C102.927 301.623 96.9828 304.087 92.5989 308.47C88.215 312.853 85.7492 318.797 85.7426 324.996V417.096H30.6106C29.2923 417.096 28.0279 417.62 27.0957 418.552C26.1635 419.484 25.6398 420.749 25.6398 422.067C25.6398 423.385 26.1635 424.65 27.0957 425.582C28.0279 426.514 29.2923 427.038 30.6106 427.038H448.204C449.522 427.038 450.787 426.514 451.719 425.582C452.651 424.65 453.175 423.385 453.175 422.067C453.175 420.749 452.651 419.484 451.719 418.552C450.787 417.62 449.522 417.096 448.204 417.096H395.348V324.996C395.342 318.797 392.877 312.855 388.494 308.472C384.111 304.089 378.169 301.624 371.97 301.618H362.953V228.198C362.947 222 360.482 216.057 356.099 211.674C351.716 207.292 345.774 204.826 339.575 204.82H299.888V145.294C299.879 142.265 298.733 139.35 296.676 137.126C294.619 134.903 291.802 133.533 288.783 133.289C299.818 118.178 299.053 99.8499 286.059 82.5711C285.14 81.3394 283.945 80.3402 282.569 79.6539C281.194 78.9676 279.677 78.6133 278.14 78.6193C274.994 78.6193 272.101 80.0608 270.217 82.5711C257.223 99.8499 256.462 118.168 267.493 133.284C264.464 133.518 261.635 134.883 259.568 137.109C257.501 139.334 256.348 142.256 256.338 145.294V204.82H225.036V145.294C225.028 142.259 223.878 139.339 221.815 137.114C219.752 134.888 216.927 133.521 213.902 133.284C224.932 118.173 224.171 99.8499 211.183 82.5711H211.188ZM203.239 88.5461C209.935 97.444 218.321 114.295 203.264 130.699C188.202 114.295 196.588 97.444 203.239 88.5461ZM128.368 250.438C138.777 256.621 158.342 263.247 181.954 247.182C190.713 253.783 215.905 268.79 241.778 247.515C247.147 251.705 258.048 258.615 271.589 258.615C280.327 258.615 290.18 255.732 300.33 247.361C308.547 253.127 329.842 264.644 353.012 250.373V301.618H337.438C334.788 291.094 325.354 283.409 314.174 283.409C308.812 283.413 303.605 285.207 299.377 288.505C295.15 291.803 292.144 296.418 290.836 301.618H264.008C262.714 296.424 259.722 291.812 255.507 288.513C251.293 285.214 246.097 283.418 240.744 283.409C235.382 283.413 230.175 285.207 225.948 288.505C221.72 291.803 218.714 296.418 217.406 301.618H190.568C189.275 296.425 186.283 291.813 182.07 288.515C177.856 285.216 172.661 283.419 167.31 283.409C161.948 283.412 156.74 285.205 152.512 288.504C148.284 291.802 145.279 296.417 143.971 301.618H128.373L128.368 250.438ZM326.949 301.618H301.329C302.441 299.151 304.24 297.059 306.512 295.59C308.784 294.122 311.432 293.341 314.137 293.341C316.842 293.341 319.489 294.122 321.761 295.59C324.033 297.059 325.833 299.151 326.944 301.618H326.949ZM253.515 301.618H227.895C229.005 299.15 230.805 297.056 233.078 295.586C235.35 294.117 237.999 293.336 240.705 293.336C243.411 293.336 246.059 294.117 248.332 295.586C250.604 297.056 252.404 299.15 253.515 301.618ZM180.075 301.618H154.46C155.571 299.151 157.371 297.059 159.643 295.59C161.915 294.122 164.562 293.341 167.267 293.341C169.972 293.341 172.62 294.122 174.892 295.59C177.164 297.059 178.964 299.151 180.075 301.618ZM385.407 416.902H95.6844V388.285H385.407V416.902ZM95.7042 378.343V350.118H385.387V378.343H95.7042ZM371.975 311.559C375.538 311.563 378.953 312.98 381.472 315.499C383.991 318.018 385.408 321.433 385.412 324.996V340.177H95.6844V324.996C95.6883 321.433 97.1059 318.016 99.6259 315.497C102.146 312.978 105.562 311.562 109.126 311.559H123.273C123.317 311.559 123.352 311.584 123.397 311.584C122.87 311.584 254.414 311.584 371.975 311.559ZM278.115 88.5461C284.806 97.444 293.197 114.295 278.14 130.699C263.079 114.295 271.464 97.444 278.115 88.5461ZM266.28 145.294C266.28 144.12 267.269 143.126 268.442 143.126H287.779C288.992 143.126 289.946 144.081 289.946 145.294V204.82H266.28V145.294ZM294.912 214.762H339.575C343.138 214.766 346.553 216.182 349.072 218.701C351.591 221.22 353.008 224.636 353.012 228.198V238.159C327.819 258.779 304.476 238.159 303.487 237.27C302.566 236.418 301.356 235.948 300.102 235.952C298.847 235.957 297.641 236.437 296.726 237.295C270.147 262.139 246.292 238.478 245.298 237.459C244.386 236.522 243.142 235.982 241.835 235.955C240.528 235.928 239.263 236.416 238.314 237.314C212.182 262.02 186.651 238.358 185.593 237.339C184.739 236.52 183.622 236.032 182.441 235.963C181.26 235.894 180.093 236.248 179.15 236.961C152.601 257.049 132.832 242.3 128.368 238.358V228.198C128.372 224.636 129.788 221.222 132.306 218.703C134.824 216.184 138.238 214.767 141.799 214.762H294.912ZM215.105 145.294V204.82H191.443V145.294C191.443 144.12 192.432 143.126 193.606 143.126H212.942C214.115 143.126 215.105 144.12 215.105 145.294ZM4.97088 427.038H13.3369C14.6552 427.038 15.9196 426.514 16.8518 425.582C17.784 424.65 18.3077 423.385 18.3077 422.067C18.3077 420.749 17.784 419.484 16.8518 418.552C15.9196 417.62 14.6552 417.096 13.3369 417.096H4.97088C3.65252 417.096 2.38815 417.62 1.45594 418.552C0.523715 419.484 0 420.749 0 422.067C0 423.385 0.523715 424.65 1.45594 425.582C2.38815 426.514 3.65252 427.038 4.97088 427.038ZM75.8506 160.654C74.0014 162.393 72.4207 164.779 72.4207 168.209C72.4207 174.07 76.9939 176.923 79.7279 178.628C80.6326 179.19 82.1387 180.134 82.3724 180.637C82.1387 181.099 80.6326 182.038 79.7279 182.605C76.9939 184.31 72.4207 187.163 72.4207 193.019C72.4207 198.885 76.9939 201.743 79.7279 203.453C80.6326 204.02 82.1387 204.959 82.3674 205.481C82.1387 205.943 80.6276 206.883 79.7279 207.449C76.9939 209.159 72.4207 212.013 72.4207 217.878C72.4207 220.627 74.6426 222.834 77.3866 222.834C80.1305 222.834 82.3574 220.597 82.3574 217.848C82.5811 217.386 84.0973 216.447 84.992 215.88C87.726 214.17 92.2992 211.317 92.2992 205.451C92.2992 199.59 87.726 196.732 84.997 195.022C84.0923 194.456 82.5811 193.516 82.3525 192.999C82.5861 192.537 84.0923 191.602 84.987 191.041C87.721 189.331 92.3042 186.477 92.3042 180.612C92.3042 174.756 87.726 171.898 84.992 170.193C84.0923 169.631 82.5861 168.692 82.3525 168.189C82.5861 167.732 84.0923 166.788 84.992 166.226C86.9555 165.003 89.8485 163.159 91.3348 160.062C120.3 151.96 142.535 106.551 142.535 75.935C142.535 42.7644 115.533 15.7825 82.3376 15.7825C49.1719 15.7825 22.19 42.7644 22.19 75.935C22.19 107.426 45.6972 154.559 75.8506 160.654ZM82.3425 25.7242C110.05 25.7242 132.593 48.2473 132.593 75.935C132.593 104.358 109.106 151.383 82.3376 151.383C55.5943 151.383 32.1317 104.358 32.1317 75.935C32.1317 48.2473 54.6597 25.7242 82.3425 25.7242ZM391.929 160.584C390.209 162.304 388.787 164.605 388.787 167.851C388.787 173.717 393.365 176.565 396.099 178.275C396.999 178.832 398.505 179.777 398.739 180.279C398.505 180.741 396.999 181.68 396.099 182.242C393.365 183.947 388.792 186.805 388.792 192.666C388.792 198.532 393.365 201.385 396.099 203.09C396.994 203.662 398.51 204.601 398.734 205.123C398.51 205.58 396.994 206.525 396.099 207.092C393.365 208.802 388.792 211.655 388.792 217.52C388.792 220.264 391.009 222.476 393.753 222.476C396.497 222.476 398.724 220.239 398.724 217.491C398.952 217.028 400.464 216.089 401.363 215.517C404.097 213.812 408.67 210.954 408.67 205.093C408.67 199.233 404.097 196.374 401.363 194.664C400.464 194.098 398.952 193.153 398.719 192.641C398.952 192.179 400.459 191.244 401.363 190.678C404.097 188.973 408.67 186.114 408.67 180.259C408.67 174.403 404.097 171.545 401.363 169.835C400.459 169.278 398.952 168.334 398.719 167.832C398.952 167.374 400.459 166.43 401.363 165.873C403.237 164.7 405.946 162.96 407.487 160.112C436.557 152.183 458.901 106.625 458.901 75.935C458.901 42.7644 431.899 15.7825 398.709 15.7825C365.543 15.7825 338.561 42.7644 338.561 75.935C338.561 107.326 361.914 154.241 391.929 160.584ZM398.709 25.7242C426.421 25.7242 448.964 48.2473 448.964 75.935C448.964 102.33 428.703 144.697 404.386 150.627C404.152 150.593 403.948 150.488 403.705 150.488C402.922 150.503 402.154 150.708 401.468 151.085C400.553 151.194 399.638 151.383 398.709 151.383C371.966 151.383 348.503 104.358 348.503 75.935C348.503 48.2473 371.021 25.7242 398.709 25.7242Z" fill="black"/>
</svg>
