<svg width="691" height="634" viewBox="0 0 691 634" fill="none" xmlns="http://www.w3.org/2000/svg">
<path d="M357.632 187.932L369.243 102.003M321.604 117.833L316.841 190.337C316.626 194.747 317.393 199.15 319.087 203.227C320.911 207.625 323.78 215.545 327.522 218.634M40.5518 386.473H642.578M73.8015 516.613V440.837M109.693 394.565V473.684M191.021 449.389V516.613M280.519 473.684V386.473M246.207 386.473V424.503M406.6 419.157V516.613M435.904 386.473V440.539M514.326 516.613V424.503M536.073 386.473V457.194M614.606 386.473V467.885M502.735 303.589L308.897 313.4C300.439 314.009 293.862 321.147 293.862 329.747C293.862 338.797 301.221 346.782 315.423 346.782M447.316 625.246H140.446V589.31H547.082V625.246H468.796M224.092 556.213H190.629C172.583 556.213 157.951 571.031 157.951 589.31M462.043 556.213H495.499C513.545 556.213 528.177 571.031 528.177 589.31M432.91 86.8804L435.373 88.7614C446.771 113.458 439.034 151.167 433.255 168.232L415.602 226.185" stroke="black" stroke-width="16.0435" stroke-linecap="round" stroke-linejoin="round"/>
<path d="M268.12 281.432L281.179 232.519L331.551 84.3599C336.314 69.6297 350.452 60.1365 365.72 61.4153C372.104 61.9483 378.442 62.933 384.686 64.3621" stroke="black" stroke-width="16.0435" stroke-linecap="round" stroke-linejoin="round"/>
<path d="M420.965 88.7546C442.71 88.7546 460.338 70.9009 460.338 48.8773C460.338 26.8537 442.71 9 420.965 9C399.219 9 381.591 26.8537 381.591 48.8773C381.591 70.9009 399.219 88.7546 420.965 88.7546Z" stroke="black" stroke-width="16.0435" stroke-linecap="round" stroke-linejoin="round"/>
<path d="M464.103 200.064L497.823 226.581C500.505 230.271 501.707 234.832 501.191 239.364C500.675 243.896 498.478 248.07 495.035 251.062C493.221 252.631 491.107 253.815 488.822 254.542C486.536 255.269 484.127 255.523 481.74 255.29C479.353 255.056 477.038 254.34 474.937 253.184C472.835 252.028 470.991 250.456 469.516 248.565L421.103 209.77L431.591 174.481L448.168 187.523M648.38 346.792H43.5454C24.4644 346.792 9 362.456 9 381.78V516.61H682.926V381.78C682.926 362.456 667.461 346.792 648.38 346.792Z" stroke="black" stroke-width="16.0435" stroke-linecap="round" stroke-linejoin="round"/>
<path d="M555.195 346.791C569.001 346.791 584.483 330.491 584.483 311.174C584.574 309.82 584.628 308.467 584.628 307.188C584.628 262.114 528.082 254.766 491.003 253.673M94.5604 295.107L61.1923 297.736C47.4229 298.443 36.6035 308.616 36.6035 322.585C36.6035 329.838 39.4995 335.718 44.8449 339.795C50.1903 343.872 58.0392 346.788 67.8504 346.788M392.231 254.194L369.422 254.34C346.795 252.486 272.664 281.067 272.664 281.067L116.585 293.473M475.971 253.7L444.092 253.9" stroke="black" stroke-width="16.0435" stroke-linecap="round" stroke-linejoin="round"/>
<path d="M624.12 346.146C646.007 346.146 663.75 328.175 663.75 306.008C663.75 283.84 646.007 265.87 624.12 265.87C602.232 265.87 584.489 283.84 584.489 306.008C584.489 328.175 602.232 346.146 624.12 346.146Z" stroke="black" stroke-width="16.0435" stroke-linecap="round" stroke-linejoin="round"/>
<path d="M375.864 255.145V307.926M224.092 516.613V589.31M258.221 516.613V589.31M427.636 516.613V589.31M461.769 516.613V585.2M438.794 266.418C440.498 264.756 441.846 262.764 442.756 260.564C443.666 258.365 444.119 256.003 444.087 253.623C444.056 251.243 443.54 248.894 442.572 246.719C441.604 244.544 440.203 242.589 438.456 240.973L357.615 187.932L319.074 203.22C320.898 207.618 323.756 215.542 327.498 218.631L416.056 267.328C419.289 270.011 423.401 271.403 427.599 271.235C431.798 271.067 435.785 269.351 438.794 266.418Z" stroke="black" stroke-width="16.0435" stroke-linecap="round" stroke-linejoin="round"/>
</svg>
