<svg width="501" height="501" viewBox="0 0 501 501" fill="none" xmlns="http://www.w3.org/2000/svg">
<path d="M473.136 181.213C466.262 177.787 458.688 175.999 451.008 175.989H425.512C363.281 175.998 301.286 183.631 240.912 198.717C237.526 199.559 234.049 199.987 230.56 199.989C228.348 199.964 226.167 199.471 224.16 198.541C227.949 197.148 231.318 194.807 233.946 191.743C236.575 188.68 238.375 184.994 239.176 181.037L244.248 155.701C244.629 153.764 244.814 151.794 244.8 149.821C244.785 142.843 242.326 136.091 237.849 130.739C233.372 125.387 227.161 121.773 220.296 120.525C220.52 115.725 220.8 110.925 220.8 106.045C220.788 87.5974 216.086 69.4557 207.136 53.3249C195.977 33.2458 178.467 17.4401 157.354 8.38892C136.241 -0.66231 112.72 -2.44674 90.4836 3.31571C68.2467 9.07815 48.5526 22.0613 34.4926 40.2272C20.4325 58.3931 12.8025 80.7135 12.8 103.685C12.8089 121.007 15.458 138.226 20.656 154.749C14.2601 157.861 9.27714 163.276 6.70597 169.908C4.1348 176.54 4.16553 183.899 6.792 190.509L17.776 217.965C18.9817 220.996 20.8392 223.725 23.217 225.959C25.5947 228.192 28.4346 229.875 31.5353 230.889C34.6361 231.903 37.9218 232.222 41.1597 231.825C44.3976 231.427 47.5085 230.323 50.272 228.589L63.304 260.237C66.9405 269.037 68.8081 278.467 68.8 287.989V305.525C43.9027 311.359 20.4796 322.275 0 337.589L9.6 350.389C29.732 335.339 52.9595 324.955 77.6 319.989L78.4 319.829C80.207 319.46 81.831 318.478 82.9973 317.05C84.1636 315.621 84.8004 313.833 84.8 311.989V302.989H84.856C84.9931 307.537 86.8935 311.854 90.1556 315.026C93.4177 318.199 97.7857 319.979 102.336 319.989C107.215 319.985 112.078 319.449 116.84 318.389L177.6 304.893C178.688 304.653 179.808 304.605 180.912 304.453C180.912 304.693 180.816 304.909 180.816 305.157C180.822 311.208 183.228 317.009 187.505 321.289C191.782 325.569 197.581 327.978 203.632 327.989H222.096C228.295 327.946 234.391 326.395 239.856 323.469L276.72 333.997C281.335 335.319 286.112 335.989 290.912 335.989C297.784 336.014 304.526 334.114 310.374 330.504C316.222 326.894 320.942 321.719 324 315.565L309.68 308.413C307.951 311.908 305.275 314.846 301.956 316.893C298.638 318.939 294.811 320.012 290.912 319.989C290.04 319.989 289.176 319.869 288.304 319.805C309.301 302.153 334.292 289.896 361.104 284.101C362.622 283.774 364.012 283.012 365.104 281.909C388.73 258.055 418.725 241.507 451.504 234.245L462.512 231.845L459.04 216.213L448.032 218.661C419.942 224.925 393.635 237.465 371.08 255.341C363.171 254.669 355.326 253.386 347.616 251.501C330.947 247.333 313.561 246.918 296.712 250.285C281.567 253.328 267.257 259.604 254.76 268.685C254.584 268.405 254.456 268.109 254.28 267.837L243.432 251.565L230.12 260.445L240.96 276.709C243.236 280.125 244.543 284.095 244.742 288.196C244.94 292.297 244.022 296.374 242.087 299.995C240.151 303.615 237.269 306.642 233.749 308.755C230.229 310.867 226.201 311.985 222.096 311.989H203.632C202.092 311.99 200.598 311.47 199.39 310.515C198.183 309.56 197.333 308.225 196.98 306.727C196.626 305.228 196.789 303.654 197.441 302.26C198.094 300.866 199.199 299.733 200.576 299.045C204.597 297.041 209.027 295.995 213.52 295.989H228.8V279.989H213.52C206.542 279.998 199.662 281.622 193.416 284.733C191.558 285.664 189.837 286.849 188.304 288.253C183.549 287.979 178.778 288.323 174.112 289.277L113.376 302.781C109.751 303.583 106.049 303.988 102.336 303.989C101.977 303.992 101.628 303.869 101.35 303.641C101.072 303.413 100.882 303.095 100.815 302.742C100.747 302.389 100.806 302.023 100.98 301.709C101.154 301.394 101.433 301.151 101.768 301.021L175.776 271.421L169.824 256.557L95.832 286.157C94.9718 286.57 94.1476 287.055 93.368 287.605L92.568 287.805C91.6488 288.006 90.6965 288.003 89.7788 287.794C88.8612 287.586 88.0008 287.177 87.259 286.598C86.5173 286.019 85.9123 285.284 85.4873 284.444C85.0622 283.605 84.8276 282.682 84.8 281.741C84.7965 280.296 85.1978 278.879 85.9585 277.65C86.7192 276.421 87.8089 275.43 89.104 274.789C114.788 261.933 141.61 251.488 169.224 243.589L183 239.653L178.6 224.261L164.8 228.229C139.669 235.461 115.169 244.729 91.544 255.941C91.3644 255.932 91.1843 255.945 91.008 255.981C89.3544 255.979 87.7693 255.32 86.6008 254.15C85.4323 252.98 84.776 251.395 84.776 249.741C84.7804 248.148 85.1949 246.584 85.9796 245.198C86.7643 243.812 87.8927 242.652 89.256 241.829C109.667 229.606 131.593 220.112 154.472 213.589L175 207.725L170.6 192.333L150.08 198.197C134.578 202.684 119.479 208.464 104.944 215.477C103.725 215.003 102.677 214.173 101.937 213.093C101.198 212.014 100.801 210.737 100.8 209.429C100.803 208.081 101.178 206.759 101.884 205.61C102.59 204.461 103.599 203.529 104.8 202.917L130.04 190.301C138.352 186.155 147.512 183.995 156.8 183.989H172.8C176.824 183.976 180.81 184.762 184.527 186.302C188.245 187.841 191.619 190.103 194.456 192.957L208.24 206.749C214.175 212.644 222.194 215.964 230.56 215.989C235.361 215.988 240.143 215.397 244.8 214.229C303.904 199.469 364.593 192 425.512 191.989H451.008C455.458 192.002 459.862 192.891 463.969 194.605C468.076 196.32 471.804 198.827 474.942 201.982C478.08 205.138 480.566 208.881 482.257 212.997C483.949 217.114 484.813 221.523 484.8 225.973C484.786 233.338 482.398 240.503 477.992 246.405C467.22 260.765 458.386 276.481 451.72 293.149C437.483 328.633 414.907 360.165 385.904 385.077C378.056 391.802 372.185 400.535 368.92 410.341L341.208 493.461L356.408 498.517L384.112 415.405C386.465 408.351 390.687 402.066 396.328 397.221C427.295 370.63 451.396 336.968 466.592 299.085C472.73 283.719 480.867 269.229 490.792 255.989C497.268 247.32 500.778 236.794 500.8 225.973C500.834 216.672 498.259 207.548 493.37 199.636C488.48 191.725 481.47 185.342 473.136 181.213ZM299.88 265.933C314.405 263.048 329.388 263.403 343.76 266.973C347.336 267.869 350.96 268.573 354.632 269.189C322.627 276.678 293.206 292.587 269.416 315.269L254.176 310.917C258.494 304.541 260.802 297.017 260.8 289.317C260.782 287.757 260.667 286.199 260.456 284.653C271.893 275.322 285.42 268.898 299.88 265.933ZM228.8 149.821C228.801 150.732 228.71 151.64 228.528 152.533L223.464 177.893C223.21 179.205 222.611 180.425 221.729 181.429C220.847 182.433 219.714 183.184 218.446 183.605C217.178 184.026 215.821 184.102 214.513 183.825C213.206 183.548 211.996 182.928 211.008 182.029C214.833 167.139 217.529 151.981 219.072 136.685C221.881 137.553 224.34 139.295 226.09 141.658C227.84 144.021 228.789 146.881 228.8 149.821ZM38.488 215.989C37.2223 215.991 35.9856 215.61 34.9404 214.896C33.8952 214.182 33.0905 213.169 32.632 211.989L21.648 184.581C21.0663 183.085 20.7784 181.49 20.8 179.885C20.8352 177.942 21.3467 176.038 22.2896 174.339C23.2325 172.64 24.578 171.199 26.208 170.141L43.848 212.981C43.2827 213.895 42.4942 214.651 41.5566 215.177C40.619 215.704 39.5631 215.983 38.488 215.989ZM53.744 194.989C61.7535 201.131 68.2843 208.99 72.856 217.989C74.8441 221.898 77.1393 225.643 79.72 229.189C76.2972 231.558 73.5177 234.742 71.632 238.453L53.744 194.989ZM156.8 167.989C145.038 168.005 133.439 170.743 122.912 175.989L97.672 188.605C94.1894 190.334 91.1999 192.915 88.9805 196.108C86.7611 199.301 85.3837 203.002 84.976 206.869C76.8254 192.578 64.6469 181.003 49.96 173.589L43.648 170.437L40.496 162.789C32.7597 144.045 28.7857 123.963 28.8 103.685C28.801 84.2572 35.2531 65.3798 47.1436 50.0159C59.0341 34.6519 75.6898 23.6713 94.4962 18.7975C113.303 13.9238 133.195 15.433 151.051 23.0881C168.907 30.7433 183.715 44.111 193.152 61.0929C200.783 74.85 204.791 90.3212 204.8 106.053C204.742 129.108 201.93 152.073 196.424 174.461C189.274 170.22 181.113 167.984 172.8 167.989H156.8Z" fill="black"/>
<path d="M196.8 375.989H180.8V409.341C180.799 441.317 189.49 472.691 205.944 500.109L219.656 491.869C204.7 466.939 196.8 438.413 196.8 409.341V375.989ZM132.8 409.341C132.799 438.413 124.899 466.939 109.944 491.869L123.656 500.109C140.109 472.691 148.8 441.317 148.8 409.341V375.989H132.8V409.341Z" fill="black"/>
</svg>
