<svg width="408" height="410" viewBox="0 0 408 410" fill="none" xmlns="http://www.w3.org/2000/svg">
<path d="M213.822 294.297C210.583 294.301 207.367 293.761 204.306 292.699L115.018 261.658L113.068 261.067C112.611 260.972 112.178 260.784 111.798 260.513C111.418 260.242 111.098 259.895 110.86 259.493C110.621 259.092 110.469 258.645 110.413 258.181C110.358 257.718 110.399 257.247 110.535 256.801C110.672 256.354 110.9 255.941 111.205 255.588C111.51 255.234 111.885 254.948 112.307 254.748C112.729 254.548 113.188 254.438 113.655 254.425C114.121 254.413 114.586 254.498 115.018 254.675L117.031 255.29L117.159 255.33L206.512 286.347C209.277 287.349 212.213 287.792 215.151 287.649C218.088 287.507 220.968 286.782 223.623 285.517C226.278 284.253 228.656 282.473 230.618 280.282C232.579 278.091 234.086 275.533 235.051 272.754C236.016 269.976 236.419 267.034 236.237 264.099C236.055 261.163 235.292 258.293 233.992 255.655C232.692 253.017 230.881 250.664 228.664 248.732C226.447 246.799 223.868 245.327 221.077 244.399L145.084 218.032C144.849 217.951 144.624 217.844 144.413 217.713L117.143 200.702L112.349 197.953C111.611 197.494 111.08 196.766 110.868 195.923C110.656 195.08 110.779 194.187 111.212 193.433C111.645 192.679 112.354 192.123 113.189 191.881C114.024 191.639 114.92 191.731 115.689 192.137L120.483 194.917L120.587 194.981L147.593 211.824L223.283 238.095C229.729 240.344 235.173 244.801 238.65 250.677C242.126 256.554 243.412 263.471 242.279 270.204C241.146 276.937 237.668 283.052 232.46 287.468C227.252 291.883 220.65 294.314 213.822 294.329V294.297ZM270.128 229.913C259.815 229.913 249.734 226.855 241.159 221.126C232.584 215.396 225.901 207.253 221.954 197.725C218.008 188.197 216.975 177.713 218.987 167.598C220.999 157.483 225.965 148.192 233.258 140.9C240.55 133.607 249.841 128.641 259.956 126.629C270.07 124.617 280.555 125.65 290.083 129.597C299.61 133.543 307.754 140.227 313.484 148.801C319.213 157.376 322.271 167.458 322.271 177.77C322.254 191.594 316.755 204.847 306.98 214.622C297.205 224.398 283.952 229.897 270.128 229.913ZM270.128 132.331C261.141 132.331 252.356 134.996 244.884 139.989C237.411 144.982 231.587 152.079 228.148 160.382C224.709 168.685 223.809 177.821 225.562 186.635C227.315 195.45 231.643 203.546 237.998 209.901C244.353 216.256 252.449 220.583 261.264 222.337C270.078 224.09 279.214 223.19 287.517 219.751C295.82 216.312 302.917 210.488 307.91 203.015C312.903 195.543 315.568 186.758 315.568 177.77C315.555 165.723 310.764 154.173 302.245 145.654C293.726 137.135 282.176 132.344 270.128 132.331ZM53.8618 104.286C43.5489 104.286 33.4676 101.228 24.8927 95.4984C16.3178 89.7688 9.63451 81.6252 5.68792 72.0973C1.74134 62.5694 0.708737 52.0852 2.72069 41.9704C4.73264 31.8557 9.69878 22.5647 16.9911 15.2724C24.2834 7.98003 33.5744 3.01389 43.6892 1.00194C53.8039 -1.01001 64.2882 0.0225926 73.8161 3.96917C83.344 7.91576 91.4876 14.5991 97.2171 23.1739C102.947 31.7488 106.005 41.8301 106.005 52.143C105.988 65.967 100.489 79.22 90.7138 88.995C80.9387 98.7701 67.6858 104.269 53.8618 104.286ZM53.8618 6.70367C44.8747 6.70367 36.0895 9.36864 28.617 14.3616C21.1446 19.3545 15.3205 26.4512 11.8813 34.7541C8.44209 43.0571 7.54224 52.1934 9.29552 61.0078C11.0488 69.8222 15.3765 77.9187 21.7313 84.2735C28.0861 90.6283 36.1826 94.956 44.997 96.7093C53.8114 98.4626 62.9477 97.5627 71.2507 94.1235C79.5536 90.6843 86.6503 84.8603 91.6432 77.3878C96.6362 69.9153 99.3012 61.1301 99.3012 52.143C99.2906 40.0943 94.5001 28.5419 85.9811 20.0214C77.4621 11.5009 65.9106 6.70837 53.8618 6.69568V6.70367Z" fill="black"/>
<path d="M237.729 409.082C237.212 409.083 236.703 408.965 236.24 408.736C235.777 408.507 235.373 408.175 235.06 407.764L215.932 382.763C215.848 382.653 215.77 382.539 215.7 382.419C213.43 378.535 212.103 374.172 211.826 369.682C211.548 365.191 212.328 360.698 214.102 356.564L250.153 273.252C257.408 254.467 266.237 247.835 282.113 240.844L300.866 232.406C310.888 227.872 319.287 220.388 324.942 210.954C330.597 201.519 333.239 190.584 332.515 179.608L329.446 134.161L265.526 100.755C265.121 100.559 264.759 100.284 264.462 99.9463C264.165 99.6083 263.94 99.214 263.798 98.787C263.657 98.36 263.602 97.9088 263.639 97.4604C263.675 97.0121 263.801 96.5756 264.01 96.1769C264.218 95.7783 264.505 95.4256 264.852 95.1398C265.2 94.8541 265.601 94.6411 266.032 94.5136C266.464 94.3861 266.916 94.3466 267.363 94.3975C267.81 94.4484 268.243 94.5887 268.634 94.81L334.256 129.087C334.765 129.354 335.197 129.747 335.51 130.228C335.823 130.709 336.008 131.263 336.046 131.836L339.242 179.153C340.052 191.49 337.08 203.781 330.723 214.385C324.366 224.99 314.926 233.403 303.663 238.503L284.886 246.948C270.432 253.34 262.913 258.981 256.457 275.712L256.41 275.84L220.255 359.232C218.91 362.369 218.313 365.775 218.51 369.182C218.707 372.589 219.692 375.903 221.389 378.864L240.389 403.697C240.769 404.194 241.002 404.787 241.063 405.409C241.124 406.031 241.009 406.658 240.732 407.219C240.456 407.78 240.028 408.252 239.497 408.583C238.967 408.913 238.354 409.089 237.729 409.09V409.082Z" fill="black"/>
<path d="M300.634 409.082C300.135 409.082 299.641 408.97 299.19 408.754C298.74 408.539 298.343 408.225 298.029 407.836L265.997 368.269C265.624 367.809 265.38 367.258 265.289 366.673C265.198 366.088 265.263 365.489 265.478 364.937L287.395 308.927C287.603 308.397 287.942 307.929 288.38 307.567C288.819 307.204 289.342 306.959 289.901 306.854C290.46 306.75 291.037 306.789 291.577 306.968C292.117 307.148 292.602 307.462 292.988 307.88C298.471 314.282 302.812 321.579 305.82 329.453C312.443 346.688 311.093 363.811 301.913 378.936C301.693 379.329 301.396 379.674 301.04 379.95C300.684 380.226 300.276 380.427 299.84 380.542C299.405 380.657 298.95 380.683 298.504 380.619C298.059 380.555 297.63 380.401 297.245 380.168C296.86 379.934 296.525 379.626 296.262 379.26C295.998 378.895 295.811 378.48 295.711 378.041C295.612 377.602 295.601 377.147 295.681 376.703C295.761 376.26 295.929 375.837 296.176 375.46C304.318 362.037 305.476 347.439 299.635 332.066C297.559 326.689 294.825 321.589 291.494 316.885L272.429 365.624L303.231 403.673C303.612 404.165 303.849 404.754 303.914 405.373C303.98 405.993 303.872 406.618 303.602 407.179C303.333 407.741 302.913 408.216 302.388 408.552C301.864 408.888 301.257 409.072 300.634 409.082ZM404.337 409.082C403.448 409.08 402.597 408.726 401.969 408.096C401.342 407.467 400.989 406.615 400.989 405.726L401.053 333.536C398.049 312.858 394.301 293.458 389.923 275.88C387.366 265.613 386.775 235.554 386.727 233.349L378.689 114.761C378.423 111.027 377.209 107.423 375.162 104.288C373.115 101.154 370.303 98.5928 366.991 96.8473L259.565 40.7413C256.193 38.9943 252.425 38.1498 248.63 38.2898C244.834 38.4298 241.139 39.5496 237.904 41.5403C237.53 41.7947 237.107 41.9707 236.663 42.0576C236.218 42.1445 235.761 42.1406 235.318 42.046C234.875 41.9513 234.456 41.768 234.086 41.5071C233.715 41.2462 233.402 40.913 233.164 40.5276C232.926 40.1423 232.768 39.7127 232.701 39.2649C232.633 38.817 232.657 38.3601 232.771 37.9217C232.884 37.4833 233.086 37.0724 233.362 36.7139C233.639 36.3553 233.985 36.0565 234.381 35.8354C238.608 33.2396 243.435 31.7814 248.393 31.6022C253.35 31.4229 258.27 32.5289 262.673 34.8126L370.068 90.9027C374.395 93.1823 378.069 96.5277 380.744 100.623C383.419 104.718 385.005 109.427 385.353 114.306L393.423 232.982V233.149C393.423 233.461 393.998 264.558 396.411 274.258C400.869 292.124 404.665 311.811 407.709 332.817C407.721 332.979 407.721 333.142 407.709 333.305L407.645 405.742C407.641 406.621 407.292 407.464 406.673 408.088C406.055 408.713 405.216 409.07 404.337 409.082Z" fill="black"/>
<path d="M9.0854 409.082C8.23015 409.086 7.40572 408.763 6.78053 408.18C6.15534 407.596 5.77657 406.796 5.72159 405.942C1.93432 346.912 0.000724945 310.006 0.000724945 296.279V164.731C-0.0385159 157.312 1.51574 149.97 4.55839 143.204C7.60105 136.437 12.0612 130.403 17.6372 125.508C23.2132 120.614 29.7751 116.974 36.8792 114.835C43.9833 112.695 51.464 112.106 58.8154 113.107L149.375 119.843L211.865 59.4939C214.628 56.7788 217.901 54.6376 221.496 53.1938C225.091 51.75 228.936 51.0323 232.81 51.0819C236.683 51.1315 240.509 51.9475 244.065 53.4829C247.622 55.0183 250.839 57.2426 253.532 60.0277C256.225 62.8127 258.339 66.1032 259.754 69.7096C261.169 73.3159 261.856 77.1667 261.775 81.0397C261.694 84.9128 260.847 88.7315 259.283 92.2756C257.719 95.8198 255.469 99.0192 252.662 101.689L180.751 171.203C175.29 176.522 167.961 179.489 160.337 179.464C159.61 179.464 158.851 179.464 158.124 179.369L104.375 175.374C105.014 193.087 107.403 266.764 104.215 296.63C102.617 311.764 100.004 325.986 97.4952 339.777C94.1953 357.914 91.1032 375.045 90.9274 390.873C90.8715 395.627 90.8235 400.613 90.7676 405.79C90.7571 406.673 90.3989 407.517 89.7707 408.137C89.1425 408.758 88.2949 409.106 87.4118 409.106C86.5231 409.096 85.675 408.733 85.0533 408.098C84.4317 407.463 84.0874 406.607 84.0959 405.718C84.1518 400.541 84.1998 395.547 84.2557 390.801C84.4155 374.405 87.5796 357.003 90.9354 338.578C93.4203 324.939 95.9851 310.837 97.5831 295.951C101.083 263.096 97.5831 172.825 97.5831 171.914C97.5649 171.442 97.6467 170.971 97.8231 170.532C97.9995 170.094 98.2665 169.697 98.6067 169.369C98.9469 169.041 99.3526 168.789 99.7972 168.628C100.242 168.468 100.715 168.403 101.187 168.438L158.715 172.729C159.282 172.777 159.857 172.801 160.401 172.801C166.282 172.814 171.934 170.519 176.141 166.409L248.092 96.8953C250.228 94.8288 251.937 92.3616 253.121 89.6346C254.304 86.9077 254.939 83.9743 254.988 81.0021C255.038 78.0299 254.502 75.077 253.41 72.312C252.319 69.547 250.693 67.024 248.627 64.8872C246.56 62.7504 244.093 61.0415 241.366 59.8581C238.639 58.6748 235.706 58.0401 232.734 57.9904C229.761 57.9407 226.809 58.4769 224.044 59.5684C221.279 60.6599 218.756 62.2853 216.619 64.3519L153.042 125.779C152.703 126.11 152.298 126.364 151.853 126.526C151.408 126.687 150.933 126.751 150.461 126.714L58.2242 119.787H58.0484C56.0835 119.516 54.1032 119.372 52.1198 119.355C40.085 119.366 28.5456 124.149 20.032 132.655C11.5184 141.161 6.72552 152.696 6.70437 164.731V296.279C6.70437 309.678 8.6859 347.415 12.4412 405.511C12.4705 405.951 12.4127 406.393 12.2711 406.811C12.1294 407.228 11.9068 407.614 11.6159 407.946C11.3249 408.278 10.9715 408.549 10.5756 408.744C10.1798 408.939 9.74944 409.054 9.30912 409.082H9.0854Z" fill="black"/>
</svg>
