<svg width="232" height="216" viewBox="0 0 232 216" fill="none" xmlns="http://www.w3.org/2000/svg">
<path d="M102.627 101.611C99.9319 100.33 96.9247 99.8514 93.9649 100.233C91.0052 100.616 88.218 101.842 85.9366 103.766L84.7055 104.791L83.4743 103.766C81.8939 102.435 80.066 101.429 78.0958 100.807C76.1256 100.185 74.0518 99.9583 71.9937 100.14C69.9355 100.322 67.9336 100.908 66.1029 101.866C64.2722 102.824 62.6489 104.134 61.3262 105.722C60.0034 107.309 59.0074 109.142 58.3953 111.115C57.7832 113.089 57.5672 115.164 57.7595 117.221C57.9518 119.278 58.5488 121.277 59.5161 123.103C60.4834 124.928 61.8019 126.545 63.396 127.86L82.2403 143.563C82.9323 144.14 83.8046 144.456 84.7055 144.456C85.6063 144.456 86.4786 144.14 87.1706 143.563L106.015 127.86C108.042 126.17 109.611 123.996 110.574 121.539C111.538 119.083 111.866 116.422 111.529 113.805C111.191 111.188 110.198 108.698 108.642 106.566C107.086 104.435 105.017 102.73 102.627 101.611ZM101.087 121.944L84.7055 135.593L68.3258 121.944C67.4258 121.196 66.7019 120.259 66.2055 119.199C65.7091 118.139 65.4525 116.983 65.454 115.812C65.4327 114.291 65.8563 112.796 66.6728 111.512C67.4892 110.228 68.6629 109.211 70.0498 108.584C71.1229 108.074 72.2954 107.807 73.4838 107.801C75.3397 107.811 77.1324 108.477 78.5445 109.681L82.2403 112.762C82.9323 113.338 83.8046 113.654 84.7055 113.654C85.6063 113.654 86.4786 113.338 87.1706 112.762L90.8664 109.681C92.0317 108.71 93.4497 108.091 94.9542 107.897C96.4587 107.702 97.9874 107.941 99.3612 108.584C100.735 109.228 101.897 110.249 102.711 111.53C103.525 112.81 103.957 114.295 103.957 115.812C103.958 116.983 103.702 118.139 103.205 119.199C102.709 120.259 101.985 121.196 101.085 121.944H101.087Z" fill="black"/>
<path d="M228.889 3.24124L225.039 1.3161C223.309 0.450604 221.401 0 219.467 0C217.532 0 215.624 0.450604 213.894 1.3161C213.232 1.64119 212.504 1.81023 211.766 1.81023C211.028 1.81023 210.3 1.64119 209.638 1.3161C207.908 0.450604 206 0 204.065 0C202.131 0 200.223 0.450604 198.493 1.3161C197.831 1.64119 197.103 1.81023 196.365 1.81023C195.627 1.81023 194.899 1.64119 194.237 1.3161C192.507 0.450604 190.599 0 188.664 0C186.73 0 184.822 0.450604 183.092 1.3161C182.429 1.64119 181.701 1.81023 180.964 1.81023C180.226 1.81023 179.498 1.64119 178.836 1.3161C177.105 0.450604 175.198 0 173.263 0C171.328 0 169.421 0.450604 167.69 1.3161C167.028 1.64119 166.3 1.81023 165.562 1.81023C164.825 1.81023 164.097 1.64119 163.434 1.3161C161.704 0.450604 159.796 0 157.862 0C155.927 0 154.019 0.450604 152.289 1.3161C151.627 1.64119 150.899 1.81023 150.161 1.81023C149.423 1.81023 148.695 1.64119 148.033 1.3161C146.303 0.450604 144.395 0 142.461 0C140.526 0 138.618 0.450604 136.888 1.3161C136.226 1.64119 135.498 1.81023 134.76 1.81023C134.022 1.81023 133.294 1.64119 132.632 1.3161C130.901 0.455463 128.993 0.00758805 127.06 0.00758805C125.126 0.00758805 123.219 0.455463 121.488 1.3161L117.638 3.24124C116.998 3.561 116.46 4.05258 116.084 4.66089C115.708 5.2692 115.509 5.97021 115.509 6.68534V42.3535H107.808V34.6529C107.81 31.4571 107.015 28.3112 105.497 25.4992C103.978 22.6873 101.783 20.2979 99.1094 18.5469C96.4359 16.7958 93.3685 15.7382 90.1839 15.4695C86.9994 15.2008 83.7981 15.7296 80.8691 17.008C77.9385 15.7297 74.7359 15.201 71.55 15.4695C68.3641 15.738 65.2951 16.7952 62.6197 18.5458C59.9444 20.2964 57.7469 22.6854 56.2253 25.4974C54.7037 28.3093 53.906 31.4557 53.904 34.6529V42.3535H23.1016C22.1749 42.3536 21.2793 42.6879 20.5791 43.2951C19.879 43.9023 19.4214 44.7416 19.2903 45.659L0.0387985 180.419C-0.0888822 181.312 0.100809 182.221 0.574797 182.988C1.04878 183.756 1.77699 184.332 2.63246 184.617L25.7342 192.318V192.315C26.1267 192.447 26.5379 192.515 26.9519 192.515H114.248L111.694 211.246C111.619 211.791 111.663 212.345 111.82 212.872C111.978 213.398 112.247 213.885 112.608 214.299C112.969 214.713 113.415 215.045 113.916 215.272C114.416 215.499 114.959 215.617 115.509 215.617H215.617C216.166 215.617 216.709 215.499 217.21 215.272C217.71 215.045 218.156 214.713 218.517 214.299C218.879 213.885 219.147 213.398 219.305 212.872C219.463 212.345 219.506 211.791 219.432 211.246L214.777 177.114H227.167C228.189 177.114 229.168 176.708 229.89 175.986C230.612 175.264 231.018 174.285 231.018 173.264V6.68534C231.018 5.97026 230.819 5.26929 230.443 4.66098C230.067 4.05267 229.529 3.56106 228.889 3.24124ZM100.108 34.6529V42.3535H92.407V34.6529C92.4182 30.4862 91.0673 26.43 88.5601 23.102C91.6219 23.1065 94.5569 24.325 96.7216 26.4904C98.8864 28.6557 100.104 31.5911 100.108 34.6529ZM80.8619 26.0475C81.0192 26.189 81.1737 26.3334 81.3244 26.4841C82.4002 27.5545 83.253 28.8276 83.8335 30.2298C84.4141 31.632 84.7107 33.1353 84.7064 34.6529V42.3535H77.0058V34.6529C77.0054 33.0278 77.3488 31.4209 78.0133 29.9378C78.6779 28.4547 79.6487 27.1289 80.8619 26.0475ZM61.6046 34.6529C61.6082 31.5906 62.8263 28.6546 64.9917 26.4892C67.1572 24.3237 70.0931 23.1056 73.1555 23.102H73.1661C70.6564 26.4296 69.3008 30.4851 69.3052 34.6529V42.3535H61.6046V34.6529ZM26.4408 50.0541H30.5885L23.3798 183.415L8.11624 178.327L26.4408 50.0541ZM31.0159 184.815L38.3002 50.0541H69.3052V61.605C69.3052 62.6262 69.7108 63.6055 70.4329 64.3276C71.155 65.0497 72.1343 65.4553 73.1555 65.4553C74.1767 65.4553 75.156 65.0497 75.8781 64.3276C76.6001 63.6055 77.0058 62.6262 77.0058 61.605V50.0541H100.108V61.605C100.108 62.6262 100.513 63.6055 101.235 64.3276C101.957 65.0497 102.937 65.4553 103.958 65.4553C104.979 65.4553 105.958 65.0497 106.68 64.3276C107.403 63.6055 107.808 62.6262 107.808 61.605V50.0541H130.91V123.21H127.06C126.129 123.21 125.229 123.547 124.528 124.159C123.826 124.772 123.37 125.617 123.244 126.54L115.298 184.815H31.0159ZM119.92 207.916L130.42 130.91H146.311V138.611C146.311 139.632 146.717 140.612 147.439 141.334C148.161 142.056 149.14 142.461 150.161 142.461C151.183 142.461 152.162 142.056 152.884 141.334C153.606 140.612 154.012 139.632 154.012 138.611V130.91H177.114V138.611C177.114 139.632 177.519 140.612 178.241 141.334C178.963 142.056 179.943 142.461 180.964 142.461C181.985 142.461 182.964 142.056 183.686 141.334C184.408 140.612 184.814 139.632 184.814 138.611V130.91H200.705L211.206 207.916H119.92ZM154.012 123.21C154.012 120.146 155.229 117.208 157.395 115.042C159.561 112.876 162.499 111.659 165.563 111.659C168.626 111.659 171.564 112.876 173.73 115.042C175.897 117.208 177.114 120.146 177.114 123.21H154.012ZM223.317 169.413H213.727L207.881 126.54C207.755 125.617 207.299 124.772 206.598 124.159C205.896 123.547 204.997 123.21 204.066 123.21H184.814C184.814 118.104 182.786 113.207 179.176 109.597C175.565 105.987 170.668 103.958 165.563 103.958C160.457 103.958 155.56 105.987 151.95 109.597C148.339 113.207 146.311 118.104 146.311 123.21H138.611V46.2038C138.611 45.1827 138.205 44.2033 137.483 43.4813C136.761 42.7592 135.781 42.3535 134.76 42.3535H123.209V9.06482L124.931 8.2038C125.592 7.87543 126.321 7.70456 127.059 7.70456C127.797 7.70456 128.526 7.87543 129.187 8.2038C130.917 9.06958 132.825 9.52035 134.76 9.52035C136.694 9.52035 138.602 9.06958 140.332 8.2038C140.995 7.87936 141.722 7.7107 142.46 7.7107C143.198 7.7107 143.926 7.87936 144.588 8.2038C146.318 9.06958 148.226 9.52035 150.161 9.52035C152.095 9.52035 154.003 9.06958 155.733 8.2038C156.396 7.87936 157.124 7.7107 157.861 7.7107C158.599 7.7107 159.327 7.87936 159.989 8.2038C161.719 9.06958 163.627 9.52035 165.562 9.52035C167.497 9.52035 169.404 9.06958 171.135 8.2038C171.797 7.87936 172.525 7.7107 173.263 7.7107C174 7.7107 174.728 7.87936 175.391 8.2038C177.121 9.06958 179.029 9.52035 180.963 9.52035C182.898 9.52035 184.806 9.06958 186.536 8.2038C187.198 7.87936 187.926 7.7107 188.664 7.7107C189.401 7.7107 190.129 7.87936 190.792 8.2038C192.522 9.06958 194.43 9.52035 196.364 9.52035C198.299 9.52035 200.207 9.06958 201.937 8.2038C202.599 7.87936 203.327 7.7107 204.065 7.7107C204.803 7.7107 205.53 7.87936 206.193 8.2038C207.923 9.06958 209.831 9.52035 211.766 9.52035C213.7 9.52035 215.608 9.06958 217.338 8.2038C218.001 7.87914 218.729 7.71036 219.467 7.71036C220.204 7.71036 220.932 7.87914 221.595 8.2038L223.317 9.06482V169.413Z" fill="black"/>
<path d="M194.44 19.2517H152.087C149.535 19.2546 147.088 20.2697 145.283 22.0743C143.479 23.8788 142.464 26.3254 142.461 28.8775V32.7278C142.464 35.2798 143.479 37.7264 145.283 39.531C147.088 41.3355 149.535 42.3506 152.087 42.3535H194.44C196.992 42.3506 199.439 41.3355 201.243 39.531C203.048 37.7264 204.063 35.2798 204.066 32.7278V28.8775C204.063 26.3254 203.048 23.8788 201.243 22.0743C199.439 20.2697 196.992 19.2546 194.44 19.2517ZM196.365 32.7278C196.358 33.2362 196.153 33.722 195.794 34.0816C195.434 34.4412 194.948 34.6462 194.44 34.6529H152.087C151.578 34.6462 151.092 34.4412 150.733 34.0816C150.373 33.722 150.168 33.2362 150.162 32.7278V28.8775C150.168 28.369 150.373 27.8832 150.733 27.5236C151.092 27.164 151.578 26.959 152.087 26.9523H194.44C194.948 26.959 195.434 27.164 195.794 27.5236C196.153 27.8832 196.358 28.369 196.365 28.8775V32.7278ZM187.854 155.499C187.543 155.1 187.157 154.766 186.717 154.516C186.278 154.266 185.793 154.105 185.291 154.043C184.79 153.98 184.28 154.017 183.793 154.151C183.305 154.286 182.849 154.514 182.45 154.825L147.797 181.777C147.393 182.086 147.054 182.471 146.799 182.912C146.545 183.352 146.38 183.839 146.315 184.343C146.249 184.848 146.284 185.36 146.418 185.851C146.552 186.342 146.782 186.801 147.094 187.202C147.406 187.604 147.795 187.94 148.238 188.19C148.681 188.44 149.169 188.6 149.674 188.661C150.179 188.722 150.691 188.682 151.18 188.543C151.67 188.405 152.127 188.171 152.526 187.855L187.178 160.903C187.578 160.592 187.912 160.206 188.162 159.767C188.412 159.327 188.573 158.842 188.635 158.341C188.698 157.839 188.661 157.33 188.527 156.842C188.393 156.354 188.164 155.898 187.854 155.499ZM155.937 165.563C157.841 165.563 159.702 164.999 161.285 163.941C162.868 162.883 164.101 161.38 164.83 159.621C165.559 157.862 165.749 155.927 165.378 154.059C165.006 152.192 164.09 150.477 162.743 149.131C161.397 147.785 159.682 146.868 157.815 146.497C155.948 146.125 154.012 146.316 152.253 147.044C150.495 147.773 148.991 149.007 147.933 150.59C146.876 152.172 146.311 154.034 146.311 155.937C146.314 158.489 147.329 160.936 149.134 162.741C150.938 164.545 153.385 165.56 155.937 165.563ZM155.937 154.012C156.318 154.012 156.69 154.125 157.007 154.337C157.323 154.548 157.57 154.849 157.716 155.201C157.861 155.552 157.899 155.939 157.825 156.313C157.751 156.686 157.568 157.029 157.298 157.299C157.029 157.568 156.686 157.751 156.313 157.825C155.939 157.9 155.552 157.862 155.2 157.716C154.848 157.57 154.548 157.323 154.336 157.007C154.125 156.69 154.012 156.318 154.012 155.937C154.012 155.427 154.215 154.937 154.576 154.576C154.937 154.215 155.426 154.012 155.937 154.012ZM179.039 177.114C177.135 177.114 175.274 177.678 173.691 178.736C172.108 179.794 170.874 181.297 170.146 183.056C169.417 184.815 169.227 186.75 169.598 188.618C169.969 190.485 170.886 192.2 172.232 193.546C173.579 194.892 175.294 195.809 177.161 196.18C179.028 196.552 180.964 196.361 182.722 195.633C184.481 194.904 185.985 193.67 187.042 192.087C188.1 190.505 188.665 188.643 188.665 186.74C188.662 184.188 187.647 181.741 185.842 179.937C184.037 178.132 181.591 177.117 179.039 177.114ZM179.039 188.665C178.658 188.665 178.286 188.552 177.969 188.34C177.653 188.129 177.406 187.828 177.26 187.476C177.114 187.125 177.076 186.738 177.151 186.364C177.225 185.991 177.408 185.648 177.677 185.378C177.947 185.109 178.29 184.926 178.663 184.852C179.037 184.777 179.424 184.815 179.775 184.961C180.127 185.107 180.428 185.354 180.639 185.67C180.851 185.987 180.964 186.359 180.964 186.74C180.964 187.25 180.761 187.74 180.4 188.101C180.039 188.462 179.549 188.665 179.039 188.665Z" fill="black"/>
</svg>
