<svg width="197" height="197" viewBox="0 0 197 197" fill="none" xmlns="http://www.w3.org/2000/svg">
<path d="M28.8413 51.5328C29.6453 51.9065 30.4536 51.9246 31.2656 51.5862C32.4276 51.0783 59.728 38.9175 59.728 18.7712C59.728 8.60214 51.4546 0.328695 41.2855 0.328695C37.1817 0.328695 33.2981 1.65332 30.1025 4.10456C25.6895 0.763189 19.8673 -0.5103 14.6022 0.853932C10.9932 1.78905 12.439 7.37633 16.0487 6.43737C20.1511 5.37536 24.9705 6.78919 28.0392 9.95753C29.4204 11.1276 30.8015 11.1276 32.1823 9.95753C47.9698 -4.42574 72.874 24.2155 30.1736 45.7229C27.8504 44.4663 22.5435 41.4068 17.5183 37.1553C11.4812 32.0467 3.43459 23.0331 7.10664 14.3509C8.56046 10.9173 3.24926 8.66905 1.79582 12.1023C-5.47368 29.2614 15.6512 45.0654 28.8413 51.5328ZM110.795 184.151C83.2745 187.86 55.2647 178.479 35.699 158.742C10.5611 134.166 2.60675 94.8976 15.8369 62.4094C16.1068 61.7017 16.0876 60.9163 15.7833 60.2227C15.479 59.5291 14.9141 58.9831 14.2106 58.7025C13.5071 58.4219 12.7214 58.4293 12.0233 58.7231C11.3252 59.0169 10.7707 59.5735 10.4795 60.2727C-3.60613 94.8649 4.86035 136.653 31.6209 162.82C52.4443 183.826 82.2613 193.816 111.553 189.869C111.928 189.819 112.29 189.696 112.618 189.506C112.946 189.317 113.233 189.064 113.463 188.764C113.694 188.463 113.862 188.12 113.96 187.754C114.058 187.388 114.082 187.006 114.032 186.631C113.823 185.053 112.374 183.939 110.795 184.151ZM71.7127 10.312C103.072 0.123753 139.015 8.70404 162.155 32.2859C184.256 54.0509 193.27 86.894 185.763 116.938C185.58 117.68 185.7 118.465 186.096 119.119C186.492 119.774 187.132 120.244 187.875 120.426C189.381 120.809 190.989 119.872 191.363 118.314C199.355 86.3284 189.759 51.3798 166.233 28.2074C141.602 3.106 103.34 -6.03068 69.959 4.81782C69.2374 5.05601 68.6389 5.5694 68.2938 6.2464C67.9486 6.9234 67.8846 7.70929 68.1157 8.43322C68.3467 9.15716 68.8542 9.76063 69.5278 10.1124C70.2014 10.4643 70.9866 10.536 71.7127 10.312Z" fill="black"/>
<path d="M193.868 151.699C191.969 149.212 191.465 147.542 191.525 144.408C191.659 137.407 189.107 134.152 182.614 132.191C179.601 131.281 178.182 130.261 176.392 127.675C172.537 122.104 168.668 120.639 162.059 122.928C158.979 123.995 157.103 123.994 154.023 122.928C153.424 122.717 152.82 122.517 152.214 122.327L150.088 89.591C150.064 89.213 149.966 88.8434 149.799 88.5034C149.631 88.1635 149.399 87.8598 149.114 87.6099C148.829 87.3599 148.498 87.1686 148.14 87.0469C147.781 86.9251 147.402 86.8753 147.024 86.9003C146.646 86.9248 146.276 87.0236 145.936 87.1909C145.597 87.3582 145.293 87.5908 145.043 87.8754C144.793 88.16 144.602 88.491 144.48 88.8496C144.358 89.2082 144.308 89.5872 144.333 89.9652L146.404 121.865C143.35 122.619 141.381 125.232 139.69 127.675C137.901 130.261 136.481 131.281 133.469 132.19C126.975 134.151 124.423 137.407 124.557 144.408C124.581 145.673 124.601 146.877 124.428 147.836H53.4067C51.1973 147.601 50.0646 146.371 50.0084 144.146L55.523 59.2176H75.657V66.2949C75.657 67.8879 76.9478 69.1787 78.5408 69.1787C80.1338 69.1787 81.4246 67.8879 81.4246 66.2949V59.2176H116.434V66.2949C116.434 67.8879 117.725 69.1787 119.318 69.1787C120.911 69.1787 122.202 67.8879 122.202 66.2949V59.2176H142.336L143.457 76.4797C143.506 77.243 143.857 77.9553 144.432 78.4599C145.007 78.9645 145.758 79.2201 146.522 79.1705C147.285 79.1209 147.997 78.7701 148.502 78.1953C149.007 77.6205 149.262 76.8688 149.213 76.1056L147.917 56.147C147.869 55.416 147.545 54.7306 147.011 54.2297C146.477 53.7288 145.772 53.45 145.039 53.45H122.202C121.231 22.4287 76.6198 22.4453 75.657 53.45H52.8199C52.0875 53.45 51.3825 53.7288 50.848 54.2297C50.3136 54.7306 49.9898 55.416 49.9423 56.147L44.2547 143.745C43.8675 148.942 48.1809 153.603 53.4067 153.603H120.817C117.561 158.384 118.856 162.738 122.214 167.139C124.113 169.627 124.617 171.296 124.557 174.43C124.423 181.431 126.976 184.687 133.469 186.648C136.481 187.557 137.901 188.577 139.69 191.163C143.546 196.734 147.413 198.199 154.023 195.91C157.103 194.843 158.979 194.843 162.06 195.91C168.693 198.207 172.524 196.754 176.392 191.163C178.182 188.577 179.601 187.558 182.614 186.648C189.107 184.687 191.659 181.431 191.526 174.43C191.465 171.296 191.97 169.626 193.868 167.139C198.024 161.693 198.072 157.207 193.868 151.699ZM81.425 53.2678C82.3071 30.125 115.561 30.1427 116.435 53.2678V53.45H81.425V53.2678ZM189.283 163.64C186.613 167.137 185.674 170.142 185.758 174.541C185.84 178.792 185.019 179.896 180.946 181.127C176.719 182.404 174.162 184.25 171.649 187.882C169.232 191.374 167.95 191.845 163.947 190.46C159.682 188.982 156.4 188.983 152.135 190.46C148.133 191.847 146.848 191.372 144.432 187.881C138.057 178.104 129.777 183.865 130.323 174.541C130.408 170.142 129.469 167.137 126.799 163.64C124.155 160.175 124.155 158.662 126.799 155.198C129.446 151.731 130.411 148.873 130.324 144.297C129.774 134.976 138.06 140.731 144.433 130.956C146.849 127.464 148.133 126.992 152.135 128.378C156.4 129.855 159.682 129.855 163.946 128.378C167.949 126.991 169.233 127.465 171.649 130.957C174.162 134.588 176.719 136.434 180.946 137.711C185.019 138.941 185.84 140.046 185.759 144.297C185.674 148.696 186.613 151.701 189.283 155.198C191.927 158.662 191.927 160.176 189.283 163.64Z" fill="black"/>
<path d="M167.938 144.741C167.304 144.313 166.526 144.155 165.775 144.301C165.025 144.447 164.363 144.885 163.935 145.519L147.356 170.094C146.929 170.728 146.77 171.506 146.916 172.256C147.062 173.007 147.5 173.669 148.134 174.097C149.407 174.955 151.286 174.58 152.138 173.319L168.716 148.745C168.928 148.431 169.076 148.078 169.151 147.707C169.227 147.336 169.229 146.953 169.156 146.582C169.084 146.21 168.939 145.856 168.73 145.54C168.521 145.224 168.252 144.953 167.938 144.741ZM166.326 168.823C162.614 168.823 162.608 174.59 166.326 174.59C170.037 174.59 170.043 168.823 166.326 168.823ZM149.747 150.016C153.458 150.016 153.464 144.248 149.747 144.248C146.036 144.248 146.03 150.016 149.747 150.016Z" fill="black"/>
</svg>
