<svg width="219" height="208" viewBox="0 0 219 208" fill="none" xmlns="http://www.w3.org/2000/svg">
<path d="M188.52 151.908C188.304 151.498 188.01 151.134 187.653 150.837C187.297 150.541 186.886 150.317 186.443 150.18L172.981 145.975C172.088 145.696 171.122 145.783 170.293 146.217C169.465 146.651 168.843 147.396 168.564 148.289L167.506 151.67L137.231 142.215L123.011 137.745C121.612 137.305 120.138 137.16 118.681 137.32C117.224 137.48 115.816 137.941 114.547 138.675L77.8935 159.847C76.626 160.527 75.5098 161.458 74.6127 162.582C73.7155 163.707 73.0561 165.002 72.6743 166.389L43.8232 157.383C41.1454 156.547 38.2451 156.809 35.7602 158.111C33.2753 159.412 31.4093 161.648 30.5724 164.326L28.4698 171.057C27.633 173.735 27.8943 176.636 29.1963 179.122C30.4983 181.608 32.7343 183.475 35.4125 184.312L109.667 207.499C112.313 208.331 115.18 208.085 117.646 206.816L148.273 191.056C149.097 190.637 150.052 190.554 150.936 190.827L154.894 192.066L153.845 195.416C153.568 196.309 153.656 197.275 154.09 198.103C154.523 198.931 155.268 199.553 156.16 199.833L169.626 204.038C169.967 204.145 170.323 204.198 170.68 204.197C171.431 204.197 172.162 203.957 172.767 203.512C173.372 203.067 173.819 202.441 174.043 201.724L188.762 154.597C189.039 153.704 188.952 152.737 188.52 151.908ZM153.039 184.096C150.387 183.259 147.511 183.508 145.042 184.788L114.432 200.538C113.609 200.961 112.652 201.041 111.77 200.763L37.5152 177.576C36.6227 177.298 35.8775 176.676 35.4435 175.847C35.0095 175.019 34.9223 174.052 35.201 173.16L37.3036 166.428C37.4405 165.986 37.6635 165.574 37.9599 165.218C38.2563 164.862 38.6203 164.568 39.0308 164.353C39.4413 164.137 39.8902 164.006 40.3518 163.965C40.8135 163.924 41.2786 163.975 41.7206 164.114L73.4722 174.028C73.4843 174.049 73.4946 174.071 73.5031 174.094L76.7783 180.336C78.0811 182.821 80.3175 184.687 82.9958 185.524C85.6741 186.36 88.5749 186.099 91.0606 184.797L119.171 170.065C119.584 169.851 119.95 169.558 120.249 169.203C120.548 168.847 120.773 168.436 120.913 167.993C121.052 167.549 121.103 167.083 121.061 166.62C121.02 166.158 120.888 165.708 120.672 165.296C120.456 164.885 120.161 164.52 119.804 164.223C119.447 163.926 119.035 163.702 118.591 163.565C118.147 163.428 117.681 163.379 117.218 163.423C116.756 163.466 116.306 163.601 115.896 163.819L87.7853 178.551C86.9567 178.983 85.9904 179.07 85.0982 178.791C84.2059 178.513 83.4603 177.892 83.0246 177.065L79.7538 170.819C79.6431 170.609 79.5531 170.389 79.4849 170.162C79.2598 169.381 79.3115 168.545 79.6312 167.798C79.9508 167.05 80.5189 166.435 81.2393 166.058C81.2834 166.036 81.3231 166.01 81.3671 165.988L118.078 144.78C118.5 144.536 118.969 144.383 119.454 144.33C119.939 144.277 120.429 144.325 120.895 144.472L135.124 148.946L165.403 158.401L156.997 185.33L153.039 184.096ZM168.361 196.254L161.63 194.151L162.582 191.096C162.622 190.999 162.662 190.907 162.692 190.805L173.201 157.145C173.232 157.043 173.259 156.942 173.281 156.845L174.246 153.759L180.977 155.862L168.361 196.254ZM123.425 24.6854C119.24 24.6854 115.149 25.9264 111.67 28.2514C108.19 30.5763 105.478 33.8809 103.877 37.7472C102.275 41.6135 101.856 45.8678 102.673 49.9723C103.489 54.0767 105.504 57.8469 108.463 60.806C111.422 63.7651 115.193 65.7803 119.297 66.5968C123.401 67.4132 127.656 66.9942 131.522 65.3927C135.388 63.7912 138.693 61.0792 141.018 57.5997C143.343 54.1201 144.584 50.0292 144.584 45.8444C144.578 40.2346 142.346 34.8563 138.38 30.8896C134.413 26.9228 129.035 24.6916 123.425 24.6854ZM123.425 59.9503C120.635 59.9503 117.908 59.123 115.588 57.5731C113.268 56.0231 111.46 53.82 110.393 51.2425C109.325 48.665 109.046 45.8287 109.59 43.0924C110.134 40.3561 111.478 37.8427 113.451 35.8699C115.423 33.8972 117.937 32.5537 120.673 32.0094C123.409 31.4652 126.246 31.7445 128.823 32.8122C131.401 33.8798 133.604 35.6878 135.154 38.0075C136.704 40.3272 137.531 43.0545 137.531 45.8444C137.527 49.5842 136.039 53.1697 133.395 55.8142C130.75 58.4586 127.165 59.9461 123.425 59.9503ZM176.322 95.2153H190.428C191.364 95.2153 192.261 94.8437 192.922 94.1824C193.583 93.521 193.955 92.624 193.955 91.6888C193.955 90.7535 193.583 89.8565 192.922 89.1952C192.261 88.5338 191.364 88.1623 190.428 88.1623H183.375C183.375 87.227 183.004 86.33 182.342 85.6687C181.681 85.0073 180.784 84.6358 179.849 84.6358C178.914 84.6358 178.017 85.0073 177.355 85.6687C176.694 86.33 176.322 87.227 176.322 88.1623C173.516 88.1623 170.826 89.2769 168.842 91.2609C166.857 93.245 165.743 95.9359 165.743 98.7418C165.743 101.548 166.857 104.239 168.842 106.223C170.826 108.207 173.516 109.321 176.322 109.321H182.935C185.011 109.321 186.902 111.002 186.902 112.848C186.901 113.783 186.529 114.679 185.868 115.34C185.207 116.001 184.31 116.373 183.375 116.374H169.269C168.334 116.374 167.437 116.746 166.776 117.407C166.114 118.068 165.743 118.965 165.743 119.901C165.743 120.836 166.114 121.733 166.776 122.394C167.437 123.056 168.334 123.427 169.269 123.427H176.322C176.322 124.362 176.694 125.259 177.355 125.921C178.017 126.582 178.914 126.954 179.849 126.954C180.784 126.954 181.681 126.582 182.342 125.921C183.004 125.259 183.375 124.362 183.375 123.427C186.18 123.424 188.869 122.308 190.853 120.325C192.836 118.342 193.952 115.653 193.955 112.848C193.955 107.113 188.908 102.268 182.935 102.268H176.322C175.387 102.268 174.49 101.897 173.829 101.235C173.167 100.574 172.796 99.677 172.796 98.7418C172.796 97.8065 173.167 96.9095 173.829 96.2481C174.49 95.5868 175.387 95.2153 176.322 95.2153Z" fill="black"/>
<path d="M201.01 73.2981V3.52649C201.01 2.59121 200.638 1.69423 199.977 1.03289C199.316 0.37154 198.419 0 197.484 0H49.3709C48.4356 0 47.5386 0.37154 46.8773 1.03289C46.2159 1.69423 45.8444 2.59121 45.8444 3.52649V59.9504H10.5795C7.77477 59.9541 5.08601 61.0699 3.10278 63.0531C1.11955 65.0364 0.00373215 67.7251 0 70.5298V119.901C0.00373215 122.705 1.11955 125.394 3.10278 127.377C5.08601 129.361 7.77477 130.476 10.5795 130.48H88.1623C90.967 130.476 93.6558 129.361 95.639 127.377C97.6222 125.394 98.738 122.705 98.7418 119.901V91.6888H143.713C141.043 98.5211 140.364 105.971 141.755 113.173C143.147 120.376 146.552 127.036 151.576 132.382C156.6 137.727 163.036 141.539 170.139 143.375C177.241 145.21 184.718 144.995 191.703 142.753C198.688 140.511 204.894 136.335 209.601 130.708C214.309 125.082 217.325 118.236 218.299 110.966C219.273 103.695 218.166 96.2968 215.106 89.6298C212.046 82.9627 207.158 77.2998 201.01 73.2981ZM52.8974 7.05298H193.957V69.657C189.462 67.8997 184.677 66.9996 179.851 67.0033C179.062 67.0033 178.277 67.0298 177.502 67.0783C180.086 64.7617 183.434 63.4795 186.904 63.4768C187.839 63.4768 188.736 63.1053 189.398 62.444C190.059 61.7826 190.431 60.8856 190.431 59.9504V31.7384C190.431 30.8031 190.059 29.9062 189.398 29.2448C188.736 28.5835 187.839 28.2119 186.904 28.2119C183.164 28.207 179.579 26.7193 176.935 24.075C174.291 21.4307 172.803 17.8456 172.798 14.106C172.798 13.1707 172.427 12.2737 171.765 11.6124C171.104 10.951 170.207 10.5795 169.272 10.5795H77.5828C76.6475 10.5795 75.7505 10.951 75.0892 11.6124C74.4279 12.2737 74.0563 13.1707 74.0563 14.106C74.0514 17.8456 72.5637 21.4307 69.9194 24.075C67.2751 26.7193 63.69 28.207 59.9504 28.2119C59.0151 28.2119 58.1181 28.5835 57.4567 29.2448C56.7954 29.9062 56.4239 30.8031 56.4239 31.7384V59.9504H52.8974V7.05298ZM91.6888 119.901C91.6875 120.836 91.3156 121.732 90.6545 122.393C89.9934 123.054 89.0972 123.426 88.1623 123.427H10.5795C9.64458 123.426 8.74835 123.054 8.08729 122.393C7.42622 121.732 7.05427 120.836 7.05298 119.901V95.2153H91.6888V119.901ZM91.6888 88.1623H7.05298V81.1093H91.6888V88.1623ZM91.6888 74.0563H7.05298V70.5298C7.05427 69.5949 7.42622 68.6987 8.08729 68.0376C8.74835 67.3766 9.64458 67.0046 10.5795 67.0033H88.1623C89.0972 67.0046 89.9934 67.3766 90.6545 68.0376C91.3156 68.6987 91.6875 69.5949 91.6888 70.5298V74.0563ZM88.1623 59.9504H71.6451C69.182 58.3059 66.3979 57.2031 63.4768 56.7148V34.9696C67.806 34.2303 71.7989 32.1654 74.9043 29.0599C78.0098 25.9545 80.0747 21.9616 80.814 17.6325H166.04C166.78 21.9616 168.845 25.9545 171.95 29.0599C175.056 32.1654 179.048 34.2303 183.378 34.9696V56.7192C179.934 57.3021 176.689 58.7281 173.93 60.8703C171.172 63.0124 168.987 65.8039 167.57 68.9958C164.01 70.189 160.642 71.8937 157.572 74.0563H98.7418V70.5298C98.738 67.7251 97.6222 65.0364 95.639 63.0531C93.6558 61.0699 90.967 59.9541 88.1623 59.9504ZM98.7418 84.6358V81.1093H149.951C149.02 82.2355 148.154 83.4129 147.354 84.6358H98.7418ZM179.851 137.533C173.574 137.533 167.438 135.672 162.218 132.184C156.999 128.697 152.931 123.74 150.529 117.941C148.126 112.141 147.498 105.76 148.722 99.6029C149.947 93.4462 152.97 87.791 157.409 83.3523C161.847 78.9136 167.503 75.8908 173.659 74.6662C179.816 73.4415 186.197 74.0701 191.997 76.4723C197.796 78.8745 202.753 82.9425 206.241 88.1618C209.728 93.3812 211.589 99.5175 211.589 105.795C211.58 114.209 208.233 122.276 202.283 128.227C196.333 134.177 188.266 137.523 179.851 137.533Z" fill="black"/>
</svg>
