<svg width="188" height="222" viewBox="0 0 188 222" fill="none" xmlns="http://www.w3.org/2000/svg">
<path d="M183.331 30.8319H143.724V4.03186C143.724 1.89735 141.827 0 139.455 0H4.26903C1.89735 0 0.237168 1.89735 0 4.03186V186.651C0 189.023 1.89735 190.92 4.26903 190.92H44.1133V217.483C44.1133 219.855 46.0106 221.515 48.1451 221.752H183.331C185.703 221.752 187.363 219.855 187.6 217.72V34.8637C187.363 32.7292 185.703 30.8319 183.331 30.8319ZM135.423 30.8319H73.5221L135.66 9.96107V30.8319H135.423ZM8.77522 182.382V8.06372H114.552L46.9593 30.8319C45.2991 31.5434 44.1133 32.9664 44.1133 34.8637V182.382H8.77522ZM179.062 213.214H52.4142V39.1327H179.299L179.062 213.214Z" fill="black"/>
<path d="M103.879 54.3115H73.2847C70.913 54.3115 69.0156 56.2089 69.0156 58.5805V89.1752C69.0156 91.5469 70.913 93.2071 73.2847 93.4443H103.879C106.251 93.4443 108.148 91.5469 108.148 89.4124V58.3434C108.148 56.2089 106.251 54.3115 103.879 54.3115ZM99.8475 84.9062H77.5537V62.6124H99.8475V84.9062ZM103.879 106.726H73.2847C70.913 106.726 69.0156 108.623 69.0156 110.995V141.589C69.0156 143.961 70.913 145.858 73.2847 145.858H103.879C106.251 145.858 108.148 143.961 108.148 141.827V110.758C108.148 108.623 106.251 106.726 103.879 106.726ZM99.8475 137.32H77.5537V115.027H99.8475V137.32ZM103.879 159.14H73.2847C70.913 159.14 69.0156 161.037 69.0156 163.409V194.004C69.0156 196.375 70.913 198.273 73.2847 198.273H103.879C106.251 198.273 108.148 196.375 108.148 194.241V163.409C108.148 161.037 106.251 159.14 103.879 159.14ZM99.8475 189.972H77.5537V167.678H99.8475V189.972ZM123.09 64.7469C123.09 67.1186 124.987 68.7788 127.122 69.016H157.954C160.325 69.016 162.223 67.1186 162.223 64.7469C162.223 62.3752 160.325 60.4779 157.954 60.4779H127.122C124.987 60.4779 123.09 62.3752 123.09 64.7469ZM158.191 78.5027H127.359C124.987 78.5027 123.09 80.4 123.09 82.7717C123.09 85.1434 124.987 87.0407 127.359 87.0407H158.191C160.563 87.0407 162.46 85.1434 162.46 82.7717C162.46 80.4 160.563 78.5027 158.191 78.5027ZM158.191 113.129H127.359C124.987 113.129 123.09 115.027 123.09 117.398C123.09 119.77 124.987 121.667 127.359 121.667H158.191C160.563 121.667 162.46 119.77 162.46 117.398C162.46 115.027 160.563 113.129 158.191 113.129ZM158.191 131.154H127.359C124.987 131.154 123.09 133.051 123.09 135.423C123.09 137.795 124.987 139.692 127.359 139.692H158.191C160.563 139.692 162.46 137.795 162.46 135.423C162.46 133.051 160.563 131.154 158.191 131.154ZM158.191 165.543H127.359C124.987 165.543 123.09 167.441 123.09 169.812C123.09 172.184 124.987 174.081 127.359 174.081H158.191C160.563 174.081 162.46 172.184 162.46 169.812C162.46 167.441 160.563 165.543 158.191 165.543ZM158.191 183.568H127.359C124.987 183.568 123.09 185.466 123.09 187.837C123.09 190.209 124.987 192.106 127.359 192.106H158.191C160.563 192.106 162.46 190.209 162.46 187.837C162.46 185.466 160.563 183.568 158.191 183.568Z" fill="black"/>
</svg>
