<svg width="206" height="174" viewBox="0 0 206 174" fill="none" xmlns="http://www.w3.org/2000/svg">
<path d="M79.6832 54.2285H92.238C95.218 54.2381 98.0728 55.4286 100.177 57.5391C102.28 59.6497 103.462 62.5083 103.462 65.4883C103.462 66.6809 103.936 67.8247 104.779 68.668C105.622 69.5113 106.766 69.985 107.959 69.985C109.151 69.985 110.295 69.5113 111.138 68.668C111.981 67.8247 112.455 66.6809 112.455 65.4883C112.455 60.1231 110.326 54.977 106.536 51.1798C102.745 47.3826 97.6032 45.2446 92.238 45.2351H90.4393V39.0476C90.4393 37.855 89.9656 36.7113 89.1223 35.868C88.279 35.0247 87.1352 34.5509 85.9426 34.5509C84.75 34.5509 83.6063 35.0247 82.763 35.868C81.9197 36.7113 81.4459 37.855 81.4459 39.0476V45.343H79.6832C74.3117 45.343 69.1602 47.4768 65.362 51.2751C61.5638 55.0733 59.43 60.2247 59.43 65.5962V69.8411C59.4158 72.5099 59.9291 75.1551 60.9406 77.6248C61.952 80.0945 63.4416 82.34 65.3237 84.2321C67.2058 86.1243 69.4433 87.6257 71.9076 88.6503C74.3719 89.6749 77.0144 90.2023 79.6832 90.2023H92.238C95.2147 90.2023 98.0696 91.3848 100.174 93.4896C102.279 95.5945 103.462 98.4493 103.462 101.426V105.635C103.462 108.615 102.28 111.474 100.177 113.584C98.0728 115.695 95.218 116.885 92.238 116.895H79.6832C76.7031 116.885 73.8484 115.695 71.7446 113.584C69.6407 111.474 68.4594 108.615 68.4594 105.635C68.4594 104.442 67.9856 103.299 67.1423 102.455C66.299 101.612 65.1553 101.138 63.9627 101.138C62.7701 101.138 61.6263 101.612 60.783 102.455C59.9397 103.299 59.4659 104.442 59.4659 105.635C59.4659 111 61.5948 116.146 65.3853 119.943C69.1757 123.741 74.3179 125.879 79.6832 125.888H81.4459V132.148C81.4459 133.34 81.9197 134.484 82.763 135.327C83.6063 136.171 84.75 136.644 85.9426 136.644C87.1352 136.644 88.279 136.171 89.1223 135.327C89.9656 134.484 90.4393 133.34 90.4393 132.148V125.78H92.238C97.6032 125.771 102.745 123.633 106.536 119.836C110.326 116.038 112.455 110.892 112.455 105.527V101.318C112.455 95.9562 110.325 90.8139 106.534 87.0224C102.742 83.2309 97.5999 81.1009 92.238 81.1009H79.6832C76.7031 81.0914 73.8484 79.9009 71.7446 77.7903C69.6407 75.6797 68.4594 72.8212 68.4594 69.8411V65.5962C68.4451 64.1115 68.7247 62.6387 69.2819 61.2625C69.8391 59.8862 70.663 58.6338 71.7062 57.5773C72.7494 56.5207 73.9912 55.6809 75.3602 55.1062C76.7293 54.5315 78.1984 54.2332 79.6832 54.2285Z" fill="black"/>
<path d="M162.096 120.384C161.572 120.111 161 119.945 160.411 119.895C159.823 119.845 159.23 119.912 158.668 120.093C158.106 120.273 157.585 120.564 157.136 120.947C156.687 121.331 156.319 121.8 156.052 122.327C147.86 138.293 134.401 150.936 117.954 158.116C101.508 165.296 83.0858 166.57 65.8075 161.723C48.5293 156.877 33.4574 146.207 23.1445 131.521C12.8316 116.835 7.91178 99.0365 9.21824 81.139C10.5247 63.2415 17.9772 46.3457 30.3134 33.3133C42.6496 20.2808 59.1113 11.9129 76.9101 9.62676C94.709 7.34064 112.751 11.2769 127.98 20.7688C143.21 30.2607 154.69 44.7247 160.477 61.7111C160.64 62.3033 160.922 62.8558 161.307 63.3347C161.691 63.8136 162.17 64.2086 162.713 64.4954C163.256 64.7823 163.852 64.9549 164.464 65.0025C165.076 65.0502 165.692 64.9719 166.273 64.7725C166.854 64.5732 167.387 64.2569 167.841 63.8433C168.295 63.4297 168.66 62.9275 168.912 62.3676C169.165 61.8078 169.3 61.2021 169.309 60.5881C169.318 59.974 169.202 59.3645 168.967 58.7972C162.508 39.849 149.698 23.7157 132.707 13.1297C115.716 2.54376 95.5886 -1.84418 75.7333 0.709097C55.878 3.26237 37.5154 12.5999 23.7556 27.1403C9.99582 41.6806 1.68463 60.5299 0.229666 80.4958C-1.22529 100.462 4.26542 120.317 15.7719 136.698C27.2783 153.08 44.0931 164.981 63.3685 170.386C82.6439 175.791 103.195 174.367 121.541 166.356C139.887 158.345 154.901 144.239 164.038 126.428C164.316 125.905 164.487 125.332 164.539 124.743C164.592 124.153 164.526 123.559 164.345 122.995C164.163 122.432 163.871 121.91 163.485 121.462C163.099 121.013 162.626 120.647 162.096 120.384Z" fill="black"/>
<path d="M203.83 57.0707C203.412 56.652 202.916 56.3197 202.37 56.093C201.824 55.8663 201.238 55.7496 200.646 55.7496C200.055 55.7496 199.469 55.8663 198.923 56.093C198.377 56.3197 197.88 56.652 197.463 57.0707L158.323 96.2101C158.001 96.5243 157.568 96.7002 157.118 96.7002C156.668 96.7002 156.235 96.5243 155.913 96.2101L140.768 81.0292C139.924 80.1849 138.779 79.7105 137.584 79.7105C136.39 79.7105 135.245 80.1849 134.401 81.0292C133.556 81.8736 133.082 83.0188 133.082 84.2129C133.082 85.407 133.556 86.5522 134.401 87.3966L149.546 102.577C151.565 104.566 154.285 105.68 157.118 105.68C159.952 105.68 162.672 104.566 164.691 102.577L203.83 63.4381C204.249 63.0204 204.581 62.5241 204.808 61.9778C205.034 61.4315 205.151 60.8459 205.151 60.2544C205.151 59.6629 205.034 59.0773 204.808 58.5309C204.581 57.9846 204.249 57.4884 203.83 57.0707Z" fill="black"/>
</svg>
