<svg width="198" height="251" viewBox="0 0 198 251" fill="none" xmlns="http://www.w3.org/2000/svg">
<path d="M182.117 0H14.9225C6.69695 0 0 6.69175 0 14.9225V235.693C0 243.919 6.69175 250.616 14.9225 250.616H182.117C190.343 250.616 197.04 243.924 197.04 235.693V14.9225C197.04 6.69175 190.348 0 182.117 0ZM190.801 235.693C190.801 240.482 186.906 244.376 182.117 244.376H14.9225C10.1338 244.376 6.23939 240.482 6.23939 235.693V14.9225C6.23939 10.1338 10.1338 6.23939 14.9225 6.23939H182.117C186.906 6.23939 190.801 10.1338 190.801 14.9225V235.693ZM144.447 154.519C146.168 154.519 147.567 155.917 147.567 157.638C147.567 159.359 146.168 160.758 144.447 160.758H52.5929C50.8718 160.758 49.4732 159.359 49.4732 157.638C49.4732 155.917 50.8718 154.519 52.5929 154.519H144.447ZM170.122 180.043C170.122 181.764 168.724 183.163 167.003 183.163H109.2C107.479 183.163 106.08 181.764 106.08 180.043C106.08 178.322 107.479 176.923 109.2 176.923H167.003C168.729 176.923 170.122 178.322 170.122 180.043ZM26.9178 180.043C26.9178 178.322 28.3164 176.923 30.0375 176.923H94.9063C96.6274 176.923 98.026 178.322 98.026 180.043C98.026 181.764 96.6274 183.163 94.9063 183.163H30.0375C28.3112 183.163 26.9178 181.764 26.9178 180.043ZM170.122 202.447C170.122 204.168 168.724 205.567 167.003 205.567H73.0581C71.337 205.567 69.9384 204.168 69.9384 202.447C69.9384 200.726 71.337 199.328 73.0581 199.328H167.003C168.729 199.328 170.122 200.721 170.122 202.447ZM26.9178 202.447C26.9178 200.726 28.3164 199.328 30.0375 199.328H58.7647C60.4857 199.328 61.8844 200.726 61.8844 202.447C61.8844 204.168 60.4857 205.567 58.7647 205.567H30.0375C28.3112 205.567 26.9178 204.168 26.9178 202.447ZM170.122 224.847C170.122 226.568 168.724 227.967 167.003 227.967H140.917C139.196 227.967 137.797 226.568 137.797 224.847C137.797 223.126 139.196 221.727 140.917 221.727H167.003C168.729 221.727 170.122 223.126 170.122 224.847ZM129.743 224.847C129.743 226.568 128.344 227.967 126.623 227.967H30.0375C28.3164 227.967 26.9178 226.568 26.9178 224.847C26.9178 223.126 28.3164 221.727 30.0375 221.727H126.623C128.344 221.727 129.743 223.126 129.743 224.847ZM61.4892 104.624L97.0381 121.996C97.4697 122.209 97.9428 122.313 98.4056 122.313C98.8736 122.313 99.3415 122.198 99.7731 121.99L99.7783 121.996L135.327 104.624C135.852 104.368 136.295 103.969 136.604 103.474C136.914 102.978 137.079 102.406 137.079 101.822V64.6557C137.079 63.5794 136.523 62.5811 135.613 62.0091C135.483 61.926 135.343 61.8584 135.202 61.796V61.7908L99.6535 46.3223C99.2603 46.1525 98.8365 46.0649 98.4082 46.0649C97.9799 46.0649 97.5561 46.1525 97.1629 46.3223L61.614 61.7908V61.796C61.4736 61.8584 61.3384 61.926 61.2032 62.0091C60.7542 62.2894 60.3839 62.6795 60.1273 63.1425C59.8708 63.6056 59.7365 64.1263 59.737 64.6557V101.822C59.7389 102.406 59.904 102.978 60.2136 103.473C60.5232 103.968 60.965 104.367 61.4892 104.624ZM95.2859 114.196L65.9764 99.8719V69.6524L95.2859 83.977V114.196ZM70.3023 64.8169L74.3215 63.0698L103.589 76.0218L98.4108 78.5539L70.3023 64.8169ZM114.961 77.41L117.498 76.1726V82.464L114.961 83.4103V77.41ZM110.91 72.4445L82.0896 59.6902L85.3341 58.2811L113.968 70.9523L110.91 72.4445ZM130.835 99.8719L101.525 114.196V83.977L108.721 80.4569V87.8974C108.721 88.9217 109.221 89.8784 110.063 90.4608C110.585 90.8233 111.205 91.0175 111.841 91.0171C112.21 91.0171 112.579 90.9547 112.928 90.8195L121.705 87.5491C122.3 87.3266 122.813 86.9275 123.176 86.4053C123.538 85.8831 123.732 85.2626 123.732 84.6269V73.1205L130.824 69.6524V99.8719H130.835ZM98.4056 52.5877L126.509 64.8169L121.289 67.3646L93.1021 54.891L98.4056 52.5877ZM41.6375 82.1988C41.6375 69.5952 45.6775 57.652 53.3156 47.6689C54.3607 46.3015 56.3209 46.0415 57.6884 47.0866C59.0558 48.1317 59.3158 50.0919 58.2707 51.4594C51.4698 60.3505 47.8769 70.9783 47.8769 82.1988C47.8769 110.125 70.5935 132.842 98.52 132.842C126.446 132.842 149.163 110.125 149.163 82.1988C149.163 56.5081 129.878 35.1798 105.03 31.9717L109.948 38.6062C110.973 39.9893 110.687 41.9443 109.304 42.9686C108.747 43.3846 108.092 43.5821 107.448 43.5821C106.496 43.5821 105.55 43.1454 104.941 42.3239L96.019 30.2974C95.5251 29.6319 95.3171 28.8 95.4367 27.9785C95.5563 27.1569 95.9982 26.4238 96.6638 25.9299L108.69 17.0075C110.073 15.978 112.028 16.2692 113.053 17.6523C114.077 19.0353 113.791 20.9904 112.408 22.0147L107.089 25.9611C134.391 30.1103 155.402 53.7784 155.402 82.1936C155.402 113.557 129.883 139.076 98.52 139.076C67.1567 139.076 41.6375 113.567 41.6375 82.1988Z" fill="black"/>
</svg>
