<svg width="451" height="492" viewBox="0 0 451 492" fill="none" xmlns="http://www.w3.org/2000/svg">
<path d="M139.122 16.3679H351.905C365.463 16.3679 376.456 27.361 376.456 40.9196V49.1036H196.409V65.4715H376.456V315.785L320.863 260.191C320.599 259.932 320.283 259.749 320.043 259.496L327.141 231.14L333.741 204.599H351.905V188.231H327.353C325.527 188.231 323.756 188.841 322.317 189.963C320.878 191.085 319.856 192.655 319.412 194.425L312.786 220.967H171.858C170.613 220.967 169.386 221.25 168.267 221.796C167.149 222.342 166.17 223.135 165.404 224.115C164.639 225.096 164.107 226.24 163.85 227.455C163.592 228.673 163.615 229.932 163.917 231.14L180.285 296.611C180.729 298.381 181.752 299.951 183.191 301.073C184.629 302.195 186.401 302.805 188.226 302.805H261.488C263.22 306.457 265.546 309.795 268.371 312.684L274.859 319.173H180.042V335.54H291.227L333.514 377.827L329.881 384.186C325.456 391.979 322.277 400.418 320.464 409.196H114.57V237.335H98.2021V450.116C98.2298 472.705 116.532 491.008 139.122 491.036H319.169V474.668H139.122C125.563 474.668 114.57 463.674 114.57 450.116V425.564H318.776C318.485 444.238 324.378 462.483 335.537 477.458V491.036H351.905V474.668C351.905 472.809 351.273 471.005 350.109 469.553C332.35 447.517 329.957 416.834 344.087 392.314L350.825 380.521C351.709 378.965 352.06 377.162 351.821 375.388C351.584 373.613 350.771 371.967 349.505 370.697L279.943 301.135C272.056 292.995 272.157 280.032 280.172 272.022C288.186 264.003 301.151 263.899 309.291 271.788L395.222 357.719L406.793 346.148L392.824 332.153V40.9196C392.796 18.33 374.494 0.0276208 351.905 0H139.122C135.673 0 132.24 0.431702 128.9 1.28692L132.992 17.1474C134.995 16.6309 137.054 16.369 139.122 16.3679ZM254.658 286.437H236.371L234.324 270.071H256.702L254.658 286.437ZM258.748 253.703H232.278L230.233 237.335H260.795L258.748 253.703ZM213.738 237.335L215.782 253.703H186.431L182.339 237.335H213.738ZM190.523 270.071H217.829L219.873 286.437H194.616L190.523 270.071ZM275.079 254.968L277.288 237.335H308.687L305.254 251.069C300.234 249.546 294.95 249.108 289.749 249.779C284.546 250.451 279.546 252.22 275.079 254.968Z" fill="black"/>
<path d="M237.335 441.932H253.703V458.3H237.335V441.932ZM433.748 327.717V491.036H450.116V327.717C450.136 305.991 442.287 284.994 428.017 268.61L418.115 256.662L405.52 267.108L415.555 279.221C427.292 292.65 433.756 309.883 433.748 327.717ZM220.967 360.092C220.967 369.133 213.638 376.46 204.599 376.46C195.559 376.46 188.231 369.133 188.231 360.092C188.231 351.054 195.559 343.724 204.599 343.724C213.638 343.724 220.967 351.054 220.967 360.092ZM302.805 360.092C302.805 369.133 295.478 376.46 286.437 376.46C277.398 376.46 270.071 369.133 270.071 360.092C270.071 351.054 277.398 343.724 286.437 343.724C295.478 343.724 302.805 351.054 302.805 360.092ZM237.335 139.127V168.474L226.752 157.893L215.18 169.465L239.732 194.017C241.266 195.55 243.349 196.411 245.519 196.411C247.687 196.411 249.769 195.55 251.304 194.017L275.856 169.465L264.284 157.893L253.703 168.474V139.127H237.335ZM98.2071 220.967C152.446 220.967 196.414 176.998 196.414 122.759C196.414 68.5201 152.446 24.5519 98.2071 24.5519C43.9682 24.5519 0 68.5201 0 122.759C0.0603565 176.973 43.9927 220.905 98.2071 220.967ZM98.2071 40.9198C143.407 40.9198 180.047 77.5591 180.047 122.759C180.047 167.959 143.407 204.599 98.2071 204.599C53.0072 204.599 16.3679 167.959 16.3679 122.759C16.4159 77.5797 53.0278 40.9678 98.2071 40.9198Z" fill="black"/>
<path d="M87.1238 125.117L106.592 128.389C108.93 128.804 111.029 130.077 112.479 131.957C113.928 133.838 114.623 136.193 114.428 138.559C114.234 140.925 113.164 143.134 111.427 144.752C109.69 146.371 107.411 147.283 105.037 147.311H73.653V163.679H90.021V171.862H106.389V163.538C119.596 162.891 130.182 152.382 130.928 139.183C131.672 125.979 122.333 114.347 109.286 112.217L89.8173 108.944C87.4793 108.53 85.38 107.257 83.9307 105.376C82.4814 103.496 81.7862 101.141 81.9811 98.7749C82.1756 96.4088 83.2458 94.2005 84.9827 92.5818C86.7193 90.9633 88.9973 90.0509 91.3712 90.0232H122.757V73.6553H106.389V65.4713H90.021V73.7956C76.814 74.443 66.2281 84.9522 65.4814 98.1508C64.7376 111.355 74.0765 122.987 87.1238 125.117Z" fill="black"/>
</svg>
