<svg width="226" height="247" viewBox="0 0 226 247" fill="none" xmlns="http://www.w3.org/2000/svg">
<path d="M69.8162 8.21397H176.598C183.402 8.21397 188.919 13.7307 188.919 20.5349V24.6419H98.5651V32.8559H188.919V158.472L161.02 130.573C160.888 130.443 160.729 130.351 160.609 130.224L164.171 115.994L167.483 102.675H176.598V94.4607H164.277C163.361 94.4609 162.472 94.7668 161.75 95.3299C161.028 95.8931 160.515 96.6812 160.292 97.5691L156.967 110.889H86.2441C85.6197 110.889 85.0036 111.031 84.4424 111.305C83.8812 111.579 83.3897 111.977 83.0052 112.469C82.6213 112.961 82.3547 113.535 82.2254 114.145C82.0962 114.756 82.1078 115.388 82.2593 115.994L90.4733 148.85C90.6963 149.738 91.2095 150.526 91.9314 151.089C92.6533 151.652 93.5425 151.958 94.4581 151.958H131.224C132.093 153.791 133.26 155.466 134.678 156.916L137.934 160.172H90.3511V168.386H146.148L167.369 189.607L165.546 192.798C163.325 196.709 161.73 200.944 160.82 205.349H57.4952V119.103H49.2812V225.884C49.2951 237.22 58.4799 246.405 69.8162 246.419H160.17V238.205H69.8162C63.0119 238.205 57.4952 232.688 57.4952 225.884V213.563H159.973C159.827 222.934 162.784 232.09 168.384 239.605V246.419H176.598V238.205C176.598 237.272 176.281 236.367 175.697 235.638C166.785 224.58 165.584 209.182 172.675 196.877L176.056 190.959C176.5 190.178 176.676 189.273 176.556 188.383C176.437 187.492 176.029 186.666 175.394 186.029L140.485 151.12C136.527 147.035 136.578 140.53 140.6 136.51C144.622 132.486 151.128 132.434 155.213 136.393L198.336 179.516L204.143 173.709L197.133 166.686V20.5349C197.119 9.19862 187.934 0.0138611 176.598 0H69.8162C68.0856 0 66.3627 0.216643 64.6866 0.645823L66.74 8.60516C67.7449 8.34599 68.7784 8.21456 69.8162 8.21397ZM127.796 143.744H118.619L117.592 135.531H128.822L127.796 143.744ZM129.849 127.317H116.565L115.539 119.103H130.876L129.849 127.317ZM107.261 119.103L108.287 127.317H93.5576L91.5041 119.103H107.261ZM95.6111 135.531H109.314L110.34 143.744H97.6651L95.6111 135.531ZM138.044 127.952L139.153 119.103H154.91L153.187 125.995C150.668 125.231 148.016 125.011 145.406 125.348C142.795 125.685 140.286 126.573 138.044 127.952Z" fill="black"/>
<path d="M119.103 221.777H127.317V229.991H119.103V221.777ZM217.67 164.46V246.419H225.884V164.46C225.894 153.557 221.955 143.02 214.794 134.798L209.825 128.802L203.504 134.044L208.54 140.123C214.43 146.862 217.674 155.51 217.67 164.46ZM110.889 180.707C110.889 185.244 107.211 188.921 102.675 188.921C98.1385 188.921 94.4607 185.244 94.4607 180.707C94.4607 176.171 98.1385 172.493 102.675 172.493C107.211 172.493 110.889 176.171 110.889 180.707ZM151.958 180.707C151.958 185.244 148.281 188.921 143.744 188.921C139.208 188.921 135.531 185.244 135.531 180.707C135.531 176.171 139.208 172.493 143.744 172.493C148.281 172.493 151.958 176.171 151.958 180.707ZM119.103 69.8188V84.5464L113.792 79.2361L107.985 85.0434L120.306 97.3643C121.076 98.1338 122.121 98.5659 123.21 98.5659C124.298 98.5659 125.343 98.1338 126.113 97.3643L138.434 85.0434L132.627 79.2361L127.317 84.5464V69.8188H119.103ZM49.2838 110.889C76.5029 110.889 98.5677 88.8239 98.5677 61.6048C98.5677 34.3858 76.5029 12.321 49.2838 12.321C22.0648 12.321 0 34.3858 0 61.6048C0.030289 88.8115 22.0771 110.858 49.2838 110.889ZM49.2838 20.535C71.9667 20.535 90.3537 38.9219 90.3537 61.6048C90.3537 84.2877 71.9667 102.675 49.2838 102.675C26.6009 102.675 8.21397 84.2877 8.21397 61.6048C8.2381 38.9322 26.6112 20.5591 49.2838 20.535Z" fill="black"/>
<path d="M43.7216 62.7881L53.4916 64.4303C54.6649 64.6385 55.7183 65.277 56.4457 66.2209C57.173 67.1648 57.5219 68.3462 57.424 69.5338C57.3264 70.7212 56.7893 71.8295 55.9176 72.6418C55.046 73.4541 53.9026 73.9119 52.7113 73.9257H36.9615V82.1397H45.1755V86.2466H53.3894V82.0693C60.0171 81.7444 65.3295 76.4705 65.7042 69.8469C66.0774 63.2208 61.3909 57.3833 54.8433 56.3144L45.0733 54.6721C43.9 54.464 42.8465 53.8255 42.1192 52.8816C41.3919 51.9377 41.043 50.7563 41.1408 49.5687C41.2384 48.3813 41.7755 47.2731 42.6471 46.4608C43.5186 45.6486 44.6618 45.1907 45.8531 45.1768H61.6034V36.9628H53.3894V32.8558H45.1755V37.0332C38.5478 37.3581 33.2354 42.632 32.8607 49.2555C32.4874 55.8816 37.174 61.7192 43.7216 62.7881Z" fill="black"/>
</svg>
