<svg width="197" height="226" viewBox="0 0 197 226" fill="none" xmlns="http://www.w3.org/2000/svg">
<path d="M195.834 70.12L190.508 55.1198L191.227 51.0401C192.319 44.8769 190.325 38.5523 185.898 34.1191L174.144 22.3656L188.549 7.96089C189.926 6.5835 189.926 4.35278 188.549 2.97538C187.172 1.59799 184.941 1.59799 183.563 2.97538L169.159 17.3801L157.407 5.62791C152.979 1.2035 146.685 -0.801989 140.487 0.294638L108.03 6.01887C104.147 6.69813 100.569 8.56162 97.7867 11.3539L5.63035 103.509C-1.87414 111.01 -1.87943 123.167 5.63035 130.673L47.1246 172.166L45.146 179.323C42.2479 189.794 48.3816 200.618 58.8595 203.515L136.325 224.931C146.818 227.829 157.641 221.627 160.519 211.217L196.254 81.9396C197.339 78.0304 197.191 73.9432 195.834 70.12ZM10.6159 108.494L102.772 16.3394C104.533 14.5724 106.798 13.3933 109.255 12.9636L141.713 7.23936C143.638 6.89954 145.616 7.02878 147.48 7.61614C149.344 8.2035 151.039 9.23165 152.421 10.6134L164.174 22.3651L153.911 32.6275C149.671 30.5854 144.247 31.225 140.818 34.6564C136.393 39.0808 136.393 46.2803 140.818 50.7078C145.256 55.1388 152.455 55.1234 156.869 50.706C160.418 47.1552 161.07 41.84 158.925 37.5844L169.159 27.3502L180.912 39.1028C182.293 40.4859 183.32 42.1811 183.908 44.0453C184.495 45.9095 184.625 47.8877 184.286 49.8126L178.563 82.2666C178.131 84.7241 176.951 86.9886 175.186 88.7517L83.0298 180.908C78.4366 185.502 70.4319 185.502 65.8386 180.908L10.6159 125.687C5.86792 120.939 5.86352 113.247 10.6159 108.494ZM151.884 39.6419C153.557 41.3168 153.557 44.0438 151.884 45.7205C151.077 46.5258 149.984 46.9781 148.844 46.9781C147.704 46.9781 146.61 46.5258 145.803 45.7205C144.13 44.0438 144.13 41.3168 145.803 39.6436C146.202 39.2427 146.675 38.9244 147.197 38.7072C147.719 38.4899 148.278 38.378 148.843 38.3779C149.408 38.3777 149.968 38.4893 150.49 38.7062C151.012 38.9232 151.485 39.2411 151.884 39.6419ZM189.458 80.0584L153.723 209.338C151.87 216.045 144.888 219.98 138.205 218.135L60.7398 196.719C54.0234 194.864 50.0834 187.922 51.943 181.203L52.8567 177.898L60.8536 185.894C68.355 193.403 80.506 193.404 88.0158 185.894L180.172 93.7398C182.971 90.9423 184.813 87.4011 185.505 83.4951L188.026 69.2023L189.19 72.4808C190.06 74.9182 190.154 77.5655 189.458 80.0584Z" fill="black"/>
<path d="M121.884 103.257C121.884 102.322 121.513 101.425 120.852 100.764C120.191 100.102 119.294 99.7303 118.359 99.7298L58.2054 99.7025C56.2603 99.7025 54.6797 101.28 54.6797 103.226C54.6797 105.173 56.2568 106.752 58.2054 106.754L118.359 106.781C120.304 106.781 121.884 105.205 121.884 103.257ZM76.3085 115.718C72.2698 119.76 72.2698 126.331 76.3085 130.366C80.3407 134.402 86.9209 134.402 90.9552 130.368C95.0253 126.294 94.9878 119.747 90.9552 115.718C87.0337 111.791 80.2406 111.787 76.3085 115.718ZM85.9697 125.379V125.381C84.7303 126.617 82.5335 126.618 81.2941 125.379C80.0031 124.091 80.0066 121.992 81.2941 120.705C82.5952 119.404 84.6536 119.389 85.9697 120.705C86.2779 121.011 86.5224 121.375 86.6893 121.776C86.8562 122.177 86.9421 122.608 86.9421 123.042C86.9421 123.476 86.8562 123.906 86.6893 124.308C86.5224 124.709 86.2779 125.073 85.9697 125.379ZM100.255 90.7695V90.7677C104.29 86.729 104.29 80.158 100.255 76.1175C96.2096 72.0788 89.6364 72.0858 85.6048 76.1193C81.5695 80.158 81.5695 86.729 85.6048 90.7677C89.6303 94.7967 96.207 94.8104 100.255 90.7695ZM90.5903 81.1065C91.8857 79.808 93.941 79.7798 95.2694 81.1048C96.5569 82.394 96.5569 84.4929 95.2694 85.7822C94.03 87.0181 91.8297 87.0181 90.5903 85.7822C89.3028 84.4929 89.3028 82.3945 90.5903 81.1065Z" fill="black"/>
</svg>
