<svg width="408" height="408" viewBox="0 0 408 408" fill="none" xmlns="http://www.w3.org/2000/svg">
<path d="M385.022 266.971L365.593 247.542L369.314 243.821C370.41 242.695 371.018 241.182 371.007 239.611C370.996 238.04 370.367 236.536 369.256 235.425C368.145 234.314 366.642 233.685 365.07 233.675C363.499 233.664 361.987 234.272 360.861 235.367L282.928 313.307L268.249 298.629C262.397 292.777 254.615 289.554 246.338 289.554H246.333C238.054 289.554 230.269 292.781 224.414 298.636C218.561 304.489 215.338 312.272 215.338 320.551C215.338 328.829 218.561 336.612 224.414 342.465L239.088 357.139L214.47 381.757C208.696 387.529 199.304 387.529 193.53 381.757L94.6979 282.924L100.594 277.028L125.83 302.264C126.997 303.432 128.527 304.015 130.056 304.015C131.586 304.015 133.115 303.432 134.283 302.265L166.411 270.137L186.138 289.863C187.304 291.03 188.835 291.614 190.364 291.614C191.893 291.614 193.424 291.03 194.59 289.863L259.059 225.395C260.179 224.274 260.809 222.753 260.809 221.168C260.809 219.583 260.179 218.063 259.059 216.942L210.777 168.66C209.656 167.54 208.136 166.91 206.551 166.91C204.966 166.91 203.445 167.54 202.324 168.66L170.199 200.786L150.477 181.062C149.356 179.941 147.836 179.311 146.251 179.311C144.666 179.311 143.145 179.941 142.024 181.062L103.364 219.722C98.6055 216.865 93.1454 215.338 87.4501 215.338C79.1718 215.338 71.3893 218.561 65.5362 224.414L50.8621 239.088L26.244 214.47C24.8652 213.098 23.7721 211.467 23.0282 209.67C22.2843 207.872 21.9042 205.945 21.91 204C21.91 200.044 23.4498 196.325 26.244 193.531L125.083 94.6994L139.751 109.367C145.601 115.223 153.382 118.447 161.661 118.447H161.666C169.947 118.446 177.732 115.219 183.583 109.363C189.438 103.512 192.663 95.7299 192.663 87.4492C192.663 79.1685 189.439 71.3868 183.585 65.5377L168.912 50.862L193.531 26.2431C199.304 20.4705 208.697 20.4705 214.47 26.2431L313.304 125.076L298.63 139.752C286.546 151.836 286.549 171.5 298.637 183.588C304.49 189.441 312.273 192.664 320.552 192.664C328.83 192.664 336.612 189.441 342.466 183.588L357.14 168.913L381.759 193.531C387.532 199.305 387.532 208.698 381.759 214.47L380.563 215.666C379.727 216.502 379.158 217.567 378.927 218.726C378.697 219.886 378.815 221.088 379.268 222.18C379.72 223.272 380.486 224.205 381.469 224.862C382.452 225.519 383.607 225.87 384.789 225.87C385.575 225.871 386.352 225.717 387.077 225.416C387.803 225.116 388.462 224.675 389.016 224.119L390.211 222.923C400.645 212.489 400.645 195.511 390.211 185.078L365.593 160.459L385.022 141.031C397.972 128.081 401.313 108.613 393.847 92.2718C413.37 70.5818 412.698 37.0462 391.827 16.1748C370.955 -4.69667 337.419 -5.36773 315.73 14.1544C299.388 6.68907 279.921 10.0292 266.971 22.9795L247.542 42.4084L222.924 17.7903C212.49 7.35615 195.512 7.35615 185.078 17.7903L160.46 42.4084L141.576 23.5214C140.451 22.42 138.937 21.8069 137.363 21.8151C135.788 21.8234 134.281 22.4523 133.168 23.5654C132.054 24.6785 131.425 26.1858 131.417 27.76C131.408 29.3343 132.021 30.8484 133.122 31.9734L175.133 73.9921C178.729 77.5849 180.709 82.3636 180.709 87.4492C180.709 92.534 178.729 97.3127 175.13 100.909C173.366 102.684 171.268 104.092 168.957 105.05C166.645 106.009 164.167 106.499 161.665 106.492H161.662C159.162 106.499 156.685 106.01 154.376 105.053C152.066 104.096 149.969 102.689 148.207 100.916L110.067 62.7761C111.892 49.3023 108.759 35.2881 100.68 23.6928C104.344 22.524 108.19 22.034 112.03 22.247C115.326 22.4287 118.144 19.9007 118.324 16.6044C118.504 13.308 115.977 10.4899 112.681 10.3106C105.597 9.92483 98.6231 11.2462 92.2647 14.1489C70.5755 -5.36773 37.044 -4.69507 16.1749 16.1748C-4.69655 37.0462 -5.36841 70.5818 14.1545 92.2718C6.68918 108.613 10.0309 128.082 22.9796 141.031L42.4093 160.461L17.7904 185.078C12.7375 190.13 9.95443 196.851 9.95443 204C9.95443 211.15 12.7375 217.87 17.7904 222.923L42.4085 247.541L22.9796 266.97C10.0301 279.92 6.68918 299.388 14.1538 315.729C-5.36681 337.415 -4.69575 370.952 16.1725 391.828C21.2621 396.917 27.1717 400.9 33.7381 403.669C34.4613 403.974 35.2376 404.134 36.0225 404.139C36.8075 404.144 37.5857 403.994 38.3128 403.698C39.0399 403.403 39.7016 402.966 40.2601 402.415C40.8185 401.863 41.2629 401.207 41.5677 400.484C42.1834 399.023 42.1937 397.377 41.5963 395.909C40.9989 394.441 39.8427 393.27 38.3821 392.654C33.2463 390.489 28.6182 387.366 24.6269 383.376C9.07137 367.814 7.84322 343.281 20.9178 326.293C36.5546 327.675 51.1713 334.483 62.3451 345.657C73.522 356.834 80.3299 371.455 81.7094 387.097C76.0718 391.452 69.4383 394.334 62.408 395.483C61.6319 395.609 60.8883 395.887 60.2197 396.301C59.5511 396.715 58.9707 397.256 58.5118 397.895C58.0529 398.533 57.7245 399.256 57.5453 400.021C57.3661 400.787 57.3398 401.581 57.4677 402.356C57.5957 403.132 57.8754 403.875 58.291 404.542C58.7065 405.21 59.2496 405.789 59.8893 406.246C60.5289 406.703 61.2525 407.03 62.0185 407.207C62.7845 407.384 63.578 407.409 64.3535 407.279C74.8291 405.551 84.4152 400.921 92.2607 393.849C97.9131 396.434 104.056 397.772 110.272 397.771C115.985 397.773 121.643 396.647 126.921 394.46C132.199 392.272 136.994 389.064 141.031 385.021L160.46 365.592L185.078 390.21C190.295 395.427 197.148 398.035 204 398.035C210.854 398.035 217.706 395.427 222.923 390.21L247.541 365.592L266.97 385.021C271.007 389.064 275.802 392.272 281.08 394.46C286.358 396.648 292.016 397.773 297.729 397.771C303.943 397.772 310.084 396.435 315.735 393.851C326.217 403.283 339.464 408.002 352.712 408.002C366.877 408.002 381.043 402.61 391.827 391.826C412.698 370.955 413.37 337.419 393.847 315.729C401.313 299.388 397.971 279.92 385.022 266.971ZM291.377 86.2442L301.477 76.144C304.252 82.9821 308.373 89.1921 313.597 94.4045C318.809 99.6284 325.019 103.75 331.858 106.524L321.757 116.624L291.377 86.2442ZM322.05 85.9517C307.495 71.3963 305.482 48.9875 315.99 32.246C319.233 46.7519 326.519 60.1134 337.204 70.7986C347.888 81.483 361.25 88.769 375.756 92.0127C359.014 102.519 336.606 100.506 322.05 85.9517ZM376.569 132.578L334.012 175.134C326.59 182.556 314.513 182.557 307.09 175.134C303.491 171.536 301.509 166.752 301.508 161.666C301.501 159.165 301.99 156.688 302.947 154.377C303.904 152.066 305.309 149.969 307.083 148.205L345.222 110.066C347.707 110.403 350.209 110.58 352.712 110.58C363.786 110.58 374.851 107.269 384.31 100.679C386.076 106.194 386.288 112.089 384.922 117.716C383.557 123.344 380.666 128.486 376.569 132.578ZM352.712 11.9484C363.816 11.9484 374.92 16.1756 383.374 24.6284C398.932 40.1864 400.161 64.7176 387.084 81.7085C371.447 80.3258 356.831 73.5187 345.657 62.345C334.484 51.1712 327.677 36.5553 326.294 20.9184C334.053 14.9466 343.379 11.9484 352.712 11.9484ZM275.424 31.4323C279.516 27.3347 284.658 24.4444 290.285 23.079C295.912 21.7136 301.807 21.926 307.322 23.6928C299.242 35.2889 296.109 49.3047 297.935 62.7801L282.924 77.7905L255.994 50.8612L275.424 31.4323ZM116.63 86.2458L86.2475 116.627L76.1449 106.523C82.983 103.749 89.193 99.6275 94.4054 94.4037C99.63 89.1906 103.752 82.9794 106.526 76.14L116.63 86.2458ZM92.0113 32.2452C102.519 48.9867 100.506 71.3955 85.951 85.9509C71.3956 100.506 48.9876 102.518 32.2453 92.0112C46.7513 88.7682 60.1127 81.4822 70.7971 70.797C81.4823 60.1126 88.7683 46.7511 92.0113 32.2452ZM24.6277 24.6284C33.0814 16.1756 44.1858 11.9484 55.2894 11.9484C64.6221 11.9484 73.9492 14.9466 81.7078 20.9184C80.3251 36.5553 73.518 51.1712 62.3443 62.345C51.1705 73.5187 36.5546 80.3266 20.9178 81.7085C7.84083 64.7176 9.06978 40.1864 24.6277 24.6284ZM31.4324 132.578C27.3348 128.486 24.4445 123.344 23.079 117.717C21.7134 112.089 21.9256 106.195 23.6921 100.68C33.1499 107.27 44.216 110.581 55.2894 110.581C57.795 110.578 60.2976 110.406 62.7802 110.067L77.7938 125.08L50.8637 152.009L31.4324 132.578ZM116.625 321.757L106.542 331.84C103.795 325.096 99.7078 318.903 94.403 313.6C89.0999 308.295 82.9065 304.206 76.1624 301.46L86.2451 291.377L116.625 321.757ZM206.551 181.34L246.379 221.168L190.364 277.183L174.863 261.683L198.751 237.796C199.871 236.675 200.501 235.155 200.501 233.57C200.501 231.985 199.871 230.465 198.751 229.344L178.65 209.24L206.551 181.34ZM146.251 193.741L186.072 233.569L130.057 289.585L109.047 268.575L109.371 268.251C120.401 257.221 121.355 239.88 112.247 227.746L146.251 193.741ZM31.4324 275.424L73.989 232.867C81.4114 225.446 93.4881 225.445 100.911 232.867C104.51 236.466 106.492 241.249 106.492 246.335C106.5 248.836 106.011 251.314 105.054 253.624C104.097 255.935 102.692 258.033 100.918 259.797L62.8041 297.911C60.3139 297.571 57.8035 297.398 55.2902 297.395C43.8223 297.395 32.8957 300.876 23.6897 307.312C21.9254 301.799 21.7146 295.905 23.0805 290.28C24.4464 284.655 27.3362 279.514 31.4324 275.424ZM32.2302 315.987C39.0747 311.672 47.0015 309.351 55.2902 309.351C66.8727 309.351 77.7604 313.862 85.9494 322.054C94.14 330.241 98.651 341.13 98.651 352.712C98.651 360.999 96.3301 368.926 92.0145 375.771C88.7731 361.259 81.4855 347.893 70.7971 337.205C60.1087 326.515 46.7417 319.229 32.2302 315.987ZM132.578 376.569C128.487 380.665 123.347 383.555 117.722 384.921C112.096 386.287 106.203 386.077 100.69 384.313C107.126 375.106 110.607 364.179 110.607 352.712C110.607 350.176 110.425 347.668 110.091 345.198L125.078 330.21L152.008 357.14L132.578 376.569ZM315.99 375.756C305.482 359.015 307.495 336.606 322.05 322.051C330.504 313.598 341.608 309.371 352.712 309.371C360.863 309.366 368.85 311.661 375.756 315.99C361.25 319.233 347.888 326.519 337.204 337.205C326.519 347.889 319.233 361.25 315.99 375.756ZM376.569 275.424C380.666 279.515 383.556 284.657 384.922 290.285C386.288 295.912 386.075 301.807 384.309 307.322C372.713 299.242 358.697 296.109 345.222 297.935L330.213 282.926L357.141 255.995L376.569 275.424ZM321.76 291.379L331.858 301.477C325.208 304.174 318.982 308.213 313.597 313.597C308.213 318.981 304.174 325.208 301.478 331.858L291.381 321.761L321.76 291.379ZM275.424 376.569L232.867 334.013C225.445 326.59 225.445 314.513 232.867 307.09C240.294 299.664 252.375 299.661 259.797 307.083L297.936 345.222C296.109 358.698 299.243 372.713 307.322 384.31C301.808 386.076 295.913 386.288 290.285 384.923C284.658 383.557 279.516 380.667 275.424 376.569ZM383.373 383.374C367.814 398.932 343.284 400.16 326.293 387.084C327.676 371.447 334.483 356.831 345.657 345.657C356.83 334.484 371.446 327.676 387.083 326.294C400.16 343.284 398.932 367.815 383.373 383.374Z" fill="black"/>
</svg>
