<svg width="222" height="222" viewBox="0 0 222 222" fill="none" xmlns="http://www.w3.org/2000/svg">
<path d="M189.489 32.5109C168.524 11.546 140.649 0 111 0C81.351 0 53.4764 11.546 32.5109 32.5109C11.546 53.4764 0 81.351 0 111C0 140.649 11.546 168.524 32.5109 189.489C53.4764 210.454 81.351 222 111 222C140.649 222 168.524 210.454 189.489 189.489C210.454 168.524 222 140.649 222 111C222 81.351 210.454 53.4764 189.489 32.5109ZM111 211.955C55.3333 211.955 10.0452 166.667 10.0452 111C10.0452 55.3333 55.3333 10.0452 111 10.0452C166.667 10.0452 211.955 55.3333 211.955 111C211.955 166.667 166.667 211.955 111 211.955Z" fill="black"/>
<path d="M111.003 20.0903C60.876 20.0903 20.0938 60.872 20.0938 111C20.0938 161.128 60.8754 201.909 111.003 201.909C131.91 201.909 152.339 194.605 168.529 181.343C170.675 179.585 170.989 176.421 169.232 174.275C167.474 172.13 164.309 171.814 162.163 173.573C147.764 185.368 129.595 191.864 111.003 191.864C66.4149 191.864 30.139 155.588 30.139 111C30.139 66.4115 66.4149 30.1356 111.003 30.1356C155.592 30.1356 191.867 66.4115 191.867 111C191.867 129.592 185.371 147.761 173.576 162.16C171.818 164.305 172.132 167.47 174.278 169.228C176.423 170.986 179.588 170.671 181.346 168.525C194.609 152.337 201.913 131.907 201.913 111C201.913 60.872 161.131 20.0903 111.003 20.0903Z" fill="black"/>
<path d="M128.554 111.912L150.421 90.0455C152.887 87.5794 154.246 84.3001 154.246 80.8114C154.246 77.3237 152.887 74.0439 150.421 71.5773C145.329 66.4859 137.045 66.4864 131.953 71.5773L110.999 92.5317L79.3903 60.9238C76.9237 58.4567 73.6444 57.0986 70.1562 57.0986C66.668 57.0986 63.3887 58.4567 60.9226 60.9233C58.456 63.3895 57.0974 66.6687 57.0974 70.1574C57.0974 73.6462 58.456 76.9254 60.9221 79.3915L93.4431 111.913C93.5756 114.52 94.2911 117.064 95.537 119.359L60.9221 153.973C58.9608 155.935 58.9608 159.115 60.9221 161.077C61.9025 162.057 63.1883 162.548 64.4736 162.548C65.7589 162.548 67.0447 162.057 68.0251 161.077L102.64 126.462C105.206 127.855 108.079 128.583 110.999 128.579C120.386 128.579 128.078 121.183 128.554 111.912ZM139.056 78.6808C139.621 78.1165 140.387 77.7995 141.186 77.7995C141.985 77.7994 142.752 78.1161 143.317 78.6803C143.886 79.2499 144.2 80.0068 144.2 80.8114C144.2 81.6161 143.887 82.373 143.317 82.942L125.367 100.892C124.201 99.2384 122.759 97.797 121.106 96.6302L139.056 78.6808ZM67.1426 70.1574C67.1416 69.7615 67.219 69.3692 67.3706 69.0034C67.5222 68.6376 67.7448 68.3055 68.0256 68.0263C68.3048 67.7457 68.6368 67.5232 69.0025 67.3717C69.3682 67.2202 69.7604 67.1428 70.1562 67.1439C70.5522 67.1428 70.9444 67.2203 71.3102 67.3718C71.676 67.5234 72.0081 67.746 72.2873 68.0268L100.891 96.6307C99.2377 97.7975 97.7963 99.2389 96.6295 100.892L68.0251 72.288C67.7445 72.0089 67.522 71.6768 67.3705 71.3111C67.219 70.9454 67.1416 70.5533 67.1426 70.1574ZM110.999 118.534C109.01 118.535 107.101 117.747 105.693 116.342L105.675 116.322L105.656 116.305C104.252 114.897 103.464 112.989 103.465 111C103.465 106.846 106.844 103.466 110.999 103.466C115.153 103.466 118.533 106.846 118.533 111C118.533 115.154 115.153 118.534 110.999 118.534ZM52.7362 105.977H45.2023C42.4283 105.977 40.1797 108.226 40.1797 111C40.1797 113.773 42.4283 116.023 45.2023 116.023H52.7362C55.5102 116.023 57.7589 113.773 57.7589 111C57.7589 108.226 55.5102 105.977 52.7362 105.977ZM116.021 52.7375V45.2035C116.021 42.43 113.773 40.1809 110.999 40.1809C108.225 40.1809 105.976 42.43 105.976 45.2035V52.7375C105.976 55.511 108.225 57.7601 110.999 57.7601C113.773 57.7601 116.021 55.511 116.021 52.7375ZM181.818 111C181.818 108.226 179.569 105.977 176.795 105.977H169.261C166.487 105.977 164.239 108.226 164.239 111C164.239 113.773 166.487 116.023 169.261 116.023H176.795C179.569 116.023 181.818 113.773 181.818 111ZM105.976 169.262V176.796C105.976 179.57 108.225 181.819 110.999 181.819C113.773 181.819 116.021 179.57 116.021 176.796V169.262C116.021 166.489 113.773 164.24 110.999 164.24C108.225 164.24 105.976 166.489 105.976 169.262Z" fill="black"/>
</svg>
