<svg width="442" height="442" viewBox="0 0 442 442" fill="none" xmlns="http://www.w3.org/2000/svg">
<path d="M332.469 199.905C332.469 198.025 331.722 196.222 330.393 194.892C329.063 193.563 327.26 192.816 325.38 192.816H202.115C200.235 192.816 198.431 193.563 197.102 194.892C195.772 196.222 195.025 198.025 195.025 199.905C195.025 201.785 195.772 203.589 197.102 204.918C198.431 206.248 200.235 206.995 202.115 206.995H325.38C327.26 206.995 329.063 206.248 330.393 204.918C331.722 203.589 332.469 201.785 332.469 199.905ZM202.115 139.433H325.38C327.26 139.433 329.063 138.686 330.393 137.356C331.722 136.027 332.469 134.223 332.469 132.343C332.469 130.463 331.722 128.66 330.393 127.33C329.063 126.001 327.26 125.254 325.38 125.254H202.115C201.184 125.254 200.262 125.437 199.402 125.793C198.542 126.15 197.76 126.672 197.102 127.33C196.443 127.988 195.921 128.77 195.565 129.63C195.209 130.49 195.025 131.412 195.025 132.343C195.025 133.274 195.209 134.196 195.565 135.056C195.921 135.916 196.443 136.698 197.102 137.356C197.76 138.015 198.542 138.537 199.402 138.893C200.262 139.249 201.184 139.433 202.115 139.433ZM201.397 173.204C201.636 173.223 201.876 173.223 202.115 173.204H325.38C326.34 173.253 327.3 173.107 328.202 172.773C329.103 172.439 329.928 171.926 330.625 171.263C331.322 170.601 331.876 169.804 332.256 168.92C332.635 168.037 332.83 167.086 332.83 166.124C332.83 165.163 332.635 164.211 332.256 163.328C331.876 162.444 331.322 161.647 330.625 160.985C329.928 160.323 329.103 159.809 328.202 159.475C327.3 159.142 326.34 158.995 325.38 159.044H202.115C200.243 158.959 198.414 159.619 197.028 160.879C195.641 162.138 194.809 163.896 194.714 165.767C194.619 167.638 195.269 169.471 196.521 170.864C197.773 172.258 199.526 173.099 201.397 173.204ZM41.8371 215.594H165.213C167.028 215.501 168.738 214.715 169.991 213.397C171.243 212.08 171.941 210.331 171.941 208.514C171.941 206.696 171.243 204.948 169.991 203.63C168.738 202.312 167.028 201.526 165.213 201.433H41.8371C40.0218 201.526 38.3113 202.312 37.0592 203.63C35.807 204.948 35.1088 206.696 35.1088 208.514C35.1088 210.331 35.807 212.08 37.0592 213.397C38.3113 214.715 40.0218 215.501 41.8371 215.594ZM128.292 283.156C130.172 283.156 131.976 282.409 133.305 281.079C134.635 279.75 135.382 277.947 135.382 276.066C135.382 274.186 134.635 272.383 133.305 271.053C131.976 269.724 130.172 268.977 128.292 268.977H41.8371C39.9569 268.977 38.1536 269.724 36.8241 271.053C35.4946 272.383 34.7476 274.186 34.7476 276.066C34.7476 277.947 35.4946 279.75 36.8241 281.079C38.1536 282.409 39.9569 283.156 41.8371 283.156H128.292ZM165.213 235.205H41.8371C39.9569 235.205 38.1536 235.952 36.8241 237.282C35.4946 238.611 34.7476 240.414 34.7476 242.295C34.7476 244.175 35.4946 245.978 36.8241 247.308C38.1536 248.637 39.9569 249.384 41.8371 249.384H165.213C167.093 249.384 168.896 248.637 170.226 247.308C171.555 245.978 172.302 244.175 172.302 242.295C172.302 240.414 171.555 238.611 170.226 237.282C168.896 235.952 167.093 235.205 165.213 235.205ZM103.47 26.7559C93.1996 26.7583 83.0305 28.7835 73.5431 32.7159C64.0558 36.6484 55.4358 42.4109 48.1755 49.6747C40.9152 56.9384 35.1566 65.5611 31.2287 75.0503C27.3007 84.5396 25.2803 94.7095 25.2827 104.98C25.2851 115.25 27.3104 125.419 31.2428 134.906C35.1752 144.393 40.9378 153.013 48.2015 160.274C55.4653 167.534 64.0879 173.293 73.5772 177.221C83.0664 181.148 93.2364 183.169 103.506 183.167C124.248 183.162 144.138 174.917 158.801 160.248C173.463 145.578 181.698 125.684 181.693 104.943C181.688 84.2014 173.444 64.3115 158.775 49.6487C144.105 34.9858 124.211 26.751 103.47 26.7559ZM103.47 168.951C86.4985 168.951 70.2226 162.209 58.2222 150.209C46.2218 138.208 39.4801 121.932 39.4801 104.961C39.4801 87.9901 46.2218 71.7141 58.2222 59.7138C70.2226 47.7134 86.4985 40.9717 103.47 40.9717C120.441 40.9717 136.717 47.7134 148.717 59.7138C160.717 71.7141 167.459 87.9901 167.459 104.961C167.459 121.932 160.717 138.208 148.717 150.209C136.717 162.209 120.441 168.951 103.47 168.951Z" fill="black"/>
<path d="M110.559 79.6049C112.411 80.1631 114.058 81.2531 115.295 82.7394C116.533 84.2257 117.306 86.0428 117.52 87.9649C117.528 88.9008 117.721 89.8258 118.087 90.6871C118.453 91.5485 118.985 92.3294 119.652 92.9851C120.32 93.6409 121.111 94.1587 121.978 94.509C122.846 94.8593 123.775 95.0353 124.71 95.0268C125.646 95.0183 126.571 94.8256 127.433 94.4597C128.294 94.0937 129.075 93.5617 129.731 92.894C130.386 92.2263 130.904 91.4359 131.254 90.5681C131.605 89.7002 131.781 88.7719 131.772 87.836C131.404 82.1216 129.113 76.6999 125.271 72.4535C121.43 68.2072 116.264 65.3863 110.614 64.4499V57.2684C110.519 55.3759 109.676 53.5989 108.27 52.328C106.865 51.0572 105.012 50.3968 103.12 50.4919C100.081 50.6577 97.9269 52.8858 97.0614 55.6848L97.0062 55.7768C96.8404 56.3108 96.3801 56.6791 96.3432 57.2684V58.3732L96.3248 58.4469V64.4499C90.6681 65.3986 85.4987 68.2331 81.6573 72.4924C77.8159 76.7518 75.5284 82.1854 75.1669 87.9097C75.5189 93.6197 77.8069 99.0391 81.6534 103.274C85.4998 107.509 90.6749 110.306 96.3248 111.204V130.318C94.4732 129.759 92.8263 128.669 91.5888 127.183C90.3514 125.697 89.5778 123.88 89.3643 121.958C89.3472 120.068 88.58 118.262 87.2314 116.937C85.8829 115.613 84.0635 114.879 82.1735 114.896C80.2835 114.913 78.4777 115.68 77.1533 117.029C75.8289 118.377 75.0945 120.197 75.1116 122.087C75.4918 127.806 77.7944 133.228 81.6454 137.474C85.4964 141.719 90.6696 144.538 96.3248 145.473V148.842C96.3064 149.081 96.3064 149.322 96.3248 149.561L96.3432 149.634V148.953C96.3248 149.524 96.4721 150.039 96.5826 150.573C96.5274 150.26 96.3617 149.966 96.3432 149.634V152.636C96.4362 154.466 97.2286 156.19 98.5566 157.452C99.8845 158.714 101.647 159.418 103.479 159.418C105.311 159.418 107.073 158.714 108.401 157.452C109.729 156.19 110.521 154.466 110.614 152.636V145.473C116.278 144.519 121.453 141.675 125.294 137.405C129.136 133.135 131.42 127.691 131.772 121.958C131.403 116.236 129.092 110.813 125.221 106.584C121.35 102.355 116.152 99.5735 110.485 98.7004V59.1651C110.504 58.3336 110.379 57.5052 110.117 56.716C110.301 57.2868 110.522 57.8208 110.559 58.4285C110.577 58.6675 110.577 58.9076 110.559 59.1466V79.6049ZM96.3248 96.1961C94.5121 95.6226 92.9009 94.5432 91.6808 93.085C90.4608 91.6268 89.6826 89.8504 89.4379 87.9649C89.6515 86.0601 90.4171 84.2591 91.6407 82.7837C92.8643 81.3082 94.4924 80.2225 96.3248 79.6601V96.1961ZM103.12 51.7257L103.451 51.7809C103.028 51.7809 102.623 51.8914 102.217 51.9651C102.53 51.8914 102.788 51.7441 103.12 51.7257ZM103.764 156.282C103.635 156.282 103.525 156.227 103.396 156.227C103.875 156.227 104.317 156.116 104.777 156.024C104.446 156.098 104.132 156.263 103.764 156.282ZM110.485 113.634C114.297 114.739 117.059 118.017 117.52 121.958C117.28 123.878 116.488 125.686 115.239 127.164C113.99 128.642 112.338 129.725 110.485 130.281V113.634Z" fill="black"/>
<path d="M439.327 320.905L356.463 254.264L356.408 254.227V85.2396C356.404 81.6412 354.974 78.191 352.43 75.6457L280.762 3.97748C279.503 2.7163 278.008 1.71582 276.361 1.03331C274.715 0.350799 272.95 -0.000336714 271.168 2.42282e-07H9.557C7.02382 0.00486707 4.59579 1.01332 2.80456 2.80456C1.01332 4.59579 0.00486683 7.02382 0 9.557V432.385C0 437.67 4.27211 441.942 9.557 441.942H238.023C238.041 441.942 238.059 441.942 238.078 441.942H400.271C401.194 441.959 402.112 441.794 402.972 441.456C403.832 441.118 404.617 440.614 405.283 439.973C405.948 439.332 406.48 438.566 406.849 437.719C407.218 436.872 407.417 435.96 407.434 435.037V357.236H407.618C410.49 359.593 414.707 359.262 417.175 356.5L440.303 331.143C441.516 329.691 442.106 327.818 441.942 325.932C441.932 324.948 441.69 323.979 441.236 323.106C440.782 322.232 440.128 321.478 439.327 320.905ZM278.055 21.3605L335.139 78.4447H278.055V21.3605ZM336.299 427.689H301.773V366.444H336.299V427.689ZM393.42 427.8H350.442V359.667C350.415 357.757 349.658 355.929 348.326 354.559C346.994 353.189 345.188 352.381 343.278 352.301H294.794C292.894 352.407 291.102 353.223 289.776 354.587C288.449 355.952 287.683 357.765 287.631 359.667V427.689H244.91V345.691L319.101 286.194L393.494 345.691L393.42 427.8ZM263.858 318.677C264.171 318.677 264.429 318.548 264.723 318.511C264.447 318.548 264.208 318.677 263.913 318.677H263.858ZM411.098 342.1L323.502 271.758C322.236 270.783 320.679 270.264 319.082 270.284C317.501 270.323 315.967 270.836 314.681 271.758L270.966 306.745V311.698C270.958 312.642 270.757 313.574 270.378 314.439C269.998 315.303 269.446 316.081 268.756 316.725C270.091 315.44 270.866 313.68 270.91 311.827V306.763L256.05 318.677H255.958L226.937 342.008L213.348 327.129L225.648 317.204C224.716 316.623 223.955 315.806 223.44 314.836C222.926 313.866 222.678 312.777 222.72 311.68V301.625L198.653 320.905C197.932 321.495 197.334 322.221 196.894 323.042C196.454 323.863 196.18 324.762 196.088 325.689C195.995 326.616 196.086 327.552 196.356 328.444C196.626 329.335 197.068 330.165 197.659 330.886L197.916 331.18L220.971 356.537C221.339 356.721 221.708 356.721 221.892 356.905C222.72 357.642 223.733 358.157 224.82 358.378C225.354 358.525 225.924 358.599 226.477 358.562C227.568 358.451 228.63 358.139 229.607 357.642C229.976 357.457 230.344 357.457 230.712 357.273V434.963C230.718 434.963 230.706 434.963 230.712 434.963L230.694 427.689H14.2526V14.2526H263.803V85.5342C263.803 89.4564 266.97 92.6237 270.892 92.6237H342.155V242.773L323.502 227.784C322.28 226.717 320.713 226.129 319.091 226.129C317.469 226.129 315.903 226.717 314.681 227.784L270.966 262.863V281.038L319.082 242.368L424.706 327.221L411.098 342.1Z" fill="black"/>
<path d="M263.931 240.269H229.957C228.057 240.269 226.235 241.024 224.892 242.367C223.549 243.711 222.794 245.533 222.794 247.432V311.717C222.751 312.814 223 313.903 223.514 314.873C224.028 315.843 224.79 316.66 225.722 317.241L241.521 304.572H236.936V304.553H241.521L256.768 292.253L270.91 281.038V247.432C270.922 246.504 270.752 245.582 270.407 244.719C270.063 243.857 269.553 243.07 268.904 242.405C268.256 241.74 267.484 241.209 266.63 240.843C265.777 240.476 264.86 240.281 263.931 240.269ZM256.768 274.244L236.936 290.227V254.411H256.768V274.244ZM154.698 293.744V293.781L143.815 306.653L135.897 316.007L135.768 316.154C125.294 306.662 111.675 301.388 97.5401 301.349C65.7387 301.349 39.8667 327.203 39.8667 359.023C39.8667 390.843 65.7387 416.696 97.5401 416.696C129.342 416.696 155.214 390.843 155.214 359.023C155.214 347.09 151.568 335.987 145.344 326.779L153.796 316.817L165.507 302.97C166.672 301.529 167.229 299.691 167.059 297.846C166.888 296.001 166.005 294.296 164.595 293.093C163.186 291.89 161.363 291.285 159.514 291.407C157.666 291.529 155.937 292.367 154.698 293.744ZM97.5401 402.333C73.6568 402.333 54.2298 382.888 54.2298 359.004C54.2298 335.121 73.6568 315.676 97.5401 315.676C108.736 315.676 118.845 320.058 126.543 327.056L122.105 332.285L121.847 332.598L96.288 362.742L83.9872 350.442C82.6328 349.234 80.8674 348.589 79.0531 348.641C77.2388 348.693 75.513 349.436 74.2296 350.72C72.9462 352.003 72.2024 353.729 72.1507 355.543C72.0989 357.358 72.7432 359.123 73.9515 360.478L91.7028 378.229C93.0286 379.555 94.8332 380.291 96.7115 380.291H97.0061C97.9865 380.252 98.9478 380.009 99.8292 379.578C100.71 379.146 101.492 378.537 102.125 377.787L135.418 338.454C138.77 344.604 140.832 351.528 140.832 359.004C140.827 370.488 136.266 381.5 128.149 389.624C120.032 397.748 109.024 402.318 97.5401 402.333Z" fill="black"/>
</svg>
