<svg width="378" height="379" viewBox="0 0 378 379" fill="none" xmlns="http://www.w3.org/2000/svg">
<path d="M378 138.159C377.989 136.211 377.508 134.295 376.598 132.573C375.687 130.851 374.375 129.374 372.771 128.268C371.033 127.095 369.042 126.353 366.961 126.101C364.88 125.849 362.768 126.095 360.801 126.819L296.1 151.2V115.038L298.053 116.361C301.171 118.549 304.891 119.716 308.7 119.7C312.73 119.696 316.653 118.405 319.897 116.014C323.141 113.623 325.536 110.258 326.732 106.409C327.928 102.561 327.862 98.4311 326.545 94.6225C325.228 90.814 322.728 87.5262 319.41 85.239L199.71 3.339C196.56 1.16771 192.826 0.00341261 189 0C185.174 0.00341261 181.44 1.16771 178.29 3.339L58.59 85.239C56.5288 86.6369 54.7642 88.4283 53.3976 90.5104C52.031 92.5925 51.0894 94.9241 50.6269 97.3713C50.1644 99.8185 50.1901 102.333 50.7025 104.77C51.215 107.207 52.2041 109.519 53.613 111.573C55.368 114.103 57.7145 116.166 60.4484 117.582C63.1824 118.999 66.221 119.726 69.3 119.7C73.0975 119.702 76.8077 118.561 79.947 116.424L81.9 115.038V152.838L17.325 126.945C15.4143 126.172 13.3432 125.88 11.2933 126.093C9.2433 126.307 7.27707 127.021 5.56695 128.171C3.85683 129.321 2.45503 130.874 1.48446 132.692C0.513887 134.51 0.00417159 136.539 0 138.6L0 308.7C0 312.042 1.3275 315.247 3.69045 317.61C6.05341 319.973 9.25827 321.3 12.6 321.3H17.325C20.7807 321.278 24.1642 320.309 27.1077 318.499C30.0512 316.688 32.442 314.105 34.02 311.031L39.312 300.51L50.4 305.676C49.2576 308.701 48.8668 311.958 49.2609 315.167C49.6551 318.376 50.8226 321.441 52.663 324.1C54.5034 326.758 56.9617 328.93 59.8267 330.428C62.6917 331.927 65.8777 332.708 69.111 332.703C71.5699 332.687 74.0047 332.217 76.293 331.317C77.8942 335.426 80.7005 338.954 84.3433 341.439C87.9862 343.924 92.2954 345.249 96.705 345.24C99.3321 345.24 101.934 344.774 104.391 343.854C105.921 348.127 108.733 351.824 112.443 354.44C116.152 357.056 120.579 358.463 125.118 358.47C127.386 358.458 129.638 358.096 131.796 357.399V357.714C132.653 360.048 133.963 362.19 135.649 364.017C137.336 365.844 139.366 367.32 141.624 368.361C145.634 370.195 150.159 370.569 154.416 369.419C158.673 368.268 162.394 365.665 164.934 362.061L179.865 374.094C182.595 376.156 185.796 377.504 189.179 378.015C192.561 378.526 196.018 378.184 199.235 377.02C202.452 375.856 205.327 373.907 207.6 371.349C209.872 368.792 211.469 365.708 212.247 362.376C215.557 363.34 219.068 363.38 222.4 362.491C225.731 361.603 228.756 359.82 231.147 357.336C234.305 354.222 236.268 350.096 236.691 345.681C237.592 345.744 238.499 345.744 239.4 345.681C244.963 345.694 250.344 343.701 254.556 340.067C258.768 336.434 261.529 331.403 262.332 325.899C264.83 326.743 267.445 327.189 270.081 327.222C273.252 327.23 276.393 326.612 279.325 325.402C282.256 324.193 284.919 322.416 287.161 320.173C289.404 317.931 291.181 315.268 292.39 312.337C293.6 309.405 294.218 306.264 294.21 303.093C294.192 299.932 293.549 296.807 292.32 293.895L332.388 277.2L344.106 298.872C345.733 301.845 348.129 304.326 351.044 306.056C353.959 307.785 357.286 308.698 360.675 308.7H365.4C368.667 308.702 371.807 307.435 374.157 305.167C376.508 302.898 377.886 299.806 378 296.541V138.159ZM72.828 106.029C71.4495 106.973 69.7525 107.331 68.1103 107.023C66.4681 106.716 65.0151 105.769 64.071 104.391C63.603 103.696 63.2783 102.914 63.116 102.092C62.9538 101.27 62.9572 100.424 63.126 99.603C63.4381 97.9944 64.3646 96.5708 65.709 95.634L185.409 13.734C186.451 12.9753 187.712 12.5772 189 12.6C190.285 12.603 191.538 12.9987 192.591 13.734L312.291 95.634C313.652 96.5772 314.586 98.0182 314.893 99.6451C315.199 101.272 314.853 102.954 313.929 104.328C312.985 105.706 311.532 106.653 309.89 106.96C308.248 107.268 306.551 106.91 305.172 105.966L192.591 28.98C191.536 28.2484 190.284 27.8564 189 27.8564C187.716 27.8564 186.464 28.2484 185.409 28.98L72.828 106.029ZM189 41.769L283.5 106.47V157.5C280.366 160.072 278.233 163.663 277.473 167.646C276.713 171.629 277.375 175.752 279.342 179.298L285.642 191.016L268.632 197.316C265.769 198.429 262.677 198.826 259.626 198.475C256.574 198.124 253.654 197.034 251.118 195.3L220.5 172.683V138.6C220.5 135.258 219.173 132.053 216.81 129.69C214.447 127.328 211.242 126 207.9 126H170.1C166.758 126 163.553 127.328 161.19 129.69C158.828 132.053 157.5 135.258 157.5 138.6V179.739C155.118 183.047 153.011 186.545 151.2 190.197C144.391 190.819 137.634 191.914 130.977 193.473C127.275 194.393 123.503 195.004 119.7 195.3C111.349 194.304 103.219 191.941 95.634 188.307L98.658 182.007C100.564 178.298 101.19 174.062 100.438 169.959C99.6862 165.857 97.5983 162.119 94.5 159.327V106.47L189 41.769ZM207.9 164.115C201.948 161.065 195.27 159.715 188.601 160.215C181.932 160.716 175.53 163.046 170.1 166.95V138.6H207.9V164.115ZM17.325 308.7H12.6V138.6L84.294 167.706C85.1195 168.04 85.8646 168.546 86.4803 169.19C87.096 169.833 87.5683 170.6 87.866 171.439C88.1636 172.279 88.2799 173.172 88.2072 174.059C88.1345 174.947 87.8743 175.809 87.444 176.589L22.806 305.361C22.2754 306.358 21.4868 307.193 20.5226 307.781C19.5583 308.368 18.454 308.686 17.325 308.7ZM65.772 319.221C63.9878 318.398 62.6019 316.903 61.9172 315.061C61.2325 313.219 61.3047 311.182 62.118 309.393L69.3 294.273C70.1228 292.489 71.6185 291.103 73.4601 290.418C75.3017 289.733 77.3395 289.806 79.128 290.619C80.9298 291.413 82.3221 292.919 82.971 294.777C83.7237 296.614 83.7237 298.673 82.971 300.51L75.6 315.63C75.1934 316.514 74.6159 317.308 73.9008 317.967C73.1858 318.627 72.3473 319.138 71.4337 319.472C70.5201 319.806 69.5495 319.955 68.5778 319.912C67.6061 319.869 66.6525 319.634 65.772 319.221ZM99.729 331.821C98.5931 332.303 97.3718 332.551 96.138 332.551C94.9042 332.551 93.6829 332.303 92.547 331.821C91.4133 331.316 90.3934 330.587 89.5489 329.677C88.7044 328.768 88.0527 327.697 87.633 326.529C86.6909 324.206 86.6909 321.607 87.633 319.284L98.469 296.1C99.5129 293.826 101.416 292.059 103.761 291.186C106.122 290.356 108.709 290.446 111.006 291.438C113.287 292.509 115.051 294.431 115.92 296.793C116.403 297.94 116.652 299.171 116.652 300.416C116.652 301.66 116.403 302.891 115.92 304.038L105.084 326.97C104.014 329.248 102.09 331.013 99.729 331.884V331.821ZM121.149 344.421C118.874 343.353 117.11 341.433 116.238 339.076C115.365 336.718 115.455 334.113 116.487 331.821L124.425 315C125.486 312.738 127.383 310.976 129.717 310.086C130.769 309.715 131.877 309.523 132.993 309.519C134.367 309.495 135.727 309.797 136.962 310.401C139.249 311.428 141.019 313.337 141.876 315.693C142.758 318.049 142.638 320.67 141.561 322.938L134.253 338.94L133.749 340.011C133.233 341.149 132.497 342.173 131.582 343.025C130.668 343.876 129.594 344.538 128.422 344.971C127.25 345.405 126.004 345.602 124.756 345.55C123.507 345.499 122.281 345.201 121.149 344.673V344.421ZM146.916 356.265C145.4 355.569 144.222 354.3 143.64 352.737C143.319 351.969 143.154 351.144 143.154 350.312C143.154 349.479 143.319 348.654 143.64 347.886L145.593 343.665L151.452 331.065C152.007 329.956 152.877 329.036 153.953 328.42C155.029 327.804 156.263 327.518 157.5 327.6C158.413 327.595 159.315 327.789 160.146 328.167C160.914 328.507 161.605 328.997 162.181 329.608C162.757 330.219 163.204 330.939 163.498 331.725C163.791 332.512 163.924 333.349 163.89 334.187C163.855 335.026 163.653 335.849 163.296 336.609L155.421 353.682C155.064 354.441 154.559 355.121 153.936 355.683C153.313 356.244 152.583 356.675 151.791 356.951C150.999 357.227 150.16 357.342 149.323 357.289C148.485 357.236 147.667 357.016 146.916 356.643V356.265ZM278.208 310.968C276.156 313.04 273.391 314.251 270.477 314.357C267.562 314.462 264.718 313.453 262.521 311.535L231.903 284.697L224.658 278.397C224.023 277.822 223.27 277.393 222.453 277.137C222.139 277.106 221.822 277.106 221.508 277.137C220.233 276.891 218.912 277.045 217.728 277.578C216.997 277.97 216.337 278.481 215.775 279.09C215.226 279.679 214.804 280.374 214.533 281.133C214.262 281.891 214.149 282.696 214.2 283.5C214.173 283.688 214.173 283.879 214.2 284.067C214.407 285.493 215.096 286.805 216.153 287.784L246.204 314.118C248.218 316.049 249.39 318.697 249.466 321.486C249.542 324.275 248.516 326.982 246.61 329.021C244.705 331.059 242.073 332.264 239.284 332.376C236.496 332.487 233.776 331.496 231.714 329.616L231.021 328.923L205.821 303.723C204.635 302.537 203.026 301.87 201.348 301.87C199.67 301.87 198.061 302.537 196.875 303.723C195.689 304.909 195.022 306.518 195.022 308.196C195.022 309.874 195.689 311.483 196.875 312.669L222.075 337.869C222.734 338.52 223.257 339.294 223.615 340.149C223.972 341.003 224.156 341.92 224.156 342.846C224.156 343.772 223.972 344.689 223.615 345.543C223.257 346.398 222.734 347.172 222.075 347.823C220.719 349.099 218.928 349.809 217.067 349.809C215.205 349.809 213.414 349.099 212.058 347.823L206.64 342.342L199.584 335.286C198.998 334.696 198.302 334.227 197.534 333.907C196.766 333.587 195.943 333.422 195.111 333.422C194.279 333.422 193.456 333.587 192.688 333.907C191.92 334.227 191.224 334.696 190.638 335.286C190.048 335.872 189.579 336.568 189.259 337.336C188.939 338.104 188.774 338.927 188.774 339.759C188.774 340.591 188.939 341.414 189.259 342.182C189.579 342.95 190.048 343.646 190.638 344.232L197.694 351.288C199.238 352.769 200.107 354.816 200.088 356.958C200.024 358.393 199.577 359.784 198.795 360.989C198.013 362.193 196.923 363.167 195.638 363.809C194.354 364.451 192.921 364.739 191.488 364.642C190.055 364.545 188.674 364.067 187.488 363.258L170.73 350.28L174.636 341.712C175.694 339.451 176.294 337.003 176.4 334.509C176.507 332.015 176.119 329.525 175.258 327.182C174.397 324.839 173.08 322.69 171.384 320.858C169.687 319.027 167.645 317.55 165.375 316.512C162.022 314.997 158.3 314.493 154.665 315.063C154.447 313.801 154.131 312.559 153.72 311.346C151.925 306.427 148.43 302.313 143.866 299.748C139.301 297.183 133.97 296.336 128.835 297.36C128.44 294.064 127.304 290.901 125.512 288.107C123.719 285.313 121.318 282.961 118.487 281.227C115.657 279.494 112.47 278.423 109.167 278.097C105.864 277.77 102.529 278.196 99.414 279.342C96.3438 280.507 93.5687 282.335 91.287 284.697C89.4142 282.309 86.994 280.408 84.231 279.153C79.4103 276.924 73.9019 276.701 68.9166 278.532C63.9313 280.363 59.877 284.099 57.645 288.918L55.314 294.084L44.982 289.17L89.964 199.584C99.3204 204.055 109.382 206.869 119.7 207.9C124.314 207.62 128.892 206.903 133.371 205.758C136.899 205.002 140.679 204.246 144.648 203.616L134.316 226.8C131.999 232.082 131.807 238.053 133.778 243.473C135.749 248.893 139.732 253.346 144.9 255.906H145.53C149.918 257.983 154.864 258.572 159.616 257.582C164.369 256.593 168.669 254.08 171.864 250.425L196.749 222.705L277.704 294.588C278.885 295.626 279.841 296.895 280.51 298.318C281.18 299.741 281.55 301.286 281.597 302.857C281.645 304.429 281.368 305.994 280.785 307.454C280.202 308.914 279.325 310.239 278.208 311.346V310.968ZM284.508 283.311L193.158 203.175C191.894 202.157 190.285 201.666 188.668 201.804C187.051 201.943 185.549 202.701 184.477 203.919C183.404 205.138 182.844 206.724 182.912 208.346C182.98 209.967 183.671 211.5 184.842 212.625L187.11 214.641L162.288 242.298C160.85 243.941 158.911 245.065 156.771 245.498C154.631 245.93 152.407 245.647 150.444 244.692H150.003C147.871 243.481 146.261 241.525 145.482 239.199C144.703 236.874 144.81 234.343 145.782 232.092L160.398 199.71C163.844 192.061 168.793 185.184 174.951 179.487C179.004 175.73 184.237 173.499 189.754 173.177C195.272 172.855 200.729 174.462 205.191 177.723L243.558 205.695C247.764 208.713 252.648 210.649 257.78 211.33C262.911 212.011 268.132 211.418 272.979 209.601L291.879 202.608L326.34 266.301L284.508 283.311ZM360.801 295.911C359.693 295.939 358.596 295.675 357.623 295.144C356.649 294.613 355.833 293.834 355.257 292.887L290.556 173.187C290.211 172.568 290.005 171.881 289.95 171.174C289.896 170.467 289.995 169.757 290.241 169.092C290.539 168.334 290.998 167.648 291.585 167.083C292.172 166.518 292.874 166.085 293.643 165.816L365.4 138.159V296.1L360.801 295.911Z" fill="black"/>
<path d="M189 113.4C195.683 113.4 202.093 110.745 206.819 106.019C211.545 101.293 214.2 94.8835 214.2 88.2C214.2 81.5165 211.545 75.1068 206.819 70.3809C202.093 65.655 195.683 63 189 63C182.316 63 175.907 65.655 171.181 70.3809C166.455 75.1068 163.8 81.5165 163.8 88.2C163.8 94.8835 166.455 101.293 171.181 106.019C175.907 110.745 182.316 113.4 189 113.4ZM189 75.6C192.342 75.6 195.546 76.9275 197.909 79.2905C200.272 81.6534 201.6 84.8583 201.6 88.2C201.6 91.5417 200.272 94.7466 197.909 97.1095C195.546 99.4725 192.342 100.8 189 100.8C185.658 100.8 182.453 99.4725 180.09 97.1095C177.727 94.7466 176.4 91.5417 176.4 88.2C176.4 84.8583 177.727 81.6534 180.09 79.2905C182.453 76.9275 185.658 75.6 189 75.6Z" fill="black"/>
</svg>
