<svg width="242" height="242" viewBox="0 0 242 242" fill="none" xmlns="http://www.w3.org/2000/svg">
<path d="M58.2998 0.478516C59.4673 0.414266 60.6114 0.831755 61.4609 1.63477C62.3109 2.43831 62.793 3.55715 62.793 4.72656V18.8701C62.793 19.9316 62.3964 20.9554 61.6807 21.7393C60.965 22.523 59.9817 23.0102 58.9248 23.1064C57.7048 23.2174 55.6481 23.3983 53.7412 24.8311C51.8214 26.2736 50.131 28.9213 49.4727 33.7949L49.4004 34.3301H58.541C62.3858 34.3301 65.5144 37.459 65.5146 41.3037V64.1533C65.5151 67.9982 62.3868 71.1278 58.542 71.1279H32.9697C29.1248 71.1279 25.9962 67.9992 25.9961 64.1543V39.5576C25.9961 24.0668 30.4194 14.5296 36.6182 8.75586C42.827 2.97278 50.8901 0.895372 58.2998 0.478516ZM106.621 0.478516C107.788 0.414242 108.934 0.831596 109.783 1.63477C110.633 2.43831 111.114 3.5572 111.114 4.72656V18.8701C111.114 19.9316 110.718 20.9554 110.002 21.7393C109.286 22.523 108.303 23.0102 107.246 23.1064C106.026 23.2174 103.969 23.3982 102.062 24.8311C100.143 26.2736 98.4522 28.9213 97.7939 33.7949L97.7217 34.3301H106.863C110.708 34.3301 113.837 37.459 113.837 41.3037V64.1533C113.837 67.9987 110.708 71.1279 106.863 71.1279H81.291C77.4462 71.1278 74.3174 67.9991 74.3174 64.1543V39.5576C74.3174 24.0668 78.7407 14.5296 84.9395 8.75586C91.1484 2.97257 99.2121 0.896286 106.622 0.479492L106.621 0.478516ZM102.047 9.55762C97.3943 10.4279 92.5666 12.4151 88.9102 16.9824C85.2577 21.545 82.8252 28.6187 82.8252 39.5576V62.6201H105.329V42.8379H93.2461C90.8969 42.8376 88.9922 40.9333 88.9922 38.584C88.9923 30.6676 90.7968 25.3545 93.3379 21.7939C95.8775 18.2355 99.1846 16.384 102.271 15.4443L102.606 15.3418V9.45312L102.047 9.55762ZM53.7256 9.55762C49.073 10.4279 44.2453 12.4151 40.5889 16.9824C36.9363 21.5449 34.5039 28.6186 34.5039 39.5576V62.6191H57.0078V42.8379H44.9248C42.5755 42.8378 40.6709 40.9333 40.6709 38.584C40.671 30.6675 42.4755 25.3545 45.0166 21.7939C47.5563 18.2354 50.8633 16.3839 53.9502 15.4443L54.2852 15.3418V9.45312L53.7256 9.55762ZM131.398 37.2734C132.516 37.2734 133.616 37.7299 134.406 38.5205C135.197 39.311 135.652 40.4101 135.652 41.5273C135.652 42.6448 135.197 43.7445 134.406 44.5352C133.616 45.3258 132.516 45.7812 131.398 45.7812C130.281 45.7812 129.181 45.3258 128.391 44.5352C127.6 43.7445 127.145 42.6448 127.145 41.5273C127.145 40.4101 127.6 39.311 128.391 38.5205C129.181 37.7299 130.281 37.2734 131.398 37.2734Z" fill="black" stroke="white" stroke-width="0.945312"/>
<path d="M152.037 37.2734H157.993C204.054 37.2739 241.527 74.7474 241.527 120.808C241.527 140.097 234.796 158.914 222.574 173.792C211.338 187.471 195.96 197.277 178.955 201.684L178.601 201.774V237.269C178.601 238.11 178.351 238.932 177.884 239.632C177.416 240.331 176.752 240.876 175.975 241.198V241.199C175.197 241.521 174.342 241.605 173.517 241.441C172.795 241.298 172.124 240.97 171.569 240.491L171.339 240.277L135.542 204.479L135.403 204.342H84.0068C37.9462 204.342 0.472776 166.868 0.472656 120.808C0.472656 106.613 4.09858 92.592 10.959 80.2607C12.1007 78.2078 14.6918 77.4687 16.7451 78.6113C18.7979 79.7536 19.536 82.3438 18.3936 84.3965C12.2347 95.4678 8.98047 108.058 8.98047 120.808C8.98059 162.177 42.6371 195.834 84.0068 195.834H137.165C138.293 195.834 139.375 196.282 140.173 197.079L170.093 226.999V198.395C170.093 197.418 170.429 196.472 171.045 195.714C171.661 194.956 172.518 194.432 173.474 194.231C207.979 186.995 233.019 156.117 233.02 120.808C233.02 79.4378 199.363 45.7812 157.993 45.7812H152.037C149.688 45.7811 147.783 43.8767 147.783 41.5273C147.783 39.178 149.688 37.2736 152.037 37.2734Z" fill="black" stroke="white" stroke-width="0.945312"/>
<path d="M90.4902 159.988H90.5664C92.9158 159.988 94.8203 161.893 94.8203 164.242C94.8201 166.59 92.9157 168.496 90.5664 168.496H90.4902C88.1411 168.495 86.2366 166.59 86.2363 164.242C86.2363 161.893 88.141 159.988 90.4902 159.988ZM117.16 159.988H179.169C181.518 159.988 183.423 161.893 183.423 164.242C183.423 166.591 181.518 168.496 179.169 168.496H117.16C114.811 168.496 112.906 166.591 112.906 164.242C112.906 161.893 114.811 159.988 117.16 159.988ZM62.8359 134.779H179.169C181.518 134.779 183.423 136.684 183.423 139.033C183.423 141.382 181.518 143.287 179.169 143.287H62.8359C60.4865 143.287 58.582 141.382 58.582 139.033C58.5822 136.684 60.4866 134.779 62.8359 134.779ZM62.8359 109.571H179.169C181.518 109.571 183.423 111.475 183.423 113.825C183.423 116.174 181.518 118.079 179.169 118.079H62.8359C60.4865 118.079 58.582 116.174 58.582 113.825C58.5821 111.475 60.4866 109.571 62.8359 109.571ZM62.8359 84.3628H179.169C181.518 84.3628 183.423 86.2673 183.423 88.6167C183.423 90.9661 181.518 92.8706 179.169 92.8706H62.8359C60.4865 92.8706 58.582 90.9661 58.582 88.6167C58.582 86.2673 60.4865 84.3628 62.8359 84.3628Z" fill="black" stroke="white" stroke-width="0.945312"/>
</svg>
