<svg width="477" height="427" viewBox="0 0 477 427" fill="none" xmlns="http://www.w3.org/2000/svg">
<path d="M76.8657 386.086C83.576 389.349 92.9894 389.069 98.0228 385.527C99.7936 384.224 116.477 369.217 135.118 352.159L168.952 321.218H234.288C313.511 321.218 317.054 320.936 335.321 312.268C360.393 300.432 377.728 279.462 385.091 251.781C387.048 244.511 387.05 242.459 387.422 165.566C387.609 108.434 387.422 84.4799 386.676 78.4208C384.159 59.5934 376.238 42.4437 363.374 28.1836C353.962 17.6517 335.228 6.46718 320.037 2.1797L312.58 0.129607L196.075 0.0349175C132.056 -0.0582723 78.5643 0.0351115 77.24 0.314577C40.7972 6.18643 13.4877 30.1406 2.48965 65.9308L0.347072 72.8276L0.0674124 155.78C-0.118985 215.242 0.0661203 240.687 0.811702 245.627C5.6583 276.479 27.3748 303.043 57.3864 314.879L65.1222 317.86V344.053C65.1222 358.405 65.4965 371.547 66.0558 373.317C67.6403 378.817 71.5534 383.477 76.8657 386.086ZM86.4665 368.566C86.0007 368.744 85.6275 354.392 85.6275 335.011V301.179L76.2138 299.127C54.1247 294.279 36.5096 280.765 27.0027 261.1C19.5466 245.814 19.9188 250.568 19.9188 159.973V79.3523L22.0636 71.8961C30.0791 43.842 53.6584 23.6161 82.2715 20.2606C85.9066 19.7946 138.008 19.5156 197.938 19.6088C306.891 19.702 306.988 19.7011 314.163 21.7514C335.134 27.7164 350.886 40.672 360.113 59.7784C367.383 74.8773 367.198 71.7103 366.918 163.237L366.639 244.324L364.028 251.781C360.208 262.591 355.639 270.233 348.183 277.969C337.37 289.433 325.255 296.238 310.623 299.314C304.844 300.525 292.446 300.712 232.424 300.712H161.03L124.121 334.452C103.896 353.093 86.9324 368.379 86.4665 368.566Z" fill="black"/>
<path d="M77.6957 117.101C82.6354 118.219 301.107 118.313 306.048 117.101C311.545 115.889 315.832 110.67 315.832 105.265C315.832 100.046 313.874 96.3171 309.96 93.8937L306.792 91.936H76.7642L73.688 93.8937C69.774 96.5033 67.9099 100.138 67.9099 105.45C67.9099 108.899 68.4696 110.298 70.986 113.001C72.8499 115.051 75.3661 116.542 77.6957 117.101Z" fill="black"/>
<path d="M191.88 178.615C318.078 178.615 309.971 178.988 313.978 172.557C316.308 168.829 316.402 162.583 314.258 158.948C313.327 157.457 310.903 155.407 308.853 154.381C305.123 152.517 302.699 152.518 191.788 152.518C80.6047 152.518 78.5446 152.518 74.9102 154.381C72.7669 155.406 70.4365 157.457 69.5041 158.948C67.3604 162.583 67.4538 168.829 69.7837 172.557C73.7911 178.988 65.6846 178.615 191.88 178.615Z" fill="black"/>
<path d="M312.104 229.877C315.367 226.614 315.832 225.683 315.832 221.674C315.832 218.971 315.18 216.175 313.967 214.311C310.147 208.067 318.621 208.44 191.684 208.44C79.3886 208.44 76.6717 208.533 73.7828 210.303C69.9614 212.633 67.9099 216.642 67.9099 221.954C67.9099 225.588 68.3758 226.614 71.6379 229.877L75.3659 233.604H308.377L312.104 229.877Z" fill="black"/>
<path d="M359.189 424.767C366.831 428.309 377.271 426.35 383.33 420.386C388.735 414.981 389.481 411.81 389.481 394.195V378.258L393.021 377.698C394.884 377.419 398.8 376.952 401.596 376.58C408.307 375.834 420.143 372.014 427.228 368.564C450.715 356.728 467.491 336.13 474.948 309.66C476.533 304.442 476.625 297.077 476.625 217.294C476.625 130.992 476.625 130.615 474.576 123.626C468.984 104.332 458.731 88.7662 443.724 76.9294C432.54 67.9818 420.33 62.016 407.468 59.3131C405.046 58.7539 401.971 58.102 400.758 57.8222C398.988 57.4494 398.708 57.6366 399.172 58.8484C399.452 59.6885 399.732 64.2553 399.732 69.1011V77.7682L407.468 80.1904C431.142 87.6468 448.385 105.637 455.375 130.243C456.961 135.835 457.053 141.616 457.053 217.294C457.053 292.973 456.961 298.755 455.375 304.347C448.385 328.765 431.516 346.57 407.655 354.491C401.224 356.541 398.241 357.008 385.1 357.38L369.909 357.752L369.721 381.613C369.534 398.297 369.16 405.472 368.416 405.754C367.757 405.934 355.549 395.311 341.012 382.077L314.824 358.031L281.084 357.472C250.422 357.008 246.785 356.82 241.66 355.05C229.262 350.949 217.052 343.12 209.875 334.732L206.242 330.445L182.381 331.004L187.135 338.182C198.413 354.958 215.283 367.725 234.295 373.692C245.759 377.326 254.15 378.07 281.456 378.07H306.528L330.949 400.534C344.462 412.931 357.139 423.836 359.189 424.767Z" fill="black"/>
</svg>
