<svg width="213" height="189" viewBox="0 0 213 189" fill="none" xmlns="http://www.w3.org/2000/svg">
<path d="M49.042 59.7646C49.6583 59.6349 50.1087 59.4375 50.3926 59.0654C50.6765 58.6931 50.7999 58.139 50.7432 57.2832C50.6295 55.5702 49.7998 52.6758 48.1709 47.6914V47.6904C46.8358 43.4898 46.0859 40.9965 45.7598 39.4395C45.4341 37.8842 45.5287 37.2516 45.8965 36.7832V36.7822L45.8984 36.7812C46.0309 36.6323 46.3711 36.3334 46.8701 35.9238C47.3702 35.5134 48.032 34.9901 48.8096 34.3916C50.3651 33.1944 52.3846 31.6957 54.502 30.1973C56.8789 28.4715 58.7999 26.9736 60.126 25.8184C60.7889 25.2408 61.3027 24.7496 61.6504 24.3584C61.8243 24.1627 61.9559 23.9922 62.0439 23.8496C62.1326 23.7061 62.1748 23.5947 62.1748 23.5146C62.1748 22.914 62.0971 22.455 61.8232 22.1006C61.5492 21.7461 61.0732 21.4902 60.2617 21.3076C58.6377 20.9422 55.6947 20.877 50.417 20.877C46.7367 20.877 44.1458 20.8276 42.4102 20.6973C41.5428 20.6321 40.8876 20.547 40.416 20.4365C40.1802 20.3813 39.9887 20.3189 39.8398 20.25C39.7287 20.1985 39.64 20.1424 39.5732 20.0811L39.5137 20.0176C39.4698 19.9647 39.4076 19.8496 39.3311 19.6846C39.2537 19.5178 39.1596 19.296 39.0508 19.0264C38.8328 18.4865 38.5559 17.7531 38.2383 16.8818C37.6031 15.1391 36.8045 12.8428 35.9902 10.4326V10.4316C35.2087 8.02179 34.4432 5.72587 33.8408 3.97559C33.5396 3.10046 33.2795 2.36173 33.0781 1.81348C32.9774 1.53932 32.8911 1.3126 32.8223 1.14062C32.7539 0.969777 32.7022 0.855104 32.6709 0.799805C32.5124 0.611461 32.2109 0.419245 31.8408 0.274414C31.4695 0.129123 31.0339 0.0322735 30.6152 0.0322266C30.0344 0.0322266 29.6033 0.161153 29.2529 0.479492C28.901 0.799428 28.6263 1.31455 28.3662 2.09473C28.1708 2.6811 27.6816 4.13073 27.0547 5.99512L24.9141 12.3867L22.1777 20.5283L22.1709 20.5498L22.1475 20.5508L11.0742 20.877L0.0322266 21.2021V23.124C0.0322412 23.5443 0.0850593 23.9097 0.265625 24.2969C0.446507 24.6848 0.756815 25.0969 1.27637 25.6084C2.05639 26.3762 3.30383 27.3643 5.28027 28.8271L7.50977 30.458C11.6125 33.3886 15.3916 36.255 15.915 36.7129L15.918 36.7158C16.2882 37.1198 16.3817 37.7057 16.0723 39.1387C15.7624 40.5737 15.0453 42.8716 13.7754 46.7139C12.0816 51.7626 11.1706 54.8211 10.9268 56.6982C10.8049 57.6367 10.8502 58.2752 11.0439 58.7178C11.2126 59.1029 11.4954 59.344 11.8867 59.5059L12.0605 59.5703C12.4176 59.6839 12.6961 59.7551 13.0674 59.6895C13.4408 59.6234 13.9113 59.4181 14.6475 58.9707C16.1196 58.076 18.6421 56.221 23.5605 52.6055C25.2221 51.4 26.8679 50.292 28.1797 49.4854C28.8355 49.0821 29.4084 48.7539 29.8584 48.5264C30.0833 48.4126 30.2781 48.3232 30.4375 48.2627C30.5956 48.2027 30.7228 48.1699 30.8105 48.1699C30.8523 48.17 30.907 48.1815 30.9717 48.2021C31.0369 48.223 31.1153 48.2532 31.2051 48.293C31.3851 48.3728 31.6142 48.4903 31.8857 48.6406C32.429 48.9413 33.1438 49.3758 33.9785 49.9092C35.2308 50.7094 36.7537 51.7335 38.3711 52.8691L40.0137 54.0381C42.2604 55.6662 44.3934 57.1148 46.0293 58.1484C46.8471 58.6651 47.5404 59.0781 48.0615 59.3574C48.3222 59.4971 48.5394 59.6039 48.707 59.6729C48.7907 59.7073 48.8616 59.7317 48.9189 59.7471C48.975 59.762 49.0157 59.7672 49.042 59.7646Z" fill="black" stroke="white" stroke-width="0.0651382"/>
<path d="M73.168 188.185C74.0069 188.249 74.9293 188.023 76.001 187.504V187.503H76.0029C76.0585 187.481 76.1347 187.428 76.2314 187.342C76.3276 187.256 76.4424 187.14 76.5752 186.992C76.8407 186.698 77.1772 186.281 77.583 185.746C78.3947 184.676 79.4818 183.134 80.8252 181.147C83.176 177.671 86.3121 172.836 90.1357 166.794L91.8164 164.131L106.017 141.397L106.026 141.383H106.044L143.237 141.187C161.444 141.089 170.758 141.024 176.042 140.812C180.663 140.627 182.199 140.33 183.904 139.802L184.655 139.561C196.827 135.395 206.395 126.022 211.277 113.459L212.969 109.101V78.8174C212.969 63.77 212.968 56.1983 212.781 51.8594C212.688 49.6904 212.547 48.3306 212.337 47.249C212.127 46.1677 211.846 45.3632 211.472 44.3047C206.915 31.8076 197.022 22.0442 184.395 17.8135L179.123 15.9912L127.475 15.7959L75.832 15.6016L73.8232 17.6104C73.0095 18.4567 72.5418 19.0387 72.3164 19.626C72.0917 20.2118 72.1071 20.8073 72.2695 21.6846C72.3226 21.9542 72.358 22.2058 72.3916 22.4395C72.4253 22.6735 72.4572 22.8897 72.5029 23.0898C72.5942 23.489 72.7402 23.8235 73.0654 24.1074C73.392 24.3925 73.9026 24.629 74.7266 24.8262C75.5501 25.0232 76.6843 25.1805 78.2568 25.3066C84.5492 25.8113 97.8359 25.827 126.237 26.0225C151.966 26.1853 164.865 26.2671 171.811 26.4951C175.283 26.6091 177.269 26.7595 178.628 26.9756C179.988 27.1919 180.719 27.4748 181.681 27.8496C191.525 31.5658 198.373 38.6068 201.633 48.1914C202.285 50.1164 202.627 51.4067 202.782 55.5049C202.937 59.6014 202.904 66.5069 202.807 79.6641C202.709 93.2123 202.66 100.102 202.448 104.068C202.342 106.051 202.196 107.305 201.981 108.296C201.767 109.287 201.485 110.014 201.11 110.942C197.589 119.549 189.701 126.983 181.027 129.656C178.972 130.276 177.487 130.602 172.062 130.773C166.639 130.944 157.275 130.96 139.46 130.96C125.358 130.96 115.962 131.009 109.945 131.14C106.937 131.205 104.773 131.29 103.289 131.399C102.547 131.454 101.975 131.516 101.553 131.583C101.129 131.651 100.86 131.724 100.719 131.803L100.718 131.804L100.624 131.865C100.588 131.893 100.547 131.929 100.501 131.973C100.41 132.059 100.302 132.175 100.177 132.319C99.9264 132.607 99.6097 133.007 99.2324 133.512C98.4777 134.521 97.481 135.946 96.2842 137.721C94.1898 140.827 91.4847 145.005 88.3975 149.906L87.0518 152.05L84.5898 155.954C82.1914 159.742 80.0078 163.142 78.2734 165.786C77.1172 167.549 76.16 168.976 75.4717 169.959C75.1276 170.45 74.851 170.831 74.6494 171.087C74.5488 171.215 74.466 171.311 74.4033 171.376C74.3722 171.408 74.345 171.434 74.3223 171.45C74.3111 171.458 74.2998 171.465 74.2891 171.47C74.2803 171.473 74.2688 171.475 74.2568 171.475V171.477C74.2552 171.477 74.2535 171.476 74.252 171.476H74.25V171.475C74.239 171.473 74.2285 171.469 74.2207 171.465C74.2109 171.459 74.2008 171.451 74.1904 171.441C74.1693 171.422 74.1439 171.395 74.1152 171.359C74.0577 171.289 73.9836 171.184 73.8926 171.048C73.7104 170.776 73.4617 170.376 73.1543 169.862C72.5393 168.834 71.6881 167.348 70.6621 165.516C68.6101 161.851 65.8574 156.803 62.8936 151.267V151.266L52.2158 131.02L48.5801 129.59C37.6708 125.226 29.9179 116.503 27.75 106.092L27.6504 105.595C27.4871 104.615 27.3243 101.99 27.2021 98.5469C27.08 95.1023 26.999 90.8352 26.999 86.5684C26.999 78.9138 26.9986 75.0397 26.8115 72.8594C26.718 71.77 26.5778 71.1065 26.3691 70.6064C26.1607 70.1071 25.883 69.7684 25.5088 69.3291C24.4394 68.13 23.1289 67.5322 21.8203 67.5322C20.5118 67.5323 19.2012 68.1301 18.1318 69.3291C17.7576 69.7684 17.4799 70.103 17.2715 70.6113C17.0628 71.1206 16.9226 71.8066 16.8291 72.9492C16.642 75.2355 16.6416 79.3373 16.6416 87.4805C16.6416 97.0236 16.7885 102.721 17.4395 107.066C18.0495 111.138 19.1032 114.023 20.8955 117.774L21.2637 118.537C25.0386 126.087 31.7428 132.856 39.3574 136.631L44.8291 139.366L44.8379 139.371L44.8428 139.381L57.1543 162.7C60.5413 169.083 63.7815 175.027 66.2646 179.456C67.5063 181.671 68.5592 183.506 69.3457 184.829C69.739 185.49 70.0657 186.023 70.3164 186.411C70.4417 186.605 70.5479 186.763 70.6338 186.882C70.7198 187.001 70.7833 187.08 70.8252 187.118L70.8262 187.117C71.5711 187.765 72.3297 188.12 73.168 188.185Z" fill="black" stroke="white" stroke-width="0.0651382"/>
<path d="M66.0938 78.0513C69.049 78.0838 72.8265 78.0676 76.7344 78.0024C83.5092 77.9047 87.0411 77.8399 89.0586 77.6284C90.0671 77.5227 90.6945 77.3798 91.1582 77.1802C91.5053 77.0308 91.7621 76.8492 92.0195 76.6235L92.2803 76.3833C93.25 75.4134 93.7363 74.0217 93.7363 72.6284C93.7363 71.2354 93.2498 69.8444 92.2803 68.8745C91.9228 68.5333 91.6251 68.2758 91.1514 68.0776C90.6766 67.8791 90.0228 67.7389 88.9531 67.6372C87.3484 67.4847 84.8141 67.4194 80.5557 67.3687L75.6924 67.3198C69.8624 67.2547 65.9708 67.255 63.3418 67.3608C60.7114 67.4667 59.3501 67.6785 58.5752 68.0337H58.5742C57.4704 68.5207 56.761 69.0541 56.3262 69.8188C55.8908 70.5848 55.7276 71.5877 55.7275 73.019C55.7275 75.3442 57.6016 77.2881 60.3916 77.8071V77.8081C60.6978 77.8726 61.3834 77.9246 62.3643 77.9653C63.3439 78.006 64.6161 78.035 66.0938 78.0513Z" fill="black" stroke="white" stroke-width="0.0651382"/>
<path d="M138.223 78.0029C147.505 78.0681 156.184 78.0681 162.689 78.0273C165.942 78.007 168.652 77.9761 170.621 77.9385C171.606 77.9197 172.405 77.899 172.995 77.877C173.585 77.8549 173.963 77.8316 174.107 77.8076C176.961 77.2887 178.77 75.3458 178.771 72.8896C178.771 71.4927 178.527 70.4416 177.994 69.6348C177.462 68.8284 176.639 68.2617 175.471 67.8398C175.412 67.8189 175.29 67.7968 175.108 67.7754C174.928 67.7541 174.689 67.7332 174.397 67.7129C173.813 67.6723 173.014 67.634 172.03 67.5977C170.064 67.525 167.361 67.4607 164.163 67.4062C157.768 67.2974 149.394 67.2267 140.975 67.1982C132.556 67.1697 124.091 67.184 117.517 67.2461C114.229 67.2771 111.414 67.3204 109.313 67.376C108.263 67.4038 107.391 67.4346 106.729 67.4688C106.065 67.5029 105.613 67.5399 105.399 67.5801C104.466 67.7733 103.446 68.565 102.658 69.5557C101.871 70.5462 101.321 71.7278 101.321 72.6943C101.321 73.0778 101.498 73.6591 101.782 74.2686C102.066 74.877 102.456 75.5094 102.877 75.9951L104.431 77.8086L138.223 78.0029Z" fill="black" stroke="white" stroke-width="0.0651382"/>
<path d="M60.6504 107.364C63.1984 107.397 66.5041 107.381 69.9561 107.315C76.1127 107.218 79.2533 107.169 81.0098 106.949C81.8874 106.839 82.4155 106.687 82.8008 106.468C83.1856 106.248 83.4309 105.96 83.7402 105.569V105.568C84.5487 104.566 84.9543 103.19 84.9463 101.853C84.9382 100.515 84.5167 99.2209 83.6777 98.3818C83.3701 98.0742 83.0844 97.841 82.625 97.6631C82.1643 97.4847 81.5263 97.3608 80.5137 97.2754C78.4879 97.1046 74.9719 97.0889 68.3926 97.0889C61.8131 97.0889 58.2971 97.1046 56.2715 97.2754C55.2592 97.3608 54.6218 97.4847 54.1611 97.6631C53.7018 97.841 53.416 98.0742 53.1084 98.3818C51.7507 99.7395 51.4747 101.68 52.0254 103.405C52.5761 105.13 53.9527 106.636 55.8945 107.121H55.8965C55.9989 107.153 56.187 107.183 56.4541 107.209C56.7206 107.235 57.0633 107.258 57.4727 107.278C58.2914 107.319 59.3763 107.348 60.6504 107.364Z" fill="black" stroke="white" stroke-width="0.0651382"/>
<path d="M113.793 107.315C119.036 107.381 123.97 107.381 127.699 107.34C129.564 107.319 131.127 107.289 132.276 107.251C132.851 107.232 133.323 107.211 133.677 107.189C134.031 107.167 134.265 107.145 134.368 107.121C136.277 106.636 137.621 105.114 138.155 103.381C138.69 101.647 138.414 99.7068 137.089 98.3818C136.782 98.0749 136.497 97.8421 135.933 97.6641C135.366 97.4853 134.516 97.3618 133.08 97.2764C130.207 97.1055 124.997 97.0889 115.03 97.0889H94.2021L92.9092 98.7695L92.9082 98.7705C91.9998 99.9062 91.5808 100.99 91.6211 102.062C91.6615 103.136 92.1619 104.204 93.1035 105.308L94.6572 107.121L113.793 107.315Z" fill="black" stroke="white" stroke-width="0.0651382"/>
<path d="M166.038 107.446C168.855 107.454 171.664 107.406 173.91 107.298C175.033 107.244 176.016 107.174 176.788 107.091C177.465 107.018 177.979 106.934 178.284 106.839L178.402 106.797C180.795 105.892 182.156 102.914 181.314 100.39C181.12 99.839 180.812 99.2549 180.472 98.7686C180.131 98.2812 179.76 97.8964 179.441 97.7373L179.44 97.7363C179.356 97.6904 179.187 97.6441 178.938 97.5996C178.689 97.5553 178.364 97.5133 177.973 97.4736C177.189 97.3943 176.136 97.3255 174.887 97.2686C172.388 97.1546 169.099 97.0889 165.582 97.0889C159.425 97.0889 156.269 97.0893 154.479 97.2764C153.585 97.3698 153.036 97.5097 152.626 97.7178C152.217 97.9255 151.943 98.2021 151.602 98.5762V98.5771L151.369 98.8418C149.148 101.528 150.03 105.288 153.157 106.607L153.478 106.731C153.791 106.844 154.38 106.945 155.178 107.032C155.975 107.119 156.978 107.193 158.117 107.253C160.396 107.373 163.221 107.438 166.038 107.446Z" fill="black" stroke="white" stroke-width="0.0651382"/>
</svg>
