<svg width="504" height="512" viewBox="0 0 504 512" fill="none" xmlns="http://www.w3.org/2000/svg">
<path fill-rule="evenodd" clip-rule="evenodd" d="M80.0256 86.9478V35.328C80.0256 25.5898 83.9885 16.7629 90.3885 10.3629C96.7885 3.96288 105.615 0 115.354 0H424.397C426.394 0 428.206 0.8192 429.507 2.14016L501.658 74.2912C502.324 74.956 502.853 75.746 503.213 76.6159C503.574 77.4859 503.758 78.4184 503.757 79.36V328.479C503.757 338.217 499.794 347.044 493.394 353.444C486.994 359.844 478.167 363.807 468.429 363.807H435.722V364.155C435.722 374.794 431.381 384.461 424.387 391.455C417.393 398.449 407.736 402.79 397.087 402.79H396.114L410.225 503.859H410.204C410.511 506.071 409.774 508.396 408.013 510.044C407.329 510.684 406.526 511.183 405.65 511.513C404.773 511.842 403.841 511.996 402.905 511.964C401.969 511.933 401.048 511.717 400.196 511.33C399.343 510.942 398.576 510.391 397.937 509.706L297.892 402.78H38.6253V402.749C27.9654 402.749 18.3091 398.418 11.3357 391.445C4.34176 384.451 0 374.794 0 364.145V125.583C0 114.944 4.34176 105.288 11.3357 98.2835C18.3296 91.2896 27.9859 86.9478 38.6355 86.9478H80.0256ZM348.16 142.776C348.16 138.813 344.955 135.608 340.992 135.608H303.258C299.295 135.608 296.09 138.813 296.09 142.776V169.697C296.09 173.66 299.295 176.865 303.258 176.865H340.992C344.955 176.865 348.16 173.66 348.16 169.697V142.776ZM333.824 162.54V149.955H310.426V162.54H333.824ZM348.16 192.307C348.16 188.344 344.955 185.139 340.992 185.139H260.413C256.451 185.139 253.245 188.344 253.245 192.307V216.873C253.245 220.836 256.451 224.041 260.413 224.041H296.09V317.02H260.413C256.451 317.02 253.245 320.225 253.245 324.188V348.365C253.245 352.328 256.451 355.533 260.413 355.533H383.447C387.41 355.533 390.615 352.328 390.615 348.365V324.188C390.615 320.225 387.41 317.02 383.447 317.02H348.16V192.307ZM333.824 324.188V199.475H267.581V209.705H303.258C307.22 209.705 310.426 212.91 310.426 216.873V324.188C310.426 328.151 307.22 331.356 303.258 331.356H267.581V341.197H376.279V331.356H340.992C337.029 331.356 333.824 328.141 333.824 324.188ZM198.697 260.833H129.341C125.379 260.833 122.173 264.038 122.173 268.001C122.173 271.964 125.379 275.169 129.341 275.169H198.697C202.66 275.169 205.865 271.964 205.865 268.001C205.865 264.038 202.66 260.833 198.697 260.833ZM98.5395 260.833H66.519C62.5562 260.833 59.351 264.038 59.351 268.001C59.351 271.964 62.5562 275.169 66.519 275.169H98.5395C102.502 275.169 105.708 271.964 105.708 268.001C105.708 264.038 102.492 260.833 98.5395 260.833ZM198.697 338.954H66.519C62.5562 338.954 59.351 342.159 59.351 346.122C59.351 350.085 62.5562 353.29 66.519 353.29H198.697C202.66 353.29 205.865 350.085 205.865 346.122C205.865 342.159 202.66 338.954 198.697 338.954ZM198.697 299.889H179.261C175.299 299.889 172.093 303.094 172.093 307.057C172.093 311.02 175.299 314.225 179.261 314.225H198.697C202.66 314.225 205.865 311.02 205.865 307.057C205.865 303.104 202.66 299.889 198.697 299.889ZM142.991 299.889H66.519C62.5562 299.889 59.351 303.094 59.351 307.057C59.351 311.02 62.5562 314.225 66.519 314.225H142.991C146.954 314.225 150.159 311.02 150.159 307.057C150.159 303.104 146.954 299.889 142.991 299.889ZM198.697 143.657H129.341C125.379 143.657 122.173 146.862 122.173 150.825C122.173 154.788 125.379 157.993 129.341 157.993H198.697C202.66 157.993 205.865 154.788 205.865 150.825C205.865 146.872 202.66 143.657 198.697 143.657ZM98.5395 143.657H66.519C62.5562 143.657 59.351 146.862 59.351 150.825C59.351 154.788 62.5562 157.993 66.519 157.993H98.5395C102.502 157.993 105.708 154.788 105.708 150.825C105.708 146.872 102.492 143.657 98.5395 143.657ZM198.697 221.778H66.519C62.5562 221.778 59.351 224.983 59.351 228.946C59.351 232.909 62.5562 236.114 66.519 236.114H198.697C202.66 236.114 205.865 232.909 205.865 228.946C205.865 224.983 202.66 221.778 198.697 221.778ZM198.697 182.723H179.261C175.299 182.723 172.093 185.928 172.093 189.891C172.093 193.853 175.299 197.059 179.261 197.059H198.697C202.66 197.059 205.865 193.853 205.865 189.891C205.865 185.928 202.66 182.723 198.697 182.723ZM142.991 182.723H66.519C62.5562 182.723 59.351 185.928 59.351 189.891C59.351 193.853 62.5562 197.059 66.519 197.059H142.991C146.954 197.059 150.159 193.853 150.159 189.891C150.159 185.928 146.954 182.723 142.991 182.723ZM435.722 349.471H468.429C474.204 349.471 479.447 347.116 483.256 343.306C487.066 339.497 489.421 334.254 489.421 328.479V86.528H452.557C442.819 86.528 433.992 82.5651 427.592 76.1651C421.192 69.7651 417.229 60.9382 417.229 51.2V14.336H115.354C109.578 14.336 104.325 16.6912 100.526 20.5005C96.7168 24.3098 94.3616 29.5526 94.3616 35.328V86.9581H397.097C407.736 86.9581 417.393 91.2999 424.397 98.2938C431.391 105.288 435.732 114.944 435.732 125.594V349.471H435.722ZM38.6253 388.444H300.954C303.278 388.444 305.347 389.55 306.657 391.27L392.95 483.492L380.815 396.595C380.555 394.716 381.052 392.81 382.197 391.297C383.341 389.784 385.039 388.788 386.918 388.526C387.246 388.485 387.574 388.454 387.901 388.454V388.434H397.097C403.784 388.434 409.856 385.7 414.259 381.307C418.662 376.904 421.386 370.831 421.386 364.145V125.583C421.386 118.897 418.652 112.824 414.259 108.421C409.856 104.018 403.784 101.284 397.097 101.284H38.6253C31.9386 101.284 25.8662 104.018 21.463 108.411C17.0598 112.814 14.336 118.886 14.336 125.573V364.145C14.336 370.831 17.0701 376.904 21.463 381.307C25.8867 385.731 31.959 388.465 38.6253 388.465V388.444ZM391.752 61.952V47.616H195.645V61.952H391.752ZM168.847 61.952V47.616H128.502V61.952H168.847ZM452.557 72.192H474.348L431.565 30.6278V51.2C431.565 56.9754 433.92 62.2285 437.729 66.0275C441.528 69.8266 446.781 72.192 452.557 72.192Z" fill="black"/>
</svg>
