<svg width="212" height="190" viewBox="0 0 212 190" fill="none" xmlns="http://www.w3.org/2000/svg">
<path d="M34.7139 171.466C37.6898 172.913 41.8645 172.789 44.0967 171.218C44.882 170.64 52.281 163.985 60.5479 156.42L75.5527 142.698H104.528C139.662 142.698 141.233 142.573 149.334 138.729C160.453 133.48 168.141 124.18 171.406 111.904C172.274 108.68 172.275 107.77 172.44 73.6694C172.523 48.3322 172.44 37.7091 172.109 35.022C170.993 26.6724 167.48 19.0668 161.775 12.7427C157.601 8.07202 149.293 3.11187 142.556 1.21045L139.249 0.30127L87.5811 0.259277C59.1898 0.217949 35.4672 0.259363 34.8799 0.383301C18.7182 2.98736 6.60694 13.6106 1.72949 29.4829L0.779297 32.5415L0.655273 69.3296C0.572609 95.6999 0.6547 106.984 0.985352 109.175C3.13473 122.857 12.7656 134.638 26.0752 139.887L29.5059 141.209V152.825C29.5059 159.19 29.6719 165.018 29.9199 165.803C30.6226 168.242 32.358 170.309 34.7139 171.466ZM38.9717 163.696C38.7651 163.775 38.5996 157.41 38.5996 148.815V133.811L34.4248 132.901C24.6287 130.751 16.8167 124.758 12.6006 116.037C9.29394 109.258 9.45898 111.366 9.45898 71.189V35.4351L10.4102 32.1284C13.9649 19.6869 24.4219 10.7171 37.1113 9.229C38.7234 9.02234 61.8294 8.89861 88.4072 8.93994C136.726 8.98128 136.769 8.98086 139.951 9.89014C149.251 12.5355 156.237 18.2811 160.329 26.7544C163.553 33.4505 163.471 32.046 163.347 72.6362L163.223 108.597L162.065 111.904C160.371 116.698 158.345 120.087 155.038 123.518C150.243 128.602 144.87 131.62 138.381 132.984C135.818 133.521 130.32 133.604 103.701 133.604H72.0391L55.6709 148.567C46.7014 156.834 39.1783 163.613 38.9717 163.696Z" fill="black"/>
<path d="M34.7139 171.466C37.6898 172.913 41.8645 172.789 44.0967 171.218C44.882 170.64 52.281 163.985 60.5479 156.42L75.5527 142.698H104.528C139.662 142.698 141.233 142.573 149.334 138.729C160.453 133.48 168.141 124.18 171.406 111.904C172.274 108.68 172.275 107.77 172.44 73.6694C172.523 48.3322 172.44 37.7091 172.109 35.022C170.993 26.6724 167.48 19.0668 161.775 12.7427C157.601 8.07202 149.293 3.11187 142.556 1.21045L139.249 0.30127L87.5811 0.259277C59.1898 0.217949 35.4672 0.259363 34.8799 0.383301C18.7182 2.98736 6.60694 13.6106 1.72949 29.4829L0.779297 32.5415L0.655273 69.3296C0.572609 95.6999 0.6547 106.984 0.985352 109.175C3.13473 122.857 12.7656 134.638 26.0752 139.887L29.5059 141.209V152.825C29.5059 159.19 29.6719 165.018 29.9199 165.803C30.6226 168.242 32.358 170.309 34.7139 171.466ZM38.9717 163.696C38.7651 163.775 38.5996 157.41 38.5996 148.815V133.811L34.4248 132.901C24.6287 130.751 16.8167 124.758 12.6006 116.037C9.29394 109.258 9.45898 111.366 9.45898 71.189V35.4351L10.4102 32.1284C13.9649 19.6869 24.4219 10.7171 37.1113 9.229C38.7234 9.02234 61.8294 8.89861 88.4072 8.93994C136.726 8.98128 136.769 8.98086 139.951 9.89014C149.251 12.5355 156.237 18.2811 160.329 26.7544C163.553 33.4505 163.471 32.046 163.347 72.6362L163.223 108.597L162.065 111.904C160.371 116.698 158.345 120.087 155.038 123.518C150.243 128.602 144.87 131.62 138.381 132.984C135.818 133.521 130.32 133.604 103.701 133.604H72.0391L55.6709 148.567C46.7014 156.834 39.1783 163.613 38.9717 163.696Z" stroke="white"/>
<path d="M35.082 52.1758C37.2727 52.6718 134.161 52.7131 136.352 52.1758C138.79 51.6384 140.691 49.3239 140.691 46.9268C140.691 44.612 139.823 42.9585 138.087 41.8838L136.682 41.0156H34.6689L33.3047 41.8838C31.5689 43.0411 30.7422 44.653 30.7422 47.0088C30.7422 48.5382 30.9904 49.1587 32.1064 50.3574C32.933 51.2666 34.0489 51.9278 35.082 52.1758Z" fill="black"/>
<path d="M35.082 52.1758C37.2727 52.6718 134.161 52.7131 136.352 52.1758C138.79 51.6384 140.691 49.3239 140.691 46.9268C140.691 44.612 139.823 42.9585 138.087 41.8838L136.682 41.0156H34.6689L33.3047 41.8838C31.5689 43.0411 30.7422 44.653 30.7422 47.0088C30.7422 48.5382 30.9904 49.1587 32.1064 50.3574C32.933 51.2666 34.0489 51.9278 35.082 52.1758Z" stroke="white"/>
<path d="M85.7207 79.4561C141.687 79.4561 138.092 79.6216 139.869 76.7695C140.902 75.1161 140.944 72.3464 139.993 70.7344C139.58 70.0731 138.505 69.1637 137.596 68.709C135.942 67.8823 134.867 67.8828 85.6797 67.8828C36.3721 67.8828 35.4585 67.8825 33.8467 68.709C32.8962 69.1636 31.8627 70.0731 31.4492 70.7344C30.4985 72.3464 30.5399 75.1162 31.5732 76.7695C33.3504 79.6214 29.7553 79.4561 85.7207 79.4561Z" fill="black"/>
<path d="M85.7207 79.4561C141.687 79.4561 138.092 79.6216 139.869 76.7695C140.902 75.1161 140.944 72.3464 139.993 70.7344C139.58 70.0731 138.505 69.1637 137.596 68.709C135.942 67.8823 134.867 67.8828 85.6797 67.8828C36.3721 67.8828 35.4585 67.8825 33.8467 68.709C32.8962 69.1636 31.8627 70.0731 31.4492 70.7344C30.4985 72.3464 30.5399 75.1162 31.5732 76.7695C33.3504 79.6214 29.7553 79.4561 85.7207 79.4561Z" stroke="white"/>
<path d="M139.038 102.19C140.485 100.743 140.691 100.33 140.691 98.5522C140.691 97.3536 140.402 96.1133 139.864 95.2866C138.17 92.5178 141.928 92.6831 85.6338 92.6831C35.8328 92.6831 34.6279 92.7242 33.3467 93.5093C31.652 94.5426 30.7422 96.3203 30.7422 98.6763C30.7422 100.288 30.9488 100.743 32.3955 102.19L34.0488 103.843H137.385L139.038 102.19Z" fill="black"/>
<path d="M139.038 102.19C140.485 100.743 140.691 100.33 140.691 98.5522C140.691 97.3536 140.402 96.1133 139.864 95.2866C138.17 92.5178 141.928 92.6831 85.6338 92.6831C35.8328 92.6831 34.6279 92.7242 33.3467 93.5093C31.652 94.5426 30.7422 96.3203 30.7422 98.6763C30.7422 100.288 30.9488 100.743 32.3955 102.19L34.0488 103.843H137.385L139.038 102.19Z" stroke="white"/>
<path d="M159.919 188.62C163.308 190.191 167.938 189.322 170.625 186.677C173.022 184.28 173.353 182.874 173.353 175.062V167.994L174.923 167.746C175.749 167.622 177.486 167.415 178.726 167.25C181.702 166.919 186.951 165.225 190.093 163.695C200.509 158.446 207.949 149.311 211.256 137.572C211.959 135.258 212 131.992 212 96.6094C212 58.336 212 58.169 211.091 55.0693C208.611 46.5131 204.064 39.6098 197.409 34.3604C192.449 30.3923 187.034 27.7466 181.33 26.5479C180.256 26.2999 178.892 26.0108 178.354 25.8867C177.569 25.7214 177.445 25.8044 177.651 26.3418C177.775 26.7144 177.899 28.7397 177.899 30.8887V34.7324L181.33 35.8066C191.829 39.1134 199.476 47.0917 202.576 58.0039C203.279 60.4838 203.32 63.0479 203.32 96.6094C203.32 130.172 203.279 132.736 202.576 135.216C199.476 146.045 191.995 153.941 181.413 157.454C178.561 158.363 177.238 158.57 171.41 158.735L164.673 158.9L164.59 169.482C164.507 176.881 164.341 180.063 164.011 180.188C163.719 180.268 158.305 175.557 151.858 169.688L140.244 159.024L125.281 158.776C111.683 158.57 110.07 158.487 107.797 157.702C102.299 155.883 96.8839 152.411 93.7012 148.691L92.0898 146.79L81.5078 147.038L83.6162 150.221C88.6177 157.661 96.0992 163.323 104.531 165.969C109.615 167.581 113.336 167.911 125.446 167.911H136.565L147.395 177.873C153.388 183.371 159.01 188.207 159.919 188.62Z" fill="black"/>
<path d="M159.919 188.62C163.308 190.191 167.938 189.322 170.625 186.677C173.022 184.28 173.353 182.874 173.353 175.062V167.994L174.923 167.746C175.749 167.622 177.486 167.415 178.726 167.25C181.702 166.919 186.951 165.225 190.093 163.695C200.509 158.446 207.949 149.311 211.256 137.572C211.959 135.258 212 131.992 212 96.6094C212 58.336 212 58.169 211.091 55.0693C208.611 46.5131 204.064 39.6098 197.409 34.3604C192.449 30.3923 187.034 27.7466 181.33 26.5479C180.256 26.2999 178.892 26.0108 178.354 25.8867C177.569 25.7214 177.445 25.8044 177.651 26.3418C177.775 26.7144 177.899 28.7397 177.899 30.8887V34.7324L181.33 35.8066C191.829 39.1134 199.476 47.0917 202.576 58.0039C203.279 60.4838 203.32 63.0479 203.32 96.6094C203.32 130.172 203.279 132.736 202.576 135.216C199.476 146.045 191.995 153.941 181.413 157.454C178.561 158.363 177.238 158.57 171.41 158.735L164.673 158.9L164.59 169.482C164.507 176.881 164.341 180.063 164.011 180.188C163.719 180.268 158.305 175.557 151.858 169.688L140.244 159.024L125.281 158.776C111.683 158.57 110.07 158.487 107.797 157.702C102.299 155.883 96.8839 152.411 93.7012 148.691L92.0898 146.79L81.5078 147.038L83.6162 150.221C88.6177 157.661 96.0992 163.323 104.531 165.969C109.615 167.581 113.336 167.911 125.446 167.911H136.565L147.395 177.873C153.388 183.371 159.01 188.207 159.919 188.62Z" stroke="white"/>
</svg>
