<svg width="200" height="200" viewBox="0 0 200 200" fill="none" xmlns="http://www.w3.org/2000/svg">
<path d="M144.806 0H55.1916C24.759 0 0 24.7601 0 55.1928V144.807C0 175.241 24.759 200 55.1916 200H144.806C175.241 200 200 175.24 200 144.807V55.1928C200.001 24.7601 175.241 0 144.806 0ZM182.256 144.807C182.256 165.456 165.456 182.255 144.807 182.255H55.1916C34.5435 182.256 17.745 165.456 17.745 144.807V55.1928C17.745 34.5447 34.5435 17.745 55.1916 17.745H144.806C165.455 17.745 182.255 34.5447 182.255 55.1928L182.256 144.807Z" fill="black"/>
<path d="M100 48.4674C71.5832 48.4674 48.4651 71.5856 48.4651 100.002C48.4651 128.418 71.5832 151.535 100 151.535C128.417 151.535 151.535 128.418 151.535 100.002C151.535 71.5856 128.417 48.4674 100 48.4674ZM100 133.789C81.369 133.789 66.21 118.632 66.21 100.001C66.21 81.369 81.3678 66.2112 100 66.2112C118.632 66.2112 133.79 81.369 133.79 100.001C133.79 118.632 118.631 133.789 100 133.789Z" fill="black"/>
<path d="M153.696 33.4209C150.277 33.4209 146.919 34.805 144.504 37.2301C142.078 39.6434 140.683 43.0032 140.683 46.4339C140.683 49.8539 142.079 53.2124 144.504 55.6376C146.918 58.0509 150.277 59.4468 153.696 59.4468C157.127 59.4468 160.475 58.0509 162.9 55.6376C165.325 53.2124 166.709 49.8527 166.709 46.4339C166.709 43.0032 165.325 39.6434 162.9 37.2301C160.487 34.805 157.127 33.4209 153.696 33.4209Z" fill="black"/>
</svg>
