<svg width="410" height="512" viewBox="0 0 410 512" fill="none" xmlns="http://www.w3.org/2000/svg">
<path d="M176.621 55.635C174.532 51.32 173.451 46.587 173.458 41.793C173.458 24.234 187.692 10 205.251 10C222.81 10 237.044 24.234 237.044 41.793C237.044 46.744 235.912 51.431 233.894 55.608" stroke="black" stroke-width="19" stroke-miterlimit="10" stroke-linecap="round" stroke-linejoin="round"/>
<path d="M253.951 165.795C265.976 153.508 273.389 136.689 273.389 118.138C273.389 80.506 242.882 49.999 205.25 49.999C167.618 49.999 137.111 80.506 137.111 118.138C137.111 136.709 144.54 153.544 156.588 165.835M337.584 285.112L280.184 318.794M205.124 443.07H283.788C300.061 443.07 313.253 456.262 313.253 472.535C313.253 488.808 300.061 502 283.788 502H205.124M205.124 443.07V502M205.124 443.07L59.153 418.351C33.447 413.998 10 433.808 10 459.88C10 483.142 28.858 502 52.12 502H77.232M205.124 502H167.232" stroke="black" stroke-width="19" stroke-miterlimit="10" stroke-linecap="round" stroke-linejoin="round"/>
<path d="M351.095 418.351L205.124 443.07V502H358.128C381.39 502 400.248 483.142 400.248 459.88C400.248 433.808 376.801 413.998 351.095 418.351Z" stroke="black" stroke-width="19" stroke-miterlimit="10" stroke-linecap="round" stroke-linejoin="round"/>
<path d="M92.8372 424.055L93.3342 423.923C105.574 420.665 116.675 414.086 125.408 404.912C134.142 395.739 140.168 384.328 142.82 371.943H267.429C270.081 384.328 276.107 395.739 284.841 404.912C293.574 414.086 304.675 420.665 316.915 423.923L317.412 424.055M235.399 193.27L258.73 198.912C273.772 202.55 287.822 209.475 299.868 219.19C311.915 228.905 321.659 241.169 328.401 255.099L357.245 314.696C366.195 333.189 362.116 355.35 347.168 369.444C340.569 375.666 332.312 379.849 323.392 381.489C314.471 383.129 305.267 382.157 296.886 378.689L232.16 351.906C224.196 348.611 217.388 343.027 212.598 335.862C207.808 328.696 205.251 320.271 205.251 311.652V270.533C205.251 265.499 209.325 261.424 214.463 261.424H214.863C230.912 261.424 243.922 274.435 243.92 290.484L243.919 304.026L310.417 333.565M287.016 311.345L280.184 284.878M72.9162 285.112L130.317 318.794M175.336 193.213L151.771 198.912C136.729 202.55 122.68 209.475 110.633 219.19C98.5864 228.905 88.842 241.169 82.1002 255.099L53.2562 314.696C44.3062 333.189 48.3852 355.35 63.3332 369.444C69.9325 375.666 78.1891 379.849 87.1095 381.489C96.03 383.129 105.234 382.157 113.615 378.689L178.341 351.906C186.305 348.611 193.113 343.027 197.903 335.862C202.693 328.696 205.25 320.271 205.25 311.652V270.533C205.25 265.499 201.176 261.424 196.038 261.424H195.638C179.589 261.424 166.579 274.435 166.581 290.484L166.582 304.026L100.084 333.565M123.484 311.345L130.317 284.878" stroke="black" stroke-width="19" stroke-miterlimit="10" stroke-linecap="round" stroke-linejoin="round"/>
<path d="M155.138 152.489V118.069C176.516 118.069 196.281 111.177 212.345 99.501C229.157 104.967 243.953 114.888 255.364 127.86V152.488C255.364 180.164 232.928 202.601 205.251 202.601C177.574 202.602 155.138 180.165 155.138 152.489Z" stroke="black" stroke-width="19" stroke-miterlimit="10" stroke-linecap="round" stroke-linejoin="round"/>
</svg>
