<svg width="328" height="487" viewBox="0 0 328 487" fill="none" xmlns="http://www.w3.org/2000/svg">
<path d="M167.02 188.92L252.17 72.42C252.862 71.4762 253.192 70.316 253.103 69.1493C253.013 67.9827 252.508 66.8868 251.68 66.06L225.86 40.2401C224.94 39.3193 223.692 38.8014 222.39 38.8H105.52C104.22 38.8 102.97 39.3201 102.05 40.2401L76.2 66.09C75.3771 66.9102 74.8729 67.9965 74.7776 69.1544C74.6823 70.3123 75.0022 71.4664 75.68 72.4101L159.07 188.88C161.01 191.59 165.04 191.61 167.02 188.92ZM156.79 167.74C155.886 167.95 154.935 167.794 154.146 167.304C153.357 166.815 152.794 166.033 152.58 165.13L130.94 72.53H89.72C87.79 72.53 86.22 70.96 86.22 69.03C86.22 67.1 87.79 65.53 89.72 65.53H125.27L111.14 51.39C109.77 50.02 109.77 47.81 111.14 46.44C112.51 45.07 114.72 45.07 116.09 46.44L133.73 64.0801L151.37 46.44C152.74 45.07 154.95 45.07 156.32 46.44C157.69 47.81 157.69 50.02 156.32 51.39L142.18 65.53H185.74L171.6 51.39C170.23 50.02 170.23 47.81 171.6 46.44C172.97 45.07 175.18 45.07 176.55 46.44L194.19 64.0801L211.83 46.44C213.2 45.07 215.41 45.07 216.78 46.44C218.15 47.81 218.15 50.02 216.78 51.39L202.64 65.53H237.5C239.43 65.53 241 67.1 241 69.03C241 70.96 239.43 72.53 237.5 72.53H196.93L173.89 165.18C173.666 166.081 173.094 166.857 172.299 167.337C171.504 167.817 170.552 167.962 169.65 167.74C169.204 167.629 168.784 167.432 168.415 167.159C168.045 166.886 167.733 166.543 167.496 166.149C167.259 165.755 167.102 165.318 167.034 164.864C166.966 164.409 166.989 163.946 167.1 163.5L189.71 72.5401H138.14L159.4 163.55C159.84 165.41 158.67 167.3 156.79 167.74Z" fill="black"/>
<path d="M308.7 0H19.18C8.6 0 0 8.61 0 19.18V375.65C0 378.39 0.590006 381.03 1.67001 383.46C1.69001 383.52 1.72 383.57 1.75 383.63C2.69 385.68 3.98 387.57 5.62 389.22L59.98 443.58C61.63 445.23 63.54 446.53 65.61 447.47C65.65 447.49 65.69 447.51 65.72 447.52C68.1786 448.626 70.8439 449.199 73.54 449.2H153.2C155.13 449.2 156.7 447.63 156.7 445.7C156.7 443.77 155.13 442.2 153.2 442.2H73.54C72.51 442.2 71.51 442.06 70.54 441.82V393.15C70.54 385.16 64.04 378.65 56.04 378.65H7.38C7.14 377.68 7 376.68 7 375.65V19.18C7 12.46 12.46 7 19.18 7H308.71C315.43 7 320.89 12.47 320.89 19.18V430.01C320.89 436.73 315.43 442.19 308.71 442.19H307.7L294.31 422.81C294.049 422.432 293.715 422.109 293.329 421.859C292.943 421.61 292.512 421.439 292.059 421.356C291.607 421.274 291.143 421.281 290.694 421.378C290.244 421.474 289.818 421.659 289.44 421.92C289.062 422.181 288.739 422.515 288.489 422.901C288.24 423.287 288.069 423.718 287.986 424.171C287.904 424.623 287.911 425.087 288.008 425.536C288.104 425.986 288.289 426.412 288.55 426.79L309.08 456.49L292.17 457.59C288.44 457.83 285.16 460.1 283.61 463.51L276.6 478.94L247.41 436.69L252.81 438.37C256.232 439.432 259.918 439.262 263.227 437.89C266.537 436.519 269.262 434.031 270.93 430.86L275.7 421.78C276.49 420.28 277.7 419.07 279.2 418.28L288.28 413.51C294.82 410.07 297.98 402.45 295.78 395.4L292.74 385.6C292.24 383.98 292.24 382.28 292.74 380.66L295.78 370.86C297.97 363.8 294.82 356.19 288.28 352.75L279.2 347.98C277.7 347.19 276.49 345.98 275.7 344.49L270.93 335.41C267.49 328.87 259.87 325.71 252.82 327.91L243.02 330.95C241.4 331.45 239.7 331.45 238.08 330.95L228.28 327.91C221.23 325.72 213.61 328.87 210.17 335.41L205.4 344.49C204.61 345.99 203.4 347.2 201.9 347.99L192.82 352.76C186.28 356.2 183.12 363.82 185.32 370.87L188.36 380.67C188.86 382.29 188.86 383.99 188.36 385.61L185.32 395.41C183.13 402.47 186.28 410.08 192.82 413.52L193.08 413.66L165.2 454.01C164.6 454.878 164.241 455.89 164.16 456.943C164.079 457.995 164.279 459.05 164.74 460C165.2 460.951 165.905 461.764 166.781 462.354C167.658 462.944 168.675 463.291 169.73 463.36L188.45 464.58C189.6 464.66 190.62 465.36 191.09 466.41L198.86 483.49C199.299 484.449 199.983 485.275 200.843 485.884C201.704 486.493 202.71 486.864 203.76 486.96C203.94 486.98 204.11 486.98 204.29 486.98C206.24 486.98 208.08 486.02 209.2 484.4L240.54 439.05L271.88 484.4C272.43 485.194 273.163 485.843 274.018 486.293C274.873 486.742 275.824 486.978 276.79 486.98C276.96 486.98 277.14 486.97 277.32 486.96C278.373 486.866 279.382 486.494 280.245 485.883C281.107 485.272 281.792 484.442 282.23 483.48L289.99 466.4C290.225 465.884 290.596 465.442 291.063 465.119C291.529 464.797 292.074 464.607 292.64 464.57L311.36 463.35C312.414 463.279 313.43 462.93 314.306 462.34C315.183 461.75 315.887 460.94 316.35 459.99C317.28 458.06 317.11 455.76 315.89 454L312.32 448.83C321.19 447.15 327.92 439.35 327.92 430V19.18C327.89 8.61 319.28 0 308.7 0ZM56.05 385.65C60.18 385.65 63.55 389.01 63.55 393.15V437.25L11.95 385.65H56.05ZM204.45 478.95L197.44 463.52C195.89 460.12 192.61 457.85 188.88 457.61L171.97 456.51L199.3 416.96L201.87 418.31C203.37 419.1 204.58 420.31 205.37 421.8L210.14 430.88C213.58 437.42 221.2 440.58 228.25 438.38L233.65 436.7L204.45 478.95ZM240.52 427.96C238.99 427.96 237.46 428.19 235.97 428.65L226.17 431.69C224.312 432.268 222.309 432.177 220.511 431.431C218.714 430.686 217.234 429.334 216.33 427.61L211.56 418.53C210.122 415.782 207.878 413.538 205.13 412.1L196.05 407.33C194.329 406.424 192.978 404.944 192.233 403.147C191.488 401.35 191.395 399.349 191.97 397.49L195.01 387.69C195.93 384.72 195.93 381.57 195.01 378.6L191.97 368.8C191.393 366.942 191.485 364.94 192.23 363.142C192.975 361.344 194.327 359.865 196.05 358.96L205.12 354.19C207.88 352.74 210.1 350.52 211.55 347.76L216.32 338.68C218.19 335.13 222.32 333.41 226.16 334.6L235.96 337.64C238.93 338.57 242.08 338.56 245.05 337.64L254.85 334.6C256.708 334.022 258.711 334.113 260.509 334.859C262.306 335.604 263.786 336.956 264.69 338.68L269.46 347.76C270.91 350.52 273.13 352.74 275.89 354.19L284.97 358.96C286.691 359.866 288.042 361.346 288.787 363.143C289.532 364.94 289.625 366.941 289.05 368.8L286.01 378.6C285.09 381.57 285.09 384.72 286.01 387.69L289.05 397.49C289.627 399.348 289.535 401.35 288.79 403.148C288.045 404.946 286.693 406.425 284.97 407.33L275.9 412.1C273.152 413.538 270.908 415.782 269.47 418.53L264.7 427.61C263.794 429.331 262.314 430.682 260.517 431.427C258.72 432.172 256.719 432.265 254.86 431.69L245.06 428.65C243.58 428.19 242.05 427.96 240.52 427.96Z" fill="black"/>
<path d="M276.41 383.15C276.41 363.36 260.31 347.26 240.52 347.26C220.73 347.26 204.63 363.36 204.63 383.15C204.63 402.94 220.73 419.04 240.52 419.04C260.31 419.04 276.41 402.94 276.41 383.15ZM245.88 411.53C253.75 406.02 259.08 395.38 259.08 383.15C259.08 370.92 253.75 360.28 245.88 354.77C259.25 357.29 269.4 369.06 269.4 383.15C269.41 397.25 259.26 409.01 245.88 411.53ZM49.4399 214.83C49.4399 216.76 51.0099 218.33 52.9399 218.33H274.94C276.87 218.33 278.44 216.76 278.44 214.83C278.44 212.9 276.87 211.33 274.94 211.33H52.9399C51.0099 211.33 49.4399 212.9 49.4399 214.83ZM52.9399 257.36H274.94C276.87 257.36 278.44 255.79 278.44 253.86C278.44 251.93 276.87 250.36 274.94 250.36H52.9399C51.0099 250.36 49.4399 251.93 49.4399 253.86C49.4399 255.79 51.0099 257.36 52.9399 257.36ZM52.9399 298.02H253.45C255.38 298.02 256.95 296.45 256.95 294.52C256.95 292.59 255.38 291.02 253.45 291.02H52.9399C51.0099 291.02 49.4399 292.59 49.4399 294.52C49.4399 296.45 51.0099 298.02 52.9399 298.02Z" fill="black"/>
</svg>
