<svg width="466" height="466" viewBox="0 0 466 466" fill="none" xmlns="http://www.w3.org/2000/svg">
<path d="M109.219 407.75H7.28124C5.35014 407.75 3.49812 408.517 2.13263 409.882C0.767129 411.248 0 413.1 0 415.031L0 444.156C0 449.949 2.30139 455.505 6.39788 459.602C10.4944 463.698 16.0504 466 21.8437 466H94.6562C100.449 466 106.006 463.698 110.102 459.602C114.199 455.505 116.5 449.949 116.5 444.156V415.031C116.5 413.1 115.733 411.248 114.367 409.882C113.002 408.517 111.15 407.75 109.219 407.75ZM101.937 444.156C101.937 446.087 101.17 447.939 99.8048 449.304C98.4393 450.67 96.5873 451.437 94.6562 451.437H21.8437C19.9126 451.437 18.0606 450.67 16.6951 449.304C15.3296 447.939 14.5625 446.087 14.5625 444.156V422.312H101.937V444.156ZM94.6562 291.25H21.8437C16.0504 291.25 10.4944 293.551 6.39788 297.648C2.30139 301.744 0 307.3 0 313.093L0 385.906C0 387.837 0.767129 389.689 2.13263 391.055C3.49812 392.42 5.35014 393.187 7.28124 393.187C9.21235 393.187 11.0644 392.42 12.4299 391.055C13.7954 389.689 14.5625 387.837 14.5625 385.906V313.093C14.5625 311.162 15.3296 309.31 16.6951 307.945C18.0606 306.579 19.9126 305.812 21.8437 305.812H94.6562C96.5873 305.812 98.4393 306.579 99.8048 307.945C101.17 309.31 101.937 311.162 101.937 313.093V385.906C101.937 387.837 102.705 389.689 104.07 391.055C105.436 392.42 107.288 393.187 109.219 393.187C111.15 393.187 113.002 392.42 114.367 391.055C115.733 389.689 116.5 387.837 116.5 385.906V313.093C116.5 307.3 114.199 301.744 110.102 297.648C106.006 293.551 100.449 291.25 94.6562 291.25Z" fill="black"/>
<path d="M29.125 385.906C29.125 387.837 29.8921 389.689 31.2576 391.055C32.6231 392.42 34.4751 393.187 36.4062 393.187C38.3373 393.187 40.1894 392.42 41.5549 391.055C42.9204 389.689 43.6875 387.837 43.6875 385.906C43.6875 382.044 45.2217 378.34 47.9527 375.609C50.6837 372.878 54.3878 371.343 58.25 371.343C62.1122 371.343 65.8162 372.878 68.5472 375.609C71.2782 378.34 72.8125 382.044 72.8125 385.906C72.8125 387.837 73.5796 389.689 74.9451 391.055C76.3106 392.42 78.1626 393.187 80.0937 393.187C82.0248 393.187 83.8768 392.42 85.2423 391.055C86.6078 389.689 87.3749 387.837 87.3749 385.906C87.3635 381.377 86.2912 376.914 84.2441 372.874C82.197 368.834 79.2319 365.33 75.5866 362.642C78.4927 358.876 80.0768 354.257 80.0937 349.5C80.0937 343.706 77.7923 338.15 73.6958 334.054C69.5993 329.957 64.0433 327.656 58.25 327.656C52.4567 327.656 46.9006 329.957 42.8041 334.054C38.7076 338.15 36.4062 343.706 36.4062 349.5C36.4311 354.244 38.0148 358.849 40.9133 362.606C37.2631 365.297 34.295 368.807 32.2477 372.854C30.2003 376.9 29.1308 381.371 29.125 385.906ZM50.9687 349.5C50.9687 348.06 51.3958 346.652 52.1958 345.454C52.9959 344.257 54.1331 343.324 55.4636 342.773C56.794 342.222 58.258 342.077 59.6705 342.358C61.0829 342.639 62.3803 343.333 63.3986 344.351C64.4169 345.369 65.1104 346.667 65.3913 348.079C65.6723 349.492 65.5281 350.956 64.977 352.286C64.4259 353.617 63.4926 354.754 62.2952 355.554C61.0978 356.354 59.6901 356.781 58.25 356.781C56.3189 356.781 54.4669 356.014 53.1014 354.648C51.7359 353.283 50.9687 351.431 50.9687 349.5ZM166.012 356.22C162.125 382.863 150.62 407.815 132.883 428.072C131.792 429.544 131.296 431.373 131.494 433.195C131.692 435.017 132.57 436.697 133.952 437.9C135.334 439.103 137.119 439.74 138.951 439.685C140.783 439.63 142.526 438.887 143.834 437.603C163.419 415.227 176.116 387.665 180.393 358.237C180.554 357.28 180.523 356.3 180.3 355.355C180.077 354.409 179.668 353.519 179.095 352.734C178.523 351.95 177.8 351.288 176.968 350.787C176.136 350.286 175.212 349.957 174.251 349.819C173.29 349.68 172.311 349.735 171.371 349.981C170.432 350.227 169.551 350.658 168.781 351.249C168.01 351.84 167.366 352.579 166.886 353.423C166.405 354.267 166.098 355.198 165.983 356.162L166.012 356.22ZM364.062 368.285C364.136 364.071 362.954 359.931 360.667 356.391C358.379 352.851 355.09 350.072 351.218 348.407C348.308 347.215 345.863 345.113 344.247 342.415C342.631 339.717 341.932 336.569 342.254 333.441C342.576 330.313 343.902 327.373 346.034 325.061C348.165 322.749 350.988 321.189 354.08 320.615C356.185 320.218 358.352 320.29 360.426 320.826C362.5 321.362 364.43 322.349 366.079 323.717C367.728 325.085 369.054 326.8 369.964 328.739C370.874 330.679 371.345 332.795 371.343 334.937C371.343 336.868 372.111 338.72 373.476 340.086C374.842 341.451 376.694 342.218 378.625 342.218C380.556 342.218 382.408 341.451 383.773 340.086C385.139 338.72 385.906 336.868 385.906 334.937C385.901 329.663 384.465 324.489 381.75 319.968C379.035 315.446 375.143 311.747 370.489 309.265C365.836 306.782 360.596 305.61 355.329 305.873C350.061 306.136 344.964 307.824 340.581 310.758C336.198 313.691 332.694 317.76 330.443 322.529C328.191 327.299 327.277 332.59 327.798 337.838C328.319 343.087 330.256 348.095 333.401 352.329C336.546 356.563 340.781 359.863 345.655 361.878C346.848 362.458 347.846 363.373 348.529 364.511C349.212 365.648 349.549 366.96 349.5 368.285V369.094C342.422 379.513 320.375 413.291 320.375 429.593C320.375 439.249 324.21 448.509 331.038 455.336C337.865 462.164 347.125 466 356.781 466C366.436 466 375.697 462.164 382.524 455.336C389.351 448.509 393.187 439.249 393.187 429.593C393.187 413.291 371.14 379.513 364.062 369.094V368.285ZM356.781 451.437C350.988 451.437 345.432 449.136 341.335 445.039C337.239 440.943 334.937 435.387 334.937 429.593C334.937 421.642 346.303 400.891 356.781 384.515C367.259 400.891 378.625 421.65 378.625 429.593C378.625 435.387 376.323 440.943 372.227 445.039C368.13 449.136 362.574 451.437 356.781 451.437ZM306.417 451.437H135.795C133.864 451.437 132.012 452.204 130.647 453.57C129.281 454.935 128.514 456.787 128.514 458.718C128.514 460.649 129.281 462.501 130.647 463.867C132.012 465.232 133.864 466 135.795 466H306.417C308.348 466 310.2 465.232 311.565 463.867C312.931 462.501 313.698 460.649 313.698 458.718C313.698 456.787 312.931 454.935 311.565 453.57C310.2 452.204 308.348 451.437 306.417 451.437ZM291.643 348.815C290.695 348.943 289.781 349.257 288.954 349.739C288.127 350.22 287.403 350.86 286.824 351.621C286.244 352.383 285.82 353.251 285.576 354.176C285.333 355.101 285.274 356.066 285.403 357.014C287.61 373.304 292.405 389.136 299.609 403.912C300.453 405.65 301.954 406.982 303.78 407.613C305.607 408.245 307.609 408.125 309.347 407.28C311.085 406.435 312.416 404.934 313.048 403.108C313.68 401.282 313.56 399.279 312.715 397.541C306.192 384.154 301.849 369.812 299.849 355.055C299.721 354.106 299.407 353.192 298.925 352.364C298.443 351.537 297.803 350.813 297.04 350.233C296.278 349.653 295.409 349.23 294.483 348.986C293.557 348.743 292.592 348.685 291.643 348.815ZM436.875 369.094V368.285C436.948 364.071 435.766 359.931 433.479 356.391C431.192 352.851 427.903 350.072 424.03 348.407C421.121 347.215 418.675 345.113 417.059 342.415C415.443 339.717 414.744 336.569 415.066 333.441C415.388 330.313 416.714 327.373 418.846 325.061C420.978 322.749 423.8 321.189 426.892 320.615C428.997 320.218 431.164 320.29 433.238 320.826C435.312 321.362 437.243 322.349 438.891 323.717C440.54 325.085 441.867 326.8 442.777 328.739C443.687 330.679 444.158 332.795 444.156 334.937C444.156 336.868 444.923 338.72 446.288 340.086C447.654 341.451 449.506 342.218 451.437 342.218C453.368 342.218 455.22 341.451 456.586 340.086C457.951 338.72 458.718 336.868 458.718 334.937C458.714 329.663 457.277 324.489 454.562 319.968C451.847 315.446 447.955 311.747 443.302 309.265C438.649 306.782 433.408 305.61 428.141 305.873C422.873 306.136 417.776 307.824 413.393 310.758C409.01 313.691 405.506 317.76 403.255 322.529C401.004 327.299 400.09 332.59 400.611 337.838C401.132 343.087 403.068 348.095 406.213 352.329C409.358 356.563 413.594 359.863 418.468 361.878C419.66 362.458 420.659 363.373 421.341 364.511C422.024 365.648 422.361 366.96 422.312 368.285V369.108C415.218 379.612 408.685 390.483 402.74 401.677C401.852 403.393 401.681 405.391 402.267 407.233C402.852 409.074 404.144 410.608 405.86 411.496C407.576 412.384 409.574 412.554 411.416 411.969C413.257 411.384 414.791 410.092 415.679 408.376C420.142 399.748 425.56 390.901 429.615 384.537C440.086 400.92 451.459 421.671 451.459 429.593C451.459 435.387 449.158 440.943 445.061 445.039C440.965 449.136 435.409 451.437 429.615 451.437C424.404 451.418 419.377 449.509 415.468 446.064C414.743 445.439 413.903 444.964 412.995 444.664C412.087 444.364 411.129 444.246 410.175 444.317C409.221 444.388 408.291 444.645 407.437 445.076C406.583 445.506 405.822 446.1 405.198 446.824C404.573 447.549 404.098 448.389 403.798 449.297C403.498 450.205 403.38 451.163 403.451 452.117C403.522 453.071 403.779 454.001 404.21 454.855C404.64 455.709 405.234 456.47 405.958 457.095C411.217 461.663 417.681 464.62 424.576 465.612C431.471 466.604 438.506 465.589 444.839 462.688C451.173 459.787 456.536 455.123 460.289 449.254C464.042 443.385 466.024 436.559 466 429.593C466 413.291 443.952 379.513 436.875 369.094ZM233 349.5C342.947 349.5 402.23 168.27 412.985 131.943C414.347 127.354 415.036 122.591 415.031 117.803C415.012 105.622 410.555 93.8649 402.494 84.7326C394.432 75.6003 383.319 69.7188 371.234 68.1889L349.39 65.473L322.282 62.0945C321.995 62.0334 321.706 61.98 321.416 61.9343C319.569 61.6665 317.691 62.1311 316.183 63.229C314.674 64.3268 313.654 65.9709 313.341 67.8102C313.021 69.6754 313.426 71.5923 314.474 73.1681C315.522 74.7439 317.133 75.8593 318.977 76.2856C319.224 76.3366 319.792 76.4458 320.047 76.4749L340.049 78.9724C335.282 103.873 321.984 126.333 302.444 142.487C282.905 158.64 258.345 167.478 232.993 167.478C207.64 167.478 183.08 158.64 163.541 142.487C144.001 126.333 130.703 103.873 125.936 78.9724L145.938 76.4749C156.126 75.1566 165.684 70.8094 173.374 63.9964C181.063 57.1834 186.529 48.2185 189.065 38.263L194.999 14.5625H271.001L276.928 38.2557C278.558 44.6619 281.43 50.6857 285.381 55.9855C286.541 57.4945 288.245 58.4894 290.129 58.7572C292.014 59.0251 293.928 58.5446 295.462 57.4186C296.996 56.2926 298.029 54.6107 298.338 52.7329C298.648 50.8551 298.21 48.9307 297.118 47.3718C294.295 43.5923 292.235 39.2989 291.053 34.7316L283.772 5.51921C283.378 3.93968 282.466 2.53773 281.182 1.53728C279.898 0.536827 278.315 -0.00440553 276.687 2.70105e-05H189.312C187.688 0.000475702 186.111 0.543946 184.831 1.54401C183.551 2.54408 182.643 3.94331 182.25 5.51921L174.968 34.7316C173.156 41.8408 169.252 48.2424 163.761 53.1078C158.269 57.9732 151.444 61.0785 144.169 62.0217L94.7945 68.1889C87.6938 69.1579 80.8793 71.6219 74.801 75.4183C68.7226 79.2147 63.5185 84.2571 59.5323 90.2127C55.5461 96.1683 52.8683 102.902 51.6758 109.968C50.4833 117.035 50.8032 124.274 52.6143 131.208C62.2037 167.651 115.976 349.5 233 349.5ZM305.812 163.646C312.97 171.976 320.375 182.956 320.375 189.312C320.375 193.175 318.84 196.879 316.109 199.61C313.378 202.341 309.674 203.875 305.812 203.875C301.95 203.875 298.246 202.341 295.515 199.61C292.784 196.879 291.25 193.175 291.25 189.312C291.25 182.956 298.655 171.976 305.812 163.646ZM254.844 225.719C254.844 231.512 252.542 237.068 248.446 241.164C244.349 245.261 238.793 247.562 233 247.562C227.206 247.562 221.65 245.261 217.554 241.164C213.457 237.068 211.156 231.512 211.156 225.719C211.156 213.144 224.146 195.574 233 185.453C241.854 195.574 254.844 213.144 254.844 225.719ZM174.75 189.312C174.75 193.175 173.216 196.879 170.485 199.61C167.754 202.341 164.05 203.875 160.187 203.875C156.325 203.875 152.621 202.341 149.89 199.61C147.159 196.879 145.625 193.175 145.625 189.312C145.625 182.956 153.03 171.976 160.187 163.646C167.345 171.976 174.75 182.956 174.75 189.312ZM96.5711 82.6421L111.498 80.7709C116.513 108.166 130.65 133.059 151.61 151.399C144.853 158.797 131.062 175.624 131.062 189.312C131.062 197.037 134.131 204.445 139.593 209.907C145.055 215.369 152.463 218.437 160.187 218.437C167.912 218.437 175.32 215.369 180.782 209.907C186.244 204.445 189.312 197.037 189.312 189.312C188.917 183.045 186.987 176.971 183.691 171.626C194.522 176.362 205.979 179.508 217.709 180.968C208.52 192.269 196.594 209.947 196.594 225.719C196.594 235.374 200.429 244.634 207.257 251.462C214.084 258.289 223.344 262.125 233 262.125C242.655 262.125 251.915 258.289 258.743 251.462C265.57 244.634 269.406 235.374 269.406 225.719C269.406 209.947 257.479 192.269 248.29 180.968C260.023 179.509 271.483 176.362 282.316 171.626C279.017 176.971 277.084 183.045 276.687 189.312C276.687 197.037 279.756 204.445 285.218 209.907C290.68 215.369 298.088 218.437 305.812 218.437C313.537 218.437 320.945 215.369 326.407 209.907C331.869 204.445 334.937 197.037 334.937 189.312C334.937 175.624 321.147 158.797 314.39 151.377C335.349 133.037 349.487 108.145 354.502 80.749L369.428 82.6203C377.998 83.7016 385.879 87.8718 391.594 94.349C397.308 100.826 400.464 109.166 400.468 117.803C400.469 121.191 399.978 124.561 399.012 127.808C388.818 162.372 332.622 334.937 233 334.937C126.694 334.937 75.8123 162.139 66.6962 127.495C65.8823 124.33 65.4906 121.071 65.5312 117.803C65.5413 109.169 68.6991 100.835 74.4131 94.3627C80.1271 87.89 88.0051 83.7229 96.5711 82.6421Z" fill="black"/>
</svg>
