<svg width="404" height="473" viewBox="0 0 404 473" fill="none" xmlns="http://www.w3.org/2000/svg">
<path d="M86.2734 60.262C81.6373 60.3234 77.0717 61.4055 72.9012 63.4313C68.7307 65.4571 65.0577 68.3769 62.1434 71.983C57.0314 78.258 51.7234 89.544 55.4654 107.674C59.4924 127.182 74.8904 143.974 81.3234 150.295C81.5806 150.543 81.8556 150.772 82.1464 150.979V164.162C79.2699 165.113 76.826 167.057 75.2528 169.646C73.6796 172.235 73.08 175.3 73.5614 178.291C74.0429 181.282 75.5739 184.004 77.8801 185.968C80.1863 187.933 83.1168 189.012 86.1464 189.012C89.176 189.012 92.1066 187.933 94.4127 185.968C96.7189 184.004 98.25 181.282 98.7314 178.291C99.2129 175.3 98.6133 172.235 97.0401 169.646C95.4669 167.057 93.023 165.113 90.1464 164.162V151.311C90.5095 151.092 90.8525 150.842 91.1714 150.563C97.4264 145.033 113.771 124.824 117.09 107.624C119.74 93.906 116.978 81.236 109.314 71.95C103.274 64.632 94.6604 60.262 86.2734 60.262ZM109.235 106.107C106.456 120.501 92.1284 138.681 86.4124 144.075C81.2694 138.939 66.8554 123.282 63.3004 106.057C60.1934 91.004 64.3294 81.967 68.3464 77.036C70.5067 74.3466 73.233 72.1661 76.3314 70.6497C79.4298 69.1332 82.8243 68.318 86.2734 68.262C92.2994 68.262 98.6074 71.544 103.144 77.043C109.261 84.457 111.424 94.775 109.235 106.107ZM306.99 0C302.354 0.0614137 297.789 1.1435 293.619 3.16931C289.448 5.19512 285.775 8.11489 282.861 11.721C277.749 17.996 272.441 29.282 276.183 47.412C280.21 66.92 295.608 83.717 302.042 90.033C302.299 90.2809 302.573 90.5095 302.863 90.717V103.899C299.987 104.85 297.542 106.794 295.969 109.383C294.396 111.973 293.796 115.038 294.277 118.029C294.759 121.02 296.29 123.742 298.596 125.707C300.903 127.672 303.834 128.751 306.863 128.751C309.893 128.751 312.824 127.672 315.13 125.707C317.437 123.742 318.968 121.02 319.449 118.029C319.931 115.038 319.331 111.973 317.758 109.383C316.184 106.794 313.74 104.85 310.863 103.899V91.049C311.227 90.8309 311.57 90.5806 311.888 90.301C318.144 84.771 334.488 64.561 337.808 47.362C340.458 33.643 337.696 20.974 330.032 11.688C323.991 4.369 315.378 0 306.99 0ZM329.953 45.845C327.174 60.239 312.845 78.419 307.13 83.813C301.984 78.677 287.573 63.02 284.018 45.795C280.911 30.741 285.047 21.704 289.064 16.774C291.225 14.0847 293.951 11.9044 297.049 10.388C300.147 8.87151 303.541 8.0562 306.99 8C313.017 8 319.324 11.282 323.862 16.78C329.984 24.191 332.142 34.513 329.953 45.845ZM95.0514 195.049C91.1334 196.956 86.7046 197.547 82.4234 196.736C65.5772 218.938 50.3971 242.357 37.0074 266.8C33.0578 274.048 29.3133 281.406 25.7784 288.865C38.0554 313.474 62.1624 328.686 89.1414 328.686C102.834 328.731 116.248 324.82 127.769 317.422C139.291 310.024 148.43 299.455 154.087 286.986C150.522 279.912 146.777 272.931 142.854 266.049C128.635 241.272 112.66 217.544 95.0514 195.049ZM118.266 304.011C114.524 307.856 110.046 310.908 105.1 312.984C100.153 315.061 94.8385 316.121 89.4734 316.1H89.4074C84.035 316.128 78.7118 315.076 73.7541 313.006C68.7963 310.936 64.3052 307.891 60.5474 304.051C47.2294 290.482 46.5474 271.32 58.5684 248.637C67.6094 231.582 81.1814 217.412 85.1264 213.475C86.1323 212.476 87.4908 211.914 88.9081 211.909C90.3254 211.904 91.6877 212.457 92.7004 213.449C96.7004 217.38 110.452 231.534 119.7 248.577C132.008 271.257 131.513 290.429 118.266 304.011ZM133.175 323.457C127.581 327.169 121.537 330.154 115.189 332.341C117.371 341.89 121.507 367.457 109.342 387.236C116.872 392.532 124.851 397.16 133.187 401.066C145.314 370.814 136.991 336.121 133.175 323.457ZM63.2904 337.836C67.5534 345.044 72.4206 351.877 77.8394 358.262C81.9674 351.379 82.3734 341.49 82.2634 336.376C76.9063 335.914 71.6113 334.899 66.4634 333.346C65.3645 334.813 64.3064 336.31 63.2904 337.836ZM147.609 363.836C154.754 356.636 165.509 341.396 166.564 314.336C164.047 308.159 161.358 302.053 158.499 296.026C153.77 304.565 147.491 312.147 139.984 318.387C144.777 333.072 147.347 348.391 147.609 363.836ZM90.7644 372.02C94.3014 375.384 98.3454 378.92 102.884 382.454C112.784 365.666 109.364 343.287 107.466 334.561C101.829 335.88 96.0655 336.584 90.2764 336.661C90.3764 343.277 89.6124 355.791 83.3054 364.453C85.7115 367.053 88.199 369.577 90.7644 372.02Z" fill="black"/>
<path d="M58.5624 345.51C54.0245 353.487 50.3142 361.907 47.4894 370.639C47.3054 371.212 47.1344 371.785 46.9584 372.358C48.4514 376.022 54.0984 388.25 67.7454 402.171C82.5854 417.31 110.17 437.555 157.535 448.678C165.775 441.346 172.286 432.279 176.602 422.13C142.145 417.302 110.093 401.716 85.0174 377.595C74.9218 368.021 66.0373 357.245 58.5624 345.51Z" fill="black"/>
<path d="M147.251 374.694C146.54 384.837 144.271 394.809 140.526 404.262C152.989 409.317 166.054 412.737 179.395 414.434C180.52 410.752 181.392 406.997 182.005 403.196C185.627 380.646 180.995 355.301 172.705 330.804C167.356 357.892 152.518 370.857 147.251 374.694ZM61.6384 407.368C54.7835 400.414 48.8265 392.629 43.9064 384.194C41.6387 394.993 40.8648 406.052 41.6064 417.062C45.2684 422.338 70.8784 456.628 124.292 467.808C131.737 465.334 138.856 461.969 145.492 457.786C146.91 456.887 148.303 455.95 149.67 454.977C103.799 443.073 76.5844 422.746 61.6384 407.368Z" fill="black"/>
<path d="M39.9844 367.857C44.2792 354.538 50.5603 341.944 58.6154 330.5C53.4566 328.304 48.5509 325.556 43.9844 322.303C37.7009 329.492 32.4359 337.511 28.3374 346.135C20.3374 362.435 11.0374 390.211 11.9094 430.267C18.5454 441.246 27.9334 450.527 40.0164 458.011C41.2716 458.784 42.5443 459.529 43.8334 460.244C28.3524 422.516 32.9294 389.557 39.9844 367.857Z" fill="black"/>
<path d="M43.6144 432.235C45.9445 443.8 49.7665 455.013 54.9844 465.594C71.6889 472.338 89.8968 474.477 107.709 471.788C75.1044 461.72 54.4304 443.965 43.6144 432.235ZM21.6224 297.944C7.07243 330.857 -4.17057 369.18 1.49543 401.88C2.1413 405.582 3.02513 409.237 4.14143 412.825C6.97443 356.52 29.1544 326.752 37.6714 317.308C31.3433 311.731 25.928 305.197 21.6224 297.944ZM353.893 263.193C348.299 266.905 342.255 269.891 335.907 272.077C338.089 281.627 342.225 307.194 330.06 326.972C337.59 332.268 345.569 336.896 353.905 340.802C366.033 310.557 357.708 275.857 353.893 263.193ZM315.768 134.787C311.851 136.694 307.422 137.285 303.141 136.474C286.295 158.676 271.115 182.094 257.725 206.537C253.776 213.786 250.031 221.145 246.495 228.604C258.773 253.213 282.88 268.425 309.859 268.425C323.552 268.47 336.965 264.559 348.487 257.161C360.009 249.763 369.148 239.194 374.805 226.725C371.095 219.354 367.295 212.325 363.571 205.788C349.353 181.01 333.377 157.282 315.768 134.787ZM338.984 243.75C335.242 247.594 330.764 250.646 325.817 252.722C320.871 254.799 315.556 255.859 310.191 255.838H310.126C304.754 255.866 299.43 254.814 294.472 252.744C289.514 250.674 285.023 247.629 281.264 243.79C267.947 230.22 267.264 211.058 279.286 188.376C288.327 171.32 301.899 157.15 305.843 153.213C306.85 152.216 308.208 151.654 309.625 151.649C311.042 151.644 312.404 152.196 313.417 153.186C317.417 157.118 331.171 171.273 340.417 188.315C352.726 210.999 352.23 230.168 338.984 243.75ZM368.327 303.573C375.471 296.373 386.227 281.133 387.282 254.073C384.764 247.896 382.075 241.79 379.217 235.763C374.489 244.301 368.212 251.884 360.706 258.124C365.497 272.809 368.066 288.128 368.327 303.573ZM284.008 277.574C288.271 284.782 293.139 291.615 298.557 298C302.685 291.117 303.091 281.228 302.98 276.115C297.623 275.653 292.328 274.637 287.18 273.084C286.082 274.551 285.024 276.049 284.008 277.574ZM311.484 311.757C315.35 315.433 319.396 318.915 323.605 322.191C333.537 305.367 330.099 283.012 328.192 274.297C322.552 275.618 316.785 276.325 310.992 276.403C311.092 283.018 310.328 295.532 304.021 304.194C306.428 306.794 308.917 309.316 311.484 311.757ZM242.34 237.681C227.79 270.597 216.546 308.918 222.213 341.618C222.859 345.32 223.743 348.976 224.859 352.564C227.692 296.258 249.872 266.49 258.389 257.046C252.061 251.469 246.646 244.935 242.34 237.681ZM282.356 347.105C275.501 340.152 269.544 332.367 264.624 323.932C262.357 334.731 261.583 345.791 262.324 356.801C265.985 362.076 291.596 396.365 345.011 407.546C352.455 405.073 359.572 401.708 366.206 397.524C367.624 396.625 369.017 395.689 370.384 394.715C324.518 382.811 297.307 362.485 282.356 347.105ZM367.969 314.431C367.257 324.574 364.989 334.548 361.244 344.001C373.707 349.056 386.772 352.475 400.113 354.172C401.238 350.49 402.11 346.735 402.722 342.934C406.345 320.384 401.713 295.039 393.422 270.542C388.073 297.63 373.237 310.593 367.969 314.431Z" fill="black"/>
<path d="M279.284 285.248C274.746 293.225 271.036 301.646 268.211 310.378C268.027 310.95 267.856 311.523 267.679 312.096C269.179 315.76 274.82 327.988 288.467 341.909C303.307 357.048 330.892 377.294 378.257 388.417C386.496 381.085 393.008 372.018 397.324 361.868C362.867 357.04 330.814 341.454 305.738 317.332C295.643 307.758 286.759 296.983 279.284 285.248Z" fill="black"/>
<path d="M260.699 307.595C264.994 294.276 271.275 281.682 279.33 270.238C274.171 268.042 269.264 265.292 264.697 262.038C258.413 269.227 253.148 277.246 249.05 285.871C241.05 302.165 231.75 329.947 232.622 370.002C239.258 380.981 248.647 390.262 260.729 397.746C261.985 398.519 263.257 399.263 264.545 399.979C249.07 362.257 253.647 329.299 260.699 307.595Z" fill="black"/>
<path d="M264.332 371.973C266.662 383.537 270.482 394.75 275.699 405.331C292.404 412.078 310.613 414.219 328.427 411.531C295.823 401.457 275.148 383.703 264.332 371.973Z" fill="black"/>
</svg>
