<svg width="512" height="512" viewBox="0 0 512 512" fill="none" xmlns="http://www.w3.org/2000/svg">
<path d="M505.653 196.908C507.336 196.908 508.951 196.239 510.141 195.049C511.331 193.859 512 192.244 512 190.561V105.933C512 104.25 511.331 102.635 510.141 101.445C508.951 100.255 507.336 99.586 505.653 99.586H484.116V92.752C484.089 66.494 462.812 45.212 436.554 45.18H369.041V44.355C369.014 19.87 349.171 0.028 324.686 0H186.415C161.93 0.028 142.087 19.87 142.059 44.356V45.181H75.446C49.188 45.214 27.912 66.495 27.885 92.753V99.587H6.347C4.66367 99.587 3.04929 100.256 1.85899 101.446C0.6687 102.636 0 104.251 0 105.934L0 190.562C0 192.245 0.6687 193.86 1.85899 195.05C3.04929 196.24 4.66367 196.909 6.347 196.909H27.885V473.018H6.347C4.66367 473.018 3.04929 473.687 1.85899 474.877C0.6687 476.067 0 477.682 0 479.365L0 505.654C0.000265189 507.337 0.669082 508.951 1.85935 510.141C3.04961 511.331 4.66384 512 6.347 512H504.749C506.432 512 508.047 511.331 509.237 510.141C510.427 508.951 511.096 507.336 511.096 505.653V479.364C511.096 477.681 510.427 476.066 509.237 474.876C508.047 473.686 506.432 473.017 504.749 473.017H484.121V196.908H505.653ZM499.306 184.214H447.778V173.942C447.751 150.414 428.685 131.348 405.157 131.321H369.041V112.28H499.306V184.214ZM369.041 182.627V144.015H405.157C421.677 144.034 435.065 157.421 435.084 173.942V184.214H369.014C369.033 183.685 369.042 183.156 369.041 182.627ZM436.554 57.875C455.805 57.898 471.404 73.501 471.422 92.752V99.586H369.041V57.875H436.554ZM154.753 44.356C154.773 26.878 168.937 12.714 186.414 12.695H324.686C342.164 12.715 356.327 26.879 356.346 44.356C356.346 44.356 356.113 187.087 355.65 189.242C352.484 203.822 339.606 214.24 324.686 214.289H186.415C171.49 214.238 158.609 203.814 155.447 189.227C154.987 187.085 154.753 44.356 154.753 44.356ZM142.087 184.214H76.017V173.942C76.033 157.425 89.416 144.037 105.933 144.015H142.059V182.627C142.059 183.158 142.068 183.687 142.087 184.214ZM40.579 92.752C40.596 73.501 56.195 57.898 75.446 57.875H142.059V99.586H40.579V92.752ZM12.694 112.28H142.059V131.321H105.933C82.408 131.351 63.347 150.417 63.323 173.942V184.214H12.694V112.28ZM286.075 288.941C310.768 288.972 330.776 308.985 330.801 333.678V473.017H261.893V288.941H286.075ZM249.198 473.017H180.29V333.678C180.318 308.982 200.331 288.969 225.027 288.941H249.199V473.017H249.198ZM498.402 499.306H12.694V485.712H498.402V499.306ZM471.427 473.017H343.495V333.678C343.462 301.977 317.775 276.286 286.075 276.247H225.026C193.323 276.283 167.631 301.975 167.595 333.678V473.017H40.579V196.908H144.428C150.602 214.843 167.447 226.909 186.414 226.983H324.686C343.654 226.909 360.5 214.844 366.674 196.908H471.421L471.427 473.017Z" fill="black"/>
<path d="M275.645 422.838C277.328 422.838 278.943 422.169 280.133 420.979C281.323 419.789 281.992 418.174 281.992 416.491V405.912C281.992 404.228 281.323 402.614 280.133 401.424C278.943 400.234 277.328 399.565 275.645 399.565C273.962 399.565 272.347 400.234 271.157 401.424C269.967 402.614 269.298 404.228 269.298 405.912V416.491C269.298 418.174 269.967 419.789 271.157 420.979C272.347 422.169 273.962 422.838 275.645 422.838ZM235.445 422.838C237.128 422.838 238.743 422.169 239.933 420.979C241.123 419.789 241.792 418.174 241.792 416.491V405.912C241.792 404.228 241.123 402.614 239.933 401.424C238.743 400.234 237.128 399.565 235.445 399.565C233.762 399.565 232.147 400.234 230.957 401.424C229.767 402.614 229.098 404.228 229.098 405.912V416.491C229.098 418.174 229.767 419.789 230.957 420.979C232.147 422.169 233.762 422.838 235.445 422.838ZM172.907 87.3548L250.447 192.255C251.037 193.053 251.806 193.702 252.693 194.149C253.579 194.596 254.558 194.829 255.551 194.829C256.544 194.829 257.523 194.596 258.409 194.149C259.296 193.702 260.065 193.053 260.655 192.255L338.195 87.3548C338.83 86.4921 339.236 85.4828 339.375 84.4209C339.515 83.3591 339.383 82.2792 338.993 81.2818C338.98 81.2428 338.975 81.2028 338.959 81.1638L320.375 36.0818C319.896 34.9199 319.082 33.9263 318.038 33.227C316.993 32.5278 315.765 32.1543 314.508 32.1538H196.592C195.335 32.1538 194.106 32.5271 193.061 33.2264C192.017 33.9257 191.203 34.9195 190.724 36.0818L172.143 81.1638C172.129 81.2038 172.118 81.2448 172.108 81.2868C171.717 82.2833 171.586 83.3626 171.726 84.4238C171.865 85.4849 172.272 86.4933 172.907 87.3548ZM249.203 169.218L190.598 89.9298H249.203V169.218ZM261.898 169.218V89.9298H320.503L261.898 169.218ZM323.609 77.2358H274.3L311.792 48.5678L323.609 77.2358ZM255.55 75.5918L215.342 44.8528H295.758L255.55 75.5918ZM199.309 48.5668L236.801 77.2348H187.492L199.309 48.5668Z" fill="black"/>
</svg>
