<svg width="456" height="456" viewBox="0 0 456 456" fill="none" xmlns="http://www.w3.org/2000/svg">
<path d="M208.98 71.7607C168.442 71.758 129.158 85.8113 97.8207 111.526C66.4834 137.241 45.0319 173.026 37.1215 212.784C29.2112 252.543 35.3313 293.814 54.4392 329.565C73.5471 365.317 104.46 393.337 141.912 408.851C179.363 424.365 221.035 426.413 259.827 414.646C298.619 402.88 332.131 378.026 354.653 344.321C377.175 310.615 387.312 270.143 383.339 229.801C379.365 189.459 361.527 151.742 332.862 123.078C316.633 106.756 297.328 93.8158 276.063 85.0069C254.798 76.198 231.997 71.6957 208.98 71.7607ZM324.467 362.463C297.744 389.177 262.586 405.8 224.981 409.499C187.377 413.198 149.653 403.743 118.238 382.746C86.8228 361.749 63.6599 330.509 52.6958 294.349C41.7318 258.188 43.6449 219.345 58.1093 184.437C72.5737 149.529 98.6944 120.717 132.021 102.908C165.347 85.1002 203.817 79.3983 240.876 86.7743C277.935 94.1503 311.291 114.148 335.258 143.359C359.226 172.571 372.324 209.189 372.32 246.975C372.377 268.432 368.178 289.687 359.966 309.51C351.755 329.333 339.694 347.331 324.482 362.463H324.467Z" fill="black"/>
<path d="M455.841 80.1114L448.971 42.2672C448.756 41.0777 448.183 39.9824 447.328 39.1283L416.812 8.61303C415.958 7.75774 414.863 7.18425 413.673 6.96957L375.829 0.0995582C374.337 -0.177523 372.795 0.128816 371.523 0.955352C370.25 1.78189 369.343 3.06554 368.989 4.54137L349.164 91.7638C267.212 17.7336 140.161 20.1025 61.1416 99.1668C-20.3805 180.674 -20.3805 313.321 61.1416 394.843C100.384 433.991 153.55 455.976 208.98 455.976C264.41 455.976 317.576 433.991 356.818 394.843C435.838 315.824 438.251 188.788 364.103 106.822L451.325 86.9962C452.824 86.6585 454.133 85.7515 454.975 84.4669C455.818 83.1823 456.128 81.6206 455.841 80.1114ZM420.81 29.3711L426.57 35.1307L423.164 45.7762L410.164 32.7765L420.81 29.3711ZM409.78 18.2962L411.438 19.9397L400.792 23.3599L392.619 15.1869L409.78 18.2962ZM348.453 386.404C271.55 463.395 146.424 463.395 69.5218 386.404C-7.3808 309.413 -7.3808 184.376 69.5218 107.473C106.541 70.5417 156.697 49.8013 208.987 49.8013C261.278 49.8013 311.434 70.5417 348.453 107.473C425.355 184.39 425.355 309.516 348.453 386.404ZM378.198 17.5411L391.524 30.8665L365.968 71.1241L378.198 17.5411ZM400.156 39.4984L416.442 55.7851L371.876 84.0794L400.156 39.4984ZM384.742 89.839L425 64.2838L438.326 77.6092L384.742 89.839ZM432.581 55.1929L435.986 44.5473L437.644 46.2056L440.754 63.3658L432.581 55.1929Z" fill="black"/>
</svg>
