<svg width="512" height="512" viewBox="0 0 512 512" fill="none" xmlns="http://www.w3.org/2000/svg">
<path d="M16 504.16H0M31 504.16H512M334.933 98.2129H458.511V504.16M53.527 504.16V98.2129H177.458" stroke="black" stroke-width="15" stroke-miterlimit="10"/>
<path d="M361 68.245H473.511V98.213H458.511M53.527 98.213H38.702V68.245H151M83.638 504.16V353.101C83.638 311.706 117.195 278.149 158.59 278.149C199.985 278.149 233.542 311.706 233.542 353.101V504.16M413.404 413.277H278.596M413.404 413.277V345.554C413.404 308.328 383.226 278.15 346 278.15C308.774 278.15 278.596 308.328 278.596 345.554V413.277M413.404 413.277H428.606V443.181H263.383V413.277H278.596M83.638 353.596H233.543M308.723 322V337M203.69 413.878V443.878M285.617 443.181V504.16M315.745 443.181V504.16M345.872 443.181V504.16M376 443.181V504.16M406.128 443.181V504.16M158.736 353.532L121 288.246M158.59 353.532L196.326 288.246M145.869 68.245H366.131M366.131 62.291L256.586 184.936L145.869 62.291L173.402 8H338.598L366.131 62.291Z" stroke="black" stroke-width="15" stroke-miterlimit="10"/>
<path d="M224.534 8L208.801 62.291L256.586 182.33L303.785 62.291L288.052 8M53.508 203.33H458.492M53.508 233.298H458.492" stroke="black" stroke-width="15" stroke-miterlimit="10"/>
</svg>
