<svg width="496" height="496" viewBox="0 0 496 496" fill="none" xmlns="http://www.w3.org/2000/svg">
<path d="M480 160V0H368V80H464V160H320V149.56C320 143.888 318.792 138.424 316.6 133.368C326.08 129.304 333.328 120.752 335.36 110.448C338.104 96.544 331.776 83 320 76.264V56C319.977 43.887 316.049 32.1042 308.8 22.4C303.569 15.4606 296.802 9.82693 289.03 5.94063C281.257 2.05433 272.69 0.0209897 264 0H232C223.31 0.0209897 214.743 2.05433 206.97 5.94063C199.198 9.82693 192.431 15.4606 187.2 22.4C179.951 32.1042 176.023 43.887 176 56V76.264C164.224 83.008 157.888 96.544 160.64 110.456C162.68 120.752 169.928 129.304 179.4 133.368C177.166 138.474 176.009 143.986 176 149.56V160H128V0H16V80H112V160H16C7.176 160 0 167.176 0 176V192C0 200.824 7.176 208 16 208H480C488.824 208 496 200.824 496 192V176C496 167.176 488.824 160 480 160ZM384 64V16H464V64H384ZM32 64V16H112V64H32ZM256 160V142.528C260.296 140.997 264.064 138.269 266.86 134.665C269.655 131.062 271.361 126.734 271.776 122.192L285.264 125.56C290.614 126.902 295.363 129.992 298.757 134.34C302.151 138.688 303.996 144.044 304 149.56V160H256ZM248 96C234.768 96 224 85.232 224 72V56C224 51.592 227.592 48 232 48H264C268.408 48 272 51.592 272 56V72C272 85.232 261.232 96 248 96ZM248 112C250.736 112 253.416 111.72 256 111.192V120C256 124.408 252.408 128 248 128C243.592 128 240 124.408 240 120V111.192C242.584 111.72 245.264 112 248 112ZM186.664 88.912L192 87.024V56C192 47.4 194.84 38.872 200 32C203.736 27.0431 208.57 23.019 214.122 20.2431C219.673 17.4671 225.793 16.0148 232 16H264C276.52 16 288.488 21.984 296 32C301.16 38.872 304 47.4 304 56V87.024L309.336 88.904C312.999 90.2054 316.066 92.7918 317.967 96.183C319.868 99.5742 320.474 103.54 319.672 107.344C319.025 110.37 317.516 113.143 315.327 115.33C313.138 117.516 310.362 119.021 307.336 119.664C307.184 119.696 307.04 119.68 306.88 119.704C301.876 115.038 295.776 111.708 289.144 110.024L272 105.752V103.792C281.656 96.48 288 85.008 288 72V56C288 42.768 277.232 32 264 32H232C218.768 32 208 42.768 208 56V72C208 85.016 214.344 96.488 224 103.792V105.752L206.856 110.04C200.214 111.725 194.105 115.06 189.096 119.736L188.664 119.672C185.638 119.029 182.862 117.524 180.673 115.338C178.484 113.151 176.975 110.378 176.328 107.352C175.525 103.548 176.13 99.5813 178.031 96.1897C179.932 92.7981 183 90.212 186.664 88.912ZM192 149.56C192.001 144.042 193.847 138.684 197.243 134.335C200.639 129.987 205.391 126.898 210.744 125.56L224.224 122.192C224.64 126.733 226.346 131.061 229.141 134.665C231.937 138.268 235.704 140.996 240 142.528V160H192V149.56ZM16 192V176H480L480.008 192H16ZM437.592 309.72C443.322 305.242 447.958 299.519 451.147 292.983C454.336 286.448 455.996 279.272 456 272C456 245.528 434.472 224 408 224C381.528 224 360 245.528 360 272C360 287.304 367.224 300.928 378.408 309.72C353.44 319.776 336 342.088 336 368H320C320 342.088 302.56 319.776 277.592 309.72C283.322 305.242 287.958 299.519 291.147 292.983C294.336 286.448 295.996 279.272 296 272C296 245.528 274.472 224 248 224C221.528 224 200 245.528 200 272C200 287.304 207.224 300.928 218.408 309.72C193.44 319.776 176 342.088 176 368H160C160 342.088 142.56 319.776 117.592 309.72C123.322 305.242 127.958 299.519 131.147 292.983C134.336 286.448 135.996 279.272 136 272C136 245.528 114.472 224 88 224C61.528 224 40 245.528 40 272C40 287.304 47.224 300.928 58.408 309.72C33.44 319.776 16 342.088 16 368H0V416H16V496H480V416H496V368H480C480 342.088 462.56 319.776 437.592 309.72ZM464 368H416V350.352C420.698 348.579 424.712 345.361 427.464 341.16L435.56 326.264C452.52 334.528 464 350.12 464 368ZM408 320C412.176 320 416.224 320.424 420.144 321.168L413.784 332.904C411.2 336.776 404.44 336.16 402.592 333.52L395.872 321.16C399.87 320.397 403.93 320.009 408 320ZM408 240C419.792 240 430 246.48 435.552 256H380.456C386 246.48 396.208 240 408 240ZM376 272H440C440 289.648 425.648 304 408 304C390.352 304 376 289.648 376 272ZM380.448 326.264L388.912 341.784C391.624 345.856 395.568 348.72 400.008 350.384V368H352.008C352 350.12 363.488 334.52 380.448 326.264ZM304 368H256V350.352C260.698 348.579 264.712 345.361 267.464 341.16L275.56 326.264C292.52 334.528 304 350.12 304 368ZM248 320C252.176 320 256.224 320.424 260.144 321.168L253.784 332.904C251.2 336.776 244.44 336.16 242.592 333.52L235.872 321.16C239.87 320.397 243.93 320.009 248 320ZM248 240C259.792 240 270 246.48 275.552 256H220.456C226 246.48 236.208 240 248 240ZM216 272H280C280 289.648 265.648 304 248 304C230.352 304 216 289.648 216 272ZM220.448 326.264L228.912 341.784C231.624 345.856 235.568 348.72 240.008 350.384V368H192.008C192 350.12 203.488 334.52 220.448 326.264ZM144 368H96V350.352C100.698 348.579 104.712 345.361 107.464 341.16L115.56 326.264C132.52 334.528 144 350.12 144 368ZM88 320C92.176 320 96.224 320.424 100.144 321.168L93.784 332.904C91.2 336.776 84.44 336.16 82.592 333.52L75.872 321.16C79.8698 320.397 83.9301 320.009 88 320ZM88 240C99.792 240 110 246.48 115.552 256H60.448C66 246.48 76.208 240 88 240ZM56 272H120C120 289.648 105.648 304 88 304C70.352 304 56 289.648 56 272ZM60.448 326.264L68.912 341.784C71.624 345.856 75.568 348.72 80.008 350.384V368H32C32 350.12 43.488 334.52 60.448 326.264ZM112 480H80V448H112V480ZM320 480H176V448H320V480ZM416 480H384V448H416V480ZM464 480H432V432H368V480H336V432H160V480H128V432H64V480H32V416H464V480ZM480 400H16V384H480V400Z" fill="black"/>
</svg>
