<svg width="414" height="415" viewBox="0 0 414 415" fill="none" xmlns="http://www.w3.org/2000/svg">
<g clip-path="url(#clip0_1398_33)">
<path d="M125.274 199.177C111.666 189.17 95.6391 184.561 94.9715 184.344C94.3107 184.112 93.6025 184.047 92.9102 184.154C92.218 184.262 91.5631 184.539 91.004 184.961C90.4449 185.384 89.9989 185.937 89.7058 186.574C89.4127 187.21 89.2817 187.909 89.3243 188.608V223.165C89.3222 224.123 89.6307 225.056 90.2034 225.824C90.7762 226.593 91.5824 227.155 92.5013 227.426C102.29 230.467 111.571 234.95 120.038 240.727C123.846 242.702 127.083 240.079 127.083 237.145V202.752C127.083 202.056 126.92 201.37 126.605 200.749C126.291 200.127 125.835 199.589 125.274 199.177ZM118.217 229.073C111.864 225.37 105.159 222.306 98.2018 219.926V194.811C105.248 197.432 111.965 200.865 118.217 205.04V229.073ZM92.7788 97.8352C94.157 98.1468 97.6406 98.9892 98.0156 98.9892C103.071 99.0513 104.114 91.5292 99.1418 90.2662C97.685 89.8828 96.2168 89.523 94.7372 89.1869C93.5935 88.9355 92.3967 89.1468 91.4082 89.7746C90.4197 90.4024 89.7197 91.3959 89.4611 92.538C89.2024 93.6801 89.4061 94.8782 90.0277 95.8706C90.6493 96.8631 91.6383 97.5693 92.7788 97.8352ZM123.203 108.808C151.741 121.467 172.094 143.459 172.295 143.68C173.17 144.396 174.253 144.81 175.382 144.86C176.511 144.909 177.626 144.592 178.56 143.955C179.002 143.57 179.362 143.1 179.617 142.572C179.872 142.044 180.017 141.469 180.043 140.883C180.069 140.298 179.976 139.713 179.768 139.164C179.561 138.616 179.244 138.115 178.837 137.693C177.964 136.738 157.088 114.139 126.799 100.703C125.727 100.241 124.516 100.221 123.428 100.646C122.341 101.072 121.466 101.909 120.992 102.977C120.518 104.044 120.485 105.255 120.899 106.347C121.313 107.438 122.141 108.323 123.203 108.808ZM92.7788 130.593C137.407 140.703 172.008 176.18 172.374 176.515C172.773 176.942 173.254 177.285 173.788 177.522C174.323 177.76 174.899 177.888 175.484 177.899C176.069 177.91 176.649 177.803 177.192 177.584C177.734 177.366 178.228 177.041 178.642 176.629C179.459 175.797 179.926 174.684 179.947 173.518C179.969 172.353 179.544 171.223 178.759 170.362C177.281 168.826 142.011 132.654 94.7385 121.943C93.5915 121.683 92.3882 121.89 91.3934 122.517C90.3986 123.144 89.6937 124.141 89.4338 125.288C89.174 126.435 89.3804 127.638 90.0077 128.633C90.635 129.628 91.6318 130.333 92.7788 130.593ZM94.7385 154.696C93.5915 154.436 92.3882 154.642 91.3934 155.269C90.3986 155.897 89.6937 156.894 89.4338 158.041C89.174 159.188 89.3804 160.391 90.0077 161.386C90.635 162.38 91.6318 163.085 92.7788 163.345C137.407 173.455 172.029 208.91 172.374 209.267C173.253 209.989 174.351 210.392 175.488 210.413C176.626 210.434 177.737 210.07 178.642 209.381C179.073 208.984 179.42 208.505 179.661 207.97C179.901 207.436 180.031 206.858 180.042 206.273C180.053 205.687 179.944 205.105 179.724 204.562C179.503 204.019 179.175 203.527 178.759 203.114C177.281 201.584 142.011 165.406 94.7385 154.696ZM146.631 210.225C145.604 209.673 144.402 209.548 143.285 209.876C142.167 210.204 141.223 210.959 140.657 211.977C140.091 212.995 139.949 214.195 140.261 215.317C140.573 216.44 141.314 217.394 142.324 217.975C158.108 226.752 172.179 241.807 172.318 241.957C173.192 242.899 176.448 244.079 178.584 242.19C179.015 241.797 179.363 241.322 179.609 240.793C179.855 240.264 179.992 239.691 180.014 239.108C180.036 238.525 179.942 237.943 179.737 237.397C179.532 236.851 179.22 236.351 178.819 235.926C178.206 235.269 163.674 219.699 146.631 210.225ZM146.629 242.977C145.603 242.426 144.401 242.301 143.283 242.629C142.166 242.956 141.222 243.711 140.656 244.729C140.09 245.748 139.948 246.948 140.259 248.07C140.571 249.192 141.312 250.147 142.322 250.727C158.106 259.503 172.178 274.559 172.317 274.71C173.191 275.651 176.509 276.832 178.582 274.943C179.011 274.548 179.357 274.072 179.601 273.543C179.845 273.014 179.982 272.442 180.003 271.86C180.025 271.278 179.932 270.697 179.728 270.151C179.525 269.605 179.216 269.105 178.818 268.679C178.206 268.021 163.674 252.454 146.629 242.977Z" fill="black"/>
<path d="M410.596 132.119C403.499 128.57 396.207 125.426 388.755 122.702C388.208 122.504 387.626 122.416 387.045 122.442C386.463 122.469 385.892 122.61 385.365 122.857C384.838 123.104 384.364 123.453 383.972 123.883C383.579 124.313 383.275 124.816 383.077 125.364C382.879 125.912 382.791 126.493 382.817 127.075C382.844 127.657 382.985 128.227 383.232 128.755C383.479 129.282 383.828 129.755 384.258 130.148C384.688 130.54 385.192 130.844 385.739 131.042C391.858 133.282 398.007 135.856 404.157 138.833V365.223C332.305 333.313 263.545 344.403 210.34 365.402V138.903C213.325 137.57 218.939 135.199 226.661 132.522C227.223 132.339 227.743 132.047 228.19 131.661C228.638 131.275 229.004 130.804 229.268 130.276C229.531 129.747 229.687 129.171 229.726 128.582C229.764 127.992 229.685 127.401 229.493 126.843C229.301 126.284 229 125.769 228.607 125.328C228.213 124.887 227.736 124.529 227.203 124.275C226.67 124.02 226.092 123.874 225.502 123.845C224.912 123.816 224.322 123.905 223.767 124.107C216.588 126.595 211.152 128.841 207.799 130.314C178.002 84.2161 130.549 48.6844 48.1742 41.2763C47.5658 41.2293 46.9543 41.309 46.3783 41.5103C45.8022 41.7116 45.2741 42.0302 44.8274 42.4459C44.3807 42.8615 44.025 43.3653 43.7827 43.9254C43.5405 44.4854 43.417 45.0896 43.42 45.6998V116.639C35.9182 118.712 17.3473 124.256 2.32079 132.171C1.61611 132.549 1.02769 133.111 0.618787 133.798C0.209887 134.485 -0.00402233 135.271 5.72806e-05 136.07V409.504C-0.00233931 410.195 0.153271 410.878 0.455016 411.501C0.756762 412.123 1.19667 412.668 1.74118 413.095C2.28569 413.521 2.92042 413.818 3.59694 413.961C4.27345 414.105 4.97389 414.093 5.6448 413.925C115.317 383.242 189.617 409.952 205.922 413.798C222.233 409.963 297.763 383.243 407.376 413.925C411.008 414.6 413.02 412.745 413.02 409.53V136.074C413.022 135.255 412.797 134.451 412.368 133.753C411.94 133.055 411.327 132.489 410.596 132.119ZM8.86748 138.787C20.0054 133.527 31.5631 129.205 43.42 125.866V281.477C43.42 282.598 43.8445 283.677 44.6081 284.498C45.3718 285.318 46.4178 285.819 47.5358 285.899C122.811 292.763 164.904 322.531 195.081 362.792C140.023 343.458 80.5859 334.391 8.86494 365.223L8.86748 138.787ZM201.473 403.45C145.707 387.891 89.2468 383.84 8.86748 403.837V394.353C94.9828 356.792 187.609 389.024 201.473 394.262V403.45ZM201.473 384.793C149.605 367.046 77.9485 356.703 8.86748 384.708V375.005C78.1334 341.489 152.575 353.831 201.473 375.066V384.793ZM201.473 356.417C195.712 348.371 155.362 284.858 52.2874 277.383V50.5085C128.041 57.719 176.542 95.2548 201.473 137.165V356.417ZM404.157 403.836C337.044 384.182 255.672 389.211 210.34 403.471V394.364C223.388 389.443 317.473 356.546 404.157 394.352V403.836ZM404.157 384.708C335.197 356.612 262.032 367.177 210.34 384.901V375.085C226.175 368.051 315.593 332.183 404.157 375.008V384.708Z" fill="black"/>
<path d="M405.724 68.175C404.331 42.9662 380.199 23.0424 355.218 26.6856C335.564 -8.83854 282.733 -8.90188 262.955 26.5361C208.143 21.5349 194.478 102.878 245.628 115.274C248.49 115.79 251.082 117.29 252.956 119.513C254.831 121.737 255.87 124.545 255.895 127.454V185.547C255.901 190.668 257.938 195.579 261.56 199.201C265.181 202.822 270.092 204.859 275.213 204.865H342.868C347.99 204.859 352.9 202.822 356.522 199.201C360.143 195.579 362.181 190.668 362.186 185.547V127.604C362.205 124.801 363.17 122.085 364.924 119.898C366.679 117.711 369.12 116.18 371.853 115.554C391.573 110.792 407.083 89.0945 405.724 68.175ZM342.868 195.998H275.213C267.448 195.718 264.047 189.489 264.762 182.304C271.38 184.222 284.895 186.8 309.773 186.8C333.832 186.8 346.933 186.084 353.318 185.559C353.311 188.328 352.208 190.981 350.249 192.937C348.291 194.894 345.636 195.994 342.868 195.998ZM369.779 106.928C369.622 106.965 357.911 109.671 339.806 108.865C333.945 108.726 333.585 117.327 339.41 117.724C344.887 117.971 350.373 117.928 355.846 117.597C354.184 120.668 353.313 124.104 353.313 127.596V176.65C350.452 176.904 345.778 177.218 338.709 177.475V146.664C338.709 145.488 338.242 144.361 337.411 143.529C336.579 142.698 335.451 142.231 334.275 142.231C333.1 142.231 331.972 142.698 331.14 143.529C330.309 144.361 329.842 145.488 329.842 146.664V177.733C325.297 177.832 320.065 177.9 314.088 177.923V146.664C314.088 145.488 313.621 144.361 312.79 143.529C311.958 142.698 310.83 142.231 309.654 142.231C308.479 142.231 307.351 142.698 306.519 143.529C305.688 144.361 305.221 145.488 305.221 146.664V177.895C299.216 177.811 293.989 177.566 289.466 177.221V146.664C289.466 145.488 288.999 144.361 288.167 143.529C287.336 142.698 286.208 142.231 285.032 142.231C283.856 142.231 282.728 142.698 281.897 143.529C281.066 144.361 280.598 145.488 280.598 146.664V176.331C275.212 175.782 269.901 174.654 264.756 172.966V127.454C264.697 122.511 262.939 117.739 259.778 113.939C256.617 110.139 252.244 107.543 247.395 106.585C229.119 102.854 222.6 85.8389 222.6 71.1608C222.605 66.3454 223.576 61.5799 225.456 57.1467C227.336 52.7135 230.087 48.7028 233.546 45.3524C237.004 42.002 241.1 39.38 245.591 37.6419C250.082 35.9038 254.876 35.0849 259.689 35.2338C258.939 38.9041 258.585 42.6444 258.634 46.3903C258.81 52.225 267.447 52.1338 267.501 46.3067C267.363 41.8609 268.017 37.4261 269.433 33.2095C285.384 0.614132 333.052 0.76741 348.774 33.4629C350.204 37.586 350.856 41.939 350.697 46.3003C350.719 52.1161 359.42 52.2162 359.564 46.3839C359.622 42.6566 359.268 38.9343 358.51 35.2845C377.899 33.6263 395.753 49.3254 396.871 68.7438C397.954 85.3423 385.291 103.181 369.779 106.928ZM342.503 276.267C346.542 276.932 350.677 276.691 354.611 275.561C358.545 274.431 362.178 272.44 365.248 269.733L378.811 257.811C379.258 257.43 379.625 256.963 379.89 256.439C380.155 255.914 380.313 255.342 380.355 254.756C380.397 254.17 380.322 253.581 380.135 253.024C379.947 252.467 379.651 251.953 379.263 251.512C378.875 251.07 378.403 250.711 377.875 250.453C377.347 250.196 376.772 250.046 376.186 250.012C375.599 249.979 375.011 250.062 374.457 250.258C373.903 250.454 373.393 250.757 372.958 251.152L359.394 263.073C348.169 272.807 338.639 262.508 325.295 271.054L320.27 267.211C324.298 262.912 326.845 257.437 327.54 251.587C327.612 248.935 328.211 246.324 329.304 243.906C330.396 241.488 331.96 239.311 333.903 237.505L348.967 223.919C349.4 223.529 349.751 223.057 350.002 222.532C350.252 222.006 350.397 221.436 350.427 220.855C350.457 220.273 350.372 219.691 350.178 219.143C349.983 218.594 349.682 218.089 349.292 217.656C348.903 217.224 348.431 216.872 347.906 216.622C347.38 216.371 346.81 216.227 346.229 216.197C345.647 216.167 345.065 216.251 344.517 216.446C343.968 216.641 343.463 216.941 343.03 217.331L327.964 230.916C315.384 241.997 322.553 252.522 313.174 261.784L258.259 219.796C257.664 219.342 256.964 219.045 256.223 218.934C255.483 218.822 254.726 218.901 254.024 219.161C253.322 219.421 252.697 219.855 252.208 220.422C251.719 220.989 251.381 221.671 251.227 222.403C243.9 254.501 256.768 278.03 285.354 284.068L253.673 308.29C242.297 317.645 254.94 334.537 267.115 326.26L303.97 299.425C308.616 295.922 303.526 288.902 298.749 292.256L261.886 319.1C261.386 319.474 260.758 319.635 260.14 319.546C259.522 319.458 258.965 319.127 258.591 318.628C258.216 318.128 258.056 317.5 258.145 316.882C258.233 316.264 258.564 315.707 259.063 315.333L297.732 285.769C302.115 285.769 306.508 286.467 309.989 289.156L360.552 326.255C362.937 327.992 365.909 328.719 368.826 328.281C371.743 327.842 374.371 326.273 376.139 323.912C377.908 321.551 378.675 318.588 378.276 315.665C377.877 312.743 376.342 310.095 374.005 308.295L333.215 277.107C336.192 276.053 339.386 275.764 342.503 276.267ZM368.615 315.34C369.094 315.706 369.413 316.242 369.509 316.836C369.604 317.431 369.468 318.039 369.128 318.536C368.957 318.806 368.732 319.036 368.466 319.213C368.201 319.39 367.901 319.509 367.587 319.562C367.273 319.616 366.951 319.603 366.642 319.525C366.333 319.446 366.043 319.304 365.793 319.107L315.229 282.012C310.941 278.875 305.792 277.132 300.48 277.018C275.468 276.539 254.016 263.795 258.698 231.301L368.615 315.34Z" fill="black"/>
<path d="M334.556 260.663C335.319 261.558 336.406 262.113 337.578 262.207C338.75 262.3 339.912 261.924 340.807 261.162L363.154 242.121C364.049 241.358 364.605 240.271 364.698 239.099C364.792 237.927 364.417 236.766 363.654 235.871C362.892 234.975 361.805 234.42 360.633 234.326C359.461 234.232 358.299 234.608 357.404 235.37L335.057 254.409C334.613 254.786 334.248 255.248 333.983 255.766C333.717 256.285 333.557 256.851 333.51 257.432C333.464 258.013 333.532 258.597 333.712 259.151C333.891 259.706 334.178 260.219 334.556 260.663Z" fill="black"/>
</g>
<defs>
<clipPath id="clip0_1398_33">
<rect width="414" height="415" fill="white"/>
</clipPath>
</defs>
</svg>
