<svg width="200" height="228" viewBox="0 0 200 228" fill="none" xmlns="http://www.w3.org/2000/svg">
<path d="M100 0.995117C139.948 0.995117 172.338 33.8654 172.338 73.7773C172.338 88.8255 167.743 103.26 159.046 115.526L159.044 115.528C158.328 116.544 161.349 111.842 137.15 149.814L136.33 151.101L137.838 151.332C149.302 153.094 164.698 156.587 177.199 162.492C189.78 168.435 199.005 176.608 199.005 187.556C199.005 193.806 195.945 199.361 190.466 204.223C184.975 209.095 177.108 213.215 167.674 216.538C148.811 223.183 123.93 226.561 100 226.561C74.4047 226.561 50.2899 222.965 32.0957 216.467C19.0665 211.814 11.2909 206.538 6.7793 201.469C2.28596 196.42 0.99514 191.538 0.995117 187.556C0.995117 176.61 10.2306 168.436 22.8174 162.491C35.3246 156.584 50.7202 153.091 62.1611 151.333L63.6689 151.102L62.8486 149.814L41.3682 116.108L41.3525 116.083L41.335 116.06C32.3541 103.629 27.6621 88.8146 27.6621 73.7773C27.6623 33.8014 60.182 0.995118 100 0.995117ZM129.271 162.176L104.782 200.604V200.604C104.27 201.408 103.563 202.07 102.728 202.528C101.892 202.987 100.953 203.227 100 203.228C99.0466 203.228 98.1084 202.987 97.2725 202.528C96.4366 202.07 95.7291 201.409 95.2168 200.604V200.604L70.7275 162.176L70.3896 161.646L69.7656 161.724C50.2056 164.157 35.9487 168.5 26.5508 173.226C21.8542 175.587 18.3372 178.061 15.9795 180.469C13.6413 182.856 12.3379 185.289 12.3379 187.556C12.3379 190.862 14.8173 194.194 18.9023 197.265C23.0409 200.375 29.0614 203.398 36.6738 206.048C51.9092 211.351 73.6896 215.217 100 215.217C126.465 215.217 148.246 211.327 163.443 206.012C171.037 203.356 177.028 200.329 181.143 197.223C185.203 194.157 187.662 190.837 187.662 187.556C187.662 185.289 186.359 182.856 184.021 180.469C181.663 178.061 178.146 175.587 173.449 173.226C164.051 168.5 149.794 164.157 130.233 161.724L129.609 161.646L129.271 162.176ZM100 12.3379C66.2902 12.3379 39.0051 39.8942 39.0049 73.7773C39.0049 86.4013 42.9286 98.9602 50.6309 109.557C50.6988 109.65 50.7648 109.745 50.8271 109.843V109.844L99.1611 185.686L100 187.002L100.839 185.686C126.716 145.08 138.817 126.079 144.529 117.123C150.258 108.141 149.55 109.281 149.839 108.899L149.85 108.886L149.859 108.872C157.145 98.5556 160.995 86.4208 160.995 73.7773C160.995 39.9056 133.64 12.3379 100 12.3379Z" fill="black" stroke="black" stroke-width="1.99005"/>
<path d="M99.9971 41.4397C117.827 41.4397 132.336 55.9473 132.336 73.7776C132.336 91.608 117.828 106.116 99.9971 106.116C82.1668 106.116 67.6592 91.6079 67.6592 73.7776C67.6594 55.9474 82.1669 41.4399 99.9971 41.4397ZM99.9971 52.7825C88.4198 52.7826 79.0021 62.2003 79.002 73.7776C79.002 85.355 88.4197 94.7725 99.9971 94.7727C111.575 94.7727 120.992 85.3551 120.992 73.7776C120.992 62.2002 111.574 52.7825 99.9971 52.7825Z" fill="black" stroke="black" stroke-width="1.99005"/>
</svg>
