<svg width="325" height="271" viewBox="0 0 325 271" fill="none" xmlns="http://www.w3.org/2000/svg">
<path d="M73 47.9184C73 60.5347 83.2621 70.8019 95.8835 70.8019C108.505 70.8019 118.767 60.5347 118.767 47.9184C118.767 35.3021 108.5 25.0349 95.8835 25.0349C83.2672 25.0349 73 35.3021 73 47.9184ZM101.017 33.5808C110.393 41.3166 109.922 57.5781 96.7442 63.1218C94.6693 63.252 92.5897 62.9551 90.6341 62.2495C88.6786 61.5439 86.8885 60.4446 85.3748 59.0196C83.861 57.5946 82.6557 55.8741 81.8334 53.9647C81.0111 52.0552 80.5893 49.9974 80.5941 47.9184C80.5941 37.6512 90.7398 29.885 101.017 33.5808Z" fill="black"/>
<path d="M4.73788 230.577C35.6863 245.502 67.8397 258.862 100.474 269.696C101.723 270.107 103.046 270.245 104.353 270.102C105.661 269.959 106.922 269.537 108.053 268.866C153.055 242.388 186.059 228.972 217.828 206.215C247.171 219.307 278.074 231.361 307.413 244.459C315.65 248.134 325.942 250.812 324.768 241.841C324.803 241.355 324.844 241.077 324.565 240.302C306.451 104.55 309.838 107.942 306.441 105.75C280.013 88.6735 256.963 73.8144 232.565 57.6542C232.002 57.2782 231.347 57.0601 230.671 57.0227C229.994 56.9853 229.32 57.13 228.718 57.4416C197.511 73.6119 186.798 86.8864 157.916 104.859C144.722 99.4014 134.617 95.9689 124.502 92.6731C134.121 76.6749 142.454 59.5123 142.454 48.0401C142.454 21.1216 120.684 -1.20499 93.5684 0.182193C76.6589 -1.43788 61.3037 7.90791 52.7528 21.7798C45.8826 32.9178 42.3691 48.2983 46.1206 61.0564C50.7833 76.8875 60.5797 90.891 72.71 109.876C47.3204 147.578 28.396 184.177 0.799081 219.955C0.478522 220.355 0.246111 220.818 0.117096 221.314C-0.0119198 221.81 -0.0346238 222.327 0.0504721 222.833C0.135568 223.338 0.326541 223.82 0.610864 224.246C0.895186 224.672 1.26643 225.034 1.70025 225.306L4.73788 230.577ZM174.916 202.605C172.78 199.978 170.891 195.831 171.995 192.075C173.301 187.619 178.323 184.648 183.563 181.544C189.097 178.264 196.504 172.927 196.929 164.533C197.845 146.687 172.815 145.71 177.316 128.234C181.037 113.835 198.802 115.921 203.232 126.041C204.548 129.039 205.004 132.572 207.302 135.899C209.5 139.063 213.641 141.316 217.732 140.521C215.352 158.104 213.023 176.147 211.343 194.722C211.301 195.373 211.432 196.022 211.722 196.606C203.419 201.864 195.026 206.978 186.545 211.946C185.351 210.493 178.901 207.506 174.916 202.605ZM234.332 67.9214C250.047 78.2899 265.048 88.0356 282.833 99.5331C270.84 106.794 261.078 117.218 254.619 129.661C252.938 132.932 251.009 137.296 251.004 142.055C251.004 147.624 253.834 152.631 258.213 154.813C268.592 160.002 279.856 147.619 284.879 153.208C286.078 154.55 285.106 155.724 282.337 158.676C277.578 164.022 275.664 172.229 277.69 178.638C280.15 186.42 286.843 186.982 291.273 187.351C295.682 187.716 297.176 187.781 299.56 192.181C301.97 196.611 304.385 204.038 312.319 205.121C313.559 214.852 314.855 224.815 316.252 235.346C281.33 220.082 252.908 205.136 219.073 193.781C223.093 150.479 230.287 111.441 234.332 67.9214ZM300.821 111.157C304.719 143.898 307.843 169.849 311.25 196.732C309.159 195.122 308 191.821 306.238 188.556C302.289 181.306 298.219 180.314 291.911 179.782C287.071 179.377 285.749 178.932 284.924 176.35C283.709 172.492 285.036 167.065 288.012 163.728C292.351 158.939 292.792 157.137 292.959 154.96C293.404 149.026 287.785 144.328 281.8 144.126C273.523 143.933 266.511 150.479 261.605 148.024C259.833 147.138 258.598 144.682 258.598 142.06C258.613 134.633 269.933 114.924 289.663 104.322C289.764 104.272 289.82 104.171 289.916 104.115L298.568 109.704L300.821 111.157ZM226.784 67.1114C224.769 88.8204 221.868 110.215 218.866 132.122C218.34 132.085 217.812 132.153 217.313 132.323C216.814 132.492 216.354 132.76 215.96 133.109C212.542 132.714 212.132 127.479 210.188 122.999C202.832 106.201 175.443 105.077 169.96 126.33C168.416 132.314 169.302 138.501 172.4 143.295C179.407 154.129 202.478 161.501 179.311 175.241C173.757 178.522 166.856 182.612 164.705 189.943C163.069 195.527 164.684 202.053 169.023 207.394C171.995 211.055 175.797 213.753 179.422 216.112C156.417 229.397 137.412 239.563 111.718 253.809C115.647 242.995 161.991 111.694 162.092 111.182C188.307 94.8551 200.782 81.4338 226.784 67.1114ZM134.86 48.0401C134.86 63.4409 114.842 95.974 95.8871 121.601C84.7441 106.535 56.9143 66.5393 56.9143 48.0401C56.9143 25.7692 74.401 7.65478 95.8871 7.65478C117.378 7.65478 134.86 25.7692 134.86 48.0401ZM63.8604 137.509C65.4602 139.088 65.1463 138.177 86.0857 143.022C89.2094 143.7 92.4445 144.409 94.9657 145.958C97.9021 147.766 100.12 151.446 97.5832 153.76C95.5378 155.663 93.5785 152.18 89.9992 149.619C84.7846 145.903 76.2438 147.857 76.178 154.443C76.1527 156.61 77.1854 158.195 77.3728 158.964C77.5905 159.891 75.3477 161.673 72.5024 162.356L71.4747 162.61C67.3638 163.571 61.734 164.898 59.4558 170.062C55.4765 179.099 66.9638 187.311 64.4476 191.123C63.6629 192.307 60.9746 192.54 57.4459 191.74C49.7626 189.966 42.3968 187.024 35.6053 183.017C46.5307 165.86 53.1476 154.656 63.8604 137.509ZM31.5096 189.422C39.4935 194.13 53.2995 199.805 61.1113 199.805C70.3255 199.805 76.4058 192.181 68.9484 180.365C64.3059 173.039 65.4045 171.844 73.2112 170.006L74.2946 169.748C81.5242 167.996 87.0983 162.493 84.1264 155.365C86.916 155.517 89.6144 161.288 95.5074 161.881C98.0894 162.149 100.646 161.253 102.697 159.374C108.873 153.75 106.706 144.262 98.94 139.493C94.4139 136.709 91.2143 136.369 67.789 131.251C70.8419 126.441 73.9757 121.637 77.1652 116.848C80.6585 122.315 82.9721 126.366 86.2275 129.074C88.8601 131.261 92.4141 132.628 95.7454 131.838C100.013 130.826 102.732 126.765 105.02 123.029C106.539 120.538 108.058 118.047 109.587 115.557C113.318 110.229 116.927 104.817 120.411 99.3255C130.703 102.667 140.854 106.069 154.027 111.486C136.5 159.607 120.583 207.399 103.238 254.954C64.6501 241.067 48.6368 234.333 9.97274 220.446C17.6883 210.189 24.766 199.8 31.5096 189.422Z" fill="black"/>
</svg>
