<svg width="512" height="478" viewBox="0 0 512 478" fill="none" xmlns="http://www.w3.org/2000/svg">
<path d="M503.467 426.666H8.533C7.41232 426.666 6.30255 426.886 5.2671 427.315C4.23165 427.743 3.29082 428.372 2.49838 429.164C1.70594 429.957 1.07742 430.898 0.648734 431.933C0.22005 432.969 -0.000393685 434.078 5.27784e-07 435.199V469.333C-0.000393685 470.454 0.22005 471.563 0.648734 472.599C1.07742 473.634 1.70594 474.575 2.49838 475.368C3.29082 476.16 4.23165 476.789 5.2671 477.217C6.30255 477.646 7.41232 477.866 8.533 477.866H503.466C504.587 477.867 505.697 477.647 506.733 477.219C507.768 476.79 508.71 476.162 509.502 475.369C510.295 474.577 510.923 473.635 511.352 472.6C511.78 471.564 512 470.454 511.999 469.333V435.2C512 434.079 511.781 432.969 511.352 431.933C510.924 430.897 510.296 429.956 509.503 429.163C508.711 428.371 507.77 427.742 506.734 427.313C505.698 426.885 504.588 426.665 503.467 426.666ZM494.933 460.8H17.067V443.733H494.934L494.933 460.8ZM503.211 142.993L477.611 40.593C477.147 38.7486 476.081 37.1117 474.582 35.9416C473.083 34.7715 471.236 34.135 469.334 34.133H42.667C40.7648 34.1336 38.9173 34.7695 37.4178 35.9399C35.9183 37.1102 34.8526 38.7479 34.39 40.593L8.79 142.993C8.47616 144.251 8.45293 145.564 8.72207 146.833C8.99121 148.101 9.54566 149.292 10.3434 150.314C11.1411 151.336 12.1611 152.163 13.326 152.733C14.491 153.302 15.7703 153.599 17.067 153.6H494.934C497.562 153.6 500.037 152.388 501.658 150.315C503.279 148.242 503.851 145.544 503.211 142.993ZM27.998 136.533L49.331 51.2H462.669L484.002 136.533H27.998Z" fill="black"/>
<path d="M281.6 145.066V162.133C281.6 176.247 270.114 187.733 256 187.733C241.886 187.733 230.4 176.247 230.4 162.133V145.066H213.333V162.133C213.333 185.659 232.473 204.8 256 204.8C279.526 204.8 298.667 185.66 298.667 162.133V145.066H281.6Z" fill="black"/>
<path d="M213.333 145.066V162.133C213.333 176.247 201.847 187.733 187.733 187.733C173.619 187.733 162.133 176.247 162.133 162.133V145.066H145.066V162.133C145.066 185.659 164.206 204.8 187.733 204.8C211.259 204.8 230.4 185.66 230.4 162.133V145.066H213.333Z" fill="black"/>
<path d="M145.067 145.066V162.133C145.067 176.247 133.581 187.733 119.467 187.733C105.353 187.733 93.8668 176.247 93.8668 162.133V145.066H76.7998V162.133C76.7998 185.659 95.9398 204.8 119.467 204.8C142.994 204.8 162.134 185.66 162.134 162.133V145.066H145.067Z" fill="black"/>
<path d="M76.8002 145.066V162.133C76.8002 176.247 65.3142 187.733 51.2002 187.733C37.0862 187.733 25.6002 176.247 25.6002 162.133V145.066H8.5332V162.133C8.5332 185.659 27.6732 204.8 51.2002 204.8C74.7262 204.8 93.8672 185.66 93.8672 162.133V145.066H76.8002ZM486.4 145.066V162.133C486.4 176.247 474.914 187.733 460.8 187.733C446.686 187.733 435.2 176.247 435.2 162.133V145.066H418.133V162.133C418.133 185.659 437.273 204.8 460.8 204.8C484.326 204.8 503.467 185.66 503.467 162.133V145.066H486.4Z" fill="black"/>
<path d="M418.133 145.066V162.133C418.133 176.247 406.647 187.733 392.533 187.733C378.419 187.733 366.933 176.247 366.933 162.133V145.066H349.866V162.133C349.866 185.659 369.006 204.8 392.533 204.8C416.059 204.8 435.2 185.66 435.2 162.133V145.066H418.133Z" fill="black"/>
<path d="M349.867 145.066V162.133C349.867 176.247 338.381 187.733 324.267 187.733C310.153 187.733 298.667 176.247 298.667 162.133V145.066H281.6V162.133C281.6 185.659 300.74 204.8 324.267 204.8C347.793 204.8 366.934 185.66 366.934 162.133V145.066H349.867ZM213.333 42.666H230.4V145.066H213.333V42.666Z" fill="black"/>
<path d="M281.6 42.666H298.667V145.066H281.6V42.666ZM145.093 144.368L153.62 41.993L170.626 43.41L162.099 145.786L145.093 144.368ZM76.916 143.667L94.006 41.257L110.84 44.067L93.751 146.476L76.916 143.667ZM341.33 43.383L358.327 41.967L366.854 144.343L349.857 145.759L341.33 43.383ZM401.192 44.063L418.027 41.258L435.094 143.663L418.259 146.469L401.192 44.063Z" fill="black"/>
<path d="M469.333 5.27618e-07H42.6668C40.404 0.000795672 38.234 0.900062 36.6339 2.50014C35.0339 4.10021 34.1346 6.27015 34.1338 8.533V42.666H51.1998V17.066H460.8V42.666H477.867V8.533C477.867 7.41227 477.647 6.30248 477.218 5.26702C476.789 4.23157 476.16 3.29075 475.368 2.49832C474.575 1.70589 473.634 1.07739 472.599 0.648715C471.563 0.220043 470.454 -0.000393617 469.333 5.27618e-07ZM34.1328 196.266H51.1998V426.666H34.1328V196.266ZM460.8 196.266H477.867V435.199H460.8V196.266ZM315.733 238.933H76.7998C75.6791 238.933 74.5694 239.153 73.5339 239.582C72.4985 240.01 71.5576 240.639 70.7652 241.431C69.9728 242.224 69.3442 243.165 68.9155 244.2C68.4869 245.236 68.2664 246.345 68.2668 247.466V383.999C68.2664 385.12 68.4869 386.229 68.9155 387.265C69.3442 388.3 69.9728 389.241 70.7652 390.034C71.5576 390.826 72.4985 391.455 73.5339 391.883C74.5694 392.312 75.6791 392.532 76.7998 392.532H315.733C316.854 392.533 317.964 392.313 319 391.885C320.035 391.456 320.976 390.828 321.769 390.035C322.561 389.243 323.19 388.301 323.618 387.266C324.047 386.23 324.267 385.12 324.266 383.999V247.466C324.267 246.345 324.047 245.235 323.619 244.199C323.19 243.163 322.562 242.222 321.769 241.43C320.977 240.637 320.035 240.009 319 239.58C317.964 239.152 316.854 238.932 315.733 238.933ZM307.2 375.466H85.3328V256H307.2V375.466ZM435.2 238.933H349.867C348.746 238.932 347.636 239.152 346.6 239.58C345.564 240.009 344.623 240.637 343.831 241.43C343.038 242.222 342.41 243.164 341.981 244.199C341.553 245.235 341.333 246.345 341.334 247.466V435.199C341.333 436.32 341.553 437.43 341.981 438.466C342.41 439.501 343.038 440.443 343.831 441.235C344.623 442.028 345.564 442.656 346.6 443.085C347.636 443.513 348.746 443.733 349.867 443.732H435.2C436.321 443.733 437.431 443.513 438.466 443.085C439.502 442.656 440.443 442.028 441.236 441.235C442.028 440.443 442.657 439.501 443.085 438.466C443.514 437.43 443.734 436.32 443.733 435.199V247.466C443.734 246.345 443.514 245.235 443.085 244.199C442.657 243.164 442.028 242.222 441.236 241.43C440.443 240.637 439.502 240.009 438.466 239.58C437.431 239.152 436.321 238.932 435.2 238.933ZM426.667 426.666H358.4V256H426.667V426.666Z" fill="black"/>
<path d="M121.995 309.695L156.128 275.561L168.197 287.63L134.063 321.763L121.995 309.695ZM139.054 343.804L215.852 267.005L227.92 279.073L151.122 355.873L139.054 343.804ZM198.75 343.836L232.884 309.702L244.952 321.77L210.819 355.904L198.75 343.836Z" fill="black"/>
</svg>
