<svg width="502" height="498" viewBox="0 0 502 498" fill="none" xmlns="http://www.w3.org/2000/svg">
<path d="M13.312 486.912H5.12C2.048 486.912 0 488.96 0 492.032C0 495.104 2.048 497.152 5.12 497.152H13.312C16.384 497.152 18.432 495.104 18.432 492.032C18.432 488.96 16.384 486.912 13.312 486.912ZM496.64 486.912H483.328C480.256 486.912 478.208 488.96 478.208 492.032C478.208 495.104 480.256 497.152 483.328 497.152H496.64C499.712 497.152 501.76 495.104 501.76 492.032C501.76 488.96 499.2 486.912 496.64 486.912ZM462.848 459.264H457.728V442.88C457.728 439.808 455.68 437.76 452.608 437.76C449.536 437.76 447.488 439.808 447.488 442.88V459.264H196.608V292.864C196.608 285.696 190.976 280.064 183.808 280.064H97.28C90.112 280.064 84.48 285.696 84.48 292.864V459.264H53.76V219.648C53.76 216.576 51.712 214.528 48.64 214.528C45.568 214.528 43.52 216.576 43.52 219.648V459.264H38.912C32.768 459.264 27.648 464.384 27.648 470.528V486.4C27.648 488.448 28.16 490.496 29.184 492.032C29.184 495.104 31.232 497.152 34.304 497.152H463.36C468.48 496.64 472.576 491.52 472.576 486.4V470.528C473.6 464.384 468.48 459.264 462.848 459.264ZM95.232 292.864C95.232 291.328 96.256 290.304 97.792 290.304H184.32C185.856 290.304 186.88 291.328 186.88 292.864V459.264H95.232V292.864ZM38.4 470.016C38.4 469.504 38.912 468.992 39.424 468.992H462.848C463.36 468.992 463.36 469.504 463.36 470.016V485.888C463.36 486.4 462.848 486.4 462.848 486.4H39.424C38.912 486.4 38.4 485.888 38.4 485.888V470.016ZM44.032 180.736C44.032 183.296 46.08 185.856 49.152 185.856C52.224 185.856 54.272 183.808 54.272 180.736V152.064H447.488V421.376C447.488 423.936 449.536 426.496 452.608 426.496C455.68 426.496 457.728 424.448 457.728 421.376V152.064H471.552C478.208 152.064 483.84 146.432 483.84 139.776V119.808C483.84 113.152 478.208 107.52 471.552 107.52H281.6L345.6 43.52C347.648 41.472 347.648 37.888 346.112 36.352C345.6 35.84 347.648 37.888 310.784 5.12C307.2 2.048 302.592 0 297.472 0H204.288C199.168 0 194.56 1.536 190.976 5.12L156.16 35.84C153.6 38.4 154.112 41.472 156.16 43.52L220.16 107.008H25.088C18.432 107.008 12.8 112.64 12.8 119.296V139.264C12.8 146.432 18.432 151.552 25.088 151.552H44.032V180.736ZM267.264 107.008H266.24L292.352 45.056H329.728L267.264 107.008ZM254.976 107.008H246.272L220.16 44.544H281.088L254.976 107.008ZM297.472 10.752C300.032 10.752 302.08 11.776 304.128 13.312L328.704 34.816H292.352L281.088 10.752H297.472ZM269.312 10.752L280.576 34.816H220.672L231.936 10.752H269.312ZM197.632 13.312C199.68 11.776 201.728 10.752 204.288 10.752H221.184L209.92 34.816H173.568L197.632 13.312ZM172.032 45.056H209.408L235.52 107.008H234.496L172.032 45.056ZM23.04 139.264V119.296C23.04 118.272 24.064 117.248 25.088 117.248H472.064C473.088 117.248 474.112 118.272 474.112 119.296V139.264C474.112 140.288 473.088 141.312 472.064 141.312H25.6C24.064 141.312 23.04 140.8 23.04 139.264Z" fill="black"/>
<path d="M165.376 357.888C162.304 357.888 160.256 359.936 160.256 363.008V386.56C160.256 389.632 162.304 391.68 165.376 391.68C168.448 391.68 170.496 389.632 170.496 386.56V363.008C170.496 360.448 167.936 357.888 165.376 357.888ZM234.496 200.192C227.328 200.192 221.184 205.824 221.184 212.992V406.016C221.184 413.184 226.816 418.816 233.984 418.816H416.256C423.424 418.816 429.568 413.184 429.568 406.016V212.992C429.568 205.824 423.936 199.68 416.768 199.68L234.496 200.192ZM419.328 213.504V406.528C419.328 408.064 417.792 409.088 416.256 409.088H233.984C232.448 409.088 231.424 407.552 231.424 406.528V213.504C231.424 211.968 232.96 210.944 234.496 210.944H416.768C418.304 210.432 419.328 211.968 419.328 213.504Z" fill="black"/>
<path d="M397.824 288.768C368.64 285.184 355.84 261.632 355.84 236.032V233.984C355.84 229.376 351.744 225.28 347.136 225.28H304.128C299.52 225.28 295.424 228.864 295.424 233.984V236.032C295.424 255.488 286.72 276.992 266.752 285.184C266.24 285.184 265.728 285.696 265.216 285.696C261.632 286.72 258.048 287.744 253.952 288.256C251.392 288.768 249.344 290.816 249.344 293.376C249.344 294.4 249.856 376.832 323.072 393.216C324.096 393.728 325.12 393.728 326.144 393.728C327.168 393.728 328.192 393.728 329.216 393.216C401.92 376.832 402.432 294.4 402.432 293.888C402.432 291.328 400.384 288.768 397.824 288.768ZM366.08 309.248C368.64 309.248 370.688 311.296 370.688 313.856C370.688 316.416 368.64 318.464 366.08 318.464C363.52 318.464 361.472 316.416 361.472 313.856C361.472 311.296 363.52 309.248 366.08 309.248ZM305.664 235.52H345.6V239.616H305.152V238.592C305.664 237.568 305.664 236.544 305.664 235.52ZM304.128 249.856H347.648C350.208 263.68 357.376 282.112 375.296 291.84C374.784 294.912 373.76 297.472 372.224 300.032C370.176 299.008 368.128 299.008 366.08 299.008C357.888 299.008 351.232 305.664 351.232 313.856V315.392C348.672 316.416 346.112 316.928 343.552 317.952C340.48 310.784 333.824 306.176 326.144 306.176C317.952 306.176 310.784 311.296 308.224 318.464C305.664 317.952 303.104 317.44 300.544 316.416C300.544 308.224 293.888 301.568 285.696 301.568C283.136 301.568 280.576 302.08 278.528 303.104C275.968 300.032 274.432 296.96 273.408 293.376C293.376 284.16 301.056 264.704 304.128 249.856ZM318.464 320C322.048 315.392 329.216 315.392 332.8 320C334.336 321.536 334.848 323.584 334.848 325.632C334.848 327.168 334.336 328.704 333.312 330.24C331.776 332.8 328.704 334.336 325.632 334.336C322.56 334.336 320 332.8 317.952 330.24C315.904 327.168 315.904 323.072 318.464 320ZM285.184 321.536H284.16C283.136 321.536 282.112 320.512 281.6 320C280.576 318.976 280.576 317.952 280.576 316.928C280.576 314.368 282.624 312.32 285.184 312.32C287.744 312.32 289.792 314.368 289.792 316.928C289.792 318.976 287.744 321.536 285.184 321.536ZM326.656 383.488H324.608C267.776 370.176 260.096 313.856 259.072 297.984C260.608 297.984 261.632 297.472 263.168 296.96C264.192 302.08 267.264 306.688 270.848 310.784C270.336 312.32 269.824 314.368 269.824 316.416C269.824 324.608 276.48 331.264 284.672 331.264C289.28 331.264 293.376 329.216 295.936 326.144C299.008 327.168 302.592 328.192 306.176 328.704C307.712 337.408 315.392 344.576 325.12 344.576C334.848 344.576 342.528 337.408 344.064 328.192C348.16 327.168 351.744 326.144 355.328 324.608C357.888 327.168 361.472 328.704 365.568 328.704C373.76 328.704 380.416 322.048 380.416 313.856C380.416 311.296 379.904 309.248 378.88 307.2C381.44 303.616 382.976 300.032 384 295.936C386.048 296.448 388.608 297.472 391.168 297.984C390.656 314.368 382.464 370.688 326.656 383.488Z" fill="black"/>
</svg>
