<svg width="254" height="250" viewBox="0 0 254 250" fill="none" xmlns="http://www.w3.org/2000/svg">
<path d="M127.72 0.5C137.092 0.500049 146.371 2.35142 155.025 5.94824C163.409 9.43278 171.047 14.4888 177.526 20.8408L178.149 21.46C191.043 34.4603 198.789 51.6921 199.953 69.9648V69.9678C201.129 87.32 195.719 104.971 184.705 119.657V119.658L167.211 143.047L166.612 143.847H219.541C220.153 143.847 220.749 144.043 221.242 144.405C221.735 144.768 222.1 145.279 222.282 145.863L253.369 245.456C253.503 245.886 253.534 246.342 253.46 246.786C253.386 247.23 253.208 247.65 252.941 248.013C252.675 248.375 252.326 248.671 251.924 248.874C251.522 249.077 251.078 249.184 250.628 249.184H3.37207C2.9154 249.184 2.46474 249.074 2.05859 248.865C1.65254 248.656 1.30183 248.354 1.03613 247.982C0.770551 247.611 0.596849 247.182 0.530273 246.73C0.463707 246.279 0.505969 245.817 0.65332 245.385L34.6191 145.79C34.8125 145.223 35.1788 144.731 35.666 144.382C36.1533 144.033 36.7376 143.845 37.3369 143.845H88.8242L88.2266 143.046L70.7275 119.652C59.7494 104.592 54.3506 86.9543 55.4844 69.96V69.959C56.6498 51.6883 64.3964 34.4582 77.2891 21.46C83.9002 14.817 91.7587 9.54518 100.413 5.94824C109.067 2.35131 118.348 0.5 127.72 0.5ZM23.4717 196.273L7.61133 242.78L7.38574 243.441H81.9863L82.0137 242.97L84.6406 196.463L84.6699 195.935H23.5869L23.4717 196.273ZM39.2764 149.929L25.7695 189.528L25.5439 190.189H87.7119C88.1025 190.189 88.4889 190.269 88.8477 190.424C89.2065 190.578 89.5305 190.805 89.7988 191.089C90.0671 191.373 90.2751 191.708 90.4092 192.075C90.5433 192.442 90.6011 192.833 90.5791 193.223L87.7686 242.912L87.7393 243.439H124.025V212.922C124.025 212.16 124.328 211.43 124.866 210.892C125.405 210.353 126.135 210.05 126.896 210.05H236.304L236.102 209.401L228.502 185.058L228.393 184.707H175.651L175.396 184.695C174.805 184.643 174.243 184.408 173.788 184.021C173.268 183.577 172.923 182.963 172.815 182.289L167.65 150.011L167.583 149.59H162.316L162.166 149.791L130.019 192.766C129.751 193.123 129.404 193.413 129.005 193.613C128.606 193.813 128.166 193.918 127.72 193.918C127.273 193.918 126.833 193.813 126.434 193.613C126.034 193.413 125.687 193.123 125.42 192.766L93.2734 149.791L93.123 149.59H39.3916L39.2764 149.929ZM129.769 243.439H246.723L246.521 242.791L238.203 216.145L238.094 215.794H129.769V243.439ZM127.725 6.24707C119.11 6.24708 110.579 7.9487 102.624 11.2549C94.6688 14.5611 87.4455 19.4067 81.3682 25.5127H81.3672C69.5625 37.4163 62.4276 53.1585 61.25 69.8711H61.2461L61.2148 70.3379C60.17 86.0208 65.1975 102.32 75.3496 116.242L75.3535 116.247L127.318 185.72L127.719 186.255L128.119 185.72L180.117 116.217C190.141 102.851 195.158 86.8608 194.277 71.0986L194.231 70.3486C193.157 53.4588 185.999 37.5301 174.082 25.5127L173.509 24.9434C167.552 19.1047 160.532 14.4577 152.825 11.2549C144.87 7.94869 136.34 6.24707 127.725 6.24707ZM173.492 150.169L178.032 178.542L178.1 178.963H226.598L226.395 178.314L217.538 149.941L217.429 149.59H173.4L173.492 150.169Z" fill="black" stroke="black"/>
<path d="M127.002 20.7891C138.096 20.7892 148.916 24.2416 157.96 30.668C167.004 37.0945 173.824 46.177 177.474 56.6543C181.123 67.1315 181.422 78.485 178.328 89.1396C175.234 99.7943 168.902 109.222 160.208 116.115L160.186 116.134L160.164 116.154C159.997 116.322 159.809 116.469 159.605 116.591L159.58 116.606L159.557 116.624C150.228 123.814 138.78 127.714 127.002 127.714C115.223 127.714 103.775 123.815 94.4463 116.624L94.4229 116.606L94.3975 116.591C94.1938 116.469 94.0063 116.322 93.8389 116.154L93.8174 116.134L93.7949 116.115L92.9863 115.462C84.7083 108.632 78.6719 99.4613 75.6748 89.1396C72.5811 78.485 72.8796 67.1315 76.5293 56.6543C80.179 46.177 86.999 37.0945 96.043 30.668C105.087 24.2415 115.907 20.7891 127.002 20.7891ZM127.002 95.1035C121.216 95.1035 115.551 96.7653 110.682 99.8906C105.813 103.016 101.943 107.473 99.5332 112.733L99.3594 113.112L99.7002 113.352C107.699 118.961 117.232 121.971 127.002 121.971C136.772 121.971 146.304 118.961 154.303 113.352L154.644 113.112L154.47 112.733C152.06 107.473 148.19 103.016 143.321 99.8906C138.452 96.7654 132.788 95.1036 127.002 95.1035ZM145.884 30.4121C138.623 27.2825 130.698 26.0065 122.822 26.6992C114.946 27.3919 107.366 30.0319 100.763 34.3809C94.1597 38.7298 88.7408 44.6518 84.9941 51.6143C81.2475 58.5767 79.2899 66.3611 79.2979 74.2676L79.3018 74.876C79.3807 81.1636 80.7057 87.3757 83.2021 93.1514C85.7792 99.1133 89.5502 104.485 94.2822 108.934L94.7646 109.387L95.0684 108.799C98.0965 102.942 102.678 98.03 108.31 94.6016C113.942 91.1732 120.409 89.3604 127.002 89.3604C133.595 89.3604 140.061 91.1733 145.693 94.6016C151.325 98.03 155.906 102.942 158.935 108.799L159.239 109.388L159.722 108.933C165.475 103.51 169.79 96.7416 172.279 89.2373C174.768 81.7328 175.354 73.7269 173.981 65.9404C172.609 58.1539 169.322 50.8305 164.418 44.6289C159.513 38.4273 153.145 33.5417 145.884 30.4121Z" fill="black" stroke="black"/>
<path d="M119.453 45.7915C123.058 44.2982 127.025 43.9072 130.853 44.6685C134.68 45.4297 138.196 47.3095 140.955 50.0688C143.714 52.8281 145.593 56.3434 146.354 60.1704C147.116 63.9977 146.725 67.9646 145.231 71.5698C143.738 75.175 141.209 78.2564 137.965 80.4243C134.72 82.5922 130.906 83.7494 127.004 83.7495L126.515 83.7427C121.461 83.6119 116.642 81.5478 113.059 77.9644C109.36 74.2656 107.279 69.2507 107.273 64.02C107.273 60.1178 108.431 56.3027 110.599 53.0581C112.767 49.8136 115.848 47.2848 119.453 45.7915ZM127.003 50.0327C123.295 50.0369 119.74 51.5123 117.118 54.1343C114.496 56.7563 113.021 60.311 113.017 64.019V64.02C113.017 66.7862 113.837 69.4905 115.374 71.7905C116.911 74.0905 119.096 75.8833 121.651 76.9419C124.207 78.0004 127.019 78.2774 129.732 77.7378C132.445 77.1981 134.938 75.8657 136.894 73.9097C138.85 71.9536 140.182 69.4616 140.722 66.7485C141.261 64.0355 140.984 61.2231 139.926 58.6675C138.867 56.1118 137.074 53.927 134.774 52.3901C132.474 50.8533 129.77 50.0328 127.004 50.0327H127.003Z" fill="black" stroke="black"/>
</svg>
