<svg width="325" height="491" viewBox="0 0 325 491" fill="none" xmlns="http://www.w3.org/2000/svg">
<path d="M231.247 185.149C227.612 182.749 224.66 179.448 222.682 175.567C221.93 174.209 221.716 172.618 222.082 171.109C222.448 169.601 223.369 168.285 224.66 167.424C225.363 166.983 226.149 166.692 226.97 166.57C227.79 166.448 228.627 166.498 229.428 166.716C230.228 166.933 230.975 167.315 231.62 167.836C232.266 168.357 232.796 169.006 233.178 169.743C234.2 171.866 235.749 173.691 237.678 175.043C238.529 175.598 239.226 176.36 239.705 177.256C240.183 178.153 240.428 179.156 240.415 180.172C240.4 181.234 240.103 182.273 239.553 183.182C239.004 184.091 238.222 184.838 237.288 185.345C236.355 185.851 235.303 186.1 234.241 186.066C233.179 186.032 232.146 185.715 231.247 185.149ZM132.302 168.917C130.837 168.917 129.423 168.381 128.327 167.41C127.23 166.44 126.526 165.101 126.347 163.647C126.169 162.194 126.529 160.725 127.358 159.518C128.188 158.311 129.431 157.449 130.852 157.095C131.397 156.925 131.884 156.609 132.261 156.18C132.637 155.751 132.888 155.227 132.985 154.665C133.074 153.881 133.317 153.122 133.7 152.432C134.082 151.742 134.598 151.134 135.216 150.643C135.834 150.152 136.542 149.788 137.301 149.572C138.06 149.355 138.854 149.291 139.638 149.381C140.422 149.472 141.181 149.717 141.87 150.102C142.559 150.486 143.166 151.003 143.655 151.622C144.144 152.241 144.506 152.951 144.721 153.71C144.935 154.47 144.998 155.264 144.905 156.048C144.522 159.032 143.257 161.834 141.272 164.094C139.286 166.355 136.672 167.971 133.762 168.737C133.285 168.856 132.794 168.917 132.302 168.917ZM91.6531 195.602C90.1931 195.606 88.7452 195.337 87.3841 194.809C85.9327 194.215 84.7716 193.076 84.1496 191.636C83.5276 190.196 83.4941 188.57 84.0563 187.106C84.6184 185.642 85.7315 184.456 87.1572 183.802C88.5829 183.149 90.2079 183.079 91.6841 183.609C91.8266 183.587 91.9609 183.528 92.0731 183.438C92.3632 182.705 92.7948 182.037 93.3432 181.471C93.8915 180.905 94.546 180.453 95.2692 180.14C95.9924 179.827 96.7701 179.66 97.558 179.647C98.3459 179.635 99.1285 179.778 99.8611 180.068C100.594 180.358 101.262 180.79 101.828 181.338C102.394 181.886 102.846 182.541 103.159 183.264C103.472 183.987 103.639 184.765 103.652 185.553C103.664 186.341 103.521 187.123 103.231 187.856C102.025 190.856 99.6821 193.257 96.7131 194.537C95.1182 195.238 93.3953 195.6 91.6531 195.602ZM127.568 205.956C126.712 205.957 125.857 205.868 125.019 205.691C123.471 205.353 122.119 204.416 121.26 203.084C120.4 201.753 120.102 200.136 120.431 198.585C120.759 197.035 121.688 195.678 123.014 194.81C124.339 193.941 125.955 193.633 127.507 193.952C127.823 193.961 128.132 193.858 128.379 193.661C128.649 193.498 128.855 193.248 128.962 192.951C129.073 192.163 129.34 191.405 129.747 190.721C130.154 190.037 130.693 189.441 131.333 188.967C131.972 188.494 132.7 188.152 133.473 187.962C134.246 187.773 135.049 187.738 135.835 187.862C136.621 187.986 137.375 188.264 138.052 188.682C138.73 189.1 139.317 189.648 139.781 190.295C140.244 190.942 140.574 191.675 140.752 192.451C140.93 193.226 140.951 194.03 140.815 194.814C140.515 196.574 139.862 198.255 138.894 199.756C137.927 201.256 136.665 202.545 135.185 203.544C132.948 205.098 130.292 205.939 127.568 205.956ZM116.598 147.16C115.133 147.16 113.719 146.624 112.623 145.653C111.526 144.683 110.822 143.344 110.643 141.89C110.465 140.437 110.825 138.968 111.654 137.761C112.484 136.554 113.727 135.692 115.148 135.338L119.202 134.324C119.967 134.133 120.761 134.094 121.54 134.21C122.32 134.326 123.069 134.595 123.744 135C124.42 135.405 125.009 135.94 125.478 136.573C125.947 137.206 126.287 137.926 126.478 138.69C126.669 139.454 126.708 140.249 126.592 141.028C126.476 141.808 126.207 142.557 125.802 143.232C125.397 143.908 124.862 144.497 124.229 144.966C123.596 145.435 122.877 145.775 122.112 145.966L118.058 146.979C117.581 147.099 117.09 147.16 116.598 147.16ZM77.7771 175.442C76.7966 175.442 75.831 175.201 74.9649 174.741C74.0988 174.282 73.3586 173.617 72.8091 172.805C72.2595 171.992 71.9174 171.058 71.8127 170.083C71.7079 169.108 71.8437 168.122 72.2081 167.212L73.2221 164.679C73.5085 163.939 73.9388 163.263 74.4882 162.69C75.0375 162.118 75.695 161.66 76.4226 161.343C77.1501 161.026 77.9333 160.857 78.7267 160.845C79.5202 160.833 80.3081 160.978 81.045 161.273C81.7818 161.567 82.4529 162.005 83.0194 162.561C83.5859 163.117 84.0365 163.779 84.3452 164.51C84.6539 165.241 84.8145 166.026 84.8178 166.82C84.821 167.613 84.6668 168.399 84.3641 169.133L83.3511 171.669C82.9058 172.783 82.1366 173.738 81.143 174.411C80.1494 175.083 78.977 175.443 77.7771 175.442Z" fill="black"/>
<path d="M320.91 140.326C326.885 122.302 323.222 103.168 321.958 97.737C321.922 97.5356 321.931 97.3287 321.983 97.131C328.424 69.073 315.566 40.374 287.588 20.364C272.829 9.81574 255.698 3.06618 237.71 0.711966C218.589 -1.63003 200.894 1.83097 186.54 10.725C163.313 25.116 149.496 42.657 138.394 56.751C134.894 61.199 131.784 65.134 128.754 68.524C99.9481 65.261 71.4891 79.973 52.1461 108.315C26.6911 145.615 41.7031 180.565 63.7761 200.98C9.89212 287.7 1.34413 429.936 0.00912671 472.038C-0.067676 474.448 0.340892 476.85 1.21055 479.099C2.08021 481.349 3.3932 483.4 5.0715 485.132C6.74981 486.864 8.75917 488.241 10.9802 489.181C13.2011 490.121 15.5884 490.605 18.0001 490.604H240.971C243.531 490.605 246.061 490.059 248.394 489.004C250.726 487.949 252.806 486.408 254.495 484.485C256.185 482.562 257.444 480.3 258.19 477.852C258.936 475.403 259.151 472.823 258.82 470.285C257.582 460.791 255.799 446.719 253.512 428.391C254.416 428.5 255.326 428.557 256.237 428.559C259.397 428.563 262.521 427.89 265.399 426.585C275.064 422.215 282.079 411.422 286.25 394.507C286.637 392.903 287.469 391.442 288.65 390.291C290.36 388.728 291.679 386.786 292.502 384.62C293.325 382.455 293.63 380.127 293.391 377.823C292.208 367.25 285.535 359.633 274.636 355.697C274.949 353.882 275.244 351.897 275.521 349.797C297.037 329.872 308.996 306.127 311.069 279.183C312.856 255.963 307.161 234.783 303.002 219.321C301.057 212.087 299.377 205.839 299.202 201.959C298.644 189.493 302.954 180.693 308.92 168.514C313.587 159.417 317.594 149.997 320.91 140.326ZM62.0631 115.085C79.6261 89.348 104.302 76.839 129.763 80.768C139.782 82.2752 149.226 86.3988 157.142 92.7225C165.058 99.0462 171.166 107.346 174.849 116.785C170.411 119.833 167.029 124.693 165.079 131.077C164.592 132.553 164.677 134.159 165.317 135.576C165.957 136.993 167.105 138.118 168.535 138.729C169.31 139.031 170.14 139.169 170.971 139.134C171.803 139.099 172.618 138.892 173.365 138.525C174.112 138.158 174.774 137.64 175.311 137.004C175.847 136.368 176.245 135.627 176.48 134.829C178.341 128.501 181.798 125.229 186.754 125.115C192.479 124.976 198.994 129.197 200.708 134.142C202.523 139.377 202.034 144.68 199.402 148.327C197.23 151.338 193.75 152.927 189.331 152.927H189.002C187.425 152.927 185.91 153.548 184.788 154.656C183.665 155.764 183.023 157.27 183.002 158.847C183.874 166.501 183.24 174.782 182.153 179.084C174.053 211.13 144.076 220.973 141.959 221.629C106.753 231.093 99.9901 222.777 89.7651 210.197C85.9941 205.557 81.7201 200.297 75.7251 195.454C54.3761 178.207 39.5741 148.033 62.0631 115.085ZM212.046 130.225C210.662 126.431 208.339 123.049 205.295 120.394C217.772 111.131 231.22 113 246.529 115.14C259.768 116.99 274.344 119.022 289.48 113.685C289.386 121.202 285.495 125.762 280.188 131.936C278.497 133.902 276.749 135.936 275.043 138.189C267.809 147.742 267.393 161.562 271.543 168.475C271.828 168.907 271.932 169.432 271.834 169.94C271.741 170.24 271.586 170.518 271.378 170.753C271.17 170.989 270.914 171.178 270.628 171.308C269.309 172.042 267.028 173.044 264.613 174.108C256.813 177.537 251.054 180.238 248.078 183.789C246.921 185.253 245.85 186.783 244.871 188.371C241.477 193.605 236.827 200.771 229.942 202.038C226.549 202.66 223.044 202.092 220.021 200.43C211.569 195.896 202.826 190.555 192.438 186.63C194.777 179.346 196.022 171.755 196.132 164.106C201.369 162.834 205.979 159.733 209.132 155.363C214.051 148.543 215.141 139.145 212.046 130.22V130.225ZM91.8861 254.853C96.9441 255.229 142.167 257.968 172.665 238.347C174.49 237.174 176.548 236.41 178.696 236.109C180.844 235.807 183.032 235.974 185.11 236.598C187.12 237.189 188.979 238.209 190.557 239.587C192.136 240.965 193.398 242.668 194.255 244.58C201.45 260.754 188.267 269.45 182.265 272.438C151.022 287.99 118.726 289.338 83.5351 276.553C70.8871 271.958 65.9351 265.928 66.4521 255.738C66.9101 246.669 69.1151 244.038 69.7801 243.446C69.9204 243.3 70.0915 243.187 70.281 243.116C70.4704 243.045 70.6734 243.017 70.8751 243.034C73.6751 243.152 75.1061 241.185 76.6681 240.268C77.349 240.007 78.0958 239.972 78.7981 240.168C79.3171 240.402 80.6761 241.987 81.3491 245.934C82.1741 250.785 86.5101 254.452 91.8861 254.853ZM83.1281 228.972C83.5451 226.918 84.0793 224.89 84.7281 222.897C91.7651 230.947 100.078 237.619 116.95 237.619C123.889 237.619 132.302 236.47 142.641 233.845C143.16 235.145 143.661 236.487 144.157 237.895C121.114 244.524 97.1571 243.195 92.9871 242.901C91.5621 235.915 88.0101 230.908 83.1281 228.972ZM187.61 283.185C201.564 276.239 214.548 260.685 205.218 239.708C203.657 236.215 201.359 233.101 198.48 230.581C195.602 228.061 192.212 226.194 188.543 225.108C184.808 223.987 180.873 223.688 177.011 224.233C173.149 224.778 169.451 226.152 166.171 228.263C162.766 230.434 159.187 232.32 155.471 233.9C154.97 232.475 154.442 231.061 153.887 229.656C160.286 226.533 166.248 222.586 171.623 217.916C178.186 212.212 183.651 205.355 187.746 197.685C252.846 222.085 264.664 278.513 265.828 310.48C266.011 324.735 265.041 338.981 262.928 353.08C258.772 352.634 254.587 352.528 250.414 352.761C248.303 352.874 238.322 349.595 233.487 348.421C218.093 344.683 189.439 337.726 173.987 313.757C171.955 310.603 170.113 301.179 168.342 291.089C174.951 288.933 181.391 286.291 187.61 283.185ZM245.481 476.567C244.921 477.213 244.228 477.73 243.449 478.082C242.67 478.435 241.824 478.614 240.969 478.609H18.0041C17.2001 478.61 16.4039 478.45 15.6631 478.137C14.9223 477.825 14.2521 477.366 13.6922 476.789C13.1323 476.212 12.6944 475.528 12.4043 474.778C12.1143 474.028 11.9782 473.228 12.0041 472.424C13.3041 431.37 21.5521 293.402 72.8911 209.097C73.9791 210.203 75.0188 211.321 76.0101 212.452C73.2543 218.335 71.4254 224.609 70.5881 231.052C67.3419 231.094 64.2213 232.313 61.8071 234.484C57.3691 238.426 54.9681 245.184 54.4651 255.141C53.4321 275.588 68.5841 283.564 76.6241 286.778C82.9679 306.596 92.8901 325.085 105.899 341.326C102.737 343.481 99.8777 346.05 97.3991 348.966C89.8041 357.886 82.6891 369.047 76.9711 378.016C73.1301 384.042 69.4771 389.772 66.8641 392.924C66.4571 392.984 66.0021 393.044 65.6141 393.096C59.7371 393.879 47.5141 395.508 44.0141 406.009C40.9041 415.356 43.5661 424.392 51.3141 430.801C57.1804 435.522 64.4614 438.138 71.9911 438.23C75.358 438.31 78.6936 437.568 81.7091 436.068C86.8281 433.768 93.2631 432.044 100.699 430.05C116.042 425.938 135.137 420.819 152.15 407.376C153.447 406.382 154.953 405.698 156.554 405.375C158.156 405.052 159.81 405.099 161.39 405.512C166.321 406.755 188.776 411.7 203.112 411.7C210.963 411.735 218.793 410.908 226.463 409.234C230.36 414.766 235.214 419.558 240.795 423.385C243.476 444.927 245.538 461.232 246.922 471.838C247.037 472.683 246.968 473.542 246.72 474.357C246.471 475.173 246.049 475.925 245.483 476.562L245.481 476.567ZM106.535 356.738C108.625 354.281 111.088 352.168 113.835 350.477C128.991 366.593 147.999 379.386 170.135 388.485C170.03 390.691 169.781 392.888 169.389 395.061C167.789 394.705 166.03 394.295 164.336 393.868C160.972 393.011 157.456 392.933 154.057 393.641C150.659 394.349 147.466 395.824 144.724 397.953C129.652 409.862 112.624 414.425 97.6061 418.453C89.8971 420.519 82.6151 422.471 76.5631 425.225C76.4111 425.293 76.2631 425.369 76.1171 425.45C73.1361 427.12 64.6171 426.216 58.9741 421.55C55.0301 418.289 53.8631 414.443 55.4101 409.794C56.5361 406.41 63.4781 405.484 67.2101 404.988C70.4101 404.562 72.7191 404.253 74.5571 402.337C78.0051 398.732 82.0191 392.437 87.1011 384.463C92.8971 375.351 99.4781 365.027 106.535 356.738ZM181.11 397.604C181.407 396.026 181.643 394.442 181.819 392.851C190.015 395.604 198.372 397.853 206.842 399.586C198.218 399.868 189.589 399.203 181.11 397.604ZM280.082 378.435C280.87 384.696 275.538 387.809 274.596 391.635C271.442 404.423 266.42 412.952 260.452 415.651C257.252 417.099 253.722 416.84 249.96 414.883C242.635 411.072 237.181 403.836 234.582 399.862C232.114 396.091 228.094 390.968 221.687 390.024C178.13 383.602 142.535 365.624 118.752 338.03C106.913 324.255 97.533 308.546 91.0221 291.59C103.585 295.28 116.602 297.192 129.695 297.269C138.784 297.268 147.845 296.262 156.713 294.269C158.994 307.112 160.844 315.523 163.893 320.252C181.941 348.252 213.626 355.943 230.648 360.076C234.341 360.976 246.958 364.945 251.027 364.74C269.71 363.185 279.083 370.476 280.085 378.435H280.082ZM287.213 202.496C287.445 207.687 289.196 214.196 291.413 222.437C298.546 248.962 310.018 291.676 277.332 330.559C277.818 322.814 278.012 315.359 277.818 310.04C276.868 283.962 269.418 243.005 236.076 212.74C245.619 209.24 250.851 200.07 254.938 194.894C257.208 192.02 265.946 186.623 269.438 185.088C272.238 183.86 274.647 182.799 276.458 181.788C278.105 180.822 279.543 179.536 280.686 178.007C281.83 176.477 282.657 174.735 283.118 172.882C283.63 171.121 283.779 169.274 283.557 167.454C283.336 165.633 282.747 163.877 281.828 162.29C280.478 160.042 280.128 151.339 284.606 145.426C286.088 143.469 287.713 141.579 289.283 139.752C295.864 132.099 303.241 123.505 301.093 108.063C302.197 107.379 303.28 106.662 304.341 105.914C305.64 104.994 306.52 103.597 306.789 102.028C307.057 100.459 306.691 98.8484 305.772 97.5495C304.852 96.2506 303.454 95.3701 301.886 95.1019C300.317 94.8336 298.706 95.1995 297.407 96.119C280.881 107.819 265 105.599 248.187 103.248C230.137 100.726 211.492 98.12 194.006 114.153C191.558 113.434 189.016 113.087 186.465 113.124C186.412 113.124 186.365 113.133 186.309 113.134C182.594 103.271 176.682 94.3828 169.022 87.1437C161.361 79.9045 152.153 74.5042 142.096 71.352C143.972 69.052 145.871 66.652 147.821 64.175C158.341 50.82 171.433 34.201 192.861 20.923C216.483 6.28697 252.561 10.07 280.599 30.123C304.505 47.223 315.599 71.266 310.279 94.441C309.813 96.4169 309.807 98.4734 310.262 100.452C311.347 105.115 314.501 121.499 309.512 136.552C306.362 145.707 302.563 154.625 298.142 163.238C291.91 175.969 286.521 186.967 287.216 202.496H287.213Z" fill="black"/>
<path d="M258.486 147.013C258.252 147.013 258.018 147 257.786 146.973C253.861 146.483 250.234 144.628 247.539 141.734C244.844 138.84 243.252 135.09 243.042 131.141C242.985 130.355 243.083 129.566 243.331 128.818C243.579 128.07 243.972 127.378 244.487 126.782C245.002 126.186 245.63 125.697 246.334 125.343C247.039 124.99 247.805 124.779 248.591 124.721C250.179 124.606 251.747 125.126 252.95 126.167C254.154 127.207 254.896 128.684 255.011 130.271C255.005 131.436 255.423 132.563 256.187 133.443C256.951 134.323 258.008 134.895 259.163 135.052C260.685 135.226 262.082 135.976 263.069 137.148C264.056 138.32 264.557 139.825 264.47 141.354C264.383 142.883 263.714 144.322 262.601 145.374C261.487 146.426 260.014 147.012 258.482 147.013H258.486ZM279.838 123.817C278.452 123.819 277.108 123.339 276.038 122.458C274.938 121.579 270.99 119.073 267.714 119.321C266.928 119.382 266.138 119.288 265.389 119.044C264.64 118.8 263.946 118.411 263.347 117.898C262.138 116.864 261.389 115.391 261.266 113.805C261.142 112.218 261.654 110.648 262.688 109.439C263.723 108.229 265.195 107.481 266.782 107.357C275.462 106.686 282.832 112.51 283.646 113.177C284.603 113.961 285.294 115.023 285.624 116.215C285.954 117.408 285.908 118.674 285.491 119.839C285.074 121.004 284.307 122.012 283.295 122.724C282.283 123.436 281.075 123.818 279.838 123.817ZM91.5099 132.932C90.3995 131.792 88.8819 131.14 87.2909 131.119C85.6998 131.099 84.1657 131.711 83.0259 132.821C82.4641 133.368 81.7474 133.729 80.9734 133.854C80.1993 133.979 79.4055 133.863 78.6999 133.521C77.9943 133.179 77.4112 132.627 77.0301 131.942C76.649 131.257 76.4883 130.471 76.5699 129.691C76.6699 128.755 78.7549 123.391 79.1409 121.701C79.8031 118.657 79.7269 115.499 78.9186 112.491C78.1103 109.483 76.5934 106.712 74.4949 104.41C74.7589 103.993 80.1339 92.1169 80.3329 91.6309C81.9609 87.6579 83.4479 83.3309 83.3079 78.5719C83.1229 72.2839 79.9079 66.8019 74.9309 64.2649C68.3599 60.9179 59.4989 63.5769 55.1769 70.1899C52.2801 74.906 51.3558 80.5728 52.6039 85.9649C52.6408 86.1396 52.6303 86.321 52.5735 86.4903C52.5166 86.6595 52.4154 86.8105 52.2805 86.9274C52.1456 87.0444 51.9818 87.1231 51.8062 87.1554C51.6306 87.1876 51.4496 87.1723 51.2819 87.1109C45.3619 84.9849 39.8649 84.9949 35.2899 87.1579C32.5483 88.5051 30.2274 90.5764 28.5783 93.1477C26.9292 95.719 26.0147 98.6923 25.9339 101.746C25.9165 104.75 26.6875 107.705 28.17 110.318C29.6524 112.93 31.7944 115.108 34.3819 116.633C37.3302 118.306 40.6704 119.164 44.0599 119.12C46.1532 119.112 48.2367 118.835 50.2599 118.298C54.496 117.022 58.5447 115.191 62.3009 112.854C62.9009 112.511 63.7469 112.107 64.7009 111.639C65.781 112.509 66.6056 113.655 67.0876 114.956C67.5696 116.256 67.691 117.663 67.4389 119.027C67.1784 120.002 66.8513 120.958 66.4599 121.889C65.553 123.976 64.9379 126.178 64.6319 128.433C64.3278 131.662 65.0081 134.907 66.5832 137.742C68.1584 140.577 70.5546 142.869 73.4569 144.317C75.5803 145.338 77.9076 145.865 80.2639 145.857C84.4093 145.875 88.3998 144.283 91.3949 141.417C91.9596 140.867 92.4106 140.212 92.722 139.488C93.0334 138.764 93.1992 137.986 93.2098 137.198C93.2205 136.41 93.0759 135.628 92.7842 134.896C92.4925 134.164 92.0595 133.497 91.5099 132.932ZM54.6609 103.385C52.3287 104.79 49.8304 105.898 47.2239 106.685C44.9843 107.416 42.5502 107.264 40.4189 106.26C38.9249 105.391 37.6299 103.59 37.9309 101.946C39.0639 95.7779 47.0309 98.2819 48.3829 98.8559C49.8489 99.4809 54.0439 101.672 54.6309 101.972C54.7606 102.037 54.8701 102.137 54.9476 102.26C55.0251 102.382 55.0677 102.524 55.0708 102.669C55.0739 102.815 55.0373 102.958 54.9651 103.084C54.8929 103.21 54.7877 103.314 54.6609 103.385ZM64.9809 76.6729C68.1059 73.4859 70.9669 76.2979 71.3129 78.9219C71.7929 82.5609 70.2009 86.2869 68.4369 89.6709C68.3582 89.8207 68.2404 89.9464 68.0961 90.0347C67.9517 90.123 67.7862 90.1705 67.617 90.1722C67.4478 90.174 67.2812 90.1299 67.1351 90.0446C66.9889 89.9593 66.8686 89.8361 66.7869 89.6879C65.941 88.2073 65.2493 86.6438 64.7229 85.0219C63.7389 81.8299 63.3219 78.3689 64.9809 76.6759V76.6729Z" fill="black"/>
</svg>
