<svg width="439" height="504" viewBox="0 0 439 504" fill="none" xmlns="http://www.w3.org/2000/svg">
<path d="M343.051 269.199C349.29 269.199 354.347 264.142 354.347 257.903C354.347 251.664 349.29 246.607 343.051 246.607C336.813 246.607 331.755 251.664 331.755 257.903C331.755 264.142 336.813 269.199 343.051 269.199Z" fill="url(#paint0_linear_19002_4592)"/>
<path d="M438.095 485.243C431.45 461.175 419.871 438.752 404.095 419.399C403.123 406.387 407.379 396.135 416.787 375.615C420.855 366.359 422.427 356.198 421.346 346.146C420.265 336.093 416.57 326.499 410.627 318.319C408.131 313.999 406.521 309.226 405.89 304.277C405.258 299.328 405.619 294.303 406.951 289.495C411.087 278.352 412.722 266.435 411.742 254.589C410.761 242.744 407.187 231.258 401.275 220.947C390.381 202.259 382.917 181.774 379.235 160.459C373.035 123.659 336.551 24.0595 272.923 19.7595C271.459 19.6643 270.05 19.1705 268.847 18.3315C202.107 -28.5205 132.879 26.2275 111.511 51.7635C98.8027 66.9635 68.2907 107.943 59.4427 160.459C56.3771 180.997 47.3841 200.194 33.5667 215.695C25.1242 225.777 19.418 237.861 16.9969 250.786C14.5759 263.711 15.5214 277.041 19.7427 289.495C21.0743 294.303 21.4351 299.328 20.8039 304.277C20.1728 309.226 18.5624 313.999 16.0667 318.319C3.83065 336.063 2.78265 350.535 12.5587 366.719C21.3107 381.211 21.1067 385.039 16.0147 400.023C11.1363 415.813 10.8505 432.665 15.1907 448.611C9.04729 460.288 4.15481 472.582 0.594654 485.287C0.0465136 487.159 -0.125064 489.121 0.0898345 491.06C0.304734 492.999 0.901844 494.876 1.84665 496.583C3.07165 498.709 4.83663 500.473 6.96287 501.698C9.08911 502.922 11.5011 503.563 13.9547 503.555H424.755C427.233 503.562 429.667 502.908 431.808 501.661C433.949 500.413 435.719 498.618 436.935 496.459C438.783 493.019 439.2 488.989 438.095 485.243ZM25.9307 325.131C29.4986 319.267 31.8002 312.722 32.6875 305.916C33.5747 299.11 33.0281 292.193 31.0827 285.611C27.5262 275.12 26.7297 263.89 28.7697 253.002C30.8097 242.114 35.6175 231.935 42.7307 223.443C57.9779 206.323 67.898 185.126 71.2747 162.451C79.6387 112.851 108.635 73.8995 120.711 59.4675C121.419 58.6195 193.511 -23.6485 265.043 30.3995C266.087 31.1825 267.358 31.6038 268.663 31.5995C323.291 31.6155 360.943 123.947 367.411 162.451C371.298 185.092 379.206 206.855 390.759 226.711C395.892 235.553 398.99 245.427 399.828 255.616C400.666 265.806 399.223 276.054 395.603 285.615C393.657 292.197 393.111 299.114 393.998 305.92C394.885 312.726 397.187 319.271 400.755 325.135C405.523 331.601 408.508 339.207 409.409 347.19C410.311 355.173 409.097 363.253 405.891 370.619C398.887 385.887 394.243 396.555 392.627 407.327C389.768 404.633 386.783 402.075 383.683 399.663C370.854 390.266 357.249 381.979 343.015 374.891C341.102 371.98 338.381 369.691 335.187 368.303L317.019 360.479C312.984 358.763 308.459 358.593 304.307 360.003C290.767 354.379 278.399 345.819 275.851 328.455C280.288 325.266 284.537 321.824 288.579 318.147C305.883 302.319 318.979 288.715 326.931 260.023C328.294 260.196 329.665 260.292 331.039 260.311C349.387 260.311 365.223 246.135 369.959 229.819C374.883 212.855 367.623 194.519 353.431 188.079C346.726 185.551 339.45 184.933 332.415 186.295C328.606 176.622 325.531 166.677 323.215 156.543C314.047 121.295 302.659 77.4915 263.511 81.0195C262.581 81.0811 261.652 80.9026 260.811 80.5012C259.971 80.0998 259.247 79.489 258.711 78.7275C248.867 65.5275 229.959 57.2515 209.367 57.0795H208.715C197.185 57.054 185.806 59.6915 175.463 64.7862C165.12 69.8809 156.094 77.2953 149.087 86.4515C134.419 105.415 129.811 126.191 125.355 146.283C122.908 159.828 118.897 173.043 113.403 185.663C106.807 199.152 104.191 214.241 105.859 229.163C111.859 279.799 127.271 297.271 150.095 318.147C154.439 322.099 159.021 325.782 163.815 329.175C165.711 344.551 162.667 348.707 149.047 364.447C143.847 370.475 142.839 378.339 141.875 385.939C140.303 398.391 138.939 409.139 121.691 415.175C116.463 416.999 103.803 423.607 99.2427 445.523C93.3547 473.819 83.8787 478.659 66.1187 478.291C59.9043 478.448 53.7483 477.059 48.2034 474.249C42.6585 471.439 37.8984 467.296 34.3507 462.191C23.0427 446.067 21.9107 419.887 27.3467 403.883C33.4867 385.839 33.6107 378.407 22.8027 360.523C16.5187 350.095 15.0107 340.967 25.9307 325.131ZM219.343 350.115C234.823 350.115 250.943 343.911 265.035 335.559C269.359 352.459 281.491 362.215 294.167 368.491C293.3 370.027 292.663 371.682 292.279 373.403C290.486 382.081 288.566 390.733 286.519 399.355C266.415 426.583 231.531 457.071 220.627 466.331C220.271 466.641 219.816 466.811 219.345 466.811C218.874 466.811 218.418 466.641 218.063 466.331C207.163 457.075 172.291 426.595 152.183 399.371L151.959 398.419C152.77 394.795 153.381 391.13 153.791 387.439C154.591 381.071 155.291 375.571 158.131 372.291C170.291 358.239 176.019 350.723 176.259 337.067C189.294 344.971 204.113 349.459 219.343 350.115ZM158.203 309.287C136.815 289.723 123.423 275.323 117.783 227.739C116.386 215.081 118.621 202.286 124.227 190.851C130.118 177.401 134.43 163.314 137.075 148.871C141.435 129.203 145.559 110.627 158.587 93.7875C164.439 86.0421 172.022 79.7731 180.729 75.4815C189.437 71.1899 199.028 68.9947 208.735 69.0715H209.271C225.935 69.2115 241.571 75.8195 249.103 85.8995C250.881 88.293 253.237 90.1965 255.95 91.4319C258.664 92.6673 261.646 93.1943 264.619 92.9635C291.483 90.4475 301.419 120.319 311.607 159.555C314.058 170.358 317.348 180.952 321.447 191.243C322.69 194.028 323.257 197.069 323.099 200.115C319.691 270.079 305.231 286.647 280.475 309.283C265.943 322.583 241.207 338.115 219.343 338.115C197.479 338.115 172.743 322.583 158.203 309.287ZM344.259 210.299C340.983 209.743 337.621 209.992 334.463 211.027C334.754 206.851 335.002 202.476 335.207 197.903C339.654 197.199 344.205 197.578 348.475 199.007C357.211 202.967 361.675 215.291 358.435 226.471C355.447 236.763 343.971 249.015 329.747 248.239C331.22 240.778 332.359 233.254 333.159 225.691C334.22 224.422 335.572 223.43 337.101 222.8C338.629 222.169 340.288 221.919 341.935 222.071C343.488 222.359 345.092 222.023 346.398 221.136C347.705 220.249 348.61 218.883 348.916 217.334C349.221 215.784 348.904 214.177 348.032 212.86C347.161 211.543 345.805 210.623 344.259 210.299ZM13.9387 491.551C13.6346 491.557 13.3334 491.49 13.0601 491.356C12.7868 491.223 12.5491 491.026 12.3667 490.783C12.1703 490.532 12.0358 490.238 11.9739 489.925C11.9121 489.613 11.9247 489.29 12.0107 488.983C14.3885 480.285 17.4515 471.789 21.1707 463.575C22.1905 465.467 23.3135 467.302 24.5347 469.071C29.1715 475.715 35.3661 481.122 42.5765 484.818C49.7868 488.514 57.7931 490.386 65.8947 490.271H67.4467C80.9787 490.271 90.7587 486.703 97.9027 478.647L109.751 491.523L13.9387 491.551ZM126.059 491.551L104.607 468.247C107.522 461.756 109.669 454.947 111.007 447.959C114.319 432.043 122.359 427.647 125.663 426.495C132.549 424.316 138.751 420.386 143.663 415.091C150.126 440.82 157.464 466.321 165.663 491.551H126.059ZM178.315 491.551C175.239 482.351 167.271 457.751 158.939 426.283C175.05 443.704 192.202 460.134 210.299 475.483C212.82 477.639 216.028 478.823 219.345 478.823C222.662 478.823 225.87 477.639 228.391 475.483C246.49 460.134 263.644 443.704 279.759 426.283C271.451 457.655 263.475 482.283 260.375 491.555L178.315 491.551ZM273.011 491.551C285.421 453.561 295.777 414.93 304.035 375.827C304.213 374.948 304.586 374.121 305.125 373.405C305.665 372.689 306.359 372.103 307.155 371.691C307.938 371.274 308.806 371.041 309.693 371.008C310.58 370.974 311.462 371.142 312.275 371.499L330.447 379.323C331.803 379.914 332.896 380.981 333.519 382.323C343.611 403.739 351.451 424.275 353.495 434.643C354.081 437.612 354.012 440.673 353.292 443.612C352.572 446.551 351.219 449.297 349.327 451.659L312.627 491.551H273.011ZM426.319 490.783C426.136 491.026 425.899 491.223 425.625 491.356C425.352 491.49 425.051 491.557 424.747 491.551H328.943L358.403 459.515C361.486 455.77 363.702 451.389 364.89 446.686C366.079 441.983 366.212 437.075 365.279 432.315C361.909 418.835 357.307 405.693 351.531 393.055C360.13 397.916 368.426 403.294 376.375 409.159C410.439 435.371 423.495 476.875 426.683 488.971C426.77 489.28 426.783 489.606 426.72 489.921C426.656 490.236 426.519 490.532 426.319 490.783Z" fill="url(#paint1_linear_19002_4592)"/>
<defs>
<linearGradient id="paint0_linear_19002_4592" x1="331.755" y1="257.903" x2="354.347" y2="257.903" gradientUnits="userSpaceOnUse">
<stop stop-color="#F9F295"/>
<stop offset="0.379924" stop-color="#E0AA3E"/>
<stop offset="0.75" stop-color="#FAF398"/>
<stop offset="1" stop-color="#B88A44"/>
</linearGradient>
<linearGradient id="paint1_linear_19002_4592" x1="0" y1="251.778" x2="438.701" y2="251.778" gradientUnits="userSpaceOnUse">
<stop stop-color="#F9F295"/>
<stop offset="0.379924" stop-color="#E0AA3E"/>
<stop offset="0.75" stop-color="#FAF398"/>
<stop offset="1" stop-color="#B88A44"/>
</linearGradient>
</defs>
</svg>
