<svg width="408" height="512" viewBox="0 0 408 512" fill="none" xmlns="http://www.w3.org/2000/svg">
<path d="M376.849 453.056V503.466C376.849 505.729 375.95 507.9 374.35 509.5C372.749 511.101 370.579 512 368.315 512C366.052 512 363.881 511.101 362.281 509.5C360.681 507.9 359.782 505.729 359.782 503.466V453.056C359.782 413.805 328.02 382.042 288.766 382.042C270.193 382.042 253.341 372.58 243.688 356.73C243.105 355.773 242.716 354.71 242.544 353.603C242.371 352.496 242.419 351.365 242.683 350.276C242.948 349.187 243.425 348.161 244.086 347.256C244.747 346.352 245.58 345.586 246.537 345.003C250.56 342.549 255.812 343.826 258.264 347.852C264.794 358.574 276.198 364.975 288.766 364.975C337.448 364.972 376.849 404.369 376.849 453.056ZM401.892 296.329C410.487 283.585 409.741 266.995 400.036 255.048L383.706 234.946C380.001 230.387 378.794 224.34 380.472 218.769L390.125 186.742C394.539 172.096 388.896 156.459 376.084 147.834L356.898 134.919C350.485 130.602 347.535 122.791 349.556 115.481C355.547 93.8286 339.601 72.2209 316.724 71.2448L308.239 70.8843C293.747 70.2677 281.678 60.1562 278.888 46.2972L278.29 43.3221C273.547 19.7516 246.832 8.28103 226.154 19.9105C218.978 23.946 209.892 22.7736 204.056 17.0592L196.928 10.0806C183.202 -3.3602 160.869 -3.3602 147.144 10.0806L131.571 25.3274C128.877 27.9665 125.457 29.6903 121.682 30.3154L89.4879 35.6374C62.1827 40.1528 44.955 66.9 52.2195 92.9869L58.5431 115.69C60.5453 122.878 57.6523 130.56 51.3416 134.807L31.7958 147.966C19.1028 156.513 13.5121 172.005 17.8857 186.517L27.6527 218.928C29.3008 224.399 28.1146 230.337 24.477 234.815L7.89254 255.23C-1.72511 267.069 -2.46435 283.507 6.05243 296.134L22.0246 319.817C26.2947 326.149 25.9352 334.406 21.1307 340.365L18.7657 343.296C5.93188 359.216 7.29197 382.033 21.9307 396.366C23.5243 397.93 25.6685 398.805 27.9012 398.803C35.4867 398.803 39.3472 389.532 33.8738 384.171C25.5459 376.017 24.765 363.05 32.0529 354.01L34.4168 351.079C43.9523 339.252 44.6606 322.855 36.1759 310.275L20.2026 286.591C15.9165 280.237 16.293 271.958 21.1392 265.992L37.7247 245.576C44.9326 236.702 47.2773 224.9 43.995 214.004L34.2269 181.592C32.0263 174.289 34.8798 166.466 41.3271 162.125L60.8717 148.967C73.2928 140.608 78.9635 125.394 74.9846 111.112L68.661 88.4085C64.0037 71.6918 75.3622 55.2716 92.272 52.4757L124.467 47.1538C131.715 45.9558 138.301 42.6255 143.512 37.5233L159.085 22.2755C166.225 15.2841 177.846 15.282 184.987 22.2755L192.115 29.2551C203.338 40.2414 220.777 42.5178 234.522 34.7872C245.495 28.6108 259.183 34.8949 261.558 46.6887L262.156 49.6638C266.498 71.2459 285.15 86.9844 307.514 87.9381L315.999 88.2987C327.912 88.8054 336.167 99.8727 333.107 110.931C329.126 125.326 334.857 140.656 347.367 149.079L366.553 161.994C373.119 166.413 376.025 174.38 373.782 181.817L364.13 213.845C360.817 224.84 363.182 236.751 370.46 245.708L386.789 265.809C391.725 271.884 392.107 280.315 387.743 286.786L372.033 310.081C363.471 322.775 364.185 339.325 373.809 351.262C376.38 354.448 379.241 357.504 380.511 363.332C380.994 365.543 382.335 367.472 384.24 368.694C385.183 369.3 386.237 369.713 387.34 369.911C388.443 370.11 389.574 370.089 390.669 369.85C391.764 369.611 392.801 369.158 393.721 368.518C394.641 367.879 395.426 367.064 396.031 366.121C396.636 365.177 397.05 364.124 397.248 363.021C397.446 361.918 397.425 360.787 397.186 359.692C395.012 349.735 390.016 344.171 387.093 340.547C382.2 334.48 381.834 326.07 386.182 319.622L401.892 296.329ZM314.593 409.395C252.812 426.58 191.455 413.095 143.788 376.052C159.248 367.948 170.392 352.311 171.858 333.599C244.692 355.102 317.591 300.403 318.176 225.011C318.181 224.821 318.179 180.687 318.179 180.497C318.179 133.442 279.896 95.1588 232.841 95.1588H203.561C174.588 95.1588 148.049 111.716 137.522 136.359C131.093 151.406 133.851 161.47 131.645 173.358C128.019 192.897 112.113 211.43 84.3708 228.445C82.4516 229.633 81.0813 231.533 80.5598 233.729C80.0383 235.925 80.408 238.238 81.5881 240.162C82.7681 242.086 84.6624 243.465 86.8563 243.995C89.0502 244.526 91.365 244.166 93.294 242.994C125.331 223.348 143.88 200.967 148.426 176.474C150.967 162.797 148.27 154.645 153.217 143.067C161.098 124.622 181.329 112.229 203.561 112.229H232.841C270.485 112.229 301.111 142.854 301.111 180.499V224.12C301.111 277.647 257.565 321.193 204.039 321.193C166.093 321.193 131.401 298.874 115.658 264.333C115.193 263.313 114.532 262.395 113.713 261.63C112.893 260.866 111.931 260.271 110.881 259.878C109.832 259.486 108.715 259.304 107.595 259.343C106.475 259.382 105.374 259.642 104.354 260.106C103.334 260.571 102.415 261.232 101.651 262.051C100.887 262.871 100.291 263.833 99.8987 264.883C99.5062 265.933 99.3244 267.049 99.3637 268.169C99.4029 269.289 99.6624 270.391 100.127 271.411C111.463 296.28 131.16 315.746 154.968 327.111V329.412C154.968 349.087 139.026 364.979 119.31 364.979C70.5256 364.979 31.2273 404.47 31.2273 453.06V503.47C31.2273 505.734 32.1264 507.904 33.7268 509.505C35.3272 511.105 37.4978 512.004 39.7611 512.004C42.0245 512.004 44.1951 511.105 45.7955 509.505C47.3959 507.904 48.295 505.734 48.295 503.47V453.06C48.295 413.812 80.0569 382.047 119.31 382.047C120.882 382.047 122.434 381.968 123.969 381.834C176.268 427.442 247.362 445.818 319.168 425.841C320.248 425.541 321.258 425.031 322.14 424.34C323.023 423.649 323.761 422.791 324.312 421.816C324.863 420.84 325.216 419.765 325.352 418.652C325.487 417.54 325.403 416.411 325.102 415.332C324.802 414.252 324.293 413.241 323.602 412.358C322.912 411.475 322.054 410.737 321.078 410.185C320.102 409.634 319.027 409.281 317.914 409.145C316.801 409.009 315.673 409.095 314.593 409.395Z" fill="black"/>
</svg>
