<svg width="480" height="480" viewBox="0 0 480 480" fill="none" xmlns="http://www.w3.org/2000/svg">
<path d="M184 112.001C188.418 112.001 192 108.42 192 104.001C192 99.5832 188.418 96.0015 184 96.0015C179.582 96.0015 176 99.5832 176 104.001C176 108.42 179.582 112.001 184 112.001Z" fill="black"/>
<path d="M232 112.001C236.418 112.001 240 108.42 240 104.001C240 99.5832 236.418 96.0015 232 96.0015C227.582 96.0015 224 99.5832 224 104.001C224 108.42 227.582 112.001 232 112.001Z" fill="black"/>
<path d="M368 312.001C372.747 312.001 377.387 310.594 381.334 307.957C385.28 305.32 388.357 301.571 390.173 297.186C391.99 292.8 392.465 287.975 391.539 283.319C390.613 278.664 388.327 274.387 384.971 271.031C381.614 267.674 377.338 265.389 372.682 264.463C368.027 263.537 363.201 264.012 358.816 265.828C354.43 267.645 350.682 270.721 348.045 274.668C345.408 278.615 344 283.255 344 288.001C344.007 294.364 346.538 300.465 351.037 304.964C355.537 309.463 361.637 311.994 368 312.001ZM368 280.001C369.582 280.001 371.129 280.471 372.445 281.35C373.76 282.229 374.786 283.478 375.391 284.94C375.997 286.402 376.155 288.01 375.846 289.562C375.538 291.114 374.776 292.54 373.657 293.658C372.538 294.777 371.113 295.539 369.561 295.848C368.009 296.156 366.4 295.998 364.939 295.392C363.477 294.787 362.227 293.762 361.348 292.446C360.469 291.13 360 289.584 360 288.001C360.003 285.881 360.846 283.847 362.346 282.348C363.846 280.848 365.879 280.004 368 280.001Z" fill="black"/>
<path d="M448 384.001V368.001C447.995 363.759 446.308 359.693 443.308 356.693C440.309 353.693 436.242 352.006 432 352.001H424V312.001H440C444.242 311.997 448.309 310.309 451.308 307.31C454.308 304.31 455.995 300.243 456 296.001V256.001C455.995 251.759 454.308 247.693 451.308 244.693C448.309 241.693 444.242 240.006 440 240.001H424C422.924 240.001 421.85 240.109 420.796 240.324C417.716 233.114 412.588 226.966 406.047 222.643C399.506 218.319 391.841 216.01 384 216.001H367.597C368.656 210.804 367.609 205.399 364.684 200.974C361.759 196.549 357.197 193.467 352 192.404V175.598C356.857 174.608 361.174 171.85 364.112 167.857C367.051 163.865 368.402 158.923 367.904 153.991C367.406 149.059 365.094 144.488 361.416 141.164C357.738 137.84 352.957 136 348 136.001H308C303.678 136.003 299.474 137.414 296.026 140.02C296.016 139.545 296 139.07 296 138.594V129.87C298.517 127.624 300.531 124.871 301.91 121.791C303.289 118.712 304.001 115.375 304 112.001V96.0015C304 92.49 303.229 89.0214 301.74 85.8412C300.251 82.661 298.081 79.847 295.384 77.5985C292.838 56.2116 282.537 36.5009 266.433 22.1998C250.328 7.89858 229.538 0 208 0C186.462 0 165.672 7.89858 149.567 22.1998C133.463 36.5009 123.162 56.2116 120.616 77.5985C117.919 79.847 115.749 82.661 114.26 85.8412C112.771 89.0214 112 92.49 112 96.0015V112.001C111.999 115.376 112.711 118.712 114.09 121.792C115.469 124.871 117.483 127.625 120 129.871V138.594C120.012 150.975 116.347 163.08 109.47 173.375C106.619 177.65 104.821 182.538 104.222 187.64C103.623 192.743 104.241 197.914 106.024 202.732C93.4454 208.928 82.2486 217.601 73.1061 228.232C63.9637 238.863 57.0642 251.232 52.822 264.596L24.281 353.885C21.2087 363.722 21.4133 374.291 24.864 384.001H0V400.001H34.399C38.8781 405.059 44.385 409.103 50.5517 411.862C56.7185 414.621 63.4032 416.032 70.159 416.001H128C134.933 416.009 141.678 413.752 147.211 409.575C149.529 412.679 152.893 414.838 156.681 415.65C156.037 418.387 155.711 421.19 155.71 424.001C155.698 428.769 156.631 433.491 158.457 437.895C160.282 442.299 162.962 446.297 166.343 449.658C168.922 452.237 170.759 455.463 171.658 458.998C172.558 462.532 172.488 466.244 171.456 469.741C171.105 470.935 171.036 472.193 171.256 473.417C171.476 474.641 171.979 475.797 172.724 476.793C173.469 477.789 174.436 478.598 175.548 479.155C176.66 479.711 177.886 480.001 179.13 480.001H275.14C276.865 480.001 278.545 479.444 279.927 478.411C281.31 477.379 282.321 475.927 282.811 474.272C284.654 468.014 284.777 461.374 283.166 455.052C281.555 448.729 278.27 442.958 273.657 438.344C270.786 435.478 268.842 431.817 268.075 427.833C267.309 423.85 267.755 419.728 269.357 416.001H432C436.242 415.997 440.309 414.309 443.308 411.31C446.308 408.31 447.995 404.243 448 400.001H480V384.001H448ZM440 256.001V296.001H424V256.001H440ZM408 256.001V352.001H328V288.001C328 285.88 327.157 283.845 325.657 282.345C324.157 280.844 322.122 280.001 320 280.001H235.1L239.59 266.531L224.41 261.471L212.058 298.531C211.528 300.125 210.51 301.512 209.147 302.494C207.785 303.475 206.147 304.003 204.468 304.001H184C181.879 303.999 179.846 303.155 178.346 301.655C176.846 300.156 176.003 298.122 176 296.001V256.001C176.007 249.638 178.538 243.538 183.037 239.039C187.537 234.539 193.637 232.009 200 232.001H384C390.363 232.009 396.463 234.539 400.963 239.039C405.462 243.538 407.993 249.638 408 256.001ZM269.361 352.001C269.045 351.268 268.773 350.516 268.547 349.75C268.06 348.091 267.05 346.634 265.666 345.598C264.282 344.562 262.599 344.001 260.87 344.001H200V320.001H204.468C209.506 320.006 214.418 318.423 218.505 315.477C222.592 312.531 225.647 308.372 227.236 303.591L229.766 296.001H312V352.001H269.361ZM144 112.001V120.001H136C133.879 119.999 131.846 119.155 130.346 117.655C128.846 116.156 128.003 114.122 128 112.001V96.0015C128 93.8797 128.843 91.8449 130.343 90.3446C131.843 88.8443 133.878 88.0015 136 88.0015C138.122 88.0015 140.157 88.8443 141.657 90.3446C143.157 91.8449 144 93.8797 144 96.0015C144 98.1232 144.843 100.158 146.343 101.658C147.843 103.159 149.878 104.001 152 104.001C154.122 104.001 156.157 103.159 157.657 101.658C159.157 100.158 160 98.1232 160 96.0015V91.9355C160.001 90.8924 160.416 89.8924 161.153 89.1549C161.891 88.4173 162.891 88.0025 163.934 88.0015C171.454 88.0287 178.759 85.4924 184.644 80.8106C190.529 76.1288 194.643 69.5812 196.307 62.2475C196.917 59.6031 198.405 57.2435 200.529 55.5539C202.653 53.8643 205.286 52.9445 208 52.9445C210.714 52.9445 213.347 53.8643 215.471 55.5539C217.595 57.2435 219.083 59.6031 219.693 62.2475C221.357 69.5812 225.471 76.1288 231.356 80.8106C237.241 85.4924 244.546 88.0287 252.066 88.0015C253.109 88.0025 254.109 88.4173 254.847 89.1549C255.584 89.8924 255.999 90.8924 256 91.9355V96.0015C256 98.1232 256.843 100.158 258.343 101.658C259.843 103.159 261.878 104.001 264 104.001C266.122 104.001 268.157 103.159 269.657 101.658C271.157 100.158 272 98.1232 272 96.0015C272 93.8797 272.843 91.8449 274.343 90.3446C275.843 88.8443 277.878 88.0015 280 88.0015C282.122 88.0015 284.157 88.8443 285.657 90.3446C287.157 91.8449 288 93.8797 288 96.0015V112.001C287.997 114.122 287.154 116.156 285.654 117.655C284.154 119.155 282.121 119.999 280 120.001H272V112.001H256V120.001C256 132.732 250.943 144.941 241.941 153.943C232.939 162.944 220.73 168.001 208 168.001C195.27 168.001 183.061 162.944 174.059 153.943C165.057 144.941 160 132.732 160 120.001V112.001H144ZM196.075 182.87C203.9 184.369 211.937 184.378 219.765 182.898C223.908 190.5 230.024 196.843 237.47 201.26C234.035 205.843 229.579 209.562 224.456 212.121C219.332 214.68 213.683 216.008 207.956 216.001C202.229 215.994 196.582 214.652 191.465 212.08C186.348 209.508 181.901 205.779 178.478 201.187C185.878 196.768 191.955 190.442 196.075 182.87ZM288.403 216.001H245.883C248.137 213.682 250.175 211.16 251.97 208.469L252.866 207.125C255.861 207.707 258.906 208.001 261.957 208.001H263.585C271.854 208 280.083 209.163 288.028 211.456C288.023 211.639 288 211.817 288 212.001C288 213.345 288.135 214.685 288.403 216.001ZM308 216.001C306.939 216.001 305.922 215.58 305.172 214.83C304.421 214.08 304 213.062 304 212.001C304 210.941 304.421 209.923 305.172 209.173C305.922 208.423 306.939 208.001 308 208.001H348C349.061 208.001 350.078 208.423 350.828 209.173C351.579 209.923 352 210.941 352 212.001C352 213.062 351.579 214.08 350.828 214.83C350.078 215.58 349.061 216.001 348 216.001H308ZM320 192.001V176.001H336V192.001H320ZM308 152.001H348C349.061 152.001 350.078 152.423 350.828 153.173C351.579 153.923 352 154.941 352 156.001C352 157.062 351.579 158.08 350.828 158.83C350.078 159.58 349.061 160.001 348 160.001H308C306.939 160.001 305.922 159.58 305.172 158.83C304.421 158.08 304 157.062 304 156.001C304 154.941 304.421 153.923 305.172 153.173C305.922 152.423 306.939 152.001 308 152.001ZM293.218 182.251C295.035 184.971 296.003 188.168 296 191.438H304V192.404C300.665 193.091 297.562 194.62 294.986 196.846C284.829 193.632 274.238 191.998 263.585 192.001H261.957C256.708 191.991 251.542 190.694 246.911 188.223C242.28 185.752 238.326 182.183 235.394 177.829C243.86 173.801 251.342 167.97 257.315 160.744C263.289 153.518 267.609 145.074 269.974 136.001H280V138.594C279.985 154.135 284.586 169.329 293.218 182.251ZM208 16.0015C224.313 16.0593 240.128 21.6305 252.876 31.8102C265.624 41.9899 274.555 56.1801 278.221 72.0765C273.519 72.4196 269.023 74.1472 265.301 77.0415C261.659 73.7917 256.947 71.9975 252.066 72.0015C248.167 72.0156 244.38 70.7006 241.329 68.2733C238.278 65.8461 236.146 62.4515 235.283 58.6495C233.859 52.4799 230.387 46.975 225.432 43.0332C220.476 39.0914 214.332 36.9453 208 36.9453C201.668 36.9453 195.524 39.0914 190.568 43.0332C185.613 46.975 182.141 52.4799 180.717 58.6495C179.854 62.4515 177.722 65.8461 174.671 68.2733C171.62 70.7006 167.833 72.0156 163.934 72.0015C159.053 71.9975 154.341 73.7917 150.699 77.0415C146.977 74.1472 142.481 72.4196 137.779 72.0765C141.445 56.1801 150.376 41.9899 163.124 31.8102C175.872 21.6305 191.687 16.0593 208 16.0015ZM120 191.438C119.997 188.168 120.965 184.97 122.782 182.25C131.414 169.329 136.015 154.135 136 138.595V136.001H146.025C148.383 145.05 152.688 153.476 158.638 160.69C164.588 167.904 172.04 173.732 180.475 177.769C177.546 182.141 173.588 185.725 168.948 188.207C164.308 190.688 159.13 191.992 153.868 192.001H152.24C141.604 191.999 131.029 193.614 120.879 196.791C120.293 195.068 119.996 193.259 119.999 191.438H120ZM152.241 208.001H153.869C156.973 208.002 160.07 207.699 163.116 207.097L164.031 208.469C167.738 214.032 172.467 218.84 177.967 222.639C172.447 226.281 167.917 231.235 164.781 237.057C161.646 242.88 160.003 249.389 160 256.001V296.001C160.007 302.364 162.538 308.465 167.037 312.964C171.537 317.463 177.637 319.994 184 320.001V344.001H164.87C163.793 344.001 162.728 344.218 161.737 344.639C160.746 345.061 159.851 345.678 159.105 346.454C158.358 347.23 157.777 348.149 157.395 349.156C157.013 350.162 156.838 351.236 156.881 352.311C153.014 353.089 149.571 355.267 147.211 358.427C141.678 354.251 134.933 351.994 128 352.001H112V296.001H96V309.395L58.706 298.74L68.062 269.468C73.7269 251.599 84.945 236.002 100.085 224.948C115.224 213.893 133.496 207.956 152.242 208.001H152.241ZM128 400.001H70.158C65.1577 400.001 60.2271 398.83 55.7615 396.58C51.2958 394.33 47.4195 391.066 44.4434 387.047C41.4674 383.029 39.4743 378.37 38.6242 373.442C37.774 368.515 38.0904 363.457 39.548 358.673L53.831 313.987L96 326.036V352.001H56V368.001H128C132.243 368.001 136.313 369.687 139.314 372.688C142.314 375.688 144 379.758 144 384.001C144 388.245 142.314 392.315 139.314 395.315C136.313 398.316 132.243 400.001 128 400.001ZM160 400.001V368.001H164.788C165.288 368.569 165.806 369.122 166.343 369.658C168.228 371.541 169.724 373.777 170.744 376.238C171.765 378.699 172.29 381.337 172.29 384.001C172.29 386.666 171.765 389.304 170.744 391.765C169.724 394.226 168.228 396.462 166.343 398.344C165.811 398.881 165.295 399.433 164.796 400.001H160ZM177.657 438.344C175.772 436.462 174.276 434.226 173.256 431.765C172.235 429.304 171.71 426.666 171.71 424.001C171.71 421.337 172.235 418.699 173.256 416.238C174.276 413.777 175.772 411.541 177.657 409.658C184.187 403.134 187.983 394.365 188.272 385.139C188.562 375.912 185.323 366.923 179.215 360.001H191.448C193.202 363.576 195.531 366.839 198.343 369.658C200.228 371.541 201.724 373.777 202.744 376.238C203.765 378.699 204.29 381.337 204.29 384.001C204.29 386.666 203.765 389.304 202.744 391.765C201.724 394.226 200.228 396.462 198.343 398.344C194.972 401.713 192.298 405.712 190.473 410.115C188.649 414.517 187.71 419.236 187.71 424.001C187.71 428.767 188.649 433.486 190.473 437.888C192.298 442.29 194.972 446.29 198.343 449.658C200.226 451.542 201.72 453.778 202.739 456.239C203.757 458.7 204.282 461.338 204.281 464.001H188.286C188.287 459.236 187.348 454.517 185.524 450.115C183.7 445.713 181.028 441.713 177.657 438.344ZM268.29 464.001H220.276C220.278 459.237 219.341 454.519 217.519 450.116C215.696 445.714 213.025 441.714 209.656 438.344C207.771 436.462 206.275 434.226 205.255 431.765C204.234 429.304 203.709 426.666 203.709 424.001C203.709 421.337 204.234 418.699 205.255 416.238C206.275 413.777 207.771 411.541 209.656 409.658C216.188 403.134 219.985 394.364 220.273 385.137C220.56 375.91 217.317 366.92 211.205 360.001H255.435C257.194 363.577 259.528 366.84 262.345 369.658C264.23 371.541 265.726 373.777 266.746 376.238C267.767 378.699 268.292 381.337 268.292 384.001C268.292 386.666 267.767 389.304 266.746 391.765C265.726 394.226 264.23 396.462 262.345 398.344C258.974 401.713 256.3 405.712 254.475 410.115C252.651 414.517 251.712 419.236 251.712 424.001C251.712 428.767 252.651 433.486 254.475 437.888C256.3 442.29 258.974 446.29 262.345 449.658C264.235 451.537 265.734 453.773 266.754 456.234C267.775 458.696 268.297 461.336 268.29 464.001ZM432 400.001H280.579C283.021 395.021 284.29 389.548 284.29 384.001C284.29 378.455 283.021 372.982 280.579 368.001H432V400.001Z" fill="black"/>
</svg>
