<svg width="224" height="224" viewBox="0 0 224 224" fill="none" xmlns="http://www.w3.org/2000/svg">
<mask id="path-1-inside-1_1330_46" fill="white">
<path d="M102.696 223.84C85.1193 221.842 71.5733 202.291 69.2251 185.831C58.337 179.23 48.1206 170.491 41.4732 159.58L39.7267 160.76L39.8143 170.205C44.464 173.879 47.2678 177.408 46.1871 183.734C45.3635 188.564 39.9019 192.735 35.1179 192.811C33.1903 192.84 30.8479 191.543 29.4577 191.543C27.8923 191.543 25.6901 192.881 23.4062 192.77C13.8907 192.291 9.02492 180.521 15.3101 173.418C16.1805 172.437 18.8324 171.081 19.0953 170.211L19.1829 160.766C4.75495 147.716 -8.8786 116.144 7.37768 99.923C10.3451 96.9614 14.2178 98.7489 13.4877 102.522C13.2657 103.65 10.0238 107.16 9.19432 108.732C2.23736 121.933 11.4666 143.96 21.1339 153.908C25.8712 158.786 33.3422 158.61 37.9626 153.669C44.5691 146.601 51.9817 131.034 52.4198 121.355C52.9981 108.72 43.2723 96.7745 30.3105 96.2021C27.3841 96.0736 19.6736 99.0468 20.1292 93.4684C20.4446 89.5839 26.759 90.0921 29.6213 89.5956C34.084 72.4456 44.3413 57.2115 57.8639 45.9262C59.3067 34.5766 54.5343 20.9664 65.1187 12.9639C69.9904 9.28384 74.2428 10.271 79.9789 9.89718C80.604 7.40879 80.7675 5.32346 82.5725 3.31406C88.3729 -3.12888 99.5881 0.498559 99.6933 9.35978L100.336 10.0257L123.911 9.67521C124.022 1.22872 134.25 -3.15808 140.518 2.63647C142.726 4.67507 143.135 7.11673 143.748 9.89718C149.543 10.2477 153.988 9.36562 158.854 13.1566C169.123 21.1533 164.432 34.7051 165.863 45.9262C177.704 55.7337 186.384 68.0763 191.88 82.4225C192.389 83.7485 193.849 89.5489 194.158 89.9811C194.264 90.133 196.623 91.237 197.33 91.8386C208.808 101.599 222.343 122.564 223.797 137.728V145.158C222.734 150.065 221.367 154.305 218.563 158.499C213.493 166.081 204.579 171.724 195.373 172.256C195.519 175.532 196.255 182.519 190.876 180.906C187.751 179.972 189.065 174.715 188.819 172.256C185.788 172.32 182.873 171.309 180.081 170.281C179.024 169.896 176.547 168.102 175.712 168.517C169.479 175.287 162.458 181.146 154.525 185.837C151.359 203.483 139.648 220.592 121.043 223.834H115.798C113.414 222.654 110.313 222.654 107.929 223.834C106.241 223.7 104.331 224.021 102.684 223.834L102.696 223.84ZM92.5085 7.58987C91.2643 6.04777 87.6894 6.33984 87.1462 8.29667C86.7256 9.8154 86.6847 17.6661 87.5259 18.7C88.7642 20.2304 92.3449 19.9559 92.8882 17.9932C93.3029 16.4978 93.3555 8.63546 92.5085 7.58987ZM136.236 7.58987C134.992 6.04777 131.417 6.33984 130.874 8.29667C130.453 9.8154 130.413 17.6661 131.254 18.7C132.492 20.2304 136.073 19.9559 136.616 17.9932C137.031 16.4978 137.083 8.63546 136.236 7.58987ZM65.0954 23.4139C64.3886 26.8895 65.6211 32.573 65.0954 36.3114H99.4187C99.5823 36.3114 100.897 37.801 101.06 38.1748C102.036 40.4179 99.775 42.8654 97.6722 42.8654H65.0954V95.9743C65.0954 96.1378 66.398 98.4335 66.655 98.7898C68.8455 101.891 72.1341 102.955 75.7907 103.206C99.4421 104.841 124.974 101.944 148.824 103.177C152.049 102.885 155.209 101.477 157.113 98.7839C157.364 98.4276 158.673 96.132 158.673 95.9684V42.8595H113.42C113.286 42.8595 111.247 41.9424 111.025 41.7555C109.331 40.2777 110.301 36.3056 112.106 36.3056H158.673V23.4081C158.673 23.2445 157.37 20.9547 157.113 20.5926C153.591 15.5983 148.778 16.6497 143.363 16.6263C143.258 29.3486 124.25 29.372 124.127 16.6263H99.6407C99.5355 29.3545 80.5222 29.3662 80.4054 16.6263C75.9893 16.8425 72.3093 15.6158 68.5884 18.5832C67.5604 19.4068 65.3465 22.2048 65.1012 23.4022L65.0954 23.4139ZM58.0975 64.0692V54.6706C47.6299 64.0692 40.1414 76.7389 36.2803 90.2673L42.3494 92.7032C44.5049 85.2322 47.6884 78.0182 52.0576 71.5811C52.9513 70.261 57.9632 64.5307 58.0975 64.0692ZM165.659 54.6706V64.0692C165.659 64.3613 168.907 67.6616 169.52 68.5144C175.583 76.9317 180.098 85.974 182.277 96.1963L187.523 90.7288C183.913 77.0368 176.161 64.151 165.659 54.6706ZM165.659 74.7763V92.9193C165.659 100.443 159.987 107.598 152.65 109.199C127.691 109 100.634 111.331 75.7849 109.766C67.2041 109.228 60.9597 105.285 58.6349 96.7453L58.0975 92.9134V74.7704C53.2785 81.0031 50.0541 88.7661 48.2082 96.4241C61.8885 108.51 60.9597 126.115 53.4478 141.431C57.6185 150.625 64.7566 157.874 72.3093 164.37C75.4227 158.055 79.2196 152.658 85.6041 149.305C81.965 143.528 80.2768 134.585 82.8061 128.101C85.0433 122.371 93.8637 123.983 98.5601 125.461C105.616 127.675 110.47 132.815 113.414 139.457C115.214 137.015 117.474 131.635 121.236 134.276C125.442 137.225 116.978 143.773 117.135 147.331C132.042 143.785 145.553 150.286 151.459 164.37L162.545 153.569C162.113 150.462 160.764 147.594 160.478 144.434C160.191 141.273 159.905 129.024 165.46 131.115C169.304 132.564 167.119 136.706 166.961 139.661C166.249 153.044 175.817 163.762 188.843 165.69V157.168C188.843 155.1 180.922 147.196 178.924 145.666C177.201 144.34 174.082 143.616 174.024 141.005C173.988 139.41 175.297 137.921 176.857 137.728C180.49 137.278 186.162 143.365 188.843 145.584V136.624C188.843 136.308 185.829 131.992 185.338 131.39C183.416 129.036 177.014 125.116 179.795 121.67C182.575 118.224 186.611 123.539 188.843 125.04V111.273C188.843 108.387 195.403 108.387 195.403 111.273V125.04C197.634 123.539 201.729 118.294 204.451 121.67C207.231 125.116 200.829 129.036 198.907 131.39C198.417 131.992 195.403 136.308 195.403 136.624V145.584C198.084 143.359 203.756 137.272 207.389 137.728C208.949 137.921 210.257 139.41 210.222 141.005C210.164 143.616 207.05 144.346 205.321 145.666C203.323 147.202 195.403 155.1 195.403 157.168V165.69C204.842 164.691 214.515 156.653 216.624 147.348C220.251 131.326 207.22 111.179 196.501 100.116C192.412 95.8925 192.704 94.9637 188.393 99.4557C181.886 106.237 176.448 114.059 171.827 122.231C169.532 123.662 166.64 123.09 166.5 120.017C166.383 117.377 170.933 111.021 172.569 108.545C173.784 106.699 176.559 104.14 176.646 102.096C176.88 96.535 171.652 84.2742 168.807 79.2799L165.671 74.7646L165.659 74.7763ZM107.941 147.775C108.239 137.068 98.9981 130.076 88.7292 130.753C87.6077 136.209 88.3378 142.173 91.7666 146.677C93.1101 147.43 94.6172 146.513 95.9256 146.466C100.09 146.32 103.922 146.7 107.941 147.769V147.775ZM70.2649 170.591C64.1374 166.63 58.8686 161.379 54.4175 155.608C52.9922 153.756 51.5962 150.917 50.2293 149.305C50.0249 149.06 49.6393 148.47 49.3473 148.861C48.6989 150.298 45.6264 153.476 45.9243 154.884C46.1988 156.157 52.4023 163.628 53.7107 165.053C55.2645 166.747 57.2622 168.751 58.962 170.293C60.6326 171.806 67.1515 177.273 68.8104 177.933C69.6048 178.249 69.3829 177.7 69.4471 177.279C69.7859 175.083 69.9962 172.793 70.2532 170.591H70.2649ZM95.1663 153.149C78.063 155.217 73.3724 176.899 77.2218 190.953C80.3937 202.531 91.7433 216.813 104.652 217.303C107.106 217.397 108.876 216.486 111.201 216.392C116.358 216.176 118.158 218.098 124.209 216.287C148.263 209.091 157.872 165.328 134.326 154.837C124.203 150.327 120.056 155.38 111.645 155.24C106.043 155.146 101.966 152.319 95.1546 153.143L95.1663 153.149ZM154.298 177.939C154.648 178.366 160.857 173.634 161.5 173.12C163.013 171.899 169.643 166.064 170.285 164.825C170.501 164.405 170.501 164.376 170.285 163.961C169.812 163.038 167.032 160.772 166.296 159.603C165.951 159.527 162.072 163.926 161.301 164.621C158.971 166.741 156.196 169.014 153.497 170.591L154.303 177.945L154.298 177.939ZM33.1786 163.949H25.7427V172.472C25.7427 174.872 21.2157 176.514 20.0591 178.155C18.2717 180.685 18.9726 184.236 21.8056 185.585C25.287 187.244 26.5371 184.575 29.4636 184.575C32.39 184.575 33.8971 187.431 37.4252 185.457C39.5923 184.242 40.3342 181.193 39.4113 178.926C38.5292 176.759 33.1845 175.094 33.1845 172.478V163.955L33.1786 163.949Z"/>
</mask>
<path d="M102.696 223.84C85.1193 221.842 71.5733 202.291 69.2251 185.831C58.337 179.23 48.1206 170.491 41.4732 159.58L39.7267 160.76L39.8143 170.205C44.464 173.879 47.2678 177.408 46.1871 183.734C45.3635 188.564 39.9019 192.735 35.1179 192.811C33.1903 192.84 30.8479 191.543 29.4577 191.543C27.8923 191.543 25.6901 192.881 23.4062 192.77C13.8907 192.291 9.02492 180.521 15.3101 173.418C16.1805 172.437 18.8324 171.081 19.0953 170.211L19.1829 160.766C4.75495 147.716 -8.8786 116.144 7.37768 99.923C10.3451 96.9614 14.2178 98.7489 13.4877 102.522C13.2657 103.65 10.0238 107.16 9.19432 108.732C2.23736 121.933 11.4666 143.96 21.1339 153.908C25.8712 158.786 33.3422 158.61 37.9626 153.669C44.5691 146.601 51.9817 131.034 52.4198 121.355C52.9981 108.72 43.2723 96.7745 30.3105 96.2021C27.3841 96.0736 19.6736 99.0468 20.1292 93.4684C20.4446 89.5839 26.759 90.0921 29.6213 89.5956C34.084 72.4456 44.3413 57.2115 57.8639 45.9262C59.3067 34.5766 54.5343 20.9664 65.1187 12.9639C69.9904 9.28384 74.2428 10.271 79.9789 9.89718C80.604 7.40879 80.7675 5.32346 82.5725 3.31406C88.3729 -3.12888 99.5881 0.498559 99.6933 9.35978L100.336 10.0257L123.911 9.67521C124.022 1.22872 134.25 -3.15808 140.518 2.63647C142.726 4.67507 143.135 7.11673 143.748 9.89718C149.543 10.2477 153.988 9.36562 158.854 13.1566C169.123 21.1533 164.432 34.7051 165.863 45.9262C177.704 55.7337 186.384 68.0763 191.88 82.4225C192.389 83.7485 193.849 89.5489 194.158 89.9811C194.264 90.133 196.623 91.237 197.33 91.8386C208.808 101.599 222.343 122.564 223.797 137.728V145.158C222.734 150.065 221.367 154.305 218.563 158.499C213.493 166.081 204.579 171.724 195.373 172.256C195.519 175.532 196.255 182.519 190.876 180.906C187.751 179.972 189.065 174.715 188.819 172.256C185.788 172.32 182.873 171.309 180.081 170.281C179.024 169.896 176.547 168.102 175.712 168.517C169.479 175.287 162.458 181.146 154.525 185.837C151.359 203.483 139.648 220.592 121.043 223.834H115.798C113.414 222.654 110.313 222.654 107.929 223.834C106.241 223.7 104.331 224.021 102.684 223.834L102.696 223.84ZM92.5085 7.58987C91.2643 6.04777 87.6894 6.33984 87.1462 8.29667C86.7256 9.8154 86.6847 17.6661 87.5259 18.7C88.7642 20.2304 92.3449 19.9559 92.8882 17.9932C93.3029 16.4978 93.3555 8.63546 92.5085 7.58987ZM136.236 7.58987C134.992 6.04777 131.417 6.33984 130.874 8.29667C130.453 9.8154 130.413 17.6661 131.254 18.7C132.492 20.2304 136.073 19.9559 136.616 17.9932C137.031 16.4978 137.083 8.63546 136.236 7.58987ZM65.0954 23.4139C64.3886 26.8895 65.6211 32.573 65.0954 36.3114H99.4187C99.5823 36.3114 100.897 37.801 101.06 38.1748C102.036 40.4179 99.775 42.8654 97.6722 42.8654H65.0954V95.9743C65.0954 96.1378 66.398 98.4335 66.655 98.7898C68.8455 101.891 72.1341 102.955 75.7907 103.206C99.4421 104.841 124.974 101.944 148.824 103.177C152.049 102.885 155.209 101.477 157.113 98.7839C157.364 98.4276 158.673 96.132 158.673 95.9684V42.8595H113.42C113.286 42.8595 111.247 41.9424 111.025 41.7555C109.331 40.2777 110.301 36.3056 112.106 36.3056H158.673V23.4081C158.673 23.2445 157.37 20.9547 157.113 20.5926C153.591 15.5983 148.778 16.6497 143.363 16.6263C143.258 29.3486 124.25 29.372 124.127 16.6263H99.6407C99.5355 29.3545 80.5222 29.3662 80.4054 16.6263C75.9893 16.8425 72.3093 15.6158 68.5884 18.5832C67.5604 19.4068 65.3465 22.2048 65.1012 23.4022L65.0954 23.4139ZM58.0975 64.0692V54.6706C47.6299 64.0692 40.1414 76.7389 36.2803 90.2673L42.3494 92.7032C44.5049 85.2322 47.6884 78.0182 52.0576 71.5811C52.9513 70.261 57.9632 64.5307 58.0975 64.0692ZM165.659 54.6706V64.0692C165.659 64.3613 168.907 67.6616 169.52 68.5144C175.583 76.9317 180.098 85.974 182.277 96.1963L187.523 90.7288C183.913 77.0368 176.161 64.151 165.659 54.6706ZM165.659 74.7763V92.9193C165.659 100.443 159.987 107.598 152.65 109.199C127.691 109 100.634 111.331 75.7849 109.766C67.2041 109.228 60.9597 105.285 58.6349 96.7453L58.0975 92.9134V74.7704C53.2785 81.0031 50.0541 88.7661 48.2082 96.4241C61.8885 108.51 60.9597 126.115 53.4478 141.431C57.6185 150.625 64.7566 157.874 72.3093 164.37C75.4227 158.055 79.2196 152.658 85.6041 149.305C81.965 143.528 80.2768 134.585 82.8061 128.101C85.0433 122.371 93.8637 123.983 98.5601 125.461C105.616 127.675 110.47 132.815 113.414 139.457C115.214 137.015 117.474 131.635 121.236 134.276C125.442 137.225 116.978 143.773 117.135 147.331C132.042 143.785 145.553 150.286 151.459 164.37L162.545 153.569C162.113 150.462 160.764 147.594 160.478 144.434C160.191 141.273 159.905 129.024 165.46 131.115C169.304 132.564 167.119 136.706 166.961 139.661C166.249 153.044 175.817 163.762 188.843 165.69V157.168C188.843 155.1 180.922 147.196 178.924 145.666C177.201 144.34 174.082 143.616 174.024 141.005C173.988 139.41 175.297 137.921 176.857 137.728C180.49 137.278 186.162 143.365 188.843 145.584V136.624C188.843 136.308 185.829 131.992 185.338 131.39C183.416 129.036 177.014 125.116 179.795 121.67C182.575 118.224 186.611 123.539 188.843 125.04V111.273C188.843 108.387 195.403 108.387 195.403 111.273V125.04C197.634 123.539 201.729 118.294 204.451 121.67C207.231 125.116 200.829 129.036 198.907 131.39C198.417 131.992 195.403 136.308 195.403 136.624V145.584C198.084 143.359 203.756 137.272 207.389 137.728C208.949 137.921 210.257 139.41 210.222 141.005C210.164 143.616 207.05 144.346 205.321 145.666C203.323 147.202 195.403 155.1 195.403 157.168V165.69C204.842 164.691 214.515 156.653 216.624 147.348C220.251 131.326 207.22 111.179 196.501 100.116C192.412 95.8925 192.704 94.9637 188.393 99.4557C181.886 106.237 176.448 114.059 171.827 122.231C169.532 123.662 166.64 123.09 166.5 120.017C166.383 117.377 170.933 111.021 172.569 108.545C173.784 106.699 176.559 104.14 176.646 102.096C176.88 96.535 171.652 84.2742 168.807 79.2799L165.671 74.7646L165.659 74.7763ZM107.941 147.775C108.239 137.068 98.9981 130.076 88.7292 130.753C87.6077 136.209 88.3378 142.173 91.7666 146.677C93.1101 147.43 94.6172 146.513 95.9256 146.466C100.09 146.32 103.922 146.7 107.941 147.769V147.775ZM70.2649 170.591C64.1374 166.63 58.8686 161.379 54.4175 155.608C52.9922 153.756 51.5962 150.917 50.2293 149.305C50.0249 149.06 49.6393 148.47 49.3473 148.861C48.6989 150.298 45.6264 153.476 45.9243 154.884C46.1988 156.157 52.4023 163.628 53.7107 165.053C55.2645 166.747 57.2622 168.751 58.962 170.293C60.6326 171.806 67.1515 177.273 68.8104 177.933C69.6048 178.249 69.3829 177.7 69.4471 177.279C69.7859 175.083 69.9962 172.793 70.2532 170.591H70.2649ZM95.1663 153.149C78.063 155.217 73.3724 176.899 77.2218 190.953C80.3937 202.531 91.7433 216.813 104.652 217.303C107.106 217.397 108.876 216.486 111.201 216.392C116.358 216.176 118.158 218.098 124.209 216.287C148.263 209.091 157.872 165.328 134.326 154.837C124.203 150.327 120.056 155.38 111.645 155.24C106.043 155.146 101.966 152.319 95.1546 153.143L95.1663 153.149ZM154.298 177.939C154.648 178.366 160.857 173.634 161.5 173.12C163.013 171.899 169.643 166.064 170.285 164.825C170.501 164.405 170.501 164.376 170.285 163.961C169.812 163.038 167.032 160.772 166.296 159.603C165.951 159.527 162.072 163.926 161.301 164.621C158.971 166.741 156.196 169.014 153.497 170.591L154.303 177.945L154.298 177.939ZM33.1786 163.949H25.7427V172.472C25.7427 174.872 21.2157 176.514 20.0591 178.155C18.2717 180.685 18.9726 184.236 21.8056 185.585C25.287 187.244 26.5371 184.575 29.4636 184.575C32.39 184.575 33.8971 187.431 37.4252 185.457C39.5923 184.242 40.3342 181.193 39.4113 178.926C38.5292 176.759 33.1845 175.094 33.1845 172.478V163.955L33.1786 163.949Z" fill="black" stroke="black" stroke-width="3.04762" mask="url(#path-1-inside-1_1330_46)"/>
<path d="M127.195 52.4658C132.446 51.5836 136.566 53.8023 138.559 57.1758C140.549 60.5465 140.479 65.1774 137.1 69.2803C135.451 71.2821 130.673 76.2961 125.799 81.0986C123.367 83.4952 120.921 85.8285 118.844 87.6963C116.873 89.4684 115.289 90.7687 114.366 91.334L114.19 91.4375C109.527 94.0483 104.261 94.1843 99.4336 91.8877V91.8867C98.895 91.631 97.8514 90.8665 96.502 89.7441C95.1802 88.6447 93.6335 87.2617 92.1143 85.8369C90.5952 84.4123 89.1104 82.952 87.9121 81.7002C86.6952 80.4289 85.824 79.4233 85.4854 78.8896H85.4844C79.7647 69.8575 89.6556 59.3326 99.1494 64.4316C100.345 65.074 101.46 66.0681 102.578 67.1895C103.663 68.2777 104.794 69.5362 105.905 70.5312L106.405 70.9795L106.913 70.54C109.551 68.255 112.044 65.5327 114.503 62.877C116.975 60.2066 119.413 57.6005 121.981 55.4736C122.729 54.8558 123.602 54.1731 124.518 53.6055C125.44 53.0332 126.358 52.6095 127.196 52.4668L127.195 52.4658ZM128.196 57.5205C127.247 57.7374 126.688 58.3417 126.28 58.6455C123.471 60.7289 120.748 63.7881 118.092 66.7861C115.406 69.8175 112.784 72.7896 110.114 74.8447C108.305 76.2367 106.868 76.5299 105.674 76.3193C104.439 76.1016 103.305 75.3208 102.167 74.2373C101.603 73.7005 101.057 73.1091 100.508 72.5029C99.9653 71.9037 99.4138 71.2828 98.8633 70.7227C97.8542 69.6959 96.7163 68.7258 95.4023 68.4219L95.1367 68.3701C92.4679 67.9479 90.3869 68.9401 89.4639 70.7744C88.5588 72.5733 88.8972 74.9316 90.4941 77.0059H90.4951C91.2622 78.001 93.4734 80.2889 95.6963 82.4199C96.8157 83.4931 97.954 84.5418 98.9355 85.3857C99.8911 86.2074 100.767 86.8948 101.337 87.1846V87.1855C103.667 88.3723 105.843 88.7611 107.95 88.4131C110.045 88.0671 111.993 87.0056 113.901 85.4355H113.902C117.371 82.5795 120.687 79.0548 123.945 75.5225C127.218 71.9755 130.43 68.4233 133.735 65.4414L133.809 65.376L133.863 65.293C135.228 63.2058 135.13 60.9538 133.948 59.3564C133.133 58.2544 131.851 57.5324 130.328 57.3799L130.778 56.9307L128.196 57.5205Z" fill="black" stroke="black" stroke-width="1.52381"/>
</svg>
