<svg width="348" height="379" viewBox="0 0 348 379" fill="none" xmlns="http://www.w3.org/2000/svg">
<mask id="path-1-inside-1_1330_24" fill="white">
<path d="M341.037 82.0873H315.775C314.1 82.0873 312.493 82.7527 311.309 83.9371C310.125 85.1214 309.459 86.7278 309.459 88.4028V94.7183C309.459 93.0433 308.794 91.4369 307.609 90.2526C306.425 89.0682 304.819 88.4028 303.144 88.4028H284.197C282.592 88.3993 281.046 89.0072 279.873 90.1028C278.7 91.1985 277.988 92.6998 277.882 94.3015L277.446 101.034H265.251V88.4028C265.251 86.7278 264.585 85.1214 263.401 83.9371C262.217 82.7527 260.61 82.0873 258.935 82.0873H233.673C231.998 82.0873 230.392 82.7527 229.208 83.9371C228.023 85.1214 227.358 86.7278 227.358 88.4028V126.296C227.358 127.971 228.023 129.577 229.208 130.761C230.392 131.946 231.998 132.611 233.673 132.611H258.935C260.61 132.611 262.217 131.946 263.401 130.761C264.585 129.577 265.251 127.971 265.251 126.296V113.665H276.619L273.17 165.332C272.605 171.857 267.126 176.854 260.577 176.82H221.042V174.11C221.038 172.919 220.696 171.753 220.057 170.747C219.417 169.741 218.507 168.937 217.43 168.426C208.877 164.431 199.809 161.647 190.488 160.153C189.476 160.008 188.444 160.112 187.482 160.456C184.005 159.397 180.442 158.644 176.834 158.208V140.979C178.707 140.021 180.52 138.952 182.265 137.777C203.485 122.93 221.042 108.019 221.042 75.9297V69.4563C221.027 59.9552 219.07 50.5575 215.292 41.84C211.514 33.1224 205.994 25.269 199.071 18.7618C174.452 -4.12711 137.051 -6.31859 109.927 13.5389C82.4961 8.60335 56.2568 26.8401 51.3213 54.2723C50.7947 57.1992 50.5279 60.1669 50.524 63.1408V157.873C50.524 159.548 51.1893 161.155 52.3737 162.339C53.5581 163.523 55.1645 164.189 56.8395 164.189C80.9878 164.23 104.218 154.936 121.674 138.251C123.172 139.239 124.719 140.149 126.31 140.979V158.208C122.7 158.636 119.135 159.38 115.656 160.431C114.695 160.087 113.666 159.983 112.656 160.128C103.335 161.621 94.2669 164.406 85.7139 168.401C84.6369 168.911 83.7263 169.716 83.087 170.722C82.4478 171.727 82.1061 172.893 82.1014 174.085V174.294C58.2186 201.122 44.7707 235.638 44.2085 271.552C44.2085 288.876 45.0358 308.814 50.164 322.076H37.893V309.445C37.893 307.77 37.2276 306.164 36.0432 304.979C34.8588 303.795 33.2524 303.13 31.5775 303.13H6.31549C4.64052 303.13 3.03415 303.795 1.84977 304.979C0.665382 306.164 0 307.77 0 309.445V347.338C0 349.013 0.665382 350.619 1.84977 351.804C3.03415 352.988 4.64052 353.654 6.31549 353.654H31.5775C33.2524 353.654 34.8588 352.988 36.0432 351.804C37.2276 350.619 37.893 349.013 37.893 347.338V334.707H73.9986C66.9151 348.369 63.1974 363.526 63.1549 378.916H75.7859C75.8183 368.051 77.9633 357.296 82.1014 347.25V347.338C82.1014 349.013 82.7668 350.619 83.9512 351.804C85.1356 352.988 86.742 353.654 88.4169 353.654H113.679C115.354 353.654 116.96 352.988 118.145 351.804C119.329 350.619 119.994 349.013 119.994 347.338V322.076H199.064L202.702 326.623C214.555 341.478 221.02 359.912 221.042 378.916H233.673C233.646 357.045 226.203 335.83 212.561 318.735L207.729 312.698L205.304 305.422C199.426 287.762 199.987 268.591 206.889 251.305L207.243 250.42C211.071 249.221 214.442 246.884 216.907 243.72C219.373 240.557 220.815 236.716 221.042 232.712V232.453L289.496 217.788C301.114 215.242 309.409 204.976 309.459 193.082V126.296C309.459 127.971 310.125 129.577 311.309 130.761C312.493 131.946 314.1 132.611 315.775 132.611H341.037C342.712 132.611 344.318 131.946 345.502 130.761C346.687 129.577 347.352 127.971 347.352 126.296V88.4028C347.352 86.7278 346.687 85.1214 345.502 83.9371C344.318 82.7527 342.712 82.0873 341.037 82.0873ZM252.62 119.98H239.989V94.7183H252.62V119.98ZM25.262 341.023H12.631V315.761H25.262V341.023ZM74.2007 319.411L74.6428 322.095H64.1591C60.553 317.074 56.8395 304.026 56.8395 271.552C57.3629 243.735 66.1571 216.703 82.1014 193.903V232.257C73.7713 251.128 71.0051 300.224 74.2007 319.411ZM147.783 12.7368C177.735 10.719 204.08 32.3678 207.906 62.143L173.341 44.8574C172.13 44.2486 170.754 44.0492 169.419 44.2891L96.046 57.2358C101.237 32.4049 122.455 14.1547 147.783 12.7368ZM63.1549 151.318V63.1408C63.1802 43.5809 78.0745 27.2483 97.5491 25.4247C87.4774 37.8819 82.0202 53.4371 82.1014 69.4563V75.9297C82.1014 103.023 94.6377 117.858 111.304 130.767C97.9716 142.758 81.037 149.986 63.1549 151.318ZM94.7324 75.9297V70.2963L169.565 57.0906L208.38 76.4981C208.197 100.017 197.454 111.726 175.028 127.433C160.931 137.248 142.213 137.248 128.116 127.433C105.5 111.593 94.7324 99.8528 94.7324 75.9297ZM119.994 172.216C124.11 171.088 128.358 170.512 132.625 170.504C134.3 170.504 135.907 169.839 137.091 168.654C138.276 167.47 138.941 165.864 138.941 164.189V145.766C147.218 147.969 155.926 147.969 164.203 145.766V164.189C164.203 165.864 164.868 167.47 166.053 168.654C167.237 169.839 168.843 170.504 170.518 170.504C174.786 170.512 179.033 171.088 183.149 172.216V182.321L151.572 189.11L119.994 182.321V172.216ZM85.6318 303.843C85.2443 284.96 86.8766 266.089 90.501 247.553C92.1462 248.691 93.918 249.635 95.7808 250.364C102.148 267.331 102.422 285.983 96.5576 303.13H88.4169C87.4453 303.145 86.4909 303.389 85.6318 303.843ZM107.363 341.023H94.7324V315.761H107.363V341.023ZM119.994 309.445C119.994 307.77 119.329 306.164 118.145 304.979C116.96 303.795 115.354 303.13 113.679 303.13H109.89C114.67 286.627 114.67 269.108 109.89 252.606H193.002C187.071 271.106 187.184 291.013 193.324 309.445H119.994ZM208.411 232.712C208.411 236.141 203.012 239.975 195.78 239.975H107.363C100.132 239.975 94.7324 236.141 94.7324 232.712V178.222C98.8323 176.529 103.055 175.151 107.363 174.098V187.442C107.363 188.887 107.858 190.289 108.766 191.413C109.674 192.537 110.94 193.315 112.353 193.619L150.246 201.772C151.119 201.963 152.024 201.963 152.898 201.772L190.791 193.619C192.204 193.315 193.47 192.537 194.378 191.413C195.286 190.289 195.781 188.887 195.78 187.442V174.091C200.089 175.144 204.311 176.523 208.411 178.215V232.712ZM286.843 205.435L221.042 219.531V189.451H260.577C273.717 189.491 284.68 179.42 285.751 166.323L290.109 101.034H296.828V193.082C296.817 195.97 295.822 198.767 294.007 201.013C292.191 203.259 289.665 204.819 286.843 205.435ZM334.721 119.98H322.09V94.7183H334.721V119.98Z"/>
</mask>
<path d="M341.037 82.0873H315.775C314.1 82.0873 312.493 82.7527 311.309 83.9371C310.125 85.1214 309.459 86.7278 309.459 88.4028V94.7183C309.459 93.0433 308.794 91.4369 307.609 90.2526C306.425 89.0682 304.819 88.4028 303.144 88.4028H284.197C282.592 88.3993 281.046 89.0072 279.873 90.1028C278.7 91.1985 277.988 92.6998 277.882 94.3015L277.446 101.034H265.251V88.4028C265.251 86.7278 264.585 85.1214 263.401 83.9371C262.217 82.7527 260.61 82.0873 258.935 82.0873H233.673C231.998 82.0873 230.392 82.7527 229.208 83.9371C228.023 85.1214 227.358 86.7278 227.358 88.4028V126.296C227.358 127.971 228.023 129.577 229.208 130.761C230.392 131.946 231.998 132.611 233.673 132.611H258.935C260.61 132.611 262.217 131.946 263.401 130.761C264.585 129.577 265.251 127.971 265.251 126.296V113.665H276.619L273.17 165.332C272.605 171.857 267.126 176.854 260.577 176.82H221.042V174.11C221.038 172.919 220.696 171.753 220.057 170.747C219.417 169.741 218.507 168.937 217.43 168.426C208.877 164.431 199.809 161.647 190.488 160.153C189.476 160.008 188.444 160.112 187.482 160.456C184.005 159.397 180.442 158.644 176.834 158.208V140.979C178.707 140.021 180.52 138.952 182.265 137.777C203.485 122.93 221.042 108.019 221.042 75.9297V69.4563C221.027 59.9552 219.07 50.5575 215.292 41.84C211.514 33.1224 205.994 25.269 199.071 18.7618C174.452 -4.12711 137.051 -6.31859 109.927 13.5389C82.4961 8.60335 56.2568 26.8401 51.3213 54.2723C50.7947 57.1992 50.5279 60.1669 50.524 63.1408V157.873C50.524 159.548 51.1893 161.155 52.3737 162.339C53.5581 163.523 55.1645 164.189 56.8395 164.189C80.9878 164.23 104.218 154.936 121.674 138.251C123.172 139.239 124.719 140.149 126.31 140.979V158.208C122.7 158.636 119.135 159.38 115.656 160.431C114.695 160.087 113.666 159.983 112.656 160.128C103.335 161.621 94.2669 164.406 85.7139 168.401C84.6369 168.911 83.7263 169.716 83.087 170.722C82.4478 171.727 82.1061 172.893 82.1014 174.085V174.294C58.2186 201.122 44.7707 235.638 44.2085 271.552C44.2085 288.876 45.0358 308.814 50.164 322.076H37.893V309.445C37.893 307.77 37.2276 306.164 36.0432 304.979C34.8588 303.795 33.2524 303.13 31.5775 303.13H6.31549C4.64052 303.13 3.03415 303.795 1.84977 304.979C0.665382 306.164 0 307.77 0 309.445V347.338C0 349.013 0.665382 350.619 1.84977 351.804C3.03415 352.988 4.64052 353.654 6.31549 353.654H31.5775C33.2524 353.654 34.8588 352.988 36.0432 351.804C37.2276 350.619 37.893 349.013 37.893 347.338V334.707H73.9986C66.9151 348.369 63.1974 363.526 63.1549 378.916H75.7859C75.8183 368.051 77.9633 357.296 82.1014 347.25V347.338C82.1014 349.013 82.7668 350.619 83.9512 351.804C85.1356 352.988 86.742 353.654 88.4169 353.654H113.679C115.354 353.654 116.96 352.988 118.145 351.804C119.329 350.619 119.994 349.013 119.994 347.338V322.076H199.064L202.702 326.623C214.555 341.478 221.02 359.912 221.042 378.916H233.673C233.646 357.045 226.203 335.83 212.561 318.735L207.729 312.698L205.304 305.422C199.426 287.762 199.987 268.591 206.889 251.305L207.243 250.42C211.071 249.221 214.442 246.884 216.907 243.72C219.373 240.557 220.815 236.716 221.042 232.712V232.453L289.496 217.788C301.114 215.242 309.409 204.976 309.459 193.082V126.296C309.459 127.971 310.125 129.577 311.309 130.761C312.493 131.946 314.1 132.611 315.775 132.611H341.037C342.712 132.611 344.318 131.946 345.502 130.761C346.687 129.577 347.352 127.971 347.352 126.296V88.4028C347.352 86.7278 346.687 85.1214 345.502 83.9371C344.318 82.7527 342.712 82.0873 341.037 82.0873ZM252.62 119.98H239.989V94.7183H252.62V119.98ZM25.262 341.023H12.631V315.761H25.262V341.023ZM74.2007 319.411L74.6428 322.095H64.1591C60.553 317.074 56.8395 304.026 56.8395 271.552C57.3629 243.735 66.1571 216.703 82.1014 193.903V232.257C73.7713 251.128 71.0051 300.224 74.2007 319.411ZM147.783 12.7368C177.735 10.719 204.08 32.3678 207.906 62.143L173.341 44.8574C172.13 44.2486 170.754 44.0492 169.419 44.2891L96.046 57.2358C101.237 32.4049 122.455 14.1547 147.783 12.7368ZM63.1549 151.318V63.1408C63.1802 43.5809 78.0745 27.2483 97.5491 25.4247C87.4774 37.8819 82.0202 53.4371 82.1014 69.4563V75.9297C82.1014 103.023 94.6377 117.858 111.304 130.767C97.9716 142.758 81.037 149.986 63.1549 151.318ZM94.7324 75.9297V70.2963L169.565 57.0906L208.38 76.4981C208.197 100.017 197.454 111.726 175.028 127.433C160.931 137.248 142.213 137.248 128.116 127.433C105.5 111.593 94.7324 99.8528 94.7324 75.9297ZM119.994 172.216C124.11 171.088 128.358 170.512 132.625 170.504C134.3 170.504 135.907 169.839 137.091 168.654C138.276 167.47 138.941 165.864 138.941 164.189V145.766C147.218 147.969 155.926 147.969 164.203 145.766V164.189C164.203 165.864 164.868 167.47 166.053 168.654C167.237 169.839 168.843 170.504 170.518 170.504C174.786 170.512 179.033 171.088 183.149 172.216V182.321L151.572 189.11L119.994 182.321V172.216ZM85.6318 303.843C85.2443 284.96 86.8766 266.089 90.501 247.553C92.1462 248.691 93.918 249.635 95.7808 250.364C102.148 267.331 102.422 285.983 96.5576 303.13H88.4169C87.4453 303.145 86.4909 303.389 85.6318 303.843ZM107.363 341.023H94.7324V315.761H107.363V341.023ZM119.994 309.445C119.994 307.77 119.329 306.164 118.145 304.979C116.96 303.795 115.354 303.13 113.679 303.13H109.89C114.67 286.627 114.67 269.108 109.89 252.606H193.002C187.071 271.106 187.184 291.013 193.324 309.445H119.994ZM208.411 232.712C208.411 236.141 203.012 239.975 195.78 239.975H107.363C100.132 239.975 94.7324 236.141 94.7324 232.712V178.222C98.8323 176.529 103.055 175.151 107.363 174.098V187.442C107.363 188.887 107.858 190.289 108.766 191.413C109.674 192.537 110.94 193.315 112.353 193.619L150.246 201.772C151.119 201.963 152.024 201.963 152.898 201.772L190.791 193.619C192.204 193.315 193.47 192.537 194.378 191.413C195.286 190.289 195.781 188.887 195.78 187.442V174.091C200.089 175.144 204.311 176.523 208.411 178.215V232.712ZM286.843 205.435L221.042 219.531V189.451H260.577C273.717 189.491 284.68 179.42 285.751 166.323L290.109 101.034H296.828V193.082C296.817 195.97 295.822 198.767 294.007 201.013C292.191 203.259 289.665 204.819 286.843 205.435ZM334.721 119.98H322.09V94.7183H334.721V119.98Z" fill="black" stroke="black" stroke-width="2" mask="url(#path-1-inside-1_1330_24)"/>
</svg>
