<svg width="351" height="410" viewBox="0 0 351 410" fill="none" xmlns="http://www.w3.org/2000/svg">
<mask id="path-1-inside-1_1330_26" fill="white">
<path d="M282.318 290.864C288.631 291.022 293.061 286.235 298.741 283.813C324.539 272.806 341.645 287.434 347.632 312.247C358.086 355.564 334.458 428.906 277.47 404.297C271.632 406.989 264.413 409.225 257.942 409.415C251.407 409.61 245.922 406.859 239.349 409.415H11.9949C4.05092 409.383 -0.946025 402.903 0.652999 395.238C2.06609 364.141 -1.31324 331.263 0.606516 300.37C1.75 281.981 9.99613 263.225 21.0917 248.806C22.621 246.821 25.9213 244.218 26.2002 241.829L26.1723 91.6603C31.1878 29.3542 90.9699 -13.1733 151.798 3.72798C193.098 15.2047 222.438 53.5022 223.74 96.3366L223.842 241.727C234.222 252.762 242.171 265.991 246.633 280.526C256.567 282.232 264.366 288.14 273.017 292.719V258.554C273.017 258.34 274.267 255.941 274.556 255.676C276.824 253.548 282.314 255.035 282.314 257.624V290.86L282.318 290.864ZM214.448 232.756L214.471 98.6328C213.728 41.9744 162.54 -0.250987 106.523 11.1792C67.7562 19.0907 38.7786 52.3169 35.4736 91.665L35.4968 234.155C50.1995 222.241 68.3884 214.674 87.3257 212.777C88.7666 212.633 93.0896 213.358 93.5312 212.01L93.3592 203.016C69.1972 190.907 52.4074 166.875 50.8084 139.585C49.7393 121.289 49.135 87.9556 54.885 71.1101C56.233 67.1683 63.8609 50.8759 67.217 49.5093C73.7014 46.8691 75.0215 55.7939 77.8756 59.9913C91.4255 79.9233 127.111 78.6915 148.065 75.0379C162.401 72.5371 178.605 66.406 193.252 70.5848C194.228 70.8637 195.362 71.1845 196.064 71.9561C197.863 73.927 199.862 85.836 200.061 88.876C201.061 104.113 201.005 126.639 200.061 141.904C198.504 167.107 180.701 192.348 157.818 202.62L157.715 212.024C157.915 212.768 166.147 213.093 167.672 213.307C179.618 214.971 191.244 218.931 201.749 224.784C205.681 226.973 209.307 230.171 212.914 232.212C213.43 232.505 213.751 232.923 214.448 232.765V232.756ZM69.4157 63.5612C68.5883 63.3753 68.4999 63.8029 68.1002 64.3282C63.8563 69.9108 60.5048 85.1015 60.1051 92.1252C59.2405 107.353 58.6083 137.349 62.1224 151.508C78.373 217.067 173.58 216.719 189.203 150.569C192.564 136.34 192.336 103.453 190.681 88.4855C190.518 87.0213 189.477 80.1929 188.775 79.4678C176.192 76.6137 163.595 81.6107 151.314 83.8651C125.972 88.5181 90.5144 89.1921 72.2186 67.9632C71.1774 66.7546 69.927 65.0859 69.4064 63.5659L69.4157 63.5612ZM148.446 206.73C133.437 211.076 117.879 211.22 102.893 206.73V238.571C102.893 248.871 116.271 258.07 125.916 257.889C135.929 257.703 148.446 248.128 148.446 237.641V206.73ZM157.743 221.604V238.106C157.743 240.16 155.814 246.194 154.889 248.267C145.234 269.905 115.62 273.628 100.583 255.295C98.2539 252.46 93.6009 243.437 93.6009 239.965V222.302C93.2523 221.827 93.1965 221.795 92.6526 221.795C91.4162 221.795 82.3473 222.613 81.9987 223.017L125.442 386.16L169.383 223.25L157.748 221.604H157.743ZM72.6323 225.365C71.2099 224.342 55.3963 231.942 53.0117 233.313C51.8589 233.978 45.0538 238.115 45.2537 239.026L67.798 258.326C69.1647 259.869 69.7596 261.408 69.2065 263.453C67.9654 268.036 61.7645 274.786 60.0214 279.378C59.7239 280.164 59.459 280.731 59.8634 281.577L111.255 370.351L72.6323 225.369V225.365ZM139.619 370.351L191.481 281.107C191.76 280.494 191.383 280.062 191.169 279.541C189.17 274.609 183.913 268.966 182.142 263.881C181.608 262.347 181.543 261.333 182.17 259.744L205.588 238.975C205.723 238.217 203.478 236.79 202.79 236.288C195.966 231.324 186.335 227.233 178.196 225.318L139.619 370.346V370.351ZM10.6237 400.1H46.6482V345.482C46.6482 342.526 51.6265 340.908 54.0762 342.702C54.5178 343.023 55.9448 345.199 55.9448 345.482V400.1H117.303L49.651 282.521C49.1676 281.233 49.4093 280.145 49.7997 278.904C51.2686 274.233 56.6142 268.469 58.4828 263.876C58.6548 263.453 58.9337 263.021 58.6734 262.565L37.5793 244.957C24.6523 256.634 15.2999 272.908 11.6416 290.018C10.4796 295.452 9.69864 301.783 9.44763 307.347C8.09497 337.334 10.2425 368.575 9.77301 398.631L10.6283 400.1H10.6237ZM134.037 400.1H194.697L195.395 399.403V344.552C195.395 344.306 197.593 342.382 198.156 342.205C199.936 341.647 202.283 341.898 203.501 343.414C203.734 343.702 204.691 345.775 204.691 345.942V400.095H230.722C231.015 398.998 230.443 399.31 230.127 399.031C209.781 381.046 202.869 345.989 206.625 319.986C209.191 302.243 217.274 283.543 236.746 279.945C231.656 266.753 224.182 254.096 213.351 244.869L192.819 262.519L192.95 264.225C194.298 267.846 201.991 277.644 201.87 280.819C201.842 281.53 201.428 282.279 201.196 282.953L134.395 398.361L134.032 400.091L134.037 400.1ZM301.841 293.184C308.795 296.015 314.94 302.973 317.195 310.141C320.393 320.316 318.673 323.663 308.274 325.889C292.126 329.348 276.847 318.605 273.491 302.713C259.523 298.181 246.052 282.846 230.396 292.17C201.066 309.644 213.644 411.149 265.501 398.859C271.72 397.385 274.5 393.769 281.482 395.591C283.364 396.084 285.2 397.306 287.069 397.906C328.43 411.13 343.458 355.648 340.413 325.039C338.563 306.45 329.494 283.074 306.238 290.855C305.727 291.027 301.39 292.612 301.841 293.188V293.184ZM282.778 300.626C284.257 311.587 295.845 319.442 306.587 316.76C308.247 316.346 308.976 316.398 308.725 314.455C308.381 311.8 305.574 307.436 303.71 305.488C298.248 299.775 290.216 298.469 282.778 300.621V300.626Z"/>
</mask>
<path d="M282.318 290.864C288.631 291.022 293.061 286.235 298.741 283.813C324.539 272.806 341.645 287.434 347.632 312.247C358.086 355.564 334.458 428.906 277.47 404.297C271.632 406.989 264.413 409.225 257.942 409.415C251.407 409.61 245.922 406.859 239.349 409.415H11.9949C4.05092 409.383 -0.946025 402.903 0.652999 395.238C2.06609 364.141 -1.31324 331.263 0.606516 300.37C1.75 281.981 9.99613 263.225 21.0917 248.806C22.621 246.821 25.9213 244.218 26.2002 241.829L26.1723 91.6603C31.1878 29.3542 90.9699 -13.1733 151.798 3.72798C193.098 15.2047 222.438 53.5022 223.74 96.3366L223.842 241.727C234.222 252.762 242.171 265.991 246.633 280.526C256.567 282.232 264.366 288.14 273.017 292.719V258.554C273.017 258.34 274.267 255.941 274.556 255.676C276.824 253.548 282.314 255.035 282.314 257.624V290.86L282.318 290.864ZM214.448 232.756L214.471 98.6328C213.728 41.9744 162.54 -0.250987 106.523 11.1792C67.7562 19.0907 38.7786 52.3169 35.4736 91.665L35.4968 234.155C50.1995 222.241 68.3884 214.674 87.3257 212.777C88.7666 212.633 93.0896 213.358 93.5312 212.01L93.3592 203.016C69.1972 190.907 52.4074 166.875 50.8084 139.585C49.7393 121.289 49.135 87.9556 54.885 71.1101C56.233 67.1683 63.8609 50.8759 67.217 49.5093C73.7014 46.8691 75.0215 55.7939 77.8756 59.9913C91.4255 79.9233 127.111 78.6915 148.065 75.0379C162.401 72.5371 178.605 66.406 193.252 70.5848C194.228 70.8637 195.362 71.1845 196.064 71.9561C197.863 73.927 199.862 85.836 200.061 88.876C201.061 104.113 201.005 126.639 200.061 141.904C198.504 167.107 180.701 192.348 157.818 202.62L157.715 212.024C157.915 212.768 166.147 213.093 167.672 213.307C179.618 214.971 191.244 218.931 201.749 224.784C205.681 226.973 209.307 230.171 212.914 232.212C213.43 232.505 213.751 232.923 214.448 232.765V232.756ZM69.4157 63.5612C68.5883 63.3753 68.4999 63.8029 68.1002 64.3282C63.8563 69.9108 60.5048 85.1015 60.1051 92.1252C59.2405 107.353 58.6083 137.349 62.1224 151.508C78.373 217.067 173.58 216.719 189.203 150.569C192.564 136.34 192.336 103.453 190.681 88.4855C190.518 87.0213 189.477 80.1929 188.775 79.4678C176.192 76.6137 163.595 81.6107 151.314 83.8651C125.972 88.5181 90.5144 89.1921 72.2186 67.9632C71.1774 66.7546 69.927 65.0859 69.4064 63.5659L69.4157 63.5612ZM148.446 206.73C133.437 211.076 117.879 211.22 102.893 206.73V238.571C102.893 248.871 116.271 258.07 125.916 257.889C135.929 257.703 148.446 248.128 148.446 237.641V206.73ZM157.743 221.604V238.106C157.743 240.16 155.814 246.194 154.889 248.267C145.234 269.905 115.62 273.628 100.583 255.295C98.2539 252.46 93.6009 243.437 93.6009 239.965V222.302C93.2523 221.827 93.1965 221.795 92.6526 221.795C91.4162 221.795 82.3473 222.613 81.9987 223.017L125.442 386.16L169.383 223.25L157.748 221.604H157.743ZM72.6323 225.365C71.2099 224.342 55.3963 231.942 53.0117 233.313C51.8589 233.978 45.0538 238.115 45.2537 239.026L67.798 258.326C69.1647 259.869 69.7596 261.408 69.2065 263.453C67.9654 268.036 61.7645 274.786 60.0214 279.378C59.7239 280.164 59.459 280.731 59.8634 281.577L111.255 370.351L72.6323 225.369V225.365ZM139.619 370.351L191.481 281.107C191.76 280.494 191.383 280.062 191.169 279.541C189.17 274.609 183.913 268.966 182.142 263.881C181.608 262.347 181.543 261.333 182.17 259.744L205.588 238.975C205.723 238.217 203.478 236.79 202.79 236.288C195.966 231.324 186.335 227.233 178.196 225.318L139.619 370.346V370.351ZM10.6237 400.1H46.6482V345.482C46.6482 342.526 51.6265 340.908 54.0762 342.702C54.5178 343.023 55.9448 345.199 55.9448 345.482V400.1H117.303L49.651 282.521C49.1676 281.233 49.4093 280.145 49.7997 278.904C51.2686 274.233 56.6142 268.469 58.4828 263.876C58.6548 263.453 58.9337 263.021 58.6734 262.565L37.5793 244.957C24.6523 256.634 15.2999 272.908 11.6416 290.018C10.4796 295.452 9.69864 301.783 9.44763 307.347C8.09497 337.334 10.2425 368.575 9.77301 398.631L10.6283 400.1H10.6237ZM134.037 400.1H194.697L195.395 399.403V344.552C195.395 344.306 197.593 342.382 198.156 342.205C199.936 341.647 202.283 341.898 203.501 343.414C203.734 343.702 204.691 345.775 204.691 345.942V400.095H230.722C231.015 398.998 230.443 399.31 230.127 399.031C209.781 381.046 202.869 345.989 206.625 319.986C209.191 302.243 217.274 283.543 236.746 279.945C231.656 266.753 224.182 254.096 213.351 244.869L192.819 262.519L192.95 264.225C194.298 267.846 201.991 277.644 201.87 280.819C201.842 281.53 201.428 282.279 201.196 282.953L134.395 398.361L134.032 400.091L134.037 400.1ZM301.841 293.184C308.795 296.015 314.94 302.973 317.195 310.141C320.393 320.316 318.673 323.663 308.274 325.889C292.126 329.348 276.847 318.605 273.491 302.713C259.523 298.181 246.052 282.846 230.396 292.17C201.066 309.644 213.644 411.149 265.501 398.859C271.72 397.385 274.5 393.769 281.482 395.591C283.364 396.084 285.2 397.306 287.069 397.906C328.43 411.13 343.458 355.648 340.413 325.039C338.563 306.45 329.494 283.074 306.238 290.855C305.727 291.027 301.39 292.612 301.841 293.188V293.184ZM282.778 300.626C284.257 311.587 295.845 319.442 306.587 316.76C308.247 316.346 308.976 316.398 308.725 314.455C308.381 311.8 305.574 307.436 303.71 305.488C298.248 299.775 290.216 298.469 282.778 300.621V300.626Z" fill="black" stroke="black" stroke-width="2.91724" mask="url(#path-1-inside-1_1330_26)"/>
</svg>
