<svg width="208" height="184" viewBox="0 0 208 184" fill="none" xmlns="http://www.w3.org/2000/svg">
<path d="M46.4531 0.885651C45.8467 1.52997 43.5078 8.37581 39.1333 22.4702L32.6797 43.1688L20.249 53.3973C13.4489 58.9948 7.03869 64.4714 6.08581 65.5184C3.92019 67.8541 1.538 72.2032 0.628437 75.5053C-0.237813 78.6463 -0.1945 85.17 0.67175 88.3111C2.231 93.9891 5.78263 98.6604 11.7598 103.009L15.8311 105.909L16.6108 110.459C17.5203 115.574 19.0796 120.929 22.8911 131.722L25.5331 139.172L28.7816 160.313C31.2937 176.502 32.2466 181.656 32.8529 182.421L33.6326 183.428L62.7386 183.549C90.1554 183.629 91.8446 183.589 92.5809 182.904C93.1873 182.341 97.4752 170.864 99.6408 164.018C99.944 163.052 100.291 162.286 100.464 162.286C100.594 162.286 101.07 163.333 101.503 164.582C104.838 174.689 107.697 182.3 108.433 182.985C109.213 183.71 110.036 183.75 136.067 183.549L162.834 183.347L163.917 182.421C164.74 181.696 164.999 181.052 164.999 179.844C164.999 178.918 163.137 163.897 160.885 146.38L156.77 114.567L161.188 110.419C163.657 108.124 173.662 99.3449 183.494 90.9689C202.768 74.4583 204.284 72.8475 206.449 67.25C207.359 64.8741 207.662 63.3036 207.792 59.7599C207.965 55.0081 207.619 52.7127 206.146 49.0079C204.241 44.2963 202.421 42.4439 181.285 23.8394C170.067 13.9733 159.412 4.59045 157.593 2.93941L154.258 -0.000274658H100.81H47.3193L46.4531 0.885651ZM57.1513 6.9261C57.1513 7.20799 56.6748 9.10066 56.1118 11.1141C51.9104 25.6918 51.3474 29.0341 51.9971 35.3565C52.4735 39.5042 53.9894 44.4977 55.8952 47.9609L57.1079 50.216L39.9129 61.0082C30.4708 66.9279 22.3713 72.2032 21.9382 72.6462C21.2885 73.371 21.2019 74.0153 21.4618 77.7201L21.7216 81.9485L18.9063 84.0425C17.3904 85.2103 15.8311 86.4587 15.5279 86.8211C15.1381 87.264 14.8349 88.9956 14.705 91.7742L14.4884 96.0428L12.1496 92.6602C8.16481 86.8211 7.55844 85.3311 7.55844 80.9417C7.55844 76.7537 8.20813 74.9415 10.9368 71.1562C11.7598 70.0286 17.7369 64.7936 25.6631 58.3102L39.0033 47.3568L40.0428 44.095C40.6059 42.3231 43.4212 33.343 46.3231 24.1615C49.1818 14.98 51.6506 7.20799 51.7372 6.9261C51.8671 6.60394 52.82 6.44286 54.5525 6.44286C56.3283 6.44286 57.1513 6.60394 57.1513 6.9261ZM137.626 15.9062C139.792 24.4031 140.008 25.571 140.051 30.202C140.095 35.6384 139.315 38.9807 137.02 43.1688L135.98 45.1017H99.2077H62.4354L61.3526 42.3634C59.7933 38.417 59.187 35.2759 59.2303 31.1684C59.2303 27.5844 60.0965 23.7991 64.5577 7.93285L64.9908 6.44286L100.117 6.52341L135.244 6.64421L137.626 15.9062ZM172.016 25.2085C183.754 35.5175 194.192 44.7796 195.232 45.8266C196.271 46.8736 197.83 49.0482 198.697 50.6992C200.126 53.3973 200.299 54.0416 200.429 57.5853C200.602 61.6928 200.126 63.9479 198.263 67.3708C197.007 69.7065 195.318 71.3173 180.592 83.9217C173.099 90.3245 163.397 98.7812 159.066 102.647C150.533 110.258 150.923 110.057 145.249 110.54L142.174 110.822L139.315 100.11C137.713 94.2307 136.413 89.2373 136.413 89.0359C136.413 88.8748 137.972 87.7473 139.835 86.5795C144.166 83.9619 144.513 83.1968 143.3 79.4517C142.304 76.4718 142.52 75.9885 144.859 76.3912C146.765 76.7134 147.588 77.1966 150.49 79.5323C153.781 82.1498 154.778 82.6733 156.294 82.3512C157.117 82.1901 161.101 78.7269 168.811 71.5186L180.159 60.9277V59.1961V57.4242L163.7 42.0815C149.797 29.1147 147.241 26.5777 147.241 25.6112C147.241 24.9669 146.288 20.497 145.076 15.6646C143.906 10.8323 142.91 6.76501 142.91 6.64421C142.91 6.52341 144.643 6.44286 146.765 6.44286H150.663L172.016 25.2085ZM159.369 48.1219L171.236 59.1558L164.783 65.3171C161.231 68.6997 157.723 72.0824 156.943 72.8475L155.557 74.1764L153.262 72.6059C150.013 70.3508 147.718 69.6259 143.95 69.6259C142.217 69.6259 140.571 69.7065 140.355 69.8273C140.138 69.9481 139.662 69.3038 139.315 68.3373C138.709 66.6863 138.752 66.1628 140.528 57.7464C142 50.82 142.737 48.283 143.95 45.8266C144.816 44.1353 145.855 41.4775 146.245 39.907C146.678 38.3364 147.111 37.0478 147.241 37.0478C147.371 37.0478 152.829 42.0412 159.369 48.1219ZM134.118 52.4308C133.988 52.9543 133.251 56.2967 132.515 59.921L131.172 66.4446L133.338 72.8072C134.507 76.2704 135.547 79.4517 135.59 79.8544C135.72 80.4182 134.854 81.1833 132.515 82.6733C127.881 85.6935 127.837 85.7741 129.656 92.4991C130.479 95.5193 131.129 98.0563 131.086 98.0966C130.783 98.3382 119.521 99.1033 111.075 99.506C101.113 99.949 89.8089 99.7879 78.1578 99.0228C72.1807 98.6201 61.6991 97.6536 59.057 97.2106L57.671 96.969L62.9118 82.3512L68.1526 67.7333L66.7233 60.1626C65.9004 55.9745 65.1641 52.31 65.0775 52.0281C64.9042 51.6657 71.9641 51.5449 99.5975 51.5449H134.334L134.118 52.4308ZM59.9233 63.7868L60.6596 67.7735L58.4073 73.9751L56.1118 80.1363H42.5549H28.9981L28.9548 78.7269C28.9115 77.9618 28.8682 77.1564 28.8249 76.9147C28.7816 76.4315 58.5806 59.1558 58.9271 59.5183C59.057 59.6793 59.5335 61.6123 59.9233 63.7868ZM53.0799 87.9889C52.4735 90.244 50.1346 95.8415 49.7881 95.8415C49.3117 95.8415 27.3523 92.338 24.3637 91.7742C23.1076 91.5326 22.0681 91.2105 22.0681 91.0494C22.0681 90.848 23.1509 89.8816 24.4936 88.8346L26.9191 86.9822H40.1294H53.3398L53.0799 87.9889ZM39.653 100.875C56.4583 103.171 77.0317 105.667 83.0521 106.151L86.6038 106.432V111.345V116.298L83.7018 115.775C82.056 115.493 67.8494 113.037 52.0404 110.298C25.9229 105.748 23.3242 105.224 23.1509 104.499C23.0643 104.056 22.8478 102.567 22.7178 101.157C22.5013 99.2241 22.5879 98.6604 23.0643 98.6604C23.3675 98.6604 30.8173 99.6671 39.653 100.875ZM134.031 108.647C134.421 110.258 134.724 111.627 134.637 111.708C134.421 111.869 95.3529 116.379 94.3134 116.379C93.6204 116.379 93.5338 115.896 93.5338 111.627V106.875L108.173 106.352C116.186 106.07 125.022 105.627 127.751 105.345C131.086 105.063 132.818 105.023 132.991 105.305C133.165 105.506 133.598 107.036 134.031 108.647ZM79.3706 122.057L86.6038 123.305V133.373V143.48L89.7223 146.138C91.4548 147.588 93.5771 149.44 94.4866 150.205L96.1758 151.615L91.7146 164.421L87.2968 177.186H63.1717H39.0466L38.7868 176.059C38.6568 175.455 37.2708 166.636 35.6683 156.447L32.8096 137.923L29.6478 128.661C26.4427 119.399 24.6669 113.761 24.6669 112.916C24.6669 112.553 36.4912 114.527 79.3706 122.057ZM149.84 117.869C149.84 118.231 151.529 131.48 153.565 147.306C155.601 163.132 157.117 176.179 156.987 176.34C156.813 176.461 146.981 176.622 135.114 176.703L113.544 176.824L109.559 165.629C102.673 146.46 103.799 148.554 98.2548 143.964L93.5338 140.017L93.6204 131.722L93.7503 123.426L120.171 120.366C134.724 118.674 147.328 117.265 148.237 117.225C149.494 117.184 149.84 117.345 149.84 117.869Z" fill="black"/>
<path d="M100.465 83.7612C103.237 83.7612 103.93 82.7948 103.93 78.9291C103.93 75.0633 103.237 74.0961 100.465 74.0961C99.2955 74.0962 98.4292 74.3783 97.8662 74.9018C97.1299 75.5864 97 76.2311 97 78.9291C97 82.7947 97.6931 83.7611 100.465 83.7612Z" fill="black"/>
<path d="M100.465 83.7612C103.237 83.7612 103.93 82.7948 103.93 78.9291C103.93 75.0633 103.237 74.0961 100.465 74.0961C99.2955 74.0962 98.4292 74.3783 97.8662 74.9018C97.1299 75.5864 97 76.2311 97 78.9291C97 82.7947 97.6931 83.7611 100.465 83.7612Z" stroke="black"/>
</svg>
