<svg width="208" height="215" viewBox="0 0 208 215" fill="none" xmlns="http://www.w3.org/2000/svg">
<path d="M67.405 200.143C61.535 200.144 57.0352 198.169 53.9551 194.224C50.2133 189.432 43.4289 176.635 61.1878 161.334C62.718 160.02 63.921 158.368 64.7013 156.508C69.2027 145.638 77.0904 142.737 81.3919 141.975C83.285 141.639 85.0266 140.696 86.4287 139.245C96.1083 129.232 109.332 131.588 113.154 132.549C113.835 132.719 114.457 133.071 114.952 133.569C115.447 134.066 115.796 134.689 115.962 135.371C117.525 141.727 117.846 148.325 116.909 154.802C116.817 155.34 116.519 155.821 116.078 156.142C115.636 156.463 115.087 156.599 114.547 156.521C114.007 156.443 113.519 156.157 113.187 155.724C112.854 155.292 112.705 154.746 112.769 154.204C113.621 148.324 113.342 142.335 111.946 136.56C108.443 135.712 97.4066 133.909 89.436 142.153C87.4175 144.24 84.8886 145.603 82.1222 146.094C77.8977 146.843 72.118 149.534 68.5661 158.108C67.5589 160.539 65.9519 162.751 63.9183 164.503C57.6978 169.862 48.5603 180.517 57.2527 191.65C61.3593 196.909 69.0337 197.405 80.7118 193.158C89.2159 190.065 96.7184 184.717 102.416 177.687C102.589 177.473 102.802 177.296 103.043 177.165C103.285 177.034 103.55 176.952 103.823 176.924C104.096 176.895 104.372 176.921 104.636 176.999C104.899 177.077 105.144 177.206 105.357 177.379C105.571 177.552 105.748 177.765 105.879 178.007C106.01 178.248 106.092 178.513 106.12 178.786C106.149 179.059 106.123 179.336 106.045 179.599C105.967 179.862 105.838 180.108 105.665 180.321C99.4896 187.941 91.3578 193.737 82.1406 197.089C76.5366 199.125 71.6178 200.143 67.405 200.143Z" fill="black"/>
<path d="M50.9621 200.181C46.7803 200.181 41.889 199.151 36.2165 197.088C10.6075 187.776 -3.93151 161.244 2.39774 135.372C2.56341 134.69 2.91275 134.066 3.40783 133.569C3.90291 133.072 4.52481 132.719 5.206 132.55C9.02647 131.589 22.2496 129.234 31.9301 139.245C33.3321 140.696 35.0738 141.639 36.9669 141.976C41.2675 142.738 49.1544 145.639 53.6566 156.508C54.4145 158.338 55.6292 160.007 57.1693 161.335C58.292 162.302 59.3684 163.322 60.395 164.391C60.7791 164.791 60.9886 165.327 60.9773 165.882C60.966 166.436 60.7349 166.964 60.3347 167.348C59.9346 167.732 59.3982 167.941 58.8437 167.93C58.2891 167.919 57.7617 167.688 57.3776 167.288C56.4428 166.314 55.4624 165.385 54.4396 164.504C52.406 162.751 50.799 160.541 49.7927 158.108C46.2407 149.535 40.4602 146.843 36.2366 146.095C33.4693 145.604 30.9404 144.241 28.9227 142.153C20.9522 133.911 9.9132 135.714 6.41312 136.561C0.713784 160.293 14.1109 184.6 37.6461 193.158C46.7527 196.469 53.6014 196.869 58.0008 194.35C58.2393 194.209 58.5036 194.116 58.7784 194.077C59.0532 194.039 59.3329 194.055 59.6013 194.126C59.8697 194.196 60.1213 194.319 60.3416 194.488C60.5618 194.657 60.7463 194.868 60.8842 195.109C61.0221 195.349 61.1108 195.615 61.1449 195.891C61.1791 196.166 61.1581 196.445 61.0833 196.713C61.0084 196.98 60.8811 197.229 60.7087 197.447C60.5364 197.664 60.3225 197.845 60.0796 197.979C57.5181 199.446 54.4932 200.181 50.9621 200.181ZM86.2933 104.134C85.9501 104.134 85.612 104.05 85.309 103.889C85.0059 103.728 84.7473 103.495 84.5559 103.21C80.4108 97.0427 76.4766 96.3667 71.0307 95.4307C68.5554 95.0049 65.7496 94.523 62.7272 93.4246C57.8904 91.6646 55.7488 92.7847 52.7833 94.3314C50.3213 95.6164 47.2579 97.215 42.3675 97.215C37.304 97.215 34.1084 100.245 32.319 102.787C32.1611 103.012 31.9604 103.203 31.7284 103.35C31.4964 103.497 31.2376 103.597 30.967 103.644C30.6964 103.691 30.4191 103.684 30.1512 103.624C29.8832 103.563 29.6298 103.451 29.4054 103.292C28.9519 102.973 28.6439 102.487 28.549 101.94C28.4541 101.394 28.5801 100.832 28.8993 100.379C31.2583 97.0276 35.5104 93.0323 42.3684 93.0323C46.2332 93.0323 48.4751 91.862 50.8492 90.6231C54.1644 88.8931 57.5926 87.1063 64.1585 89.4929C66.8288 90.4641 69.3258 90.8933 71.7401 91.3082C77.472 92.2936 82.8853 93.223 88.0283 100.877C88.2397 101.191 88.3616 101.557 88.3809 101.936C88.4002 102.315 88.3163 102.691 88.1381 103.026C87.9599 103.36 87.6942 103.64 87.3692 103.835C87.0443 104.031 86.6724 104.134 86.2933 104.134Z" fill="black"/>
<path d="M52.5643 160.791H52.5267C52.252 160.786 51.9811 160.727 51.7292 160.618C51.4773 160.508 51.2495 160.35 51.0588 160.152C50.8681 159.954 50.7182 159.721 50.6177 159.465C50.5172 159.21 50.468 158.937 50.473 158.662C50.6177 150.538 56.9771 143.865 60.7557 140.61C62.0578 139.492 63.0815 138.086 63.7455 136.504C67.7182 126.911 74.6908 124.349 78.4945 123.675C80.0881 123.393 81.5554 122.596 82.7383 121.373C91.2752 112.545 102.924 114.619 106.291 115.464C106.932 115.624 107.516 115.956 107.982 116.424C108.448 116.892 108.777 117.479 108.934 118.12C110.155 123.104 110.508 128.26 109.978 133.363C109.859 134.512 108.822 135.356 107.683 135.228C107.41 135.2 107.145 135.118 106.903 134.988C106.662 134.857 106.448 134.68 106.275 134.467C106.102 134.254 105.972 134.009 105.894 133.746C105.816 133.483 105.79 133.207 105.818 132.934C106.287 128.408 105.994 123.87 104.95 119.443C101.776 118.702 92.4781 117.319 85.7448 124.281C83.9454 126.142 81.6901 127.357 79.224 127.794C75.6085 128.435 70.6587 130.743 67.6095 138.105C66.6948 140.291 65.2827 142.234 63.4854 143.778C60.2379 146.577 54.7711 152.241 54.6549 158.737C54.645 159.285 54.4204 159.808 54.0295 160.192C53.6385 160.576 53.1124 160.791 52.5643 160.791Z" fill="black"/>
<path d="M58.639 146.533C58.0969 146.533 57.5548 146.324 57.1458 145.906C56.4193 145.165 55.6621 144.455 54.8762 143.778C53.0793 142.233 51.6674 140.291 50.7529 138.105C47.7029 130.743 42.754 128.434 39.1384 127.794C36.6715 127.356 34.4162 126.142 32.6176 124.282C25.8852 117.319 16.5895 118.702 13.4132 119.443C12.3655 123.873 12.0734 128.449 12.5491 132.977C12.5776 133.25 12.552 133.526 12.4738 133.789C12.3956 134.053 12.2663 134.298 12.0933 134.511C11.9203 134.725 11.707 134.902 11.4656 135.033C11.2241 135.164 10.9593 135.246 10.6861 135.274C10.4129 135.303 10.1368 135.277 9.87357 135.199C9.61029 135.121 9.365 134.991 9.15169 134.818C8.93838 134.645 8.76124 134.432 8.63037 134.191C8.4995 133.949 8.41747 133.684 8.38896 133.411C7.85092 128.293 8.20271 123.119 9.42878 118.121C9.5851 117.479 9.91385 116.893 10.3795 116.424C10.8451 115.956 11.4299 115.624 12.0706 115.464C15.4385 114.619 27.0864 112.544 35.6241 121.374C36.807 122.596 38.2743 123.392 39.8687 123.675C43.6708 124.349 50.6442 126.911 54.6169 136.504C55.2804 138.086 56.3039 139.492 57.6059 140.61C58.4808 141.363 59.3236 142.153 60.1322 142.978C60.4205 143.272 60.6155 143.645 60.6928 144.049C60.7702 144.454 60.7263 144.872 60.5669 145.252C60.4074 145.631 60.1394 145.955 59.7964 146.183C59.4534 146.411 59.0508 146.533 58.639 146.533Z" fill="black"/>
<path d="M54.4927 142.307C54.068 142.307 53.6534 142.178 53.304 141.936C52.9546 141.695 52.687 141.352 52.5369 140.955C49.0728 131.805 56.7589 123.872 60.2238 120.887C61.2465 120.009 62.0507 118.905 62.5728 117.663C65.8997 109.631 71.7538 107.483 74.9477 106.916C76.1758 106.699 77.3084 106.085 78.2236 105.139C85.3635 97.7538 95.0865 99.4837 97.8973 100.19C98.4894 100.337 99.0298 100.644 99.46 101.076C99.8901 101.509 100.194 102.051 100.338 102.644C101.462 107.215 101.701 111.958 101.044 116.619C101.007 116.892 100.917 117.156 100.779 117.395C100.64 117.634 100.455 117.843 100.235 118.01C100.016 118.177 99.7649 118.299 99.4977 118.368C99.2305 118.438 98.9521 118.454 98.6787 118.415C98.4052 118.377 98.1421 118.285 97.9046 118.144C97.667 118.003 97.4596 117.817 97.2944 117.596C97.1292 117.374 97.0095 117.123 96.9421 116.855C96.8747 116.587 96.861 116.309 96.9018 116.035C97.461 112.07 97.2883 108.036 96.3924 104.132C93.6527 103.533 86.4627 102.635 81.2301 108.047C79.6976 109.631 77.7786 110.664 75.6772 111.035C72.8062 111.544 68.8719 113.385 66.4368 119.263C65.6647 121.11 64.4722 122.751 62.9543 124.055C59.4785 127.05 54.0108 133.036 56.4485 139.475C56.5683 139.792 56.6095 140.133 56.5686 140.469C56.5276 140.805 56.4057 141.126 56.2134 141.404C56.021 141.683 55.764 141.91 55.4643 142.068C55.1645 142.225 54.8311 142.307 54.4927 142.307Z" fill="black"/>
<path d="M58.6356 126.305C58.3591 126.305 58.0852 126.251 57.83 126.144C57.5748 126.038 57.3433 125.882 57.149 125.685C56.5891 125.119 56.0067 124.575 55.4032 124.055C53.8858 122.75 52.6934 121.109 51.9207 119.263C49.4855 113.385 45.5513 111.544 42.6803 111.035C40.5806 110.664 38.6607 109.63 37.129 108.047C31.8973 102.636 24.7081 103.533 21.9667 104.132C21.0833 107.978 20.9025 111.952 21.433 115.862C21.5072 116.412 21.3601 116.969 21.0239 117.41C20.6877 117.851 20.1901 118.141 19.6403 118.215C19.368 118.253 19.0909 118.236 18.8251 118.166C18.5592 118.097 18.3097 117.975 18.0911 117.808C17.8724 117.642 17.6888 117.433 17.5508 117.196C17.4129 116.958 17.3233 116.695 17.2871 116.423C16.6635 111.824 16.9121 107.15 18.0199 102.643C18.1644 102.05 18.4682 101.508 18.8984 101.076C19.3287 100.643 19.869 100.337 20.461 100.189C23.2701 99.4837 32.994 97.752 40.1347 105.139C41.049 106.084 42.1817 106.698 43.4089 106.915C46.6036 107.482 52.4586 109.63 55.7846 117.661C56.3064 118.904 57.1106 120.008 58.1336 120.886C58.8207 121.478 59.4838 122.097 60.1213 122.742C60.4112 123.035 60.608 123.408 60.6868 123.813C60.7656 124.218 60.7229 124.637 60.5642 125.018C60.4054 125.399 60.1376 125.724 59.7944 125.953C59.4513 126.182 59.0481 126.304 58.6356 126.305ZM51.5827 187.927C51.4714 187.927 51.3594 187.918 51.2464 187.9C42.7731 186.528 40.0878 182.633 37.4912 178.865C35.3589 175.772 33.1546 172.574 27.2913 169.867C14.4722 163.951 12.4285 148.715 12.3482 148.069C12.2794 147.519 12.4319 146.964 12.7724 146.526C13.1128 146.088 13.6132 145.803 14.1635 145.734C15.3062 145.58 16.3536 146.403 16.4983 147.548C16.5259 147.757 18.3914 161.152 29.0447 166.07C35.9486 169.256 38.7142 173.267 40.9361 176.491C43.4139 180.087 45.2049 182.684 51.9165 183.771C52.4355 183.855 52.9039 184.131 53.2283 184.544C53.5528 184.958 53.7097 185.479 53.6676 186.003C53.6255 186.527 53.3876 187.016 53.0012 187.372C52.6149 187.729 52.1084 187.927 51.5827 187.927Z" fill="black"/>
<path d="M32.749 171.893C32.431 171.893 32.1172 171.821 31.8313 171.681C31.5455 171.542 31.2952 171.339 31.0994 171.089C30.9036 170.838 30.7676 170.546 30.7017 170.235C30.6357 169.924 30.6415 169.602 30.7188 169.294C32.396 162.584 30.7539 156.69 30.7363 156.631C30.5841 156.098 30.6499 155.526 30.9193 155.041C31.1886 154.556 31.6395 154.198 32.1727 154.046C32.4368 153.97 32.7132 153.947 32.9862 153.978C33.2592 154.01 33.5234 154.094 33.7635 154.228C34.0037 154.361 34.2153 154.541 34.386 154.756C34.5567 154.971 34.6832 155.218 34.7584 155.482C34.8395 155.766 36.7226 162.524 34.776 170.308C34.6629 170.761 34.402 171.162 34.0348 171.449C33.6676 171.736 33.2151 171.892 32.749 171.893ZM28.1665 181.055C27.6118 181.055 27.0797 180.835 26.6872 180.443C26.2947 180.051 26.0739 179.52 26.0735 178.965C26.073 178.41 26.2929 177.878 26.6848 177.486C27.0767 177.093 27.6085 176.872 28.1631 176.872C28.205 176.872 32.4261 176.839 36.5528 175.189C37.0678 174.983 37.6436 174.99 38.1535 175.208C38.6634 175.427 39.0655 175.839 39.2715 176.354C39.4775 176.869 39.4705 177.445 39.2519 177.955C39.0334 178.465 38.6213 178.867 38.1062 179.073C33.2066 181.032 28.3698 181.055 28.1665 181.055ZM13.5956 159.474C11.7293 159.474 10.3214 159.032 10.0947 158.957C9.58054 158.773 9.15861 158.395 8.91907 157.904C8.67952 157.414 8.64134 156.849 8.81269 156.33C8.98403 155.812 9.35132 155.381 9.8361 155.129C10.3209 154.878 10.8847 154.826 11.4073 154.985C11.4708 155.005 13.5923 155.657 15.5916 154.988C16.1118 154.835 16.671 154.89 17.1516 155.141C17.6322 155.392 17.9966 155.819 18.1682 156.334C18.3397 156.848 18.3049 157.409 18.0712 157.898C17.8374 158.387 17.423 158.767 16.915 158.957C15.7514 159.345 14.6062 159.474 13.5956 159.474ZM62.9824 187.927C62.4568 187.926 61.9506 187.728 61.5646 187.371C61.1786 187.015 60.941 186.526 60.8991 186.002C60.8572 185.478 61.0142 184.958 61.3387 184.544C61.6632 184.131 62.1314 183.855 62.6503 183.771C69.3618 182.684 71.1528 180.087 73.6307 176.491C75.8525 173.267 78.6173 169.256 85.5212 166.07C96.254 161.116 98.0501 147.685 98.0676 147.55C98.0991 147.275 98.1846 147.009 98.3194 146.768C98.4543 146.526 98.6356 146.314 98.853 146.143C99.0704 145.972 99.3195 145.846 99.5859 145.772C99.8524 145.698 100.131 145.678 100.405 145.712C100.68 145.746 100.944 145.835 101.184 145.972C101.424 146.109 101.635 146.293 101.803 146.512C101.972 146.731 102.095 146.982 102.166 147.249C102.238 147.516 102.255 147.795 102.218 148.069C102.137 148.714 100.094 163.95 87.2746 169.867C81.4113 172.573 79.2062 175.772 77.0747 178.865C74.4781 182.633 71.7928 186.528 63.3187 187.9C63.2075 187.918 63.095 187.927 62.9824 187.927Z" fill="black"/>
<path d="M81.8158 171.893C81.3495 171.892 80.8969 171.736 80.5296 171.449C80.1624 171.162 79.9016 170.76 79.7888 170.308C77.843 162.523 79.7252 155.765 79.8064 155.482C79.9701 154.962 80.33 154.527 80.8096 154.268C81.2893 154.01 81.8508 153.949 82.3747 154.098C82.8987 154.247 83.3439 154.595 83.6155 155.067C83.8871 155.539 83.9638 156.099 83.8293 156.627C83.805 156.712 82.1855 162.649 83.846 169.293C83.9234 169.601 83.9294 169.923 83.8635 170.235C83.7976 170.546 83.6616 170.838 83.4658 171.089C83.27 171.339 83.0197 171.542 82.7337 171.681C82.4478 171.821 82.1338 171.893 81.8158 171.893ZM86.3983 181.055C86.195 181.055 81.3582 181.032 76.4594 179.073C75.9443 178.867 75.5322 178.465 75.3137 177.955C75.0951 177.445 75.0881 176.869 75.2941 176.354C75.5001 175.839 75.9023 175.427 76.4121 175.208C76.922 174.99 77.4978 174.983 78.0129 175.189C82.1721 176.852 86.3573 176.872 86.3991 176.872C86.6738 176.872 86.9457 176.926 87.1994 177.031C87.4531 177.136 87.6837 177.29 87.8778 177.485C88.072 177.679 88.226 177.909 88.331 178.163C88.4361 178.417 88.4901 178.689 88.4901 178.964C88.49 179.238 88.4359 179.51 88.3307 179.764C88.2256 180.018 88.0715 180.248 87.8772 180.442C87.683 180.636 87.4524 180.79 87.1987 180.895C86.9449 181.001 86.673 181.055 86.3983 181.055ZM100.969 159.474C99.9586 159.474 98.8134 159.345 97.6489 158.957C97.1338 158.772 96.7114 158.394 96.4722 157.902C96.2329 157.41 96.1958 156.844 96.3689 156.325C96.5419 155.806 96.9114 155.375 97.398 155.125C97.8846 154.876 98.4498 154.826 98.9723 154.988C100.994 155.665 103.138 154.991 103.158 154.985C103.685 154.816 104.257 154.862 104.75 155.113C105.243 155.364 105.617 155.799 105.79 156.325C105.963 156.849 105.921 157.42 105.673 157.913C105.426 158.406 104.993 158.782 104.47 158.957C104.243 159.032 102.835 159.474 100.969 159.474Z" fill="black"/>
<path d="M129.369 155.671C128.814 155.671 128.282 155.451 127.89 155.059C127.498 154.667 127.277 154.135 127.277 153.58V152.558C127.277 148.302 129.805 144.469 133.715 142.793C134.225 142.574 134.801 142.567 135.316 142.773C135.831 142.979 136.243 143.381 136.462 143.891C136.68 144.401 136.687 144.977 136.481 145.492C136.275 146.007 135.873 146.419 135.363 146.638C134.204 147.133 133.216 147.959 132.522 149.011C131.828 150.064 131.458 151.297 131.459 152.558V153.58C131.459 153.855 131.405 154.127 131.301 154.38C131.196 154.634 131.042 154.865 130.847 155.059C130.653 155.253 130.423 155.407 130.169 155.512C129.915 155.618 129.643 155.672 129.369 155.671Z" fill="black"/>
<path d="M124.354 150.559C122.677 150.559 121.013 150.074 119.556 149.121C118.345 148.328 117.348 147.248 116.656 145.976C115.963 144.705 115.597 143.281 115.589 141.833C115.582 141.058 115.805 140.297 116.23 139.648C116.655 138.999 117.263 138.491 117.976 138.186L117.977 138.185C119.307 137.614 120.758 137.381 122.201 137.507C123.643 137.632 125.032 138.114 126.243 138.907C127.483 139.716 128.497 140.826 129.191 142.133C129.885 143.441 130.235 144.903 130.21 146.383C130.198 147.099 129.983 147.797 129.591 148.396C129.199 148.994 128.646 149.47 127.994 149.767C126.851 150.287 125.61 150.557 124.354 150.559ZM119.775 141.969C119.804 142.699 120.008 143.411 120.368 144.046C120.729 144.681 121.235 145.221 121.847 145.62C122.457 146.022 123.155 146.272 123.882 146.348C124.609 146.424 125.343 146.325 126.024 146.059C125.995 145.329 125.792 144.616 125.431 143.98C125.071 143.345 124.563 142.805 123.951 142.407C123.34 142.006 122.642 141.758 121.916 141.682C121.189 141.606 120.455 141.704 119.775 141.969ZM134.937 204.433C133.933 204.433 132.932 204.328 131.938 204.115L131.868 204.099C130.211 203.738 128.495 203.74 126.839 204.105L126.802 204.113C116.504 206.316 105.651 196.513 102.583 182.243C99.5162 167.974 105.39 154.566 115.677 152.355C118.04 151.849 120.47 151.95 122.9 152.66C127.122 153.898 131.61 153.898 135.832 152.66C138.261 151.948 140.69 151.845 143.055 152.355C145.114 152.797 147.039 153.691 148.777 155.008C148.995 155.174 149.179 155.382 149.318 155.619C149.457 155.856 149.547 156.118 149.585 156.39C149.622 156.662 149.605 156.939 149.536 157.205C149.466 157.47 149.345 157.72 149.179 157.938C149.013 158.157 148.805 158.341 148.568 158.48C148.331 158.619 148.069 158.709 147.797 158.747C147.525 158.784 147.248 158.767 146.982 158.698C146.717 158.628 146.467 158.507 146.249 158.341C145.002 157.395 143.632 156.756 142.175 156.444C140.499 156.083 138.762 156.163 137.006 156.674C132.017 158.138 126.713 158.138 121.725 156.674C119.971 156.163 118.233 156.083 116.556 156.444C108.523 158.169 104.09 169.35 106.672 181.364C109.254 193.378 117.89 201.752 125.923 200.023L125.961 200.016C128.206 199.525 130.53 199.525 132.775 200.016L132.81 200.023C136.592 200.838 140.67 199.403 144.29 195.981C144.489 195.79 144.724 195.64 144.982 195.541C145.239 195.441 145.513 195.393 145.789 195.4C146.065 195.407 146.337 195.469 146.589 195.581C146.841 195.693 147.068 195.854 147.257 196.055C147.447 196.256 147.595 196.492 147.693 196.75C147.79 197.008 147.836 197.283 147.827 197.558C147.818 197.834 147.755 198.105 147.641 198.356C147.527 198.608 147.364 198.834 147.162 199.022C143.408 202.571 139.157 204.432 134.937 204.433Z" fill="black"/>
<path d="M160.994 204.429C146.323 204.429 134.387 192.493 134.387 177.821C134.387 163.15 146.323 151.214 160.994 151.214C175.666 151.214 187.601 163.15 187.601 177.821C187.601 192.493 175.666 204.429 160.994 204.429ZM160.994 155.397C148.63 155.397 138.569 165.457 138.569 177.822C138.569 190.188 148.629 200.247 160.994 200.247C173.359 200.247 183.419 190.188 183.419 177.822C183.419 165.457 173.359 155.397 160.994 155.397Z" fill="black"/>
<path d="M145.506 185.387C144.56 185.384 143.643 185.059 142.907 184.466C142.17 183.873 141.656 183.047 141.451 182.124C140.398 177.334 141.14 172.326 143.536 168.047C145.932 163.769 149.816 160.519 154.449 158.915C155.072 158.7 155.737 158.637 156.389 158.731C157.04 158.825 157.66 159.073 158.197 159.455C158.735 159.839 159.173 160.345 159.476 160.932C159.779 161.52 159.938 162.171 159.939 162.831V174.943C159.937 175.776 159.717 176.595 159.3 177.317C158.883 178.039 158.285 178.639 157.564 179.057L147.57 184.827C146.943 185.193 146.231 185.386 145.506 185.387ZM155.757 162.832C149.447 165.071 145.167 171.08 145.167 177.822C145.167 178.965 145.291 180.109 145.536 181.224L155.472 175.435C155.559 175.385 155.63 175.313 155.68 175.227C155.73 175.141 155.756 175.043 155.757 174.943V162.832ZM176.477 185.387C175.752 185.385 175.04 185.193 174.413 184.829L164.419 179.059C163.698 178.64 163.099 178.04 162.682 177.318C162.265 176.596 162.045 175.777 162.043 174.944V162.832C162.043 161.495 162.694 160.232 163.786 159.456C164.322 159.074 164.942 158.826 165.594 158.732C166.245 158.638 166.91 158.701 167.533 158.916C172.166 160.52 176.049 163.77 178.445 168.048C180.841 172.326 181.583 177.335 180.531 182.124C180.326 183.048 179.813 183.874 179.076 184.466C178.339 185.059 177.423 185.384 176.477 185.387ZM166.51 175.435L176.504 181.205C176.692 180.112 176.816 178.967 176.816 177.821C176.816 171.079 172.536 165.07 166.166 162.867L166.226 174.943C166.226 175.145 166.335 175.334 166.51 175.435ZM160.992 197.829C156.369 197.825 151.889 196.223 148.312 193.294C147.795 192.869 147.388 192.325 147.128 191.709C146.867 191.092 146.759 190.422 146.814 189.755C146.869 189.087 147.085 188.443 147.444 187.877C147.802 187.311 148.292 186.84 148.872 186.505L158.615 180.88C159.338 180.464 160.157 180.245 160.991 180.245C161.825 180.245 162.645 180.464 163.368 180.881L173.112 186.506C173.691 186.841 174.181 187.311 174.539 187.877C174.897 188.442 175.113 189.086 175.168 189.753C175.223 190.42 175.115 191.09 174.855 191.707C174.595 192.323 174.189 192.868 173.672 193.293C170.095 196.223 165.615 197.826 160.992 197.829ZM160.991 184.426C160.891 184.426 160.793 184.452 160.707 184.502L150.963 190.128C153.782 192.373 157.343 193.646 160.992 193.646C164.64 193.646 168.201 192.373 171.018 190.061L161.275 184.502C161.189 184.452 161.091 184.426 160.991 184.426Z" fill="black"/>
<path d="M147.674 139.888C146.723 139.888 145.769 139.727 144.846 139.401C143.794 139.033 142.826 138.46 141.997 137.716C141.168 136.971 140.496 136.07 140.018 135.063C139.535 134.06 139.255 132.971 139.196 131.859C139.136 130.746 139.298 129.634 139.672 128.584C140.039 127.533 140.612 126.564 141.356 125.736C142.101 124.907 143.003 124.234 144.009 123.757C145.012 123.273 146.102 122.994 147.214 122.934C148.326 122.875 149.44 123.037 150.489 123.41C151.54 123.778 152.509 124.351 153.337 125.095C154.166 125.84 154.838 126.741 155.316 127.748C155.799 128.751 156.078 129.841 156.138 130.953C156.197 132.065 156.036 133.178 155.662 134.228C155.294 135.279 154.722 136.247 153.977 137.076C153.232 137.904 152.331 138.577 151.324 139.054C150.185 139.602 148.938 139.887 147.674 139.888ZM147.664 127.109C147.031 127.109 146.401 127.25 145.813 127.531C145.304 127.773 144.847 128.114 144.47 128.534C144.093 128.954 143.802 129.444 143.616 129.977C143.234 131.059 143.296 132.225 143.791 133.26C144.287 134.295 145.155 135.075 146.238 135.457C147.317 135.84 148.485 135.777 149.52 135.282C150.555 134.786 151.336 133.918 151.718 132.836C152.099 131.754 152.037 130.588 151.542 129.553C151.047 128.518 150.178 127.737 149.097 127.355C148.637 127.192 148.152 127.109 147.664 127.109Z" fill="black"/>
<path d="M132.13 134.091C131.179 134.091 130.225 133.93 129.301 133.604C124.893 132.048 122.573 127.196 124.128 122.786C124.882 120.651 126.422 118.936 128.466 117.959C130.509 116.982 132.812 116.86 134.945 117.613C139.354 119.169 141.674 124.021 140.119 128.43C139.751 129.481 139.178 130.449 138.434 131.278C137.689 132.107 136.788 132.78 135.781 133.257C134.642 133.805 133.394 134.09 132.13 134.091ZM132.12 121.311C131.487 121.311 130.857 121.452 130.27 121.733C129.76 121.975 129.304 122.316 128.926 122.736C128.549 123.156 128.259 123.646 128.072 124.179C127.695 125.254 127.758 126.434 128.25 127.461C128.741 128.489 129.62 129.28 130.693 129.66C131.776 130.042 132.942 129.98 133.977 129.484C135.012 128.989 135.792 128.121 136.174 127.038C136.402 126.39 136.472 125.697 136.377 125.016C136.281 124.335 136.025 123.687 135.628 123.126C135.23 122.566 134.705 122.108 134.094 121.792C133.484 121.476 132.807 121.311 132.12 121.311Z" fill="black"/>
<path d="M137.26 123.532C136.84 123.532 136.429 123.405 136.082 123.169C135.734 122.932 135.467 122.596 135.313 122.205C135.159 121.814 135.127 121.386 135.22 120.976C135.314 120.566 135.528 120.194 135.836 119.908C140.995 115.117 144.239 109.979 146.052 106.512C146.316 106.034 146.757 105.678 147.281 105.521C147.804 105.363 148.368 105.417 148.852 105.67C149.337 105.923 149.703 106.356 149.872 106.875C150.042 107.395 150.001 107.96 149.76 108.45C147.794 112.208 144.277 117.777 138.683 122.972C138.297 123.332 137.788 123.532 137.26 123.532Z" fill="black"/>
<path d="M148.636 127.047L148.545 127.045C147.991 127.021 147.469 126.778 147.094 126.37C146.719 125.962 146.521 125.421 146.544 124.867C146.806 118.705 144.875 114.666 144.033 113.215C143.754 112.736 143.678 112.165 143.82 111.629C143.962 111.093 144.311 110.635 144.791 110.356C145.271 110.078 145.841 110.001 146.378 110.143C146.914 110.285 147.372 110.634 147.65 111.114C148.678 112.883 151.032 117.78 150.724 125.044C150.701 125.583 150.471 126.092 150.082 126.465C149.693 126.838 149.175 127.046 148.636 127.047Z" fill="black"/>
<path d="M197.997 160.055H175.878C175.324 160.055 174.792 159.835 174.399 159.442C174.007 159.05 173.787 158.518 173.787 157.964C173.787 157.409 174.007 156.877 174.399 156.485C174.792 156.093 175.324 155.872 175.878 155.872H197.997C200.985 155.872 202.459 153.983 203.071 152.858C203.685 151.731 204.472 149.465 202.851 146.954L113.021 7.86432C111.815 5.99465 109.934 4.92305 107.862 4.92305C105.924 4.92305 104.192 5.88172 103.111 7.5548L46.0442 95.9175C45.7432 96.3835 45.2695 96.7109 44.7271 96.8276C44.1848 96.9444 43.6183 96.8409 43.1523 96.5399C42.6862 96.2389 42.3589 95.7652 42.2421 95.2228C42.1254 94.6805 42.2289 94.114 42.5299 93.648L99.5977 5.28611C101.436 2.43937 104.526 0.740356 107.862 0.740356C111.33 0.740356 114.572 2.55481 116.535 5.59479L206.366 144.686C209.264 149.175 207.596 153.295 206.745 154.857C205.896 156.42 203.341 160.055 197.997 160.055Z" fill="black"/>
<path d="M155.558 72.671H60.3843C59.8297 72.671 59.2977 72.4506 58.9055 72.0584C58.5133 71.6662 58.293 71.1343 58.293 70.5796C58.293 70.025 58.5133 69.493 58.9055 69.1008C59.2977 68.7086 59.8297 68.4883 60.3843 68.4883H155.558C156.113 68.4883 156.645 68.7086 157.037 69.1008C157.429 69.493 157.649 70.025 157.649 70.5796C157.649 71.1343 157.429 71.6662 157.037 72.0584C156.645 72.4506 156.113 72.671 155.558 72.671ZM169.605 94.421H66.5371C65.9824 94.421 65.4505 94.2006 65.0583 93.8084C64.666 93.4162 64.4457 92.8843 64.4457 92.3296C64.4457 91.775 64.666 91.243 65.0583 90.8508C65.4505 90.4586 65.9824 90.2383 66.5371 90.2383H169.605C170.16 90.2383 170.692 90.4586 171.084 90.8508C171.476 91.243 171.697 91.775 171.697 92.3296C171.697 92.8843 171.476 93.4162 171.084 93.8084C170.692 94.2006 170.16 94.421 169.605 94.421ZM142.156 51.7575H73.8216C73.267 51.7575 72.735 51.5372 72.3428 51.145C71.9506 50.7528 71.7303 50.2208 71.7303 49.6662C71.7303 49.1115 71.9506 48.5796 72.3428 48.1874C72.735 47.7952 73.267 47.5748 73.8216 47.5748H142.156C142.711 47.5748 143.243 47.7952 143.635 48.1874C144.027 48.5796 144.247 49.1115 144.247 49.6662C144.247 50.2208 144.027 50.7528 143.635 51.145C143.243 51.5372 142.711 51.7575 142.156 51.7575ZM127.987 30.0075H87.7985C87.2439 30.0075 86.7119 29.7872 86.3197 29.395C85.9275 29.0028 85.7072 28.4708 85.7072 27.9162C85.7072 27.3615 85.9275 26.8296 86.3197 26.4374C86.7119 26.0452 87.2439 25.8248 87.7985 25.8248H127.987C128.542 25.8248 129.074 26.0452 129.466 26.4374C129.859 26.8296 130.079 27.3615 130.079 27.9162C130.079 28.4708 129.859 29.0028 129.466 29.395C129.074 29.7872 128.542 30.0075 127.987 30.0075ZM122.904 137.084H113.778C113.223 137.084 112.691 136.864 112.299 136.472C111.907 136.08 111.687 135.548 111.687 134.993C111.687 134.438 111.907 133.906 112.299 133.514C112.691 133.122 113.223 132.902 113.778 132.902H122.904C123.459 132.902 123.99 133.122 124.383 133.514C124.775 133.906 124.995 134.438 124.995 134.993C124.995 135.548 124.775 136.08 124.383 136.472C123.99 136.864 123.459 137.084 122.904 137.084ZM133.123 115.334H99.8355C99.2808 115.334 98.7489 115.114 98.3567 114.722C97.9645 114.33 97.7441 113.798 97.7441 113.243C97.7441 112.688 97.9645 112.156 98.3567 111.764C98.7489 111.372 99.2808 111.152 99.8355 111.152H133.123C133.678 111.152 134.21 111.372 134.602 111.764C134.994 112.156 135.214 112.688 135.214 113.243C135.214 113.798 134.994 114.33 134.602 114.722C134.21 115.114 133.678 115.334 133.123 115.334ZM183.173 115.334H154.895C154.34 115.334 153.808 115.114 153.416 114.722C153.024 114.33 152.803 113.798 152.803 113.243C152.803 112.688 153.024 112.156 153.416 111.764C153.808 111.372 154.34 111.152 154.895 111.152H183.173C183.728 111.152 184.26 111.372 184.652 111.764C185.044 112.156 185.264 112.688 185.264 113.243C185.264 113.798 185.044 114.33 184.652 114.722C184.26 115.114 183.728 115.334 183.173 115.334ZM197.298 137.084H161.197C160.643 137.084 160.111 136.864 159.718 136.472C159.326 136.08 159.106 135.548 159.106 134.993C159.106 134.438 159.326 133.906 159.718 133.514C160.111 133.122 160.643 132.902 161.197 132.902H197.298C197.853 132.902 198.385 133.122 198.777 133.514C199.169 133.906 199.389 134.438 199.389 134.993C199.389 135.548 199.169 136.08 198.777 136.472C198.385 136.864 197.853 137.084 197.298 137.084Z" fill="black"/>
</svg>
