<svg width="443" height="273" viewBox="0 0 443 273" fill="none" xmlns="http://www.w3.org/2000/svg">
<path d="M95.3389 106.01C96.9516 106.01 98.4983 106.651 99.6387 107.791C100.779 108.932 101.42 110.478 101.42 112.091V120.516C101.42 121.315 101.263 122.105 100.957 122.843C100.651 123.581 100.203 124.251 99.6387 124.816C99.074 125.38 98.4038 125.829 97.666 126.134C96.9282 126.44 96.1374 126.597 95.3389 126.597C94.5403 126.597 93.7495 126.44 93.0117 126.134C92.274 125.829 91.6037 125.38 91.0391 124.816C90.4744 124.251 90.0263 123.581 89.7207 122.843C89.4151 122.105 89.2578 121.315 89.2578 120.516V112.091C89.2578 110.478 89.8986 108.932 91.0391 107.791C92.1795 106.651 93.7261 106.01 95.3389 106.01Z" fill="black" stroke="black"/>
<mask id="path-2-inside-1_1330_20" fill="white">
<path d="M167.866 41.7297C184.727 20.3926 175.465 0.0320035 166.269 0.0320035H24.3579C15.5316 0.0320035 5.44166 19.9385 22.4793 41.4157C16.4475 53.6013 0.94072 90.3777 11.022 129.288C-4.09732 160.482 -2.96344 194.828 10.1623 223.218L30.6336 267.478C31.3755 269.073 32.557 270.424 34.0395 271.371C35.5221 272.318 37.244 272.822 39.0032 272.825H151.632C153.39 272.822 155.11 272.317 156.591 271.37C158.072 270.423 159.252 269.074 159.992 267.48L180.465 223.217C194.257 193.386 193.847 159.269 180.068 130.146C190.172 91.1553 174.085 54.0069 167.866 41.7297ZM33.7446 48.4188C56.0461 54.9073 81.9914 58.0625 108.73 56.5437C110.472 56.4444 112.104 55.6571 113.266 54.3548C114.428 53.0526 115.026 51.342 114.927 49.5994C114.721 45.9694 111.617 43.2165 107.982 43.4024C80.8445 44.9523 54.1571 41.2306 34.0577 34.7647C24.4729 23.6446 26.0617 16.1036 27.3288 13.1958H163.368C164.688 16.4781 165.38 24.3824 156.448 34.8935C154.383 35.3545 146.576 38.072 133.332 40.4418C131.63 40.7665 130.125 41.7492 129.143 43.1766C128.161 44.604 127.781 46.3611 128.086 48.0666C128.392 49.7721 129.357 51.2885 130.773 52.2867C132.189 53.285 133.942 53.6846 135.651 53.3989C142.689 52.1373 149.657 50.5111 156.527 48.5269C162.122 59.9237 175.616 92.2563 167.689 125.368C134.062 134.097 93.8742 147.42 23.4653 124.77C15.503 91.989 28.2422 60.0388 33.7446 48.4188ZM88.7557 259.662H41.521C20.6163 214.466 16.9933 208.928 14.3631 192.089C41.809 195.652 65.6231 207.576 79.0749 224.764C81.5209 227.903 84.7616 229.153 88.7575 229.153V259.662H88.7557ZM149.106 259.662H101.919V229.153C105.889 229.153 109.142 227.918 111.593 224.774C125.045 207.584 148.842 195.663 176.271 192.093C173.64 208.901 170.028 214.427 149.106 259.662ZM177.426 178.699C145.79 182.192 117.877 195.879 101.76 215.991H88.9157C72.8001 195.875 44.8673 182.182 13.2076 178.694C12.9723 164.863 15.535 151.306 21.5029 137.965C30.0273 140.707 55.8697 150.302 95.3333 150.302C130.74 150.301 151.73 143.107 169.402 138.521C174.917 151.187 177.653 164.887 177.426 178.699ZM442.679 171.88C442.508 168.249 439.444 165.458 435.794 165.616C434.931 165.657 434.084 165.867 433.302 166.235C432.52 166.603 431.818 167.121 431.237 167.761C430.655 168.4 430.205 169.147 429.912 169.961C429.619 170.774 429.49 171.637 429.531 172.5C429.663 175.313 429.642 177.153 429.617 178.695C397.971 182.184 370.048 195.872 353.925 215.99H341.082C324.969 195.877 297.043 182.185 265.39 178.695C265.154 164.375 267.928 150.822 273.735 137.852C320.375 153.897 370.932 155.02 421.323 137.835C422.837 141.242 424.152 144.733 425.263 148.292C425.792 149.946 426.954 151.324 428.495 152.126C430.036 152.927 431.831 153.087 433.489 152.571C435.148 152.054 436.535 150.903 437.348 149.369C438.161 147.834 438.335 146.04 437.831 144.378C435.168 135.83 431.393 127.625 427.193 120.609C418.2 105.592 413.452 88.4149 413.456 70.9106C413.456 52.8229 417.318 43.8063 427.258 11.9598C429.121 5.99116 424.628 0 418.463 0H276.545C270.372 0 265.886 6.00154 267.749 11.959C277.64 43.648 280.55 50.4963 281.397 65.4556C281.602 69.0847 284.702 71.842 288.34 71.6544C289.203 71.6055 290.048 71.3872 290.826 71.0119C291.605 70.6366 292.302 70.1116 292.877 69.4669C293.453 68.8222 293.896 68.0705 294.181 67.2546C294.466 66.4387 294.588 65.5747 294.539 64.7118C294.26 59.8666 293.662 55.0452 292.746 50.2792C327.639 59.1297 367.334 59.1367 402.247 50.2836C397.278 76.2698 401.857 103.176 415.14 126.057C373.446 140.868 321.557 140.869 279.859 126.054C285.79 115.724 290.075 104.945 292.561 92.565C292.904 90.8537 292.554 89.076 291.587 87.6229C290.62 86.1697 289.116 85.1602 287.404 84.8164C283.841 84.1063 280.372 86.4104 279.656 89.9738C277.594 100.245 273.97 109.886 268.629 119.179C263.299 128.456 252.206 147.76 252.206 177.064C252.206 206.754 261.349 221.01 282.824 267.447C283.565 269.041 284.745 270.391 286.226 271.338C287.708 272.285 289.428 272.79 291.186 272.794H403.821C407.4 272.794 410.682 270.695 412.183 267.448C433.724 220.87 444.228 204.643 442.679 171.88ZM406.095 35.5828C369.646 46.3604 326.256 46.625 288.91 35.5811L281.913 13.1638H413.091L406.095 35.5828ZM340.922 259.632H293.711C273.431 215.779 269.189 209.064 266.535 192.089C293.978 195.653 317.79 207.576 331.24 224.763C333.686 227.902 336.927 229.153 340.923 229.153V259.632H340.922ZM401.296 259.632H354.085V229.153C358.055 229.153 361.308 227.919 363.758 224.774C377.217 207.577 401.029 195.653 428.472 192.089C425.818 209.051 421.651 215.617 401.296 259.632Z"/>
</mask>
<path d="M167.866 41.7297C184.727 20.3926 175.465 0.0320035 166.269 0.0320035H24.3579C15.5316 0.0320035 5.44166 19.9385 22.4793 41.4157C16.4475 53.6013 0.94072 90.3777 11.022 129.288C-4.09732 160.482 -2.96344 194.828 10.1623 223.218L30.6336 267.478C31.3755 269.073 32.557 270.424 34.0395 271.371C35.5221 272.318 37.244 272.822 39.0032 272.825H151.632C153.39 272.822 155.11 272.317 156.591 271.37C158.072 270.423 159.252 269.074 159.992 267.48L180.465 223.217C194.257 193.386 193.847 159.269 180.068 130.146C190.172 91.1553 174.085 54.0069 167.866 41.7297ZM33.7446 48.4188C56.0461 54.9073 81.9914 58.0625 108.73 56.5437C110.472 56.4444 112.104 55.6571 113.266 54.3548C114.428 53.0526 115.026 51.342 114.927 49.5994C114.721 45.9694 111.617 43.2165 107.982 43.4024C80.8445 44.9523 54.1571 41.2306 34.0577 34.7647C24.4729 23.6446 26.0617 16.1036 27.3288 13.1958H163.368C164.688 16.4781 165.38 24.3824 156.448 34.8935C154.383 35.3545 146.576 38.072 133.332 40.4418C131.63 40.7665 130.125 41.7492 129.143 43.1766C128.161 44.604 127.781 46.3611 128.086 48.0666C128.392 49.7721 129.357 51.2885 130.773 52.2867C132.189 53.285 133.942 53.6846 135.651 53.3989C142.689 52.1373 149.657 50.5111 156.527 48.5269C162.122 59.9237 175.616 92.2563 167.689 125.368C134.062 134.097 93.8742 147.42 23.4653 124.77C15.503 91.989 28.2422 60.0388 33.7446 48.4188ZM88.7557 259.662H41.521C20.6163 214.466 16.9933 208.928 14.3631 192.089C41.809 195.652 65.6231 207.576 79.0749 224.764C81.5209 227.903 84.7616 229.153 88.7575 229.153V259.662H88.7557ZM149.106 259.662H101.919V229.153C105.889 229.153 109.142 227.918 111.593 224.774C125.045 207.584 148.842 195.663 176.271 192.093C173.64 208.901 170.028 214.427 149.106 259.662ZM177.426 178.699C145.79 182.192 117.877 195.879 101.76 215.991H88.9157C72.8001 195.875 44.8673 182.182 13.2076 178.694C12.9723 164.863 15.535 151.306 21.5029 137.965C30.0273 140.707 55.8697 150.302 95.3333 150.302C130.74 150.301 151.73 143.107 169.402 138.521C174.917 151.187 177.653 164.887 177.426 178.699ZM442.679 171.88C442.508 168.249 439.444 165.458 435.794 165.616C434.931 165.657 434.084 165.867 433.302 166.235C432.52 166.603 431.818 167.121 431.237 167.761C430.655 168.4 430.205 169.147 429.912 169.961C429.619 170.774 429.49 171.637 429.531 172.5C429.663 175.313 429.642 177.153 429.617 178.695C397.971 182.184 370.048 195.872 353.925 215.99H341.082C324.969 195.877 297.043 182.185 265.39 178.695C265.154 164.375 267.928 150.822 273.735 137.852C320.375 153.897 370.932 155.02 421.323 137.835C422.837 141.242 424.152 144.733 425.263 148.292C425.792 149.946 426.954 151.324 428.495 152.126C430.036 152.927 431.831 153.087 433.489 152.571C435.148 152.054 436.535 150.903 437.348 149.369C438.161 147.834 438.335 146.04 437.831 144.378C435.168 135.83 431.393 127.625 427.193 120.609C418.2 105.592 413.452 88.4149 413.456 70.9106C413.456 52.8229 417.318 43.8063 427.258 11.9598C429.121 5.99116 424.628 0 418.463 0H276.545C270.372 0 265.886 6.00154 267.749 11.959C277.64 43.648 280.55 50.4963 281.397 65.4556C281.602 69.0847 284.702 71.842 288.34 71.6544C289.203 71.6055 290.048 71.3872 290.826 71.0119C291.605 70.6366 292.302 70.1116 292.877 69.4669C293.453 68.8222 293.896 68.0705 294.181 67.2546C294.466 66.4387 294.588 65.5747 294.539 64.7118C294.26 59.8666 293.662 55.0452 292.746 50.2792C327.639 59.1297 367.334 59.1367 402.247 50.2836C397.278 76.2698 401.857 103.176 415.14 126.057C373.446 140.868 321.557 140.869 279.859 126.054C285.79 115.724 290.075 104.945 292.561 92.565C292.904 90.8537 292.554 89.076 291.587 87.6229C290.62 86.1697 289.116 85.1602 287.404 84.8164C283.841 84.1063 280.372 86.4104 279.656 89.9738C277.594 100.245 273.97 109.886 268.629 119.179C263.299 128.456 252.206 147.76 252.206 177.064C252.206 206.754 261.349 221.01 282.824 267.447C283.565 269.041 284.745 270.391 286.226 271.338C287.708 272.285 289.428 272.79 291.186 272.794H403.821C407.4 272.794 410.682 270.695 412.183 267.448C433.724 220.87 444.228 204.643 442.679 171.88ZM406.095 35.5828C369.646 46.3604 326.256 46.625 288.91 35.5811L281.913 13.1638H413.091L406.095 35.5828ZM340.922 259.632H293.711C273.431 215.779 269.189 209.064 266.535 192.089C293.978 195.653 317.79 207.576 331.24 224.763C333.686 227.902 336.927 229.153 340.923 229.153V259.632H340.922ZM401.296 259.632H354.085V229.153C358.055 229.153 361.308 227.919 363.758 224.774C377.217 207.577 401.029 195.653 428.472 192.089C425.818 209.051 421.651 215.617 401.296 259.632Z" fill="black" stroke="black" stroke-width="2" mask="url(#path-2-inside-1_1330_20)"/>
<path d="M347.503 106.01C349.116 106.01 350.663 106.651 351.804 107.791C352.944 108.932 353.584 110.478 353.584 112.091V120.516C353.584 122.128 352.944 123.675 351.804 124.816C350.663 125.956 349.116 126.597 347.503 126.597C345.89 126.597 344.343 125.956 343.203 124.816C342.063 123.675 341.422 122.128 341.422 120.516V112.091C341.422 110.478 342.063 108.932 343.203 107.791C344.343 106.651 345.89 106.01 347.503 106.01ZM224.294 55.7892C225.87 55.5042 227.495 55.8519 228.815 56.757V56.7579L260.032 78.6368C265.679 82.5981 265.765 90.9027 260.3 94.9982L260.035 95.1896C242.958 107.159 234.934 112.92 230.814 115.694C228.746 117.088 227.705 117.697 227.017 117.968C226.376 118.22 226.071 118.174 225.33 118.174C219.416 118.174 216.976 110.515 221.834 107.111L240.677 93.9054L241.975 92.9952H202.261C200.648 92.9952 199.101 92.3552 197.961 91.215C196.821 90.0746 196.18 88.527 196.18 86.9142C196.18 85.3015 196.821 83.7547 197.961 82.6144C199.101 81.4741 200.648 80.8331 202.261 80.8331H241.975L240.677 79.924L221.834 66.7179C220.533 65.7853 219.652 64.3772 219.382 62.799C219.112 61.2191 219.477 59.5958 220.396 58.2833C221.316 56.9711 222.717 56.0745 224.294 55.7892Z" fill="black" stroke="black"/>
</svg>
