<svg width="486" height="491" viewBox="0 0 486 491" fill="none" xmlns="http://www.w3.org/2000/svg">
<path fill-rule="evenodd" clip-rule="evenodd" d="M271.572 186.575C271.668 184.837 271.71 183.098 271.71 181.338C271.71 128.357 228.692 85.3379 175.71 85.3379C122.729 85.3379 79.7102 128.357 79.7102 181.338C79.7102 225.029 108.969 261.946 148.948 273.551C151.665 274.336 154.582 274.011 157.06 272.647C159.538 271.284 161.373 268.992 162.164 266.277C162.949 263.559 162.624 260.642 161.26 258.164C159.896 255.686 157.605 253.851 154.889 253.061C139.363 248.54 125.722 239.105 116.013 226.173C106.304 213.241 101.052 197.509 101.044 181.338C101.044 140.133 134.505 106.671 175.71 106.671C185.857 106.677 195.897 108.749 205.217 112.762C214.537 116.775 222.941 122.645 229.918 130.013C236.895 137.381 242.297 146.093 245.797 155.618C249.296 165.143 250.818 175.28 250.27 185.413C250.131 188.228 251.113 190.985 253 193.079C254.888 195.173 257.527 196.435 260.343 196.589C263.158 196.743 265.919 195.775 268.023 193.899C270.127 192.023 271.403 189.389 271.572 186.575Z" fill="black"/>
<path fill-rule="evenodd" clip-rule="evenodd" d="M127.38 299.045C122.894 297.628 118.105 297.476 113.538 298.603C108.971 299.73 104.803 302.093 101.492 305.434L92.7556 314.213C92.0712 314.904 91.1694 315.339 90.2019 315.444C89.2345 315.549 88.2604 315.318 87.4436 314.789C83.5271 312.19 79.7161 309.436 76.0196 306.533C75.2633 305.913 74.7426 305.053 74.5446 304.096C74.3465 303.139 74.4832 302.143 74.9316 301.274L80.6276 290.17C82.9092 285.71 83.8294 280.679 83.2738 275.7C82.7181 270.722 80.711 266.017 77.5023 262.17C74.2481 258.22 71.2449 254.069 68.5103 249.743C65.8306 245.484 61.9547 242.109 57.3672 240.041C52.7797 237.974 47.6843 237.304 42.7183 238.117L30.4943 240.079C29.5349 240.237 28.5504 240.059 27.707 239.575C26.8636 239.091 26.213 238.331 25.865 237.423C24.2196 233.019 22.7535 228.549 21.4703 224.026C21.2244 223.082 21.3094 222.082 21.7112 221.193C22.113 220.304 22.8072 219.58 23.6783 219.141L34.8143 213.498C39.2818 211.231 42.9843 207.701 45.4612 203.347C47.938 198.992 49.08 194.006 48.745 189.007C48.4356 183.941 48.4356 178.799 48.777 173.669C49.1115 168.649 47.9594 163.642 45.4648 159.273C42.9701 154.904 39.2435 151.367 34.7503 149.103L23.6996 143.503C22.8306 143.066 22.1388 142.342 21.7405 141.454C21.3423 140.567 21.2619 139.569 21.513 138.629C22.7716 134.106 24.2223 129.626 25.833 125.21C26.1906 124.303 26.8483 123.545 27.6964 123.064C28.5446 122.583 29.532 122.407 30.4943 122.565L42.8143 124.538C47.7624 125.331 52.8343 124.651 57.3992 122.584C61.9641 120.517 65.8206 117.153 68.489 112.911C71.2196 108.634 74.2383 104.474 77.5236 100.527C80.7472 96.6621 82.7598 91.9324 83.31 86.9296C83.8602 81.9268 82.9235 76.8727 80.617 72.3994L74.9743 61.3807C74.5241 60.5179 74.3865 59.5258 74.5848 58.573C74.7832 57.6203 75.3052 56.7655 76.0623 56.154C79.7463 53.2336 83.543 50.4582 87.4436 47.834C88.2673 47.31 89.2455 47.0835 90.2156 47.1922C91.1858 47.3009 92.0896 47.7381 92.777 48.4314L101.588 57.274C108.809 64.5274 119.678 66.7674 129.182 62.9594C133.908 61.1034 138.804 59.514 143.785 58.2447C148.662 57.0107 153.067 54.3679 156.451 50.6461C159.835 46.9243 162.048 42.2883 162.814 37.3167L164.713 25.082C164.863 24.1191 165.339 23.2368 166.061 22.5826C166.783 21.9283 167.708 21.5417 168.681 21.4874C173.374 21.2847 178.078 21.2847 182.772 21.4554C183.747 21.5126 184.673 21.9029 185.396 22.5611C186.118 23.2192 186.592 24.1054 186.74 25.0714L188.66 37.402C189.439 42.3518 191.654 46.9638 195.032 50.6654C198.409 54.3669 202.799 56.995 207.657 58.2234C212.564 59.4927 217.46 61.082 222.228 62.9914C226.899 64.8601 232.018 65.3114 236.944 64.2889C241.871 63.2665 246.387 60.8155 249.929 57.242L258.665 48.4634C259.349 47.7716 260.251 47.3367 261.219 47.2318C262.186 47.1269 263.16 47.3584 263.977 47.8874C267.892 50.4794 271.7 53.242 275.401 56.1434C276.157 56.7626 276.678 57.6228 276.876 58.5801C277.074 59.5373 276.937 60.5335 276.489 61.402L270.793 72.506C268.511 76.9655 267.591 81.9974 268.147 86.9758C268.703 91.9542 270.71 96.6593 273.918 100.506C277.15 104.431 280.169 108.591 282.91 112.933C285.59 117.192 289.466 120.567 294.053 122.635C298.641 124.703 303.736 125.372 308.702 124.559L320.926 122.597C321.886 122.439 322.87 122.617 323.714 123.101C324.557 123.585 325.208 124.345 325.556 125.253C327.209 129.658 328.66 134.127 329.95 138.65C330.196 139.594 330.111 140.594 329.709 141.483C329.308 142.372 328.613 143.096 327.742 143.535L316.606 149.178C312.139 151.445 308.436 154.975 305.959 159.329C303.483 163.684 302.341 168.67 302.676 173.669C302.825 176.175 302.9 178.746 302.9 181.327C302.897 184.156 304.018 186.871 306.016 188.873C308.015 190.875 310.727 192.002 313.556 192.005C316.385 192.008 319.099 190.886 321.101 188.888C323.104 186.89 324.23 184.178 324.233 181.349C324.233 178.341 324.148 175.322 323.966 172.314L323.956 172.25C323.901 171.421 324.093 170.594 324.507 169.873C324.92 169.151 325.538 168.569 326.281 168.197L337.321 162.597C342.595 159.945 346.79 155.552 349.197 150.162C351.603 144.771 352.073 138.715 350.526 133.018L350.494 132.879C349.042 127.769 347.383 122.72 345.524 117.743L345.502 117.69C343.408 112.179 339.474 107.561 334.365 104.618C329.257 101.675 323.288 100.588 317.47 101.541C313.556 102.149 309.129 102.874 305.268 103.514C304.438 103.647 303.588 103.534 302.822 103.189C302.056 102.844 301.408 102.282 300.958 101.573V101.562C297.733 96.4541 294.189 91.5554 290.345 86.8954L290.302 86.8527C289.769 86.2136 289.437 85.4316 289.346 84.6045C289.255 83.7774 289.409 82.9418 289.79 82.202L295.433 71.1834C298.145 65.9394 298.96 59.9188 297.739 54.1426C296.518 48.3665 293.337 43.1905 288.734 39.4927L288.628 39.4074C284.454 36.1177 280.144 33.0039 275.71 30.074L275.668 30.042C270.734 26.8148 264.836 25.3917 258.974 26.0137C253.111 26.6357 247.644 29.2646 243.497 33.4554C240.692 36.25 237.524 39.4394 234.772 42.2234C234.181 42.8198 233.429 43.229 232.607 43.3997C231.786 43.5705 230.932 43.4952 230.153 43.1834C224.541 40.9393 218.79 39.0581 212.937 37.5514L212.884 37.5407C212.076 37.3375 211.346 36.9 210.786 36.2832C210.226 35.6664 209.861 34.8978 209.737 34.074L207.828 21.85C206.937 16.0129 204.055 10.6633 199.672 6.70738C195.288 2.75146 189.672 0.432497 183.774 0.143355H183.636C178.325 -0.0610876 173.009 -0.0468539 167.7 0.186022H167.646C161.757 0.475027 156.149 2.79059 151.771 6.74056C147.394 10.6905 144.516 16.0321 143.625 21.8607C142.996 25.7647 142.313 30.202 141.726 34.074C141.598 34.9036 141.228 35.6771 140.663 36.2975C140.098 36.9179 139.362 37.3578 138.548 37.562C132.672 39.0547 126.897 40.9286 121.257 43.1514C120.485 43.4596 119.64 43.5339 118.826 43.3651C118.012 43.1963 117.266 42.7918 116.681 42.202L107.945 33.434C103.796 29.2329 98.321 26.5966 92.4494 25.9725C86.5779 25.3484 80.6712 26.7749 75.7316 30.01L75.6143 30.0847C71.209 33.05 66.9103 36.1754 62.7503 39.4927L62.7076 39.5247C58.1138 43.219 54.9377 48.3873 53.7169 54.1546C52.4962 59.9219 53.3059 65.9339 56.009 71.1727C57.801 74.7034 59.8596 78.7034 61.6623 82.1807C62.0446 82.9263 62.1989 83.768 62.106 84.6007C62.013 85.4334 61.6769 86.2204 61.1396 86.8634V86.874C57.2676 91.514 53.7156 96.41 50.4623 101.498L50.4303 101.551C49.9892 102.255 49.3498 102.813 48.5926 103.155C47.8353 103.496 46.994 103.607 46.1743 103.471L33.9503 101.509C28.1237 100.553 22.1459 101.641 17.0294 104.588C11.913 107.535 7.97258 112.16 5.87563 117.679L5.83296 117.807C4.00896 122.799 2.3663 127.855 0.947629 132.975L0.936962 133.029C-0.608729 138.717 -0.140571 144.765 2.26213 150.148C4.66483 155.53 8.85434 159.917 14.121 162.565C17.641 164.378 21.6516 166.394 25.1503 168.154C26.6863 168.922 27.6036 170.543 27.497 172.25L27.4863 172.261C27.097 178.288 27.0863 184.334 27.4543 190.362L27.465 190.426C27.5192 191.255 27.3275 192.083 26.9139 192.804C26.5002 193.525 25.883 194.107 25.1396 194.479L14.0996 200.079C8.82573 202.731 4.63034 207.124 2.22385 212.515C-0.182632 217.905 -0.652329 223.961 0.894294 229.658L0.926295 229.797C2.38763 234.906 4.03029 239.962 5.89696 244.933L5.9183 244.986C8.01258 250.497 11.947 255.115 17.0554 258.058C22.1638 261.001 28.1323 262.088 33.9503 261.135C37.865 260.527 42.2916 259.802 46.153 259.162C46.9824 259.029 47.8325 259.142 48.5984 259.487C49.3642 259.832 50.0122 260.394 50.4623 261.103C53.6836 266.213 57.2356 271.119 61.0756 275.781L61.1183 275.823C61.6511 276.462 61.9838 277.244 62.0749 278.072C62.166 278.899 62.0113 279.734 61.6303 280.474L55.9876 291.493C53.2754 296.737 52.4607 302.757 53.6816 308.533C54.9026 314.31 58.084 319.486 62.6863 323.183L62.793 323.269C66.9743 326.554 71.273 329.679 75.7103 332.602L75.753 332.634C85.929 339.29 99.3796 337.861 107.924 329.221C110.729 326.426 113.897 323.237 116.649 320.453C117.2 319.896 117.893 319.501 118.654 319.313C119.414 319.125 120.211 319.15 120.958 319.386C123.642 320.188 126.533 319.902 129.007 318.591C131.482 317.28 133.341 315.048 134.184 312.377C135.027 309.706 134.786 306.811 133.513 304.317C132.24 301.822 130.037 299.929 127.38 299.045Z" fill="black"/>
<path fill-rule="evenodd" clip-rule="evenodd" d="M143.71 407.173V373.338C143.71 306.543 190.932 250.778 253.822 237.615C255.547 230.682 259.541 224.525 265.17 220.125C270.8 215.726 277.739 213.336 284.884 213.338H322.537C329.681 213.336 336.621 215.726 342.25 220.125C347.879 224.525 351.874 230.682 353.598 237.615C416.478 250.778 463.71 306.543 463.71 373.338V407.173C469.952 409.373 475.357 413.456 479.178 418.86C482.999 424.263 485.049 430.72 485.044 437.338V439.834C485.044 447.634 482.196 455.165 477.033 461.013C471.871 466.861 464.751 470.621 457.012 471.589L310.324 489.925C305.932 490.479 301.488 490.479 297.097 489.925L150.409 471.589C142.669 470.621 135.549 466.861 130.387 461.013C125.225 455.165 122.377 447.634 122.377 439.834V437.338C122.372 430.72 124.421 424.263 128.243 418.86C132.064 413.456 137.469 409.373 143.71 407.173ZM463.71 437.338V439.834C463.712 442.435 462.763 444.947 461.043 446.898C459.322 448.849 456.947 450.103 454.366 450.426L307.678 468.762C305.043 469.093 302.377 469.093 299.742 468.762L153.054 450.426C150.473 450.103 148.099 448.849 146.378 446.898C144.657 444.947 143.708 442.435 143.71 439.834V437.338C143.706 435.936 143.979 434.547 144.514 433.251C145.048 431.955 145.834 430.777 146.825 429.786C147.816 428.795 148.994 428.009 150.29 427.475C151.586 426.94 152.975 426.667 154.377 426.671H453.044C454.446 426.667 455.835 426.94 457.131 427.475C458.427 428.009 459.604 428.795 460.596 429.786C461.587 430.777 462.372 431.955 462.907 433.251C463.442 434.547 463.715 435.936 463.71 437.338ZM254.249 259.397L270.462 405.338H165.044V373.338C165.044 318.234 203.028 272.005 254.249 259.397ZM315.497 405.338H291.924L274.281 246.511C274.116 245.021 274.267 243.512 274.725 242.083C275.182 240.655 275.936 239.339 276.937 238.222C277.937 237.105 279.162 236.211 280.531 235.599C281.901 234.987 283.384 234.671 284.884 234.671H322.537C324.036 234.673 325.518 234.99 326.887 235.603C328.256 236.215 329.48 237.109 330.48 238.226C331.48 239.343 332.234 240.658 332.692 242.085C333.15 243.513 333.303 245.021 333.14 246.511L315.497 405.338ZM353.172 259.397C404.393 272.005 442.377 318.234 442.377 373.338V405.338H336.958L353.172 259.397Z" fill="black"/>
</svg>
