<svg width="464" height="432" viewBox="0 0 464 432" fill="none" xmlns="http://www.w3.org/2000/svg">
<path d="M168.208 129.832C168.621 131.588 169.616 133.153 171.03 134.273C172.445 135.392 174.196 136.001 176 136H200V159.2L191.2 160.08C189.078 160.186 187.086 161.131 185.66 162.706C184.235 164.281 183.494 166.358 183.6 168.48C183.706 170.602 184.651 172.594 186.226 174.02C187.801 175.445 189.878 176.186 192 176.08H192.8L200 175.36V191.2L191.2 192.08C189.078 192.186 187.086 193.131 185.66 194.706C184.235 196.281 183.494 198.358 183.6 200.48C183.706 202.602 184.651 204.594 186.226 206.02C187.801 207.445 189.878 208.186 192 208.08H192.8L200 207.36V219.672C199.992 222.362 200.65 225.012 201.916 227.385C203.183 229.759 205.017 231.781 207.256 233.272L222.96 243.736C225.634 245.53 228.78 246.488 232 246.488C235.22 246.488 238.366 245.53 241.04 243.736L256.744 233.272C258.983 231.781 260.817 229.759 262.084 227.385C263.35 225.012 264.008 222.362 264 219.672V200.84L272.8 200C274.911 199.788 276.851 198.746 278.194 197.103C279.537 195.46 280.172 193.351 279.96 191.24C279.748 189.129 278.706 187.189 277.063 185.846C275.42 184.503 273.311 183.868 271.2 184.08L264 184.8V168.88L272.8 168C274.911 167.788 276.851 166.746 278.194 165.103C279.537 163.46 280.172 161.351 279.96 159.24C279.748 157.129 278.706 155.189 277.063 153.846C275.42 152.503 273.311 151.868 271.2 152.08L264 152.8V136H288C289.804 136.001 291.555 135.392 292.97 134.273C294.384 133.153 295.379 131.588 295.792 129.832L308.8 74.512C310.912 68.5685 311.995 62.3079 312 56C312 28.952 292.712 3.83734e-05 264 3.83734e-05C257.826 -0.00689623 251.738 1.45465 246.24 4.26404C245.964 4.39077 245.697 4.53507 245.44 4.69604L234.24 11.512L220.568 4.31204C214.086 1.45996 207.081 -0.00865537 200 3.83734e-05C171.288 3.83734e-05 152 28.952 152 56C152.005 62.3079 153.088 68.5685 155.2 74.512L168.208 129.832ZM248 219.552C248.001 219.603 247.989 219.653 247.965 219.698C247.942 219.743 247.907 219.781 247.864 219.808L231.864 230.272L216 219.552V205.64L248 202.44V219.552ZM248 186.4L216 189.6V173.68L248 170.48V186.4ZM248 154.4L216 157.6V136H248V154.4ZM200 16C204.613 15.9668 209.186 16.8478 213.456 18.592L230.816 27.792L252.256 39.072C254.134 40.0608 256.327 40.2631 258.354 39.6344C260.381 39.0058 262.075 37.5978 263.064 35.72C264.053 33.8423 264.255 31.6487 263.626 29.6218C262.998 27.5949 261.59 25.9008 259.712 24.912L250.736 20.192L253.352 18.592C256.636 16.8694 260.292 15.9793 264 16C282.856 16 296 37.08 296 56C295.996 60.6071 295.184 65.1779 293.6 69.504C293.497 69.8009 293.409 70.1026 293.336 70.408L281.664 120H182.336L170.664 70.4C170.591 70.0946 170.503 69.7929 170.4 69.496C168.817 65.1724 168.004 60.6045 168 56C168 37.08 181.144 16 200 16Z" fill="white"/>
<path d="M458.504 276.424C456.835 274.918 454.865 273.782 452.725 273.093C450.585 272.403 448.323 272.175 446.088 272.424C442.342 272.866 438.647 273.67 435.056 274.824C435.152 274.616 435.192 274.376 435.296 274.168C435.498 273.772 435.667 273.36 435.8 272.936L452.6 218.968C454.833 212.893 455.984 206.473 456 200C456 172.952 436.712 144 408 144C401.767 144 395.624 145.487 390.08 148.336L376.936 154.784L364.6 148.28C358.106 145.435 351.09 143.977 344 144C315.288 144 296 172.952 296 200C295.991 206.349 297.087 212.651 299.24 218.624L316.2 272.944C316.333 273.368 316.502 273.78 316.704 274.176C316.984 274.736 317.104 275.352 317.344 275.928C303.166 272.75 288.387 273.533 274.624 278.192C271.527 279.349 268.853 281.418 266.957 284.126C265.06 286.834 264.029 290.054 264 293.36L263.808 363.616L231.808 382.576L200 363.272V293.36C199.963 290.035 198.915 286.799 196.994 284.084C195.074 281.368 192.372 279.302 189.248 278.16C175.524 273.522 160.788 272.753 146.656 275.936C146.896 275.36 147.016 274.744 147.296 274.184C147.498 273.788 147.667 273.376 147.8 272.952L164.6 218.984C166.835 212.904 167.986 206.478 168 200C168 172.952 148.712 144 120 144C113.767 144 107.624 145.487 102.08 148.336L88.936 154.784L76.6 148.28C70.1062 145.435 63.0898 143.977 56 144C27.288 144 8 172.952 8 200C7.99057 206.349 9.08695 212.651 11.24 218.624L28.2 272.944C28.3333 273.368 28.5019 273.78 28.704 274.176C28.808 274.384 28.848 274.624 28.944 274.832C25.3698 273.676 21.6909 272.872 17.96 272.432C15.7188 272.177 13.449 272.402 11.3014 273.091C9.15381 273.781 7.17756 274.92 5.504 276.432C3.77206 277.977 2.38631 279.87 1.43773 281.988C0.489155 284.105 -0.000809878 286.4 1.00485e-06 288.72V392C0.0127039 402.605 4.23106 412.772 11.7298 420.271C19.2285 427.769 29.3952 431.988 40 432H424C434.605 431.988 444.772 427.769 452.27 420.271C459.769 412.772 463.987 402.605 464 392V288.72C464.002 286.399 463.513 284.104 462.566 281.985C461.619 279.866 460.235 277.971 458.504 276.424ZM314.4 213.504C312.816 209.178 312.004 204.607 312 200C312 181.08 325.144 160 344 160C348.616 159.966 353.193 160.85 357.464 162.6L373.064 170.832L396.264 183.08C398.142 184.071 400.336 184.275 402.365 183.648C404.393 183.021 406.089 181.614 407.08 179.736C408.071 177.859 408.275 175.664 407.648 173.636C407.021 171.607 405.614 169.911 403.736 168.92L394.44 164L396.96 162.768C400.352 160.94 404.147 159.989 408 160C426.856 160 440 181.08 440 200C439.983 204.731 439.132 209.421 437.488 213.856L420.688 267.568C417.602 273.937 415.999 280.923 416 288V336C414.815 341.954 412.052 347.48 408 352C405.476 350.176 403.43 347.768 402.037 344.982C400.644 342.196 399.945 339.115 400 336V296C400 285.016 390.656 264 376 264C361.344 264 352 285.016 352 296V337.6C350.993 343.151 348.18 348.213 344 352C341.434 350.216 339.357 347.816 337.959 345.021C336.562 342.225 335.888 339.124 336 336V288C335.993 280.921 334.382 273.935 331.288 267.568L314.4 213.504ZM26.4 213.504C24.8158 209.178 24.0035 204.607 24 200C24 181.08 37.144 160 56 160C60.6159 159.966 65.1926 160.85 69.464 162.6L85.064 170.832L108.264 183.08C110.142 184.071 112.336 184.275 114.365 183.648C116.393 183.021 118.089 181.614 119.08 179.736C120.071 177.859 120.275 175.664 119.648 173.636C119.021 171.607 117.614 169.911 115.736 168.92L106.44 164L108.96 162.768C112.352 160.94 116.147 159.989 120 160C138.856 160 152 181.08 152 200C151.983 204.731 151.132 209.421 149.488 213.856L132.688 267.568C129.602 273.937 127.999 280.923 128 288V336C126.815 341.954 124.052 347.48 120 352C117.476 350.176 115.43 347.768 114.037 344.982C112.644 342.196 111.945 339.115 112 336V296C112 285.016 102.656 264 88 264C73.344 264 64 285.016 64 296V337.6C62.9927 343.151 60.1804 348.213 56 352C53.434 350.216 51.3569 347.816 49.9592 345.021C48.5615 342.225 47.8879 339.124 48 336V288C47.9932 280.921 46.3822 273.935 43.288 267.568L26.4 213.504ZM448 392C448 398.365 445.471 404.47 440.971 408.971C436.47 413.472 430.365 416 424 416H40C33.6348 416 27.5303 413.472 23.0294 408.971C18.5286 404.47 16 398.365 16 392L16.168 288.352C21.6669 289.05 27.0148 290.641 32 293.064V336C32 350.8 42.488 368 56 368C69.512 368 80 347.744 80 337.6V296C80.4614 289.86 83.2654 284.131 87.832 280C90.2074 281.974 92.1565 284.41 93.5607 287.161C94.9649 289.911 95.7948 292.919 96 296V336C96 350.8 106.488 368 120 368C134.568 368 144 344.224 144 336V293.264C156.978 288.88 171.043 288.914 184 293.36V363.272C184.011 366.107 184.753 368.89 186.154 371.354C187.556 373.818 189.569 375.878 192 377.336L223.592 396.288C226.14 397.827 229.06 398.64 232.036 398.64C235.012 398.64 237.932 397.827 240.48 396.288L272 377.344C274.431 375.885 276.444 373.823 277.846 371.358C279.247 368.893 279.989 366.108 280 363.272L280.136 293.208C293.074 288.878 307.074 288.897 320 293.264V336C320 350.8 330.488 368 344 368C357.512 368 368 347.744 368 337.6V296C368.461 289.86 371.265 284.131 375.832 280C378.207 281.974 380.157 284.41 381.561 287.161C382.965 289.911 383.795 292.919 384 296V336C384 350.8 394.488 368 408 368C422.568 368 432 344.224 432 336V293.064C436.981 290.65 442.319 289.054 447.808 288.336C447.871 288.378 447.921 288.435 447.955 288.503C447.989 288.57 448.004 288.645 448 288.72V392Z" fill="white"/>
</svg>
