<svg width="357" height="585" viewBox="0 0 357 585" fill="none" xmlns="http://www.w3.org/2000/svg">
<path d="M184.63 0.250275C225.519 -1.88906 268.672 9.65714 300.278 36.0299C353.259 80.2428 364.973 163.001 351.721 227.503C342.011 274.755 319.154 305.462 326.093 356.614C334.514 418.692 365.649 507.88 317.033 560.899C256.177 627.261 152.124 535.413 108.866 489.017C21.0421 394.824 -22.3274 276.689 11.474 148.044C33.4689 64.3373 95.8878 4.8948 184.63 0.250275ZM180.916 12.646C105.995 17.1541 49.7898 68.3059 27.2431 137.788C-21.2671 287.275 48.4628 429.965 163.404 524.319C200.548 554.809 269.106 599.326 310.497 551.275C353.085 501.834 321.857 413.781 314.931 356.632C309.48 311.694 323.792 287.082 335.121 246.23C347.963 199.915 349.253 152.831 333.453 106.963C310.181 39.4342 250.59 8.45416 180.916 12.646Z" fill="black"/>
<path d="M286.97 190.936C275.101 202.135 259.648 207.846 243.724 210.568C213.494 215.74 175.805 209.62 151.013 230.61C124.343 253.194 125.664 301.667 148.843 326.316C175.315 354.462 224.191 349.638 236.351 393.088C239.749 405.223 237.25 412.336 238.007 423.659C239.067 439.632 253.329 449.411 268.379 442.832C271.647 441.406 277.091 435.292 279.845 441.306C282.79 447.743 266.42 452.673 261.874 453.057C252.126 453.87 242.98 450.403 236.779 442.857C225.357 428.96 232.612 413.197 228.439 397.286C218.685 360.148 175.792 359.472 149.773 338.401C116.592 311.526 112.636 251.823 145.401 223.138C175.606 196.697 220.198 208.423 256.132 197.571C331.288 174.876 297.573 77.5266 238.974 55.8294C174.918 32.1045 106.404 77.7188 79.5286 134.941C36.7543 226.034 63.1642 346.115 131.462 417.451C133.533 419.615 144.955 429.735 145.401 430.765C146.716 433.828 144.98 437.201 141.606 437.387C139.548 437.505 136.484 434.628 134.872 433.251C45.3364 356.645 15.1315 185.758 93.0901 92.1113C142.518 32.737 243.991 12.8815 290.951 85.6437C321.565 133.075 309.963 185.38 272.745 224.731C262.284 235.794 237.815 251.594 234.007 265.918C230.088 280.664 243.532 290.846 257.472 285.668C261.062 284.335 268.64 277.272 271.021 282.81C272.292 285.768 271.114 286.716 268.962 288.484C254.731 300.141 231.223 296.632 226.554 277.105C221.401 255.556 245.665 239.732 259.115 227.199C270.289 216.794 280.514 204.895 286.976 190.936H286.97Z" fill="black"/>
<path d="M289.324 464.405C312.435 462.241 321.048 485.873 317.669 505.152C314.537 523.041 292.79 559.559 273.505 562.604C257.773 565.084 230.911 545.16 220.989 533.633C209.424 520.201 201.351 497.952 213.889 482.512C226.427 467.072 248.708 474.289 261.271 486.462C268.439 476.751 276.196 465.633 289.324 464.405Z" fill="black"/>
<path d="M272.631 401.732C241.291 400.051 214.826 367.837 223.482 336.572C227.674 321.429 242.277 308.854 258.617 310.714C262.294 311.129 264.892 312.915 268.34 313.597C271.279 307.905 281.461 293.171 287.29 291.28C289.969 290.412 292.722 292.514 292.549 295.311C292.387 297.878 285.008 303.818 282.943 306.193C255.039 338.271 263.41 380.202 288.233 411.225C290.291 413.793 296.089 417.129 292.921 420.905C288.803 425.81 282.267 416.403 279.911 413.359C277.139 409.774 274.584 405.843 272.637 401.738L272.631 401.732ZM264.03 319.873C250.376 314.757 236.014 322.955 231.202 336.231C222.254 360.905 243.437 390.111 268.396 393.571C257.538 373.586 255.144 350.94 261.141 328.994C261.562 327.463 264.502 320.511 264.036 319.873H264.03Z" fill="black"/>
</svg>
