<svg width="560" height="560" viewBox="0 0 560 560" fill="none" xmlns="http://www.w3.org/2000/svg">
<path d="M541.935 541.935V270.968H523.871V234.839H505.806V180.645H487.742V144.516H469.677V180.645H451.613V234.839H433.548V34.1419L379.355 44.9806V18.0645H361.29V48.5935L343.226 52.2065V0H325.161V55.8194L307.097 59.4323V18.0645H289.032V63.0542L234.839 73.8929V126.452H72.2581V144.516H90.3226V253.725C87.3393 253.205 84.3185 252.93 81.2903 252.903C46.4348 252.903 18.0645 285.32 18.0645 325.161C18.0645 361.489 41.6748 391.557 72.2581 396.597V408.366C64.6981 401.529 55.3316 397.419 45.1613 397.419C20.2594 397.419 0 421.725 0 451.613C0 477.788 15.5445 499.674 36.129 504.714V541.935H0V560H560V541.935H541.935ZM144.516 532.903C144.516 517.964 156.674 505.806 171.613 505.806C176.417 505.813 181.134 507.093 185.283 509.516C189.432 511.939 192.865 515.418 195.232 519.599L198.032 524.557L207.742 523.871C210.397 523.871 213.197 524.386 216.305 525.434L225.084 528.378L227.821 519.535C230.644 510.305 236.364 502.228 244.135 496.502C251.906 490.776 261.315 487.704 270.968 487.742C287.388 487.742 302.545 496.693 310.52 511.108L316.165 521.333L324.637 513.294C334.817 503.648 351.626 503.648 361.805 513.294L370.277 521.333L375.923 511.108C379.831 504.037 385.561 498.141 392.518 494.032C399.474 489.923 407.404 487.751 415.484 487.742C425.021 487.728 434.316 490.741 442.031 496.347C449.746 501.954 455.483 509.864 458.414 518.939L460.952 526.734L468.964 524.964C486.866 520.99 504.361 528.36 514.649 541.935H146.268C145.173 539.047 144.58 535.992 144.516 532.903ZM523.871 289.032V525.108C518.659 519.744 512.545 515.338 505.806 512.093V307.097H379.355V481.148C374.234 484.686 369.663 488.959 365.788 493.83C364.335 493.002 362.833 492.263 361.29 491.617V289.032H523.871ZM415.484 469.677C409.27 469.677 403.209 470.689 397.419 472.423V325.161H433.548V472.297C427.685 470.558 421.6 469.675 415.484 469.677ZM451.613 325.161H487.742V506.655C482.782 505.861 477.744 505.673 472.739 506.095C468.018 496.059 460.73 487.447 451.613 481.13V325.161ZM379.355 270.968V252.903H505.806V270.968H379.355ZM469.677 198.71H487.742V234.839H469.677V198.71ZM415.484 56.1806V234.839H361.29V270.968H343.226V487.877C335.35 487.877 327.483 489.865 320.663 493.83C314.745 486.308 307.199 480.226 298.591 476.043C289.983 471.86 280.538 469.683 270.968 469.677C264.717 469.677 258.648 470.581 252.903 472.27V88.6877L415.484 56.1806ZM108.387 144.516H234.839V481.067C225.642 487.421 218.31 496.119 213.604 506.258C211.667 505.992 209.715 505.85 207.76 505.834C203.549 500.223 198.091 495.669 191.818 492.529C185.545 489.39 178.628 487.751 171.613 487.742C146.711 487.742 126.452 508.001 126.452 532.903C126.452 535.956 126.858 538.964 127.463 541.935H90.3226V509.139L144.516 445.923V423.694C175.099 418.654 198.71 388.586 198.71 352.258C198.71 325.071 185.486 301.361 166.022 289.032H180.645V270.968H162.581V287.072C154.288 282.471 144.967 280.039 135.484 280C133.93 280 132.341 280.099 130.733 280.253C124.958 271.852 117.308 264.91 108.387 259.975V144.516ZM144.516 325.161C144.516 315.677 142.863 306.636 139.946 298.335C162.761 301.036 180.645 324.186 180.645 352.258C180.645 382.146 160.386 406.452 135.484 406.452C124.085 406.452 113.255 401.204 104.991 392.099C128.132 381.36 144.516 355.419 144.516 325.161ZM90.3226 402.667C100.014 414.03 112.65 421.454 126.452 423.721V439.248L90.3226 481.401V402.667ZM36.129 325.161C36.129 295.274 56.3884 270.968 81.2903 270.968C106.192 270.968 126.452 295.274 126.452 325.161C126.452 351.337 110.907 373.222 90.3226 378.262V316.129H72.2581V378.262C51.6735 373.222 36.129 351.337 36.129 325.161ZM18.0645 451.613C18.0645 431.688 30.2219 415.484 45.1613 415.484C60.1006 415.484 72.2581 431.688 72.2581 451.613C72.2581 471.538 60.1006 487.742 45.1613 487.742C30.2219 487.742 18.0645 471.538 18.0645 451.613ZM54.1935 504.714C60.8774 503.079 67.0013 499.619 72.2581 494.868V541.935H54.1935V504.714Z" fill="black"/>
<path d="M325.161 108.387H270.968V180.645H325.161V108.387ZM307.097 162.581H289.032V126.452H307.097V162.581ZM325.161 198.71H270.968V270.968H325.161V198.71ZM307.097 252.903H289.032V216.774H307.097V252.903ZM325.161 289.032H270.968V361.29H325.161V289.032ZM307.097 343.226H289.032V307.097H307.097V343.226ZM325.161 379.355H270.968V451.613H325.161V379.355ZM307.097 433.548H289.032V397.419H307.097V433.548ZM397.419 108.387H343.226V180.645H397.419V108.387ZM379.355 162.581H361.29V126.452H379.355V162.581ZM126.452 162.581H144.516V180.645H126.452V162.581ZM162.581 162.581H180.645V180.645H162.581V162.581ZM198.71 162.581H216.774V180.645H198.71V162.581ZM126.452 198.71H144.516V216.774H126.452V198.71ZM162.581 198.71H180.645V216.774H162.581V198.71ZM198.71 198.71H216.774V216.774H198.71V198.71ZM162.581 234.839H180.645V252.903H162.581V234.839ZM126.452 234.839H144.516V252.903H126.452V234.839ZM198.71 234.839H216.774V252.903H198.71V234.839ZM198.71 270.968H216.774V289.032H198.71V270.968Z" fill="black"/>
</svg>
