<svg width="463" height="293" viewBox="0 0 463 293" fill="none" xmlns="http://www.w3.org/2000/svg">
<path d="M461.458 139.125L387.33 4.1405C386.302 2.28493 384.582 0.911225 382.546 0.3192C380.509 -0.272825 378.32 -0.0350919 376.458 0.980508L343.146 19.2685C341.29 20.2931 339.915 22.0117 339.322 24.0479C338.73 26.084 338.969 28.2719 339.986 30.1325L343.082 35.7725C337.201 38.2155 330.858 39.3432 324.495 39.0764C318.133 38.8097 311.906 37.1551 306.25 34.2285C281.666 24.1725 242.378 23.6045 186.138 32.4765C179.145 33.6091 172.882 37.4594 168.714 43.1885L161.802 52.7325C135.794 45.7965 130.746 46.7885 117.506 39.1325L122.45 30.1325C123.468 28.2719 123.706 26.084 123.114 24.0479C122.522 22.0117 121.147 20.2931 119.29 19.2685L85.9782 0.980508C84.116 -0.0350919 81.9276 -0.272825 79.8907 0.3192C77.8539 0.911225 76.1339 2.28493 75.1062 4.1405L0.986185 139.125C-0.0337281 140.986 -0.273819 143.176 0.318565 145.214C0.91095 147.252 2.28745 148.972 4.14618 149.997L37.4582 168.285C39.32 169.306 41.5114 169.546 43.5502 168.952C45.5891 168.358 47.3085 166.978 48.3302 165.117L49.0422 163.813C53.6555 169.519 58.3995 175.055 63.2742 180.421C60.8209 184.356 59.5678 188.921 59.668 193.557C59.7683 198.193 61.2175 202.699 63.8386 206.525C66.4596 210.35 70.1388 213.329 74.426 215.096C78.7133 216.864 83.4227 217.343 87.9782 216.477C86.7657 221.061 86.9478 225.902 88.5012 230.382C90.0546 234.863 92.9088 238.778 96.6988 241.627C100.489 244.477 105.043 246.132 109.778 246.38C114.513 246.628 119.215 245.458 123.282 243.02C123.507 247.299 124.88 251.438 127.257 255.002C129.634 258.567 132.927 261.425 136.791 263.276C140.655 265.128 144.946 265.905 149.213 265.524C153.48 265.144 157.567 263.622 161.042 261.117C160.924 265.773 162.172 270.361 164.633 274.316C167.093 278.271 170.658 281.418 174.887 283.369C179.116 285.32 183.824 285.99 188.43 285.295C193.035 284.601 197.337 282.572 200.802 279.461C232.074 292.869 271.938 302.565 288.402 272.749C296.257 273.389 304.069 271.088 310.322 266.292C316.576 261.497 320.824 254.548 322.242 246.796C326.337 246.305 330.291 244.994 333.868 242.942C337.445 240.889 340.571 238.137 343.062 234.85C345.552 231.562 347.354 227.807 348.361 223.808C349.368 219.808 349.559 215.647 348.922 211.572C355.701 209.935 361.676 205.94 365.779 200.302C369.883 194.664 371.848 187.75 371.322 180.796C384.437 173.323 396.995 164.912 408.898 155.628L414.106 165.117C415.128 166.978 416.847 168.358 418.886 168.952C420.925 169.546 423.116 169.306 424.978 168.285L458.29 149.989C460.147 148.964 461.522 147.245 462.114 145.209C462.706 143.173 462.476 140.985 461.458 139.125ZM38.1382 150.404L18.8582 139.812L85.2822 18.8525L104.562 29.4445L38.2902 150.132L38.1382 150.404ZM77.4182 187.893L90.8022 171.557C91.4677 170.743 92.2869 170.069 93.213 169.573C94.139 169.076 95.1538 168.767 96.1994 168.662C97.245 168.558 98.3009 168.661 99.3068 168.964C100.313 169.268 101.249 169.767 102.062 170.433C102.875 171.098 103.549 171.917 104.046 172.843C104.543 173.769 104.852 174.784 104.956 175.83C105.061 176.875 104.958 177.931 104.654 178.937C104.351 179.943 103.852 180.879 103.186 181.693L89.7942 198.029C83.5302 205.685 70.9222 195.853 77.4182 187.893ZM104.954 217.412L135.378 180.277C136.747 178.717 138.668 177.751 140.736 177.581C142.804 177.411 144.856 178.052 146.461 179.367C148.066 180.682 149.097 182.569 149.337 184.63C149.576 186.691 149.006 188.764 147.746 190.412L117.33 227.549C115.985 229.19 114.043 230.229 111.931 230.439C109.82 230.648 107.711 230.01 106.07 228.665C104.429 227.319 103.389 225.377 103.18 223.266C102.971 221.154 103.609 219.054 104.954 217.412ZM140.954 236.572L161.242 211.821C162.587 210.179 164.529 209.14 166.641 208.93C168.753 208.721 170.861 209.359 172.502 210.705C174.143 212.05 175.183 213.992 175.392 216.103C175.602 218.215 174.963 220.323 173.618 221.964L153.338 246.709C151.98 248.303 150.05 249.301 147.963 249.489C145.877 249.676 143.8 249.037 142.179 247.71C140.559 246.382 139.523 244.472 139.296 242.39C139.068 240.307 139.666 238.219 140.962 236.572H140.954ZM178.73 256.477L187.138 246.213C187.804 245.399 188.623 244.725 189.549 244.229C190.475 243.732 191.49 243.423 192.535 243.318C193.581 243.214 194.637 243.317 195.643 243.62C196.649 243.924 197.585 244.423 198.398 245.089C199.211 245.754 199.885 246.573 200.382 247.499C200.879 248.425 201.188 249.44 201.292 250.486C201.397 251.531 201.294 252.587 200.99 253.593C200.687 254.599 200.188 255.535 199.522 256.349L191.106 266.621C189.761 268.262 187.819 269.301 185.707 269.511C183.596 269.72 181.487 269.082 179.846 267.737C178.205 266.391 177.165 264.449 176.956 262.338C176.747 260.226 177.385 258.118 178.73 256.477ZM328.386 192.549L268.082 157.229C266.251 156.156 264.069 155.855 262.016 156.391C259.963 156.927 258.207 158.257 257.134 160.089C256.062 161.92 255.76 164.102 256.297 166.155C256.833 168.208 258.163 169.964 259.994 171.037L320.298 206.348C324.111 208.594 328.228 210.278 332.522 211.348C333.258 213.483 333.497 215.758 333.222 217.999C332.947 220.24 332.164 222.389 330.934 224.282C329.704 226.175 328.059 227.763 326.123 228.925C324.187 230.088 322.012 230.793 319.762 230.989L260.914 199.477C259.988 198.981 258.972 198.673 257.927 198.57C256.881 198.467 255.826 198.571 254.82 198.876C253.815 199.181 252.879 199.681 252.067 200.347C251.255 201.014 250.582 201.834 250.086 202.761C249.591 203.687 249.283 204.702 249.18 205.748C249.077 206.793 249.181 207.849 249.486 208.855C249.791 209.86 250.291 210.796 250.957 211.608C251.624 212.42 252.444 213.093 253.37 213.589L306.802 242.197C306.578 244.498 305.87 246.726 304.726 248.735C303.581 250.744 302.025 252.489 300.16 253.856C298.295 255.222 296.163 256.18 293.902 256.666C291.642 257.152 289.304 257.156 287.042 256.677L242.05 236.661C240.111 235.798 237.908 235.741 235.927 236.503C233.946 237.264 232.349 238.781 231.486 240.721C230.624 242.66 230.567 244.862 231.328 246.843C232.09 248.825 233.607 250.422 235.546 251.285L272.53 267.733C260.562 283.453 230.114 274.053 211.754 266.669L211.898 266.493C215.045 262.687 216.936 258 217.31 253.076C217.684 248.152 216.522 243.233 213.985 238.996C211.449 234.76 207.661 231.413 203.144 229.417C198.627 227.422 193.603 226.875 188.762 227.852C190.773 223.954 191.673 219.578 191.364 215.203C191.056 210.827 189.551 206.621 187.013 203.043C184.476 199.465 181.004 196.654 176.977 194.916C172.949 193.178 168.522 192.58 164.178 193.188C165.999 187.877 165.899 182.094 163.894 176.848C161.889 171.603 158.108 167.227 153.208 164.484C148.308 161.74 142.601 160.803 137.082 161.835C131.562 162.867 126.579 165.804 123.002 170.132L120.618 173.037C119.939 168.45 117.942 164.159 114.869 160.687C111.796 157.214 107.78 154.71 103.309 153.478C98.839 152.247 94.107 152.341 89.6893 153.75C85.2716 155.158 81.3585 157.82 78.4262 161.412L73.3222 167.653C67.8342 161.498 62.5275 155.14 57.4022 148.58L109.802 53.1485C124.514 61.5805 132.698 61.8445 151.738 66.6365L125.698 102.629C124.04 104.923 123.019 107.617 122.741 110.435C122.462 113.253 122.936 116.094 124.114 118.669C125.291 121.244 127.13 123.461 129.443 125.094C131.757 126.727 134.461 127.718 137.282 127.965C151.324 129.331 165.484 127.174 178.481 121.687C191.478 116.199 202.901 107.556 211.714 96.5405C219.37 98.3438 227.334 98.3903 235.01 96.6765C259.362 109.196 345.01 155.268 354.986 180.788C358.13 188.828 346.962 203.485 328.386 192.549ZM365.066 165.917C347.842 140.173 248.546 80.5885 234.346 80.5885L234.33 80.4605C226.697 82.6872 218.55 82.404 211.09 79.6525C209.314 79.0122 207.371 79.0092 205.594 79.644C203.816 80.2789 202.314 81.5122 201.346 83.1325C194.48 93.1568 185.027 101.134 173.99 106.216C162.954 111.298 150.747 113.296 138.666 111.997L181.666 52.5725C183.333 50.2834 185.833 48.7407 188.626 48.2765C241.138 39.9965 278.682 40.2445 300.834 49.3085C308.606 53.0774 317.116 55.0781 325.753 55.1666C334.39 55.2551 342.939 53.4294 350.786 49.8205L401.082 141.413C389.691 150.449 377.654 158.639 365.066 165.917ZM424.282 150.404L357.858 29.4445L377.138 18.8525L443.562 139.812L424.282 150.404Z" fill="black"/>
</svg>
