<svg width="628" height="628" viewBox="0 0 628 628" fill="none" xmlns="http://www.w3.org/2000/svg">
<mask id="mask0_19002_18930" style="mask-type:luminance" maskUnits="userSpaceOnUse" x="0" y="0" width="629" height="629">
<path d="M620.028 620.029V7.97314H7.97266V620.029H620.028Z" fill="white" stroke="white" stroke-width="15.9454"/>
</mask>
<g mask="url(#mask0_19002_18930)">
<path d="M36.6328 413.275V573.915C36.6328 575.795 37.3797 577.598 38.7093 578.928C40.0388 580.257 41.8421 581.004 43.7224 581.004H96.2954C98.1757 581.004 99.9789 580.257 101.308 578.928C102.638 577.598 103.385 575.795 103.385 573.915V405.444H44.4644C42.3874 405.444 40.3954 406.269 38.9266 407.737C37.4579 409.206 36.6328 411.198 36.6328 413.275Z" stroke="black" stroke-width="15.9454" stroke-miterlimit="10" stroke-linecap="round" stroke-linejoin="round"/>
<path d="M583.537 405.445H524.618V573.916C524.618 575.796 525.365 577.599 526.694 578.929C528.023 580.258 529.826 581.005 531.706 581.006H584.28C586.16 581.006 587.963 580.259 589.293 578.929C590.622 577.6 591.369 575.796 591.369 573.916V413.276C591.369 411.199 590.544 409.207 589.075 407.739C587.607 406.27 585.615 405.445 583.537 405.445Z" stroke="black" stroke-width="15.9454" stroke-miterlimit="10" stroke-linecap="round" stroke-linejoin="round"/>
<path d="M578.114 370.929H49.8895C42.5976 370.929 36.6328 376.894 36.6328 384.185V392.188C36.6328 399.478 42.5976 405.445 49.8895 405.445H578.114C585.403 405.445 591.369 399.478 591.369 392.188V384.185C591.369 376.894 585.403 370.929 578.114 370.929Z" stroke="black" stroke-width="15.9454" stroke-miterlimit="10" stroke-linecap="round" stroke-linejoin="round"/>
<path d="M557.994 440.412V469.097" stroke="black" stroke-width="15.9454" stroke-miterlimit="10" stroke-linecap="round" stroke-linejoin="round"/>
<path d="M70.0083 440.412V469.097" stroke="black" stroke-width="15.9454" stroke-miterlimit="10" stroke-linecap="round" stroke-linejoin="round"/>
<path d="M165.096 149.767V74.4242M165.096 149.767C157.554 149.767 151.382 155.938 151.382 163.481V218.265C151.382 225.807 157.554 231.978 165.096 231.978C172.638 231.978 178.81 225.807 178.81 218.265V163.481C178.81 155.938 172.638 149.767 165.096 149.767Z" stroke="black" stroke-width="15.9454" stroke-miterlimit="10" stroke-linecap="round" stroke-linejoin="round"/>
<path d="M241.906 74.4241V149.767" stroke="black" stroke-width="15.9454" stroke-miterlimit="10" stroke-linecap="round" stroke-linejoin="round"/>
<path d="M272.884 201.808L245.281 151.761C243.815 149.101 239.995 149.101 238.528 151.761L210.925 201.808C209.508 204.379 211.368 207.528 214.303 207.528H269.506C272.442 207.528 274.3 204.379 272.884 201.808Z" stroke="black" stroke-width="15.9454" stroke-miterlimit="10" stroke-linecap="round" stroke-linejoin="round"/>
<path d="M90.643 262.693C86.2507 256.875 77.8954 255.707 72.0765 260.099L65.6886 264.92C59.8697 269.312 58.7033 277.667 63.0944 283.486L129.096 370.928H172.338L90.643 262.693Z" stroke="black" stroke-width="15.9454" stroke-miterlimit="10" stroke-linecap="round" stroke-linejoin="round"/>
<path d="M107.079 326.151L77.3149 370.929" stroke="black" stroke-width="15.9454" stroke-miterlimit="10" stroke-linecap="round" stroke-linejoin="round"/>
<path d="M591.377 194.803L461.117 237.039C453.9 239.332 449.908 247.045 452.202 254.262C454.497 261.479 462.209 265.47 469.427 263.175L591.377 223.636V194.803Z" stroke="black" stroke-width="15.9454" stroke-miterlimit="10" stroke-linecap="round" stroke-linejoin="round"/>
<path d="M467.006 235.128L553.412 74.4233" stroke="black" stroke-width="15.9454" stroke-miterlimit="10" stroke-linecap="round" stroke-linejoin="round"/>
<path d="M335.466 487.204H524.618V405.445H103.385V487.204H292.536" stroke="black" stroke-width="15.9454" stroke-miterlimit="10" stroke-linecap="round" stroke-linejoin="round"/>
<path d="M618.805 292.536V77.1299C618.805 60.5136 605.288 46.9957 588.673 46.9957H39.3298C22.7135 46.9957 9.19678 60.5136 9.19678 77.1299V473.49C9.19678 481.062 15.337 487.204 22.911 487.204C30.4838 487.204 36.624 481.062 36.624 473.49V77.1299C36.624 75.6372 37.8383 74.4241 39.3298 74.4241H588.673C589.39 74.4251 590.078 74.7106 590.585 75.2178C591.092 75.7251 591.377 76.4127 591.377 77.1299V473.49C591.377 481.062 597.519 487.204 605.09 487.204C612.664 487.204 618.805 481.062 618.805 473.49V335.465" stroke="black" stroke-width="15.9454" stroke-miterlimit="10" stroke-linecap="round" stroke-linejoin="round"/>
</g>
</svg>
