<svg width="512" height="350" viewBox="0 0 512 350" fill="none" xmlns="http://www.w3.org/2000/svg">
<path d="M491.205 308.341H362.794C369.854 299.609 376.455 290.516 382.571 281.098C386.233 275.465 389.718 269.717 393.018 263.864C393.994 262.131 394.242 260.081 393.707 258.165C393.171 256.249 391.897 254.625 390.164 253.648C388.431 252.673 386.381 252.426 384.465 252.961C382.55 253.496 380.925 254.77 379.948 256.502C377.563 260.733 375.076 264.906 372.49 269.017L367.843 268.475C340.582 264.185 324.869 258.899 310.324 241.042C335.194 218.176 334.842 192.542 332.705 169.123L344.172 175.168C357.969 182.441 375.035 177.173 382.319 163.356C389.598 149.548 384.315 132.486 370.506 125.207C369.831 124.85 370.521 125.178 352.755 118.223C362.781 120.688 373.325 119.986 382.936 116.213C385.203 117.141 387.378 118.279 389.432 119.613C403.856 128.918 411.888 145.693 410.393 163.391C408.685 183.637 403.512 204.498 395.018 225.397C394.269 227.24 394.283 229.305 395.056 231.137C395.83 232.97 397.299 234.42 399.142 235.169C402.958 236.72 407.347 234.903 408.914 231.045C417.977 208.743 423.504 186.406 425.34 164.652C427.294 141.503 416.736 119.497 397.777 107.151C408.231 97.9513 414.846 84.4873 414.846 69.4993V58.9993C414.846 55.2933 414.43 51.6843 413.664 48.2053C430.729 41.9603 435.471 20.0613 422.683 7.27127C411.168 -4.24073 391.676 -1.78174 383.506 12.5123C377.528 10.0789 371.134 8.82916 364.679 8.83226C337.017 8.83226 314.513 31.3373 314.513 58.9993V69.4993C314.513 82.8563 319.77 95.0013 328.312 104C327.35 105.164 326.436 106.367 325.574 107.607L259.037 81.6233C219.322 66.1133 184.156 65.9163 182.044 65.6453C170.095 65.0143 165.699 81.0853 176.238 86.6413L207.71 103.231C208.581 103.691 209.535 103.974 210.515 104.065C211.496 104.156 212.485 104.053 213.426 103.761C214.367 103.47 215.241 102.996 215.999 102.366C216.757 101.737 217.383 100.965 217.842 100.093C218.77 98.3337 218.96 96.2777 218.372 94.3776C217.784 92.4775 216.465 90.8889 214.705 89.9613L199.784 82.0963C218.215 84.3022 236.291 88.8381 253.58 95.5953L363.843 138.656C370.025 142.136 372.424 149.959 369.049 156.36C365.638 162.832 357.638 165.31 351.165 161.897L245.754 106.33C244.883 105.871 243.929 105.587 242.949 105.496C241.968 105.405 240.979 105.509 240.038 105.8C239.097 106.091 238.223 106.565 237.465 107.195C236.707 107.824 236.081 108.597 235.622 109.468C234.694 111.228 234.504 113.284 235.092 115.184C235.68 117.084 236.999 118.673 238.759 119.6L316.839 160.76C319.439 187.933 322.273 210.096 299.441 230.644L157.947 140.752L145.325 129.482C139.366 124.16 134.058 118.15 129.512 111.579L114.454 89.8053C103.47 73.9183 78.919 84.8913 82.333 103.286L89.943 144.282C90.8272 149.06 92.9868 153.51 96.1934 157.162C99.3999 160.813 103.534 163.529 108.158 165.022C112.299 166.657 119.525 167.518 127.184 174.415L223.139 264.518C239.394 279.782 248.456 291.931 259.996 308.34H20.796C9.329 308.341 0 317.67 0 329.137C0 340.604 9.329 349.932 20.795 349.932H491.205C502.672 349.932 512 340.604 512 329.137C512 317.67 502.672 308.341 491.205 308.341ZM329.512 69.5003V59.0003C329.512 57.6763 329.592 56.3703 329.736 55.0833H355.86C357.624 55.0854 359.314 55.7869 360.561 57.0339C361.808 58.281 362.51 59.9717 362.512 61.7353C362.511 67.0079 364.435 72.0997 367.922 76.0543L386.459 97.0783C363.59 115.18 329.512 98.9193 329.512 69.5003ZM412.074 17.8783C417.226 23.0313 415.205 31.8643 408.259 34.2013C405.197 28.8382 401.177 24.0822 396.399 20.1693C399.556 14.3413 407.419 13.2233 412.074 17.8783ZM364.678 23.8333C384.07 23.8333 399.845 39.6083 399.845 59.0003V69.5003C399.849 74.9918 398.559 80.4069 396.078 85.3063L379.173 66.1343C378.102 64.9191 377.511 63.3549 377.512 61.7353C377.512 49.7963 367.799 40.0833 355.86 40.0833H335.057C341.312 30.3213 352.248 23.8333 364.678 23.8333ZM112.776 150.751C110.723 150.088 108.888 148.883 107.465 147.262C106.042 145.641 105.083 143.665 104.691 141.544L97.081 100.548C96.538 97.6253 100.522 96.0313 102.116 98.3363L117.175 120.11C122.395 127.657 128.491 134.559 135.335 140.672L142.621 147.178L131.488 158.817C123.47 153.452 117.094 152.347 112.776 150.751ZM275.394 304.171C263.545 287.245 253.277 272.242 233.407 253.583L142.895 168.591L154.575 156.381L294.818 245.479C303.863 257.936 313.61 266.474 325.392 272.283C336.423 277.721 348.565 280.541 363.21 282.927C354.821 294.793 347.384 303.553 343.1 308.342H279.983C278.166 307.305 276.599 305.881 275.394 304.171ZM491.205 334.932H20.795C19.2586 334.931 17.7855 334.32 16.6991 333.233C15.6126 332.147 15.0016 330.674 15 329.137C15 325.941 17.6 323.341 20.795 323.341H491.205C494.4 323.341 497 325.941 497 329.137C497 332.332 494.4 334.932 491.205 334.932Z" fill="black"/>
</svg>
