<svg width="444" height="393" viewBox="0 0 444 393" fill="none" xmlns="http://www.w3.org/2000/svg">
<path d="M344.412 52.3332H265.243L263.298 37.3828C261.161 21.0261 245.89 8.41045 228.871 7.85749C227.792 5.5172 226.066 3.53413 223.898 2.14198C221.729 0.749833 219.208 0.0066401 216.631 0H155.293C149.9 0 145.285 3.18806 143.107 7.7551H140.349C122.873 7.7551 106.967 20.6575 104.783 37.3828L102.837 52.3332H17.0667C12.5414 52.3368 8.20254 54.1361 5.00271 57.3359C1.80287 60.5358 0.00361586 64.8746 0 69.3999V276.316C0 285.723 7.65269 293.383 17.0667 293.383H246.327L246.231 378.948C246.228 380.698 246.571 382.432 247.238 384.05C247.906 385.668 248.886 387.138 250.122 388.377C251.359 389.616 252.827 390.599 254.444 391.27C256.06 391.941 257.793 392.287 259.543 392.288L430.155 392.479C433.686 392.479 437.072 391.076 439.568 388.58C442.065 386.083 443.467 382.697 443.467 379.167L443.747 138.609C443.751 136.858 443.409 135.124 442.742 133.505C442.074 131.886 441.094 130.415 439.858 129.176C438.622 127.936 437.153 126.952 435.536 126.281C433.919 125.609 432.186 125.263 430.435 125.263L361.472 125.187V69.3999C361.472 59.9859 353.833 52.3332 344.412 52.3332ZM120.218 37.3828C121.173 28.2351 129.775 21.0671 139.401 21.0671H142.561C144.391 26.3714 149.381 30.2148 155.3 30.2148H216.637C222.536 30.2148 227.512 26.4055 229.362 21.1285C238.708 21.4562 246.941 28.4467 247.876 37.3828L249.433 52.3332H118.654L120.218 37.3828ZM6.82667 69.3999C6.82667 63.7542 11.421 59.1599 17.0667 59.1599H344.405C350.051 59.1599 354.645 63.7542 354.645 69.3999V125.174L343.081 125.167C339.934 125.099 267.032 123.508 247.009 155.286C246.019 157.539 246.716 155.225 246.463 175.425H229.956C228.27 152.917 209.428 135.072 186.505 135.072C163.581 135.072 144.794 152.917 143.114 175.418H99.3212V165.199C99.3212 158.003 93.4707 152.16 86.2822 152.16H82.589C75.3937 152.16 69.5501 158.003 69.5501 165.199V175.418H56.3883C29.0611 175.418 6.82667 153.184 6.82667 125.856V69.3999ZM173.193 193.577C172.885 192.897 172.762 192.149 172.834 191.406C172.905 190.664 173.17 189.953 173.602 189.344C174.012 188.798 174.626 188.457 175.377 188.252C176.06 188.047 176.879 188.184 177.835 188.662C180.948 190.334 184.006 190.915 187.392 190.915C189.577 190.915 192.396 190.525 193.741 188.798C194.149 188.226 194.385 187.55 194.421 186.848C194.457 186.147 194.292 185.45 193.946 184.839C191.645 180.238 173.124 184.252 173.124 170.366C173.124 163.833 178.128 159.348 184.798 158.488C184.948 155.621 184.347 153.955 185.685 152.617C185.992 152.29 186.362 152.03 186.773 151.852C187.184 151.674 187.627 151.583 188.075 151.583C188.522 151.583 188.966 151.674 189.376 151.852C189.787 152.03 190.158 152.29 190.464 152.617C191.795 153.948 191.208 155.641 191.351 158.283C195.366 158.788 201.974 160.877 201.182 164.837C200.909 166.216 200.008 167.369 198.588 167.499C196.874 167.806 196.267 166.816 192.785 165.792C191.625 165.451 190.123 165.315 188.416 165.315C184.887 165.315 181.521 166.577 181.521 170.093C181.521 174.046 186.354 173.909 192.58 175.418C198.676 176.852 202.889 179.732 202.889 185.999C202.889 192.498 197.728 196.82 191.351 197.673C191.194 200.697 191.829 202.097 190.464 203.612C188.593 205.483 184.798 204.595 184.798 201.223V197.946C181.453 197.714 174.148 195.98 173.193 193.577ZM17.0667 286.556C11.421 286.556 6.82667 281.962 6.82667 276.316V152.726C11.6692 161.649 18.8291 169.099 27.5517 174.293C36.2743 179.487 46.2364 182.232 56.3883 182.238H69.5501V192.191C69.5501 199.386 75.3937 205.23 82.589 205.23H86.2891C93.4707 205.23 99.3212 199.386 99.3212 192.191V182.245H143.128C144.944 204.623 163.676 222.317 186.505 222.317C209.333 222.317 228.127 204.623 229.943 182.245H246.449L246.333 286.556H17.0667ZM436.92 138.595L436.647 375.194C434.859 376.786 432.55 377.67 430.155 377.679L259.557 377.487C257.051 377.487 254.799 376.525 253.058 374.996L253.297 159.846C266.732 157.471 275.497 163.417 276.555 178.606C276.794 182.088 281.539 183.03 283.04 179.828C283.197 179.507 298.667 147.831 343.613 131.994L430.414 132.089C433.978 132.089 436.92 134.963 436.92 138.595Z" fill="black"/>
<path d="M388.656 188.157C386.164 188.157 383.386 187.733 380.771 186.313C376.914 184.299 375.002 190.068 378.334 191.72C380.907 193.085 383.59 193.7 386.499 193.918C386.635 196.171 386.082 197.4 387.27 198.635C387.652 199.026 388.142 199.293 388.678 199.402C389.213 199.512 389.769 199.457 390.273 199.247C390.778 199.037 391.208 198.68 391.507 198.223C391.806 197.766 391.962 197.229 391.953 196.683V193.741C398.52 192.614 401.456 188.6 401.456 184.129C401.49 173.855 387.898 175.8 384.71 173.008C383.44 171.916 383.386 169.513 385.311 168.107C387.27 166.673 391.202 166.864 393.134 167.424C395.633 168.134 396.616 169.117 397.926 168.871C400.241 168.482 401.087 165.151 398.684 163.628C396.554 162.085 394.363 161.635 391.994 161.341V158.474C392.014 155.88 388.922 154.87 387.318 156.529C386.116 157.764 386.676 159.027 386.533 161.43C380.061 162.4 376.907 166.523 376.887 171.22C376.887 181.214 388.724 179.924 392.772 182.04C393.173 182.213 393.528 182.474 393.812 182.805C394.096 183.136 394.301 183.528 394.411 183.949C394.521 184.371 394.533 184.813 394.446 185.24C394.36 185.668 394.177 186.07 393.912 186.416C392.861 187.849 390.431 188.157 388.656 188.157ZM318.314 220.467C319.219 220.467 320.087 220.108 320.727 219.467C321.367 218.827 321.727 217.959 321.727 217.054C321.727 216.149 321.367 215.28 320.727 214.64C320.087 214 319.219 213.64 318.314 213.64L284.201 213.6C283.296 213.599 282.427 213.957 281.786 214.597C281.146 215.236 280.785 216.104 280.784 217.009C280.783 217.915 281.142 218.783 281.781 219.424C282.421 220.065 283.289 220.425 284.194 220.426L318.314 220.467ZM334.629 213.647C333.724 213.646 332.856 214.005 332.215 214.645C331.574 215.284 331.214 216.152 331.213 217.057C331.212 217.962 331.571 218.831 332.21 219.472C332.85 220.113 333.717 220.473 334.623 220.474L404.104 220.563C405.01 220.564 405.878 220.205 406.519 219.565C407.16 218.926 407.52 218.058 407.521 217.153C407.522 216.248 407.163 215.379 406.524 214.738C405.884 214.097 405.017 213.737 404.111 213.736L334.629 213.647ZM350.652 250.675C351.557 250.676 352.426 250.317 353.066 249.678C353.707 249.038 354.068 248.17 354.068 247.265C354.069 246.36 353.711 245.491 353.071 244.851C352.432 244.21 351.564 243.849 350.659 243.848L285.6 243.78C284.695 243.779 283.827 244.138 283.186 244.778C282.545 245.417 282.185 246.285 282.184 247.19C282.183 248.095 282.541 248.964 283.181 249.605C283.82 250.245 284.688 250.606 285.594 250.607L350.652 250.675ZM404.535 243.903L365.991 243.869C365.086 243.869 364.218 244.229 363.578 244.869C362.937 245.509 362.578 246.377 362.578 247.282C362.578 248.188 362.937 249.056 363.578 249.696C364.218 250.336 365.086 250.696 365.991 250.696L404.528 250.73C405.433 250.73 406.301 250.37 406.941 249.73C407.581 249.09 407.941 248.222 407.941 247.316C407.941 246.411 407.581 245.543 406.941 244.903C406.301 244.263 405.433 243.903 404.528 243.903H404.535ZM294.441 183.432C293.993 183.432 293.549 183.52 293.134 183.691C292.72 183.862 292.344 184.113 292.026 184.43C291.709 184.746 291.457 185.122 291.285 185.536C291.113 185.95 291.025 186.394 291.024 186.842C291.024 187.291 291.112 187.735 291.283 188.149C291.454 188.563 291.705 188.94 292.021 189.257C292.338 189.574 292.714 189.826 293.128 189.998C293.542 190.17 293.986 190.259 294.434 190.259L363.513 190.341C364.418 190.342 365.287 189.983 365.928 189.344C366.568 188.704 366.929 187.836 366.93 186.931C366.931 186.026 366.572 185.157 365.933 184.517C365.293 183.876 364.425 183.515 363.52 183.514L294.441 183.432ZM400.52 347.586H392.233C393.093 344.31 392.39 350.74 392.711 294.939C392.709 292.752 391.84 290.655 390.294 289.108C388.748 287.56 386.651 286.689 384.464 286.686L375.576 286.672C373.389 286.672 371.291 287.54 369.742 289.084C368.194 290.629 367.321 292.725 367.316 294.912C367.514 350.829 366.824 344.303 367.671 347.559L357.799 347.546C358.68 344.235 357.956 351.573 358.284 283.027C358.284 280.84 357.416 278.742 355.872 277.193C354.327 275.645 352.231 274.772 350.044 274.766L341.142 274.76C336.596 274.76 332.902 278.446 332.902 282.993C333.08 351.799 332.377 344.214 333.244 347.518L323.379 347.511C324.185 344.426 323.536 348.645 323.816 322.97C323.816 320.782 322.949 318.684 321.404 317.136C319.859 315.587 317.764 314.715 315.576 314.709H306.661C302.114 314.709 298.421 318.389 298.421 322.942C298.646 348.706 297.991 344.378 298.81 347.484L289.259 347.47C288.354 347.47 287.486 347.83 286.846 348.47C286.206 349.11 285.846 349.979 285.846 350.884C285.846 351.789 286.206 352.657 286.846 353.297C287.486 353.937 288.354 354.297 289.259 354.297L400.507 354.42C401.412 354.42 402.28 354.06 402.92 353.42C403.561 352.78 403.92 351.912 403.92 351.007C403.92 350.101 403.561 349.233 402.92 348.593C402.28 347.953 401.412 347.593 400.507 347.593L400.52 347.586ZM375.569 293.499L384.457 293.512C385.242 293.512 385.877 294.154 385.877 294.932L385.829 336.302L374.094 336.295L374.149 294.926C374.149 294.141 374.784 293.499 375.569 293.499ZM340.139 281.996C340.408 281.732 340.771 281.584 341.149 281.586H350.037C350.706 281.586 351.457 282.337 351.457 283.013L351.409 328.793L339.668 328.779C339.988 281.511 339.251 282.883 340.139 281.996ZM306.674 321.536H315.569C316.232 321.536 316.989 322.287 316.989 322.963L316.962 341.21L305.234 341.197L305.254 322.949C305.254 322.157 305.896 321.536 306.674 321.536Z" fill="black"/>
</svg>
