<svg width="483" height="485" viewBox="0 0 483 485" fill="none" xmlns="http://www.w3.org/2000/svg">
<path d="M475.233 212.328H382.478C380.643 212.328 378.883 211.599 377.585 210.301C376.288 209.004 375.559 207.244 375.559 205.409C375.559 203.574 376.288 201.814 377.585 200.516C378.883 199.219 380.643 198.49 382.478 198.49H468.314V110.405H416.72C414.885 110.405 413.125 109.676 411.827 108.379C410.53 107.081 409.801 105.321 409.801 103.486C409.801 101.651 410.53 99.8913 411.827 98.5938C413.125 97.2962 414.885 96.5673 416.72 96.5673H475.24C477.075 96.5673 478.835 97.2962 480.132 98.5938C481.43 99.8913 482.159 101.651 482.159 103.486V205.409C482.159 206.318 481.98 207.218 481.631 208.058C481.283 208.898 480.773 209.661 480.13 210.304C479.487 210.946 478.723 211.456 477.883 211.803C477.043 212.15 476.142 212.329 475.233 212.328ZM99.674 212.328H6.91892C5.08391 212.328 3.32405 211.599 2.0265 210.301C0.728955 209.004 0 207.244 0 205.409V103.486C0 101.651 0.728955 99.8913 2.0265 98.5938C3.32405 97.2962 5.08391 96.5673 6.91892 96.5673H65.4391C67.2741 96.5673 69.034 97.2962 70.3315 98.5938C71.6291 99.8913 72.3581 101.651 72.3581 103.486C72.3581 105.321 71.6291 107.081 70.3315 108.379C69.034 109.676 67.2741 110.405 65.4391 110.405H13.8378V198.49H99.674C101.509 198.49 103.269 199.219 104.566 200.516C105.864 201.814 106.593 203.574 106.593 205.409C106.593 207.244 105.864 209.004 104.566 210.301C103.269 211.599 101.509 212.328 99.674 212.328ZM286.429 212.328H195.722C193.887 212.328 192.128 211.599 190.83 210.301C189.532 209.004 188.803 207.244 188.803 205.409C188.803 203.574 189.532 201.814 190.83 200.516C192.128 199.219 193.887 198.49 195.722 198.49H286.429C288.264 198.49 290.024 199.219 291.322 200.516C292.619 201.814 293.348 203.574 293.348 205.409C293.348 207.244 292.619 209.004 291.322 210.301C290.024 211.599 288.264 212.328 286.429 212.328Z" fill="black"/>
<path d="M286.431 212.328H195.724C193.889 212.328 192.129 211.599 190.831 210.301C189.534 209.004 188.805 207.244 188.805 205.409C188.805 203.574 189.534 201.814 190.831 200.516C192.129 199.219 193.889 198.49 195.724 198.49H286.431C288.266 198.49 290.026 199.219 291.323 200.516C292.621 201.814 293.35 203.574 293.35 205.409C293.35 207.244 292.621 209.004 291.323 210.301C290.026 211.599 288.266 212.328 286.431 212.328Z" fill="black"/>
<path d="M441.792 484.31H40.3564C38.5214 484.31 36.7616 483.581 35.464 482.284C34.1665 480.986 33.4375 479.227 33.4375 477.391V205.409C33.4375 203.574 34.1665 201.814 35.464 200.516C36.7616 199.219 38.5214 198.49 40.3564 198.49H99.6723C101.507 198.49 103.267 199.219 104.565 200.516C105.862 201.814 106.591 203.574 106.591 205.409C106.591 207.244 105.862 209.004 104.565 210.301C103.267 211.599 101.507 212.328 99.6723 212.328H47.2753V470.473H434.873V212.328H382.476C380.641 212.328 378.881 211.599 377.584 210.301C376.286 209.004 375.557 207.244 375.557 205.409C375.557 203.574 376.286 201.814 377.584 200.516C378.881 199.219 380.641 198.49 382.476 198.49H441.792C443.627 198.49 445.387 199.219 446.685 200.516C447.982 201.814 448.711 203.574 448.711 205.409V477.391C448.711 479.227 447.982 480.986 446.685 482.284C445.387 483.581 443.627 484.31 441.792 484.31Z" fill="black"/>
<path d="M279.73 484.31H202.418C200.583 484.31 198.823 483.581 197.526 482.284C196.228 480.986 195.499 479.226 195.499 477.391V205.381C195.499 203.546 196.228 201.786 197.526 200.489C198.823 199.191 200.583 198.462 202.418 198.462H279.73C281.565 198.462 283.325 199.191 284.623 200.489C285.92 201.786 286.649 203.546 286.649 205.381V477.391C286.649 479.226 285.92 480.986 284.623 482.284C283.325 483.581 281.565 484.31 279.73 484.31ZM209.337 470.473H272.811V212.3H209.337V470.473ZM265.062 161.397H217.322C210.492 161.39 203.944 158.674 199.115 153.845C194.286 149.016 191.57 142.468 191.562 135.638V71.9843C191.57 65.1548 194.286 58.6071 199.115 53.7779C203.944 48.9487 210.492 46.2325 217.322 46.2252H265.062C271.892 46.2325 278.439 48.9487 283.269 53.7779C288.098 58.6071 290.814 65.1548 290.821 71.9843V135.638C290.814 142.468 288.098 149.016 283.269 153.845C278.439 158.674 271.892 161.39 265.062 161.397ZM217.322 60.0907C214.161 60.0943 211.131 61.3515 208.896 63.5864C206.661 65.8213 205.404 68.8514 205.4 72.012V135.666C205.404 138.827 206.661 141.857 208.896 144.092C211.131 146.326 214.161 147.584 217.322 147.587H265.062C268.223 147.584 271.253 146.326 273.488 144.092C275.723 141.857 276.98 138.827 276.983 135.666V72.012C276.98 68.8514 275.723 65.8213 273.488 63.5864C271.253 61.3515 268.223 60.0943 265.062 60.0907H217.322Z" fill="black"/>
<path d="M282.057 150.597C280.392 150.6 278.783 150.002 277.523 148.915C276.264 147.827 275.438 146.321 275.199 144.674C274.959 143.027 275.321 141.349 276.219 139.947C277.116 138.546 278.489 137.515 280.085 137.043L413.703 97.1761C416.637 96.2965 419.357 94.8175 421.691 92.8327C424.025 90.8478 425.921 88.4003 427.26 85.6449C428.599 82.8895 429.351 79.8863 429.47 76.8251C429.589 73.7639 429.071 70.7114 427.949 67.8606L412.118 27.8208C410.986 24.9644 409.271 22.375 407.083 20.2174C404.895 18.0598 402.282 16.3812 399.41 15.2885C396.538 14.1959 393.47 13.7129 390.401 13.8705C387.333 14.0281 384.33 14.8228 381.585 16.204L282.589 66.1793C281.775 66.6217 280.881 66.896 279.959 66.986C279.036 67.0761 278.106 66.98 277.221 66.7036C276.337 66.4271 275.517 65.9758 274.811 65.3765C274.104 64.7772 273.525 64.0422 273.108 63.2149C272.691 62.3876 272.444 61.4849 272.383 60.5605C272.321 59.6361 272.445 58.7086 272.749 57.8333C273.053 56.9579 273.529 56.1524 274.149 55.4646C274.77 54.7767 275.523 54.2206 276.362 53.8291L375.303 3.8537C379.765 1.60608 384.646 0.312296 389.635 0.0547422C394.624 -0.202811 399.612 0.581515 404.281 2.35777C408.951 4.13402 413.199 6.86326 416.756 10.3717C420.312 13.8801 423.099 18.0907 424.939 22.7354L440.77 62.7752C442.597 67.4097 443.442 72.373 443.251 77.351C443.06 82.3289 441.837 87.213 439.66 91.6937C437.483 96.1745 434.399 100.154 430.604 103.381C426.809 106.608 422.385 109.012 417.612 110.44L284.035 150.306C283.393 150.499 282.727 150.597 282.057 150.597Z" fill="black"/>
<path d="M283.908 117.781C282.446 117.782 281.021 117.321 279.838 116.463C278.654 115.605 277.773 114.394 277.32 113.004C276.868 111.614 276.867 110.116 277.318 108.726C277.77 107.335 278.65 106.124 279.832 105.264C282.309 103.458 341.092 61.0801 383.263 66.207C385.052 66.4657 386.668 67.4138 387.767 68.8487C388.865 70.2835 389.359 72.0912 389.142 73.8852C388.925 75.6792 388.015 77.3171 386.606 78.4488C385.197 79.5805 383.401 80.1161 381.603 79.9411C344.69 75.4299 288.536 116.037 287.976 116.452C286.794 117.314 285.37 117.779 283.908 117.781ZM335.26 351.986C334.726 351.988 334.195 351.928 333.675 351.806C332.27 351.477 331.002 350.716 330.051 349.63C329.099 348.545 328.511 347.189 328.369 345.752C328.279 344.866 318.682 255.723 248.614 158.512C248.083 157.775 247.702 156.94 247.494 156.056C247.285 155.171 247.253 154.255 247.399 153.358C247.545 152.461 247.866 151.601 248.344 150.829C248.822 150.056 249.447 149.385 250.185 148.854C250.922 148.322 251.757 147.942 252.641 147.733C253.526 147.525 254.443 147.493 255.339 147.638C256.236 147.784 257.096 148.105 257.869 148.583C258.641 149.061 259.312 149.687 259.844 150.424C298.284 202.701 325.305 262.474 339.155 325.867L362.105 289.349C362.612 288.544 363.278 287.852 364.064 287.317C364.85 286.781 365.738 286.413 366.672 286.236C367.606 286.059 368.567 286.076 369.494 286.286C370.422 286.497 371.296 286.897 372.062 287.46L409.209 314.797C392.203 216.5 335.246 131.037 334.644 130.138C334.134 129.384 333.777 128.537 333.594 127.646C333.412 126.754 333.407 125.835 333.58 124.941C333.753 124.048 334.101 123.197 334.604 122.438C335.106 121.679 335.753 121.027 336.508 120.519C337.263 120.01 338.111 119.656 339.004 119.476C339.896 119.296 340.815 119.293 341.708 119.469C342.601 119.645 343.451 119.995 344.208 120.499C344.966 121.004 345.616 121.653 346.122 122.409C348.8 126.395 411.949 221.17 425.379 329.354C425.545 330.695 425.314 332.055 424.716 333.267C424.118 334.478 423.178 335.488 422.012 336.172C420.847 336.855 419.507 337.183 418.157 337.113C416.808 337.044 415.509 336.581 414.419 335.782L369.861 303.035L341.113 348.769C340.488 349.755 339.624 350.568 338.6 351.13C337.577 351.693 336.428 351.987 335.26 351.986ZM200.258 150.597C199.588 150.597 198.921 150.499 198.279 150.306L64.5017 110.44C59.7277 109.013 55.3022 106.609 51.5056 103.382C47.709 100.155 44.624 96.1748 42.4463 91.6931C40.2686 87.2114 39.0455 82.3263 38.8545 77.3472C38.6636 72.3681 39.509 67.4036 41.3372 62.7683L57.1677 22.7285C59.0075 18.0838 61.7945 13.8732 65.3511 10.3648C68.9077 6.85636 73.156 4.12712 77.8254 2.35087C82.4949 0.574618 87.483 -0.209708 92.4722 0.0478453C97.4614 0.305399 102.342 1.59919 106.804 3.8468L205.793 53.8291C206.633 54.2206 207.385 54.7767 208.006 55.4646C208.627 56.1524 209.103 56.9579 209.406 57.8333C209.71 58.7087 209.835 59.6361 209.773 60.5605C209.711 61.485 209.464 62.3876 209.047 63.2149C208.63 64.0422 208.051 64.7773 207.345 65.3765C206.638 65.9758 205.818 66.4271 204.934 66.7036C204.05 66.98 203.119 67.0761 202.197 66.9861C201.275 66.896 200.38 66.6217 199.566 66.1793L100.625 16.204C97.8805 14.8228 94.8781 14.0282 91.8093 13.8706C88.7405 13.713 85.6726 14.1959 82.8006 15.2886C79.9286 16.3813 77.3155 18.0598 75.1276 20.2174C72.9397 22.375 71.2249 24.9644 70.0922 27.8209L54.2133 67.8606C53.0904 70.7118 52.5716 73.7649 52.6896 76.8269C52.8077 79.8889 53.56 82.8931 54.8991 85.6493C56.2382 88.4055 58.1348 90.8537 60.469 92.839C62.8031 94.8244 65.524 96.3036 68.4593 97.183L202.244 137.043C203.84 137.515 205.212 138.546 206.11 139.947C207.007 141.349 207.369 143.027 207.13 144.674C206.89 146.321 206.065 147.827 204.805 148.915C203.546 150.002 201.936 150.6 200.272 150.597H200.258Z" fill="black"/>
<path d="M198.251 117.781C196.791 117.783 195.369 117.32 194.19 116.459C193.74 116.134 148.67 83.6427 112.609 79.948C111.684 79.884 110.782 79.635 109.955 79.2156C109.129 78.7963 108.395 78.2152 107.798 77.5069C107.2 76.7985 106.751 75.9773 106.477 75.092C106.203 74.2068 106.109 73.2754 106.202 72.3533C106.295 71.4313 106.572 70.5372 107.016 69.7242C107.461 68.9112 108.065 68.1959 108.792 67.6207C109.518 67.0455 110.353 66.6221 111.246 66.3757C112.14 66.1293 113.074 66.0649 113.992 66.1863C153.79 70.2615 200.334 103.839 202.298 105.271C203.481 106.13 204.361 107.342 204.812 108.733C205.264 110.123 205.263 111.621 204.81 113.011C204.358 114.401 203.477 115.612 202.293 116.47C201.11 117.328 199.685 117.789 198.223 117.788L198.251 117.781ZM146.899 351.986C145.729 351.986 144.579 351.69 143.556 351.124C142.532 350.559 141.668 349.744 141.045 348.755L112.297 303.035L67.7463 335.796C66.6569 336.595 65.3573 337.058 64.008 337.127C62.6586 337.196 61.3185 336.869 60.153 336.186C58.9875 335.502 58.0477 334.492 57.4495 333.281C56.8513 332.069 56.6209 330.709 56.7867 329.368C70.1817 221.17 133.358 126.395 136.036 122.409C137.063 120.893 138.65 119.845 140.448 119.497C142.246 119.148 144.109 119.527 145.629 120.55C147.148 121.573 148.2 123.157 148.554 124.954C148.907 126.751 148.533 128.616 147.514 130.138C146.913 131.037 89.9491 216.59 72.9354 314.79L110.097 287.467C110.863 286.904 111.737 286.504 112.664 286.293C113.592 286.083 114.552 286.065 115.487 286.243C116.421 286.42 117.309 286.788 118.094 287.324C118.88 287.859 119.547 288.551 120.053 289.356L143.003 325.867C156.854 262.477 183.876 202.705 222.315 150.431C222.846 149.694 223.517 149.068 224.29 148.59C225.063 148.112 225.922 147.791 226.819 147.645C227.716 147.499 228.633 147.532 229.517 147.74C230.402 147.949 231.236 148.329 231.974 148.86C232.711 149.392 233.337 150.063 233.815 150.835C234.293 151.608 234.614 152.468 234.759 153.365C234.905 154.261 234.873 155.178 234.665 156.063C234.456 156.947 234.075 157.782 233.544 158.519C163.49 255.723 153.901 344.866 153.79 345.759C153.648 347.196 153.059 348.552 152.108 349.637C151.156 350.723 149.889 351.484 148.483 351.813C147.964 351.932 147.432 351.99 146.899 351.986Z" fill="black"/>
</svg>
