<svg width="470" height="459" viewBox="0 0 470 459" fill="none" xmlns="http://www.w3.org/2000/svg">
<path d="M281.947 458.707C271.125 458.707 261.456 450.798 252.064 443.118C246.325 438.419 238.459 431.987 234.661 431.987C230.869 431.987 223.003 438.419 217.264 443.118C206.976 451.528 195.307 461.091 182.459 458.147C169.2 455.134 162.709 441.192 156.981 428.899C154.123 422.75 149.792 413.454 146.715 411.966C143.451 410.371 133.317 412.83 126.613 414.44C113.563 417.582 98.7787 421.123 88.3253 412.787C77.8347 404.408 78.0213 389.15 78.1973 375.694C78.2827 368.83 78.4107 358.462 76.2027 355.688C74.0213 352.958 63.9253 350.798 57.2427 349.368C44.0267 346.542 29.0613 343.336 23.1947 331.176C17.4133 319.203 24.16 305.624 30.1013 293.646C33.1893 287.438 37.8507 278.046 37.0347 274.446C36.2987 271.219 28.2667 264.984 22.9547 260.856C12.1973 252.515 0 243.043 0 229.347C0 215.651 12.1973 206.184 22.96 197.832C28.272 193.71 36.304 187.475 37.04 184.243C37.856 180.643 33.1947 171.251 30.112 165.038C24.1653 153.059 17.424 139.486 23.2107 127.502C29.0773 115.347 44.0427 112.142 57.2533 109.315C63.936 107.886 74.032 105.726 76.208 103C78.4267 100.222 78.2987 89.8483 78.2133 82.9843C78.0427 69.5283 77.856 54.275 88.3413 45.8963C98.7893 37.555 113.584 41.107 126.629 44.243C133.344 45.8536 143.467 48.291 146.725 46.723C149.808 45.235 154.133 35.9443 156.997 29.7896C162.72 17.491 169.205 3.55495 182.464 0.54162C195.296 -2.37038 206.987 7.15495 217.269 15.571C223.013 20.2696 230.88 26.7016 234.672 26.7016C238.464 26.7016 246.331 20.2696 252.069 15.5763C262.363 7.15495 274.027 -2.39171 286.88 0.54162C300.133 3.55495 306.624 17.4963 312.352 29.795C315.216 35.9443 319.541 45.2403 322.624 46.7283C325.893 48.3016 336.011 45.859 342.715 44.2483C355.765 41.1123 370.555 37.5603 381.008 45.9016C391.499 54.2803 391.312 69.5336 391.136 82.995C391.051 89.859 390.923 100.232 393.131 103C395.312 105.726 405.408 107.891 412.091 109.32C425.307 112.147 440.272 115.347 446.139 127.507C451.92 139.486 445.173 153.064 439.232 165.043C436.144 171.256 431.483 180.643 432.299 184.243C433.035 187.475 441.067 193.71 446.379 197.832C457.136 206.184 469.333 215.651 469.333 229.347C469.333 243.043 457.136 252.51 446.373 260.862C441.061 264.984 433.029 271.214 432.293 274.456C431.477 278.056 436.139 287.443 439.221 293.656C445.168 305.635 451.909 319.208 446.123 331.192C440.256 343.347 425.291 346.552 412.08 349.374C405.397 350.808 395.301 352.968 393.12 355.694C390.907 358.472 391.035 368.846 391.12 375.71C391.291 389.16 391.477 404.414 380.992 412.792C370.544 421.134 355.749 417.576 342.704 414.446C335.989 412.835 325.867 410.387 322.608 411.971C319.525 413.454 315.2 422.75 312.336 428.899C306.613 441.203 300.128 455.139 286.869 458.152C285.205 458.531 283.563 458.707 281.947 458.707ZM143.413 390.147C147.835 390.147 152.075 390.862 155.984 392.744C165.92 397.534 171.211 408.899 176.325 419.891C178.859 425.331 184.128 436.648 187.184 437.342C190.027 437.843 199.307 430.232 203.755 426.595C213.344 418.755 223.253 410.648 234.661 410.648C246.069 410.648 255.984 418.76 265.568 426.595C270.016 430.232 279.019 437.694 282.149 437.342C285.195 436.643 290.469 425.331 292.997 419.891C298.107 408.899 303.397 397.544 313.339 392.744C323.451 387.864 335.76 390.835 347.68 393.699C353.413 395.075 365.365 397.95 367.669 396.115C370.011 394.248 369.856 381.902 369.781 375.971C369.627 363.747 369.467 351.112 376.443 342.376C383.376 333.694 395.691 331.059 407.605 328.51C413.44 327.262 425.573 324.664 426.901 321.918C428.139 319.342 422.709 308.398 420.101 303.139C414.635 292.126 408.976 280.734 411.483 269.726C413.909 259.048 423.76 251.4 433.28 244.008C438.432 240.019 448 232.595 448 229.347C448 226.099 438.432 218.675 433.291 214.68C423.765 207.288 413.915 199.646 411.488 188.963C408.987 177.955 414.645 166.563 420.112 155.55C422.72 150.291 428.155 139.352 426.912 136.771C425.584 134.019 413.451 131.427 407.621 130.179C395.707 127.63 383.387 124.995 376.453 116.318C369.483 107.587 369.643 94.947 369.797 82.7283C369.872 76.7976 370.027 64.4456 367.685 62.579C365.392 60.7443 353.435 63.619 347.691 64.995C335.776 67.859 323.467 70.8243 313.349 65.9443C303.413 61.1496 298.123 49.7896 293.008 38.803C290.475 33.363 285.211 22.0456 282.149 21.3523C279.216 20.8456 270.021 28.4616 265.573 32.0936C255.989 39.939 246.08 48.0456 234.672 48.0456C223.264 48.0456 213.355 39.9336 203.765 32.0936C199.317 28.4563 190.037 20.8776 187.184 21.347C184.133 22.0403 178.859 33.3576 176.331 38.7976C171.216 49.7843 165.931 61.1443 155.995 65.939C145.883 70.8136 133.573 67.859 121.648 64.9896C115.915 63.6083 103.952 60.739 101.659 62.5683C99.3173 64.4403 99.472 76.787 99.5467 82.7176C99.7013 94.9416 99.8613 107.582 92.8853 116.307C85.952 124.99 73.6373 127.624 61.7227 130.174C55.888 131.422 43.7547 134.019 42.4267 136.766C41.1893 139.342 46.6187 150.286 49.2267 155.544C54.6933 166.558 60.352 177.95 57.8453 188.958C55.4187 199.635 45.568 207.283 36.048 214.675C30.9013 218.675 21.3333 226.099 21.3333 229.347C21.3333 232.595 30.9013 240.024 36.0427 244.014C45.568 251.406 55.4187 259.043 57.8453 269.726C60.3467 280.734 54.688 292.12 49.2213 303.139C46.6133 308.398 41.1787 319.336 42.4213 321.918C43.7493 324.675 55.8827 327.267 61.7173 328.515C73.6267 331.064 85.9467 333.699 92.88 342.382C99.8507 351.112 99.6907 363.747 99.536 375.971C99.4613 381.902 99.3067 394.254 101.648 396.12C103.941 397.928 115.899 395.08 121.643 393.699C128.944 391.939 136.405 390.147 143.413 390.147ZM167.541 311.555L316.875 162.222C317.893 161.238 318.706 160.061 319.265 158.759C319.824 157.458 320.118 156.058 320.131 154.642C320.143 153.226 319.873 151.821 319.337 150.51C318.8 149.199 318.008 148.008 317.007 147.007C316.005 146.005 314.814 145.213 313.504 144.677C312.193 144.141 310.788 143.871 309.372 143.883C307.955 143.895 306.556 144.19 305.254 144.749C303.953 145.308 302.776 146.12 301.792 147.139L152.459 296.472C151.44 297.456 150.627 298.633 150.068 299.935C149.509 301.236 149.215 302.636 149.203 304.052C149.19 305.468 149.46 306.873 149.997 308.184C150.533 309.495 151.325 310.686 152.326 311.687C153.328 312.689 154.519 313.481 155.83 314.017C157.141 314.553 158.545 314.823 159.962 314.811C161.378 314.799 162.778 314.504 164.079 313.945C165.38 313.386 166.557 312.574 167.541 311.555ZM181.333 213.347C160.752 213.347 144 196.6 144 176.014C144 155.427 160.752 138.68 181.333 138.68C201.915 138.68 218.667 155.427 218.667 176.014C218.667 196.6 201.915 213.347 181.333 213.347ZM181.333 160.014C172.512 160.014 165.333 167.192 165.333 176.014C165.333 184.835 172.512 192.014 181.333 192.014C190.155 192.014 197.333 184.835 197.333 176.014C197.333 167.192 190.155 160.014 181.333 160.014ZM288 320.014C267.419 320.014 250.667 303.262 250.667 282.68C250.667 262.099 267.419 245.347 288 245.347C308.581 245.347 325.333 262.099 325.333 282.68C325.333 303.262 308.581 320.014 288 320.014ZM288 266.68C279.179 266.68 272 273.859 272 282.68C272 291.502 279.179 298.68 288 298.68C296.821 298.68 304 291.502 304 282.68C304 273.859 296.821 266.68 288 266.68Z" fill="black"/>
</svg>
