<svg width="217" height="365" viewBox="0 0 217 365" fill="none" xmlns="http://www.w3.org/2000/svg">
<path d="M14.4497 101.671C10.6183 101.676 6.94532 103.201 4.23643 105.91C1.52754 108.62 0.00398302 112.293 0 116.124C0 119.911 1.49614 123.337 3.88937 125.914C3.18899 126.473 2.62285 127.181 2.23264 127.988C1.84242 128.794 1.63806 129.678 1.63462 130.574V340.609C1.63462 343.932 4.3349 346.63 7.65531 346.63H21.4337V361.242C21.4337 362.04 21.7508 362.806 22.3154 363.37C22.8799 363.935 23.6456 364.252 24.444 364.252H61.9439C62.7423 364.252 63.508 363.935 64.0726 363.37C64.6371 362.806 64.9543 362.04 64.9543 361.242V346.63H151.628V361.242C151.628 362.906 152.971 364.252 154.639 364.252H192.138C192.937 364.252 193.703 363.935 194.267 363.37C194.832 362.806 195.149 362.04 195.149 361.242V346.63H208.93C212.251 346.63 214.951 343.932 214.951 340.609V130.574C214.951 128.719 214.087 127.079 212.759 125.974C215.28 123.314 216.689 119.792 216.697 116.127C216.697 108.159 210.219 101.674 202.247 101.674C194.276 101.674 187.795 108.156 187.795 116.127C187.795 119.845 189.24 123.208 191.557 125.769C190.806 126.326 190.194 127.05 189.771 127.885C189.348 128.72 189.126 129.641 189.122 130.577V143.949H182.412V74.1298C182.412 33.2553 149.157 0 108.282 0C67.4077 0 34.1524 33.2553 34.1524 74.1298V143.946H27.4423V130.574C27.4393 129.653 27.2243 128.746 26.814 127.922C26.4036 127.099 25.809 126.38 25.0762 125.824C27.5184 123.183 28.8797 119.721 28.8903 116.124C28.8911 112.293 27.3703 108.618 24.6624 105.908C21.9544 103.198 18.2809 101.674 14.4497 101.671ZM6.0207 116.124C6.0207 111.476 9.80169 107.692 14.4497 107.692C19.0976 107.692 22.8816 111.476 22.8816 116.124C22.8816 120.772 19.0976 124.553 14.4497 124.553C9.80169 124.553 6.0207 120.772 6.0207 116.124ZM58.9366 358.231H27.4544V346.63H58.9336L58.9366 358.231ZM189.131 358.231H157.652V346.63H189.131V358.231ZM202.253 107.692C206.898 107.692 210.679 111.476 210.679 116.124C210.679 120.772 206.898 124.553 202.253 124.553C200.018 124.552 197.875 123.663 196.294 122.083C194.713 120.502 193.824 118.359 193.821 116.124C193.824 113.889 194.714 111.746 196.294 110.165C197.875 108.585 200.018 107.695 202.253 107.692ZM40.1851 74.1298C40.1851 36.5727 70.7372 6.0207 108.294 6.0207C145.851 6.0207 176.403 36.5727 176.403 74.1298V305.478C176.403 306.276 176.086 307.042 175.522 307.607C174.957 308.171 174.191 308.488 173.393 308.488H43.1955C42.3971 308.488 41.6314 308.171 41.0668 307.607C40.5023 307.042 40.1851 306.276 40.1851 305.478V74.1298ZM27.4544 149.967H34.1644V305.475C34.1644 310.451 38.2164 314.506 43.1955 314.506H173.393C178.372 314.506 182.424 310.451 182.424 305.475V149.967H189.134V321.653H27.4544V149.967ZM27.4544 327.673H189.131C190.728 327.673 192.259 327.039 193.388 325.91C194.518 324.781 195.152 323.249 195.152 321.653V130.574H208.933V343.619V340.609H7.65531V130.574H21.4337V321.656C21.4337 324.976 24.137 327.673 27.4544 327.673Z" fill="black"/>
<path d="M75.7283 196.242C76.1237 196.242 76.5152 196.164 76.8805 196.013C77.2457 195.862 77.5775 195.64 77.8566 195.36L143.41 129.803C143.689 129.524 143.911 129.192 144.062 128.827C144.214 128.462 144.292 128.07 144.292 127.675C144.292 127.28 144.214 126.888 144.062 126.523C143.911 126.158 143.689 125.826 143.41 125.547C143.13 125.267 142.799 125.045 142.433 124.894C142.068 124.743 141.677 124.665 141.282 124.665C140.886 124.665 140.495 124.743 140.13 124.894C139.765 125.045 139.433 125.267 139.153 125.547L73.6 191.103C73.1776 191.523 72.8897 192.06 72.7728 192.644C72.6559 193.229 72.7152 193.835 72.9432 194.385C73.1712 194.936 73.5577 195.406 74.0536 195.737C74.5495 196.067 75.1324 196.243 75.7283 196.242ZM139.274 160.461L91.7795 207.961C91.5 208.24 91.2783 208.572 91.127 208.937C90.9758 209.303 90.8979 209.694 90.8979 210.089C90.8979 210.485 90.9758 210.876 91.127 211.241C91.2783 211.606 91.5 211.938 91.7795 212.218C92.059 212.497 92.3908 212.719 92.756 212.87C93.1211 213.021 93.5125 213.099 93.9078 213.099C94.3031 213.099 94.6945 213.021 95.0596 212.87C95.4248 212.719 95.7566 212.497 96.0361 212.218L143.527 164.72C143.808 164.441 144.03 164.11 144.182 163.745C144.334 163.379 144.413 162.988 144.413 162.592C144.413 162.196 144.334 161.805 144.182 161.439C144.03 161.074 143.808 160.743 143.527 160.464C143.248 160.184 142.917 159.962 142.552 159.811C142.187 159.659 141.796 159.581 141.401 159.581C141.006 159.581 140.615 159.658 140.25 159.809C139.885 159.96 139.553 160.182 139.274 160.461ZM77.5285 159.407C77.9239 159.407 78.3154 159.33 78.6806 159.178C79.0459 159.027 79.3776 158.805 79.6568 158.525L127.154 111.031C127.434 110.751 127.655 110.419 127.807 110.054C127.958 109.689 128.036 109.298 128.036 108.902C128.036 108.507 127.958 108.116 127.807 107.751C127.655 107.385 127.434 107.054 127.154 106.774C126.875 106.495 126.543 106.273 126.178 106.122C125.812 105.97 125.421 105.893 125.026 105.893C124.631 105.893 124.239 105.97 123.874 106.122C123.509 106.273 123.177 106.495 122.897 106.774L75.4002 154.268C74.9778 154.689 74.6899 155.225 74.573 155.81C74.456 156.394 74.5154 157 74.7434 157.551C74.9714 158.101 75.3579 158.572 75.8538 158.902C76.3497 159.233 76.9326 159.408 77.5285 159.407Z" fill="black"/>
</svg>
