<svg width="468" height="500" viewBox="0 0 468 500" fill="none" xmlns="http://www.w3.org/2000/svg">
<path d="M20.026 499.572H79.505C90.318 499.572 99.533 490.862 99.533 479.496C99.533 468.453 90.548 459.471 79.505 459.471H72.218V437.633C75.117 438.295 75.235 437.862 100.209 437.99C103.299 437.99 106.111 436.894 108.377 435.128C110.644 436.894 113.457 437.99 116.547 437.99H141.575C144.664 437.99 147.476 436.894 149.742 435.129C152.008 436.894 154.819 437.99 157.909 437.99H182.937C190.311 437.99 196.307 431.991 196.307 424.617V419.248H312.911V424.617C312.911 431.991 318.908 437.99 326.281 437.99H351.309C354.399 437.99 357.211 436.894 359.477 435.128C361.744 436.894 364.557 437.99 367.647 437.99H392.675C393.696 437.99 394.681 437.852 395.638 437.633V459.471H388.351C377.31 459.471 368.323 468.443 368.323 479.496C368.323 490.567 377.308 499.572 388.351 499.572H447.83C458.643 499.572 467.858 490.862 467.858 479.496C467.858 468.453 458.873 459.471 447.83 459.471H440.543V22.475C440.543 10.083 430.481 0 418.066 0C405.702 0 395.64 10.083 395.64 22.475V32.004H385.364V21.497C385.364 18.623 383.036 16.293 380.16 16.293C377.284 16.293 374.956 18.623 374.956 21.497V32.004H344.002V21.497C344.002 18.623 341.674 16.293 338.798 16.293C335.922 16.293 333.594 18.623 333.594 21.497V32.004H175.629V21.497C175.629 18.623 173.301 16.293 170.425 16.293C167.549 16.293 165.221 18.623 165.221 21.497V32.004H134.262V21.497C134.262 18.623 131.934 16.293 129.058 16.293C126.182 16.293 123.854 18.623 123.854 21.497V32.004H92.9V21.497C92.9 18.623 90.572 16.293 87.696 16.293C84.82 16.293 82.492 18.623 82.492 21.497V32.004H72.218V22.475C72.218 10.083 62.156 0 49.741 0C37.377 0 27.315 10.083 27.315 22.475V459.471H20.028C8.987 459.471 8.34737e-08 468.443 8.34737e-08 479.496C-0.000999917 490.567 8.983 499.572 20.026 499.572ZM100.209 427.582H75.18C74.7896 427.586 74.4023 427.512 74.0409 427.364C73.6795 427.217 73.3512 426.999 73.0752 426.722C72.7992 426.446 72.5811 426.118 72.4338 425.756C72.2864 425.395 72.2127 425.007 72.217 424.617V87.333C72.217 81.26 74.255 75.251 77.965 70.403L82.493 64.464V77.406C82.493 80.28 84.821 82.61 87.697 82.61C90.573 82.61 92.901 80.28 92.901 77.406V64.469L97.429 70.41C101.142 75.2714 103.159 81.2159 103.171 87.333V424.616C103.175 425.006 103.102 425.394 102.955 425.755C102.807 426.117 102.589 426.445 102.314 426.722C102.038 426.998 101.709 427.216 101.348 427.364C100.987 427.512 100.599 427.586 100.209 427.582ZM141.575 427.582H116.547C116.156 427.586 115.769 427.512 115.407 427.365C115.045 427.217 114.717 426.999 114.44 426.723C114.164 426.447 113.945 426.118 113.797 425.757C113.649 425.395 113.575 425.008 113.579 424.617V87.333C113.579 81.258 115.622 75.248 119.337 70.4L123.855 64.468V77.405C123.855 80.279 126.183 82.609 129.059 82.609C131.935 82.609 134.263 80.279 134.263 77.405V64.463L138.796 70.409C142.501 75.25 144.539 81.259 144.539 87.332V424.616C144.543 425.006 144.469 425.394 144.322 425.755C144.174 426.117 143.956 426.446 143.68 426.722C143.404 426.998 143.076 427.216 142.714 427.364C142.353 427.512 141.965 427.586 141.575 427.582ZM185.9 424.616C185.904 425.006 185.831 425.394 185.683 425.755C185.536 426.117 185.318 426.445 185.042 426.721C184.766 426.998 184.438 427.216 184.076 427.363C183.715 427.511 183.327 427.585 182.937 427.581H157.909C157.519 427.585 157.131 427.511 156.77 427.363C156.408 427.216 156.08 426.998 155.804 426.721C155.528 426.445 155.31 426.117 155.163 425.755C155.015 425.394 154.942 425.006 154.946 424.616V87.333C154.946 81.26 156.984 75.251 160.694 70.403L165.222 64.464V77.406C165.222 80.28 167.55 82.61 170.426 82.61C173.302 82.61 175.63 80.28 175.63 77.406V64.469L180.158 70.41C183.863 75.251 185.901 81.26 185.901 87.333V424.616H185.9ZM196.308 408.84V95.672H312.912V408.84H196.308ZM351.311 427.582H326.283C325.893 427.586 325.505 427.512 325.144 427.364C324.782 427.217 324.454 426.999 324.178 426.722C323.902 426.446 323.684 426.118 323.537 425.756C323.389 425.395 323.316 425.007 323.32 424.617V87.333C323.32 81.26 325.358 75.251 329.068 70.403L333.596 64.464V77.406C333.596 80.28 335.924 82.61 338.8 82.61C341.676 82.61 344.004 80.28 344.004 77.406V64.469L348.532 70.41C352.237 75.251 354.275 81.26 354.275 87.333V424.616C354.279 425.006 354.205 425.394 354.058 425.755C353.91 426.117 353.692 426.446 353.416 426.722C353.14 426.998 352.812 427.216 352.45 427.364C352.089 427.512 351.701 427.586 351.311 427.582ZM392.678 427.582H367.649C367.258 427.586 366.871 427.512 366.509 427.365C366.147 427.217 365.819 426.999 365.542 426.723C365.266 426.447 365.047 426.118 364.899 425.757C364.752 425.395 364.677 425.008 364.681 424.617V87.333C364.681 81.258 366.724 75.248 370.439 70.4L374.957 64.468V77.405C374.957 80.279 377.285 82.609 380.161 82.609C383.037 82.609 385.365 80.279 385.365 77.405V64.463L389.898 70.409C393.603 75.25 395.641 81.259 395.641 87.332V424.616C395.645 425.006 395.571 425.394 395.424 425.755C395.277 426.117 395.059 426.445 394.783 426.721C394.507 426.998 394.178 427.216 393.817 427.364C393.456 427.512 393.068 427.586 392.678 427.582ZM457.452 479.496C457.459 480.763 457.215 482.02 456.735 483.193C456.254 484.366 455.547 485.432 454.653 486.331C453.759 487.229 452.696 487.942 451.525 488.428C450.355 488.915 449.1 489.165 447.832 489.164H388.353C383.047 489.164 378.733 484.827 378.733 479.496C378.733 474.231 382.996 469.879 388.353 469.879H447.832C453.137 469.878 457.452 474.193 457.452 479.496ZM418.118 10.408C424.745 10.408 430.137 15.82 430.137 22.475V459.471H406.049V22.475C406.048 15.82 411.44 10.408 418.118 10.408ZM395.64 42.411V60.778L390.792 54.419C389.342 52.56 387.458 51.207 385.365 50.326V42.411H395.64ZM374.957 42.411V50.331C372.859 51.217 370.964 52.581 369.489 54.468L362.166 64.083C361.155 65.403 360.307 66.828 359.48 68.264C358.656 66.832 357.811 65.409 356.804 64.093L349.43 54.417C347.979 52.559 346.095 51.207 344.003 50.327V42.411H374.957ZM333.595 42.411V50.33C331.496 51.216 329.602 52.58 328.132 54.465L320.799 64.083C316.135 70.177 313.507 77.635 313.084 85.264H196.136C195.712 77.635 193.086 70.178 188.431 64.093L181.057 54.417C179.606 52.559 177.722 51.207 175.63 50.327V42.411H333.595ZM165.222 42.411V50.33C163.123 51.216 161.229 52.58 159.759 54.465L152.426 64.083C151.416 65.403 150.569 66.828 149.743 68.263C148.918 66.831 148.073 65.408 147.065 64.091L139.691 54.42C138.241 52.561 136.357 51.208 134.264 50.327V42.412L165.222 42.411ZM123.855 42.411V50.331C121.757 51.217 119.862 52.581 118.387 54.468L111.064 64.083C110.054 65.402 109.206 66.828 108.379 68.263C107.555 66.831 106.71 65.409 105.702 64.093L98.328 54.417C96.877 52.559 94.993 51.207 92.901 50.327V42.411H123.855ZM82.493 42.411V50.33C80.394 51.216 78.5 52.58 77.03 54.465L72.217 60.777V42.411H82.493ZM37.722 22.475C37.722 15.82 43.114 10.408 49.792 10.408C56.419 10.408 61.811 15.82 61.811 22.475V459.471H37.722V22.475ZM20.026 469.878H79.505C84.811 469.878 89.125 474.193 89.125 479.495C89.1319 480.763 88.8881 482.019 88.4076 483.192C87.9272 484.365 87.2196 485.431 86.3256 486.33C85.4315 487.228 84.3687 487.941 83.1982 488.427C82.0276 488.914 80.7725 489.164 79.505 489.163H20.026C14.72 489.163 10.406 484.826 10.406 479.495C10.406 474.231 14.67 469.878 20.026 469.878Z" fill="black"/>
<path d="M282.578 222.283L219.288 285.573C218.559 286.3 218.063 287.228 217.861 288.237C217.66 289.247 217.763 290.294 218.157 291.245C218.551 292.197 219.218 293.01 220.074 293.581C220.931 294.153 221.937 294.458 222.967 294.457C223.65 294.458 224.327 294.324 224.959 294.062C225.59 293.8 226.164 293.416 226.646 292.932L289.936 229.642C290.419 229.159 290.803 228.585 291.064 227.954C291.326 227.323 291.461 226.646 291.461 225.963C291.461 225.279 291.326 224.602 291.064 223.971C290.803 223.34 290.419 222.766 289.936 222.283C289.453 221.8 288.88 221.416 288.248 221.154C287.617 220.893 286.94 220.758 286.257 220.758C285.574 220.758 284.897 220.893 284.266 221.154C283.634 221.416 283.061 221.8 282.578 222.283ZM226.901 257.904C227.584 257.905 228.261 257.771 228.893 257.509C229.524 257.247 230.098 256.863 230.58 256.379L258.922 228.037C260.955 226.004 260.955 222.711 258.922 220.678C256.889 218.645 253.596 218.645 251.563 220.678L223.221 249.02C222.738 249.503 222.354 250.077 222.093 250.708C221.831 251.339 221.696 252.016 221.696 252.7C221.696 253.383 221.831 254.06 222.093 254.691C222.354 255.322 222.738 255.896 223.221 256.379C223.704 256.863 224.277 257.247 224.909 257.509C225.54 257.771 226.217 257.905 226.901 257.904Z" fill="black"/>
</svg>
