<svg width="496" height="472" viewBox="0 0 496 472" fill="none" xmlns="http://www.w3.org/2000/svg">
<path d="M495.5 466.058L463.08 407.698C454.807 392.794 441.825 381.055 426.166 374.32L464 368.645V396C464 397.061 464.421 398.078 465.172 398.828C465.922 399.578 466.939 400 468 400C469.061 400 470.078 399.578 470.828 398.828C471.579 398.078 472 397.061 472 396V244C472.029 233.141 468.009 222.661 460.726 214.607C460.88 214.061 461.044 213.517 461.226 212.977L462.857 208.094C465.785 199.426 466.011 190.074 463.507 181.275C461.003 172.475 455.886 164.644 448.833 158.817L439.543 151.077C429.139 142.447 421.772 130.711 418.523 117.59C416.024 107.534 411.471 98.1034 405.149 89.8931C398.828 81.6827 390.875 74.87 381.791 69.8837C372.708 64.8974 362.69 61.8455 352.37 60.9201C342.049 59.9947 331.649 61.2159 321.823 64.5068L319.168 65.3958C313.078 67.4179 307.688 71.1295 303.627 76.098C299.566 81.0665 297.001 87.0871 296.231 93.4578C295.461 99.8284 296.518 106.287 299.279 112.08C302.039 117.872 306.39 122.761 311.823 126.176V164C311.831 171.422 314.782 178.537 320.03 183.786C325.277 189.035 332.391 191.989 339.813 192C339.34 192.788 338.829 193.553 338.282 194.292C332.443 202.077 328.313 211.006 326.162 220.497C324.012 229.988 323.888 239.825 325.8 249.367C327.138 256.061 326.498 263 323.958 269.336L318.829 282.173C316.562 287.836 315.521 293.915 315.774 300.009C316.027 306.104 317.567 312.076 320.295 317.532C322.583 322.106 323.846 327.124 323.996 332.236C324.147 337.348 323.18 342.431 321.165 347.132L304.325 386.422C304.064 387.03 303.958 387.694 304.016 388.353C304.075 389.013 304.296 389.648 304.66 390.2C305.025 390.753 305.52 391.207 306.103 391.521C306.686 391.835 307.338 392 308 392C308.198 391.999 308.397 391.985 308.593 391.956L407.744 377.083C418.398 378.99 428.459 383.36 437.125 389.844C441.002 392.748 444.561 396.054 447.743 399.707C450.929 403.364 453.725 407.344 456.083 411.583L485.2 464H287.338L279.958 423.411C279.98 423.275 279.994 423.137 280 423V316C280 314.939 279.579 313.922 278.828 313.171C278.078 312.421 277.061 312 276 312C274.939 312 273.922 312.421 273.172 313.171C272.421 313.922 272 314.939 272 316V379.64L261.944 324.335L300.625 251.956C300.653 251.903 300.68 251.85 300.705 251.796C302.869 247.259 303.997 242.297 304.005 237.271V233.666C304.005 228.778 302.938 223.95 300.879 219.517C298.821 215.084 295.82 211.154 292.086 208H320C321.061 208 322.078 207.578 322.828 206.828C323.579 206.078 324 205.061 324 204C324 202.939 323.579 201.922 322.828 201.171C322.078 200.421 321.061 200 320 200H288V192C288 191.122 287.712 190.269 287.179 189.572C286.646 188.875 285.899 188.372 285.053 188.141L271.953 184.565L271.996 184.275C272.139 183.31 271.924 182.327 271.393 181.51C270.862 180.692 270.05 180.097 269.111 179.836L245.071 173.146C244.208 172.905 243.289 172.962 242.462 173.308C240.889 169.377 238.174 166.008 234.667 163.636C231.161 161.264 227.024 159.997 222.79 160H200V139.25C200.002 137.328 200.767 135.485 202.126 134.126C203.485 132.766 205.328 132.002 207.25 132C209.569 132.005 211.792 132.928 213.432 134.568C215.071 136.208 215.995 138.431 216 140.75V144C216 145.061 215.579 146.078 214.828 146.828C214.078 147.578 213.061 148 212 148C210.939 148 209.922 148.421 209.172 149.171C208.421 149.922 208 150.939 208 152C208 153.061 208.421 154.078 209.172 154.828C209.922 155.578 210.939 156 212 156C215.182 155.996 218.232 154.731 220.481 152.481C222.731 150.232 223.997 147.181 224 144V140.75C223.994 136.309 222.228 132.052 219.088 128.912C215.948 125.772 211.691 124.005 207.25 124C203.207 124.004 199.331 125.612 196.472 128.471C193.613 131.33 192.004 135.207 192 139.25V160H180C174.909 160.008 170.013 161.957 166.309 165.448C162.604 168.94 160.37 173.713 160.061 178.794L157.521 173.688C157.108 172.859 156.421 172.198 155.576 171.82C154.731 171.441 153.78 171.367 152.887 171.611L122.937 179.781C121.994 180.039 121.178 180.634 120.644 181.453C120.11 182.271 119.894 183.258 120.037 184.225L120.086 184.556L106.951 188.141C106.104 188.371 105.356 188.874 104.823 189.571C104.289 190.268 104 191.122 104 192V216C104 217.061 104.421 218.078 105.172 218.828C105.922 219.578 106.939 220 108 220H125.319L135.947 291.933L104.064 467.285C103.97 467.802 103.979 468.332 104.09 468.845C104.201 469.359 104.412 469.846 104.711 470.277C105.01 470.709 105.391 471.078 105.833 471.363C106.275 471.647 106.768 471.842 107.285 471.936C107.521 471.978 107.76 471.999 108 472C108.936 471.999 109.842 471.67 110.561 471.069C111.279 470.469 111.765 469.636 111.932 468.715L143.932 292.715C144.01 292.286 144.017 291.846 143.953 291.415L128.466 186.565L151.822 180.194L160 196.63V372.445L160.03 373.565C160.03 373.604 160.036 373.697 160.038 373.736C160.059 374.116 160.081 374.506 160.111 374.865C160.757 383.366 164.408 391.359 170.411 397.414C170.439 397.443 170.458 397.477 170.487 397.506C173.775 400.835 177.691 403.479 182.009 405.282C186.327 407.086 190.96 408.014 195.639 408.012C196.498 408.012 197.361 407.974 198.227 407.912C205.141 407.471 211.783 405.049 217.359 400.937C222.935 396.824 227.21 391.194 229.674 384.719L255.874 335.688L279.207 464H276C274.939 464 273.922 464.421 273.172 465.171C272.421 465.922 272 466.939 272 468C272 469.061 272.421 470.078 273.172 470.828C273.922 471.578 274.939 472 276 472H492C492.697 472 493.382 471.819 493.987 471.473C494.592 471.128 495.096 470.63 495.45 470.03C495.803 469.43 495.994 468.747 496.003 468.051C496.012 467.354 495.838 466.667 495.5 466.058ZM464 280.775V331.508L459.131 312.031C457.207 304.396 457.754 296.348 460.694 289.045L464 280.775ZM459.343 226.295C462.254 231.429 463.847 237.204 463.978 243.105C463.744 242.587 463.512 242.069 463.257 241.559C460.888 236.806 459.554 231.606 459.343 226.3V226.295ZM339.82 184C334.518 183.994 329.434 181.885 325.685 178.135C321.935 174.386 319.826 169.302 319.82 164V130.382L337.451 139.198C338.207 139.573 339.063 139.699 339.895 139.558C340.727 139.416 341.493 139.014 342.082 138.41L342.095 138.422C343.013 137.481 344.149 136.782 345.402 136.385C346.655 135.988 347.986 135.905 349.278 136.145C350.571 136.385 351.784 136.939 352.811 137.759C353.838 138.58 354.647 139.64 355.167 140.847C355.687 142.054 355.901 143.371 355.791 144.681C355.681 145.991 355.25 147.253 354.536 148.356C353.822 149.46 352.847 150.37 351.697 151.008C350.548 151.645 349.259 151.989 347.945 152.01C346.894 152.024 345.89 152.452 345.152 153.201C344.414 153.949 344 154.958 344 156.01V177.14C343.997 179.452 343.713 181.756 343.154 184H339.82ZM328.52 350.288C330.833 344.913 332.022 339.121 332.014 333.27C332.008 326.564 330.446 319.95 327.451 313.95C325.229 309.505 323.974 304.64 323.769 299.675C323.563 294.71 324.411 289.757 326.258 285.144L331.385 272.313C334.504 264.533 335.29 256.014 333.647 247.795C331.955 239.357 332.063 230.657 333.964 222.264C335.865 213.871 339.517 205.974 344.68 199.09C349.415 192.75 351.982 185.053 352 177.14V159.44C355.744 158.431 358.993 156.095 361.142 152.868C363.291 149.641 364.194 145.743 363.683 141.9C363.172 138.056 361.281 134.53 358.362 131.977C355.444 129.425 351.697 128.02 347.82 128.025C344.557 128.017 341.371 129.014 338.695 130.88L318.309 120.687C313.729 118.399 309.932 114.804 307.396 110.356C304.86 105.909 303.7 100.81 304.063 95.7035C304.426 90.5971 306.296 85.7131 309.435 81.6694C312.575 77.6257 316.843 74.6041 321.7 72.9868L324.356 72.0978C333.135 69.1571 342.429 68.0659 351.65 68.8929C360.872 69.7199 369.823 72.4472 377.939 76.9031C386.055 81.359 393.161 87.4469 398.809 94.7836C404.457 102.12 408.524 110.547 410.756 119.533C414.414 134.302 422.705 147.512 434.416 157.227L443.707 164.967C449.518 169.768 453.734 176.22 455.797 183.47C457.861 190.72 457.675 198.425 455.263 205.567L453.632 210.451C453.143 211.931 452.729 213.435 452.393 214.957C452.393 214.978 452.382 214.998 452.379 215.019C450.114 225.189 451.428 235.828 456.099 245.142C458.46 249.874 459.793 255.051 460.013 260.334C460.232 265.618 459.332 270.888 457.372 275.799L453.264 286.077C449.694 294.941 449.029 304.71 451.364 313.977L463.051 360.7L314.5 382.979L328.52 350.288ZM112 212V195.055L121.26 192.527L124.137 212H112ZM280 195.054V200H270.328C270.106 200 269.887 200.019 269.666 200.023L270.774 192.536L280 195.054ZM245.913 181.685L263.566 186.597L261.4 201.2C256.854 202.437 252.621 204.621 248.978 207.608C245.335 210.595 242.363 214.317 240.258 218.532L232 233.4V206.048C235.225 203.556 237.924 200.449 239.942 196.908C241.96 193.367 243.257 189.461 243.757 185.416L245.913 181.685ZM168 372.286V180C168.003 176.818 169.269 173.768 171.519 171.518C173.768 169.269 176.818 168.003 180 168H222.79C226.293 168.002 229.651 169.395 232.128 171.872C234.605 174.349 235.997 177.707 236 181.21V181.58C236.004 185.358 235.073 189.079 233.29 192.41C231.507 195.741 228.927 198.58 225.781 200.672C225.233 201.037 224.784 201.532 224.473 202.113C224.163 202.693 224 203.341 224 204V247.8L182.734 322.06C182.479 322.519 182.317 323.024 182.257 323.546C182.197 324.068 182.24 324.596 182.384 325.102C182.529 325.607 182.771 326.079 183.098 326.49C183.424 326.902 183.829 327.245 184.288 327.5C184.747 327.755 185.252 327.917 185.774 327.977C186.296 328.037 186.825 327.994 187.33 327.849C187.835 327.705 188.307 327.463 188.718 327.136C189.13 326.81 189.473 326.405 189.728 325.946L247.297 222.346C247.325 222.295 247.353 222.246 247.378 222.192C249.143 218.636 251.714 215.541 254.885 213.154C258.057 210.767 261.743 209.153 265.648 208.442L265.711 208.431C267.236 208.151 268.783 208.008 270.334 208.004C277.138 208.013 283.66 210.719 288.471 215.53C293.282 220.34 295.99 226.862 296 233.666V237.271C295.996 241.075 295.15 244.831 293.525 248.271L220.975 384.029C220.947 384.081 220.92 384.135 220.895 384.189C218.998 388.217 216.151 391.725 212.598 394.41C209.045 397.094 204.894 398.875 200.5 399.6C199.501 399.768 198.494 399.884 197.483 399.947C197.083 399.968 196.675 399.99 196.268 399.994C196.13 399.994 193.842 399.927 193.842 399.927C187.203 399.376 180.974 396.492 176.259 391.786C171.544 387.08 168.647 380.857 168.083 374.219C168.062 373.926 168 372.286 168 372.286Z" fill="black"/>
<path d="M100 424H24.494L53.973 171.464C54.0137 171.115 54.0084 170.762 53.957 170.415L43.467 99.429L55.167 96.238L57.46 95.613L84.917 150.782C85.2392 151.429 85.7306 151.977 86.3391 152.367C86.9476 152.757 87.6503 152.974 88.3727 152.997C89.0951 153.02 89.8102 152.846 90.4418 152.495C91.0734 152.143 91.5981 151.628 91.96 151.002L123.386 96.664L133.554 99.447L123.673 166.147C123.596 166.667 123.622 167.196 123.75 167.706C123.878 168.215 124.105 168.695 124.418 169.117C124.731 169.539 125.124 169.895 125.574 170.165C126.025 170.434 126.524 170.613 127.044 170.69C127.564 170.767 128.093 170.741 128.603 170.613C129.112 170.485 129.592 170.258 130.014 169.945C130.436 169.632 130.792 169.239 131.062 168.789C131.331 168.338 131.51 167.839 131.587 167.319L138.6 120H149C150.061 120 151.078 119.579 151.828 118.828C152.579 118.078 153 117.061 153 116V114.5H163.875L179.52 135.36C180.157 136.209 181.104 136.77 182.154 136.92C183.205 137.07 184.271 136.797 185.12 136.16C185.969 135.523 186.53 134.576 186.68 133.526C186.83 132.475 186.557 131.409 185.92 130.56L173.875 114.5H180C181.061 114.5 182.078 114.079 182.828 113.328C183.579 112.578 184 111.561 184 110.5V103.744C191.055 102.872 197.614 99.6616 202.631 94.625C203.11 94.146 203.556 93.644 204 93.141V110.5C204 111.561 204.421 112.578 205.172 113.328C205.922 114.079 206.939 114.5 208 114.5H213.945L213.558 114.805C213.145 115.13 212.8 115.533 212.543 115.991C212.286 116.449 212.121 116.953 212.059 117.475C211.997 117.996 212.038 118.525 212.18 119.031C212.322 119.536 212.562 120.009 212.887 120.422C213.212 120.835 213.615 121.18 214.073 121.437C214.531 121.694 215.035 121.859 215.557 121.921C216.078 121.983 216.607 121.942 217.113 121.8C217.618 121.658 218.091 121.418 218.504 121.093L226.885 114.5H234.765C230.102 119.331 227.497 125.785 227.5 132.5V148C227.5 149.061 227.921 150.078 228.672 150.828C229.422 151.579 230.439 152 231.5 152C232.561 152 233.578 151.579 234.328 150.828C235.079 150.078 235.5 149.061 235.5 148V132.5C235.506 127.728 237.404 123.153 240.778 119.778C244.153 116.404 248.728 114.506 253.5 114.5C263.528 114.5 272 122.743 272 132.5V172.25C272 173.311 272.421 174.328 273.172 175.078C273.922 175.829 274.939 176.25 276 176.25C277.061 176.25 278.078 175.829 278.828 175.078C279.579 174.328 280 173.311 280 172.25V4C280 2.93913 279.579 1.92172 278.828 1.17157C278.078 0.421428 277.061 0 276 0H4C2.93913 0 1.92172 0.421428 1.17157 1.17157C0.421428 1.92172 0 2.93913 0 4V468C0 469.061 0.421428 470.078 1.17157 470.828C1.92172 471.579 2.93913 472 4 472H92C93.0609 472 94.0783 471.579 94.8284 470.828C95.5786 470.078 96 469.061 96 468C96 466.939 95.5786 465.922 94.8284 465.172C94.0783 464.421 93.0609 464 92 464H8V8H272V113.909C271.909 113.822 271.816 113.737 271.724 113.651C271.012 105.719 268.535 98.046 264.475 91.1943C260.415 84.3426 254.875 78.4853 248.259 74.051C239.888 68.4558 233.614 60.2365 230.425 50.686L227.525 41.976C225.016 34.4093 220.185 27.8262 213.719 23.1628C207.253 18.4994 199.482 15.993 191.51 16H183.37C173.993 16.0106 165.002 19.7405 158.371 26.3713C151.74 33.0022 148.011 41.9925 148 51.37V75.056L139.188 92.679L100.48 82.128C98.7918 80.7502 96.6791 79.9984 94.5 80H92.5V63.23C92.5011 62.2411 92.8944 61.2929 93.5937 60.5937C94.2929 59.8944 95.2411 59.5011 96.23 59.5C97.4947 59.5013 98.7072 60.0043 99.6014 60.8986C100.496 61.7928 100.999 63.0053 101 64.27V66.5C101 66.8978 100.842 67.2794 100.561 67.5607C100.279 67.842 99.8978 68 99.5 68C98.4391 68 97.4217 68.4214 96.6716 69.1716C95.9214 69.9217 95.5 70.9391 95.5 72C95.5 73.0609 95.9214 74.0783 96.6716 74.8284C97.4217 75.5786 98.4391 76 99.5 76C102.019 75.9971 104.433 74.9953 106.214 73.2143C107.995 71.4333 108.997 69.0187 109 66.5V64.27C108.999 60.8835 107.653 57.636 105.259 55.2414C102.864 52.8468 99.6165 51.5011 96.23 51.5C93.1201 51.5034 90.1385 52.7404 87.9394 54.9394C85.7404 57.1385 84.5034 60.1201 84.5 63.23V80H81.5C79.1203 80.0011 76.8285 80.8995 75.082 82.516L26.948 95.641C26.1014 95.8718 25.3541 96.3746 24.8214 97.0719C24.2887 97.7693 24 98.6225 24 99.5V116C24 117.061 24.4214 118.078 25.1716 118.828C25.9217 119.579 26.9391 120 28 120H38.42L45.966 171.062L16.027 427.536C15.9615 428.097 16.0154 428.665 16.1852 429.203C16.355 429.741 16.6368 430.238 17.012 430.659C17.3873 431.081 17.8475 431.418 18.3625 431.649C18.8775 431.881 19.4356 432 20 432H100C101.061 432 102.078 431.579 102.828 430.828C103.579 430.078 104 429.061 104 428C104 426.939 103.579 425.922 102.828 425.172C102.078 424.421 101.061 424 100 424ZM88.764 140.553L78.535 120H100.651L88.764 140.553ZM105.278 112H74.554L65.331 93.467L72 91.648V98.833C72.0026 101.263 72.9693 103.594 74.6879 105.312C76.4064 107.031 78.7366 107.997 81.167 108H94.833C97.2634 107.997 99.5936 107.031 101.312 105.312C103.031 103.594 103.997 101.263 104 98.833V91.379L115.406 94.488L105.278 112ZM145 112H139.784L141.331 101.555L145 102.555V112ZM196.974 88.969C194.749 91.2037 192.104 92.9756 189.19 94.1824C186.277 95.3892 183.153 96.0069 180 96C176.818 95.9966 173.768 94.7312 171.519 92.4815C169.269 90.2318 168.003 87.1815 168 84V59.5C168.004 55.3905 169.639 51.4507 172.545 48.5448C175.451 45.639 179.391 44.0045 183.5 44H184.4C185.328 48.5102 187.793 52.5586 191.373 55.4546C194.953 58.3505 199.427 59.9146 204.032 59.88L207.852 59.85H207.972C209.583 59.8556 211.126 60.501 212.262 61.6442C213.397 62.7874 214.032 64.3348 214.026 65.946C214.02 67.5572 213.375 69.1002 212.232 70.2355C211.089 71.3709 209.541 72.0056 207.93 72V72.026C206.932 71.9674 205.949 72.2856 205.175 72.9175C204.401 73.5494 203.892 74.4489 203.75 75.438C203.026 80.5662 200.647 85.3175 196.974 88.969ZM155.574 77.789C155.853 77.2337 155.998 76.6213 156 76V51.37C156.008 44.1117 158.895 37.1532 164.029 32.0217C169.162 26.8903 176.122 24.0053 183.38 24H191.51C197.802 23.9946 203.935 25.9726 209.038 29.6528C214.141 33.3331 217.954 38.5283 219.935 44.5L222.835 53.2C226.588 64.4408 233.971 74.1148 243.824 80.7C253.396 87.1114 260.173 96.921 262.784 108.142C259.812 107.048 256.669 106.49 253.502 106.492H212V79.388C215.225 78.4132 217.993 76.3137 219.801 73.471C221.609 70.6284 222.337 67.2313 221.853 63.8973C221.369 60.5634 219.704 57.5138 217.162 55.303C214.62 53.0923 211.369 51.867 208 51.85H207.789L203.968 51.88C202.4 51.8925 200.846 51.5945 199.394 51.003C197.942 50.4115 196.621 49.5383 195.509 48.4338C194.396 47.3293 193.513 46.0153 192.911 44.5678C192.309 43.1203 191.999 41.5678 192 40C192 38.9391 191.579 37.9217 190.828 37.1716C190.078 36.4214 189.061 36 188 36H183.5C177.27 36.0071 171.296 38.4853 166.891 42.8909C162.485 47.2964 160.007 53.2696 160 59.5V84C160.005 88.6089 161.6 93.075 164.514 96.6454C167.429 100.216 171.485 102.672 176 103.6V106.5H153V99.5C153 98.6225 152.711 97.7693 152.179 97.0719C151.646 96.3746 150.899 95.8718 150.052 95.641L147.06 94.825L155.574 77.789ZM94.5 88C94.6261 88.0017 94.7514 88.0195 94.873 88.053C95.159 88.4175 95.5066 88.7292 95.9 88.974C95.9649 89.1418 95.9988 89.3201 96 89.5V98.833C95.9997 99.1424 95.8767 99.4391 95.6579 99.6579C95.4391 99.8767 95.1424 99.9997 94.833 100H81.167C80.8576 99.9997 80.5609 99.8767 80.3421 99.6579C80.1233 99.4391 80.0003 99.1424 80 98.833V89.5C80 89.1022 80.158 88.7206 80.4393 88.4393C80.7206 88.158 81.1022 88 81.5 88H94.5ZM32 112V102.555L35.693 101.548L37.237 112H32Z" fill="black"/>
</svg>
