<svg width="347" height="606" viewBox="0 0 347 606" fill="none" xmlns="http://www.w3.org/2000/svg">
<path d="M196.856 142.563C199.281 141.912 201.349 140.325 202.604 138.15C203.859 135.975 204.199 133.391 203.549 130.965C202.899 128.54 201.311 126.472 199.136 125.217C196.961 123.961 194.377 123.622 191.951 124.272C183.592 126.478 178.035 120.097 177.391 119.283C175.848 117.302 173.581 116.015 171.089 115.705C168.597 115.395 166.085 116.088 164.103 117.631C162.122 119.174 160.835 121.44 160.526 123.932C160.216 126.424 160.908 128.937 162.451 130.918C166.522 136.21 175.923 143.699 188.401 143.699C191.09 143.699 193.911 143.348 196.856 142.563ZM206.56 192.332C192.624 193.904 181.85 184.115 181.566 183.85C179.754 182.111 177.326 181.163 174.816 181.214C172.305 181.266 169.918 182.313 168.179 184.124C166.44 185.936 165.492 188.364 165.544 190.874C165.595 193.385 166.642 195.772 168.454 197.511C169.088 198.117 183.137 211.437 203.407 211.437C205.139 211.437 206.9 211.343 208.718 211.134C211.211 210.847 213.488 209.582 215.048 207.617C216.608 205.651 217.325 203.147 217.04 200.654C216.91 199.415 216.534 198.214 215.934 197.122C215.334 196.029 214.523 195.068 213.547 194.293C212.571 193.518 211.45 192.946 210.251 192.609C209.051 192.272 207.796 192.178 206.56 192.332ZM219.52 150.231C223.601 155.523 233.002 163.012 245.48 163.012C248.159 163.012 250.98 162.662 253.934 161.876C256.359 161.226 258.427 159.638 259.682 157.464C260.938 155.289 261.278 152.704 260.627 150.279C259.977 147.853 258.39 145.785 256.215 144.53C254.04 143.275 251.455 142.935 249.03 143.585C240.661 145.801 235.122 139.42 234.45 138.596C232.883 136.688 230.633 135.468 228.179 135.196C225.725 134.923 223.262 135.62 221.315 137.138C219.368 138.655 218.09 140.873 217.755 143.319C217.42 145.765 218.053 148.246 219.52 150.231Z" fill="black"/>
<path d="M340.997 270.39L338.1 266.575C337.674 266.007 337.163 265.524 336.708 264.984L336.434 264.085C322.763 220.024 308.619 174.458 322.252 134.194C326.506 121.84 328.265 108.765 327.426 95.7258C326.588 82.687 323.168 69.9445 317.367 58.2376C306.11 35.4309 286.901 18.4655 263.327 10.4846L246.996 4.88938C197.094 -11.9435 142.326 16.0987 125.029 67.3262L65.082 237.207C58.6901 237.853 52.4386 239.495 46.5545 242.074C34.995 247.158 28.169 257.998 28.5004 269.51C26.1444 270.483 23.8574 271.615 21.6555 272.899L20.6804 273.524C12.8993 278.758 6.86993 286.21 3.37396 294.912C-0.122019 303.614 -0.923425 313.165 1.07363 322.328C4.39529 337.172 11.4761 350.913 21.6366 362.232L70.9896 417.058C77.3611 442.383 81.3279 485.004 81.4036 528.914L62.8477 593.869C62.4507 595.278 62.3849 596.76 62.6555 598.199C62.926 599.638 63.5257 600.995 64.4075 602.163C65.2893 603.332 66.4294 604.281 67.7388 604.936C69.0481 605.591 70.4912 605.935 71.9553 605.94H289.703C292.666 605.94 295.469 604.548 297.267 602.181C299.047 599.805 299.625 596.737 298.811 593.878L280.245 528.904C280.293 501.799 281.694 473.568 283.938 453.658C288.311 454.15 292.723 454.463 297.182 454.463C306.527 454.463 315.785 451.509 323.236 446.151C330.793 440.844 336.131 432.941 338.232 423.95C338.677 421.971 338.933 419.992 339.037 418.033H339.056L346.507 322.299C346.507 315.36 344.736 308.629 341.574 302.636C343.515 299.834 345.049 296.728 345.854 293.32C346.777 289.376 346.821 285.277 345.981 281.314C345.142 277.351 343.44 273.621 340.997 270.39ZM327.601 321.561L322.564 386.033C321.551 385.323 320.585 384.566 319.487 383.922L281.997 364.76L314.924 319.885L326.2 314.252C327.099 316.685 327.582 319.185 327.601 321.561ZM214.372 424.906C210.994 429.569 205.988 432.793 200.346 433.94C194.703 435.087 188.836 434.072 183.906 431.098L140.29 404.883L170.302 371.084C172.062 372.476 173.71 373.811 175.262 375.061L182.164 380.58C185.953 383.586 190.75 385.024 195.567 384.598C200.385 384.171 204.855 381.913 208.057 378.289L277.831 299.805C278.686 298.85 279.334 297.728 279.734 296.511L283.909 284.014C284.999 280.679 286.911 277.672 289.469 275.271C292.027 272.871 295.148 271.153 298.546 270.277L300.591 269.803C304.714 268.861 309.022 269.132 312.995 270.583C316.968 272.034 320.436 274.604 322.981 277.983L325.878 281.798C326.65 282.809 327.187 283.979 327.451 285.224C327.715 286.469 327.698 287.756 327.402 288.993C327.118 290.231 326.562 291.389 325.774 292.385C324.986 293.381 323.987 294.188 322.848 294.75L304.396 303.98C303.052 304.653 301.887 305.637 300.998 306.849L214.372 424.906ZM109.37 168.598C112.827 170.684 116.788 171.787 120.825 171.788C121.034 171.788 121.233 171.75 121.431 171.741C121.503 191.496 129.006 210.5 142.449 224.976C138.473 232.767 131.609 242.519 119.652 252.677C117.024 251.038 114.288 249.58 111.462 248.313L97.3845 242.074C93.3583 240.303 89.1524 238.973 84.8403 238.107L109.37 168.598ZM284.07 173.928C284.42 173.928 284.771 173.985 285.121 174.108C285.98 174.412 286.688 175.038 287.092 175.855C287.497 176.672 287.568 177.614 287.289 178.482L279.015 202.936C278.87 203.362 278.642 203.756 278.343 204.093C278.043 204.429 277.679 204.702 277.273 204.895C276.871 205.103 276.431 205.227 275.98 205.261C275.529 205.295 275.076 205.238 274.647 205.093C274.219 204.948 273.824 204.719 273.486 204.418C273.148 204.117 272.874 203.752 272.681 203.343C272.271 202.533 272.2 201.593 272.482 200.73L273.836 196.725L273.864 196.649L280.757 176.276C281.001 175.592 281.45 175 282.043 174.58C282.636 174.16 283.344 173.932 284.07 173.928ZM262.844 170.16L262.825 170.207L255.886 190.713C250.792 205.586 240.017 217.837 225.917 224.787C211.817 231.738 195.538 232.824 180.64 227.806C165.738 222.744 153.451 211.979 146.473 197.872C139.495 183.766 138.395 167.467 143.414 152.551L150.326 132.139L150.335 132.111L160.948 100.736C170.491 98.7482 189.681 93.5885 204.583 82.2845C213.018 100.774 232.549 131.789 271.914 143.339L262.844 170.16ZM153.213 243.768C154.66 241.669 156.022 239.512 157.293 237.302C162.595 240.72 168.342 243.626 174.581 245.737C181.214 247.969 188.118 249.296 195.106 249.685C194.745 250.94 194.413 252.202 194.112 253.472L153.213 243.768ZM132.395 126.052L126.421 143.718L124.12 150.506C123.823 151.37 123.197 152.082 122.378 152.487C121.559 152.893 120.614 152.96 119.746 152.674C118.888 152.372 118.181 151.747 117.778 150.931C117.375 150.116 117.306 149.175 117.588 148.309L125.862 123.855C126.008 123.427 126.238 123.032 126.539 122.694C126.84 122.356 127.205 122.081 127.614 121.886C128.016 121.684 128.456 121.564 128.905 121.533C129.355 121.501 129.806 121.56 130.233 121.704C130.661 121.848 131.055 122.076 131.393 122.374C131.732 122.672 132.008 123.034 132.205 123.439C132.442 123.931 132.773 124.906 132.395 126.052ZM139.675 260.014L194.85 273.107C196.451 276.326 198.81 279.107 201.724 281.211C204.639 283.316 208.02 284.68 211.579 285.188L246.305 290.148C248.791 290.504 251.316 289.857 253.325 288.351C255.334 286.844 256.662 284.601 257.017 282.115C257.373 279.63 256.726 277.105 255.219 275.096C253.713 273.087 251.47 271.759 248.984 271.403L214.249 266.442C212.611 266.215 211.333 264.729 211.532 263.214C212.024 259.077 213.416 253.794 215.47 248.038C233.85 244.267 250.275 234.045 261.775 219.22C263.791 220.848 266.063 222.173 268.591 223.035C271.373 223.982 274.315 224.368 277.246 224.17C280.178 223.971 283.041 223.193 285.67 221.88C291.038 219.229 295.043 214.656 296.955 209.014L300.174 199.499C302.872 216.692 307.511 233.941 312.633 251.049C307.248 250.06 301.72 250.166 296.378 251.361L294.105 251.901C287.593 253.537 281.599 256.792 276.68 261.363C271.761 265.934 268.077 271.674 265.969 278.049L262.409 288.709L222.968 333.064L148.385 286.75C146.917 285.841 145.768 284.498 145.1 282.906C142.591 276.352 138.937 270.296 134.307 265.022C136.172 263.337 138.009 261.661 139.675 260.014ZM240.909 22.811L257.23 28.4061C276.042 34.7776 291.369 48.3348 300.401 66.6162C305.091 76.0978 307.853 86.4162 308.526 96.973C309.199 107.53 307.769 118.115 304.321 128.116C300.878 138.456 298.793 149.2 298.12 160.077C296.068 158.372 293.727 157.048 291.208 156.167C290.107 155.822 288.98 155.563 287.838 155.391L293.187 139.571C293.626 138.286 293.782 136.922 293.646 135.571C293.51 134.219 293.084 132.914 292.398 131.742C291.711 130.57 290.78 129.561 289.668 128.781C288.556 128.002 287.29 127.471 285.954 127.226C238.996 118.478 221.974 76.5757 218.282 65.5653L225.581 44.0082C226.275 41.6592 226.032 39.1327 224.904 36.9587C223.775 34.7846 221.849 33.1319 219.529 32.347C217.209 31.5622 214.675 31.7062 212.458 32.7489C210.242 33.7915 208.515 35.6518 207.641 37.9397L199.896 60.8411C185.544 78.1757 152.806 82.9851 152.465 83.0324C150.727 83.2774 149.09 84 147.738 85.1199C146.386 86.2398 145.371 87.713 144.806 89.3755L139.457 105.186C138.446 104.629 137.392 104.154 136.305 103.766C135.082 103.37 133.828 103.078 132.555 102.895L142.932 73.4989C156.934 32.0416 200.928 9.30114 240.909 22.811ZM54.2136 259.389C59.8195 256.972 65.86 255.726 71.9647 255.726C78.0695 255.726 84.11 256.972 89.7159 259.389L103.822 265.638C115.06 270.58 123.42 279.081 127.415 289.666C129.559 295.098 133.388 299.7 138.34 302.797L210.178 347.407L193.894 365.726L187.106 360.301C183.594 357.489 179.542 354.233 175.083 350.701L171.39 347.738C144.958 326.427 108.755 297.249 84.8592 277.51C74.5195 269.101 61.4716 264.747 48.1545 265.259C49.2338 262.826 51.2503 260.686 54.2136 259.389ZM19.5727 318.219C18.389 312.749 18.8814 307.049 20.9856 301.862C23.0899 296.676 26.7084 292.244 31.369 289.145C37.0174 285.777 43.4718 284.001 50.048 284.004C58.2088 284.004 66.3128 286.74 72.8452 292.099C95.6046 310.91 129.479 338.242 155.504 359.222L100.319 421.337L35.7145 349.565C27.7317 340.676 22.1726 329.88 19.5727 318.219ZM261.358 520.734H169.364C166.853 520.734 164.445 521.731 162.67 523.507C160.894 525.282 159.897 527.69 159.897 530.201C159.897 532.712 160.894 535.12 162.67 536.896C164.445 538.671 166.853 539.669 169.364 539.669H263.621L277.14 587.005H84.5089L98.0282 539.669H130.842C133.353 539.669 135.761 538.671 137.536 536.896C139.312 535.12 140.309 532.712 140.309 530.201C140.309 527.69 139.312 525.282 137.536 523.507C135.761 521.731 133.353 520.734 130.842 520.734H100.291C99.9122 491.101 97.7821 462.444 94.4022 439.211C96.3052 439.836 98.2744 440.262 100.31 440.262H100.357C103.021 440.256 105.653 439.687 108.082 438.594C110.511 437.501 112.683 435.908 114.454 433.919L127.472 419.282L174.155 447.343C180.684 451.271 188.158 453.35 195.778 453.355C202.38 453.349 208.887 451.784 214.77 448.789C220.653 445.793 225.745 441.451 229.633 436.115L230.637 434.743L237.983 437.81C246.475 443.093 255.668 447.145 265.296 449.947C263.109 468.702 261.652 494.869 261.358 520.734ZM319.762 419.813C318.668 424.265 315.98 428.162 312.207 430.766C307.814 433.873 302.563 435.538 297.182 435.528C279.516 435.528 261.85 430.501 247.432 421.375C246.981 421.088 246.505 420.841 246.012 420.636L242.177 419.036L270.645 380.239L310.389 400.528C317.726 404.835 321.409 412.419 319.762 419.813Z" fill="black"/>
</svg>
