<svg width="512" height="512" viewBox="0 0 512 512" fill="none" xmlns="http://www.w3.org/2000/svg">
<path d="M494.933 0H435.2C419.364 0.0203214 404.182 6.32016 392.985 17.5179C381.787 28.7157 375.487 43.8973 375.467 59.7333V196.267C375.588 219.715 366.876 242.348 351.063 259.662C335.249 276.976 313.496 287.699 290.133 289.698V76.8C290.133 70.0105 292.83 63.499 297.631 58.6981C302.432 53.8971 308.944 51.2 315.733 51.2H332.8C337.326 51.2 341.667 49.4019 344.868 46.2013C348.069 43.0007 349.867 38.6597 349.867 34.1333V17.0667C349.867 12.5403 348.069 8.19933 344.868 4.99871C341.667 1.79809 337.326 0 332.8 0L179.2 0C174.674 0 170.333 1.79809 167.132 4.99871C163.931 8.19933 162.133 12.5403 162.133 17.0667V34.1333C162.133 38.6597 163.931 43.0007 167.132 46.2013C170.333 49.4019 174.674 51.2 179.2 51.2H196.267C203.056 51.2 209.568 53.8971 214.369 58.6981C219.17 63.499 221.867 70.0105 221.867 76.8L221.764 289.741C198.418 287.704 176.691 276.959 160.901 259.642C145.111 242.325 136.413 219.702 136.533 196.267V59.7333C136.513 43.8973 130.213 28.7157 119.015 17.5179C107.818 6.32016 92.636 0.0203214 76.8 0H17.0667C12.5403 0 8.19933 1.79809 4.99871 4.99871C1.79809 8.19933 0 12.5403 0 17.0667L0 34.1333C0 38.6597 1.79809 43.0007 4.99871 46.2013C8.19933 49.4019 12.5403 51.2 17.0667 51.2H42.6667C49.4562 51.2 55.9677 53.8971 60.7686 58.6981C65.5695 63.499 68.2667 70.0105 68.2667 76.8V196.267C68.2411 282.505 135.748 353.655 221.867 358.161V435.2C221.867 441.99 219.17 448.501 214.369 453.302C209.568 458.103 203.056 460.8 196.267 460.8H179.2C174.674 460.8 170.333 462.598 167.132 465.799C163.931 468.999 162.133 473.34 162.133 477.867V494.933C162.133 499.46 163.931 503.801 167.132 507.001C170.333 510.202 174.674 512 179.2 512H332.8C337.326 512 341.667 510.202 344.868 507.001C348.069 503.801 349.867 499.46 349.867 494.933V477.867C349.867 473.34 348.069 468.999 344.868 465.799C341.667 462.598 337.326 460.8 332.8 460.8H315.733C308.944 460.8 302.432 458.103 297.631 453.302C292.83 448.501 290.133 441.99 290.133 435.2L290.338 358.178C376.38 353.57 443.767 282.436 443.733 196.267V76.8C443.733 70.0105 446.431 63.499 451.231 58.6981C456.032 53.8971 462.544 51.2 469.333 51.2H494.933C499.46 51.2 503.801 49.4019 507.001 46.2013C510.202 43.0007 512 38.6597 512 34.1333V17.0667C512 12.5403 510.202 8.19933 507.001 4.99871C503.801 1.79809 499.46 0 494.933 0ZM494.933 34.1333H469.333C458.022 34.1469 447.177 38.6465 439.178 46.6451C431.18 54.6437 426.68 65.4883 426.667 76.8V196.267C426.709 273.357 366.421 336.998 289.442 341.129C285.044 341.328 280.891 343.211 277.842 346.388C274.794 349.565 273.084 353.792 273.067 358.195V435.2C273.08 446.512 277.58 457.356 285.578 465.355C293.577 473.354 304.422 477.853 315.733 477.867H332.8V494.933H179.2V477.867H196.267C207.578 477.853 218.423 473.354 226.422 465.355C234.42 457.356 238.92 446.512 238.933 435.2V358.161C238.916 353.758 237.206 349.531 234.158 346.354C231.11 343.177 226.956 341.294 222.558 341.094C145.587 336.964 85.3077 273.34 85.3333 196.267V76.8C85.3198 65.4883 80.8202 54.6437 72.8216 46.6451C64.823 38.6465 53.9784 34.1469 42.6667 34.1333H17.0667V17.0667H76.8C88.1117 17.0802 98.9563 21.5798 106.955 29.5784C114.954 37.577 119.453 48.4216 119.467 59.7333V196.267C119.328 223.966 129.613 250.704 148.278 271.171C166.944 291.637 192.625 304.334 220.22 306.739C225.024 307.149 229.777 305.545 233.361 302.319C236.902 299.076 238.925 294.502 238.933 289.698V76.8C238.92 65.4883 234.42 54.6437 226.422 46.6451C218.423 38.6465 207.578 34.1469 196.267 34.1333H179.2V17.0667H332.8V34.1333H315.733C304.422 34.1469 293.577 38.6465 285.578 46.6451C277.58 54.6437 273.08 65.4883 273.067 76.8V289.698C273.067 294.502 275.098 299.085 278.639 302.319C282.223 305.545 286.976 307.14 291.78 306.739C319.375 304.334 345.056 291.637 363.722 271.171C382.387 250.704 392.672 223.966 392.533 196.267V59.7333C392.547 48.4216 397.046 37.577 405.045 29.5784C413.044 21.5798 423.888 17.0802 435.2 17.0667H494.933V34.1333Z" fill="black"/>
</svg>
