<svg width="621" height="442" viewBox="0 0 621 442" fill="none" xmlns="http://www.w3.org/2000/svg">
<path d="M379.479 292.171H169.469L45.7622 177.763C44.6245 176.706 43.2866 175.889 41.8276 175.359C40.3686 174.828 38.8181 174.596 37.2678 174.675C35.7175 174.754 34.1987 175.144 32.8014 175.82C31.404 176.496 30.1564 177.445 29.1322 178.612L2.90134 208.381C0.892793 210.663 -0.142871 213.641 0.015893 216.677C0.174657 219.713 1.51524 222.566 3.75088 224.627L140.096 350.323C142.249 352.302 145.065 353.407 147.986 353.407H151.221V430.028C151.221 433.115 152.447 436.075 154.63 438.257C156.812 440.44 159.772 441.666 162.859 441.666C165.945 441.666 168.905 440.44 171.088 438.257C173.27 436.075 174.496 433.115 174.496 430.028V353.407H352.969V430.028C352.969 433.115 354.195 436.075 356.377 438.257C358.56 440.44 361.52 441.666 364.606 441.666C367.692 441.666 370.652 440.44 372.835 438.257C375.017 436.075 376.243 433.115 376.243 430.028V353.407H379.479C382.565 353.407 385.525 352.181 387.708 349.999C389.89 347.816 391.116 344.856 391.116 341.77V303.808C391.116 300.722 389.89 297.762 387.708 295.579C385.525 293.397 382.565 292.171 379.479 292.171ZM27.887 215.235L38.7099 202.946L156.993 312.35C159.147 314.342 161.973 315.448 164.907 315.446H367.841V330.132H152.536L27.887 215.235ZM608.691 177.693C598.973 177.693 589.419 180.649 581.401 185.967C576.49 166.358 558.847 151.729 537.725 151.729C528.049 151.69 518.619 154.778 510.839 160.532C503.059 166.286 497.346 174.399 494.55 183.663L481.947 224.836H437.084C420.21 224.836 406.478 238.568 406.478 255.443C406.478 272.305 420.21 286.038 437.084 286.038H444.521C442.193 290.378 440.599 295.173 439.877 300.27L426.517 399.224C425.51 407.2 427.638 415.257 432.453 421.695C437.269 428.133 444.396 432.451 452.332 433.738C460.268 435.025 468.394 433.181 474.997 428.594C481.601 424.008 486.166 417.037 487.731 409.151L497.762 356.177C502.999 360.832 509.83 363.753 517.383 363.753H526.495V417.634C526.495 420.721 527.721 423.681 529.904 425.863C532.086 428.046 535.046 429.272 538.133 429.272H571.253C574.339 429.272 577.299 428.046 579.482 425.863C581.664 423.681 582.89 420.721 582.89 417.634V359.761C604.722 351.371 620.328 330.318 620.328 305.565V189.33C620.328 186.244 619.102 183.284 616.92 181.101C614.737 178.919 611.777 177.693 608.691 177.693ZM478.281 333.949L464.875 404.822C464.601 406.248 463.933 407.57 462.946 408.636C461.959 409.701 460.693 410.469 459.292 410.851C457.89 411.233 456.409 411.214 455.018 410.796C453.627 410.378 452.381 409.578 451.422 408.487C450.694 407.656 450.153 406.679 449.836 405.621C449.519 404.563 449.433 403.449 449.583 402.354L462.943 303.459C463.63 298.697 466.006 294.341 469.638 291.185C473.27 288.03 477.915 286.285 482.726 286.27H531.918C534.868 286.288 537.715 285.185 539.883 283.184C542.05 281.183 543.377 278.433 543.595 275.49C543.812 272.548 542.904 269.633 541.054 267.335C539.203 265.037 536.55 263.528 533.629 263.112C535.328 259.981 536.655 256.595 537.562 253.022L545.429 221.88C545.804 220.398 545.882 218.856 545.661 217.343C545.44 215.83 544.922 214.376 544.139 213.063C543.356 211.75 542.321 210.604 541.095 209.691C539.869 208.778 538.474 208.115 536.992 207.741C535.51 207.366 533.968 207.288 532.455 207.509C530.942 207.73 529.488 208.247 528.175 209.031C526.862 209.814 525.716 210.849 524.803 212.075C523.89 213.301 523.227 214.695 522.853 216.178L514.997 247.32C513.888 251.737 511.334 255.657 507.741 258.455C504.147 261.254 499.721 262.77 495.167 262.763H437.096C435.151 262.763 433.287 261.99 431.912 260.615C430.537 259.24 429.764 257.376 429.764 255.431C429.764 253.487 430.537 251.622 431.912 250.247C433.287 248.872 435.151 248.099 437.096 248.099H490.547C493.036 248.1 495.46 247.302 497.462 245.823C499.465 244.345 500.94 242.263 501.672 239.883L516.801 190.471C518.155 185.981 520.924 182.048 524.694 179.259C528.465 176.47 533.035 174.974 537.725 174.993C549.793 174.993 559.604 184.815 559.604 196.871V282.104C559.594 288.046 557.23 293.742 553.029 297.943C548.827 302.144 543.132 304.509 537.19 304.518H513.787C505.37 304.528 497.221 307.472 490.742 312.844C484.263 318.217 479.849 325.68 478.281 333.949ZM549.77 405.985V363.753H559.615V405.997L549.77 405.985ZM597.053 305.565C597.038 314.78 593.384 323.615 586.887 330.149C580.39 336.683 571.576 340.387 562.362 340.455H538.133L538.016 340.478H517.383C513.915 340.478 510.982 337.545 510.982 334.077C510.982 330.609 513.857 327.793 517.383 327.793H537.26C549.315 327.756 560.868 322.962 569.407 314.451C577.946 305.941 582.779 294.404 582.855 282.349C582.855 282.267 582.914 282.197 582.914 282.116V226.768C582.914 219.948 585.648 213.292 590.443 208.497C592.377 206.564 594.609 204.953 597.053 203.726V305.565Z" fill="black"/>
<path d="M383.154 225.197L323.221 186.875C317.004 182.916 309.861 180.649 302.499 180.298C295.137 179.947 287.811 181.524 281.245 184.873L279.406 185.804C276.813 183.119 273.702 180.987 270.262 179.537C266.821 178.087 263.123 177.349 259.39 177.367H214.935L186.877 154.767C178.734 148.16 168.332 144.996 157.89 145.95C147.447 146.905 137.791 151.902 130.982 159.876L123.627 168.406C120.093 172.482 117.419 177.231 115.767 182.367C114.115 187.502 113.519 192.919 114.014 198.291C114.47 203.665 116.007 208.892 118.532 213.658C121.058 218.423 124.521 222.629 128.712 226.023L180.825 268.5C196.047 281.208 216.529 285.526 236.336 279.789L310.374 252.894L347.8 277.24C353.071 280.661 359.007 282.291 364.907 282.291C374.531 282.291 384.039 277.892 390.16 269.676C400.506 255.827 397.69 236.113 383.154 225.197ZM371.517 255.757C370.268 257.42 368.435 258.548 366.388 258.913C364.341 259.278 362.231 258.853 360.485 257.724L318.194 230.224C316.687 229.236 314.97 228.614 313.179 228.408C311.389 228.202 309.575 228.418 307.883 229.037L229.144 257.677C223.4 259.316 217.341 259.523 211.499 258.28C205.656 257.036 200.207 254.38 195.628 250.544L143.411 207.985C139.803 205.053 137.592 200.886 137.196 196.231C136.789 191.611 138.244 187.119 141.269 183.593L148.624 175.051C151.507 171.681 155.593 169.57 160.01 169.167C164.427 168.765 168.827 170.104 172.272 172.898L203.53 198.07C205.601 199.734 208.185 200.654 210.827 200.654L259.39 200.642C261.799 200.642 263.812 202.597 263.87 205.006C263.89 206.169 263.459 207.295 262.667 208.148C261.875 209.001 260.784 209.514 259.622 209.58L205.043 212.303L167.814 182.15C165.415 180.207 162.341 179.297 159.271 179.62C156.2 179.943 153.383 181.473 151.44 183.872C149.498 186.272 148.587 189.345 148.91 192.416C149.233 195.487 150.763 198.303 153.163 200.246L193.836 233.18C196.065 234.988 198.883 235.908 201.749 235.764L260.786 232.831C267.398 232.536 273.682 229.873 278.494 225.329C283.305 220.785 286.322 214.662 286.994 208.078L291.858 205.576C294.802 204.079 298.085 203.377 301.384 203.538C304.682 203.699 307.881 204.719 310.664 206.496L369.888 244.294C371.615 245.605 372.755 247.544 373.06 249.691C373.365 251.837 372.81 254.017 371.517 255.757ZM81.1151 176.902C107.183 176.902 128.398 155.686 128.398 129.618C128.398 103.55 107.206 82.347 81.1151 82.347C55.0239 82.347 33.832 103.55 33.832 129.618C33.832 155.686 55.0472 176.902 81.1151 176.902ZM81.1151 105.622C94.3586 105.622 105.123 116.375 105.123 129.618C105.123 142.862 94.3586 153.627 81.1151 153.627C67.8717 153.627 57.107 142.862 57.107 129.618C57.107 116.375 67.8833 105.622 81.1151 105.622ZM538.131 141.256C562.802 141.256 582.889 121.181 582.889 96.4982C582.889 71.8151 562.802 51.752 538.131 51.752C513.459 51.752 493.373 71.8267 493.373 96.4982C493.373 121.17 513.459 141.256 538.131 141.256ZM538.131 75.027C549.966 75.027 559.614 84.6628 559.614 96.4982C559.614 108.333 549.966 117.981 538.131 117.981C526.295 117.981 516.648 108.345 516.648 96.4982C516.648 84.6512 526.284 75.027 538.131 75.027ZM365.442 144.84C367.624 147.022 370.584 148.248 373.67 148.248C376.756 148.248 379.715 147.022 381.898 144.84L438.514 88.2123C448.189 78.5147 453.623 65.3752 453.623 51.6764C453.623 37.9776 448.189 24.8381 438.514 15.1405C433.726 10.3283 428.03 6.5134 421.758 3.91658C415.486 1.31976 408.761 -0.00744521 401.972 0.011775C391.778 0.011775 382.014 2.94443 373.67 8.42568C365.26 2.906 355.415 -0.0236252 345.356 0.000143897C338.566 -0.017552 331.841 1.31147 325.569 3.91031C319.296 6.50915 313.602 10.3262 308.814 15.1405C299.135 24.8386 293.699 37.9805 293.699 51.6822C293.699 65.3839 299.135 78.5258 308.814 88.2239L365.442 144.84ZM325.27 31.6075C327.901 28.9598 331.03 26.8601 334.478 25.4298C337.926 23.9996 341.623 23.2672 345.356 23.2751C352.943 23.2751 360.077 26.231 365.442 31.5959C367.624 33.7776 370.584 35.0032 373.67 35.0032C376.756 35.0032 379.715 33.7776 381.898 31.5959C392.627 20.8662 411.34 20.8662 422.058 31.5959C433.126 42.6632 433.126 60.6896 422.058 71.7569L373.67 120.169L325.258 71.7569C319.947 66.426 316.964 59.2074 316.964 51.6822C316.964 44.157 319.958 36.9384 325.27 31.6075Z" fill="black"/>
<path d="M357.454 79.4844H362.039V84.0579C362.039 87.1443 363.265 90.1044 365.448 92.2868C367.63 94.4693 370.59 95.6954 373.677 95.6954C376.763 95.6954 379.723 94.4693 381.906 92.2868C384.088 90.1044 385.314 87.1443 385.314 84.0579V79.4844H389.899C392.986 79.4844 395.946 78.2583 398.128 76.0758C400.311 73.8934 401.537 70.9333 401.537 67.8469C401.537 64.7604 400.311 61.8004 398.128 59.6179C395.946 57.4355 392.986 56.2094 389.899 56.2094H385.314V51.6242C385.314 48.5378 384.088 45.5777 381.906 43.3953C379.723 41.2128 376.763 39.9867 373.677 39.9867C370.59 39.9867 367.63 41.2128 365.448 43.3953C363.265 45.5777 362.039 48.5378 362.039 51.6242V56.2094H357.454C354.367 56.2094 351.407 57.4355 349.225 59.6179C347.042 61.8004 345.816 64.7604 345.816 67.8469C345.816 70.9333 347.042 73.8934 349.225 76.0758C351.407 78.2583 354.367 79.4844 357.454 79.4844Z" fill="black"/>
</svg>
