<svg width="303" height="513" viewBox="0 0 303 513" fill="none" xmlns="http://www.w3.org/2000/svg">
<path d="M58.9137 74.269V8M244.486 74.269V8M98.1416 288.283C98.1416 288.283 74.1256 413.104 36.7546 481.469M104.592 489.325C110.993 471.203 120.544 442.068 125.5 416.737M200.335 490.453C192.514 462.292 177.026 403.535 171.047 359.502M192.811 221.456C195.597 240.964 201.466 278.392 208.827 304.683M268.175 381.576C252.464 318.568 246.461 254.455 244.173 216.158" stroke="black" stroke-width="15" stroke-miterlimit="10" stroke-linecap="round" stroke-linejoin="round"/>
<path d="M49.7796 307.304C42.4406 356.368 30.1436 411.967 9.54557 459.08C3.67057 472.518 15.4386 486.957 29.7666 483.828L36.3556 482.389C39.6605 481.667 43.1022 481.895 46.283 483.047C49.4638 484.199 52.2538 486.227 54.3306 488.897L59.7346 495.845C62.2386 499.065 65.7657 501.334 69.7335 502.278C73.7013 503.223 77.8725 502.786 81.5586 501.04L103.672 490.565C106.155 489.389 108.876 488.799 111.624 488.842C114.371 488.885 117.073 489.558 119.519 490.811L143.366 503.028C145.884 504.318 148.673 504.994 151.503 505C154.333 505.005 157.125 504.341 159.649 503.061L183.904 490.758C186.344 489.52 189.035 488.858 191.77 488.821C194.506 488.784 197.214 489.374 199.687 490.545L221.841 501.039C225.527 502.785 229.698 503.222 233.666 502.277C237.633 501.333 241.161 499.064 243.665 495.844L249.069 488.896C251.145 486.226 253.935 484.197 257.116 483.046C260.297 481.894 263.739 481.666 267.044 482.388L273.633 483.827C287.961 486.957 299.73 472.517 293.854 459.079C287.437 444.402 281.826 428.901 276.919 413.031M59.2076 216.468C58.2606 232.228 56.6876 252.317 54.0726 274.878" stroke="black" stroke-width="15" stroke-miterlimit="10" stroke-linecap="round" stroke-linejoin="round"/>
<path d="M188.358 120.12L157.558 144.663C155.78 146.08 153.573 146.851 151.299 146.851C149.025 146.851 146.818 146.08 145.039 144.663L56.9095 74.437C53.3615 71.609 48.3774 71.54 44.6984 74.194C23.7344 89.316 10.2665 114.181 10.9355 142.156C11.9635 185.104 46.8384 220.171 89.7804 221.42C108.296 221.959 125.466 216.302 139.376 206.371C142.97 203.797 147.279 202.413 151.699 202.413C156.119 202.413 160.428 203.797 164.021 206.371C177.931 216.301 195.1 221.959 213.616 221.42C256.636 220.169 291.541 184.983 292.467 141.955C293.072 113.853 279.414 88.906 258.232 73.853C254.552 71.238 249.601 71.318 246.071 74.131L213.974 99.707" stroke="black" stroke-width="15" stroke-miterlimit="10" stroke-linecap="round" stroke-linejoin="round"/>
</svg>
