<svg width="434" height="374" viewBox="0 0 434 374" fill="none" xmlns="http://www.w3.org/2000/svg">
<path d="M217 170.055C153.447 170.055 103.657 199.074 103.657 236.124C103.657 273.173 153.447 302.188 217 302.188C280.553 302.188 330.344 273.169 330.344 236.133C330.344 199.098 280.553 170.055 217 170.055ZM217 285.942C164.369 285.942 119.902 263.129 119.902 236.124C119.902 209.119 164.369 186.301 217 186.301C269.632 186.301 314.098 209.114 314.098 236.133C314.098 263.152 269.632 285.942 217 285.942ZM282.958 -3.05176e-05C278.79 -3.05176e-05 274.716 1.23587 271.25 3.5514C267.785 5.86692 265.084 9.15807 263.489 13.0086C261.894 16.8592 261.477 21.0963 262.29 25.184C263.103 29.2718 265.11 33.0266 268.057 35.9737C271.004 38.9208 274.759 40.9278 278.847 41.7409C282.934 42.5541 287.171 42.1367 291.022 40.5418C294.873 38.9468 298.164 36.2459 300.479 32.7804C302.795 29.315 304.031 25.2407 304.031 21.0729C304.023 15.4863 301.801 10.1306 297.85 6.18023C293.9 2.22988 288.544 0.0073381 282.958 -3.05176e-05ZM282.958 25.9002C282.003 25.9002 281.07 25.6171 280.276 25.0867C279.482 24.5562 278.863 23.8023 278.498 22.9202C278.133 22.0382 278.037 21.0676 278.223 20.1312C278.409 19.1948 278.869 18.3346 279.544 17.6595C280.219 16.9844 281.08 16.5247 282.016 16.3384C282.952 16.1521 283.923 16.2477 284.805 16.6131C285.687 16.9785 286.441 17.5972 286.971 18.391C287.502 19.1849 287.785 20.1182 287.785 21.0729C287.784 22.3528 287.275 23.5799 286.37 24.485C285.465 25.39 284.238 25.899 282.958 25.9002ZM356.249 33.3546C350.885 33.3537 345.641 34.9436 341.18 37.9231C336.719 40.9026 333.242 45.138 331.189 50.0936C329.136 55.0493 328.598 60.5026 329.644 65.7638C330.69 71.0251 333.272 75.858 337.065 79.6514C340.858 83.4448 345.69 86.0283 350.951 87.0751C356.213 88.122 361.666 87.5852 366.622 85.5326C371.578 83.48 375.814 80.0038 378.794 75.5437C381.774 71.0836 383.365 65.8398 383.365 60.4756C383.358 53.2858 380.499 46.3924 375.415 41.308C370.332 36.2235 363.439 33.3632 356.249 33.3546ZM356.249 71.3556C354.098 71.3565 351.994 70.7193 350.205 69.5247C348.416 68.33 347.021 66.6316 346.198 64.6442C345.374 62.6568 345.158 60.4698 345.578 58.3597C345.997 56.2497 347.033 54.3115 348.554 52.7903C350.075 51.269 352.014 50.2332 354.124 49.8137C356.234 49.3942 358.421 49.61 360.408 50.4337C362.396 51.2574 364.094 52.652 365.289 54.4412C366.483 56.2303 367.12 58.3336 367.12 60.4849C367.116 63.3668 365.969 66.1297 363.932 68.1676C361.894 70.2054 359.131 71.3519 356.249 71.3556Z" fill="black"/>
<path d="M329.931 99.1124H312.228C303.181 76.4196 286.49 71.402 273.582 71.402C266.358 71.3807 259.215 72.923 252.643 75.9229C252.277 76.1086 251.673 75.793 251.251 75.2592L251.107 75.0224C246.386 68.5381 240.242 63.2227 233.145 59.485C226.049 55.7473 218.19 53.6869 210.172 53.4621C204.329 33.4567 182.824 19.1141 156.975 19.1141C134.63 19.1141 114.588 30.4258 106.275 47.1727C89.3287 49.549 73.9938 58.4849 63.5716 72.0564C59.7813 77.2286 57.1411 83.1516 55.8282 89.428C54.5153 95.7044 54.56 102.189 55.9594 108.447L56.1636 110.846C39.2503 119.635 25.071 132.893 15.1685 149.179C5.26603 165.465 0.0195833 184.154 0 203.215V269.042C0.03194 296.632 11.0062 323.083 30.5152 342.592C50.0243 362.101 76.4751 373.075 104.065 373.107H329.931C357.521 373.075 383.972 362.101 403.481 342.592C422.99 323.083 433.964 296.632 433.996 269.042V203.224C433.97 175.628 422.999 149.169 403.49 129.651C383.981 110.133 357.527 99.1505 329.931 99.1124ZM76.8234 81.5207C81.1694 76.0511 86.6135 71.5531 92.8046 68.3169C98.9957 65.0806 105.796 63.1779 112.768 62.7314C114.321 62.5801 115.798 61.9843 117.021 61.0153C118.244 60.0464 119.163 58.7455 119.666 57.2683C124.066 44.3831 139.416 35.383 157.003 35.383C177.124 35.383 194.001 47.1959 195.426 62.2766C195.615 64.2868 196.546 66.1544 198.038 67.5154C199.529 68.8764 201.474 69.6332 203.493 69.6382H204.013C218.021 69.0765 231.361 74.665 237.321 83.6234L237.526 83.9529C239.743 87.5567 243.199 90.2272 247.246 91.463C251.293 92.6988 255.651 92.415 259.504 90.6647C263.926 88.6576 268.73 87.6315 273.586 87.6569C277.76 87.4062 281.92 88.3518 285.575 90.3826C289.231 92.4134 292.231 95.4451 294.223 99.1217H104.07C93.0807 99.0941 82.1583 100.827 71.7177 104.255C70.9386 100.319 70.9904 96.2638 71.8696 92.3488C72.7489 88.4339 74.4362 84.7457 76.8234 81.5207ZM417.769 269.042C417.743 292.325 408.482 314.648 392.019 331.111C375.555 347.575 353.233 356.836 329.949 356.862H104.07C80.7865 356.836 58.4643 347.575 42.0005 331.111C25.5368 314.648 16.2761 292.325 16.2503 269.042V203.224C16.2657 186.291 21.1671 169.723 30.3662 155.508C39.5653 141.292 52.6712 130.033 68.1111 123.082C79.4047 117.958 91.6683 115.324 104.07 115.358H329.931C353.22 115.39 375.546 124.659 392.01 141.132C408.473 157.604 417.731 179.935 417.75 203.224L417.769 269.042Z" fill="black"/>
</svg>
