<svg width="433" height="462" viewBox="0 0 433 462" fill="none" xmlns="http://www.w3.org/2000/svg">
<path d="M20.052 456.058C20.2683 457.733 21.0987 459.269 22.3822 460.367C23.6658 461.465 25.3113 462.048 27 462.003H117C118.079 462.051 119.154 461.838 120.133 461.382C121.112 460.926 121.967 460.241 122.625 459.384C123.282 458.527 123.723 457.524 123.911 456.46C124.098 455.396 124.026 454.303 123.7 453.273L112.186 415.559L148.057 392.903C152.665 390.373 158.061 389.685 163.157 390.977C163.301 391.014 163.447 391.052 163.594 391.077L238.503 404.877C259.158 408.573 280.453 405.567 299.278 396.298C299.575 396.152 299.861 395.985 300.134 395.798L429.691 306.843C431.162 305.833 432.191 304.3 432.569 302.557C432.947 300.813 432.646 298.991 431.726 297.463C426.826 289.3 418.965 283.342 409.781 280.83C400.597 278.318 390.799 279.446 382.426 283.979L381.22 284.63C371.79 273.983 356.12 270.006 344.098 276.101L343.942 276.183L339.566 278.54C333.131 273.348 325.276 270.223 317.033 269.575C308.79 268.927 300.543 270.787 293.376 274.91L265.638 290.003H228.638C220.761 289.99 212.989 288.206 205.895 284.783L200.758 282.294C185.894 275.061 169.318 272.083 152.866 273.689C136.414 275.295 120.727 281.423 107.543 291.394C107.389 291.51 107.243 291.63 107.097 291.757L94.691 302.803C90.5128 306.519 85.629 309.355 80.331 311.142L73.695 289.169C73.268 287.711 72.3902 286.425 71.1874 285.497C69.9846 284.569 68.5186 284.046 67 284.003H6.99996C5.99571 284.042 5.01069 284.29 4.10813 284.732C3.20557 285.174 2.4054 285.8 1.75896 286.57C1.10182 287.311 0.609799 288.184 0.315511 289.13C0.0212225 290.076 -0.0686114 291.074 0.0519609 292.058L20.052 456.058ZM350.5 288.558C356.179 285.725 363.2 287.631 368.244 291.636L320.92 317.167L319.455 317.94C318.088 314.471 316.286 311.19 314.091 308.176L350.5 288.558ZM300.146 287.158C300.202 287.128 300.257 287.097 300.312 287.066C304.118 284.864 308.405 283.626 312.8 283.459C317.194 283.292 321.563 284.202 325.525 286.109L303.625 297.909C299.881 295.288 295.751 293.269 291.384 291.923L300.146 287.158ZM104 313.258L116.186 302.409C127.311 294.06 140.523 288.94 154.369 287.614C168.215 286.288 182.159 288.807 194.666 294.893L199.804 297.386C208.798 301.725 218.652 303.986 228.638 304.003H278.466C285.151 304.01 291.643 306.242 296.918 310.348C302.194 314.454 305.952 320.199 307.6 326.678L273.326 325.123C260.11 324.525 246.868 325.136 233.763 326.948C231.947 327.228 230.314 328.212 229.216 329.685C228.119 331.159 227.645 333.006 227.897 334.826C228.149 336.646 229.107 338.294 230.564 339.415C232.02 340.535 233.859 341.037 235.683 340.814C247.942 339.12 260.33 338.548 272.693 339.104L315.193 341.027C315.293 341.027 315.404 341.034 315.509 341.034C317.365 341.034 319.146 340.296 320.459 338.984C321.771 337.671 322.509 335.89 322.509 334.034C322.509 333.41 322.488 332.79 322.463 332.172L327.502 329.515L389.072 296.299C393.277 294.021 398.088 293.112 402.835 293.697C407.582 294.283 412.027 296.334 415.553 299.566L292.627 383.966C276.609 391.739 258.541 394.239 241.015 391.106L166.335 377.354C157.78 375.254 148.746 376.483 141.064 380.794C140.955 380.855 140.847 380.92 140.741 380.987L107.941 401.722L84.411 324.543C91.6439 322.161 98.3111 318.321 104 313.259V313.258ZM61.816 298.003L107.548 448.003H33.198L14.905 298.003H61.816Z" fill="black"/>
<path d="M67.2839 445.724C71.0418 445.724 74.7152 444.609 77.8398 442.522C80.9643 440.434 83.3996 437.466 84.8376 433.995C86.2757 430.523 86.652 426.703 85.9189 423.017C85.1857 419.331 83.3762 415.946 80.719 413.289C78.0618 410.631 74.6763 408.822 70.9907 408.089C67.305 407.356 63.4848 407.732 60.013 409.17C56.5412 410.608 53.5738 413.043 51.486 416.168C49.3983 419.292 48.2839 422.966 48.2839 426.724C48.2898 431.761 50.2934 436.59 53.8553 440.152C57.4173 443.714 62.2466 445.718 67.2839 445.724ZM67.2839 421.724C68.2728 421.724 69.2395 422.017 70.0618 422.566C70.884 423.116 71.5249 423.897 71.9033 424.81C72.2818 425.724 72.3808 426.729 72.1879 427.699C71.9949 428.669 71.5187 429.56 70.8195 430.259C70.1202 430.958 69.2293 431.435 68.2594 431.628C67.2895 431.82 66.2842 431.721 65.3705 431.343C64.4569 430.965 63.676 430.324 63.1266 429.501C62.5772 428.679 62.2839 427.713 62.2839 426.724C62.2855 425.398 62.8128 424.127 63.7502 423.19C64.6875 422.253 65.9583 421.725 67.2839 421.724ZM105.694 139.846L124.688 141.677C126.845 149.498 130.004 157.007 134.088 164.018L122.025 178.584C120.912 179.926 120.34 181.636 120.422 183.379C120.503 185.121 121.232 186.77 122.466 188.003L145.244 210.781C146.476 212.013 148.125 212.742 149.866 212.824C151.607 212.905 153.316 212.335 154.659 211.223L169.259 199.128C176.264 203.2 183.757 206.368 191.559 208.554L193.39 227.615C193.556 229.354 194.361 230.97 195.649 232.15C196.938 233.33 198.619 233.99 200.366 234.003H232.66C234.406 233.988 236.086 233.327 237.373 232.146C238.66 230.966 239.463 229.349 239.628 227.611L241.459 208.586C249.28 206.424 256.789 203.26 263.799 199.172L278.366 211.227C279.709 212.338 281.418 212.908 283.159 212.825C284.9 212.743 286.548 212.014 287.78 210.781L310.555 188.003C311.788 186.77 312.517 185.122 312.599 183.38C312.681 181.639 312.11 179.929 310.998 178.587L298.898 163.981C302.972 156.974 306.14 149.478 308.326 141.674L327.042 139.847C328.773 139.678 330.378 138.871 331.547 137.583C332.715 136.295 333.362 134.618 333.362 132.88V100.585C333.362 98.8444 332.714 97.1665 331.544 95.8783C330.374 94.59 328.766 93.7837 327.034 93.6166L308.04 91.7866C305.883 83.9654 302.724 76.456 298.64 69.4456L310.703 54.8786C311.81 53.5421 312.38 51.8422 312.305 50.1087C312.229 48.3751 311.512 46.7315 310.293 45.4966L287.808 22.7176C286.578 21.4729 284.927 20.734 283.179 20.6464C281.431 20.5589 279.714 21.129 278.366 22.2446L263.766 34.3446C256.761 30.2721 249.268 27.1048 241.466 24.9186L239.635 6.12863C239.459 4.41545 238.643 2.83197 237.349 1.6958C236.054 0.559633 234.378 -0.0451941 232.657 0.00263479H200.366C198.647 -0.0427396 196.974 0.562552 195.682 1.69744C194.39 2.83232 193.574 4.41312 193.398 6.12364L191.566 25.0126C183.747 27.1512 176.238 30.2929 169.226 34.3596L154.658 22.2706C153.317 21.1571 151.609 20.5839 149.867 20.6633C148.126 20.7426 146.477 21.4687 145.243 22.6996L122.466 45.4706C121.234 46.703 120.506 48.3503 120.425 50.0906C120.343 51.831 120.913 53.5393 122.024 54.8816L134.124 69.4816C130.051 76.4863 126.884 83.9795 124.698 91.7816L105.698 93.6126C103.964 93.7788 102.355 94.5853 101.184 95.8745C100.013 97.1637 99.365 98.8431 99.3659 100.585V132.878C99.3659 134.618 100.014 136.296 101.184 137.584C102.354 138.872 103.962 139.679 105.694 139.846ZM113.366 106.943L130.966 105.243C132.443 105.1 133.837 104.491 134.946 103.505C136.055 102.519 136.821 101.205 137.135 99.7546C139.284 90.1078 143.161 80.9294 148.578 72.6626C149.384 71.4126 149.772 69.9381 149.684 68.453C149.596 66.9679 149.037 65.5496 148.088 64.4036L136.871 50.8576L150.637 37.0916L164.181 48.3086C165.341 49.2693 166.779 49.8304 168.283 49.9086C169.787 49.9867 171.276 49.5779 172.529 48.7426C180.747 43.3054 189.905 39.4456 199.536 37.3606C200.972 37.0922 202.282 36.3665 203.271 35.2919C204.26 34.2173 204.875 32.8516 205.024 31.3986L206.724 13.9986H226.304L228.004 31.3986C228.149 32.8638 228.761 34.2437 229.749 35.3355C230.737 36.4273 232.049 37.1736 233.492 37.4646C243.139 39.593 252.32 43.4509 260.592 48.8516C261.845 49.6547 263.321 50.0376 264.807 49.9446C266.292 49.8516 267.709 49.2877 268.852 48.3346L282.365 37.1346L295.9 50.8346L284.644 64.4026C283.684 65.5624 283.124 67.0007 283.046 68.5041C282.968 70.0075 283.377 71.496 284.212 72.7486C289.648 80.9665 293.508 90.1244 295.593 99.7546C295.907 101.205 296.673 102.519 297.782 103.505C298.891 104.491 300.285 105.1 301.762 105.243L319.362 106.943V126.528L302.039 128.219C300.563 128.363 299.171 128.972 298.064 129.958C296.956 130.944 296.19 132.256 295.877 133.706C293.73 143.355 289.855 152.536 284.438 160.806C283.631 162.056 283.244 163.531 283.332 165.016C283.42 166.501 283.979 167.92 284.928 169.066L296.15 182.603L282.384 196.369L268.839 185.152C267.679 184.191 266.241 183.63 264.737 183.552C263.233 183.474 261.744 183.882 260.491 184.718C252.273 190.156 243.115 194.017 233.484 196.103C232.029 196.43 230.715 197.209 229.729 198.329C228.743 199.448 228.137 200.851 227.996 202.336L226.3 220.003H206.72L205.02 202.336C204.878 200.855 204.27 199.457 203.284 198.343C202.298 197.229 200.985 196.456 199.532 196.136C189.884 193.982 180.704 190.102 172.437 184.682C171.187 183.874 169.713 183.485 168.228 183.572C166.743 183.659 165.324 184.217 164.177 185.165L150.633 196.378L136.871 182.603L148.088 169.058C149.049 167.898 149.609 166.459 149.687 164.955C149.765 163.451 149.356 161.962 148.52 160.709C143.084 152.491 139.224 143.333 137.139 133.703C136.825 132.252 136.059 130.939 134.95 129.952C133.841 128.966 132.447 128.357 130.97 128.215L113.37 126.515L113.366 106.943Z" fill="black"/>
<path d="M216.511 186.603C230.331 186.603 243.841 182.504 255.332 174.826C266.822 167.148 275.779 156.235 281.067 143.467C286.356 130.699 287.74 116.65 285.043 103.095C282.347 89.5408 275.692 77.0903 265.92 67.3181C256.147 57.546 243.697 50.8911 230.142 48.1951C216.588 45.499 202.538 46.8829 189.77 52.1718C177.002 57.4606 166.089 66.4168 158.412 77.9078C150.734 89.3988 146.636 102.909 146.636 116.729C146.657 135.254 154.025 153.015 167.125 166.114C180.225 179.214 197.985 186.582 216.511 186.603ZM216.511 60.8536C227.562 60.8536 238.365 64.1306 247.553 70.2702C256.742 76.4098 263.904 85.1363 268.133 95.3461C272.362 105.556 273.468 116.791 271.312 127.629C269.156 138.468 263.835 148.424 256.021 156.238C248.206 164.052 238.25 169.374 227.412 171.53C216.573 173.686 205.338 172.579 195.129 168.35C184.919 164.121 176.192 156.96 170.053 147.771C163.913 138.582 160.636 127.78 160.636 116.729C160.654 101.915 166.546 87.7139 177.021 77.2396C187.496 66.7653 201.698 60.8735 216.511 60.8566V60.8536Z" fill="black"/>
<path d="M204.022 138.097C205.329 139.373 207.084 140.088 208.912 140.088C210.739 140.088 212.494 139.373 213.802 138.097L247.308 105.384C247.974 104.743 248.506 103.978 248.874 103.131C249.243 102.284 249.44 101.372 249.455 100.449C249.469 99.5254 249.301 98.6081 248.959 97.7499C248.618 96.8918 248.11 96.1097 247.465 95.4487C246.82 94.7878 246.05 94.2611 245.2 93.8989C244.351 93.5368 243.438 93.3463 242.514 93.3386C241.59 93.3309 240.675 93.506 239.819 93.854C238.963 94.2019 238.185 94.7157 237.529 95.3657L208.912 123.303L195.203 109.919C194.547 109.269 193.768 108.755 192.913 108.407C192.057 108.059 191.141 107.884 190.218 107.892C189.294 107.899 188.381 108.09 187.531 108.452C186.682 108.814 185.912 109.341 185.267 110.002C184.622 110.663 184.114 111.445 183.772 112.303C183.431 113.161 183.262 114.078 183.277 115.002C183.292 115.925 183.489 116.837 183.857 117.684C184.226 118.531 184.758 119.296 185.424 119.937L204.022 138.097Z" fill="black"/>
</svg>
