<svg width="200" height="200" viewBox="0 0 200 200" fill="none" xmlns="http://www.w3.org/2000/svg">
<path d="M177.596 37.0164C177.237 36.5633 176.862 36.1101 176.471 35.657C167.262 24.6724 155.792 15.8035 142.843 9.65539C129.894 3.50726 115.771 0.224566 101.438 0.0312507C100.954 0.0156253 100.485 0 100.001 0C99.5165 0 99.0478 0.0156253 98.5634 0.0312507C84.1765 0.226448 70.0024 3.53413 57.0152 9.72701C44.028 15.9199 32.5355 24.8511 23.3274 35.907C23.065 36.1889 22.8198 36.4863 22.593 36.7976C22.5813 36.8212 22.5655 36.8423 22.5462 36.8601C7.96619 54.6732 0 76.983 0 100.002C0 123.021 7.96619 145.331 22.5462 163.144C22.5655 163.162 22.5813 163.183 22.593 163.207C22.8198 163.518 23.0651 163.815 23.3274 164.097L23.3431 164.113C32.55 175.165 44.0404 184.093 57.0249 190.283C70.0094 196.473 84.1801 199.779 98.5634 199.973C99.5228 200.004 100.479 200.004 101.438 199.973C115.771 199.78 129.894 196.497 142.843 190.349C155.792 184.201 167.262 175.332 176.471 164.347C176.862 163.894 177.237 163.441 177.596 162.988C192.089 145.196 200.003 122.95 200.003 100.002C200.003 77.0542 192.089 54.8085 177.596 37.0164ZM155.455 97.2677C155.3 82.4499 153.161 67.7197 149.096 53.4699C157.997 50.6606 166.499 46.7167 174.393 41.7352C186.883 57.6067 193.929 77.0788 194.487 97.2677H155.455ZM102.735 5.60949C119.439 7.32828 133.97 24.5786 142.361 49.8292C129.445 53.3742 116.128 55.2541 102.735 55.423V5.60949ZM97.2665 55.423C83.8735 55.2541 70.557 53.3742 57.6406 49.8292C66.0314 24.5786 80.563 7.32828 97.2665 5.60949V55.423ZM97.2665 60.8919V97.2677H50.0155C50.1646 82.9918 52.1871 68.7974 56.0312 55.048C69.4693 58.7538 83.3278 60.7179 97.2665 60.8919ZM97.2665 102.737V139.112C83.3278 139.286 69.4693 141.25 56.0312 144.956C52.1871 131.207 50.1646 117.012 50.0155 102.737H97.2665ZM97.2665 144.581V194.395C80.563 192.676 66.0314 175.426 57.6406 150.175C70.557 146.63 83.8735 144.75 97.2665 144.581ZM102.735 144.581C116.128 144.75 129.445 146.63 142.361 150.175C133.97 175.426 119.439 192.676 102.735 194.395V144.581ZM102.735 139.112V102.737H149.986C149.837 117.017 147.815 131.217 143.971 144.972C130.536 141.247 116.676 139.277 102.735 139.112ZM102.735 97.2677V60.8919C116.676 60.7272 130.536 58.7577 143.971 55.0324C147.815 68.7871 149.837 82.9867 149.986 97.2677H102.735ZM170.862 37.4852C163.54 42.0465 155.677 45.6737 147.455 48.2823C141.455 30.4381 132.439 16.2503 121.704 7.98454C140.745 12.5023 157.918 22.8083 170.862 37.4852ZM78.2973 7.98454C67.5627 16.2503 58.5469 30.4381 52.5468 48.2823C44.3305 45.6656 36.4687 42.0444 29.14 37.5008C42.0758 22.8112 59.2515 12.4981 78.2973 7.98454ZM25.6087 41.7196C33.5011 46.7114 42.0035 50.6659 50.9061 53.4855C46.8392 67.7298 44.7003 82.455 44.5466 97.2677H5.51455C6.07282 77.0741 13.1186 57.5969 25.6087 41.7196ZM44.5466 102.737C44.7003 117.549 46.8392 132.274 50.9061 146.519V146.534C42.0016 149.342 33.4984 153.292 25.6087 158.285C13.1186 142.407 6.07282 122.93 5.51455 102.737H44.5466ZM29.14 162.503C36.4687 157.96 44.3305 154.339 52.5468 151.722C58.5469 169.566 67.5627 183.754 78.2973 192.02C59.2515 187.506 42.0758 177.193 29.14 162.503ZM121.704 192.02C132.439 183.754 141.455 169.566 147.455 151.722C155.677 154.33 163.54 157.958 170.862 162.519C157.918 177.196 140.745 187.502 121.704 192.02ZM174.393 158.269C166.499 153.288 157.997 149.344 149.096 146.534C153.161 132.284 155.3 117.554 155.455 102.737H194.487C193.929 122.925 186.883 142.398 174.393 158.269Z" fill="black"/>
</svg>
