<svg width="480" height="480" viewBox="0 0 480 480" fill="none" xmlns="http://www.w3.org/2000/svg">
<path d="M399.15 82.37C379.636 62.6244 356.615 46.6874 331.263 35.375L324.737 49.985C348.28 60.4912 369.66 75.2917 387.782 93.629L399.15 82.37ZM155.263 49.985L148.737 35.375C121 47.8153 96.0686 65.7435 75.4468 88.0788C54.825 110.414 38.9396 136.694 28.748 165.334L43.834 170.666C53.2985 144.07 68.0508 119.666 87.2015 98.925C106.352 78.1843 129.505 61.5364 155.263 49.985ZM93.63 387.783C71.3622 365.695 54.3441 338.885 43.834 309.334L28.748 314.666C40.0651 346.49 58.3908 375.363 82.37 399.15L93.63 387.783ZM401.606 370.96L414.03 381.041C422.447 370.665 429.923 359.56 436.37 347.857L422.352 340.143C416.365 351.011 409.423 361.324 401.606 370.96ZM258.453 51.752L232.875 34.701C230.465 33.0947 227.665 32.1724 224.773 32.0326C221.88 31.8928 219.004 32.5406 216.451 33.907C213.897 35.2734 211.763 37.3071 210.275 39.7913C208.786 42.2756 208 45.1171 208 48.013V82.116C207.998 85.0128 208.783 87.8558 210.27 90.3414C211.758 92.8269 213.893 94.8618 216.447 96.2287C219.001 97.5956 221.878 98.2432 224.772 98.1024C227.665 97.9615 230.466 97.0375 232.875 95.429L258.453 78.377C260.645 76.9159 262.442 74.9363 263.685 72.6139C264.928 70.2915 265.578 67.6981 265.578 65.064C265.578 62.4299 264.928 59.8365 263.685 57.5141C262.442 55.1917 260.645 53.2131 258.453 51.752ZM224 82.117L223.958 47.989C223.973 47.9962 223.987 48.0045 224 48.014L249.578 65.065L224 82.117ZM320 240C320 227.342 316.247 214.968 309.214 204.444C302.182 193.919 292.186 185.716 280.492 180.872C268.797 176.028 255.929 174.76 243.514 177.23C231.099 179.699 219.696 185.795 210.745 194.745C201.795 203.696 195.699 215.099 193.23 227.514C190.76 239.929 192.028 252.797 196.872 264.492C201.716 276.186 209.919 286.182 220.444 293.214C230.968 300.246 243.342 304 256 304C272.968 303.981 289.236 297.232 301.234 285.234C313.232 273.236 319.981 256.968 320 240ZM256 288C246.507 288 237.226 285.185 229.333 279.911C221.439 274.636 215.287 267.14 211.654 258.369C208.021 249.598 207.07 239.947 208.922 230.636C210.774 221.325 215.346 212.772 222.059 206.059C228.772 199.346 237.325 194.774 246.636 192.922C255.947 191.07 265.598 192.021 274.369 195.654C283.14 199.287 290.636 205.439 295.911 213.333C301.185 221.226 304 230.507 304 240C303.986 252.726 298.924 264.927 289.925 273.925C280.927 282.924 268.726 287.986 256 288Z" fill="black"/>
<path d="M248 236.687L226.343 258.343L237.657 269.657L264 243.313V208H248V236.687ZM64 272V264H104V272C104.007 278.363 106.538 284.463 111.037 288.963C115.537 293.462 121.637 295.993 128 296H144C150.363 295.993 156.463 293.462 160.963 288.963C165.462 284.463 167.993 278.363 168 272V208C167.993 201.637 165.462 195.537 160.963 191.037C156.463 186.538 150.363 184.007 144 184H128C121.637 184.007 115.537 186.538 111.037 191.037C106.538 195.537 104.007 201.637 104 208V216H64V208C63.9929 201.637 61.462 195.537 56.9627 191.037C52.4633 186.538 46.363 184.007 40 184H24C17.637 184.007 11.5367 186.538 7.03733 191.037C2.53801 195.537 0.00714632 201.637 0 208V272C0.00714632 278.363 2.53801 284.463 7.03733 288.963C11.5367 293.462 17.637 295.993 24 296H40C46.363 295.993 52.4633 293.462 56.9627 288.963C61.462 284.463 63.9929 278.363 64 272ZM120 208C120.003 205.879 120.846 203.846 122.346 202.346C123.846 200.846 125.879 200.003 128 200H144C146.121 200.003 148.154 200.846 149.654 202.346C151.154 203.846 151.997 205.879 152 208V272C151.997 274.121 151.154 276.154 149.654 277.654C148.154 279.154 146.121 279.997 144 280H128C125.879 279.997 123.846 279.154 122.346 277.654C120.846 276.154 120.003 274.121 120 272V208ZM64 232H104V248H64V232ZM16 272V208C16.0026 205.879 16.8464 203.846 18.3461 202.346C19.8458 200.846 21.8791 200.003 24 200H40C42.1209 200.003 44.1542 200.846 45.6539 202.346C47.1536 203.846 47.9974 205.879 48 208V272C47.9974 274.121 47.1536 276.154 45.6539 277.654C44.1542 279.154 42.1209 279.997 40 280H24C21.8791 279.997 19.8458 279.154 18.3461 277.654C16.8464 276.154 16.0026 274.121 16 272ZM80 416C73.6348 416 67.5303 418.529 63.0294 423.029C58.5286 427.53 56 433.635 56 440C56 446.365 58.5286 452.47 63.0294 456.971C67.5303 461.471 73.6348 464 80 464H152V463.972C155.721 468.947 160.551 472.986 166.105 475.768C171.66 478.551 177.787 480 184 480H296C306.605 479.988 316.772 475.77 324.271 468.271C331.77 460.772 335.988 450.605 336 440V416H80ZM80 448C77.8783 448 75.8434 447.157 74.3431 445.657C72.8429 444.157 72 442.122 72 440C72 437.878 72.8429 435.843 74.3431 434.343C75.8434 432.843 77.8783 432 80 432H144V440C143.999 442.687 144.269 445.367 144.805 448H80ZM320 440C319.993 446.363 317.462 452.463 312.963 456.963C308.463 461.462 302.363 463.993 296 464H184C177.637 463.993 171.537 461.462 167.037 456.963C162.538 452.463 160.007 446.363 160 440V432H320V440ZM232 344H248V360H232V344ZM144 336H160V352H144V336ZM152 384H168V400H152V384ZM176 352H192V368H176V352ZM200 376H216V392H200V376ZM200 328H216V344H200V328ZM248 384H264V400H248V384ZM416 231.503C430.627 229.758 444.237 223.128 454.628 212.686L460.687 206.627C466.829 200.518 471.699 193.251 475.014 185.248C478.329 177.244 480.024 168.663 480 160V152H472C463.337 151.976 454.755 153.671 446.751 156.986C438.748 160.302 431.481 165.171 425.372 171.314L419.313 177.373C414.84 181.842 411.03 186.928 408 192.478C404.97 186.928 401.16 181.842 396.687 177.373L390.627 171.314C384.518 165.172 377.252 160.302 369.248 156.987C361.245 153.671 352.663 151.976 344 152H336V160C335.976 168.663 337.671 177.244 340.986 185.248C344.301 193.251 349.171 200.518 355.313 206.627L361.373 212.686C371.763 223.128 385.373 229.758 400 231.503V248H352V264H360.938L366.31 306.977C367.044 312.778 369.867 318.113 374.25 321.982C378.634 325.852 384.278 327.992 390.125 328H425.875C431.722 327.992 437.366 325.852 441.75 321.982C446.133 318.113 448.956 312.778 449.69 306.977L455.062 264H464V248H416V231.503ZM430.628 188.686L436.687 182.627C443.896 175.378 453.17 170.535 463.239 168.761C461.465 178.83 456.622 188.104 449.372 195.314L443.313 201.373C436.104 208.622 426.83 213.465 416.761 215.239C418.535 205.17 423.378 195.896 430.628 188.686ZM372.687 201.373L366.627 195.313C359.378 188.104 354.535 178.83 352.761 168.761C362.83 170.535 372.104 175.378 379.313 182.627L385.373 188.686C392.622 195.896 397.465 205.17 399.239 215.239C389.17 213.465 379.896 208.622 372.687 201.373ZM438.937 264L433.813 304.992C433.569 306.926 432.628 308.704 431.167 309.994C429.706 311.284 427.824 311.997 425.875 312H390.125C388.176 311.997 386.294 311.284 384.833 309.994C383.372 308.704 382.431 306.926 382.187 304.992L377.062 264H438.937ZM406.877 108.661L424.649 68.653L439.273 75.149L421.501 115.157L406.877 108.661ZM392.656 140.65L399.765 124.647L414.389 131.143L407.28 147.146L392.656 140.65ZM152 136C152.007 142.363 154.538 148.463 159.037 152.963C163.537 157.462 169.637 159.993 176 160H304C310.363 159.993 316.463 157.462 320.963 152.963C325.462 148.463 327.993 142.363 328 136V112H312V24C311.993 17.637 309.462 11.5367 304.963 7.03733C300.463 2.53801 294.363 0.00714632 288 0H192C185.637 0.00714632 179.537 2.53801 175.037 7.03733C170.538 11.5367 168.007 17.637 168 24V112H152V136ZM184 24C184.003 21.8791 184.846 19.8458 186.346 18.3461C187.846 16.8464 189.879 16.0026 192 16H288C290.121 16.0026 292.154 16.8464 293.654 18.3461C295.154 19.8458 295.997 21.8791 296 24V112H184V24ZM168 128H312V136C311.997 138.121 311.154 140.154 309.654 141.654C308.154 143.154 306.121 143.997 304 144H176C173.879 143.997 171.846 143.154 170.346 141.654C168.846 140.154 168.003 138.121 168 136V128Z" fill="black"/>
<path d="M360 356.687V342.627C360.008 339.474 359.391 336.351 358.185 333.438C356.978 330.525 355.206 327.88 352.97 325.657L336.97 309.657C332.465 305.163 326.363 302.64 320 302.64C313.637 302.64 307.534 305.163 303.03 309.657L277.656 335.03C273.162 339.534 270.638 345.637 270.638 352C270.638 358.363 273.162 364.466 277.656 368.97L293.656 384.97C295.879 387.206 298.524 388.978 301.437 390.185C304.35 391.392 307.474 392.009 310.627 392H324.687L390.343 457.657C395.026 462.34 401.377 464.971 408 464.971C414.623 464.971 420.974 462.34 425.657 457.657C430.34 452.974 432.971 446.623 432.971 440C432.971 433.377 430.34 427.026 425.657 422.343L360 356.687ZM414.343 446.343C413.51 447.176 412.521 447.837 411.433 448.288C410.344 448.738 409.178 448.97 408 448.97C406.822 448.97 405.655 448.738 404.567 448.288C403.479 447.837 402.49 447.176 401.657 446.343L331.313 376H310.627C309.576 376.003 308.535 375.797 307.564 375.395C306.593 374.993 305.712 374.402 304.971 373.657L288.971 357.657C287.473 356.156 286.631 354.121 286.631 352C286.631 349.879 287.473 347.844 288.971 346.343L314.344 320.97C315.845 319.472 317.879 318.631 320 318.631C322.121 318.631 324.155 319.472 325.656 320.97L341.656 336.97C342.401 337.711 342.992 338.593 343.395 339.564C343.797 340.535 344.003 341.576 344 342.627V363.313L414.343 433.657C416.023 435.341 416.966 437.622 416.966 440C416.966 442.378 416.023 444.659 414.343 446.343ZM446.872 108.654L464.644 68.646L479.268 75.142L461.496 115.15L446.872 108.654ZM432.65 140.643L439.759 124.64L454.383 131.136L447.274 147.139L432.65 140.643Z" fill="black"/>
</svg>
