<svg width="512" height="512" viewBox="0 0 512 512" fill="none" xmlns="http://www.w3.org/2000/svg">
<mask id="mask0_19003_5367" style="mask-type:luminance" maskUnits="userSpaceOnUse" x="0" y="0" width="512" height="512">
<path d="M502.498 502.499V9.50049H9.5V502.499H502.498Z" fill="white" stroke="white" stroke-width="19"/>
</mask>
<g mask="url(#mask0_19003_5367)">
<path d="M126.747 108.832H126.761C127.2 108.832 127.634 108.746 128.039 108.578C128.445 108.41 128.814 108.164 129.123 107.853L156.611 80.3657L151.838 75.5942L133.465 93.9683L126.748 100.685L120.031 93.9692L115.006 88.9468L110.235 93.7192L124.361 107.844C125.02 108.504 125.867 108.831 126.747 108.832ZM160.186 76.7905L160.188 76.7876C160.182 76.7936 160.176 76.8001 160.17 76.8062L160.186 76.7905ZM160.186 83.9409L160.17 83.9263C160.176 83.9321 160.182 83.938 160.188 83.9438L160.186 83.9409Z" fill="black" stroke="black" stroke-width="19"/>
<path d="M126.747 189.545H126.759C127.198 189.546 127.634 189.46 128.039 189.292C128.445 189.123 128.814 188.877 129.124 188.566L156.611 161.08L151.838 156.308L133.465 174.682L126.748 181.399L120.031 174.683L115.006 169.661L110.235 174.433L124.361 188.557C125.022 189.218 125.869 189.545 126.747 189.545ZM160.186 157.504L160.188 157.501C160.181 157.508 160.175 157.515 160.168 157.522L160.186 157.504ZM160.186 164.655L160.168 164.638C160.175 164.645 160.181 164.651 160.188 164.658L160.186 164.655Z" fill="black" stroke="black" stroke-width="19"/>
<path d="M126.747 270.259H126.759C127.198 270.26 127.634 270.173 128.039 270.005C128.445 269.837 128.814 269.591 129.124 269.28L156.611 241.793L151.838 237.022L133.465 255.396L126.748 262.113L120.031 255.397L115.006 250.375L110.235 255.147L124.361 269.271C125.022 269.932 125.869 270.259 126.747 270.259ZM160.186 238.218L160.188 238.215C160.181 238.222 160.175 238.229 160.168 238.236L160.186 238.218ZM160.186 245.369L160.168 245.352C160.175 245.359 160.181 245.365 160.188 245.372L160.186 245.369Z" fill="black" stroke="black" stroke-width="19"/>
<path d="M126.747 350.973H126.759C127.198 350.974 127.634 350.887 128.039 350.719C128.445 350.551 128.814 350.305 129.124 349.994L156.611 322.507L151.839 317.736L126.748 342.827L120.031 336.11L115.007 331.088L110.235 335.861L124.361 349.985C125.022 350.646 125.869 350.973 126.747 350.973ZM118.584 327.511L118.582 327.512L118.566 327.529C118.572 327.523 118.578 327.517 118.584 327.511Z" fill="black" stroke="black" stroke-width="19"/>
<path d="M126.747 431.687H126.759C127.198 431.687 127.634 431.601 128.039 431.433C128.445 431.265 128.814 431.018 129.124 430.707L156.611 403.221L151.839 398.449L126.748 423.54L120.031 416.823L115.007 411.802L110.235 416.574L124.361 430.698C125.022 431.359 125.869 431.686 126.747 431.687ZM118.584 408.225L118.582 408.226L118.566 408.242C118.572 408.236 118.578 408.231 118.584 408.225Z" fill="black" stroke="black" stroke-width="19"/>
<path d="M378.592 177.054H378.605C379.654 177.055 380.694 176.849 381.664 176.447C382.634 176.046 383.515 175.456 384.257 174.713L422.801 136.169L411.453 124.821L378.592 157.683L371.875 150.966L363.686 142.777L352.339 154.124L372.919 174.704C374.487 176.273 376.523 177.054 378.592 177.054Z" fill="black" stroke="black" stroke-width="19"/>
<path d="M204.948 98.6938H251.455" stroke="black" stroke-width="19" stroke-miterlimit="10" stroke-linecap="round" stroke-linejoin="round"/>
<path d="M204.948 179.408H251.455" stroke="black" stroke-width="19" stroke-miterlimit="10" stroke-linecap="round" stroke-linejoin="round"/>
<path d="M204.948 260.121H308.33" stroke="black" stroke-width="19" stroke-miterlimit="10" stroke-linecap="round" stroke-linejoin="round"/>
<path d="M204.948 340.835H339.302" stroke="black" stroke-width="19" stroke-miterlimit="10" stroke-linecap="round" stroke-linejoin="round"/>
<path d="M204.948 421.549H260.038" stroke="black" stroke-width="19" stroke-miterlimit="10" stroke-linecap="round" stroke-linejoin="round"/>
<path d="M420.999 63.9998V10H36.9999V501.999H345.193L420.999 426.193V235.127" stroke="black" stroke-width="19" stroke-miterlimit="10" stroke-linecap="round" stroke-linejoin="round"/>
<path d="M419.999 426.193H345.193V500.999" stroke="black" stroke-width="19" stroke-miterlimit="10" stroke-linecap="round" stroke-linejoin="round"/>
<path d="M382.996 52.2136L474.999 85.3185V124.404C474.999 182.96 438.162 235.185 382.999 254.832C327.837 235.185 290.999 182.96 290.999 124.404V85.3185L383.003 52.2136" stroke="black" stroke-width="19" stroke-miterlimit="10" stroke-linecap="round" stroke-linejoin="round"/>
</g>
</svg>
