<svg width="512" height="512" viewBox="0 0 512 512" fill="none" xmlns="http://www.w3.org/2000/svg">
<g clip-path="url(#clip0_19001_4028)">
<path d="M8 512H64V496H16V464H496V496H80V512H504C506.122 512 508.157 511.157 509.657 509.657C511.157 508.157 512 506.122 512 504V456C512 453.878 511.157 451.843 509.657 450.343C508.157 448.843 506.122 448 504 448H494.246L401.761 78.06L386.239 81.94L397.754 128H258.246L286.246 16H369.754L382.239 65.94L397.761 62.06L383.761 6.06C383.328 4.32912 382.33 2.79253 380.923 1.69451C379.517 0.596489 377.784 4.71115e-05 376 0L280 0C278.216 4.71115e-05 276.483 0.596489 275.077 1.69451C273.67 2.79253 272.672 4.32912 272.239 6.06L249.405 97.4L176.645 57.008C175.437 56.3376 174.076 55.9914 172.695 56.0031C171.313 56.0149 169.958 56.3841 168.762 57.075L127.192 81.075L135.192 94.931L172.839 73.196L238.1 109.419L114.637 180.7L95.98 175.7C94.7556 175.372 93.4709 175.34 92.2316 175.606C90.9923 175.872 89.834 176.429 88.8521 177.23C87.8701 178.032 87.0926 179.055 86.5837 180.216C86.0748 181.377 85.8491 182.642 85.925 183.907L86.7 196.828L65 209.354C64.5406 209.619 63.9947 209.691 63.4824 209.554C62.9701 209.417 62.5332 209.081 62.268 208.622L32.268 156.66C32.0028 156.201 31.9309 155.655 32.0682 155.142C32.2055 154.63 32.5407 154.193 33 153.928L54.7 141.4L65.5 148.533C66.5579 149.232 67.7667 149.669 69.0267 149.808C70.2867 149.948 71.5618 149.786 72.7471 149.337C73.9323 148.887 74.9937 148.162 75.8437 147.221C76.6937 146.281 77.308 145.152 77.636 143.927L82.636 125.271L121.336 102.928L113.336 89.072L71.767 113.072C69.9294 114.133 68.5884 115.88 68.039 117.929L65.056 129.064L59.391 125.324C58.151 124.505 56.7075 124.048 55.2223 124.003C53.7371 123.959 52.2688 124.329 50.982 125.072L25.002 140.072C20.8679 142.459 17.8513 146.391 16.6158 151.002C15.3803 155.613 16.0272 160.526 18.414 164.66L48.414 216.621C49.5939 218.67 51.1664 220.466 53.0413 221.906C54.9162 223.346 57.0567 224.403 59.3404 225.015C61.6241 225.627 64.006 225.782 66.3499 225.473C68.6938 225.163 70.9536 224.394 73 223.21L98.98 208.21C100.267 207.467 101.321 206.381 102.025 205.073C102.729 203.764 103.055 202.286 102.966 200.803L102.56 194.026L113.7 197.01C114.715 197.282 115.773 197.351 116.815 197.214C117.857 197.077 118.861 196.735 119.771 196.21L126.699 192.21L157.192 245.024C131.104 252.336 107.734 267.141 89.9784 287.605C72.2224 308.069 60.8604 333.293 57.3 360.151L49.29 421.564L38.143 424.218C36.8888 424.517 35.7254 425.115 34.7521 425.961C33.7787 426.806 33.0242 427.875 32.5528 429.075C32.0814 430.275 31.907 431.571 32.0446 432.853C32.1822 434.135 32.6277 435.365 33.343 436.438L41.052 448H8C5.87827 448 3.84344 448.843 2.34315 450.343C0.842855 451.843 0 453.878 0 456L0 504C0 506.122 0.842855 508.157 2.34315 509.657C3.84344 511.157 5.87827 512 8 512ZM423.754 232H296V248H427.754L455.754 360H376V376H459.754L477.754 448H374.948L382.656 436.438C383.371 435.365 383.817 434.135 383.954 432.853C384.092 431.571 383.918 430.275 383.446 429.075C382.975 427.875 382.22 426.806 381.247 425.961C380.274 425.115 379.11 424.517 377.856 424.218L366.709 421.564L358.699 360.151C354.895 331.294 342.083 304.373 322.086 283.223C302.09 262.072 275.929 247.771 247.33 242.357C246.457 238.783 244.778 235.456 242.42 232.632C240.063 229.807 237.09 227.56 233.73 226.062L242.246 192H413.754L423.754 232ZM298 320C293.228 320.006 288.653 321.904 285.278 325.278C281.904 328.653 280.006 333.228 280 338V358C280.006 362.772 281.904 367.347 285.278 370.722C288.653 374.096 293.228 375.994 298 376H344.628L350.054 417.6L248 393.3V258.816C265.124 262.598 281.234 270.019 295.237 280.576C309.241 291.133 320.809 304.578 329.158 320H298ZM336.39 336C339.246 343.77 341.3 351.812 342.52 360H298C297.47 360 296.961 359.789 296.586 359.414C296.211 359.039 296 358.53 296 358V338C296 337.47 296.211 336.961 296.586 336.586C296.961 336.211 297.47 336 298 336H336.39ZM254.246 144H401.754L409.754 176H246.246L254.246 144ZM242.4 125.407L240.237 134.06L228.237 182.06L223.7 200.224L195.979 152.211L242.4 125.407ZM140.549 184.207L182.119 160.207L218.119 222.551L217.754 224H192C187.657 224.003 183.396 225.184 179.67 227.416C175.945 229.648 172.894 232.849 170.843 236.677L140.549 184.207ZM79.617 336H118C118.53 336 119.039 336.211 119.414 336.586C119.789 336.961 120 337.47 120 338V358C120 358.53 119.789 359.039 119.414 359.414C119.039 359.789 118.53 360 118 360H73.48C74.7006 351.811 76.757 343.769 79.617 336ZM71.372 376H118C122.772 375.994 127.347 374.096 130.722 370.722C134.096 367.347 135.994 362.772 136 358V338C135.994 333.228 134.096 328.653 130.722 325.278C127.347 321.904 122.772 320.006 118 320H86.86C95.2132 304.585 106.781 291.145 120.78 280.589C134.779 270.034 150.882 262.609 168 258.818V312H184V248C184.002 245.879 184.846 243.846 186.346 242.346C187.846 240.846 189.879 240.002 192 240H224C226.121 240.002 228.154 240.846 229.654 242.346C231.154 243.846 231.998 245.879 232 248V389.491L209.853 384.218C208.635 383.928 207.365 383.928 206.147 384.218L184 389.491V328H168V393.3L65.946 417.6L71.372 376ZM208 400.224L362.971 437.124L355.719 448H60.281L53.029 437.122L208 400.224Z" fill="black"/>
</g>
<defs>
<clipPath id="clip0_19001_4028">
<rect width="512" height="512" fill="white"/>
</clipPath>
</defs>
</svg>
