<svg width="513" height="513" viewBox="0 0 513 513" fill="none" xmlns="http://www.w3.org/2000/svg">
<path d="M173.644 505V455.84M173.654 420.84L173.684 255.78C173.684 231.82 183.854 210.23 200.114 195.11M339.301 365.632L339.319 255.777C339.319 232.589 329.79 211.627 314.433 196.593M339.278 505L339.285 460.632M219.264 345.823C231.137 349.57 243.514 351.479 255.965 351.482C268.79 351.474 281.535 349.453 293.735 345.494M234.002 319.552C241.151 321.669 248.569 322.742 256.026 322.737C263.814 322.745 271.559 321.574 278.997 319.264M305.334 120.43C309.194 136.82 311.504 154.69 311.504 172.8V219.62C311.504 250 286.874 274.62 256.504 274.62C241.314 274.62 227.564 268.46 217.614 258.51C207.664 248.56 201.504 234.81 201.504 219.62V172.8C201.504 127.87 215.724 84.49 232.404 61.26M293.914 85.43C289.874 76.1 285.384 67.95 280.694 61.39" stroke="black" stroke-width="15" stroke-miterlimit="10" stroke-linecap="round" stroke-linejoin="round"/>
<path d="M201.5 172.007C201.5 161.186 215.264 128.17 256.5 128.17C297.736 128.17 311.5 161.186 311.5 172.007M367.178 233.858C350.112 249.028 339.361 271.147 339.361 295.777M504.959 505L505 295.776C505 271.382 494.454 249.451 477.671 234.295M384.945 385.823C396.818 389.57 409.195 391.479 421.646 391.482C434.472 391.474 447.217 389.453 459.416 385.494M399.683 359.552C406.833 361.669 414.251 362.742 421.707 362.737C429.495 362.745 437.24 361.574 444.678 359.264M379.384 294.16C371.473 284.388 367.165 272.192 367.184 259.62V212.8C367.184 146.6 398.054 83.77 422.184 83.77C446.304 83.77 477.184 146.6 477.184 212.8V259.62C477.184 290 452.554 314.62 422.184 314.62C417.614 314.62 413.174 314.06 408.924 313.01" stroke="black" stroke-width="15" stroke-miterlimit="10" stroke-linecap="round" stroke-linejoin="round"/>
<path d="M367.18 212.007C367.18 201.186 380.944 168.17 422.18 168.17C463.416 168.17 477.18 201.186 477.18 212.007" stroke="black" stroke-width="15" stroke-miterlimit="10" stroke-linecap="round" stroke-linejoin="round"/>
<path d="M367.18 236.597C367.18 228.22 387.553 205.68 422.18 205.68C456.807 205.68 477.18 228.405 477.18 236.597M201.5 196.597C201.5 188.22 221.873 165.68 256.5 165.68C291.127 165.68 311.5 188.405 311.5 196.597M33.66 275.884C17.875 290.964 8.041 312.222 8.041 335.777L8 505M173.68 335.776C173.68 311.557 163.284 289.766 146.711 274.622M53.625 425.823C65.4984 429.57 77.8753 431.479 90.326 431.482C103.152 431.474 115.897 429.453 128.096 425.494M68.363 399.552C75.5126 401.669 82.9306 402.742 90.387 402.737C98.1754 402.745 105.92 401.574 113.358 399.264M138.495 195.556C143.064 213.251 145.861 232.874 145.861 252.801V299.624C145.861 330 121.237 354.624 90.861 354.624C60.485 354.624 35.861 330 35.861 299.624V252.8C35.861 186.602 66.735 123.768 90.861 123.768C100.91 123.768 112.129 134.668 121.801 152.172" stroke="black" stroke-width="15" stroke-miterlimit="10" stroke-linecap="round" stroke-linejoin="round"/>
<path d="M110.924 211.18C136.694 219.57 145.864 243.18 145.864 252.01M35.8643 252.01C35.8643 242.62 46.2243 216.51 75.9243 209.78M35.8613 276.597C35.8613 268.22 56.2343 245.68 90.8613 245.68C125.488 245.68 145.861 268.405 145.861 276.597M339.32 365.632L345.872 383.138C347.877 388.494 351.007 393.358 355.05 397.402C359.094 401.446 363.958 404.575 369.314 406.58L386.82 413.132L369.314 419.684C363.958 421.689 359.094 424.818 355.05 428.862C351.007 432.906 347.877 437.77 345.872 443.126L339.32 460.632L332.768 443.126C330.764 437.77 327.634 432.906 323.59 428.862C319.546 424.818 314.682 421.689 309.326 419.684L291.82 413.132L309.326 406.58C314.682 404.575 319.546 401.446 323.59 397.402C327.634 393.358 330.764 388.494 332.768 383.138L339.32 365.632ZM256.5 8L262.603 24.308C264.471 29.2976 267.386 33.8287 271.153 37.5959C274.921 41.3631 279.452 44.2786 284.441 46.146L300.749 52.249L284.441 58.352C279.452 60.2194 274.921 63.1349 271.153 66.9021C267.386 70.6693 264.471 75.2004 262.603 80.19L256.5 96.5L250.397 80.192C248.53 75.2024 245.614 70.6713 241.847 66.9041C238.08 63.1369 233.549 60.2214 228.559 58.354L212.25 52.25L228.558 46.147C233.548 44.2796 238.079 41.3641 241.846 37.5969C245.613 33.8297 248.529 29.2986 250.396 24.309L256.5 8ZM138.639 125.518L143.467 138.417C144.944 142.364 147.25 145.948 150.23 148.927C153.21 151.907 156.794 154.213 160.74 155.69L173.639 160.518L160.74 165.346C156.794 166.823 153.21 169.129 150.23 172.109C147.25 175.088 144.944 178.672 143.467 182.619L138.639 195.518L133.811 182.619C132.334 178.672 130.028 175.088 127.049 172.109C124.069 169.129 120.485 166.823 116.538 165.346L103.639 160.518L116.538 155.69C120.485 154.213 124.069 151.907 127.049 148.927C130.028 145.948 132.334 142.364 133.811 138.417L138.639 125.518Z" stroke="black" stroke-width="15" stroke-miterlimit="10" stroke-linecap="round" stroke-linejoin="round"/>
</svg>
