<svg width="516" height="557" viewBox="0 0 516 557" fill="none" xmlns="http://www.w3.org/2000/svg">
<path d="M350.566 369.987C350.566 368.297 349.894 366.676 348.699 365.481C347.505 364.286 345.884 363.615 344.194 363.615H268.795L285.752 347.371C286.383 346.799 286.894 346.107 287.253 345.335C287.612 344.563 287.813 343.726 287.843 342.875C287.873 342.024 287.733 341.175 287.429 340.379C287.126 339.584 286.666 338.857 286.077 338.241C285.488 337.626 284.782 337.135 284 336.798C283.218 336.46 282.376 336.283 281.525 336.277C280.673 336.27 279.829 336.434 279.042 336.759C278.255 337.085 277.541 337.564 276.942 338.17L250.376 363.606H154.171L127.596 338.17C126.998 337.564 126.284 337.085 125.497 336.759C124.71 336.434 123.865 336.27 123.014 336.277C122.162 336.283 121.32 336.46 120.539 336.798C119.757 337.135 119.05 337.626 118.461 338.241C117.872 338.857 117.412 339.584 117.109 340.379C116.806 341.175 116.665 342.024 116.696 342.875C116.726 343.726 116.927 344.563 117.286 345.335C117.645 346.107 118.155 346.799 118.786 347.371L135.752 363.606H60.3361C54.6525 363.606 49.4786 366.903 46.5306 372.952L20.8567 446.507C15.5554 457.169 22.8107 470.125 34.3563 470.125H335.333C337.023 470.125 338.644 469.454 339.839 468.259C341.033 467.064 341.705 465.443 341.705 463.754C341.705 462.064 341.033 460.443 339.839 459.248C338.644 458.053 337.023 457.382 335.333 457.382H34.3563C32.7166 457.382 30.9071 454.986 32.5722 451.443L58.2547 377.888C58.7219 376.936 59.529 376.358 60.3361 376.358H344.194C345.884 376.358 347.505 375.687 348.699 374.492C349.894 373.297 350.566 371.677 350.566 369.987Z" fill="black"/>
<path d="M164.952 415.226C164.952 435.803 181.688 452.539 202.265 452.539C222.842 452.539 239.587 435.803 239.587 415.226C239.587 394.649 222.85 377.904 202.265 377.904C181.68 377.904 164.952 394.641 164.952 415.226ZM225.9 408.854H205.646C203.956 408.854 202.336 409.526 201.141 410.72C199.946 411.915 199.275 413.536 199.275 415.226C199.275 416.916 199.946 418.537 201.141 419.732C202.336 420.926 203.956 421.598 205.646 421.598H225.892C224.496 426.805 221.426 431.408 217.154 434.697C212.883 437.986 207.647 439.778 202.256 439.796C188.714 439.796 177.687 428.777 177.687 415.226C177.687 401.675 188.714 390.648 202.256 390.648C207.649 390.666 212.885 392.459 217.156 395.75C221.428 399.04 224.506 403.645 225.9 408.854ZM74.7618 90.5039C71.9605 89.5939 68.9693 89.4357 66.0877 90.0452C47.1933 94.0976 22.7936 97.241 10.9507 93.9107C10.1457 93.6842 9.30402 93.6185 8.47367 93.7173C7.64331 93.8161 6.84055 94.0775 6.11122 94.4865C5.38188 94.8956 4.74026 95.4443 4.22297 96.1013C3.70569 96.7583 3.32288 97.5108 3.0964 98.3157C2.86992 99.1207 2.8042 99.9624 2.903 100.793C3.0018 101.623 3.26319 102.426 3.67223 103.155C4.08127 103.884 4.62997 104.526 5.28698 105.043C5.94399 105.561 6.69645 105.944 7.50141 106.17C24.7307 111.021 56.0712 105.227 68.7638 102.5C69.4506 102.359 70.1622 102.4 70.8283 102.619C139.371 124.716 140.153 125.846 145.871 125.846C152.897 125.846 160.024 121.394 161.579 113.765C163.023 106.629 159.2 98.9996 154.766 94.6243C150.144 90.0622 148.411 89.493 107.275 65.7135C104.947 64.3712 100.317 62.5022 98.4052 61.0494C99.1699 60.0044 100.759 58.883 102.373 58.8745C104.446 58.934 106.349 60.1404 119.424 67.0474C120.917 67.836 122.663 67.9989 124.277 67.5002C125.891 67.0015 127.241 65.8821 128.03 64.3882C128.818 62.8943 128.981 61.1484 128.483 59.5344C127.984 57.9204 126.864 56.5707 125.371 55.7821C113.12 49.3084 108.566 46.3094 102.747 46.131C95.4403 45.9101 86.6132 51.5852 85.4408 60.0384C83.9966 70.3692 96.1964 74.0138 100.903 76.7494C141.215 100.053 142.617 100.537 145.811 103.698C147.978 105.839 149.481 109.288 149.09 111.225C148.13 116.016 138.768 110.979 74.7618 90.5039Z" fill="black"/>
<path d="M0.628673 34.2709C1.65665 37.6352 5.24183 39.5297 8.58064 38.5017L91.0907 13.2695C91.7325 13.0768 92.4113 13.0417 93.0695 13.1674C93.7277 13.2932 94.3458 13.5759 94.8713 13.9917L143.721 50.778C144.851 51.6276 145.65 52.9529 145.973 54.5161C146.924 59.1717 147.978 63.9973 150.238 74.4725C150.412 75.2914 150.745 76.068 151.22 76.7579C151.694 77.4479 152.299 78.0377 153.001 78.4937C153.703 78.9497 154.488 79.2629 155.312 79.4155C156.135 79.5681 156.98 79.557 157.799 79.383C158.618 79.2089 159.394 78.8753 160.084 78.4011C160.774 77.9269 161.364 77.3215 161.82 76.6194C162.276 75.9173 162.589 75.1322 162.742 74.309C162.894 73.4859 162.883 72.6407 162.709 71.8218C159.863 58.6535 159.116 55.1618 158.462 51.9504C157.567 47.4276 155.05 43.3877 151.385 40.5917L102.534 3.80535C100.404 2.17673 97.9168 1.07972 95.2778 0.605421C92.6389 0.13112 89.9248 0.293212 87.3611 1.07824L4.85953 26.3104C4.05883 26.555 3.31418 26.955 2.66814 27.4875C2.0221 28.02 1.48735 28.6746 1.09443 29.4139C0.701509 30.1532 0.458133 30.9626 0.378217 31.796C0.2983 32.6294 0.383408 33.4704 0.628673 34.2709ZM124.946 333.404H291.767C314.026 333.404 332.122 315.308 332.122 293.049V229.434C332.122 227.744 331.45 226.123 330.256 224.928C329.061 223.733 327.44 223.062 325.75 223.062H90.9633C89.2734 223.062 87.6527 223.733 86.4578 224.928C85.2628 226.123 84.5915 227.744 84.5915 229.434V293.049C84.5915 315.308 102.687 333.404 124.946 333.404ZM97.3351 235.806H319.378V293.049C319.369 300.37 316.457 307.387 311.281 312.563C306.105 317.74 299.087 320.651 291.767 320.66H124.946C117.626 320.651 110.608 317.74 105.432 312.563C100.256 307.387 97.3441 300.37 97.3351 293.049V235.806ZM469.854 162.692C471.952 161.295 473.742 159.483 475.114 157.369C476.486 155.255 477.411 152.883 477.833 150.398C478.255 147.913 478.164 145.368 477.566 142.919C476.968 140.471 475.876 138.171 474.357 136.16C471.515 132.423 467.36 129.906 462.733 129.115C458.106 128.325 453.351 129.322 449.43 131.903L337.899 205.646C337.181 206.098 336.561 206.689 336.075 207.385C335.588 208.08 335.246 208.865 335.067 209.695C334.888 210.524 334.877 211.381 335.034 212.215C335.191 213.048 335.513 213.843 335.981 214.55C336.448 215.258 337.053 215.865 337.759 216.336C338.464 216.807 339.257 217.133 340.09 217.293C340.923 217.454 341.78 217.446 342.61 217.271C343.44 217.096 344.227 216.757 344.925 216.274L456.456 142.531C457.672 141.732 459.146 141.423 460.581 141.668C462.016 141.912 463.304 142.691 464.187 143.848C466.184 146.482 465.547 150.254 462.794 152.089L346.063 229.799C344.655 230.735 343.676 232.193 343.342 233.85C343.009 235.508 343.347 237.231 344.283 238.639C345.22 240.047 346.677 241.026 348.335 241.36C349.992 241.693 351.715 241.355 353.123 240.419L469.854 162.692ZM293.908 220.233C295.598 220.233 297.219 219.562 298.414 218.367C299.609 217.172 300.28 215.551 300.28 213.861V187.975C300.28 179.564 293.441 172.725 285.03 172.725H272.958C271.268 172.725 269.647 173.396 268.452 174.591C267.257 175.786 266.586 177.407 266.586 179.097C266.586 180.787 267.257 182.407 268.452 183.602C269.647 184.797 271.268 185.469 272.958 185.469H285.03C286.415 185.469 287.536 186.599 287.536 187.975V213.861C287.536 217.378 290.391 220.233 293.908 220.233ZM158.054 86.1116C156.636 87.0299 155.64 88.4739 155.286 90.126C154.933 91.7782 155.25 93.5031 156.168 94.9216L186.557 141.86H153.61C145.208 141.86 138.369 147.807 138.369 155.114V204.983C138.369 206.673 139.041 208.294 140.235 209.489C141.43 210.684 143.051 211.355 144.741 211.355C146.431 211.355 148.052 210.684 149.246 209.489C150.441 208.294 151.113 206.673 151.113 204.983L151.028 155.496C151.181 155.258 152.073 154.604 153.61 154.604H242.968C244.506 154.604 245.398 155.241 245.474 155.114V204.983C245.474 206.673 246.146 208.294 247.341 209.489C248.535 210.684 250.156 211.355 251.846 211.355C253.536 211.355 255.157 210.684 256.352 209.489C257.547 208.294 258.218 206.673 258.218 204.983V155.114C258.218 147.688 251.515 141.86 242.968 141.86H201.739L166.864 87.9976C165.945 86.5794 164.501 85.584 162.849 85.2304C161.197 84.8767 159.472 85.1936 158.054 86.1116ZM434.648 556.806C454.315 556.806 515.968 554.657 515.968 535.058C515.765 383.427 516.427 392.211 515.442 389.917C510.693 373.792 461.358 371.142 441.019 370.76V352.859C441.019 351.169 440.348 349.549 439.153 348.354C437.958 347.159 436.338 346.487 434.648 346.487C432.958 346.487 431.337 347.159 430.142 348.354C428.947 349.549 428.276 351.169 428.276 352.859V370.76C409.721 371.116 353.327 373.691 353.327 392.44C353.522 544.071 352.86 535.287 353.854 537.581C359.206 555.804 421.649 556.806 434.648 556.806ZM366.071 533.97V405.328C394.956 417.095 474.289 417.112 503.225 405.328V533.97C499.104 537.598 475.486 544.063 434.648 544.063C393.809 544.063 370.191 537.606 366.071 533.97ZM428.276 383.545V392.44C428.276 394.13 428.947 395.751 430.142 396.946C431.337 398.141 432.958 398.812 434.648 398.812C436.338 398.812 437.958 398.141 439.153 396.946C440.348 395.751 441.019 394.13 441.019 392.44V383.545C474.153 384.123 494.933 388.966 501.568 392.44C478.723 404.394 390.598 404.419 367.719 392.44C374.362 388.957 395.134 384.123 428.276 383.545ZM68.5177 476.658C66.8278 476.658 65.2071 477.33 64.0122 478.524C62.8172 479.719 62.1459 481.34 62.1459 483.03V493.624C62.1459 500.14 68.1779 505.255 75.875 505.255H110.028C117.725 505.255 123.757 500.14 123.757 493.616V483.03C123.757 481.34 123.085 479.719 121.89 478.524C120.695 477.33 119.075 476.658 117.385 476.658C115.695 476.658 114.074 477.33 112.879 478.524C111.684 479.719 111.013 481.34 111.013 483.03V492.375C110.69 492.466 110.355 492.512 110.019 492.511H75.875C75.5422 492.514 75.2106 492.471 74.8894 492.384V483.03C74.8894 481.34 74.2181 479.719 73.0232 478.524C71.8283 477.33 70.2076 476.658 68.5177 476.658ZM336.574 483.03C336.574 481.34 335.902 479.719 334.707 478.524C333.512 477.33 331.892 476.658 330.202 476.658C328.512 476.658 326.891 477.33 325.696 478.524C324.501 479.719 323.83 481.34 323.83 483.03V492.375C322.912 492.647 324.255 492.452 288.7 492.511C288.368 492.514 288.036 492.471 287.715 492.384V483.03C287.715 481.34 287.044 479.719 285.849 478.524C284.654 477.33 283.033 476.658 281.343 476.658C279.653 476.658 278.033 477.33 276.838 478.524C275.643 479.719 274.971 481.34 274.971 483.03V493.624C274.971 500.14 281.003 505.255 288.7 505.255H322.853C330.542 505.255 336.574 500.14 336.574 493.616V483.03Z" fill="black"/>
<path d="M436.738 429.847C415.668 429.847 398.524 450.203 398.524 475.214C398.524 500.225 415.668 520.573 436.738 520.573C457.807 520.573 474.96 500.225 474.96 475.206C474.96 450.203 457.815 429.847 436.738 429.847ZM436.738 507.829C422.694 507.829 411.267 493.199 411.267 475.206C411.267 457.229 422.694 442.591 436.738 442.591C450.781 442.591 462.216 457.229 462.216 475.214C462.216 493.199 450.789 507.829 436.738 507.829Z" fill="black"/>
</svg>
