<svg width="459" height="432" viewBox="0 0 459 432" fill="none" xmlns="http://www.w3.org/2000/svg">
<path fill-rule="evenodd" clip-rule="evenodd" d="M421.034 274.791C414.506 325.707 386.904 372.441 345.311 402.994C344.624 403.5 343.844 403.866 343.016 404.07C342.187 404.274 341.327 404.313 340.483 404.184C339.64 404.055 338.83 403.761 338.1 403.319C337.37 402.877 336.735 402.295 336.23 401.607C335.211 400.218 334.784 398.481 335.043 396.777C335.302 395.074 336.226 393.543 337.613 392.52C376.354 364.054 402.05 320.543 408.143 273.133C408.602 269.574 411.86 267.069 415.418 267.516C418.976 267.97 421.487 271.227 421.034 274.791ZM130.662 401.607C128.536 404.512 124.445 405.116 121.569 402.994C79.9816 372.44 52.3858 325.707 45.8517 274.791C45.7422 273.945 45.8007 273.085 46.0238 272.261C46.2469 271.437 46.6302 270.665 47.1519 269.989C47.6735 269.314 48.3232 268.747 49.0639 268.323C49.8045 267.899 50.6216 267.624 51.4683 267.516C55.0267 267.069 58.2963 269.574 58.75 273.133C64.8315 320.543 90.539 364.054 129.269 392.52C132.168 394.65 132.791 398.719 130.662 401.607ZM319.851 89.4147C320.28 88.6772 320.851 88.0316 321.53 87.5148C322.209 86.998 322.984 86.6201 323.809 86.4027C324.634 86.1853 325.495 86.1327 326.34 86.2478C327.186 86.363 328.001 86.6436 328.738 87.0738C347.329 97.9425 363.832 111.811 377.795 128.285C381.392 132.529 378.32 138.983 372.843 138.983C371.897 138.985 370.963 138.781 370.105 138.385C369.246 137.989 368.485 137.41 367.873 136.69C354.932 121.394 339.48 108.414 322.18 98.3071C321.443 97.8767 320.797 97.3052 320.281 96.6251C319.765 95.9451 319.388 95.1699 319.171 94.344C318.955 93.518 318.904 92.6575 319.02 91.8117C319.137 90.9658 319.419 90.1513 319.851 89.4147ZM89.0921 128.285C103.048 111.811 119.552 97.9425 138.149 87.0738C139.639 86.2051 141.412 85.9637 143.08 86.4027C144.747 86.8417 146.172 87.9251 147.041 89.4147C148.853 92.5082 147.806 96.4956 144.7 98.3071C127.402 108.416 111.95 121.395 99.0075 136.69C96.683 139.437 92.5645 139.752 89.8437 137.442C89.1926 136.891 88.6566 136.216 88.2664 135.457C87.8762 134.698 87.6395 133.87 87.5696 133.019C87.4998 132.169 87.5984 131.313 87.8596 130.5C88.1208 129.688 88.5397 128.935 89.0921 128.285ZM205.039 12.9976C209.491 12.9987 213.892 13.9505 217.947 15.7894C222.002 17.6283 225.618 20.3118 228.553 23.6605C229.162 24.3582 229.914 24.9175 230.758 25.3006C231.601 25.6838 232.517 25.882 233.443 25.882C234.37 25.882 235.286 25.6838 236.129 25.3006C236.973 24.9175 237.724 24.3582 238.334 23.6605C241.27 20.3107 244.888 17.6265 248.945 15.7876C253.002 13.9487 257.405 12.9975 261.859 12.9976C279.104 12.9976 293.125 27.0244 293.125 44.2696C293.125 73.8355 262.153 109.812 233.446 123.78C204.727 109.812 173.756 73.8345 173.756 44.2696C173.755 27.0244 187.788 12.9976 205.039 12.9976ZM230.817 136.895C231.643 137.26 232.536 137.449 233.44 137.449C234.343 137.449 235.236 137.26 236.063 136.895C269.204 122.269 306.128 80.6339 306.128 44.2696C306.128 19.8554 286.266 1.81052e-06 261.858 1.81052e-06C251.47 -0.00296845 241.412 3.6488 233.445 10.3158C225.48 3.6517 215.424 0.000219257 205.039 1.81052e-06C180.619 1.81052e-06 160.752 19.8554 160.752 44.2696C160.752 80.6339 197.681 122.269 230.817 136.895ZM283.691 350.003C283.795 350.003 283.898 350.031 283.988 350.083C284.078 350.136 284.152 350.212 284.203 350.303L292.643 365.524L292.42 366.3L223.113 404.759L214.103 388.526L283.691 350.003ZM274.692 400.689L265.97 395.849L246.85 406.465L265.682 416.91C270.158 419.393 275.815 417.775 278.291 413.299C280.786 408.824 279.157 403.165 274.692 400.689ZM201.198 416.91C196.734 419.393 191.069 417.775 188.588 413.299C186.106 408.823 187.724 403.165 192.2 400.689L202.734 394.837L211.744 411.069L201.198 416.91ZM174.461 366.3L200.91 380.98L220.048 370.37L183.472 350.079C183.336 350.007 183.178 349.99 183.031 350.032C182.883 350.074 182.757 350.17 182.679 350.302L174.239 365.523C174.167 365.656 174.15 365.812 174.192 365.957C174.233 366.102 174.33 366.225 174.461 366.3ZM158.822 316.097H136.05V302.57H160.493C161.346 302.571 162.192 302.403 162.981 302.078C163.77 301.752 164.487 301.273 165.091 300.67L189.358 276.392V299.323L158.822 316.097ZM105.095 309.333C105.095 313.056 108.13 316.097 111.865 316.097H123.046V302.57H111.865C108.13 302.57 105.095 305.598 105.095 309.333ZM214.525 254.612C207.82 254.612 202.362 260.077 202.362 266.782V345.698L233.445 362.931L264.523 345.698V266.782C264.523 260.077 259.071 254.612 252.366 254.612H214.525ZM233.445 201.562C244.491 201.562 253.472 210.543 253.472 221.588C253.472 232.628 244.49 241.609 233.445 241.609C222.401 241.609 213.414 232.627 213.414 221.588C213.414 210.543 222.401 201.562 233.445 201.562ZM306.387 302.57H330.842V316.097H308.063L277.528 299.323V276.392L301.794 300.67C303.014 301.885 304.665 302.568 306.387 302.57ZM361.79 309.333C361.789 307.54 361.076 305.82 359.808 304.552C358.54 303.284 356.82 302.571 355.027 302.57H343.846V316.097H355.027C358.755 316.097 361.79 313.056 361.79 309.333ZM303.259 328.289C304.217 328.818 305.293 329.097 306.388 329.101H355.028C365.926 329.101 374.795 320.226 374.795 309.334C374.795 298.429 365.926 289.573 355.028 289.573H309.082L275.623 256.101C275.37 255.852 275.096 255.624 274.806 255.419C271.618 249.156 265.89 244.392 258.99 242.504C263.66 236.799 266.471 229.517 266.471 221.59C266.471 203.375 251.662 188.559 233.447 188.559C215.239 188.559 200.412 203.375 200.412 221.59C200.412 229.517 203.229 236.799 207.911 242.504C201 244.392 195.266 249.156 192.084 255.419C191.794 255.625 191.521 255.853 191.267 256.101L157.799 289.572H111.865C100.96 289.572 92.0914 298.429 92.0914 309.333C92.0914 320.225 100.96 329.1 111.865 329.1H160.493C161.588 329.1 162.665 328.82 163.622 328.288L189.359 314.155V338.504C182.883 335.193 174.873 337.575 171.315 343.991L162.869 359.218C159.24 365.765 161.611 374.04 168.157 377.669L187.513 388.42L185.895 389.32C168.666 398.875 171.454 424.731 190.577 430.201C196.258 431.826 202.299 431.175 207.51 428.278L233.446 413.892L259.378 428.278C270.025 434.181 283.657 430.45 289.673 419.602C295.626 408.858 291.738 395.271 280.998 389.319L279.375 388.419L298.731 377.668C305.281 374.033 307.657 365.769 304.024 359.217L295.571 343.99C292.013 337.574 283.997 335.192 277.528 338.503V314.154L303.259 328.289ZM444.507 238.25H356.562C356.223 238.245 355.9 238.109 355.661 237.869C355.421 237.63 355.285 237.306 355.28 236.968V193.187L394.033 213.607V214.883C394.033 215.737 394.201 216.583 394.528 217.372C394.855 218.161 395.335 218.877 395.939 219.481C396.543 220.084 397.26 220.563 398.049 220.889C398.838 221.216 399.684 221.383 400.538 221.383C401.391 221.383 402.236 221.215 403.025 220.888C403.814 220.562 404.53 220.083 405.134 219.479C405.737 218.876 406.216 218.159 406.542 217.371C406.869 216.582 407.037 215.737 407.037 214.883V213.607L445.795 193.187V236.968C445.795 237.662 445.2 238.25 444.507 238.25ZM386.998 161.945C386.998 161.48 387.386 161.085 387.851 161.085H413.224C413.683 161.085 414.071 161.48 414.071 161.945V168.126H386.998V161.945ZM406.583 199.157C404.442 193.678 396.639 193.659 394.491 199.157L360.279 181.13H440.79L406.583 199.157ZM444.507 168.126C452.388 168.126 458.799 174.537 458.799 182.412V236.968C458.799 244.844 452.388 251.248 444.507 251.248H356.562C348.686 251.248 342.276 244.842 342.276 236.968V182.412C342.276 174.537 348.687 168.126 356.562 168.126H373.995V161.945C373.995 154.298 380.205 148.088 387.851 148.088H413.224C420.858 148.088 427.075 154.298 427.075 161.945V168.126H444.507ZM12.9987 233.204V228.164H123.792V233.204C123.79 234.541 123.258 235.824 122.312 236.77C121.366 237.716 120.084 238.248 118.746 238.25H18.0388C17.3765 238.25 16.7208 238.119 16.1091 237.865C15.4974 237.611 14.9416 237.239 14.4736 236.771C14.0056 236.302 13.6344 235.746 13.3814 235.134C13.1283 234.522 12.9983 233.866 12.9987 233.204ZM31.0538 164.48C31.0538 163.998 31.4829 163.569 31.9652 163.569H104.824C105.306 163.569 105.735 163.998 105.735 164.48V215.16H31.0538V164.48ZM136.791 233.204C136.791 243.149 128.692 251.248 118.747 251.248H18.0388C8.0937 251.248 2.02006e-06 243.149 2.02006e-06 233.204V221.658C-0.000671293 220.804 0.16698 219.959 0.493363 219.17C0.819747 218.381 1.29846 217.665 1.90211 217.061C2.50576 216.457 3.22251 215.979 4.01135 215.652C4.80019 215.326 5.64564 215.158 6.49933 215.159H18.0501V164.48C18.0501 156.805 24.2903 150.565 31.9652 150.565H104.824C112.494 150.565 118.739 156.805 118.739 164.48V215.16H130.29C131.143 215.159 131.989 215.327 132.778 215.653C133.567 215.98 134.283 216.458 134.887 217.062C135.491 217.666 135.969 218.382 136.296 219.171C136.622 219.96 136.79 220.805 136.789 221.659V233.204H136.791Z" fill="black"/>
</svg>
