<svg width="457" height="459" viewBox="0 0 457 459" fill="none" xmlns="http://www.w3.org/2000/svg">
<mask id="path-1-inside-1_1085_20" fill="white">
<path fill-rule="evenodd" clip-rule="evenodd" d="M98.3354 104.813C82.4585 104.813 69.5791 91.9084 69.5791 76.0315C69.5791 60.18 82.4839 47.2752 98.3354 47.2752C114.187 47.2752 127.092 60.18 127.092 76.0315C127.092 91.9084 114.187 104.813 98.3354 104.813ZM44.3538 196.645H16.131V207.899H44.3538V196.645ZM0 150.463C0 146.017 3.60724 142.41 8.07819 142.41H52.432C56.8776 142.41 60.4848 146.017 60.4848 150.463V386.559C60.4848 387.524 60.307 388.49 60.0021 389.353L37.876 453.268C35.3865 460.431 25.0983 460.431 22.6342 453.268L0.508062 389.379C0.177822 388.49 0 387.524 0 386.559V150.463ZM44.3538 180.514V158.541H16.131V180.514H44.3538ZM44.3538 378.506V224.03H16.131V378.506H44.3538ZM19.3826 394.637L30.2551 425.985L41.1022 394.637H19.3826ZM169.642 426.645C165.196 426.645 161.589 423.038 161.589 418.592C161.589 402.157 148.227 388.82 131.817 388.82C115.457 388.82 101.968 402.182 102.044 418.592C102.044 431.802 112.815 442.573 126.025 442.573H440.414V196.544H177.72V418.592C177.695 423.038 174.087 426.645 169.642 426.645ZM85.9133 418.592V188.491C85.9133 163.164 106.515 142.588 131.817 142.588C154.375 142.588 173.173 158.947 177.009 180.413H448.492C452.937 180.413 456.545 184.02 456.545 188.491V450.626C456.545 455.071 452.937 458.704 448.492 458.704H126.025C103.924 458.704 85.9133 440.693 85.9133 418.592ZM131.817 372.689C143.172 372.689 153.562 376.83 161.589 383.688V188.491C161.589 172.055 148.227 158.719 131.817 158.719C115.406 158.719 102.044 172.055 102.044 188.491V383.688C110.072 376.83 120.462 372.689 131.817 372.689ZM419.659 430.202H198.474C194.029 430.202 190.422 426.594 190.422 422.149V216.968C190.422 212.522 194.029 208.915 198.474 208.915H419.659C424.105 208.915 427.712 212.522 427.712 216.968V422.149C427.712 426.594 424.105 430.202 419.659 430.202ZM206.527 414.071H301.001V373.756C301.001 371.444 302.018 369.183 303.796 367.659C303.923 367.532 304.075 367.431 304.228 367.303C304.329 367.227 304.456 367.151 304.558 367.075C304.609 367.049 304.659 366.999 304.71 366.973C304.888 366.872 305.04 366.77 305.218 366.668C305.269 366.643 305.345 366.618 305.396 366.592C305.447 366.567 305.498 366.516 305.574 366.491C305.625 366.465 305.676 366.44 305.752 366.414C305.853 366.364 305.98 366.313 306.107 366.262C306.158 366.237 306.234 366.211 306.285 366.186C306.361 366.16 306.412 366.16 306.488 366.135C306.539 366.11 306.59 366.084 306.666 366.059C306.717 366.059 306.793 366.033 306.844 366.008C306.92 365.983 306.971 365.983 307.047 365.957C307.124 365.932 307.174 365.932 307.251 365.906C307.301 365.906 307.378 365.881 307.428 365.856C307.505 365.856 307.581 365.83 307.632 365.83C307.708 365.805 307.759 365.805 307.835 365.805C307.911 365.779 307.962 365.779 308.038 365.779C308.114 365.754 308.165 365.754 308.241 365.754C308.317 365.728 308.368 365.728 308.444 365.728C308.521 365.728 308.572 365.728 308.648 365.703H366.262C370.708 365.703 374.315 369.31 374.315 373.756C374.315 378.227 370.708 381.834 366.262 381.834H317.132V414.071H411.581V327.624H357.498C353.052 327.624 349.445 324.017 349.445 319.546C349.445 315.1 353.052 311.493 357.498 311.493H411.581V225.021H317.132V241.736C317.132 246.181 313.525 249.789 309.054 249.789C304.609 249.789 301.001 246.181 301.001 241.736V225.021H206.527V311.493H301.001V274.735C301.001 270.289 304.609 266.682 309.054 266.682C313.525 266.682 317.132 270.289 317.132 274.735V331.942C317.132 342.535 301.001 342.535 301.001 331.942V327.624H206.527V414.071ZM391.563 163.113H364.636C360.953 163.113 357.752 160.624 356.837 157.067L351.096 134.967C349.115 133.951 347.21 132.858 345.355 131.639L323.331 137.736C319.8 138.701 316.04 137.177 314.211 134.001L300.747 110.656C298.893 107.481 299.452 103.467 302.068 100.876L318.352 84.8464V78.2416L302.068 62.2122C299.452 59.6465 298.893 55.6074 300.747 52.432L314.211 29.112C316.04 25.9366 319.8 24.387 323.331 25.3777L345.355 31.449C347.21 30.2297 349.115 29.1374 351.096 28.1466L356.837 6.02054C357.752 2.4641 360.953 0 364.636 0H391.563C395.247 0 398.448 2.4641 399.362 6.02054L405.129 28.1466C407.085 29.1374 408.99 30.2297 410.844 31.449L432.869 25.3777C436.4 24.387 440.16 25.9366 441.989 29.112L455.478 52.432C457.307 55.6074 456.748 59.6211 454.131 62.2122L437.848 78.2416V84.8464L454.131 100.876C456.748 103.467 457.307 107.481 455.452 110.656L441.989 134.001C440.16 137.177 436.4 138.701 432.869 137.736L410.844 131.639C408.99 132.858 407.085 133.951 405.129 134.967L399.362 157.067C398.448 160.624 395.247 163.113 391.563 163.113ZM370.885 146.982H385.34L390.471 127.219C391.081 124.805 392.808 122.799 395.12 121.833C398.422 120.436 401.572 118.607 404.443 116.422C406.45 114.924 409.041 114.416 411.454 115.076L431.141 120.512L438.381 108.014L423.825 93.6867C420.244 90.1302 421.819 86.396 421.819 81.544C421.819 76.7174 420.244 72.9577 423.825 69.4267L438.381 55.0993L431.141 42.5756L411.454 48.0119C409.041 48.6723 406.45 48.1897 404.443 46.6655C401.572 44.4808 398.422 42.6772 395.12 41.28C392.808 40.2893 391.081 38.3079 390.471 35.8692L385.34 16.131H370.885L365.754 35.8692C365.119 38.3079 363.391 40.2893 361.08 41.28C357.777 42.6772 354.627 44.4808 351.757 46.6655C349.75 48.1897 347.159 48.6723 344.746 48.0119L325.058 42.5756L317.818 55.0993L332.374 69.4267C335.956 72.9577 334.381 76.7174 334.381 81.544C334.381 86.3706 335.956 90.1302 332.374 93.6867L317.818 107.989L325.058 120.512L344.746 115.076C347.159 114.416 349.75 114.924 351.757 116.422C354.627 118.607 357.777 120.436 361.08 121.833C363.391 122.799 365.119 124.805 365.754 127.219L370.885 146.982ZM378.1 113.526C360.47 113.526 346.117 99.1737 346.117 81.544C346.117 63.9142 360.47 49.5615 378.1 49.5615C395.73 49.5615 410.082 63.9142 410.082 81.544C410.082 99.1737 395.73 113.526 378.1 113.526ZM378.1 65.6924C369.361 65.6924 362.248 72.8053 362.248 81.544C362.248 90.2826 369.361 97.3955 378.1 97.3955C386.838 97.3955 393.951 90.2826 393.951 81.544C393.951 72.8053 386.838 65.6924 378.1 65.6924ZM171.09 132.96L8.07819 132.934C3.60724 132.934 0 129.327 0 124.882C0 120.436 3.60724 116.829 8.07819 116.829H17.5027V87.8693C17.5027 54.7437 41.5087 26.343 73.415 20.1701V8.05278C73.415 3.60724 77.0222 0 81.4932 0H115.178C119.623 0 123.256 3.60724 123.256 8.05278V20.1701C155.137 26.343 179.168 54.7437 179.168 87.8693V116.829H188.593C193.038 116.829 196.671 120.436 196.671 124.882C196.671 129.327 193.038 132.934 188.593 132.934L171.09 132.96ZM163.037 116.829V87.8693C163.037 60.561 141.724 37.4442 114.517 35.2341C110.351 34.9039 107.125 31.3982 107.125 27.2067V16.131H89.5459V27.2067C89.5459 31.3982 86.3197 34.9039 82.1282 35.2341C54.9469 37.4442 33.6337 60.561 33.6337 87.8693V116.829H163.037ZM98.3354 63.4061C91.375 63.4061 85.6847 69.071 85.6847 76.0315C85.6847 83.0173 91.375 88.6822 98.3354 88.6822C105.296 88.6822 110.961 83.0173 110.961 76.0315C110.961 69.071 105.296 63.4061 98.3354 63.4061Z"/>
</mask>
<path fill-rule="evenodd" clip-rule="evenodd" d="M98.3354 104.813C82.4585 104.813 69.5791 91.9084 69.5791 76.0315C69.5791 60.18 82.4839 47.2752 98.3354 47.2752C114.187 47.2752 127.092 60.18 127.092 76.0315C127.092 91.9084 114.187 104.813 98.3354 104.813ZM44.3538 196.645H16.131V207.899H44.3538V196.645ZM0 150.463C0 146.017 3.60724 142.41 8.07819 142.41H52.432C56.8776 142.41 60.4848 146.017 60.4848 150.463V386.559C60.4848 387.524 60.307 388.49 60.0021 389.353L37.876 453.268C35.3865 460.431 25.0983 460.431 22.6342 453.268L0.508062 389.379C0.177822 388.49 0 387.524 0 386.559V150.463ZM44.3538 180.514V158.541H16.131V180.514H44.3538ZM44.3538 378.506V224.03H16.131V378.506H44.3538ZM19.3826 394.637L30.2551 425.985L41.1022 394.637H19.3826ZM169.642 426.645C165.196 426.645 161.589 423.038 161.589 418.592C161.589 402.157 148.227 388.82 131.817 388.82C115.457 388.82 101.968 402.182 102.044 418.592C102.044 431.802 112.815 442.573 126.025 442.573H440.414V196.544H177.72V418.592C177.695 423.038 174.087 426.645 169.642 426.645ZM85.9133 418.592V188.491C85.9133 163.164 106.515 142.588 131.817 142.588C154.375 142.588 173.173 158.947 177.009 180.413H448.492C452.937 180.413 456.545 184.02 456.545 188.491V450.626C456.545 455.071 452.937 458.704 448.492 458.704H126.025C103.924 458.704 85.9133 440.693 85.9133 418.592ZM131.817 372.689C143.172 372.689 153.562 376.83 161.589 383.688V188.491C161.589 172.055 148.227 158.719 131.817 158.719C115.406 158.719 102.044 172.055 102.044 188.491V383.688C110.072 376.83 120.462 372.689 131.817 372.689ZM419.659 430.202H198.474C194.029 430.202 190.422 426.594 190.422 422.149V216.968C190.422 212.522 194.029 208.915 198.474 208.915H419.659C424.105 208.915 427.712 212.522 427.712 216.968V422.149C427.712 426.594 424.105 430.202 419.659 430.202ZM206.527 414.071H301.001V373.756C301.001 371.444 302.018 369.183 303.796 367.659C303.923 367.532 304.075 367.431 304.228 367.303C304.329 367.227 304.456 367.151 304.558 367.075C304.609 367.049 304.659 366.999 304.71 366.973C304.888 366.872 305.04 366.77 305.218 366.668C305.269 366.643 305.345 366.618 305.396 366.592C305.447 366.567 305.498 366.516 305.574 366.491C305.625 366.465 305.676 366.44 305.752 366.414C305.853 366.364 305.98 366.313 306.107 366.262C306.158 366.237 306.234 366.211 306.285 366.186C306.361 366.16 306.412 366.16 306.488 366.135C306.539 366.11 306.59 366.084 306.666 366.059C306.717 366.059 306.793 366.033 306.844 366.008C306.92 365.983 306.971 365.983 307.047 365.957C307.124 365.932 307.174 365.932 307.251 365.906C307.301 365.906 307.378 365.881 307.428 365.856C307.505 365.856 307.581 365.83 307.632 365.83C307.708 365.805 307.759 365.805 307.835 365.805C307.911 365.779 307.962 365.779 308.038 365.779C308.114 365.754 308.165 365.754 308.241 365.754C308.317 365.728 308.368 365.728 308.444 365.728C308.521 365.728 308.572 365.728 308.648 365.703H366.262C370.708 365.703 374.315 369.31 374.315 373.756C374.315 378.227 370.708 381.834 366.262 381.834H317.132V414.071H411.581V327.624H357.498C353.052 327.624 349.445 324.017 349.445 319.546C349.445 315.1 353.052 311.493 357.498 311.493H411.581V225.021H317.132V241.736C317.132 246.181 313.525 249.789 309.054 249.789C304.609 249.789 301.001 246.181 301.001 241.736V225.021H206.527V311.493H301.001V274.735C301.001 270.289 304.609 266.682 309.054 266.682C313.525 266.682 317.132 270.289 317.132 274.735V331.942C317.132 342.535 301.001 342.535 301.001 331.942V327.624H206.527V414.071ZM391.563 163.113H364.636C360.953 163.113 357.752 160.624 356.837 157.067L351.096 134.967C349.115 133.951 347.21 132.858 345.355 131.639L323.331 137.736C319.8 138.701 316.04 137.177 314.211 134.001L300.747 110.656C298.893 107.481 299.452 103.467 302.068 100.876L318.352 84.8464V78.2416L302.068 62.2122C299.452 59.6465 298.893 55.6074 300.747 52.432L314.211 29.112C316.04 25.9366 319.8 24.387 323.331 25.3777L345.355 31.449C347.21 30.2297 349.115 29.1374 351.096 28.1466L356.837 6.02054C357.752 2.4641 360.953 0 364.636 0H391.563C395.247 0 398.448 2.4641 399.362 6.02054L405.129 28.1466C407.085 29.1374 408.99 30.2297 410.844 31.449L432.869 25.3777C436.4 24.387 440.16 25.9366 441.989 29.112L455.478 52.432C457.307 55.6074 456.748 59.6211 454.131 62.2122L437.848 78.2416V84.8464L454.131 100.876C456.748 103.467 457.307 107.481 455.452 110.656L441.989 134.001C440.16 137.177 436.4 138.701 432.869 137.736L410.844 131.639C408.99 132.858 407.085 133.951 405.129 134.967L399.362 157.067C398.448 160.624 395.247 163.113 391.563 163.113ZM370.885 146.982H385.34L390.471 127.219C391.081 124.805 392.808 122.799 395.12 121.833C398.422 120.436 401.572 118.607 404.443 116.422C406.45 114.924 409.041 114.416 411.454 115.076L431.141 120.512L438.381 108.014L423.825 93.6867C420.244 90.1302 421.819 86.396 421.819 81.544C421.819 76.7174 420.244 72.9577 423.825 69.4267L438.381 55.0993L431.141 42.5756L411.454 48.0119C409.041 48.6723 406.45 48.1897 404.443 46.6655C401.572 44.4808 398.422 42.6772 395.12 41.28C392.808 40.2893 391.081 38.3079 390.471 35.8692L385.34 16.131H370.885L365.754 35.8692C365.119 38.3079 363.391 40.2893 361.08 41.28C357.777 42.6772 354.627 44.4808 351.757 46.6655C349.75 48.1897 347.159 48.6723 344.746 48.0119L325.058 42.5756L317.818 55.0993L332.374 69.4267C335.956 72.9577 334.381 76.7174 334.381 81.544C334.381 86.3706 335.956 90.1302 332.374 93.6867L317.818 107.989L325.058 120.512L344.746 115.076C347.159 114.416 349.75 114.924 351.757 116.422C354.627 118.607 357.777 120.436 361.08 121.833C363.391 122.799 365.119 124.805 365.754 127.219L370.885 146.982ZM378.1 113.526C360.47 113.526 346.117 99.1737 346.117 81.544C346.117 63.9142 360.47 49.5615 378.1 49.5615C395.73 49.5615 410.082 63.9142 410.082 81.544C410.082 99.1737 395.73 113.526 378.1 113.526ZM378.1 65.6924C369.361 65.6924 362.248 72.8053 362.248 81.544C362.248 90.2826 369.361 97.3955 378.1 97.3955C386.838 97.3955 393.951 90.2826 393.951 81.544C393.951 72.8053 386.838 65.6924 378.1 65.6924ZM171.09 132.96L8.07819 132.934C3.60724 132.934 0 129.327 0 124.882C0 120.436 3.60724 116.829 8.07819 116.829H17.5027V87.8693C17.5027 54.7437 41.5087 26.343 73.415 20.1701V8.05278C73.415 3.60724 77.0222 0 81.4932 0H115.178C119.623 0 123.256 3.60724 123.256 8.05278V20.1701C155.137 26.343 179.168 54.7437 179.168 87.8693V116.829H188.593C193.038 116.829 196.671 120.436 196.671 124.882C196.671 129.327 193.038 132.934 188.593 132.934L171.09 132.96ZM163.037 116.829V87.8693C163.037 60.561 141.724 37.4442 114.517 35.2341C110.351 34.9039 107.125 31.3982 107.125 27.2067V16.131H89.5459V27.2067C89.5459 31.3982 86.3197 34.9039 82.1282 35.2341C54.9469 37.4442 33.6337 60.561 33.6337 87.8693V116.829H163.037ZM98.3354 63.4061C91.375 63.4061 85.6847 69.071 85.6847 76.0315C85.6847 83.0173 91.375 88.6822 98.3354 88.6822C105.296 88.6822 110.961 83.0173 110.961 76.0315C110.961 69.071 105.296 63.4061 98.3354 63.4061Z" fill="black" stroke="black" stroke-width="8" mask="url(#path-1-inside-1_1085_20)"/>
</svg>
