<svg width="512" height="317" viewBox="0 0 512 317" fill="none" xmlns="http://www.w3.org/2000/svg">
<mask id="path-1-inside-1_1398_7" fill="white">
<path fill-rule="evenodd" clip-rule="evenodd" d="M170.852 183.822H31.269C29.1473 183.822 27.1124 182.979 25.6121 181.479C24.1119 179.979 23.269 177.944 23.269 175.822C23.269 173.7 24.1119 171.665 25.6121 170.165C27.1124 168.665 29.1473 167.822 31.269 167.822H170.852C172.974 167.822 175.009 168.665 176.509 170.165C178.009 171.665 178.852 173.7 178.852 175.822C178.852 177.944 178.009 179.979 176.509 181.479C175.009 182.979 172.974 183.822 170.852 183.822ZM155.583 130.098C155.583 127.976 154.74 125.941 153.24 124.441C151.74 122.941 149.705 122.098 147.583 122.098H8C5.87827 122.098 3.84344 122.941 2.34315 124.441C0.842855 125.941 0 127.976 0 130.098C0 132.22 0.842855 134.255 2.34315 135.755C3.84344 137.255 5.87827 138.098 8 138.098H147.583C149.705 138.098 151.74 137.255 153.24 135.755C154.74 134.255 155.583 132.22 155.583 130.098ZM46.271 92.373H185.853C187.975 92.373 190.01 91.5301 191.51 90.0299C193.01 88.5296 193.853 86.4947 193.853 84.373C193.853 82.2513 193.01 80.2164 191.51 78.7161C190.01 77.2159 187.975 76.373 185.853 76.373H46.271C44.1493 76.373 42.1144 77.2159 40.6141 78.7161C39.1139 80.2164 38.271 82.2513 38.271 84.373C38.271 86.4947 39.1139 88.5296 40.6141 90.0299C42.1144 91.5301 44.1493 92.373 46.271 92.373ZM512 162.611V261.632C512 273.13 502.646 282.485 491.147 282.485H470.437C466.686 301.982 449.507 316.759 428.932 316.759C408.357 316.759 391.178 301.982 387.427 282.485H223.905C220.154 301.982 202.975 316.759 182.4 316.759C161.825 316.759 144.646 301.982 140.895 282.485H96.137C82.277 282.485 71 271.209 71 257.348V208.29C71 206.168 71.8429 204.133 73.3431 202.633C74.8434 201.133 76.8783 200.29 79 200.29C81.1217 200.29 83.1566 201.133 84.6569 202.633C86.1571 204.133 87 206.168 87 208.29V257.348C87 262.386 91.099 266.485 96.137 266.485H140.895C144.645 246.989 161.825 232.212 182.4 232.212C202.975 232.212 220.154 246.989 223.905 266.485H345.863V25.137C345.863 20.099 341.764 16 336.726 16H96.137C91.099 16 87 20.099 87 25.137V51.904C87 54.0257 86.1571 56.0606 84.6569 57.5608C83.1566 59.0611 81.1217 59.904 79 59.904C76.8783 59.904 74.8434 59.0611 73.3431 57.5608C71.8429 56.0606 71 54.0257 71 51.904V25.137C71 11.277 82.276 0 96.137 0H336.726C350.586 0 361.863 11.276 361.863 25.137V54.994H448.562C460.887 54.994 471.371 61.652 475.921 72.37L509.912 152.405C511.337 155.763 512 159.005 512 162.611ZM208.674 274.485C208.674 259.998 196.887 248.212 182.4 248.212C167.913 248.212 156.126 259.998 156.126 274.485C156.126 288.972 167.913 300.759 182.4 300.759C196.887 300.759 208.674 288.973 208.674 274.485ZM455.206 274.485C455.206 259.998 443.419 248.212 428.932 248.212C414.445 248.212 402.658 259.998 402.658 274.485C402.658 288.972 414.445 300.759 428.932 300.759C443.419 300.759 455.206 288.973 455.206 274.485ZM496 261.633V251.986H482.254C474.576 251.986 468.329 245.739 468.329 238.061V213.176C468.329 205.498 474.576 199.251 482.254 199.251H496V162.611C496 161.149 495.771 160.04 495.185 158.657L461.195 78.624C459.196 73.918 454.356 70.994 448.562 70.994H361.863V266.485H387.427C391.177 246.989 408.357 232.212 428.932 232.212C449.507 232.212 466.686 246.989 470.437 266.485H491.147C492.434 266.484 493.667 265.972 494.577 265.062C495.487 264.153 495.998 262.92 496 261.633ZM484.329 215.251V235.985H496V215.251H484.329ZM474.218 164.214H380.205C378.083 164.214 376.048 163.371 374.548 161.871C373.048 160.371 372.205 158.336 372.205 156.214V89.337C372.205 87.2153 373.048 85.1804 374.548 83.6801C376.048 82.1798 378.083 81.337 380.205 81.337H445.815C447.385 81.337 448.92 81.799 450.23 82.6656C451.539 83.5321 452.564 84.7648 453.178 86.21L481.58 153.087C482.097 154.303 482.304 155.629 482.183 156.945C482.062 158.261 481.617 159.526 480.888 160.628C480.159 161.73 479.168 162.635 478.004 163.26C476.84 163.886 475.539 164.214 474.218 164.214ZM462.129 148.214L440.522 97.337H388.206V148.214H462.129ZM182.399 262.808C175.945 262.808 170.722 268.032 170.722 274.485C170.722 280.938 175.946 286.162 182.399 286.162C188.853 286.162 194.077 280.939 194.077 274.485C194.077 268.031 188.854 262.808 182.399 262.808ZM428.931 262.808C422.477 262.808 417.254 268.032 417.254 274.485C417.254 280.938 422.477 286.162 428.931 286.162C435.385 286.162 440.609 280.939 440.609 274.485C440.609 268.031 435.385 262.808 428.931 262.808Z"/>
</mask>
<path fill-rule="evenodd" clip-rule="evenodd" d="M170.852 183.822H31.269C29.1473 183.822 27.1124 182.979 25.6121 181.479C24.1119 179.979 23.269 177.944 23.269 175.822C23.269 173.7 24.1119 171.665 25.6121 170.165C27.1124 168.665 29.1473 167.822 31.269 167.822H170.852C172.974 167.822 175.009 168.665 176.509 170.165C178.009 171.665 178.852 173.7 178.852 175.822C178.852 177.944 178.009 179.979 176.509 181.479C175.009 182.979 172.974 183.822 170.852 183.822ZM155.583 130.098C155.583 127.976 154.74 125.941 153.24 124.441C151.74 122.941 149.705 122.098 147.583 122.098H8C5.87827 122.098 3.84344 122.941 2.34315 124.441C0.842855 125.941 0 127.976 0 130.098C0 132.22 0.842855 134.255 2.34315 135.755C3.84344 137.255 5.87827 138.098 8 138.098H147.583C149.705 138.098 151.74 137.255 153.24 135.755C154.74 134.255 155.583 132.22 155.583 130.098ZM46.271 92.373H185.853C187.975 92.373 190.01 91.5301 191.51 90.0299C193.01 88.5296 193.853 86.4947 193.853 84.373C193.853 82.2513 193.01 80.2164 191.51 78.7161C190.01 77.2159 187.975 76.373 185.853 76.373H46.271C44.1493 76.373 42.1144 77.2159 40.6141 78.7161C39.1139 80.2164 38.271 82.2513 38.271 84.373C38.271 86.4947 39.1139 88.5296 40.6141 90.0299C42.1144 91.5301 44.1493 92.373 46.271 92.373ZM512 162.611V261.632C512 273.13 502.646 282.485 491.147 282.485H470.437C466.686 301.982 449.507 316.759 428.932 316.759C408.357 316.759 391.178 301.982 387.427 282.485H223.905C220.154 301.982 202.975 316.759 182.4 316.759C161.825 316.759 144.646 301.982 140.895 282.485H96.137C82.277 282.485 71 271.209 71 257.348V208.29C71 206.168 71.8429 204.133 73.3431 202.633C74.8434 201.133 76.8783 200.29 79 200.29C81.1217 200.29 83.1566 201.133 84.6569 202.633C86.1571 204.133 87 206.168 87 208.29V257.348C87 262.386 91.099 266.485 96.137 266.485H140.895C144.645 246.989 161.825 232.212 182.4 232.212C202.975 232.212 220.154 246.989 223.905 266.485H345.863V25.137C345.863 20.099 341.764 16 336.726 16H96.137C91.099 16 87 20.099 87 25.137V51.904C87 54.0257 86.1571 56.0606 84.6569 57.5608C83.1566 59.0611 81.1217 59.904 79 59.904C76.8783 59.904 74.8434 59.0611 73.3431 57.5608C71.8429 56.0606 71 54.0257 71 51.904V25.137C71 11.277 82.276 0 96.137 0H336.726C350.586 0 361.863 11.276 361.863 25.137V54.994H448.562C460.887 54.994 471.371 61.652 475.921 72.37L509.912 152.405C511.337 155.763 512 159.005 512 162.611ZM208.674 274.485C208.674 259.998 196.887 248.212 182.4 248.212C167.913 248.212 156.126 259.998 156.126 274.485C156.126 288.972 167.913 300.759 182.4 300.759C196.887 300.759 208.674 288.973 208.674 274.485ZM455.206 274.485C455.206 259.998 443.419 248.212 428.932 248.212C414.445 248.212 402.658 259.998 402.658 274.485C402.658 288.972 414.445 300.759 428.932 300.759C443.419 300.759 455.206 288.973 455.206 274.485ZM496 261.633V251.986H482.254C474.576 251.986 468.329 245.739 468.329 238.061V213.176C468.329 205.498 474.576 199.251 482.254 199.251H496V162.611C496 161.149 495.771 160.04 495.185 158.657L461.195 78.624C459.196 73.918 454.356 70.994 448.562 70.994H361.863V266.485H387.427C391.177 246.989 408.357 232.212 428.932 232.212C449.507 232.212 466.686 246.989 470.437 266.485H491.147C492.434 266.484 493.667 265.972 494.577 265.062C495.487 264.153 495.998 262.92 496 261.633ZM484.329 215.251V235.985H496V215.251H484.329ZM474.218 164.214H380.205C378.083 164.214 376.048 163.371 374.548 161.871C373.048 160.371 372.205 158.336 372.205 156.214V89.337C372.205 87.2153 373.048 85.1804 374.548 83.6801C376.048 82.1798 378.083 81.337 380.205 81.337H445.815C447.385 81.337 448.92 81.799 450.23 82.6656C451.539 83.5321 452.564 84.7648 453.178 86.21L481.58 153.087C482.097 154.303 482.304 155.629 482.183 156.945C482.062 158.261 481.617 159.526 480.888 160.628C480.159 161.73 479.168 162.635 478.004 163.26C476.84 163.886 475.539 164.214 474.218 164.214ZM462.129 148.214L440.522 97.337H388.206V148.214H462.129ZM182.399 262.808C175.945 262.808 170.722 268.032 170.722 274.485C170.722 280.938 175.946 286.162 182.399 286.162C188.853 286.162 194.077 280.939 194.077 274.485C194.077 268.031 188.854 262.808 182.399 262.808ZM428.931 262.808C422.477 262.808 417.254 268.032 417.254 274.485C417.254 280.938 422.477 286.162 428.931 286.162C435.385 286.162 440.609 280.939 440.609 274.485C440.609 268.031 435.385 262.808 428.931 262.808Z" fill="black" stroke="black" stroke-width="2" mask="url(#path-1-inside-1_1398_7)"/>
</svg>
