<svg width="432" height="364" viewBox="0 0 432 364" fill="none" xmlns="http://www.w3.org/2000/svg">
<path fill-rule="evenodd" clip-rule="evenodd" d="M77.8564 69.1082L99.3152 71.577C101.399 71.8186 103.162 73.2497 103.806 75.2445C104.45 77.2392 103.877 79.4307 102.33 80.853L86.4167 95.4688L90.7014 116.641C91.1217 118.699 90.2988 120.81 88.5992 122.044C87.6601 122.724 86.5509 123.073 85.4417 123.073C84.5382 123.073 83.6259 122.849 82.803 122.384L63.9917 111.766L45.1717 122.384C43.347 123.422 41.0839 123.287 39.3845 122.053C37.6848 120.819 36.862 118.708 37.2823 116.65L41.5669 95.4778L25.654 80.8618C24.1065 79.4485 23.525 77.257 24.1781 75.2534C24.8311 73.2497 26.5843 71.8186 28.6685 71.577L50.1272 69.1082L59.1079 49.4563C59.9844 47.542 61.8897 46.3166 63.9917 46.3166C66.0939 46.3166 67.9992 47.542 68.8758 49.4563L77.8564 69.1082ZM75.2982 94.637C74.9226 92.7944 75.5398 90.8891 76.9261 89.6189L86.4257 80.8977L73.6165 79.4217C71.7471 79.207 70.128 78.0264 69.3498 76.3177L63.9917 64.5911L58.6338 76.3177C57.8557 78.0264 56.2365 79.207 54.3671 79.4217L41.558 80.8977L51.0575 89.6189C52.4439 90.8891 53.0611 92.7944 52.6855 94.637L50.1272 107.267L61.353 100.934C62.99 100.013 64.9937 100.013 66.6306 100.934L77.8564 107.267L75.2982 94.637ZM175.875 122.053C174.935 122.733 173.826 123.082 172.717 123.082C171.814 123.082 170.901 122.849 170.078 122.384L151.267 111.766L132.447 122.384C130.622 123.422 128.359 123.287 126.66 122.053C124.96 120.819 124.137 118.708 124.558 116.65L128.842 95.4778L112.929 80.8618C111.382 79.4485 110.801 77.257 111.453 75.2534C112.106 73.2497 113.86 71.8186 115.944 71.577L137.403 69.1082L146.383 49.4563C147.26 47.542 149.165 46.3166 151.267 46.3166C153.369 46.3166 155.275 47.542 156.151 49.4563L165.132 69.1082L186.591 71.577C188.674 71.8186 190.437 73.2587 191.081 75.2534C191.726 77.248 191.152 79.4397 189.606 80.8618L173.692 95.4778L177.977 116.65C178.398 118.708 177.573 120.819 175.875 122.053ZM148.629 100.934C150.265 100.013 152.269 100.013 153.906 100.934L165.132 107.267L162.574 94.637C162.198 92.7944 162.815 90.8891 164.201 89.6189L173.701 80.8977L160.892 79.4217C159.022 79.207 157.404 78.0264 156.625 76.3177L151.267 64.5911L145.909 76.3177C145.131 78.0264 143.512 79.207 141.643 79.4217L128.833 80.8977L138.333 89.6189C139.719 90.8891 140.337 92.7944 139.961 94.637L137.403 107.267L148.629 100.934ZM211.825 116.65L216.109 95.4778L200.196 80.853C198.648 79.4397 198.067 77.248 198.72 75.2445C199.374 73.2407 201.126 71.8096 203.211 71.568L224.669 69.0993L233.65 49.4473C234.527 47.5332 236.432 46.3076 238.534 46.3076C240.635 46.3076 242.54 47.5332 243.417 49.4473L252.398 69.0993L273.856 71.568C275.941 71.8096 277.704 73.2497 278.347 75.2445C278.991 77.2392 278.419 79.4307 276.871 80.853L260.958 95.4688L265.244 116.641C265.663 118.699 264.841 120.81 263.141 122.044C262.203 122.724 261.093 123.073 259.984 123.073C259.081 123.073 258.168 122.849 257.344 122.384L238.534 111.766L219.723 122.384C217.889 123.422 215.625 123.287 213.926 122.053C212.226 120.819 211.404 118.708 211.825 116.65ZM233.176 76.3177C232.398 78.0264 230.779 79.207 228.909 79.4217L216.1 80.8977L225.599 89.6189C226.986 90.8891 227.603 92.7944 227.228 94.637L224.669 107.267L235.895 100.934C236.717 100.478 237.622 100.245 238.534 100.245C239.446 100.245 240.35 100.469 241.172 100.934L252.398 107.267L249.839 94.637C249.464 92.7944 250.082 90.8891 251.468 89.6189L260.968 80.8977L248.158 79.4217C246.289 79.207 244.669 78.0264 243.891 76.3177L238.534 64.5911L233.176 76.3177ZM302.526 142.868H388.978C412.225 142.868 431.144 159.317 431.153 179.551V284.295C431.153 304.521 412.236 320.978 388.986 320.978H381.661V353.09C381.661 357.269 378.942 360.944 374.737 362.439C373.45 362.895 372.117 363.119 370.801 363.119C368.164 363.119 365.57 362.224 363.539 360.514L316.363 320.978H196.109C172.86 320.978 153.942 304.521 153.942 284.295V194.015H125.005L81.9889 230.063L73.1962 237.434C71.0583 239.223 68.3481 240.161 65.5751 240.161C64.1886 240.161 62.7843 239.929 61.4337 239.446C57.9182 238.193 55.3957 235.491 54.5281 232.227L54.1882 194.024H45.6637C20.4838 194.024 0 176.232 0 154.362V39.6616C0 17.7913 20.4838 0 45.6637 0H256.862C282.041 0 302.526 17.7913 302.526 39.6616V142.868ZM119.602 184.533C120.568 183.728 121.785 183.281 123.046 183.281V183.289H153.933V179.551C153.933 159.326 172.851 142.868 196.098 142.868H291.8V39.6616C291.8 23.7129 276.13 10.7339 256.871 10.7339H45.6637C26.4053 10.7339 10.7339 23.7129 10.7339 39.6616V154.344C10.7339 170.293 26.4053 183.272 45.6637 183.272H59.5641C62.5249 183.272 64.931 185.679 64.931 188.639V229.284C64.9493 229.297 64.9717 229.305 64.9981 229.314C65.0106 229.318 65.024 229.323 65.0384 229.328C65.5125 229.499 66.0045 229.446 66.2996 229.203L119.602 184.533ZM388.978 310.246C406.314 310.246 420.41 298.608 420.41 284.295V179.551C420.41 165.239 406.314 153.602 388.978 153.602H196.098C178.764 153.602 164.667 165.239 164.667 179.551V284.295C164.667 298.608 178.764 310.246 196.098 310.246H318.303C319.566 310.246 320.783 310.682 321.748 311.498L370.426 352.294C370.507 352.358 370.685 352.419 370.918 352.384V315.611C370.918 312.651 373.325 310.246 376.285 310.246H388.978ZM368.28 195.177C371.24 195.177 373.647 192.772 373.647 189.81C373.647 186.841 371.249 184.445 368.28 184.445H234.974C232.014 184.445 229.607 186.85 229.607 189.81C229.607 192.772 232.014 195.177 234.974 195.177H368.28ZM368.28 236.574C371.24 236.574 373.647 234.169 373.647 231.207C373.647 228.238 371.249 225.84 368.289 225.84H216.798C213.838 225.84 211.43 228.247 211.43 231.207C211.43 234.169 213.838 236.574 216.798 236.574H368.28ZM368.28 277.963C371.24 277.963 373.647 275.556 373.647 272.596C373.647 269.635 371.249 267.228 368.289 267.228H216.798C213.838 267.228 211.43 269.635 211.43 272.596C211.43 275.556 213.838 277.963 216.798 277.963H368.28Z" fill="black"/>
</svg>
