<svg width="213" height="213" viewBox="0 0 213 213" fill="none" xmlns="http://www.w3.org/2000/svg">
<path d="M124.154 5.68176e-05C120.528 -0.00144392 116.929 0.617618 113.512 1.83043C108.697 0.125434 103.543 -0.398934 98.4834 0.301393C93.4237 1.00172 88.6061 2.90628 84.4353 5.85503C80.2645 8.80377 76.8624 12.7106 74.515 17.2471C72.1675 21.7836 70.9432 26.8173 70.945 31.9252V56.7558H46.1143C45.2318 56.7558 44.3809 57.0848 43.7279 57.6786C43.0749 58.2724 42.6667 59.0883 42.5831 59.9669L35.2572 136.89L26.3195 152.531H3.54753C2.87327 152.531 2.21296 152.723 1.64397 153.085C1.07498 153.447 0.620888 153.963 0.334897 154.574C0.0489063 155.184 -0.0571342 155.864 0.0292018 156.533C0.115538 157.201 0.390674 157.832 0.82237 158.35L17.4429 178.293L10.7262 208.518C10.5746 209.2 10.628 209.912 10.8798 210.564C11.1315 211.217 11.5704 211.78 12.1413 212.184C12.7122 212.587 13.3896 212.813 14.0884 212.833C14.7873 212.853 15.4764 212.666 16.0693 212.295L28.8353 204.316L28.3919 208.951C28.3451 209.443 28.4016 209.939 28.5579 210.408C28.7142 210.877 28.9668 211.309 29.2995 211.674C29.6322 212.04 30.0377 212.332 30.4899 212.532C30.9421 212.731 31.4311 212.834 31.9254 212.834H209.287C209.781 212.834 210.27 212.731 210.722 212.531C211.174 212.331 211.579 212.039 211.912 211.673C212.244 211.308 212.496 210.877 212.653 210.408C212.809 209.939 212.865 209.443 212.818 208.951L198.629 59.9669C198.546 59.0883 198.138 58.2724 197.485 57.6786C196.832 57.0848 195.981 56.7558 195.098 56.7558H156.079V31.9252C156.069 23.461 152.703 15.3463 146.717 9.36121C140.732 3.37615 132.618 0.00956295 124.154 5.68176e-05ZM78.0395 31.9252C78.0469 25.3419 80.6653 19.0305 85.3204 14.3754C89.9754 9.72037 96.2869 7.10192 102.87 7.09453C103.276 7.09453 103.678 7.10606 104.079 7.12512C100.379 10.1129 97.3939 13.8908 95.3433 18.1821C93.2927 22.4734 92.2284 27.1691 92.2284 31.9252V56.7558H78.0395V31.9252ZM127.701 31.9252V56.7558H99.3229V31.9252C99.3274 27.2279 100.663 22.628 103.174 18.6583C105.685 14.6886 109.269 11.5115 113.512 9.49512C117.754 11.5115 121.339 14.6886 123.85 18.6583C126.361 22.628 127.696 27.2279 127.701 31.9252ZM24.0089 175.091L11.1209 159.626H28.3782C29.0035 159.626 29.6178 159.46 30.1587 159.146C30.6995 158.833 31.1478 158.381 31.4581 157.838L42.5671 138.398L53.6762 157.838C53.9864 158.381 54.4347 158.833 54.9756 159.146C55.5165 159.46 56.1307 159.626 56.7561 159.626H74.0134L61.1254 175.091C60.7781 175.507 60.531 175.998 60.4031 176.525C60.2752 177.052 60.2699 177.602 60.3875 178.131L65.6459 201.793L44.4471 188.544C43.8834 188.192 43.2319 188.005 42.5671 188.005C41.9023 188.005 41.2509 188.192 40.6871 188.544L19.4884 201.793L24.7467 178.131C24.8643 177.602 24.859 177.052 24.7311 176.525C24.6032 175.998 24.3561 175.507 24.0089 175.091ZM36.4131 199.58L42.5671 195.734L58.574 205.74H35.8274L36.4131 199.58ZM189.848 193.686L201.116 205.74H180.877L189.848 193.686ZM204.769 199.258L192.955 186.621L181.264 63.8503H191.874L204.769 199.258ZM185.88 187.137L176.474 199.774L163.528 63.8503H174.138L185.88 187.137ZM169.913 205.74H73.7903L67.6913 178.293L84.3119 158.349C84.7433 157.831 85.0182 157.2 85.1044 156.532C85.1906 155.863 85.0845 155.184 84.7985 154.574C84.5125 153.963 84.0586 153.447 83.4897 153.085C82.9209 152.723 82.2608 152.531 81.5867 152.531H58.8148L45.6457 129.488C45.3928 129.047 45.048 128.666 44.6349 128.371C44.2218 128.075 43.7499 127.872 43.2513 127.775L49.3397 63.8503H70.945V78.6494C68.5782 79.4861 66.5835 81.1327 65.3133 83.2979C64.0431 85.4632 63.5793 88.0078 64.0038 90.482C64.4283 92.9562 65.7138 95.2006 67.6331 96.8187C69.5524 98.4367 71.9819 99.3242 74.4922 99.3242C77.0026 99.3242 79.4321 98.4367 81.3514 96.8187C83.2707 95.2006 84.5562 92.9562 84.9807 90.482C85.4052 88.0078 84.9413 85.4632 83.6712 83.2979C82.401 81.1327 80.4062 79.4861 78.0395 78.6494V63.8503H127.701V78.6494C125.334 79.4861 123.339 81.1327 122.069 83.2979C120.799 85.4632 120.335 88.0078 120.76 90.482C121.184 92.9562 122.47 95.2006 124.389 96.8187C126.308 98.4367 128.738 99.3242 131.248 99.3242C133.758 99.3242 136.188 98.4367 138.107 96.8187C140.026 95.2006 141.312 92.9562 141.736 90.482C142.161 88.0078 141.697 85.4632 140.427 83.2979C139.157 81.1327 137.162 79.4861 134.795 78.6494V63.8503H156.401L169.913 205.74ZM78.0395 88.6809C78.0395 89.3825 77.8314 90.0683 77.4417 90.6517C77.0519 91.235 76.4979 91.6897 75.8497 91.9581C75.2015 92.2266 74.4883 92.2969 73.8002 92.16C73.1121 92.0231 72.48 91.6853 71.9839 91.1892C71.4879 90.6931 71.15 90.0611 71.0132 89.373C70.8763 88.6849 70.9465 87.9716 71.215 87.3235C71.4835 86.6753 71.9381 86.1213 72.5215 85.7315C73.1048 85.3417 73.7906 85.1337 74.4922 85.1337C75.4327 85.1348 76.3343 85.5088 76.9993 86.1738C77.6643 86.8388 78.0384 87.7405 78.0395 88.6809ZM134.795 88.6809C134.795 89.3825 134.587 90.0683 134.197 90.6517C133.808 91.235 133.254 91.6897 132.605 91.9581C131.957 92.2266 131.244 92.2969 130.556 92.16C129.868 92.0231 129.236 91.6853 128.74 91.1892C128.244 90.6931 127.906 90.0611 127.769 89.373C127.632 88.6849 127.702 87.9716 127.971 87.3235C128.239 86.6753 128.694 86.1213 129.277 85.7315C129.861 85.3417 130.546 85.1337 131.248 85.1337C132.188 85.1348 133.09 85.5088 133.755 86.1738C134.42 86.8388 134.794 87.7405 134.795 88.6809ZM148.984 31.9252V56.7558H134.795V31.9252C134.795 27.1691 133.731 22.4734 131.68 18.1821C129.63 13.8909 126.645 10.1129 122.944 7.12512C123.343 7.10606 123.748 7.09453 124.154 7.09453C130.737 7.10192 137.048 9.72037 141.703 14.3754C146.358 19.0305 148.977 25.3419 148.984 31.9252Z" fill="black"/>
</svg>
