<svg width="182" height="281" viewBox="0 0 182 281" fill="none" xmlns="http://www.w3.org/2000/svg">
<mask id="path-1-inside-1_823_4" fill="white">
<path d="M163.785 193.032V29.2473C163.785 21.4904 160.704 14.0513 155.219 8.56634C149.734 3.0814 142.294 0 134.538 0L29.2473 0C21.4904 0 14.0513 3.0814 8.56634 8.56634C3.0814 14.0513 0 21.4904 0 29.2473V239.828C0 247.585 3.0814 255.024 8.56634 260.509C14.0513 265.994 21.4904 269.075 29.2473 269.075H66.0404L78.0903 279.37C79.2694 280.379 80.8007 280.877 82.3474 280.757C83.8942 280.636 85.3297 279.906 86.3381 278.727C87.3464 277.548 87.8452 276.016 87.7245 274.47C87.6038 272.923 86.8737 271.488 85.6946 270.479L50.5978 240.296C49.6825 239.494 49.0732 238.4 48.8736 237.199C48.6741 235.999 48.8966 234.766 49.5034 233.711C50.1101 232.656 51.0636 231.844 52.2016 231.413C53.3397 230.982 54.5919 230.958 55.7454 231.346L80.0206 239.828C80.9003 240.118 81.8363 240.195 82.7515 240.053C83.6668 239.91 84.5352 239.553 85.2851 239.009C86.0826 238.443 86.7253 237.686 87.1544 236.807C87.5836 235.928 87.7856 234.956 87.7419 233.978V157.935C87.7419 156.384 88.3582 154.896 89.4552 153.799C90.5522 152.702 92.04 152.086 93.5914 152.086C95.1428 152.086 96.6306 152.702 97.7276 153.799C98.8246 154.896 99.4408 156.384 99.4408 157.935V222.28C99.4408 223.831 100.057 225.319 101.154 226.416C102.251 227.513 103.739 228.129 105.29 228.129C106.842 228.129 108.33 227.513 109.427 226.416C110.523 225.319 111.14 223.831 111.14 222.28V198.882C111.14 197.33 111.756 195.842 112.853 194.745C113.95 193.649 115.438 193.032 116.989 193.032C118.541 193.032 120.028 193.649 121.125 194.745C122.222 195.842 122.839 197.33 122.839 198.882V222.28C122.839 223.831 123.455 225.319 124.552 226.416C125.649 227.513 127.137 228.129 128.688 228.129C130.24 228.129 131.727 227.513 132.824 226.416C133.921 225.319 134.538 223.831 134.538 222.28V204.731C134.538 203.18 135.154 201.692 136.251 200.595C137.348 199.498 138.836 198.882 140.387 198.882C141.938 198.882 143.426 199.498 144.523 200.595C145.62 201.692 146.237 203.18 146.237 204.731V222.28C146.237 223.831 146.853 225.319 147.95 226.416C149.047 227.513 150.535 228.129 152.086 228.129C153.637 228.129 155.125 227.513 156.222 226.416C157.319 225.319 157.935 223.831 157.935 222.28V210.581C157.935 209.029 158.552 207.541 159.649 206.444C160.746 205.347 162.234 204.731 163.785 204.731C165.336 204.731 166.824 205.347 167.921 206.444C169.018 207.541 169.634 209.029 169.634 210.581V274.925C169.634 276.476 170.251 277.964 171.348 279.061C172.445 280.158 173.932 280.774 175.484 280.774C177.035 280.774 178.523 280.158 179.62 279.061C180.717 277.964 181.333 276.476 181.333 274.925V210.581C181.333 205.926 179.484 201.463 176.193 198.172C172.903 194.881 168.439 193.032 163.785 193.032ZM111.14 11.6989V17.5484C111.14 19.0998 110.523 20.5876 109.427 21.6846C108.33 22.7816 106.842 23.3978 105.29 23.3978H58.4946C56.9432 23.3978 55.4554 22.7816 54.3584 21.6846C53.2614 20.5876 52.6452 19.0998 52.6452 17.5484V11.6989H111.14ZM93.5914 140.387C89.9709 140.397 86.4422 141.527 83.489 143.621C80.5358 145.716 78.3027 148.673 77.0959 152.086H40.9462V146.237C40.9462 140.859 42.0053 135.535 44.0631 130.567C46.1208 125.599 49.1369 121.085 52.9391 117.283C56.7413 113.481 61.2552 110.465 66.223 108.407C71.1908 106.349 76.5153 105.29 81.8925 105.29C87.2696 105.29 92.5941 106.349 97.5619 108.407C102.53 110.465 107.044 113.481 110.846 117.283C114.648 121.085 117.664 125.599 119.722 130.567C121.78 135.535 122.839 140.859 122.839 146.237V152.086H110.087C108.88 148.673 106.647 145.716 103.694 143.621C100.741 141.527 97.2119 140.397 93.5914 140.387ZM140.387 187.183C137.365 187.194 134.399 188.001 131.788 189.523C129.66 186.174 126.46 183.645 122.71 182.349C118.96 181.053 114.881 181.066 111.14 182.386V163.785H134.538C136.089 163.785 137.577 163.169 138.674 162.072C139.771 160.975 140.387 159.487 140.387 157.935C140.387 156.384 139.771 154.896 138.674 153.799C137.577 152.702 136.089 152.086 134.538 152.086V146.237C134.531 133.291 129.756 120.802 121.124 111.155C112.491 101.509 100.607 95.3807 87.7419 93.9424V87.7419C87.7419 86.1906 87.1256 84.7027 86.0287 83.6057C84.9317 82.5087 83.4438 81.8925 81.8925 81.8925C80.3411 81.8925 78.8532 82.5087 77.7563 83.6057C76.6593 84.7027 76.043 86.1906 76.043 87.7419V93.9424C63.1779 95.3807 51.2938 101.509 42.6614 111.155C34.029 120.802 29.2535 133.291 29.2473 146.237V152.086C27.6959 152.086 26.2081 152.702 25.1111 153.799C24.0141 154.896 23.3978 156.384 23.3978 157.935C23.3978 159.487 24.0141 160.975 25.1111 162.072C26.2081 163.169 27.6959 163.785 29.2473 163.785H76.043V225.848L59.1966 219.998C55.4746 218.756 51.4371 218.843 47.7718 220.243C44.1066 221.644 41.0402 224.272 39.0949 227.68C37.1497 231.087 36.4459 235.064 37.1034 238.932C37.761 242.8 39.7391 246.321 42.7011 248.895L52.6452 257.376H29.2473C24.5932 257.376 20.1297 255.527 16.8387 252.236C13.5478 248.946 11.6989 244.482 11.6989 239.828V29.2473C11.6989 24.5932 13.5478 20.1297 16.8387 16.8387C20.1297 13.5478 24.5932 11.6989 29.2473 11.6989H40.9462V17.5484C40.9462 22.2025 42.7951 26.666 46.086 29.957C49.377 33.2479 53.8405 35.0968 58.4946 35.0968H105.29C109.944 35.0968 114.408 33.2479 117.699 29.957C120.99 26.666 122.839 22.2025 122.839 17.5484V11.6989H134.538C139.192 11.6989 143.655 13.5478 146.946 16.8387C150.237 20.1297 152.086 24.5932 152.086 29.2473V191.745C148.883 188.834 144.716 187.209 140.387 187.183Z"/>
</mask>
<path d="M163.785 193.032V29.2473C163.785 21.4904 160.704 14.0513 155.219 8.56634C149.734 3.0814 142.294 0 134.538 0L29.2473 0C21.4904 0 14.0513 3.0814 8.56634 8.56634C3.0814 14.0513 0 21.4904 0 29.2473V239.828C0 247.585 3.0814 255.024 8.56634 260.509C14.0513 265.994 21.4904 269.075 29.2473 269.075H66.0404L78.0903 279.37C79.2694 280.379 80.8007 280.877 82.3474 280.757C83.8942 280.636 85.3297 279.906 86.3381 278.727C87.3464 277.548 87.8452 276.016 87.7245 274.47C87.6038 272.923 86.8737 271.488 85.6946 270.479L50.5978 240.296C49.6825 239.494 49.0732 238.4 48.8736 237.199C48.6741 235.999 48.8966 234.766 49.5034 233.711C50.1101 232.656 51.0636 231.844 52.2016 231.413C53.3397 230.982 54.5919 230.958 55.7454 231.346L80.0206 239.828C80.9003 240.118 81.8363 240.195 82.7515 240.053C83.6668 239.91 84.5352 239.553 85.2851 239.009C86.0826 238.443 86.7253 237.686 87.1544 236.807C87.5836 235.928 87.7856 234.956 87.7419 233.978V157.935C87.7419 156.384 88.3582 154.896 89.4552 153.799C90.5522 152.702 92.04 152.086 93.5914 152.086C95.1428 152.086 96.6306 152.702 97.7276 153.799C98.8246 154.896 99.4408 156.384 99.4408 157.935V222.28C99.4408 223.831 100.057 225.319 101.154 226.416C102.251 227.513 103.739 228.129 105.29 228.129C106.842 228.129 108.33 227.513 109.427 226.416C110.523 225.319 111.14 223.831 111.14 222.28V198.882C111.14 197.33 111.756 195.842 112.853 194.745C113.95 193.649 115.438 193.032 116.989 193.032C118.541 193.032 120.028 193.649 121.125 194.745C122.222 195.842 122.839 197.33 122.839 198.882V222.28C122.839 223.831 123.455 225.319 124.552 226.416C125.649 227.513 127.137 228.129 128.688 228.129C130.24 228.129 131.727 227.513 132.824 226.416C133.921 225.319 134.538 223.831 134.538 222.28V204.731C134.538 203.18 135.154 201.692 136.251 200.595C137.348 199.498 138.836 198.882 140.387 198.882C141.938 198.882 143.426 199.498 144.523 200.595C145.62 201.692 146.237 203.18 146.237 204.731V222.28C146.237 223.831 146.853 225.319 147.95 226.416C149.047 227.513 150.535 228.129 152.086 228.129C153.637 228.129 155.125 227.513 156.222 226.416C157.319 225.319 157.935 223.831 157.935 222.28V210.581C157.935 209.029 158.552 207.541 159.649 206.444C160.746 205.347 162.234 204.731 163.785 204.731C165.336 204.731 166.824 205.347 167.921 206.444C169.018 207.541 169.634 209.029 169.634 210.581V274.925C169.634 276.476 170.251 277.964 171.348 279.061C172.445 280.158 173.932 280.774 175.484 280.774C177.035 280.774 178.523 280.158 179.62 279.061C180.717 277.964 181.333 276.476 181.333 274.925V210.581C181.333 205.926 179.484 201.463 176.193 198.172C172.903 194.881 168.439 193.032 163.785 193.032ZM111.14 11.6989V17.5484C111.14 19.0998 110.523 20.5876 109.427 21.6846C108.33 22.7816 106.842 23.3978 105.29 23.3978H58.4946C56.9432 23.3978 55.4554 22.7816 54.3584 21.6846C53.2614 20.5876 52.6452 19.0998 52.6452 17.5484V11.6989H111.14ZM93.5914 140.387C89.9709 140.397 86.4422 141.527 83.489 143.621C80.5358 145.716 78.3027 148.673 77.0959 152.086H40.9462V146.237C40.9462 140.859 42.0053 135.535 44.0631 130.567C46.1208 125.599 49.1369 121.085 52.9391 117.283C56.7413 113.481 61.2552 110.465 66.223 108.407C71.1908 106.349 76.5153 105.29 81.8925 105.29C87.2696 105.29 92.5941 106.349 97.5619 108.407C102.53 110.465 107.044 113.481 110.846 117.283C114.648 121.085 117.664 125.599 119.722 130.567C121.78 135.535 122.839 140.859 122.839 146.237V152.086H110.087C108.88 148.673 106.647 145.716 103.694 143.621C100.741 141.527 97.2119 140.397 93.5914 140.387ZM140.387 187.183C137.365 187.194 134.399 188.001 131.788 189.523C129.66 186.174 126.46 183.645 122.71 182.349C118.96 181.053 114.881 181.066 111.14 182.386V163.785H134.538C136.089 163.785 137.577 163.169 138.674 162.072C139.771 160.975 140.387 159.487 140.387 157.935C140.387 156.384 139.771 154.896 138.674 153.799C137.577 152.702 136.089 152.086 134.538 152.086V146.237C134.531 133.291 129.756 120.802 121.124 111.155C112.491 101.509 100.607 95.3807 87.7419 93.9424V87.7419C87.7419 86.1906 87.1256 84.7027 86.0287 83.6057C84.9317 82.5087 83.4438 81.8925 81.8925 81.8925C80.3411 81.8925 78.8532 82.5087 77.7563 83.6057C76.6593 84.7027 76.043 86.1906 76.043 87.7419V93.9424C63.1779 95.3807 51.2938 101.509 42.6614 111.155C34.029 120.802 29.2535 133.291 29.2473 146.237V152.086C27.6959 152.086 26.2081 152.702 25.1111 153.799C24.0141 154.896 23.3978 156.384 23.3978 157.935C23.3978 159.487 24.0141 160.975 25.1111 162.072C26.2081 163.169 27.6959 163.785 29.2473 163.785H76.043V225.848L59.1966 219.998C55.4746 218.756 51.4371 218.843 47.7718 220.243C44.1066 221.644 41.0402 224.272 39.0949 227.68C37.1497 231.087 36.4459 235.064 37.1034 238.932C37.761 242.8 39.7391 246.321 42.7011 248.895L52.6452 257.376H29.2473C24.5932 257.376 20.1297 255.527 16.8387 252.236C13.5478 248.946 11.6989 244.482 11.6989 239.828V29.2473C11.6989 24.5932 13.5478 20.1297 16.8387 16.8387C20.1297 13.5478 24.5932 11.6989 29.2473 11.6989H40.9462V17.5484C40.9462 22.2025 42.7951 26.666 46.086 29.957C49.377 33.2479 53.8405 35.0968 58.4946 35.0968H105.29C109.944 35.0968 114.408 33.2479 117.699 29.957C120.99 26.666 122.839 22.2025 122.839 17.5484V11.6989H134.538C139.192 11.6989 143.655 13.5478 146.946 16.8387C150.237 20.1297 152.086 24.5932 152.086 29.2473V191.745C148.883 188.834 144.716 187.209 140.387 187.183Z" fill="black" stroke="white" stroke-width="3.29032" mask="url(#path-1-inside-1_823_4)"/>
</svg>
