<svg width="222" height="222" viewBox="0 0 222 222" fill="none" xmlns="http://www.w3.org/2000/svg">
<path d="M114.073 157.076L106.977 158.021C107.27 160.223 107.417 162.472 107.417 164.71H114.578C114.578 162.16 114.41 159.589 114.073 157.076Z" fill="black"/>
<path d="M211.258 21.4839H207.677V10.7419C207.677 4.81955 202.858 0 196.935 0H189.774C183.852 0 179.032 4.81955 179.032 10.7419V21.4839H78.7742V10.7419C78.7742 4.81955 73.9546 0 68.0323 0H60.871C54.9486 0 50.129 4.81955 50.129 10.7419V21.4839H46.5484C40.626 21.4839 35.8065 26.3034 35.8065 32.2258V111.637C14.8382 120.156 0 140.719 0 164.71C0 196.298 25.7019 222 57.2903 222C80.987 222 101.773 207.323 110.359 186.194H211.258C217.18 186.194 222 181.374 222 175.452V32.2258C222 26.3034 217.18 21.4839 211.258 21.4839ZM186.194 10.7419C186.194 8.769 187.798 7.16129 189.774 7.16129H196.935C198.912 7.16129 200.516 8.769 200.516 10.7419V39.3871C200.516 41.36 198.912 42.9677 196.935 42.9677H189.774C187.798 42.9677 186.194 41.36 186.194 39.3871V10.7419ZM57.2903 10.7419C57.2903 8.769 58.8945 7.16129 60.871 7.16129H68.0323C70.0088 7.16129 71.6129 8.769 71.6129 10.7419V39.3871C71.6129 41.36 70.0088 42.9677 68.0323 42.9677H60.871C58.8945 42.9677 57.2903 41.36 57.2903 39.3871V10.7419ZM106.979 171.398C103.678 196.162 82.3154 214.839 57.2903 214.839C29.6477 214.839 7.16129 192.352 7.16129 164.71C7.16129 137.067 29.6477 114.581 57.2903 114.581C79.7696 114.581 99.6422 129.698 105.618 151.34L112.522 149.435C105.693 124.696 82.9815 107.419 57.2903 107.419C52.3383 107.419 47.5545 108.118 42.9677 109.306V32.2258C42.9677 30.2529 44.5719 28.6452 46.5484 28.6452H50.129V39.3871C50.129 45.3095 54.9486 50.129 60.871 50.129H68.0323C73.9546 50.129 78.7742 45.3095 78.7742 39.3871V28.6452H179.032V39.3871C179.032 45.3095 183.852 50.129 189.774 50.129H196.935C202.858 50.129 207.677 45.3095 207.677 39.3871V28.6452H211.258C213.235 28.6452 214.839 30.2529 214.839 32.2258V64.4516H64.4516V71.6129H214.839V142.796L203.427 126.823C203.142 126.42 202.776 126.082 202.353 125.828C201.929 125.574 201.458 125.41 200.969 125.347C200.479 125.284 199.982 125.323 199.509 125.462C199.035 125.601 198.595 125.836 198.217 126.153L186.194 136.176V121.742H207.677V114.581H182.613C181.663 114.581 180.752 114.958 180.081 115.629C179.409 116.301 179.032 117.212 179.032 118.161V142.144L134.768 179.032H112.726C113.292 176.848 113.775 174.628 114.079 172.344L106.979 171.398ZM199.843 134.124L212.952 152.478L153.209 179.032H145.954L199.843 134.124ZM211.258 179.032H170.84L214.839 159.478V175.452C214.839 177.425 213.235 179.032 211.258 179.032Z" fill="black"/>
<path d="M50.1268 64.4517H57.2881V71.613H50.1268V64.4517ZM78.7719 103.839V82.3549C78.7719 81.4052 78.3947 80.4945 77.7232 79.823C77.0517 79.1515 76.1409 78.7742 75.1913 78.7742H53.7074C52.7578 78.7742 51.847 79.1515 51.1755 79.823C50.504 80.4945 50.1268 81.4052 50.1268 82.3549V103.839C50.1268 104.788 50.504 105.699 51.1755 106.371C51.847 107.042 52.7578 107.419 53.7074 107.419H75.1913C76.1409 107.419 77.0517 107.042 77.7232 106.371C78.3947 105.699 78.7719 104.788 78.7719 103.839ZM71.6106 100.258H57.2881V85.9355H71.6106V100.258ZM118.159 107.419C119.109 107.419 120.019 107.042 120.691 106.371C121.362 105.699 121.74 104.788 121.74 103.839V82.3549C121.74 81.4052 121.362 80.4945 120.691 79.823C120.019 79.1515 119.109 78.7742 118.159 78.7742H96.6752C95.7255 78.7742 94.8148 79.1515 94.1433 79.823C93.4718 80.4945 93.0945 81.4052 93.0945 82.3549V103.839C93.0945 104.788 93.4718 105.699 94.1433 106.371C94.8148 107.042 95.7255 107.419 96.6752 107.419H118.159ZM100.256 85.9355H114.578V100.258H100.256V85.9355ZM139.643 107.419H161.127C162.076 107.419 162.987 107.042 163.659 106.371C164.33 105.699 164.707 104.788 164.707 103.839V82.3549C164.707 81.4052 164.33 80.4945 163.659 79.823C162.987 79.1515 162.076 78.7742 161.127 78.7742H139.643C138.693 78.7742 137.782 79.1515 137.111 79.823C136.439 80.4945 136.062 81.4052 136.062 82.3549V103.839C136.062 104.788 136.439 105.699 137.111 106.371C137.782 107.042 138.693 107.419 139.643 107.419ZM143.224 85.9355H157.546V100.258H143.224V85.9355ZM182.611 107.419H204.095C205.044 107.419 205.955 107.042 206.626 106.371C207.298 105.699 207.675 104.788 207.675 103.839V82.3549C207.675 81.4052 207.298 80.4945 206.626 79.823C205.955 79.1515 205.044 78.7742 204.095 78.7742H182.611C181.661 78.7742 180.75 79.1515 180.079 79.823C179.407 80.4945 179.03 81.4052 179.03 82.3549V103.839C179.03 104.788 179.407 105.699 180.079 106.371C180.75 107.042 181.661 107.419 182.611 107.419ZM186.191 85.9355H200.514V100.258H186.191V85.9355ZM114.578 143.226H121.74V118.161C121.74 117.212 121.362 116.301 120.691 115.629C120.019 114.958 119.109 114.581 118.159 114.581H96.6752V121.742H114.578V143.226ZM139.643 143.226H161.127C162.076 143.226 162.987 142.849 163.659 142.177C164.33 141.506 164.707 140.595 164.707 139.645V118.161C164.707 117.212 164.33 116.301 163.659 115.629C162.987 114.958 162.076 114.581 161.127 114.581H139.643C138.693 114.581 137.782 114.958 137.111 115.629C136.439 116.301 136.062 117.212 136.062 118.161V139.645C136.062 140.595 136.439 141.506 137.111 142.177C137.782 142.849 138.693 143.226 139.643 143.226ZM143.224 121.742H157.546V136.065H143.224V121.742ZM57.2881 121.742C33.5949 121.742 14.3203 141.017 14.3203 164.71C14.3203 188.403 33.5949 207.677 57.2881 207.677C80.9812 207.677 100.256 188.403 100.256 164.71C100.256 141.017 80.9812 121.742 57.2881 121.742ZM92.9119 168.29C92.2115 175.287 89.457 181.92 84.9951 187.354L80.0753 182.434L75.0123 187.497L79.9321 192.417C74.4978 196.879 67.865 199.633 60.8687 200.334V193.355H53.7074V200.334C46.711 199.634 40.0781 196.879 34.6441 192.417L39.5639 187.497L34.5008 182.434L29.581 187.354C25.1178 181.92 22.3631 175.287 21.6642 168.29H28.6429V161.129H21.6642C22.3646 154.133 25.1191 147.5 29.581 142.066L34.5008 146.986L39.5639 141.923L34.6441 137.003C40.0783 132.541 46.7111 129.786 53.7074 129.086V136.065H60.8687V129.086C67.8652 129.786 74.4981 132.54 79.9321 137.003L75.0123 141.923L80.0753 146.986L84.9951 142.066C89.457 147.5 92.2115 154.133 92.9119 161.129H85.9332V168.29H92.9119Z" fill="black"/>
<path d="M60.8722 139.645H53.7109V164.71C53.7109 165.659 54.0882 166.57 54.7597 167.242C55.4312 167.913 56.3419 168.29 57.2916 168.29H75.1948V161.129H60.8722V139.645Z" fill="black"/>
</svg>
