<svg width="512" height="512" viewBox="0 0 512 512" fill="none" xmlns="http://www.w3.org/2000/svg">
<path d="M469.333 34.1333H452.267V25.6C452.267 18.8105 449.57 12.299 444.769 7.49807C439.968 2.69714 433.456 1.07896e-06 426.667 1.07896e-06C419.877 1.07896e-06 413.366 2.69714 408.565 7.49807C403.764 12.299 401.067 18.8105 401.067 25.6V34.1333H366.933V25.6C366.933 18.8105 364.236 12.299 359.435 7.49807C354.634 2.69714 348.123 0 341.333 0C334.544 0 328.032 2.69714 323.231 7.49807C318.43 12.299 315.733 18.8105 315.733 25.6V34.1333H281.6V25.6C281.6 18.8105 278.903 12.299 274.102 7.49807C269.301 2.69714 262.79 0 256 0C249.21 0 242.699 2.69714 237.898 7.49807C233.097 12.299 230.4 18.8105 230.4 25.6V34.1333H196.267V25.6C196.267 18.8105 193.57 12.299 188.769 7.49807C183.968 2.69714 177.456 0 170.667 0C163.877 0 157.366 2.69714 152.565 7.49807C147.764 12.299 145.067 18.8105 145.067 25.6V34.1333H110.933V25.6C110.933 18.8105 108.236 12.299 103.435 7.49807C98.6343 2.69714 92.1229 0 85.3333 0C78.5438 0 72.0323 2.69714 67.2314 7.49807C62.4305 12.299 59.7333 18.8105 59.7333 25.6V34.1333H42.6667C31.3549 34.1469 20.5104 38.6465 12.5117 46.6451C4.51313 54.6437 0.0135497 65.4883 0 76.8L0 401.067C0.0135497 412.378 4.51313 423.223 12.5117 431.222C20.5104 439.22 31.3549 443.72 42.6667 443.733H69.5808C66.4698 454.918 63.4829 466.138 60.6208 477.389C59.5782 481.475 59.4805 485.745 60.3352 489.874C61.1899 494.004 62.9744 497.884 65.5533 501.221C68.1322 504.557 71.4376 507.262 75.2184 509.13C78.9991 510.998 83.1559 511.979 87.3728 512C89.7205 512.01 92.0601 511.723 94.336 511.147C147.669 497.587 236.894 471.996 278.519 443.733H469.333C480.645 443.72 491.49 439.22 499.488 431.222C507.487 423.223 511.986 412.378 512 401.067V76.8C511.986 65.4883 507.487 54.6437 499.488 46.6451C491.49 38.6465 480.645 34.1469 469.333 34.1333ZM418.133 25.6C418.133 23.3368 419.032 21.1663 420.633 19.566C422.233 17.9657 424.404 17.0667 426.667 17.0667C428.93 17.0667 431.1 17.9657 432.701 19.566C434.301 21.1663 435.2 23.3368 435.2 25.6V59.7333C435.2 61.9965 434.301 64.167 432.701 65.7673C431.1 67.3676 428.93 68.2667 426.667 68.2667C424.404 68.2667 422.233 67.3676 420.633 65.7673C419.032 64.167 418.133 61.9965 418.133 59.7333V25.6ZM332.8 25.6C332.8 23.3368 333.699 21.1663 335.299 19.566C336.9 17.9657 339.07 17.0667 341.333 17.0667C343.597 17.0667 345.767 17.9657 347.367 19.566C348.968 21.1663 349.867 23.3368 349.867 25.6V59.7333C349.867 61.9965 348.968 64.167 347.367 65.7673C345.767 67.3676 343.597 68.2667 341.333 68.2667C339.07 68.2667 336.9 67.3676 335.299 65.7673C333.699 64.167 332.8 61.9965 332.8 59.7333V25.6ZM247.467 25.6C247.467 23.3368 248.366 21.1663 249.966 19.566C251.566 17.9657 253.737 17.0667 256 17.0667C258.263 17.0667 260.434 17.9657 262.034 19.566C263.634 21.1663 264.533 23.3368 264.533 25.6V59.7333C264.533 61.9965 263.634 64.167 262.034 65.7673C260.434 67.3676 258.263 68.2667 256 68.2667C253.737 68.2667 251.566 67.3676 249.966 65.7673C248.366 64.167 247.467 61.9965 247.467 59.7333V25.6ZM162.133 25.6C162.133 23.3368 163.032 21.1663 164.633 19.566C166.233 17.9657 168.403 17.0667 170.667 17.0667C172.93 17.0667 175.1 17.9657 176.701 19.566C178.301 21.1663 179.2 23.3368 179.2 25.6V59.7333C179.2 61.9965 178.301 64.167 176.701 65.7673C175.1 67.3676 172.93 68.2667 170.667 68.2667C168.403 68.2667 166.233 67.3676 164.633 65.7673C163.032 64.167 162.133 61.9965 162.133 59.7333V25.6ZM76.8 25.6C76.8 23.3368 77.6991 21.1663 79.2994 19.566C80.8997 17.9657 83.0702 17.0667 85.3333 17.0667C87.5965 17.0667 89.767 17.9657 91.3673 19.566C92.9676 21.1663 93.8667 23.3368 93.8667 25.6V59.7333C93.8667 61.9965 92.9676 64.167 91.3673 65.7673C89.767 67.3676 87.5965 68.2667 85.3333 68.2667C83.0702 68.2667 80.8997 67.3676 79.2994 65.7673C77.6991 64.167 76.8 61.9965 76.8 59.7333V25.6ZM42.6667 51.2H59.7333V59.7333C59.7333 66.5229 62.4305 73.0343 67.2314 77.8353C72.0323 82.6362 78.5438 85.3333 85.3333 85.3333C92.1229 85.3333 98.6343 82.6362 103.435 77.8353C108.236 73.0343 110.933 66.5229 110.933 59.7333V51.2H145.067V59.7333C145.067 66.5229 147.764 73.0343 152.565 77.8353C157.366 82.6362 163.877 85.3333 170.667 85.3333C177.456 85.3333 183.968 82.6362 188.769 77.8353C193.57 73.0343 196.267 66.5229 196.267 59.7333V51.2H230.4V59.7333C230.4 66.5229 233.097 73.0343 237.898 77.8353C242.699 82.6362 249.21 85.3333 256 85.3333C262.79 85.3333 269.301 82.6362 274.102 77.8353C278.903 73.0343 281.6 66.5229 281.6 59.7333V51.2H315.733V59.7333C315.733 66.5229 318.43 73.0343 323.231 77.8353C328.032 82.6362 334.544 85.3333 341.333 85.3333C348.123 85.3333 354.634 82.6362 359.435 77.8353C364.236 73.0343 366.933 66.5229 366.933 59.7333V51.2H401.067V59.7333C401.067 66.5229 403.764 73.0343 408.565 77.8353C413.366 82.6362 419.877 85.3333 426.667 85.3333C433.456 85.3333 439.968 82.6362 444.769 77.8353C449.57 73.0343 452.267 66.5229 452.267 59.7333V51.2H469.333C476.123 51.2 482.634 53.8971 487.435 58.6981C492.236 63.499 494.933 70.0105 494.933 76.8V102.4H17.0667V76.8C17.0667 70.0105 19.7638 63.499 24.5647 58.6981C29.3657 53.8971 35.8771 51.2 42.6667 51.2ZM134.204 315.733C141.184 338.236 160.316 365.397 183.33 388.412C206.345 411.426 233.481 430.566 255.974 437.555C238.988 446.433 221.394 454.096 203.324 460.484C155.204 409.37 130.517 373.103 118.067 350.737C122.786 338.776 128.173 327.09 134.204 315.733ZM150.485 292.19C152.46 290.564 154.994 289.777 157.542 289.997C171.93 289.997 202.402 304.922 234.65 337.084C273.988 376.525 287.556 413.278 279.569 421.257L279.518 421.308C271.266 429.099 234.641 415.573 195.422 376.354C156.203 337.135 142.652 300.467 150.46 292.275L150.519 292.207L150.485 292.19ZM110.268 371.115C132.314 405.31 157.586 437.314 185.737 466.688C173.653 470.801 160.597 474.931 146.679 479.061C128.322 458.821 111.296 437.411 95.7099 414.968C100.193 400.227 105.047 385.602 110.268 371.106V371.115ZM90.1291 494.592C88.3347 495.051 86.4516 495.036 84.6651 494.546C82.8787 494.057 81.2504 493.111 79.9407 491.801C78.6309 490.491 77.6848 488.863 77.1955 487.077C76.7061 485.29 76.6904 483.407 77.1499 481.613C81.2459 465.51 85.3845 450.295 89.5317 435.866C100.625 451.157 113.732 467.379 128.572 484.301C116.318 487.743 103.504 491.179 90.1291 494.592ZM349.867 418.133C349.867 416.446 350.367 414.796 351.305 413.393C352.242 411.989 353.575 410.895 355.134 410.25C356.694 409.604 358.409 409.435 360.065 409.764C361.72 410.093 363.241 410.906 364.434 412.099C365.627 413.293 366.44 414.813 366.769 416.469C367.099 418.124 366.93 419.84 366.284 421.399C365.638 422.958 364.544 424.291 363.141 425.229C361.738 426.166 360.088 426.667 358.4 426.667C356.137 426.667 353.966 425.768 352.366 424.167C350.766 422.567 349.867 420.397 349.867 418.133ZM469.333 426.667H382.43C383.441 423.934 383.972 421.047 384 418.133C384 411.344 381.303 404.832 376.502 400.031C371.701 395.231 365.19 392.533 358.4 392.533C351.61 392.533 345.099 395.231 340.298 400.031C335.497 404.832 332.8 411.344 332.8 418.133C332.828 421.047 333.359 423.934 334.37 426.667H296.107C306.987 403.302 281.199 359.535 246.733 324.983C208.614 286.967 159.172 259.379 138.419 280.107C138.334 280.183 138.291 280.286 138.214 280.363C113.997 304.828 90.8629 370.347 74.4277 426.667H42.6667C35.8771 426.667 29.3657 423.97 24.5647 419.169C19.7638 414.368 17.0667 407.856 17.0667 401.067V119.467H494.933V401.067C494.933 407.856 492.236 414.368 487.435 419.169C482.634 423.97 476.123 426.667 469.333 426.667Z" fill="black"/>
<path d="M187.733 204.8C182.67 204.8 177.721 206.302 173.511 209.115C169.301 211.928 166.02 215.926 164.082 220.604C162.144 225.281 161.637 230.429 162.625 235.395C163.613 240.36 166.051 244.922 169.631 248.502C173.212 252.082 177.773 254.521 182.739 255.508C187.705 256.496 192.852 255.989 197.53 254.052C202.208 252.114 206.206 248.833 209.019 244.623C211.832 240.413 213.333 235.463 213.333 230.4C213.333 223.611 210.636 217.099 205.835 212.298C201.034 207.497 194.523 204.8 187.733 204.8ZM187.733 238.934C186.046 238.934 184.396 238.433 182.992 237.495C181.589 236.558 180.495 235.225 179.85 233.666C179.204 232.107 179.035 230.391 179.364 228.735C179.693 227.08 180.506 225.56 181.699 224.366C182.893 223.173 184.413 222.36 186.069 222.031C187.724 221.702 189.44 221.871 190.999 222.516C192.558 223.162 193.891 224.256 194.829 225.659C195.766 227.063 196.267 228.712 196.267 230.4C196.267 232.663 195.368 234.834 193.767 236.434C192.167 238.035 189.996 238.934 187.733 238.934ZM315.733 179.2C315.733 174.137 314.232 169.188 311.419 164.978C308.606 160.768 304.608 157.487 299.93 155.549C295.252 153.611 290.105 153.104 285.139 154.092C280.173 155.08 275.612 157.518 272.031 161.098C268.451 164.679 266.013 169.24 265.025 174.206C264.037 179.172 264.544 184.319 266.482 188.997C268.42 193.675 271.701 197.673 275.911 200.486C280.121 203.299 285.07 204.8 290.133 204.8C296.923 204.8 303.434 202.103 308.235 197.302C313.036 192.501 315.733 185.99 315.733 179.2ZM290.133 187.734C288.446 187.734 286.796 187.233 285.392 186.295C283.989 185.358 282.895 184.025 282.25 182.466C281.604 180.907 281.435 179.191 281.764 177.535C282.093 175.88 282.906 174.36 284.099 173.166C285.293 171.973 286.813 171.16 288.469 170.831C290.124 170.502 291.84 170.671 293.399 171.316C294.958 171.962 296.291 173.056 297.229 174.459C298.166 175.863 298.667 177.512 298.667 179.2C298.667 181.463 297.768 183.634 296.167 185.234C294.567 186.835 292.397 187.734 290.133 187.734ZM384 315.734C384 320.797 385.501 325.746 388.314 329.956C391.127 334.166 395.126 337.447 399.803 339.385C404.481 341.322 409.628 341.829 414.594 340.842C419.56 339.854 424.122 337.416 427.702 333.835C431.282 330.255 433.72 325.694 434.708 320.728C435.696 315.762 435.189 310.615 433.251 305.937C431.314 301.259 428.032 297.261 423.823 294.448C419.613 291.635 414.663 290.134 409.6 290.134C402.81 290.134 396.299 292.831 391.498 297.632C386.697 302.433 384 308.944 384 315.734ZM418.133 315.734C418.133 317.421 417.633 319.071 416.695 320.474C415.758 321.878 414.425 322.971 412.866 323.617C411.306 324.263 409.591 324.432 407.935 324.103C406.28 323.774 404.759 322.961 403.566 321.768C402.373 320.574 401.56 319.054 401.231 317.398C400.901 315.743 401.07 314.027 401.716 312.468C402.362 310.909 403.456 309.576 404.859 308.638C406.262 307.701 407.912 307.2 409.6 307.2C411.863 307.2 414.034 308.099 415.634 309.7C417.234 311.3 418.133 313.47 418.133 315.734ZM230.4 153.6C230.4 151.337 229.501 149.167 227.901 147.566C226.3 145.966 224.13 145.067 221.867 145.067C219.603 145.067 217.433 145.966 215.833 147.566C214.232 149.167 213.333 151.337 213.333 153.6C213.299 167.515 217.939 181.038 226.509 192C235.023 202.949 239.42 216.54 238.933 230.4C238.399 240.917 235.789 251.224 231.253 260.728C230.243 262.754 230.079 265.099 230.797 267.247C231.516 269.395 233.058 271.169 235.085 272.179C237.111 273.19 239.457 273.354 241.604 272.635C243.752 271.917 245.526 270.375 246.537 268.348C252.239 256.474 255.46 243.562 256 230.4C256.541 213.127 251.116 196.195 240.64 182.451C233.987 174.312 230.367 164.113 230.4 153.6ZM439.927 359.254C430.424 363.789 420.117 366.399 409.6 366.934C395.739 367.42 382.148 363.023 371.2 354.509C360.238 345.939 346.715 341.299 332.8 341.334C330.537 341.334 328.366 342.233 326.766 343.833C325.166 345.433 324.267 347.604 324.267 349.867C324.267 352.13 325.166 354.301 326.766 355.901C328.366 357.501 330.537 358.4 332.8 358.4C343.313 358.367 353.511 361.987 361.651 368.64C375.395 379.117 392.327 384.541 409.6 384C422.756 383.484 435.668 380.29 447.548 374.614C449.574 373.603 451.117 371.829 451.835 369.681C452.554 367.534 452.39 365.189 451.379 363.162C450.369 361.135 448.594 359.593 446.447 358.874C444.299 358.156 441.954 358.32 439.927 359.33V359.254ZM394.436 224.845C399.638 210.722 409.547 198.821 422.494 191.147C423.458 190.574 424.299 189.817 424.97 188.92C425.642 188.022 426.129 187 426.406 185.914C426.682 184.828 426.742 183.698 426.582 182.588C426.422 181.479 426.045 180.411 425.472 179.448C424.899 178.484 424.143 177.642 423.245 176.971C422.347 176.3 421.326 175.812 420.239 175.536C419.153 175.259 418.023 175.199 416.913 175.359C415.804 175.52 414.737 175.897 413.773 176.47C397.88 185.814 385.629 200.276 379.025 217.489C371.826 235.797 358.421 250.993 341.154 260.42C327.964 267.395 313.524 271.693 298.667 273.067C296.403 273.148 294.265 274.126 292.723 275.783C291.18 277.441 290.359 279.644 290.441 281.907C290.522 284.171 291.499 286.309 293.157 287.851C294.815 289.394 297.018 290.215 299.281 290.134H299.913C317.414 288.578 334.414 283.461 349.867 275.098C370.048 263.956 385.785 246.213 394.436 224.845Z" fill="black"/>
</svg>
