<svg width="504" height="476" viewBox="0 0 504 476" fill="none" xmlns="http://www.w3.org/2000/svg">
<path d="M231.183 60.9678C230.633 60.4034 229.977 59.9529 229.253 59.6419C228.529 59.3309 227.751 59.1656 226.963 59.1554C226.175 59.1452 225.393 59.2903 224.661 59.5824C223.929 59.8745 223.262 60.3079 222.698 60.8578C222.193 61.3493 221.549 61.6733 220.853 61.7855C220.157 61.8977 219.444 61.7928 218.81 61.485C218.176 61.1772 217.652 60.6815 217.31 60.0654C216.968 59.4492 216.824 58.7427 216.898 58.0418C217.111 56.9217 217.454 55.8301 217.919 54.7888C218.509 53.3639 218.992 51.8968 219.364 50.3998C220.061 47.188 219.912 43.8504 218.934 40.713C217.955 37.5756 216.179 34.7457 213.78 32.4998C215.94 30.4157 217.964 28.1944 219.838 25.8498C224.118 19.9058 224.715 12.2498 221.322 6.78681C219.867 4.43185 217.76 2.54955 215.257 1.36819C212.753 0.186831 209.961 -0.242852 207.218 0.131254C204.476 0.505359 201.9 1.66718 199.805 3.47583C197.709 5.28447 196.184 7.66225 195.413 10.3208C194.692 13.0631 194.647 15.9394 195.283 18.7028C192.256 17.6389 189.023 17.2898 185.839 17.6828C179.963 18.5898 175.008 22.7828 173.55 28.1298C172.786 31.1581 173.084 34.3569 174.395 37.1918C175.705 40.0268 177.948 42.3265 180.75 43.7068C184.061 45.1238 187.734 45.4642 191.25 44.6798C195.602 43.6858 199.8 42.1078 203.729 39.9888C205.884 40.7348 208.3 44.9588 207.668 47.7258C207.418 48.6506 207.107 49.5576 206.737 50.4408C205.857 52.4653 205.261 54.6019 204.967 56.7898C204.668 59.9404 205.331 63.1075 206.867 65.8742C208.404 68.6409 210.742 70.8776 213.574 72.2898C215.646 73.2856 217.918 73.7985 220.217 73.7898C224.261 73.8066 228.153 72.2532 231.075 69.4568C231.64 68.9067 232.091 68.2507 232.402 67.5262C232.713 66.8018 232.878 66.0231 232.888 65.2347C232.898 64.4463 232.753 63.6637 232.46 62.9315C232.168 62.1994 231.733 61.5321 231.183 60.9678ZM194.097 31.8878C192.569 32.7421 190.904 33.325 189.177 33.6108C188.599 33.7353 188 33.7305 187.424 33.5969C186.848 33.4633 186.309 33.2041 185.845 32.8378C185.551 32.5657 185.338 32.2175 185.23 31.8318C185.122 31.4461 185.123 31.038 185.233 30.6528C185.343 30.2677 185.557 29.9204 185.852 29.6496C186.147 29.3789 186.512 29.1951 186.905 29.1188C189.116 28.3968 192.439 30.1778 194.141 31.3188C194.19 31.3502 194.23 31.3945 194.257 31.447C194.283 31.4994 194.294 31.5581 194.29 31.6165C194.285 31.675 194.265 31.7312 194.231 31.779C194.197 31.8268 194.151 31.8644 194.097 31.8878ZM206.946 13.6288C207.065 13.1927 207.311 12.8018 207.653 12.5061C207.995 12.2103 208.417 12.0231 208.866 11.9683C209.314 11.9135 209.769 11.9935 210.172 12.1983C210.575 12.403 210.908 12.7231 211.129 13.1178C211.91 14.8178 210.78 18.4178 209.176 20.2308C209.088 20.3271 208.977 20.3993 208.853 20.4407C208.729 20.482 208.597 20.4911 208.469 20.4671C208.34 20.443 208.22 20.3867 208.12 20.3034C208.019 20.22 207.942 20.1124 207.895 19.9908C206.934 17.5878 206.44 14.8488 206.946 13.6288ZM246.031 74.6598C244.591 74.6597 243.199 74.1418 242.109 73.2005C241.019 72.2592 240.304 70.9573 240.095 69.5326C239.885 68.1079 240.195 66.6554 240.968 65.4402C241.741 64.2251 242.925 63.3284 244.304 62.9138C244.559 62.7868 244.963 62.5688 245.251 62.4138C246.541 61.5897 247.982 61.0305 249.491 60.7688C250.979 60.6011 252.477 60.9962 253.689 61.8766C254.901 62.7569 255.74 64.0588 256.04 65.5262C256.341 66.9937 256.082 68.5205 255.314 69.8067C254.546 71.0929 253.325 72.0454 251.891 72.4768C251.637 72.6048 251.234 72.8218 250.946 72.9768C249.654 73.8023 248.21 74.3619 246.7 74.6228C246.478 74.6476 246.254 74.66 246.031 74.6598ZM212.08 94.1768C211.11 94.1768 210.155 93.9417 209.296 93.4918C208.437 93.0419 207.7 92.3905 207.148 91.5933C206.595 90.7962 206.245 89.8771 206.125 88.9148C206.006 87.9525 206.122 86.9756 206.463 86.0678C206.862 85.1038 207.352 84.1797 207.926 83.3078C208.102 83.0168 208.362 82.5908 208.472 82.3878C209.072 80.9298 210.222 79.7666 211.673 79.1498C213.124 78.5329 214.759 78.5119 216.225 79.0914C217.692 79.6709 218.871 80.8042 219.508 82.2464C220.145 83.6885 220.19 85.3235 219.631 86.7978C219.23 87.7617 218.74 88.6861 218.168 89.5588C217.991 89.8488 217.731 90.2748 217.621 90.4788C217.166 91.5737 216.397 92.5093 215.411 93.1674C214.424 93.8256 213.265 94.1768 212.08 94.1768ZM217.699 90.2818C217.684 90.3188 217.671 90.3568 217.655 90.3938C217.672 90.3548 217.686 90.3168 217.699 90.2818ZM254.874 131.291C248.815 131.291 242.588 128.833 238.968 123.399C238.143 122.238 237.575 120.914 237.303 119.516C237.03 118.118 237.059 116.678 237.388 115.292C238.695 109.944 244.003 107.016 248.267 104.664C249.334 104.076 251.85 102.383 252.084 102.173C254.432 100.057 257.97 96.8668 263.002 96.9818C264.89 97.0604 266.733 97.584 268.381 98.5099C270.029 99.4357 271.435 100.738 272.484 102.31C274.169 104.865 275.07 107.857 275.076 110.918C275.152 113.599 274.683 116.268 273.697 118.763C272.711 121.258 271.229 123.527 269.34 125.432C267.452 127.337 265.196 128.838 262.709 129.845C260.223 130.853 257.558 131.344 254.876 131.291H254.874ZM250.493 117.254C250.415 117.309 250.351 117.382 250.308 117.467C250.266 117.552 250.245 117.647 250.247 117.742C250.25 117.838 250.277 117.931 250.324 118.014C250.372 118.096 250.44 118.166 250.521 118.216C251.839 118.942 253.317 119.327 254.822 119.337C256.327 119.347 257.81 118.981 259.138 118.272C261.516 116.854 263.195 114.959 263.197 112.192C263.174 111.384 263.045 110.582 262.813 109.808C262.788 109.722 262.744 109.643 262.683 109.578C262.623 109.512 262.547 109.462 262.464 109.431C262.38 109.4 262.29 109.389 262.202 109.4C262.113 109.41 262.028 109.441 261.954 109.49C259.778 110.919 252.816 115.639 250.493 117.254ZM256.105 89.5358C255.69 89.5354 255.276 89.4925 254.87 89.4078C253.311 89.0788 251.946 88.1451 251.075 86.8112C250.203 85.4774 249.897 83.8525 250.222 82.2928C251.602 75.6528 258.586 71.1378 264.539 70.6078C265.324 70.5381 266.115 70.6236 266.866 70.8596C267.618 71.0955 268.316 71.4773 268.921 71.983C269.525 72.4887 270.024 73.1085 270.389 73.8069C270.753 74.5054 270.977 75.2689 271.047 76.0538C271.117 76.8387 271.031 77.6297 270.795 78.3815C270.559 79.1334 270.177 79.8314 269.672 80.4357C269.166 81.04 268.546 81.5388 267.848 81.9036C267.149 82.2684 266.386 82.4921 265.601 82.5618C264.101 82.6938 262.164 84.0428 261.961 84.7738C261.647 86.1028 260.903 87.2906 259.844 88.152C258.784 89.0135 257.47 89.5 256.105 89.5358ZM218.181 111.4C216.978 111.4 215.802 111.038 214.808 110.362C213.813 109.686 213.044 108.726 212.601 107.607C212.159 106.488 212.063 105.263 212.326 104.089C212.589 102.915 213.198 101.847 214.076 101.024C215.273 99.7855 216.711 98.8051 218.302 98.1428C221.045 97.0627 224.034 96.7687 226.935 97.2938C228.51 97.5207 229.93 98.364 230.884 99.6382C231.837 100.912 232.245 102.513 232.018 104.088C231.791 105.663 230.948 107.084 229.674 108.037C228.4 108.991 226.799 109.399 225.224 109.172C224.108 109.01 223.71 108.791 222.851 109.267C222.648 109.42 222.458 109.59 222.285 109.776C221.174 110.821 219.706 111.402 218.181 111.4ZM128.803 187.163C127.696 187.162 126.611 186.855 125.668 186.276C124.725 185.697 123.961 184.868 123.459 183.882C122.958 182.895 122.739 181.789 122.827 180.686C122.915 179.583 123.306 178.525 123.958 177.631C128.369 171.574 134.809 168.062 140.385 168.68C141.966 168.856 143.413 169.653 144.407 170.896C145.401 172.138 145.861 173.725 145.685 175.307C145.509 176.888 144.712 178.335 143.469 179.329C142.226 180.323 140.639 180.783 139.058 180.607C138.458 180.607 135.926 181.581 133.658 184.694C133.101 185.46 132.371 186.083 131.527 186.512C130.683 186.941 129.75 187.164 128.803 187.163ZM123.825 124.01C122.685 124.009 121.569 123.684 120.607 123.072C119.645 122.46 118.878 121.587 118.394 120.555C117.911 119.523 117.731 118.375 117.877 117.244C118.022 116.114 118.487 115.048 119.216 114.172C126.83 105.02 133.487 100.982 140.162 101.472C140.948 101.53 141.714 101.741 142.418 102.096C143.122 102.45 143.75 102.939 144.264 103.535C144.779 104.132 145.172 104.824 145.419 105.572C145.666 106.32 145.764 107.109 145.706 107.895C145.649 108.681 145.437 109.448 145.083 110.152C144.729 110.856 144.239 111.483 143.643 111.998C143.046 112.513 142.354 112.905 141.606 113.152C140.858 113.4 140.069 113.498 139.283 113.44C137.491 113.321 133.758 115.453 128.44 121.84C127.878 122.519 127.173 123.066 126.375 123.441C125.577 123.816 124.706 124.01 123.825 124.01ZM115.694 168.233C114.552 168.233 113.435 167.907 112.472 167.294C111.509 166.681 110.741 165.806 110.258 164.771C109.775 163.737 109.597 162.587 109.745 161.455C109.893 160.323 110.361 159.257 111.094 158.382C115.577 153.073 121.488 149.161 128.127 147.108C129.663 146.692 131.301 146.903 132.682 147.696C134.062 148.488 135.071 149.796 135.487 151.332C135.903 152.868 135.691 154.506 134.899 155.887C134.107 157.267 132.799 158.276 131.263 158.692C127.012 160.131 123.224 162.684 120.296 166.085C119.733 166.758 119.029 167.3 118.234 167.671C117.439 168.042 116.571 168.234 115.694 168.233Z" fill="black"/>
<path d="M490.869 174.9C483.399 167.839 474.269 165.69 464.457 168.682C452.507 172.328 442.088 179.749 433.716 185.711C432.626 186.487 431.505 187.285 430.392 188.063C433.81 181.037 436.075 173.508 437.102 165.763C438.22 156.01 428.39 154.798 425.16 154.4C425.16 154.4 414.694 152.881 405.691 151.382C404.997 150.143 404.203 148.963 403.316 147.855C396.756 139.631 388.427 135.029 379.864 134.9C379.764 134.878 379.67 134.835 379.588 134.774C379.505 134.714 379.437 134.636 379.387 134.547C378.243 132.796 376.742 131.307 374.982 130.177C373.222 129.047 371.243 128.302 369.175 127.992C377.123 109.479 380.859 89.4324 380.113 69.2997C380.043 68.0551 380.388 66.8224 381.094 65.7947C383.411 62.7424 384.983 59.1906 385.683 55.4229C386.384 51.6552 386.194 47.7759 385.128 44.0947C382.928 36.8377 377.341 31.2737 369.387 28.4137C359.8 24.5817 353.387 30.8797 350.295 33.9137L349.774 34.4217C347.146 34.2377 341.398 34.7707 338.56 42.2507C337.274 45.6437 336.718 49.9907 336.073 55.0237C335.221 61.6747 334.162 69.9527 331.057 77.8567C328.95 83.2207 323.649 87.3357 318.272 90.9257C318.63 88.7551 318.926 86.5297 319.161 84.2497C323.504 81.9743 326.968 78.3216 329.011 73.8647C330.543 70.4204 331.304 66.6829 331.24 62.9138C331.176 59.1447 330.289 55.4351 328.641 52.0447C326.789 48.2599 323.917 45.0678 320.348 42.8287C316.778 40.5896 312.654 39.3926 308.441 39.3727C299.856 23.0647 287.97 12.4427 273.049 7.79372C256.191 2.53972 235.481 5.61872 217.655 16.0277C190.581 31.8377 183.815 52.0807 182.907 66.2797C181.561 87.2997 192.382 107.38 200.707 113.796C205.316 117.345 207.472 121.578 209.969 126.481C212.403 131.259 215.162 136.681 220.488 141.346C220.569 141.417 220.66 141.483 220.742 141.554C214.172 142.236 206.242 142.438 193.942 140.925C192.88 140.779 191.799 140.849 190.764 141.128C189.729 141.407 188.761 141.892 187.916 142.552C186.572 143.635 185.594 145.107 185.116 146.766C183.129 147.613 180.599 149.597 179.462 154.236C177.943 160.436 179.149 171.436 185.362 175.971C191.424 180.398 195.027 180.757 200.995 181.351L201.595 181.411C208.911 182.144 217.251 185.845 226.081 189.764C236.764 194.505 248.623 199.754 261.271 200.805C252.686 224.758 224.639 245.52 213.159 251.105C211.288 249.229 208.841 248.037 206.211 247.722C203.58 247.406 200.921 247.984 198.659 249.364C193.315 252.621 183.78 258.328 167.421 267.854C169.905 260.667 174.955 254.651 181.602 250.96C191.865 245.324 198.088 238.377 200.102 230.313C203.057 218.469 196.033 207.74 192.259 201.977C191.566 200.919 190.968 200.005 190.608 199.362C188.508 195.614 184.97 184.949 184.298 180.341C183.837 177.098 182.218 174.133 179.739 171.992C177.26 169.852 174.09 168.682 170.815 168.7C168.285 168.695 162.795 165.7 158.51 159.043C157.155 156.943 155.91 154.528 154.593 151.975C147.943 139.094 138.834 121.453 104.549 129.25C103.053 129.593 101.745 130.496 100.895 131.775C100.044 133.053 99.7162 134.608 99.978 136.121C100.24 137.634 101.071 138.988 102.302 139.907C103.532 140.825 105.067 141.236 106.592 141.057C110.438 163.318 105.16 181.757 93.254 185.974C92.5046 186.208 91.7111 186.265 90.936 186.14C80.736 184.795 71.994 188.558 66.929 196.463C61.436 205.037 61.541 216.815 67.187 225.771C72.816 234.696 82.792 239.418 95.071 239.11C92.686 247.805 86.919 262.03 73.503 272.134C69.471 270.152 64.729 268.221 58.94 265.868C53.206 263.538 46.069 260.637 37.478 256.808C25.771 251.589 17.078 242.227 13.633 231.121C10.322 220.456 11.96 209.289 18.368 198.821C20.3563 195.535 21.2889 191.718 21.04 187.886C18.409 141.87 58.846 129.55 94.37 123.958C96.9538 123.63 99.5149 123.143 102.039 122.501C114.208 118.732 125.299 104.172 122.413 88.5007C122.282 87.7155 121.995 86.9643 121.57 86.2909C121.146 85.6174 120.591 85.0353 119.939 84.5783C119.288 84.1212 118.551 83.7986 117.773 83.629C116.995 83.4594 116.192 83.4463 115.409 83.5905C114.626 83.7347 113.879 84.0332 113.213 84.4688C112.546 84.9044 111.973 85.4682 111.527 86.1274C111.081 86.7867 110.77 87.5282 110.613 88.3087C110.456 89.0892 110.456 89.8932 110.613 90.6737C112.268 99.6657 105.578 108.84 98.49 111.035C97.678 111.287 95.049 111.7 92.505 112.1C70.978 115.5 5.46997 125.81 9.06397 188.576C9.1698 189.966 8.84698 191.356 8.13897 192.558C-0.00803185 205.858 -2.12503 220.819 2.17797 234.679C6.64797 249.079 17.736 261.143 32.597 267.768C41.371 271.679 48.61 274.621 54.428 276.985C66.176 281.76 72.647 284.39 77.008 288.816C79.115 290.954 80.208 297.374 77.434 309.052C74.8428 310.271 72.8047 312.42 71.724 315.072C59.119 346.219 40.178 415.172 39.555 464.272C39.5317 465.803 39.8313 467.321 40.4344 468.728C41.0375 470.136 41.9304 471.4 43.055 472.439C45.2105 474.38 48.0204 475.435 50.921 475.391H228.654C229.79 475.403 230.921 475.245 232.009 474.92C234.433 474.185 236.528 472.636 237.942 470.535C239.356 468.433 240.002 465.909 239.77 463.387C238.587 450.587 235.307 420.026 229.121 395.328C230.057 395.252 240.247 394.435 243.552 394.064C246.36 393.733 248.959 392.411 250.88 390.337C252.802 388.263 253.922 385.571 254.038 382.746C254.384 373.032 254.384 363.309 254.038 353.596C277.702 336.981 309.538 302.145 318.864 291.72C320.293 293.272 322.027 294.513 323.959 295.362C325.89 296.212 327.976 296.653 330.086 296.658C330.924 296.658 331.76 296.588 332.586 296.45C340.544 295.077 348.025 291.713 354.334 286.672C364.902 293.548 376.679 295.992 388.534 295.992C399.671 295.992 410.88 293.845 421.213 291.215C446.813 284.7 452.957 288.164 458.372 291.221C462.136 293.338 466.578 293.898 470.75 292.783C474.922 291.667 478.491 288.964 480.696 285.251C487.716 273.243 485.776 253.777 479.151 247.451C474.687 243.189 464.823 240.242 455.33 238.883C456.683 237.589 458.03 236.289 459.371 234.983C466.909 227.651 476.335 218.547 481.929 218.913C497.823 220.005 501.746 212.656 503.503 205.328L503.631 204.796C505.023 199.1 500.172 183.7 490.869 174.9ZM321.398 103.217C328.912 98.3707 338.262 92.3387 342.227 82.2427C345.875 72.9527 347.04 63.8567 347.975 56.5427C348.29 54.0877 348.675 51.0777 349.138 48.8267C349.266 48.1903 349.584 47.6078 350.05 47.1564C350.517 46.7051 351.11 46.4063 351.75 46.2997C354.084 45.9363 356.248 44.8578 357.943 43.2127C358.192 42.9721 358.445 42.7244 358.704 42.4697C362.045 39.1867 362.982 38.7537 364.985 39.5697C365.072 39.6047 365.159 39.6387 365.248 39.6697C369.648 41.2307 372.548 43.9617 373.648 47.5697C374.158 49.4538 374.229 51.43 373.853 53.3455C373.477 55.2609 372.665 57.0642 371.481 58.6157C369.169 61.7995 367.986 65.6643 368.121 69.5967C368.705 93.1067 364.453 111.416 353.021 134.563C348.371 135.728 340.546 134.116 336.121 131.741C325.695 126.141 316.715 115.87 313.753 108.67C316.163 106.665 318.718 104.843 321.398 103.217ZM220.664 121.034C217.908 115.622 214.783 109.488 208.031 104.288C203.818 101.043 193.72 85.1997 194.883 67.0457C195.933 50.6237 205.631 36.9457 223.706 26.3907C229.313 23.1167 249.182 12.9237 269.479 19.2497C280.75 22.7617 289.96 30.8497 296.926 43.3077C293.426 45.9497 290.008 50.3467 288.009 57.6677C287.801 58.4278 287.745 59.2214 287.845 60.003C287.944 60.7847 288.196 61.5392 288.586 62.2235C289.375 63.6055 290.681 64.6174 292.216 65.0367C293.751 65.456 295.39 65.2484 296.772 64.4594C298.154 63.6704 299.166 62.3648 299.585 60.8297C300.699 56.7507 303.058 51.8027 307.975 51.3917C309.977 51.3217 311.957 51.82 313.687 52.8287C315.418 53.8374 316.827 55.3154 317.752 57.0917C318.673 58.8934 319.185 60.8764 319.252 62.8989C319.318 64.9214 318.936 66.9336 318.135 68.7917C317.564 70.098 316.714 71.2638 315.646 72.2077C314.577 73.1517 313.316 73.8509 311.949 74.2567C310.747 74.5817 309.677 75.2723 308.885 76.2328C308.094 77.1933 307.62 78.3763 307.531 79.6177C305.487 108.002 293.777 126.13 270.677 136.67C257.689 142.598 236.216 139.175 228.402 132.323C224.811 129.174 222.889 125.4 220.664 121.034ZM290.929 145.945C290.763 146.872 290.323 147.729 289.664 148.403C289.006 149.077 288.16 149.537 287.237 149.725C286.834 149.872 286.403 149.926 285.976 149.883C285.549 149.84 285.138 149.702 284.772 149.478C283.117 148.336 281.774 146.799 280.864 145.006C284.101 143.276 287.213 141.323 290.178 139.16C291.025 141.315 291.285 143.656 290.93 145.945H290.929ZM230.953 178.8C221.219 174.48 209.632 170.766 202.19 169.414C197.017 168.474 195.673 169.033 192.521 166.346C191.343 165.346 190.685 161.121 190.881 158.432C190.9 158.167 190.986 157.911 191.132 157.689C191.278 157.467 191.479 157.287 191.715 157.165C193.143 156.441 194.357 155.357 195.236 154.019C195.398 153.776 195.624 153.583 195.888 153.46C196.153 153.336 196.446 153.288 196.736 153.319C207.838 154.589 219.063 154.293 230.082 152.439C235.397 151.515 240.788 151.097 246.182 151.188C246.465 151.221 246.747 151.262 247.031 151.288C249.271 162.988 253.784 175.95 259.457 188.541C249.817 187.16 240.264 182.928 230.953 178.8ZM259.313 151.475C262.843 151.222 266.341 150.63 269.757 149.707C271.696 153.468 274.712 157.601 278.911 159.952C281.135 161.22 283.65 161.891 286.211 161.9C287.763 161.895 289.305 161.656 290.786 161.191C294.183 160.243 297.195 158.248 299.394 155.491C301.594 152.734 302.869 149.354 303.038 145.832C303.346 140.634 302.13 135.46 299.538 130.945C302.353 127.977 304.884 124.752 307.099 121.313C313.175 130.002 321.155 137.188 330.431 142.323C336.754 145.718 342.886 147.392 348.538 147.339C347.44 153.653 347.433 160.108 348.518 166.425C348.685 167.351 348.622 168.304 348.333 169.199C348.044 170.095 347.539 170.906 346.863 171.56C337.282 180.995 300.303 213.133 291.819 221.209C278.586 202.788 264.299 174.393 259.313 151.471V151.475ZM204.664 259.754L208.047 278.867C205.002 279.64 174.729 287.015 162.589 291.467C162.824 288.767 163.161 286.313 163.577 283.967C185.919 271.025 198.207 263.688 204.664 259.754ZM107.782 237.543C108.261 235.403 107.957 233.161 106.924 231.227C106.082 229.72 104.81 228.498 103.27 227.717C101.731 226.937 99.9932 226.632 98.28 226.844C88.571 228.057 81.136 225.4 77.335 219.371C74.171 214.353 74.045 207.594 77.035 202.936C79.556 198.999 83.822 197.306 89.368 198.036C92.0199 198.416 94.7242 198.159 97.257 197.286C114.971 191.019 123.274 167.667 118.469 139.317C134.199 138.655 138.605 147.164 143.93 157.478C145.32 160.17 146.757 162.954 148.423 165.54C154.344 174.734 163.123 180.684 170.794 180.699C171.187 180.686 171.571 180.819 171.872 181.072C172.174 181.325 172.372 181.679 172.428 182.069C172.933 185.025 173.639 187.944 174.541 190.805C169.512 193.395 156.38 198.777 154.491 199.605C152.197 200.605 150.196 202.172 148.676 204.16C147.156 206.148 146.167 208.49 145.803 210.966C145.429 213.352 145.669 215.794 146.5 218.062C147.331 220.33 148.726 222.349 150.553 223.929C154.564 227.397 160.201 231.217 167.931 231.217C172.769 231.104 177.51 229.839 181.761 227.528C183.126 226.869 184.2 225.732 184.781 224.333C185.362 222.934 185.408 221.37 184.91 219.939C184.612 219.145 184.149 218.424 183.551 217.822C182.954 217.221 182.236 216.752 181.445 216.448C180.653 216.144 179.807 216.012 178.96 216.059C178.114 216.106 177.287 216.332 176.534 216.722C168.183 221.048 163.561 219.312 158.4 214.85C158.105 214.596 157.881 214.269 157.753 213.901C157.624 213.533 157.595 213.138 157.668 212.756C157.738 212.286 157.925 211.842 158.213 211.464C158.5 211.086 158.877 210.787 159.311 210.594C160.911 209.894 171.605 205.504 177.205 202.874C177.59 202.692 178.03 202.665 178.434 202.8C178.838 202.934 179.175 203.219 179.375 203.595C180.262 205.256 181.626 207.63 182.223 208.544C185.38 213.364 190.148 220.644 188.464 227.402C187.294 232.09 183.045 236.475 175.833 240.435C170.627 243.325 166.078 247.265 162.473 252.004C158.867 256.743 156.285 262.178 154.888 267.967C153.171 275.005 150.616 285.417 150.288 296.578C145.975 298.592 141.792 300.874 137.764 303.41C132.279 306.864 127.171 310.884 122.524 315.404C112.101 311.281 101.106 308.79 89.924 308.018C92.396 295.148 90.945 285.863 85.556 280.392C85.0811 279.913 84.5922 279.449 84.09 279C100.451 264.9 106.033 246.016 107.786 237.543H107.782ZM242.052 382.155C238.968 382.497 235.236 382.796 230.927 383.141C211.143 384.726 181.247 387.121 157.195 398.441C156.478 398.774 155.835 399.245 155.301 399.828C154.767 400.411 154.353 401.093 154.084 401.836C153.815 402.579 153.695 403.368 153.731 404.158C153.768 404.947 153.96 405.722 154.296 406.437C154.633 407.152 155.107 407.793 155.693 408.325C156.278 408.856 156.962 409.266 157.707 409.532C158.451 409.798 159.24 409.914 160.03 409.874C160.819 409.833 161.593 409.638 162.306 409.298C179.152 401.369 199.777 398.162 217.016 396.412C223.123 419.867 226.448 449.943 227.716 463.389H51.564C52.398 417.068 69.784 352.9 81.937 321.852C82.1584 321.279 82.5461 320.786 83.0501 320.436C83.5541 320.086 84.1513 319.895 84.765 319.887C90.365 319.837 100.652 320.587 114.018 325.108C105.465 336.508 99.729 350.173 96.695 366.356C96.4018 367.92 96.7422 369.538 97.6413 370.851C98.5405 372.165 99.9247 373.068 101.489 373.361C103.054 373.654 104.671 373.314 105.985 372.415C107.299 371.516 108.202 370.131 108.495 368.567C118.928 312.921 162.82 302.25 201.545 292.835C213.345 289.967 224.484 287.258 233.686 283.383C240.313 315.868 243.121 349.017 242.052 382.155ZM240.405 273.366C238.779 272.274 236.906 271.605 234.957 271.417C233.007 271.229 231.042 271.53 229.237 272.291C226.305 273.511 223.084 274.617 219.67 275.663L217.315 262.363C231.757 255.847 258.932 234.963 270.415 209.984C274.294 216.8 278.555 223.39 283.179 229.725C282.925 229.985 282.667 230.236 282.414 230.497C277.614 235.431 273.145 240.832 268.819 246.054C259.874 256.851 251.364 267.1 240.405 273.366ZM312.136 281.22C298.736 296.442 273.18 323.497 253.289 339.171C252.05 320.631 249.632 302.188 246.05 283.956C259.076 276.596 268.718 264.985 278.061 253.706C282.238 248.664 286.561 243.45 291.02 238.858C302.071 227.487 345.442 189.804 355.29 180.106C357.37 178.072 358.917 175.556 359.794 172.782C360.671 170.008 360.851 167.06 360.318 164.2C358.868 156.5 360.065 144.589 363.726 141.339C364.915 140.283 369.302 139.088 371.802 141.588C374.746 144.532 375.629 146.83 379.678 146.894C384.59 146.97 389.652 149.969 393.935 155.338C398.36 160.884 396.035 165.165 389.152 172.661C387.489 174.277 386.062 176.119 384.911 178.133C371.245 206.125 329.439 261.566 312.136 281.22ZM330.592 284.614C329.912 284.73 329.212 284.623 328.599 284.306C327.986 283.99 327.492 283.483 327.192 282.862L326.943 282.341C346.409 258.916 380.006 211.253 393.901 184.147C394.729 182.539 395.84 181.095 397.182 179.884C400.846 176.563 406.808 170.096 407.917 163.978C413.287 164.825 419.117 165.657 422.355 166.111C422.687 166.157 423.006 166.271 423.291 166.446C423.577 166.62 423.824 166.852 424.016 167.127C424.208 167.401 424.341 167.712 424.408 168.04C424.474 168.369 424.472 168.707 424.402 169.035C422.293 178.792 417.429 188.022 414.634 189.667C409.534 192.667 405.32 194.696 401.6 196.487C387.088 203.473 380.486 212.65 372.373 234.86C366.33 251.41 354.827 280.541 330.592 284.614ZM470.838 256.106C472.688 258.148 475.156 270.947 470.338 279.193C469.732 280.195 468.759 280.921 467.625 281.216C466.492 281.51 465.288 281.35 464.271 280.769C455.659 275.906 446.252 272.461 418.255 279.585C394.019 285.751 376.479 285.485 363.238 278.1C370.567 269.591 375.88 259.436 379.618 250.25C391.696 256.78 402.044 259.111 410.879 259.111C423.9 259.111 433.645 254.095 440.849 250.168C449.613 249.226 467.211 252.645 470.838 256.106ZM491.832 202.53C491.406 204.306 491.106 205.42 490.532 205.917C490.14 206.254 488.424 207.326 482.749 206.941C471.768 206.176 461.21 216.453 451.004 226.379C445.741 231.498 440.304 236.791 436.01 239.136C424.798 245.271 409.65 253.536 383.71 238.809C387.529 226.65 396.193 206.567 414.599 203.414C414.697 203.475 414.792 203.542 414.883 203.614C415.81 204.415 416.896 205.011 418.07 205.363C419.243 205.715 420.478 205.815 421.693 205.656C427.286 205.022 433.193 200.814 440.675 195.486C448.737 189.745 457.875 183.236 467.957 180.161C472.925 178.645 477.23 179.356 481.116 182.334C488.523 188.011 491.824 199.646 491.889 202.282L491.832 202.53Z" fill="black"/>
</svg>
