<svg width="464" height="465" viewBox="0 0 464 465" fill="none" xmlns="http://www.w3.org/2000/svg">
<path d="M456 112.175H8C5.87827 112.175 3.84344 113.017 2.34315 114.518C0.842854 116.018 0 118.053 0 120.175V424.175C0 426.296 0.842854 428.331 2.34315 429.831C3.84344 431.332 5.87827 432.175 8 432.175H32V456.175C32 458.296 32.8429 460.331 34.3431 461.831C35.8434 463.332 37.8783 464.175 40 464.175H88C90.1217 464.175 92.1566 463.332 93.6569 461.831C95.1571 460.331 96 458.296 96 456.175V432.175H368V456.175C368 458.296 368.843 460.331 370.343 461.831C371.843 463.332 373.878 464.175 376 464.175H424C426.122 464.175 428.157 463.332 429.657 461.831C431.157 460.331 432 458.296 432 456.175V432.175H456C458.122 432.175 460.157 431.332 461.657 429.831C463.157 428.331 464 426.296 464 424.175V120.175C464 118.053 463.157 116.018 461.657 114.518C460.157 113.017 458.122 112.175 456 112.175ZM80 448.175H48V432.175H80V448.175ZM416 448.175H384V432.175H416V448.175ZM448 416.175H16V128.175H448V416.175Z" fill="black"/>
<path d="M40 400.175H360C362.122 400.175 364.157 399.332 365.657 397.831C367.157 396.331 368 394.296 368 392.175V152.175C368 150.053 367.157 148.018 365.657 146.518C364.157 145.017 362.122 144.175 360 144.175H40C37.8783 144.175 35.8434 145.017 34.3431 146.518C32.8429 148.018 32 150.053 32 152.175V392.175C32 394.296 32.8429 396.331 34.3431 397.831C35.8434 399.332 37.8783 400.175 40 400.175ZM48 384.175V368.175H352V384.175H48ZM104 336.175C104 327.351 111.176 320.175 120 320.175H128C128 322.296 128.843 324.331 130.343 325.831C131.843 327.332 133.878 328.175 136 328.175C138.122 328.175 140.157 327.332 141.657 325.831C143.157 324.331 144 322.296 144 320.175C144 298.119 161.944 280.175 184 280.175H216C238.056 280.175 256 298.119 256 320.175C256 322.296 256.843 324.331 258.343 325.831C259.843 327.332 261.878 328.175 264 328.175C266.122 328.175 268.157 327.332 269.657 325.831C271.157 324.331 272 322.296 272 320.175H280C288.824 320.175 296 327.351 296 336.175C296 344.999 288.824 352.175 280 352.175H120C111.176 352.175 104 344.999 104 336.175ZM352 160.175V352.175H307.552C310.431 347.332 311.967 341.809 312 336.175C312 318.527 297.648 304.175 280 304.175H269.64C262.736 281.071 241.312 264.175 216 264.175H184C158.688 264.175 137.264 281.071 130.36 304.175H120C102.352 304.175 88 318.527 88 336.175C88 342.031 89.696 347.447 92.448 352.175H48V160.175H352ZM408 200.175C421.232 200.175 432 189.407 432 176.175C432 162.943 421.232 152.175 408 152.175C394.768 152.175 384 162.943 384 176.175C384 189.407 394.768 200.175 408 200.175ZM408 168.175C409.585 168.173 411.134 168.641 412.452 169.521C413.77 170.4 414.798 171.651 415.405 173.114C416.012 174.578 416.171 176.189 415.863 177.743C415.554 179.297 414.791 180.725 413.671 181.845C412.55 182.965 411.122 183.728 409.568 184.037C408.014 184.346 406.403 184.187 404.94 183.579C403.476 182.972 402.226 181.945 401.346 180.627C400.467 179.308 399.998 177.759 400 176.175C400 171.767 403.584 168.175 408 168.175ZM408 264.175C421.232 264.175 432 253.407 432 240.175C432 226.943 421.232 216.175 408 216.175C394.768 216.175 384 226.943 384 240.175C384 253.407 394.768 264.175 408 264.175ZM408 232.175C410.06 232.267 412.005 233.15 413.43 234.64C414.855 236.13 415.65 238.113 415.65 240.175C415.65 242.236 414.855 244.219 413.43 245.709C412.005 247.199 410.06 248.082 408 248.175C405.878 248.175 403.843 247.332 402.343 245.831C400.843 244.331 400 242.296 400 240.175C400 238.053 400.843 236.018 402.343 234.518C403.843 233.017 405.878 232.175 408 232.175ZM408 320.175C405.878 320.175 403.843 321.017 402.343 322.518C400.843 324.018 400 326.053 400 328.175V392.175C400 394.296 400.843 396.331 402.343 397.831C403.843 399.332 405.878 400.175 408 400.175C410.122 400.175 412.157 399.332 413.657 397.831C415.157 396.331 416 394.296 416 392.175V328.175C416 326.053 415.157 324.018 413.657 322.518C412.157 321.017 410.122 320.175 408 320.175ZM408 280.175C405.878 280.175 403.843 281.017 402.343 282.518C400.843 284.018 400 286.053 400 288.175V296.175C400 298.296 400.843 300.331 402.343 301.831C403.843 303.332 405.878 304.175 408 304.175C410.122 304.175 412.157 303.332 413.657 301.831C415.157 300.331 416 298.296 416 296.175V288.175C416 286.053 415.157 284.018 413.657 282.518C412.157 281.017 410.122 280.175 408 280.175Z" fill="black"/>
<path d="M176 320.175H168C165.879 320.175 163.844 321.017 162.343 322.518C160.843 324.018 160 326.053 160 328.175C160 330.296 160.843 332.331 162.343 333.831C163.844 335.332 165.879 336.175 168 336.175H176C178.122 336.175 180.157 335.332 181.657 333.831C183.157 332.331 184 330.296 184 328.175C184 326.053 183.157 324.018 181.657 322.518C180.157 321.017 178.122 320.175 176 320.175ZM216 296.175H208C205.879 296.175 203.844 297.017 202.343 298.518C200.843 300.018 200 302.053 200 304.175C200 306.296 200.843 308.331 202.343 309.831C203.844 311.332 205.879 312.175 208 312.175H216C218.122 312.175 220.157 311.332 221.657 309.831C223.157 308.331 224 306.296 224 304.175C224 302.053 223.157 300.018 221.657 298.518C220.157 297.017 218.122 296.175 216 296.175ZM168 208.175H232C234.06 208.267 236.005 209.15 237.43 210.64C238.855 212.13 239.65 214.113 239.65 216.175C239.65 218.236 238.855 220.219 237.43 221.709C236.005 223.199 234.06 224.082 232 224.175H216C202.768 224.175 192 234.943 192 248.175C192 250.296 192.843 252.331 194.343 253.831C195.844 255.332 197.879 256.175 200 256.175C202.122 256.175 204.157 255.332 205.657 253.831C207.157 252.331 208 250.296 208 248.175C208 246.053 208.843 244.018 210.343 242.518C211.844 241.017 213.879 240.175 216 240.175H264C277.232 240.175 288 229.407 288 216.175C288 202.943 277.232 192.175 264 192.175H168C163.584 192.175 160 188.583 160 184.175V176.175C160 174.053 159.157 172.018 157.657 170.518C156.157 169.017 154.122 168.175 152 168.175C149.879 168.175 147.844 169.017 146.343 170.518C144.843 172.018 144 174.053 144 176.175V184.175C144 197.407 154.768 208.175 168 208.175ZM272 216.175C272 220.583 268.416 224.175 264 224.175H254.528C255.424 221.663 256 218.991 256 216.175C256 213.359 255.424 210.687 254.528 208.175H264C268.416 208.175 272 211.767 272 216.175ZM32.0003 72.1746C36.6163 72.1746 41.0723 71.1906 45.2403 69.2626C52.7683 65.7906 58.9283 64.1746 64.6243 64.1746H83.7603C84.6163 66.8546 85.6083 69.4946 86.7683 72.0706L88.2803 75.4466C88.9112 76.8541 89.9356 78.0493 91.23 78.8882C92.5245 79.727 94.0338 80.1737 95.5763 80.1746H368.416C369.959 80.1757 371.469 79.7298 372.764 78.8907C374.059 78.0517 375.083 76.8554 375.712 75.4466L377.224 72.0706C378.376 69.4946 379.376 66.8546 380.232 64.1746H395.496C404.248 64.1746 411.696 65.7106 417.664 68.7426C423.819 71.8833 430.834 72.9149 437.632 71.6786C450.608 69.4146 461.248 58.7906 463.496 45.8466C464.319 41.2208 464.117 36.4709 462.905 31.9317C461.693 27.3924 459.5 23.1743 456.48 19.5746C447.416 8.79056 431.472 5.19056 418.744 11.0706C411.232 14.5586 405.072 16.1746 399.376 16.1746H380.24C379.388 13.4875 378.384 10.8513 377.232 8.27856L375.72 4.90256C375.089 3.49499 374.065 2.29981 372.771 1.46096C371.476 0.622122 369.967 0.175387 368.424 0.174563H95.5763C94.0334 0.173385 92.5232 0.619307 91.2284 1.45839C89.9335 2.29747 88.9096 3.49377 88.2803 4.90256L86.7683 8.27856C85.6138 10.8502 84.6095 13.4866 83.7603 16.1746H68.4963C59.7443 16.1746 52.2963 14.6386 46.3283 11.6066C40.1722 8.47149 33.1583 7.4402 26.3603 8.67056C13.3843 10.9346 2.74434 21.5506 0.496339 34.4946C-0.326322 39.1203 -0.12443 43.8702 1.08779 48.4094C2.3 52.9487 4.49304 57.1668 7.51234 60.7666C10.5114 64.3433 14.2586 67.2185 18.4896 69.1896C22.7207 71.1607 27.3327 72.1796 32.0003 72.1746ZM399.376 32.1746C407.472 32.1746 415.76 30.0866 425.472 25.6066C431.792 22.6786 439.728 24.5026 444.256 29.8866C447.352 33.5666 448.592 38.2626 447.752 43.1106C446.656 49.4226 441.248 54.8066 434.904 55.9186C431.514 56.5417 428.012 56.0359 424.936 54.4786C416.704 50.2946 406.808 48.1746 395.504 48.1746H383.544C384.08 42.8547 384.08 37.4944 383.544 32.1746H399.376ZM100.784 16.1746H363.232C369.578 31.546 369.575 48.8053 363.224 64.1746H100.776C94.4309 48.8031 94.4338 31.5439 100.784 16.1746ZM16.2563 37.2386C17.3523 30.9266 22.7603 25.5346 29.1123 24.4306C32.5031 23.8074 36.0046 24.3132 39.0803 25.8706C47.2963 30.0546 57.1923 32.1746 68.4963 32.1746H80.4563C79.9203 37.4944 79.9203 42.8547 80.4563 48.1746H64.6323C56.5283 48.1746 48.2403 50.2626 38.5283 54.7426C32.2083 57.6706 24.2643 55.8386 19.7443 50.4706C18.2207 48.6602 17.1175 46.5343 16.5144 44.2463C15.9113 41.9582 15.8231 39.5648 16.2563 37.2386Z" fill="black"/>
</svg>
