<svg width="511" height="326" viewBox="0 0 511 326" fill="none" xmlns="http://www.w3.org/2000/svg">
<path d="M481.435 0H28.939C12.996 0 0 12.943 0 28.939V296.964C0 312.959 12.996 325.903 28.939 325.903H481.435C497.378 325.903 510.374 312.96 510.374 296.964V28.939C510.374 12.943 497.378 0 481.435 0ZM390.976 187.401H400.374C402.445 187.434 404.421 188.28 405.874 189.756C407.327 191.233 408.141 193.221 408.141 195.293C408.141 197.365 407.327 199.353 405.874 200.83C404.421 202.306 402.445 203.152 400.374 203.185H390.976C388.905 203.152 386.929 202.306 385.476 200.83C384.023 199.353 383.209 197.365 383.209 195.293C383.209 193.221 384.023 191.233 385.476 189.756C386.929 188.28 388.905 187.434 390.976 187.401ZM357.053 187.401H366.451C368.522 187.434 370.498 188.28 371.951 189.756C373.404 191.233 374.218 193.221 374.218 195.293C374.218 197.365 373.404 199.353 371.951 200.83C370.498 202.306 368.522 203.152 366.451 203.185H357.053C354.982 203.152 353.006 202.306 351.553 200.83C350.1 199.353 349.286 197.365 349.286 195.293C349.286 193.221 350.1 191.233 351.553 189.756C353.006 188.28 354.982 187.434 357.053 187.401ZM284.413 187.401H293.811C295.882 187.434 297.858 188.28 299.311 189.756C300.764 191.233 301.578 193.221 301.578 195.293C301.578 197.365 300.764 199.353 299.311 200.83C297.858 202.306 295.882 203.152 293.811 203.185H284.413C282.342 203.152 280.366 202.306 278.913 200.83C277.46 199.353 276.646 197.365 276.646 195.293C276.646 193.221 277.46 191.233 278.913 189.756C280.366 188.28 282.342 187.434 284.413 187.401ZM76.09 44.907H251.302C255.662 44.907 259.194 48.44 259.194 52.799C259.194 57.158 255.661 60.691 251.302 60.691H76.09C71.73 60.691 68.198 57.158 68.198 52.799C68.198 48.44 71.73 44.907 76.09 44.907ZM159.074 106.176V146.687C159.074 152.682 154.214 157.542 148.219 157.542H81.179C75.184 157.542 70.324 152.682 70.324 146.687V106.176C70.324 100.181 75.184 95.321 81.179 95.321H148.22C154.214 95.321 159.074 100.181 159.074 106.176ZM85.475 203.186H76.075C75.0385 203.186 74.0122 202.982 73.0546 202.586C72.0969 202.189 71.2268 201.608 70.4939 200.875C69.761 200.142 69.1797 199.272 68.7832 198.314C68.3867 197.357 68.1827 196.33 68.183 195.294C68.1827 194.258 68.3867 193.231 68.7832 192.274C69.1797 191.316 69.761 190.446 70.4939 189.713C71.2268 188.98 72.0969 188.399 73.0546 188.002C74.0122 187.606 75.0385 187.402 76.075 187.402H85.475C86.5115 187.402 87.5378 187.606 88.4954 188.002C89.4531 188.399 90.3232 188.98 91.0561 189.713C91.789 190.446 92.3703 191.316 92.7668 192.274C93.1633 193.231 93.3673 194.258 93.367 195.294C93.3673 196.33 93.1633 197.357 92.7668 198.314C92.3703 199.272 91.789 200.142 91.0561 200.875C90.3232 201.608 89.4531 202.189 88.4954 202.586C87.5378 202.982 86.5115 203.186 85.475 203.186ZM119.398 203.186H110C108.964 203.186 107.937 202.982 106.98 202.586C106.022 202.189 105.152 201.608 104.419 200.875C103.686 200.142 103.105 199.272 102.708 198.314C102.312 197.357 102.108 196.33 102.108 195.294C102.108 194.258 102.312 193.231 102.708 192.274C103.105 191.316 103.686 190.446 104.419 189.713C105.152 188.98 106.022 188.399 106.98 188.002C107.937 187.606 108.964 187.402 110 187.402H119.398C120.434 187.402 121.461 187.606 122.418 188.002C123.376 188.399 124.246 188.98 124.979 189.713C125.712 190.446 126.293 191.316 126.69 192.274C127.086 193.231 127.29 194.258 127.29 195.294C127.29 196.33 127.086 197.357 126.69 198.314C126.293 199.272 125.712 200.142 124.979 200.875C124.246 201.608 123.376 202.189 122.418 202.586C121.461 202.982 120.434 203.186 119.398 203.186ZM153.324 203.186H143.924C142.888 203.186 141.861 202.982 140.904 202.586C139.946 202.189 139.076 201.608 138.343 200.875C137.61 200.142 137.029 199.272 136.632 198.314C136.236 197.357 136.032 196.33 136.032 195.294C136.032 194.258 136.236 193.231 136.632 192.274C137.029 191.316 137.61 190.446 138.343 189.713C139.076 188.98 139.946 188.399 140.904 188.002C141.861 187.606 142.888 187.402 143.924 187.402H153.324C154.36 187.402 155.387 187.606 156.344 188.002C157.302 188.399 158.172 188.98 158.905 189.713C159.638 190.446 160.219 191.316 160.616 192.274C161.012 193.231 161.216 194.258 161.216 195.294C161.216 196.33 161.012 197.357 160.616 198.314C160.219 199.272 159.638 200.142 158.905 200.875C158.172 201.608 157.302 202.189 156.344 202.586C155.387 202.982 154.36 203.186 153.324 203.186ZM225.963 203.186H216.563C215.527 203.186 214.5 202.982 213.543 202.586C212.585 202.189 211.715 201.608 210.982 200.875C210.249 200.142 209.668 199.272 209.271 198.314C208.875 197.357 208.671 196.33 208.671 195.294C208.671 194.258 208.875 193.231 209.271 192.274C209.668 191.316 210.249 190.446 210.982 189.713C211.715 188.98 212.585 188.399 213.543 188.002C214.5 187.606 215.527 187.402 216.563 187.402H225.963C226.999 187.402 228.026 187.606 228.983 188.002C229.941 188.399 230.811 188.98 231.544 189.713C232.277 190.446 232.858 191.316 233.255 192.274C233.651 193.231 233.855 194.258 233.855 195.294C233.855 196.33 233.651 197.357 233.255 198.314C232.858 199.272 232.277 200.142 231.544 200.875C230.811 201.608 229.941 202.189 228.983 202.586C228.026 202.982 226.999 203.186 225.963 203.186ZM242.596 195.294C242.596 194.258 242.8 193.231 243.196 192.274C243.593 191.316 244.174 190.446 244.907 189.713C245.64 188.98 246.51 188.399 247.468 188.002C248.425 187.606 249.452 187.402 250.488 187.402H259.886C260.933 187.385 261.973 187.577 262.945 187.966C263.917 188.355 264.802 188.934 265.548 189.669C266.295 190.403 266.887 191.279 267.292 192.244C267.696 193.21 267.905 194.247 267.905 195.294C267.905 196.341 267.696 197.378 267.292 198.344C266.887 199.309 266.295 200.185 265.548 200.919C264.802 201.654 263.917 202.233 262.945 202.622C261.973 203.011 260.933 203.203 259.886 203.186H250.488C249.452 203.186 248.425 202.982 247.468 202.586C246.51 202.189 245.64 201.608 244.907 200.875C244.174 200.142 243.593 199.272 243.196 198.314C242.8 197.357 242.596 196.33 242.596 195.294ZM434.297 280.995H323.259C321.188 280.962 319.212 280.116 317.759 278.64C316.306 277.163 315.492 275.175 315.492 273.103C315.492 271.031 316.306 269.043 317.759 267.566C319.212 266.09 321.188 265.244 323.259 265.211H434.297C436.368 265.244 438.344 266.09 439.797 267.566C441.25 269.043 442.064 271.031 442.064 273.103C442.064 275.175 441.25 277.163 439.797 278.64C438.344 280.116 436.368 280.962 434.297 280.995ZM434.297 244.971H259.084C254.724 244.971 251.192 241.438 251.192 237.079C251.192 232.72 254.725 229.187 259.084 229.187H434.297C436.368 229.22 438.344 230.066 439.797 231.542C441.25 233.019 442.064 235.007 442.064 237.079C442.064 239.151 441.25 241.139 439.797 242.616C438.344 244.092 436.368 244.938 434.297 244.971ZM434.297 203.186H424.899C422.828 203.153 420.852 202.307 419.399 200.831C417.946 199.354 417.132 197.366 417.132 195.294C417.132 193.222 417.946 191.234 419.399 189.757C420.852 188.281 422.828 187.435 424.899 187.402H434.297C436.368 187.435 438.344 188.281 439.797 189.757C441.25 191.234 442.064 193.222 442.064 195.294C442.064 197.366 441.25 199.354 439.797 200.831C438.344 202.307 436.368 203.153 434.297 203.186Z" fill="black"/>
</svg>
