<svg width="512" height="493" viewBox="0 0 512 493" fill="none" xmlns="http://www.w3.org/2000/svg">
<path d="M319.778 492.458C318.535 492.457 317.311 492.148 316.217 491.557C315.124 490.966 314.194 490.113 313.512 489.074C312.829 488.034 312.416 486.842 312.309 485.603C312.202 484.365 312.405 483.119 312.899 481.978C318.701 468.572 327.748 450.08 337.098 432.511C338.033 430.755 339.627 429.442 341.529 428.862C343.432 428.281 345.487 428.48 347.243 429.414C349 430.349 350.312 431.943 350.893 433.846C351.474 435.749 351.275 437.804 350.34 439.56C341.167 456.792 332.317 474.877 326.665 487.935C326.084 489.279 325.122 490.423 323.898 491.226C322.674 492.03 321.242 492.458 319.778 492.458ZM140.367 492.457C139.141 492.459 137.934 492.159 136.851 491.586C135.768 491.013 134.842 490.182 134.154 489.168C98.187 436.167 102.798 393.885 110.187 356.586C84.598 360.79 64.731 356.148 49.689 342.507C35.478 329.617 27.844 310.542 21.973 291.383C11.595 287.093 0 274.774 0 257.516C0 246.668 0.849 237.316 10.671 226.399C2.717 201.809 5.17 176.516 17.854 152.956C32.005 126.669 55.031 108.577 71.855 98.028C89.167 87.174 116.287 77.528 139.341 74.028C140.315 73.8801 141.308 73.9255 142.264 74.1615C143.221 74.3976 144.121 74.8196 144.914 75.4036C145.707 75.9876 146.377 76.7221 146.887 77.5651C147.396 78.4081 147.734 79.3432 147.882 80.317C148.03 81.2908 147.984 82.2841 147.748 83.2403C147.512 84.1965 147.09 85.0969 146.506 85.89C145.922 86.6831 145.188 87.3534 144.345 87.8627C143.502 88.3719 142.567 88.7101 141.593 88.858C120.712 92.028 95.311 101.025 79.823 110.737C62.519 121.587 9.937 159.761 23.069 215.143C24.187 214.222 25.354 213.266 26.559 212.279C40.665 200.724 61.983 183.263 68.815 169.216C69.2457 168.33 69.8467 167.538 70.5836 166.884C71.3206 166.231 72.179 165.729 73.1099 165.407C74.0409 165.086 75.0261 164.951 76.0093 165.01C76.9924 165.069 77.9543 165.321 78.84 165.752C79.7257 166.183 80.5178 166.784 81.1712 167.521C81.8246 168.257 82.3265 169.116 82.6482 170.047C82.9698 170.977 83.105 171.962 83.0459 172.946C82.9869 173.929 82.7348 174.89 82.304 175.776C74.033 192.781 52.087 210.757 36.063 223.882C31.164 227.895 26.933 231.361 24.46 233.722L24.459 233.723C15.894 241.905 14.999 247.256 14.999 257.515C14.999 269.978 25.364 277.33 29.303 278.021C30.6783 278.262 31.9588 278.883 33.0005 279.813C34.0422 280.743 34.8036 281.945 35.199 283.284C40.615 301.612 47.34 320.127 59.764 331.395C72.202 342.676 89.795 345.735 113.449 340.705C117.159 322.656 120.202 305.456 117.356 288.843C112.089 285.614 106.486 280.541 100.992 272.706C89.971 277.603 77.856 281.837 64.818 285.317C63.8664 285.571 62.874 285.635 61.8976 285.506C60.9212 285.376 59.9799 285.056 59.1273 284.562C57.4056 283.566 56.1501 281.927 55.637 280.005C55.383 279.053 55.3188 278.061 55.4483 277.085C55.5778 276.108 55.8983 275.167 56.3916 274.314C56.8848 273.462 57.5412 272.715 58.3231 272.116C59.1051 271.517 59.9974 271.078 60.949 270.824C106.634 258.628 152.358 232.494 155.381 193.883C136.007 211.616 111.338 226.414 81.663 238.063C77.81 239.579 73.455 237.677 71.941 233.822C70.427 229.967 72.326 225.614 76.182 224.1C163.371 189.874 186.409 132.314 186.409 106.66C186.409 99.982 184.6 91.914 170.496 88.762C168.557 88.3265 166.869 87.1389 165.805 85.4601C164.74 83.7813 164.386 81.7486 164.82 79.8087C165.253 77.8687 166.439 76.1802 168.117 75.1141C169.794 74.048 171.827 73.6915 173.767 74.123C190.451 77.852 200.119 88.215 201.288 103.464C211.41 114.077 219.668 127.85 225.86 144.449C226.257 145.514 226.407 146.656 226.299 147.787C226.19 148.919 225.826 150.011 225.233 150.981C221.673 156.805 216.539 163.21 211.572 169.404C206.791 175.367 201.847 181.533 199.137 186.239C198.137 187.947 196.501 189.191 194.588 189.698C192.674 190.206 190.638 189.936 188.922 188.948C187.206 187.96 185.951 186.334 185.43 184.424C184.909 182.514 185.163 180.476 186.139 178.753C189.425 173.049 194.498 166.721 199.869 160.022C203.629 155.333 207.492 150.515 210.452 146.202C207.172 138.067 203.341 130.797 198.994 124.443C195.941 136.855 189.765 151.805 179.205 166.887C176.242 171.117 173.072 175.198 169.707 179.116C173.289 202.446 165.034 224.668 145.69 243.606C137.233 251.885 126.794 259.394 114.659 265.986C118.327 270.819 122.193 274.416 126.035 276.621C126.938 276.874 127.785 277.294 128.533 277.859C131.831 279.234 135.074 279.549 138.126 278.713C142.939 277.392 145.537 273.604 145.537 270.71C145.537 266.567 148.895 263.21 153.037 263.21C157.179 263.21 160.537 266.567 160.537 270.71C160.537 280.958 152.954 290.196 142.098 293.178C140.309 293.67 137.161 294.281 133.133 294.03C134.635 311.486 130.445 330.171 126.807 350.147C118.817 388.57 111.049 428.416 146.561 480.745C147.114 481.56 147.501 482.476 147.7 483.441C147.899 484.405 147.907 485.4 147.721 486.367C147.536 487.335 147.162 488.256 146.621 489.079C146.079 489.902 145.381 490.61 144.566 491.163C143.328 492.007 141.865 492.458 140.367 492.457ZM285.781 492.456C284.721 492.456 283.674 492.231 282.707 491.797C281.741 491.363 280.878 490.728 280.174 489.936C255.117 461.728 236.195 440.667 221.394 425.112C221.247 424.969 221.105 424.82 220.969 424.666C191.313 393.542 178.3 384.692 165.471 384.692C161.329 384.692 157.971 381.335 157.971 377.192C157.971 373.049 161.329 369.692 165.471 369.692C182.279 369.692 195.915 377.413 226.219 408.51C229.493 404.751 234.009 399.81 239.169 394.833C246.752 387.521 253.643 382.101 259.932 378.519C252.511 373.656 244.241 368.146 235.184 361.295C233.598 360.095 232.553 358.314 232.28 356.344C232.006 354.374 232.527 352.375 233.727 350.789C234.321 350.003 235.064 349.342 235.914 348.844C236.763 348.345 237.702 348.019 238.678 347.884C239.654 347.749 240.647 347.807 241.6 348.055C242.553 348.304 243.448 348.738 244.233 349.332C254.008 356.726 262.968 362.583 270.873 367.751C274.348 370.023 277.691 372.209 280.867 374.38C281.038 374.487 281.205 374.602 281.367 374.722C285.335 377.448 289.043 380.16 292.427 383.001C293.115 372.835 294.921 362.999 299.652 354.23C294.689 337.849 282.718 328.418 264.029 326.183C262.884 326.046 261.785 325.646 260.819 325.016C259.853 324.385 259.046 323.54 258.46 322.546C250.317 308.743 245.361 300.342 227.673 295.635C221.82 296.799 215.839 297.633 210.248 298.229C210.894 313.986 217.854 324.652 223.33 331.554C224.566 333.112 225.132 335.098 224.905 337.073C224.677 339.049 223.674 340.854 222.116 342.09C220.558 343.326 218.572 343.893 216.596 343.665C214.62 343.438 212.816 342.435 211.579 340.877C201.369 328.008 195.996 314.368 195.28 299.394C188.699 299.727 184.215 299.721 183.653 299.726C181.664 299.718 179.759 298.92 178.359 297.508C176.958 296.096 176.175 294.185 176.184 292.195C176.192 290.206 176.99 288.302 178.402 286.901C179.814 285.5 181.725 284.718 183.714 284.726C184.784 284.726 224.622 284.634 243.286 275.173C249.599 271.973 252.099 258.341 251.58 242.434C242.001 244.241 234.657 243.853 233.961 243.807C231.976 243.684 230.121 242.777 228.804 241.287C227.487 239.796 226.816 237.843 226.939 235.858C227.195 231.731 230.739 228.568 234.869 228.836C235.014 228.844 241.771 229.171 250.268 227.35C249.199 218.176 246.863 210.686 246.171 207.591C245.479 204.496 247.639 201.616 249.762 200.292C252.367 198.668 256.156 195.294 253.713 190.933C252.588 188.922 250.148 188.126 244.849 186.789C239.934 185.549 233.818 184.005 228.848 179.391C227.391 178.038 226.53 176.161 226.456 174.173C226.382 172.185 227.101 170.25 228.454 168.792C229.786 167.356 231.627 166.499 233.584 166.403C235.54 166.307 237.456 166.981 238.922 168.279C241.544 164.076 243.607 159.404 243.607 154.431C243.607 150.288 246.965 146.931 251.107 146.931C255.249 146.931 258.607 150.288 258.607 154.431C258.607 161.661 256.253 168.062 253.226 173.529C258.25 175.098 263.472 177.656 266.802 183.604C270.915 190.951 270.803 201.604 262.122 209.646C263.082 213.745 263.891 217.878 264.547 222.036L264.592 222.24C270.242 219.213 275.556 214.812 279.317 208.425C279.816 207.576 280.478 206.834 281.265 206.241C282.051 205.647 282.947 205.215 283.9 204.968C284.854 204.721 285.847 204.665 286.822 204.802C287.798 204.939 288.736 205.267 289.585 205.767C290.434 206.267 291.176 206.929 291.769 207.715C292.362 208.501 292.794 209.397 293.041 210.35C293.288 211.304 293.345 212.297 293.208 213.272C293.071 214.247 292.744 215.186 292.244 216.035C285.996 226.646 277.064 233.237 268.059 237.32C271.561 251.854 274.026 259.746 275.376 262.401C278.482 268.51 282.354 270.572 290.72 270.572C315.835 270.572 409.198 237.441 450.271 222.002C449.994 220.617 449.73 219.23 449.48 217.84C448.453 212.146 447.856 206.382 447.578 200.497C438.349 196.976 418.755 188.078 403.299 171.358C396.522 177.436 387.993 179.997 379.727 179.997C375.585 179.997 372.227 176.64 372.227 172.497C372.227 168.354 375.585 164.997 379.727 164.997C398.821 164.997 401.672 145.88 401.672 134.484C401.672 128.483 397.133 123.6 391.555 123.6C385.976 123.6 381.438 128.483 381.438 134.484C381.438 138.459 378.352 141.853 374.384 142.082C370.429 142.304 367.007 139.542 366.523 135.625C366.283 134.464 361.676 114.467 328.245 94.138C320.281 89.297 320.281 81.76 320.281 78.138V57.729C301.781 65.332 275.816 70.199 256.322 68.042C253.468 79.14 251.772 94.482 252.695 110.972C265.642 102.667 284.327 102.625 296.056 104.633C297.027 104.799 297.955 105.155 298.789 105.68C299.622 106.206 300.343 106.89 300.912 107.694C301.481 108.498 301.886 109.406 302.104 110.367C302.322 111.327 302.348 112.321 302.182 113.292C302.016 114.263 301.66 115.191 301.135 116.025C300.609 116.858 299.925 117.579 299.121 118.148C298.317 118.717 297.409 119.122 296.448 119.34C295.488 119.558 294.494 119.584 293.523 119.418C281.328 117.331 260.423 118.471 254.968 130.134L254.991 130.262C255.342 132.212 254.907 134.222 253.781 135.853C252.655 137.483 250.929 138.602 248.981 138.964C247.032 139.327 245.02 138.903 243.383 137.786C241.746 136.669 240.617 134.95 240.244 133.004C235.235 106.068 237.601 80.827 241.755 64.49C235.352 61.764 230.857 57.715 228.361 52.412C225.614 46.577 227.092 38.032 236.587 32.099C265.982 13.727 325.551 0 359.174 0C381.816 0 404.027 6.708 423.404 19.399C425.037 20.5023 426.17 22.2039 426.558 24.1358C426.947 26.0678 426.559 28.0749 425.479 29.7235C424.4 31.3721 422.715 32.5296 420.789 32.9458C418.863 33.3621 416.85 33.0036 415.186 31.948C398.258 20.86 378.889 15 359.175 15C328.225 15 271.407 28.025 244.538 44.818C243.231 45.634 242.597 46.305 242.304 46.694C243.935 49.26 247.48 50.792 250.28 51.641C269.266 57.41 306.639 49.66 323.917 39.274C325.055 38.5904 326.354 38.221 327.682 38.2036C329.009 38.1862 330.317 38.5213 331.473 39.1748C332.628 39.8283 333.59 40.7767 334.259 41.9233C334.928 43.0698 335.281 44.3734 335.282 45.701V78.136C335.282 80.073 335.404 80.719 335.507 80.92C335.508 80.92 335.633 81.072 336.039 81.318C356.383 93.689 367.661 106.361 373.879 116.111C378.421 111.469 384.669 108.598 391.556 108.598C405.406 108.598 416.673 120.209 416.673 134.482C416.673 144.386 415.01 152.409 412.207 158.798C423.359 171.915 438.052 180.002 447.528 184.232C447.906 173.191 448.999 161.619 450.169 149.225C451.828 131.656 453.707 111.743 453.707 89.904C453.707 77.618 447.452 63.288 436.544 50.588C435.902 49.8408 435.414 48.9745 435.107 48.0386C434.8 47.1027 434.681 46.1155 434.755 45.1333C434.83 44.1512 435.097 43.1934 435.542 42.3146C435.987 41.4358 436.6 40.6532 437.348 40.0115C438.095 39.3698 438.961 38.8815 439.897 38.5746C440.833 38.2677 441.82 38.1482 442.802 38.2228C443.784 38.2974 444.742 38.5647 445.621 39.0095C446.5 39.4543 447.282 40.0678 447.924 40.815C461.326 56.42 468.707 73.855 468.707 89.905C468.707 112.451 466.792 132.737 465.103 150.635C460.592 198.427 461.229 246.669 498.014 282.237C505.206 289.188 512 295.754 512 306.751V484.956C512 489.099 508.642 492.456 504.5 492.456C500.358 492.456 497 489.099 497 484.956V306.751C497 302.484 494.344 299.572 488.364 293.773C434.103 309.476 405.886 352.498 380.921 390.56C377.346 396.011 373.97 401.16 370.521 406.234C369.389 407.846 367.669 408.948 365.731 409.302C363.794 409.656 361.795 409.234 360.166 408.127C358.537 407.02 357.409 405.316 357.025 403.385C356.641 401.453 357.033 399.448 358.115 397.802C361.494 392.829 364.838 387.732 368.379 382.333C393.667 343.777 422.106 300.416 476.725 281.715C473.43 277.847 470.433 273.735 467.76 269.413C438.433 278.751 408.264 302.523 377.99 340.168C375.768 342.932 373.582 345.725 371.434 348.546C343.468 385.247 316.363 433.18 292.665 487.934C292.084 489.277 291.122 490.421 289.899 491.225C288.676 492.028 287.245 492.456 285.781 492.456ZM236.602 419.377C249.321 432.912 264.655 449.934 283.626 471.244C288.457 460.453 293.51 449.762 298.78 439.179V430.445C298.78 408.743 291.203 399.842 274.87 388.446C264.698 390.413 247.998 406.016 236.602 419.377ZM307.003 400.098C309.202 404.119 310.915 408.59 312.068 413.685C326.617 387.006 341.883 362.929 357.457 342.163L348.326 302.28C344.614 304.343 341.905 307.135 340.349 310.549C337.648 316.476 338.341 324.295 342.249 332.001C342.732 332.954 343.006 333.998 343.053 335.065C343.099 336.132 342.918 337.197 342.52 338.188C342.122 339.179 341.517 340.074 340.745 340.812C339.974 341.551 339.054 342.116 338.046 342.47C307.706 353.128 307.019 372.853 307.003 400.098ZM269.542 311.822C292.275 315.614 304.235 327.94 310.478 340.798C314.592 337.239 319.626 334.022 325.776 331.234C322.795 321.79 323.069 312.295 326.7 304.328C329.249 298.735 334.424 291.691 344.89 287.274L342.017 274.725C320.233 281.073 301.125 285.572 290.721 285.572C282.456 285.572 270.85 284.059 263.3 271.537C260.764 279.114 256.581 285.253 250.068 288.554C249.891 288.644 249.711 288.735 249.53 288.823C258.911 294.919 264.237 302.934 269.542 311.822ZM356.413 270.39L369.372 326.995C399.675 290.219 430.333 266.373 460.684 255.958C458.198 250.363 455.865 243.994 453.795 236.694C436.567 243.137 394.538 258.574 356.413 270.39ZM203.157 213.574C201.241 213.568 199.399 212.829 198.01 211.509C196.622 210.188 195.791 208.386 195.689 206.473C195.587 204.559 196.221 202.679 197.461 201.218C198.702 199.757 200.454 198.827 202.359 198.617C204.737 198.205 211.919 192.579 215.13 188.587C215.747 187.82 216.51 187.181 217.374 186.708C218.238 186.236 219.187 185.938 220.166 185.832C221.145 185.725 222.135 185.813 223.081 186.09C224.026 186.367 224.908 186.827 225.675 187.444C226.442 188.061 227.081 188.824 227.554 189.688C228.026 190.552 228.324 191.501 228.43 192.48C228.537 193.459 228.449 194.449 228.172 195.395C227.895 196.34 227.435 197.222 226.818 197.989C224.386 201.012 213.38 212.51 203.973 213.529C203.702 213.559 203.43 213.574 203.157 213.574ZM276.771 161.817C274.999 161.816 273.286 161.187 271.933 160.043C270.58 158.9 269.676 157.314 269.38 155.567C269.084 153.821 269.416 152.026 270.317 150.5C271.218 148.975 272.63 147.817 274.302 147.233C279.141 145.546 286.852 140.668 288.053 138.534C289.855 134.804 294.332 133.259 298.061 135.059C301.79 136.861 303.345 141.362 301.543 145.091C297.428 153.609 282.903 160.119 279.239 161.397C278.446 161.675 277.611 161.817 276.771 161.817Z" fill="black"/>
</svg>
