<svg width="512" height="512" viewBox="0 0 512 512" fill="none" xmlns="http://www.w3.org/2000/svg">
<path d="M204.464 80.6561C205.88 79.5041 207.344 78.4161 208.864 77.3681C210.612 76.2421 212.731 75.8412 214.769 76.2504C216.808 76.6595 218.608 77.8466 219.787 79.5599C220.965 81.2733 221.43 83.3782 221.083 85.4287C220.736 87.4791 219.605 89.3139 217.928 90.5441C216.749 91.3601 215.603 92.2161 214.488 93.1121C212.828 94.3474 210.754 94.8914 208.701 94.6299C206.648 94.3684 204.777 93.3217 203.48 91.7097C202.182 90.0976 201.56 88.0456 201.744 85.9845C201.927 83.9234 202.902 82.0135 204.464 80.6561ZM180.248 117.832C181.987 110.806 184.87 104.113 188.784 98.0241C189.941 96.27 191.743 95.0417 193.798 94.6049C195.854 94.168 197.999 94.5576 199.77 95.6894C201.541 96.8212 202.795 98.6044 203.262 100.653C203.728 102.703 203.37 104.853 202.264 106.64C199.299 111.258 197.11 116.331 195.784 121.656C195.266 123.705 193.959 125.466 192.148 126.554C190.336 127.642 188.168 127.969 186.116 127.464C184.064 126.959 182.295 125.663 181.196 123.858C180.096 122.053 179.756 119.887 180.248 117.832ZM172 447.744H148C145.878 447.744 143.843 446.901 142.343 445.401C140.843 443.901 140 441.866 140 439.744C140 437.622 140.843 435.588 142.343 434.087C143.843 432.587 145.878 431.744 148 431.744H172C174.122 431.744 176.157 432.587 177.657 434.087C179.157 435.588 180 437.622 180 439.744C180 441.866 179.157 443.901 177.657 445.401C176.157 446.901 174.122 447.744 172 447.744ZM364 447.744H340C337.878 447.744 335.843 446.901 334.343 445.401C332.843 443.901 332 441.866 332 439.744C332 437.622 332.843 435.588 334.343 434.087C335.843 432.587 337.878 431.744 340 431.744H364C366.122 431.744 368.157 432.587 369.657 434.087C371.157 435.588 372 437.622 372 439.744C372 441.866 371.157 443.901 369.657 445.401C368.157 446.901 366.122 447.744 364 447.744Z" fill="black"/>
<path d="M439.424 359.912C418.632 333.568 332.976 305.96 314.968 300.376C314.259 289.1 312.939 277.87 311.016 266.736C324.616 253.475 334.024 236.512 338.072 217.952C343.356 214.04 347.776 209.081 351.056 203.384C353.867 198.82 355.718 193.73 356.496 188.426C357.273 183.122 356.96 177.715 355.576 172.536C359.57 171.047 363.018 168.379 365.461 164.886C367.904 161.392 369.228 157.239 369.256 152.976C369.275 148.863 368.133 144.828 365.962 141.334C363.792 137.84 360.68 135.029 356.984 133.224C356.648 113.687 350.242 94.738 338.654 79.0046C327.066 63.2712 310.87 51.5326 292.312 45.4161C291.506 41.5633 289.404 38.1033 286.355 35.6136C283.306 33.124 279.496 31.7553 275.56 31.7361H237.84C234.047 31.7585 230.369 33.0382 227.381 35.3747C224.393 37.7111 222.264 40.9725 221.328 44.6481C202.256 50.5862 185.534 62.37 173.526 78.3328C161.519 94.2956 154.833 113.63 154.416 133.6C150.897 135.47 147.953 138.261 145.898 141.676C143.844 145.09 142.756 148.999 142.752 152.984C142.775 157.19 144.061 161.292 146.443 164.758C148.825 168.224 152.194 170.895 156.112 172.424C154.447 179.975 154.805 187.832 157.152 195.2C160.335 204.95 166.772 213.31 175.384 218.88C179.677 237.135 188.776 253.91 201.736 267.464C199.86 278.376 198.573 289.382 197.88 300.432C179.24 306 95.56 332.096 74.856 357.624C56.136 380.696 49.448 462.424 48.744 471.664C48.6268 473.756 49.335 475.81 50.7164 477.386C52.0978 478.961 54.042 479.932 56.1313 480.089C58.2207 480.246 60.2883 479.577 61.8898 478.226C63.4913 476.875 64.4989 474.95 64.696 472.864C66.496 449.144 74.08 383.984 87.28 367.696C94.16 359.216 111.88 349.776 132 341.104V407.744H124C121.878 407.744 119.843 408.587 118.343 410.087C116.843 411.588 116 413.622 116 415.744V472.264C116 474.386 116.843 476.421 118.343 477.921C119.843 479.421 121.878 480.264 124 480.264C126.122 480.264 128.157 479.421 129.657 477.921C131.157 476.421 132 474.386 132 472.264V423.752H380V472.264C380 474.386 380.843 476.421 382.343 477.921C383.843 479.421 385.878 480.264 388 480.264C390.122 480.264 392.157 479.421 393.657 477.921C395.157 476.421 396 474.386 396 472.264V415.752C396 413.63 395.157 411.596 393.657 410.095C392.157 408.595 390.122 407.752 388 407.752H380V341.512C401.056 350.752 419.792 360.872 426.856 369.832C439.504 385.856 445.896 449.552 447.296 472.744C447.463 474.832 448.442 476.77 450.023 478.144C451.604 479.517 453.66 480.216 455.751 480.091C457.841 479.965 459.799 479.025 461.203 477.472C462.608 475.919 463.348 473.877 463.264 471.784C462.728 462.744 457.44 382.744 439.424 359.92V359.912ZM255.96 360.392H256.072C276.856 360.392 302.936 329.816 313.232 316.6C316.432 317.616 320.112 318.816 324 320.12V407.744H188V320.288C191.914 319.013 195.84 317.773 199.776 316.568C209.856 329.792 235.32 360.288 255.96 360.392ZM299.552 308.088C286.352 324.704 266.568 344.4 256.088 344.4H256.04C245.64 344.344 226.168 324.496 213.32 307.904C213.778 298.451 214.745 289.029 216.216 279.68C240.48 294.912 273.2 291.144 296.36 277.64C297.976 287.724 299.041 297.888 299.552 308.088ZM162.848 147.448C170.72 147.096 170.528 139 170.472 136.344L170.416 133.064C170.878 117.284 176.069 102.006 185.316 89.2112C194.564 76.4161 207.441 66.6937 222.28 61.3041L228.968 113.48C229.241 115.585 230.338 117.495 232.019 118.791C232.852 119.432 233.802 119.903 234.817 120.177C235.831 120.451 236.89 120.523 237.932 120.388C238.974 120.253 239.98 119.914 240.891 119.391C241.802 118.867 242.601 118.169 243.242 117.337C243.884 116.504 244.355 115.554 244.629 114.539C244.903 113.525 244.975 112.466 244.84 111.424L236.736 48.7281C236.78 48.4625 236.913 48.2199 237.114 48.0408C237.315 47.8617 237.571 47.757 237.84 47.7441H275.56C275.83 47.7552 276.088 47.8591 276.291 48.0384C276.493 48.2176 276.628 48.4612 276.672 48.7281L268.56 111.424C268.425 112.467 268.497 113.526 268.771 114.541C269.045 115.556 269.517 116.507 270.159 117.34C270.8 118.172 271.6 118.871 272.512 119.394C273.423 119.918 274.429 120.257 275.472 120.392C277.578 120.665 279.706 120.09 281.387 118.793C282.22 118.152 282.918 117.352 283.442 116.44C283.966 115.529 284.305 114.523 284.44 113.48L291.08 62.0881C305.51 67.6221 317.964 77.3301 326.852 89.9731C335.741 102.616 340.661 117.621 340.984 133.072C340.984 135.008 340.909 136.928 340.76 138.832C340.675 139.946 340.824 141.065 341.197 142.117C341.569 143.17 342.158 144.133 342.925 144.945C343.691 145.757 344.619 146.4 345.649 146.832C346.679 147.265 347.787 147.477 348.904 147.456C351.032 146.936 353.248 150.448 353.248 152.976C353.248 156.704 349.192 158.208 346.8 158.504C316.754 161.9 286.542 163.626 256.304 163.672C225.864 163.613 195.451 161.888 165.2 158.504C162.8 158.208 158.752 156.704 158.752 152.976C158.711 151.729 159.094 150.504 159.838 149.502C160.581 148.5 161.642 147.771 162.848 147.448ZM190.328 212.248C190.098 211.082 189.611 209.981 188.902 209.026C188.194 208.071 187.282 207.286 186.232 206.728C179.714 203.195 174.768 197.333 172.384 190.312C170.851 185.464 170.663 180.291 171.84 175.344C201.456 178.504 235.104 179.672 256.304 179.672C277.152 179.672 310.304 178.512 339.76 175.392C340.817 178.716 341.134 182.231 340.687 185.69C340.241 189.15 339.042 192.469 337.176 195.416C334.557 199.92 330.894 203.728 326.496 206.52C325.56 207.124 324.76 207.917 324.148 208.849C323.537 209.78 323.126 210.829 322.944 211.928C321.075 223.045 316.756 233.608 310.302 242.851C303.847 252.093 295.418 259.785 285.624 265.368C284.352 266.032 254.136 281.48 228.208 268.128C218.382 261.931 209.945 253.768 203.426 244.153C196.907 234.538 192.447 223.67 190.328 212.248ZM148 407.752V334.544C155.945 331.443 163.947 328.488 172 325.68V407.752H148ZM364 407.752H340V325.68C347.68 328.44 355.824 331.512 364 334.784V407.752Z" fill="black"/>
<path d="M255.904 153.744C239.072 153.744 214.864 152.224 191.152 149.696C189.086 149.419 187.21 148.347 185.922 146.708C184.635 145.068 184.038 142.991 184.259 140.919C184.481 138.846 185.502 136.941 187.106 135.61C188.71 134.279 190.77 133.627 192.848 133.792C216.032 136.264 239.6 137.736 255.904 137.744C275.2 137.744 301.224 135.696 319.16 133.792C321.233 133.637 323.286 134.295 324.882 135.628C326.478 136.96 327.493 138.862 327.712 140.929C327.93 142.997 327.335 145.069 326.052 146.705C324.769 148.342 322.9 149.414 320.84 149.696C311.96 150.648 280.984 153.736 255.904 153.744Z" fill="black"/>
</svg>
