<svg width="214" height="214" viewBox="0 0 214 214" fill="none" xmlns="http://www.w3.org/2000/svg">
<path d="M39.5107 0.5C45.8547 0.50019 51.8832 4.25526 55.2197 10.3428L57.1484 13.8594C62.6861 23.9585 67.915 33.4946 73.9053 44.8184C78.8077 54.0875 78.8639 63.5506 74.1309 71.5029L72.1309 74.8633C67.4037 82.8051 68.2842 92.4405 74.3721 99.3955C86.5954 113.359 100.446 127.193 114.428 139.403C118.315 142.798 123.201 144.673 128.189 144.673C131.931 144.673 135.67 143.624 139.003 141.645L142.367 139.646H142.368C146.318 137.3 150.611 136.113 155.133 136.113C159.83 136.113 164.54 137.384 169.135 139.906C174.587 142.898 180.113 145.857 185.454 148.717C191.765 152.096 197.722 155.285 203.609 158.546C211.398 162.859 215.048 171.047 212.774 178.909C210.173 187.904 203.013 196.549 193.888 202.951C184.766 209.351 173.745 213.466 163.49 213.466C157.21 213.466 151.583 211.96 146.751 209.005C119.291 192.207 92.9641 171.372 68.5049 147.076C43.7701 122.507 21.7079 94.859 4.70312 67.127C-0.641522 58.4108 -0.923391 46.0689 4.05469 33.2305C10.1239 17.5786 22.527 4.71845 34.8311 1.16797H34.832C36.1626 0.782071 37.535 0.562225 38.918 0.511719L39.5107 0.5ZM39.5088 9.5293C38.7728 9.53163 38.0405 9.63759 37.334 9.84375C32.4739 11.2464 27.5049 14.7058 23.1387 19.3955C18.7679 24.0902 14.9735 30.0475 12.4736 36.4951C8.57191 46.5568 8.48435 56.0213 12.4004 62.4072C29.0385 89.5412 50.6391 116.603 74.8682 140.671C98.8262 164.469 124.595 184.869 151.462 201.304C154.871 203.389 158.924 204.437 163.489 204.438C171.724 204.438 180.844 200.962 188.403 195.749C195.957 190.54 202.037 183.536 204.101 176.401C205.45 171.734 202.241 168.111 199.235 166.445C193.403 163.215 187.469 160.038 181.192 156.677C175.828 153.805 170.284 150.836 164.792 147.822C161.566 146.052 158.315 145.143 155.134 145.143C152.255 145.143 149.509 145.907 146.979 147.41L143.613 149.408C138.881 152.218 133.547 153.702 128.189 153.702C121.024 153.702 114.027 151.042 108.488 146.205C94.209 133.735 80.0621 119.605 67.5781 105.344C58.8616 95.3854 57.6037 81.6158 64.3711 70.2461L66.3711 66.8857C70.3201 60.2512 68.2714 53.4791 65.9238 49.041C59.9647 37.7762 54.7505 28.2661 49.2314 18.2012L47.3018 14.6826C45.58 11.5419 42.6134 9.5295 39.5107 9.5293H39.5088ZM136.615 52.085H157.259C174.367 52.0852 188.286 66.0046 188.286 83.1123V103.148C188.286 108.539 183.9 112.926 178.509 112.926H115.364C109.974 112.926 105.588 108.539 105.589 103.148V83.1123C105.589 66.0045 119.507 52.085 136.615 52.085ZM136.614 61.1143C124.485 61.1143 114.617 70.9824 114.617 83.1123V103.148C114.617 103.37 114.722 103.553 114.84 103.672C114.958 103.79 115.141 103.895 115.364 103.896H178.508C178.73 103.895 178.914 103.791 179.032 103.673C179.151 103.554 179.256 103.371 179.256 103.148V83.1123C179.256 70.9824 169.388 61.1144 157.258 61.1143H136.614ZM146.937 1.09082C159.469 1.09082 169.665 11.2868 169.665 23.8184C169.665 36.3501 159.468 46.5469 146.937 46.5469C134.405 46.5468 124.208 36.3514 124.208 23.8193C124.208 11.2872 134.404 1.09087 146.937 1.09082ZM146.937 10.1211C139.383 10.1211 133.238 16.2654 133.238 23.8193C133.238 31.3732 139.383 37.5175 146.937 37.5176C154.49 37.5176 160.636 31.3732 160.636 23.8193C160.636 16.2654 154.49 10.1211 146.937 10.1211Z" fill="black" stroke="white"/>
</svg>
