<svg width="317" height="375" viewBox="0 0 317 375" fill="none" xmlns="http://www.w3.org/2000/svg">
<path d="M309.8 52.2002H243V7.0002C243 3.4002 239.8 0.200195 235.8 0.200195H7.8001C3.8001 0.200195 1.0001 3.4002 0.600098 7.0002V315C0.600098 319 3.8001 322.2 7.8001 322.2H75.0001V367C75.0001 371 78.2001 373.8 81.8001 374.2H309.8C313.8 374.2 316.6 371 317 367.4V59.0002C316.6 55.4002 313.8 52.2002 309.8 52.2002ZM229 52.2002H124.6L229.4 17.0002V52.2002H229ZM15.4001 307.8V13.8002H193.8L79.8001 52.2002C77.0001 53.4002 75.0001 55.8002 75.0001 59.0002V307.8H15.4001ZM302.6 359.8H89.0001V66.2002H303L302.6 359.8Z" fill="black"/>
<path d="M175.8 91.8003H124.2C120.2 91.8003 117 95.0003 117 99.0003V150.6C117 154.6 120.2 157.4 124.2 157.8H175.8C179.8 157.8 183 154.6 183 151V98.6003C183 95.0003 179.8 91.8003 175.8 91.8003ZM169 143.4H131.4V105.8H169V143.4ZM175.8 180.2H124.2C120.2 180.2 117 183.4 117 187.4V239C117 243 120.2 246.2 124.2 246.2H175.8C179.8 246.2 183 243 183 239.4V187C183 183.4 179.8 180.2 175.8 180.2ZM169 231.8H131.4V194.2H169V231.8ZM175.8 268.6H124.2C120.2 268.6 117 271.8 117 275.8V327.4C117 331.4 120.2 334.6 124.2 334.6H175.8C179.8 334.6 183 331.4 183 327.8V275.8C183 271.8 179.8 268.6 175.8 268.6ZM169 320.6H131.4V283H169V320.6ZM208.2 109.4C208.2 113.4 211.4 116.2 215 116.6H267C271 116.6 274.2 113.4 274.2 109.4C274.2 105.4 271 102.2 267 102.2H215C211.4 102.2 208.2 105.4 208.2 109.4ZM267.4 132.6H215.4C211.4 132.6 208.2 135.8 208.2 139.8C208.2 143.8 211.4 147 215.4 147H267.4C271.4 147 274.6 143.8 274.6 139.8C274.6 135.8 271.4 132.6 267.4 132.6ZM267.4 191H215.4C211.4 191 208.2 194.2 208.2 198.2C208.2 202.2 211.4 205.4 215.4 205.4H267.4C271.4 205.4 274.6 202.2 274.6 198.2C274.6 194.2 271.4 191 267.4 191ZM267.4 221.4H215.4C211.4 221.4 208.2 224.6 208.2 228.6C208.2 232.6 211.4 235.8 215.4 235.8H267.4C271.4 235.8 274.6 232.6 274.6 228.6C274.6 224.6 271.4 221.4 267.4 221.4ZM267.4 279.4H215.4C211.4 279.4 208.2 282.6 208.2 286.6C208.2 290.6 211.4 293.8 215.4 293.8H267.4C271.4 293.8 274.6 290.6 274.6 286.6C274.6 282.6 271.4 279.4 267.4 279.4ZM267.4 309.8H215.4C211.4 309.8 208.2 313 208.2 317C208.2 321 211.4 324.2 215.4 324.2H267.4C271.4 324.2 274.6 321 274.6 317C274.6 313 271.4 309.8 267.4 309.8Z" fill="black"/>
</svg>
