<svg width="407" height="407" viewBox="0 0 407 407" fill="none" xmlns="http://www.w3.org/2000/svg">
<path d="M198.053 0.956024C219.38 -0.0398682 240.565 4.89875 259.253 15.2226C277.941 25.5465 293.4 40.8508 303.91 59.4345C314.421 78.0184 319.571 99.1534 318.789 120.489C318.007 141.825 311.323 162.526 299.479 180.29L299.473 180.3C287.614 198.619 277.937 218.263 270.64 238.829L253.085 285.651C252.624 286.878 251.799 287.934 250.722 288.68C249.644 289.425 248.365 289.824 247.055 289.822H159.856C158.548 289.827 157.269 289.433 156.19 288.692C155.112 287.952 154.284 286.899 153.818 285.677L136.128 238.451L136.123 238.44C127.619 216.637 117.067 195.689 104.611 175.876C93.6626 157.75 87.9239 136.956 88.0264 115.78C88.451 86.275 100.039 58.0259 120.455 36.7207C140.869 15.4179 168.595 2.63812 198.052 0.955048L198.053 0.956024ZM253.009 26.497C236.409 17.3241 217.589 12.9346 198.644 13.8154H198.635C172.469 15.3127 147.841 26.6657 129.707 45.5888C111.574 64.512 101.281 89.6014 100.899 115.808V115.815C100.807 134.633 105.904 153.111 115.631 169.22L115.639 169.231C128.504 189.72 139.401 211.381 148.183 233.925V233.926L164.117 276.411L164.319 276.95H182.488V159.03H174.392C170.244 159.03 166.19 157.8 162.742 155.496C159.294 153.192 156.607 149.917 155.02 146.086C153.432 142.254 153.017 138.038 153.826 133.971C154.635 129.903 156.632 126.167 159.564 123.234C162.497 120.302 166.233 118.305 170.301 117.496C174.368 116.687 178.585 117.102 182.416 118.689C186.247 120.276 189.522 122.964 191.826 126.412C194.13 129.86 195.36 133.914 195.36 138.061V146.158H211.553V138.061C211.553 133.914 212.783 129.86 215.087 126.412C217.391 122.964 220.666 120.276 224.497 118.689C228.329 117.102 232.545 116.687 236.612 117.496C240.68 118.305 244.416 120.302 247.349 123.234C250.281 126.167 252.278 129.903 253.087 133.971C253.896 138.038 253.481 142.254 251.894 146.086C250.306 149.917 247.619 153.192 244.171 155.496C240.723 157.8 236.669 159.03 232.521 159.03H224.425V276.95H242.594L242.796 276.411L258.578 234.304L258.582 234.29C266.238 212.799 276.374 192.273 288.783 173.129L289.613 171.848H289.594C299.584 156.357 305.221 138.452 305.896 120.013C306.589 101.059 302.013 82.2842 292.677 65.7754C283.34 49.2667 269.609 35.6699 253.009 26.497ZM195.36 276.95H211.553V159.03H195.36V276.95ZM177.49 130.581C176.011 129.968 174.382 129.808 172.812 130.12C171.241 130.433 169.798 131.204 168.666 132.336C167.534 133.468 166.763 134.911 166.45 136.481C166.138 138.052 166.298 139.681 166.911 141.16C167.524 142.639 168.562 143.903 169.894 144.793C171.225 145.683 172.79 146.158 174.392 146.158H182.488V138.061C182.488 136.46 182.013 134.895 181.123 133.563C180.233 132.232 178.97 131.194 177.49 130.581ZM234.101 130.12C232.53 129.808 230.902 129.968 229.423 130.581C227.943 131.194 226.679 132.232 225.789 133.563C224.9 134.895 224.425 136.46 224.425 138.061V146.158H232.521C234.123 146.158 235.688 145.683 237.02 144.793C238.351 143.903 239.388 142.639 240.001 141.16C240.614 139.681 240.774 138.052 240.462 136.481C240.149 134.911 239.378 133.468 238.246 132.336C237.114 131.204 235.671 130.432 234.101 130.12Z" fill="black" stroke="black" stroke-width="1.6603"/>
<mask id="path-2-inside-1_1351_2" fill="white">
<path d="M199.374 29.1624C189.835 29.6007 180.438 31.647 171.581 35.2152L177.001 48.694C184.345 45.7377 192.134 44.0426 200.042 43.6803C214.044 43.0588 227.928 46.4915 240.027 53.5663C252.126 60.6411 261.926 71.0573 268.25 83.5647L281.221 77.0251C273.613 62.0315 261.849 49.5451 247.336 41.0577C232.822 32.5703 216.172 28.4407 199.374 29.1624ZM275.822 109.985L290.296 108.677C289.8 103.176 288.788 97.7336 287.273 92.4222L273.293 96.4113C274.557 100.847 275.404 105.391 275.822 109.985ZM247.055 305.185H159.86C157.933 305.185 156.085 305.95 154.722 307.313C153.359 308.676 152.594 310.524 152.594 312.451C152.594 314.378 153.359 316.226 154.722 317.589C156.085 318.952 157.933 319.717 159.86 319.717H247.055C248.982 319.717 250.83 318.952 252.193 317.589C253.556 316.226 254.321 314.378 254.321 312.451C254.321 310.524 253.556 308.676 252.193 307.313C250.83 305.95 248.982 305.185 247.055 305.185ZM247.055 334.25H159.86C157.933 334.25 156.085 335.015 154.722 336.378C153.359 337.74 152.594 339.589 152.594 341.516C152.594 343.443 153.359 345.291 154.722 346.654C156.085 348.016 157.933 348.782 159.86 348.782H247.055C248.982 348.782 250.83 348.016 252.193 346.654C253.556 345.291 254.321 343.443 254.321 341.516C254.321 339.589 253.556 337.74 252.193 336.378C250.83 335.015 248.982 334.25 247.055 334.25ZM247.055 363.314H159.86C157.933 363.314 156.085 364.08 154.722 365.443C153.359 366.805 152.594 368.654 152.594 370.581C152.594 372.508 153.359 374.356 154.722 375.719C156.085 377.081 157.933 377.847 159.86 377.847H167.853C169.521 386.06 173.976 393.444 180.465 398.747C186.954 404.051 195.077 406.948 203.457 406.948C211.838 406.948 219.961 404.051 226.45 398.747C232.938 393.444 237.394 386.06 239.062 377.847H247.055C248.982 377.847 250.83 377.081 252.193 375.719C253.556 374.356 254.321 372.508 254.321 370.581C254.321 368.654 253.556 366.805 252.193 365.443C250.83 364.08 248.982 363.314 247.055 363.314ZM203.457 392.379C198.965 392.361 194.588 390.955 190.925 388.353C187.263 385.752 184.493 382.082 182.996 377.847H223.919C222.422 382.082 219.652 385.752 215.99 388.353C212.327 390.955 207.95 392.361 203.457 392.379ZM399.646 94.464H356.048C354.121 94.464 352.273 95.2295 350.91 96.5922C349.548 97.9549 348.782 99.8031 348.782 101.73C348.782 103.657 349.548 105.506 350.91 106.868C352.273 108.231 354.121 108.996 356.048 108.996H399.646C401.573 108.996 403.421 108.231 404.784 106.868C406.146 105.506 406.912 103.657 406.912 101.73C406.912 99.8031 406.146 97.9549 404.784 96.5922C403.421 95.2295 401.573 94.464 399.646 94.464ZM402.894 160.623L359.296 138.824C357.571 137.963 355.575 137.822 353.746 138.432C351.918 139.043 350.406 140.355 349.545 142.08C348.684 143.804 348.543 145.801 349.153 147.629C349.764 149.458 351.075 150.969 352.8 151.831L396.398 173.63C397.252 174.056 398.181 174.31 399.134 174.378C400.086 174.445 401.042 174.324 401.947 174.021C402.853 173.719 403.69 173.242 404.411 172.616C405.132 171.99 405.722 171.228 406.149 170.374C406.575 169.52 406.83 168.591 406.897 167.638C406.964 166.686 406.843 165.73 406.541 164.824C406.239 163.919 405.761 163.082 405.135 162.361C404.509 161.64 403.748 161.05 402.894 160.623ZM349.545 61.3809C349.971 62.2352 350.562 62.9971 351.282 63.6231C352.003 64.2491 352.84 64.7269 353.746 65.0292C354.652 65.3316 355.608 65.4524 356.56 65.385C357.513 65.3175 358.442 65.0631 359.296 64.6361L402.894 42.8374C403.748 42.4109 404.509 41.8203 405.135 41.0995C405.761 40.3786 406.239 39.5415 406.541 38.636C406.843 37.7305 406.964 36.7743 406.897 35.8221C406.83 34.8699 406.575 33.9402 406.149 33.0862C405.722 32.2321 405.132 31.4705 404.411 30.8447C403.69 30.2189 402.853 29.7413 401.947 29.439C401.042 29.1367 400.086 29.0157 399.134 29.083C398.181 29.1502 397.252 29.4044 396.398 29.8309L352.8 51.6296C351.946 52.0558 351.184 52.6462 350.558 53.3671C349.932 54.0879 349.454 54.925 349.152 55.8306C348.85 56.7362 348.729 57.6925 348.796 58.6449C348.864 59.5972 349.118 60.5269 349.545 61.3809ZM50.8666 94.464H7.26926C5.34214 94.464 3.49395 95.2295 2.13127 96.5922C0.768585 97.9549 0.00303623 99.8031 0.00303623 101.73C0.00303623 103.657 0.768585 105.506 2.13127 106.868C3.49395 108.231 5.34214 108.996 7.26926 108.996H50.8666C52.7938 108.996 54.642 108.231 56.0046 106.868C57.3673 105.506 58.1329 103.657 58.1329 101.73C58.1329 99.8031 57.3673 97.9549 56.0046 96.5922C54.642 95.2295 52.7938 94.464 50.8666 94.464ZM47.6186 138.824L4.02126 160.623C2.29648 161.484 0.98455 162.996 0.374069 164.824C-0.236413 166.653 -0.0954339 168.65 0.76599 170.374C1.62741 172.099 3.13872 173.411 4.96744 174.021C6.79616 174.632 8.79249 174.491 10.5173 173.63L54.1146 151.831C55.8394 150.969 57.1514 149.458 57.7618 147.629C58.3723 145.801 58.2313 143.804 57.3699 142.08C56.5085 140.355 54.9972 139.043 53.1685 138.432C51.3397 137.822 49.3434 137.963 47.6186 138.824ZM47.6186 64.6725C49.3434 65.5339 51.3397 65.6749 53.1685 65.0644C54.9972 64.4539 56.5085 63.142 57.3699 61.4172C58.2313 59.6924 58.3723 57.6961 57.7618 55.8674C57.1514 54.0386 55.8394 52.5273 54.1146 51.6659L10.5173 29.8672C8.79249 29.0058 6.79616 28.8648 4.96744 29.4753C3.13872 30.0858 1.62741 31.3977 0.76599 33.1225C-0.0954339 34.8473 -0.236413 36.8436 0.374069 38.6723C0.98455 40.501 2.29648 42.0123 4.02126 42.8738L47.6186 64.6725Z"/>
</mask>
<path d="M199.374 29.1624C189.835 29.6007 180.438 31.647 171.581 35.2152L177.001 48.694C184.345 45.7377 192.134 44.0426 200.042 43.6803C214.044 43.0588 227.928 46.4915 240.027 53.5663C252.126 60.6411 261.926 71.0573 268.25 83.5647L281.221 77.0251C273.613 62.0315 261.849 49.5451 247.336 41.0577C232.822 32.5703 216.172 28.4407 199.374 29.1624ZM275.822 109.985L290.296 108.677C289.8 103.176 288.788 97.7336 287.273 92.4222L273.293 96.4113C274.557 100.847 275.404 105.391 275.822 109.985ZM247.055 305.185H159.86C157.933 305.185 156.085 305.95 154.722 307.313C153.359 308.676 152.594 310.524 152.594 312.451C152.594 314.378 153.359 316.226 154.722 317.589C156.085 318.952 157.933 319.717 159.86 319.717H247.055C248.982 319.717 250.83 318.952 252.193 317.589C253.556 316.226 254.321 314.378 254.321 312.451C254.321 310.524 253.556 308.676 252.193 307.313C250.83 305.95 248.982 305.185 247.055 305.185ZM247.055 334.25H159.86C157.933 334.25 156.085 335.015 154.722 336.378C153.359 337.74 152.594 339.589 152.594 341.516C152.594 343.443 153.359 345.291 154.722 346.654C156.085 348.016 157.933 348.782 159.86 348.782H247.055C248.982 348.782 250.83 348.016 252.193 346.654C253.556 345.291 254.321 343.443 254.321 341.516C254.321 339.589 253.556 337.74 252.193 336.378C250.83 335.015 248.982 334.25 247.055 334.25ZM247.055 363.314H159.86C157.933 363.314 156.085 364.08 154.722 365.443C153.359 366.805 152.594 368.654 152.594 370.581C152.594 372.508 153.359 374.356 154.722 375.719C156.085 377.081 157.933 377.847 159.86 377.847H167.853C169.521 386.06 173.976 393.444 180.465 398.747C186.954 404.051 195.077 406.948 203.457 406.948C211.838 406.948 219.961 404.051 226.45 398.747C232.938 393.444 237.394 386.06 239.062 377.847H247.055C248.982 377.847 250.83 377.081 252.193 375.719C253.556 374.356 254.321 372.508 254.321 370.581C254.321 368.654 253.556 366.805 252.193 365.443C250.83 364.08 248.982 363.314 247.055 363.314ZM203.457 392.379C198.965 392.361 194.588 390.955 190.925 388.353C187.263 385.752 184.493 382.082 182.996 377.847H223.919C222.422 382.082 219.652 385.752 215.99 388.353C212.327 390.955 207.95 392.361 203.457 392.379ZM399.646 94.464H356.048C354.121 94.464 352.273 95.2295 350.91 96.5922C349.548 97.9549 348.782 99.8031 348.782 101.73C348.782 103.657 349.548 105.506 350.91 106.868C352.273 108.231 354.121 108.996 356.048 108.996H399.646C401.573 108.996 403.421 108.231 404.784 106.868C406.146 105.506 406.912 103.657 406.912 101.73C406.912 99.8031 406.146 97.9549 404.784 96.5922C403.421 95.2295 401.573 94.464 399.646 94.464ZM402.894 160.623L359.296 138.824C357.571 137.963 355.575 137.822 353.746 138.432C351.918 139.043 350.406 140.355 349.545 142.08C348.684 143.804 348.543 145.801 349.153 147.629C349.764 149.458 351.075 150.969 352.8 151.831L396.398 173.63C397.252 174.056 398.181 174.31 399.134 174.378C400.086 174.445 401.042 174.324 401.947 174.021C402.853 173.719 403.69 173.242 404.411 172.616C405.132 171.99 405.722 171.228 406.149 170.374C406.575 169.52 406.83 168.591 406.897 167.638C406.964 166.686 406.843 165.73 406.541 164.824C406.239 163.919 405.761 163.082 405.135 162.361C404.509 161.64 403.748 161.05 402.894 160.623ZM349.545 61.3809C349.971 62.2352 350.562 62.9971 351.282 63.6231C352.003 64.2491 352.84 64.7269 353.746 65.0292C354.652 65.3316 355.608 65.4524 356.56 65.385C357.513 65.3175 358.442 65.0631 359.296 64.6361L402.894 42.8374C403.748 42.4109 404.509 41.8203 405.135 41.0995C405.761 40.3786 406.239 39.5415 406.541 38.636C406.843 37.7305 406.964 36.7743 406.897 35.8221C406.83 34.8699 406.575 33.9402 406.149 33.0862C405.722 32.2321 405.132 31.4705 404.411 30.8447C403.69 30.2189 402.853 29.7413 401.947 29.439C401.042 29.1367 400.086 29.0157 399.134 29.083C398.181 29.1502 397.252 29.4044 396.398 29.8309L352.8 51.6296C351.946 52.0558 351.184 52.6462 350.558 53.3671C349.932 54.0879 349.454 54.925 349.152 55.8306C348.85 56.7362 348.729 57.6925 348.796 58.6449C348.864 59.5972 349.118 60.5269 349.545 61.3809ZM50.8666 94.464H7.26926C5.34214 94.464 3.49395 95.2295 2.13127 96.5922C0.768585 97.9549 0.00303623 99.8031 0.00303623 101.73C0.00303623 103.657 0.768585 105.506 2.13127 106.868C3.49395 108.231 5.34214 108.996 7.26926 108.996H50.8666C52.7938 108.996 54.642 108.231 56.0046 106.868C57.3673 105.506 58.1329 103.657 58.1329 101.73C58.1329 99.8031 57.3673 97.9549 56.0046 96.5922C54.642 95.2295 52.7938 94.464 50.8666 94.464ZM47.6186 138.824L4.02126 160.623C2.29648 161.484 0.98455 162.996 0.374069 164.824C-0.236413 166.653 -0.0954339 168.65 0.76599 170.374C1.62741 172.099 3.13872 173.411 4.96744 174.021C6.79616 174.632 8.79249 174.491 10.5173 173.63L54.1146 151.831C55.8394 150.969 57.1514 149.458 57.7618 147.629C58.3723 145.801 58.2313 143.804 57.3699 142.08C56.5085 140.355 54.9972 139.043 53.1685 138.432C51.3397 137.822 49.3434 137.963 47.6186 138.824ZM47.6186 64.6725C49.3434 65.5339 51.3397 65.6749 53.1685 65.0644C54.9972 64.4539 56.5085 63.142 57.3699 61.4172C58.2313 59.6924 58.3723 57.6961 57.7618 55.8674C57.1514 54.0386 55.8394 52.5273 54.1146 51.6659L10.5173 29.8672C8.79249 29.0058 6.79616 28.8648 4.96744 29.4753C3.13872 30.0858 1.62741 31.3977 0.76599 33.1225C-0.0954339 34.8473 -0.236413 36.8436 0.374069 38.6723C0.98455 40.501 2.29648 42.0123 4.02126 42.8738L47.6186 64.6725Z" fill="black" stroke="black" stroke-width="3.3206" mask="url(#path-2-inside-1_1351_2)"/>
</svg>
