<svg width="400" height="513" viewBox="0 0 400 513" fill="none" xmlns="http://www.w3.org/2000/svg">
<path d="M391.86 98.91V129.75M391.86 98.91V58.51C391.86 47.35 382.82 38.3 371.66 38.3H361.56M391.86 98.91H217.43M8 401.4V98.91M8 98.91V58.51C8 47.35 17.04 38.3 28.2 38.3H38.3M8 98.91H182.43M391.86 164.75V484.8C391.86 495.95 382.82 505 371.66 505H28.2C17.04 505 8 495.95 8 484.8V436.4M331.251 38.305H288.319M184.778 38.305H141.846M111.541 38.305H68.609M258.014 38.305H215.082M199.93 68.61C191.562 68.61 184.778 61.826 184.778 53.458V23.152C184.778 14.784 191.562 8 199.93 8C208.298 8 215.082 14.784 215.082 23.152V53.457C215.082 61.826 208.298 68.61 199.93 68.61ZM273.167 68.61C264.799 68.61 258.015 61.826 258.015 53.458V23.152C258.015 14.784 264.799 8 273.167 8C281.535 8 288.319 14.784 288.319 23.152V53.457C288.319 61.826 281.535 68.61 273.167 68.61Z" stroke="black" stroke-width="15" stroke-miterlimit="10" stroke-linecap="round" stroke-linejoin="round"/>
<path d="M199.931 139.321V210.033M189.829 139.321H210.033M189.829 210.033H210.033M246.398 139.321H236.296V162.949C236.296 172.216 228.784 179.728 219.517 179.728H199.931H180.345C171.078 179.728 163.566 172.216 163.566 162.949V139.321H153.464M68.6097 250.439H331.252M331.252 280.744H68.6097M331.252 311.049H68.6097M199.931 341.354H68.6097M346.405 68.61C338.037 68.61 331.253 61.826 331.253 53.458V23.152C331.253 14.784 338.037 8 346.405 8C354.773 8 361.557 14.784 361.557 23.152V53.457C361.557 61.826 354.773 68.61 346.405 68.61ZM126.694 68.61C135.062 68.61 141.846 61.826 141.846 53.458V23.152C141.846 14.784 135.062 8 126.694 8C118.326 8 111.542 14.784 111.542 23.152V53.457C111.542 61.826 118.326 68.61 126.694 68.61ZM53.4567 68.61C61.8247 68.61 68.6087 61.826 68.6087 53.458V23.152C68.6087 14.784 61.8247 8 53.4567 8C45.0887 8 38.3047 14.784 38.3047 23.152V53.457C38.3047 61.826 45.0887 68.61 53.4567 68.61Z" stroke="black" stroke-width="15" stroke-miterlimit="10" stroke-linecap="round" stroke-linejoin="round"/>
</svg>
