<svg width="211" height="195" viewBox="0 0 211 195" fill="none" xmlns="http://www.w3.org/2000/svg">
<mask id="path-1-inside-1_946_959" fill="white">
<path d="M207.474 38.2552C202.154 29.1093 189.739 25.0406 171.621 26.3968C156.391 12.0841 136.958 3.05561 116.197 0.647921C95.4365 -1.75977 74.4525 2.5813 56.3513 13.0285C38.2501 23.4757 23.9939 39.4737 15.6932 58.6543C7.39242 77.8348 5.48829 99.1784 10.2627 119.525C0.0386905 134.583 -2.63902 147.346 2.64685 156.492C7.30676 164.525 17.3221 168.663 31.8235 168.663C33.9448 168.663 36.2052 168.559 38.5351 168.385C53.7738 182.683 73.2102 191.696 93.9687 194.091C114.727 196.485 135.705 192.134 153.799 181.681C171.893 171.228 186.141 155.229 194.436 136.049C202.731 116.87 204.633 95.5303 199.858 75.1868C210.048 60.1985 212.725 47.4359 207.474 38.2552ZM105.061 6.95731C109.6 6.95672 114.133 7.29381 118.623 7.9658L113.72 10.9217C113.268 11.1877 112.887 11.5572 112.607 11.9998L107.356 19.859L96.1928 14.2949C95.7083 14.0467 95.1723 13.9157 94.6279 13.9124H85.2386L80.1266 10.4696C88.2343 8.14575 96.6264 6.9636 105.061 6.95731ZM8.69778 153.014C5.39411 147.346 6.92423 138.756 12.8361 128.498C16.9735 140.719 23.4986 151.996 32.0321 161.673C20.1737 161.673 12.0014 158.717 8.69778 153.014ZM59.922 150.232L63.1214 166.298L58.1137 174.645C46.5392 167.547 36.691 157.96 29.2849 146.581L38.1178 131.106L55.0187 119.838L63.1214 136.044L59.9568 148.702C59.8234 149.202 59.8114 149.727 59.922 150.232ZM105.061 187.79C99.223 187.789 93.3994 187.219 87.6729 186.086L93.7586 169.846L105.895 166.82C106.515 166.682 107.083 166.368 107.53 165.916L117.441 155.97L122.622 171.515C122.921 172.377 123.545 173.088 124.361 173.497L139.349 181.008C128.473 185.488 116.823 187.792 105.061 187.79ZM147.382 177.253L128.777 167.933L122.274 148.424C122.087 147.863 121.758 147.361 121.319 146.965C120.881 146.569 120.347 146.293 119.771 146.163C119.194 146.028 118.592 146.04 118.021 146.198C117.449 146.356 116.927 146.655 116.502 147.068L103.287 160.317L90.3158 163.551C89.7667 163.689 89.2587 163.956 88.835 164.332C88.4112 164.707 88.0842 165.179 87.8815 165.707L80.8569 184.486C75.1104 182.886 69.541 180.707 64.2342 177.983L69.7983 168.698C70.248 167.959 70.3973 167.075 70.2156 166.229L66.8771 149.606L70.1808 136.461C70.3848 135.654 70.2858 134.8 69.9026 134.062L59.47 113.196C59.2484 112.761 58.9396 112.375 58.5627 112.064C58.1857 111.753 57.7488 111.523 57.2791 111.388C56.8019 111.265 56.304 111.245 55.8184 111.329C55.3327 111.413 54.8705 111.599 54.4623 111.875L33.597 125.785C33.1427 126.077 32.7619 126.47 32.4842 126.933L25.2161 139.695C22.0176 133.744 19.5203 127.443 17.7742 120.916C23.427 113.321 29.797 106.288 36.7964 99.9121C37.1667 99.6118 37.4713 99.2386 37.6913 98.8156C37.9113 98.3927 38.0419 97.929 38.0752 97.4534C38.1084 96.9778 38.0435 96.5004 37.8844 96.051C37.7254 95.6015 37.4756 95.1896 37.1507 94.8407C36.8257 94.4918 36.4325 94.2135 35.9954 94.023C35.5584 93.8326 35.0868 93.734 34.61 93.7335C34.1333 93.7329 33.6615 93.8304 33.224 94.0199C32.7865 94.2094 32.3926 94.4868 32.0669 94.8349C26.2549 100.16 20.8388 105.901 15.8615 112.014C15.0507 107.176 14.6436 102.279 14.6444 97.3735C14.6674 79.2507 20.1285 61.5519 30.321 46.567C40.5134 31.5821 54.9683 20.0007 71.8152 13.3212L82.2827 20.2763C82.8454 20.663 83.5125 20.8692 84.1953 20.8675H93.7933L106.973 27.4401C107.454 27.697 107.993 27.8285 108.538 27.8226C109.111 27.8196 109.674 27.6752 110.178 27.4022C110.681 27.1292 111.109 26.7361 111.424 26.2577L117.962 16.4858L128.638 10.0871C140.975 13.4315 152.461 19.3582 162.336 27.4748C149.461 29.7015 136.843 33.22 124.674 37.977C123.881 38.3537 123.26 39.0161 122.936 39.8315C122.611 40.6469 122.606 41.5549 122.923 42.3734C123.24 43.1919 123.855 43.8603 124.644 44.2446C125.433 44.6288 126.338 44.7005 127.178 44.4453C140.641 39.103 154.718 35.4583 169.082 33.5953C170.856 35.3689 172.525 37.212 174.159 39.1246L159.345 45.4885C158.583 45.7997 157.964 46.3819 157.606 47.123L151.381 59.5378L135.663 62.6676C135.149 62.7706 134.665 62.9903 134.249 63.3098C133.833 63.6294 133.496 64.0402 133.263 64.5107L122.831 85.376C122.623 85.782 122.498 86.2251 122.463 86.6798C122.428 87.1344 122.483 87.5915 122.625 88.0248C122.767 88.458 122.994 88.8588 123.292 89.204C123.59 89.5491 123.953 89.8319 124.361 90.0359L144.044 99.8773L150.164 115.144L146.826 135.07C146.721 135.692 146.793 136.331 147.035 136.913L153.99 154.301C154.238 154.926 154.663 155.466 155.212 155.855C155.762 156.244 156.412 156.465 157.085 156.492H157.224C157.867 156.495 158.498 156.317 159.045 155.979C159.592 155.641 160.034 155.156 160.319 154.579L170.404 134.444L182.714 125.194H191.095C183.79 147.539 168.127 166.193 147.382 177.253ZM193.008 118.239H181.567C180.813 118.235 180.08 118.479 179.48 118.934L165.57 129.367C165.135 129.68 164.788 130.099 164.561 130.584L157.572 144.529L153.851 135.244L157.189 115.318C157.294 114.696 157.222 114.057 156.98 113.475L150.025 96.0868C149.714 95.2966 149.119 94.6515 148.356 94.2785L130.586 85.376L138.723 69.1358L154.442 66.006C154.956 65.9031 155.44 65.6833 155.856 65.3638C156.272 65.0442 156.609 64.6334 156.841 64.1629L163.24 51.3656L178.576 44.8278C186.109 55.3115 191.297 67.2941 193.788 79.9614C196.278 92.6286 196.012 105.683 193.008 118.239ZM178.089 33.0737C189.947 33.0737 198.154 36.0644 201.423 41.7328C204.692 47.4012 203.197 55.9907 197.285 66.2147C193.139 54.0079 186.615 42.7439 178.089 33.0737Z"/>
</mask>
<path d="M207.474 38.2552C202.154 29.1093 189.739 25.0406 171.621 26.3968C156.391 12.0841 136.958 3.05561 116.197 0.647921C95.4365 -1.75977 74.4525 2.5813 56.3513 13.0285C38.2501 23.4757 23.9939 39.4737 15.6932 58.6543C7.39242 77.8348 5.48829 99.1784 10.2627 119.525C0.0386905 134.583 -2.63902 147.346 2.64685 156.492C7.30676 164.525 17.3221 168.663 31.8235 168.663C33.9448 168.663 36.2052 168.559 38.5351 168.385C53.7738 182.683 73.2102 191.696 93.9687 194.091C114.727 196.485 135.705 192.134 153.799 181.681C171.893 171.228 186.141 155.229 194.436 136.049C202.731 116.87 204.633 95.5303 199.858 75.1868C210.048 60.1985 212.725 47.4359 207.474 38.2552ZM105.061 6.95731C109.6 6.95672 114.133 7.29381 118.623 7.9658L113.72 10.9217C113.268 11.1877 112.887 11.5572 112.607 11.9998L107.356 19.859L96.1928 14.2949C95.7083 14.0467 95.1723 13.9157 94.6279 13.9124H85.2386L80.1266 10.4696C88.2343 8.14575 96.6264 6.9636 105.061 6.95731ZM8.69778 153.014C5.39411 147.346 6.92423 138.756 12.8361 128.498C16.9735 140.719 23.4986 151.996 32.0321 161.673C20.1737 161.673 12.0014 158.717 8.69778 153.014ZM59.922 150.232L63.1214 166.298L58.1137 174.645C46.5392 167.547 36.691 157.96 29.2849 146.581L38.1178 131.106L55.0187 119.838L63.1214 136.044L59.9568 148.702C59.8234 149.202 59.8114 149.727 59.922 150.232ZM105.061 187.79C99.223 187.789 93.3994 187.219 87.6729 186.086L93.7586 169.846L105.895 166.82C106.515 166.682 107.083 166.368 107.53 165.916L117.441 155.97L122.622 171.515C122.921 172.377 123.545 173.088 124.361 173.497L139.349 181.008C128.473 185.488 116.823 187.792 105.061 187.79ZM147.382 177.253L128.777 167.933L122.274 148.424C122.087 147.863 121.758 147.361 121.319 146.965C120.881 146.569 120.347 146.293 119.771 146.163C119.194 146.028 118.592 146.04 118.021 146.198C117.449 146.356 116.927 146.655 116.502 147.068L103.287 160.317L90.3158 163.551C89.7667 163.689 89.2587 163.956 88.835 164.332C88.4112 164.707 88.0842 165.179 87.8815 165.707L80.8569 184.486C75.1104 182.886 69.541 180.707 64.2342 177.983L69.7983 168.698C70.248 167.959 70.3973 167.075 70.2156 166.229L66.8771 149.606L70.1808 136.461C70.3848 135.654 70.2858 134.8 69.9026 134.062L59.47 113.196C59.2484 112.761 58.9396 112.375 58.5627 112.064C58.1857 111.753 57.7488 111.523 57.2791 111.388C56.8019 111.265 56.304 111.245 55.8184 111.329C55.3327 111.413 54.8705 111.599 54.4623 111.875L33.597 125.785C33.1427 126.077 32.7619 126.47 32.4842 126.933L25.2161 139.695C22.0176 133.744 19.5203 127.443 17.7742 120.916C23.427 113.321 29.797 106.288 36.7964 99.9121C37.1667 99.6118 37.4713 99.2386 37.6913 98.8156C37.9113 98.3927 38.0419 97.929 38.0752 97.4534C38.1084 96.9778 38.0435 96.5004 37.8844 96.051C37.7254 95.6015 37.4756 95.1896 37.1507 94.8407C36.8257 94.4918 36.4325 94.2135 35.9954 94.023C35.5584 93.8326 35.0868 93.734 34.61 93.7335C34.1333 93.7329 33.6615 93.8304 33.224 94.0199C32.7865 94.2094 32.3926 94.4868 32.0669 94.8349C26.2549 100.16 20.8388 105.901 15.8615 112.014C15.0507 107.176 14.6436 102.279 14.6444 97.3735C14.6674 79.2507 20.1285 61.5519 30.321 46.567C40.5134 31.5821 54.9683 20.0007 71.8152 13.3212L82.2827 20.2763C82.8454 20.663 83.5125 20.8692 84.1953 20.8675H93.7933L106.973 27.4401C107.454 27.697 107.993 27.8285 108.538 27.8226C109.111 27.8196 109.674 27.6752 110.178 27.4022C110.681 27.1292 111.109 26.7361 111.424 26.2577L117.962 16.4858L128.638 10.0871C140.975 13.4315 152.461 19.3582 162.336 27.4748C149.461 29.7015 136.843 33.22 124.674 37.977C123.881 38.3537 123.26 39.0161 122.936 39.8315C122.611 40.6469 122.606 41.5549 122.923 42.3734C123.24 43.1919 123.855 43.8603 124.644 44.2446C125.433 44.6288 126.338 44.7005 127.178 44.4453C140.641 39.103 154.718 35.4583 169.082 33.5953C170.856 35.3689 172.525 37.212 174.159 39.1246L159.345 45.4885C158.583 45.7997 157.964 46.3819 157.606 47.123L151.381 59.5378L135.663 62.6676C135.149 62.7706 134.665 62.9903 134.249 63.3098C133.833 63.6294 133.496 64.0402 133.263 64.5107L122.831 85.376C122.623 85.782 122.498 86.2251 122.463 86.6798C122.428 87.1344 122.483 87.5915 122.625 88.0248C122.767 88.458 122.994 88.8588 123.292 89.204C123.59 89.5491 123.953 89.8319 124.361 90.0359L144.044 99.8773L150.164 115.144L146.826 135.07C146.721 135.692 146.793 136.331 147.035 136.913L153.99 154.301C154.238 154.926 154.663 155.466 155.212 155.855C155.762 156.244 156.412 156.465 157.085 156.492H157.224C157.867 156.495 158.498 156.317 159.045 155.979C159.592 155.641 160.034 155.156 160.319 154.579L170.404 134.444L182.714 125.194H191.095C183.79 147.539 168.127 166.193 147.382 177.253ZM193.008 118.239H181.567C180.813 118.235 180.08 118.479 179.48 118.934L165.57 129.367C165.135 129.68 164.788 130.099 164.561 130.584L157.572 144.529L153.851 135.244L157.189 115.318C157.294 114.696 157.222 114.057 156.98 113.475L150.025 96.0868C149.714 95.2966 149.119 94.6515 148.356 94.2785L130.586 85.376L138.723 69.1358L154.442 66.006C154.956 65.9031 155.44 65.6833 155.856 65.3638C156.272 65.0442 156.609 64.6334 156.841 64.1629L163.24 51.3656L178.576 44.8278C186.109 55.3115 191.297 67.2941 193.788 79.9614C196.278 92.6286 196.012 105.683 193.008 118.239ZM178.089 33.0737C189.947 33.0737 198.154 36.0644 201.423 41.7328C204.692 47.4012 203.197 55.9907 197.285 66.2147C193.139 54.0079 186.615 42.7439 178.089 33.0737Z" fill="black" stroke="black" stroke-width="2" mask="url(#path-1-inside-1_946_959)"/>
<path d="M61.5596 29.9265C63.4091 29.9909 65.2037 30.5743 66.7373 31.6101L66.7393 31.6121L90.665 47.5388L90.9199 47.7087L91.1875 47.5583C93.5906 46.2061 96.2907 45.4773 99.042 45.4324H99.5928L115.555 45.7107V45.7097C116.067 45.7267 116.568 45.8725 117.01 46.1326C117.452 46.3925 117.821 46.7595 118.085 47.199C118.332 47.6502 118.463 48.1561 118.463 48.6707C118.463 49.1881 118.331 49.697 118.081 50.1501L110.361 64.0945C108.908 66.6369 106.827 68.7641 104.316 70.2722L104.056 70.4285L104.075 70.7332L105.918 99.4578L105.919 99.4597C106.047 101.307 105.652 103.153 104.78 104.786C103.908 106.419 102.594 107.773 100.987 108.694L100.985 108.695L95.7041 111.753C95.2494 112.009 94.7358 112.143 94.2139 112.14H94.2129C93.934 112.139 93.6565 112.105 93.3867 112.037L93.1201 111.958C92.7143 111.803 92.3484 111.559 92.0488 111.244C91.7834 110.965 91.576 110.637 91.4385 110.278L91.3838 110.123L91.3809 110.114L81.8877 82.1892L81.7031 81.6482L81.1904 81.9031L71.0713 86.9451L70.7715 87.0945L70.7959 87.4285L71.3516 95.2185V95.2195C71.4879 97.0819 71.098 98.9453 70.2256 100.596C69.3531 102.248 68.0335 103.62 66.418 104.556L64.1611 105.842L64.1494 105.848C63.7032 106.119 63.1908 106.262 62.6689 106.262H62.666C62.4128 106.264 62.1609 106.226 61.9199 106.148L61.9072 106.144L61.8955 106.141L61.6191 106.052C60.9872 105.813 60.4538 105.363 60.1123 104.773H60.1113L54.4092 94.8982L54.2295 94.5867L53.877 94.658H53.876L53.7783 94.6775C53.7139 94.6905 53.6194 94.7099 53.499 94.7341C53.2582 94.7826 52.9137 94.8513 52.5 94.9343C51.672 95.1006 50.5656 95.3231 49.4531 95.5447C48.3406 95.7663 47.2222 95.987 46.3691 96.1531C45.9424 96.2361 45.5827 96.3052 45.3242 96.3533C45.1949 96.3773 45.0928 96.3966 45.0205 96.4089C44.9868 96.4147 44.9615 96.4181 44.9443 96.4207C44.4275 96.4187 43.92 96.2828 43.4717 96.0251C43.0168 95.7637 42.6383 95.3867 42.376 94.9324L38.8994 88.8826L38.8965 88.8777L38.7861 88.6726C38.5487 88.1853 38.4517 87.6397 38.5078 87.0974C38.5719 86.4778 38.8322 85.8945 39.252 85.4343L39.2529 85.4353L39.2578 85.4294L44.8916 79.0652L45.1299 78.7957L44.9502 78.4841L39.2471 68.6072L39.2441 68.6033L39.1084 68.3455C38.9859 68.082 38.9034 67.8013 38.8633 67.5125C38.8098 67.1273 38.8332 66.735 38.9326 66.3591C39.0321 65.9832 39.2054 65.6303 39.4424 65.322C39.6795 65.0137 39.9757 64.7551 40.3135 64.5623L40.3184 64.5603L42.5732 63.24L42.5742 63.241C44.1918 62.3182 46.0355 61.8661 47.8965 61.9363C49.7567 62.0065 51.5605 62.5952 53.1035 63.6365V63.6375L59.6064 68.0544L59.8848 68.2429L60.1641 68.0574L69.5889 61.7976L70.0654 61.4812L69.6875 61.0515L50.2139 38.864C49.9311 38.5252 49.7234 38.1302 49.6055 37.7048C49.4874 37.2787 49.4618 36.832 49.5303 36.3953C49.6069 35.9617 49.7778 35.5499 50.0303 35.1892C50.2513 34.8735 50.5298 34.6026 50.8516 34.3923L50.9922 34.3064L56.2783 31.2458C57.8801 30.3194 59.7103 29.8622 61.5596 29.9265ZM97.6045 73.7312L87.4854 78.7732L87.0947 78.9675L87.2344 79.3816L95.6504 104.211L95.8457 104.787L96.373 104.484L98.0078 103.545L98.0098 103.544C98.65 103.172 99.1747 102.629 99.5254 101.977C99.8761 101.325 100.039 100.588 99.9961 99.8484V99.8445L98.3271 74.1462L98.2783 73.3953L97.6045 73.7312ZM64.3271 90.283L60.3633 92.2302L59.8838 92.4656L60.1504 92.9285L63.4541 98.6667L63.7734 99.2214L64.2344 98.7771C64.6482 98.3779 64.9693 97.892 65.1758 97.3552C65.3821 96.8186 65.4684 96.2432 65.4287 95.6697V95.6658L65.0459 90.6931L64.9893 89.9568L64.3271 90.283ZM47.7939 84.7664L45.3604 87.5134L45.1201 87.7839L45.3027 88.0974L46.2764 89.7664L46.457 90.0759L46.8076 90.0046L50.3896 89.2742L51.0693 89.1355L50.7236 88.5349L48.6016 84.8484L48.2549 84.2458L47.7939 84.7664ZM99.5117 51.3875C97.2905 51.3231 95.1052 51.9618 93.2686 53.2126L53.1436 79.8474L52.752 80.1072L52.9863 80.5134L56.6729 86.9119L56.9072 87.3201L57.3281 87.1101L100.45 65.6892L100.452 65.6873C102.427 64.6933 104.062 63.1349 105.148 61.2097L105.15 61.2058L110.089 52.3035L110.492 51.5759L109.66 51.5613L99.5107 51.3875H99.5117ZM48.2031 67.9373C47.6363 67.8405 47.0551 67.8718 46.502 68.0291L45.8857 68.2039L46.2051 68.7595L49.5088 74.4978L49.7754 74.9607L50.2207 74.6628L53.9062 72.1941L54.5254 71.78L53.9072 71.364L49.7686 68.5818C49.3011 68.2536 48.7662 68.0334 48.2031 67.9373ZM61.3604 35.8826C60.6238 35.8616 59.8968 36.0502 59.2637 36.4265L57.6289 37.3308L57.0859 37.6316L57.4951 38.0984L74.7783 57.8152L75.0664 58.1443L75.4307 57.9021L84.8555 51.6433L85.4814 51.2273L84.8555 50.8103L63.4336 36.5525C62.8206 36.1361 62.1012 35.9037 61.3604 35.8826Z" fill="black" stroke="black"/>
</svg>
