<svg width="194" height="194" viewBox="0 0 194 194" fill="none" xmlns="http://www.w3.org/2000/svg">
<path d="M143.55 111.475C143.172 111.294 129.029 104.329 126.516 103.425C125.49 103.056 124.391 102.697 123.222 102.697C121.312 102.697 119.707 103.648 118.458 105.518C117.045 107.618 112.768 112.617 111.447 114.11C111.274 114.308 111.039 114.543 110.897 114.543C110.771 114.543 108.582 113.642 107.919 113.354C92.7478 106.764 81.2318 90.9154 79.6527 88.2429C79.4272 87.8587 79.4178 87.6842 79.4159 87.6842C79.4713 87.4807 79.9815 86.9693 80.2448 86.7054C81.0152 85.9432 81.8497 84.9386 82.6572 83.9667C83.0396 83.5063 83.4225 83.0452 83.7986 82.6106C84.9701 81.2475 85.4916 80.1894 86.0963 78.9636L86.4131 78.3268C87.8896 75.3935 86.6286 72.9181 86.221 72.1188C85.8866 71.4499 79.9148 57.0372 79.2799 55.523C77.7531 51.8691 75.7356 50.1679 72.932 50.1679C72.6719 50.1679 72.932 50.1679 71.8411 50.2138C70.5127 50.2699 63.2786 51.2223 60.0801 53.2385C56.6883 55.3769 50.9502 62.1933 50.9502 74.181C50.9502 84.9701 57.7969 95.157 60.7365 99.0313C60.8095 99.1289 60.9437 99.3273 61.1383 99.612C72.396 116.053 86.4302 128.237 100.657 133.92C114.354 139.391 120.839 140.024 124.527 140.024C126.076 140.024 127.317 139.902 128.411 139.795L129.105 139.728C133.837 139.309 144.235 133.921 146.6 127.348C148.463 122.171 148.954 116.515 147.715 114.462C146.866 113.067 145.402 112.364 143.55 111.475Z" fill="black"/>
<path d="M98.722 0C46.1807 0 3.43517 42.4243 3.43517 94.5706C3.43517 111.437 7.94882 127.946 16.4993 142.395L0.133386 190.672C-0.171471 191.572 0.0552823 192.567 0.721056 193.245C1.20165 193.735 1.85356 194 2.51934 194C2.77443 194 3.03142 193.962 3.28211 193.882L53.6214 177.885C67.3966 185.245 82.9658 189.13 98.7226 189.13C151.259 189.131 194 146.711 194 94.5706C194 42.4243 151.259 0 98.722 0ZM98.722 169.431C83.8955 169.431 69.5351 165.15 57.1908 157.05C56.7758 156.777 56.2939 156.637 55.8089 156.637C55.5526 156.637 55.2956 156.676 55.0455 156.756L29.8286 164.772L37.9691 140.755C38.2324 139.978 38.1007 139.121 37.6157 138.458C28.2155 125.614 23.2465 110.438 23.2465 94.5706C23.2465 53.287 57.1046 19.6998 98.7214 19.6998C140.333 19.6998 174.187 53.287 174.187 94.5706C174.188 135.849 140.334 169.431 98.722 169.431Z" fill="black"/>
</svg>
