<svg width="258" height="261" viewBox="0 0 258 261" fill="none" xmlns="http://www.w3.org/2000/svg">
<path d="M255.45 62.698L130.985 0.501584C130.34 0.214965 129.695 0 128.979 0C128.262 0 127.546 0.14331 126.972 0.501584L2.50792 62.698C1.71972 63.0563 1.14648 63.6295 0.644894 64.3461C0.214965 65.0626 0 65.9225 0 66.7107V196.549C0 197.409 0.214965 198.269 0.716549 198.986C1.14648 199.702 1.79137 200.275 2.57958 200.634L126.972 260.107C127.617 260.394 128.262 260.537 128.907 260.537C129.552 260.537 130.269 260.394 130.842 260.107L255.235 200.634C256.811 199.845 257.814 198.269 257.814 196.549V66.7823C257.814 65.9225 257.599 65.1343 257.169 64.4177C256.739 63.7012 256.095 63.1279 255.306 62.7697L255.45 62.698ZM128.979 9.60175L243.125 66.639L210.737 82.1165L97.3073 25.4375L128.979 9.60175ZM128.979 121.24L14.9042 66.7107L51.3049 48.5103L166.239 103.47L128.979 121.312V121.24ZM176.773 98.4538L61.5515 43.3512L87.1323 30.525L200.347 87.1323L176.701 98.4538H176.773ZM181.143 106.336L203.786 95.5159V135.284L181.143 146.104V106.336ZM9.10017 73.9478L124.464 129.122V248.929L9.10017 193.755V73.9478ZM133.493 248.929V129.122L172.043 110.707V153.341C172.043 154.13 172.258 154.846 172.617 155.563C172.975 156.208 173.548 156.781 174.193 157.211C174.838 157.641 175.554 157.856 176.343 157.927C177.131 157.927 177.847 157.856 178.564 157.497L210.235 142.378C211.812 141.59 212.815 140.014 212.815 138.294V91.36L248.857 74.0911V193.898L133.493 249.072V248.929Z" fill="black"/>
<path d="M108.745 194.185C109.749 194.185 110.752 193.827 111.54 193.182C112.328 192.537 112.901 191.677 113.116 190.674C113.331 189.671 113.26 188.596 112.758 187.664C112.328 186.733 111.54 186.016 110.608 185.586L72.1298 167.171C71.6282 166.884 70.9833 166.741 70.41 166.741C69.8368 166.741 69.1919 166.741 68.6903 167.028C67.5439 167.458 66.6123 168.246 66.1108 169.321C65.6092 170.395 65.5375 171.685 65.8958 172.76C66.3257 173.906 67.1139 174.838 68.1888 175.34L106.667 193.755C107.312 194.041 107.957 194.185 108.602 194.185H108.745ZM110.752 209.734L86.1741 197.982C85.6009 197.696 85.0276 197.553 84.4544 197.481C83.8812 197.481 83.2363 197.481 82.663 197.696C82.0898 197.911 81.5882 198.197 81.0866 198.627C80.6567 199.057 80.2268 199.487 80.0118 200.06C79.7252 200.634 79.5819 201.207 79.5819 201.78C79.5819 202.353 79.5819 202.998 79.8685 203.572C80.0835 204.145 80.3701 204.646 80.8 205.076C81.2299 205.506 81.7315 205.865 82.3048 206.151L106.882 217.903C107.384 218.189 108.029 218.332 108.602 218.332C109.175 218.332 109.82 218.332 110.322 218.118C110.895 217.903 111.397 217.616 111.827 217.186C112.256 216.756 112.615 216.326 112.901 215.753C113.188 215.251 113.331 214.606 113.331 214.033C113.331 213.46 113.331 212.815 113.116 212.313C112.901 211.74 112.615 211.239 112.185 210.809C111.755 210.379 111.325 210.021 110.752 209.734Z" stroke="black" stroke-width="5.37411" stroke-miterlimit="10"/>
</svg>
