<svg width="464" height="462" viewBox="0 0 464 462" fill="none" xmlns="http://www.w3.org/2000/svg">
<path d="M439.76 253.826C437.79 201.09 415.756 151.098 378.16 114.066C380.96 114.786 383.84 115.266 386.72 115.266C388.8 115.266 390.88 115.106 392.96 114.706C412.64 111.266 425.84 92.3855 422.4 72.7055C418.96 53.0255 400.08 39.8255 380.4 43.2655C374.16 44.3855 368.24 47.1055 363.36 51.2655L344 67.8255L348.64 42.6255C349.76 36.3855 349.2 29.9055 347.04 23.9055C345.43 19.4232 342.946 15.305 339.732 11.7896C336.519 8.27406 332.64 5.43115 328.32 3.42552C319.52 -0.654478 309.68 -1.13448 300.56 2.22552C281.76 9.02552 272.08 29.9055 278.88 48.7055C280.56 53.2655 283.2 57.5055 286.56 61.0255C269.12 56.3855 250.88 53.8255 232 53.8255C213.04 53.8255 194.24 56.5455 176 61.6655V37.8255H112V92.0655C85.923 110.469 64.4399 134.637 49.2195 162.691C33.9991 190.746 25.4513 221.931 24.24 253.826H0V325.826H16C16 378.466 41.12 428.706 83.2 460.226L85.36 461.826H378.72L380.88 460.226C422.88 428.706 448 378.466 448 325.826H464V253.826H439.76ZM373.76 63.4255C376.131 61.4196 378.933 59.9869 381.948 59.2385C384.962 58.49 388.108 58.446 391.143 59.1097C394.177 59.7735 397.018 61.1272 399.444 63.066C401.871 65.0047 403.818 67.4763 405.136 70.2892C406.453 73.102 407.105 76.1805 407.04 79.2858C406.976 82.3912 406.197 85.44 404.764 88.1958C403.332 90.9516 401.283 93.3404 398.778 95.1768C396.273 97.0133 393.379 98.2481 390.32 98.7855C386.88 99.4255 383.28 99.1055 379.92 97.9055L347.52 85.7455L373.76 63.4255ZM306.08 17.3455C309.415 16.1126 313.017 15.7824 316.521 16.3883C320.025 16.9941 323.307 18.5146 326.035 20.7958C328.762 23.0771 330.839 26.0382 332.055 29.3797C333.271 32.7213 333.583 36.3247 332.96 39.8255L326.64 73.8255L300 51.9055C297.28 49.5855 295.2 46.6255 294 43.3455C290.16 32.7855 295.52 21.1855 306.08 17.3455ZM232 69.8255C335.2 69.8255 419.6 151.666 423.76 253.826H376V157.826H232V190.306C223.68 191.266 215.52 193.666 208 197.426V178.466L176 146.466V78.3055C194.16 72.7855 212.96 69.8255 232 69.8255ZM123.28 157.826H164.64L192 185.106V253.826H96V185.106L123.28 157.826ZM208 216.146C217.44 209.506 228.4 205.826 240 205.826C268.16 205.826 291.44 226.706 295.36 253.826H208V216.146ZM311.52 253.826C307.84 220.546 281.28 193.986 248 190.306V173.826H360V253.826H311.52ZM128 53.8255H160V141.826H128V53.8255ZM112 112.066V146.546L80 178.546V253.826H40.24C42.56 198.306 68.72 146.706 112 112.066ZM373.28 445.826H90.72C53.92 417.186 32 372.546 32 325.826H432C432 372.546 410.08 417.186 373.28 445.826ZM448 309.826H16V269.826H448V309.826Z" fill="black"/>
</svg>
