<svg width="409" height="474" viewBox="0 0 409 474" fill="none" xmlns="http://www.w3.org/2000/svg">
<path d="M166.55 128.333L171.602 138.573L192.935 75.5028C185.84 73.5299 179.386 69.728 174.222 64.4777C168.828 68.0284 163.226 71.2512 157.445 74.1289L139.303 127.727L149.466 122.692C152.488 121.225 155.963 120.994 159.152 122.047C162.342 123.1 164.996 125.355 166.55 128.333ZM216.043 75.5796L237.309 138.581L242.292 128.486C243.822 125.459 246.479 123.154 249.691 122.065C252.904 120.977 256.415 121.193 259.47 122.667L269.607 127.693L251.508 74.1374C245.731 71.2578 240.132 68.035 234.74 64.4862C229.589 69.7598 223.141 73.5856 216.043 75.5796ZM204.455 8.94277C199.409 8.95459 194.479 10.461 190.288 13.272C186.097 16.0829 182.833 20.0723 180.907 24.7368C178.982 29.4012 178.481 34.5315 179.468 39.4803C180.456 44.429 182.887 48.9744 186.455 52.5427C190.024 56.1109 194.569 58.5422 199.518 59.5296C204.466 60.5169 209.597 60.0162 214.261 58.0905C218.926 56.1649 222.915 52.9006 225.726 48.7097C228.537 44.5187 230.043 39.5891 230.055 34.5428C230.063 29.6491 228.642 24.8597 225.968 20.7614C223.672 17.135 220.495 14.1493 216.733 12.0826C212.971 10.0159 208.747 8.93573 204.455 8.94277ZM126.239 68.6505C139.85 64.1576 152.834 57.9494 164.878 50.1758C160.764 40.1685 160.764 28.9426 164.878 18.9353C152.827 11.1629 139.841 4.94673 126.23 0.435036C124.76 -0.0546951 123.185 -0.132616 121.674 0.209727C120.163 0.55207 118.775 1.30161 117.66 2.37701C116.545 3.45241 115.746 4.81262 115.349 6.31004C114.953 7.80747 114.974 9.38494 115.41 10.8713C117.787 18.5462 119.038 26.5256 119.122 34.5598C119.033 42.5868 117.788 50.5591 115.427 58.2313C114.996 59.7157 114.978 61.2897 115.376 62.7834C115.774 64.277 116.573 65.6334 117.686 66.7061C118.799 67.7787 120.184 68.5268 121.692 68.8695C123.199 69.2122 124.771 69.1365 126.239 68.6505ZM282.689 68.6761C284.158 69.1658 285.734 69.2438 287.245 68.9014C288.756 68.5591 290.144 67.8095 291.259 66.7341C292.374 65.6587 293.173 64.2985 293.57 62.8011C293.966 61.3037 293.945 59.7262 293.509 58.2398C291.129 50.5682 289.876 42.5916 289.789 34.5598C289.878 26.5301 291.123 18.5551 293.483 10.8798C293.915 9.39546 293.932 7.82141 293.534 6.32779C293.136 4.83416 292.337 3.47773 291.224 2.40509C290.111 1.33244 288.726 0.584349 287.219 0.24165C285.711 -0.101049 284.139 -0.025327 282.672 0.460636C269.064 4.9556 256.083 11.1637 244.041 18.9353C248.154 28.9398 248.154 40.1628 244.041 50.1673C256.089 57.947 269.075 64.1662 282.689 68.6761ZM25.2552 311.193C-4.01415 173.892 52.3059 100.847 98.4712 65.5188C97.6884 61.4907 97.8934 57.333 99.0685 53.4014C100.122 49.8505 100.921 46.2288 101.458 42.5641C50.5992 75.9294 -24.4088 153.839 7.76185 311.193H25.2552ZM307.453 42.5641C307.99 46.2288 308.788 49.8505 309.842 53.4014C311.017 57.333 311.222 61.4907 310.439 65.5188C356.605 100.847 412.925 173.892 383.655 311.193H401.149C433.319 153.839 358.311 75.9294 307.453 42.5641Z" fill="black"/>
<path d="M204.455 405.06C209.168 405.06 212.989 401.24 212.989 396.527C212.989 391.814 209.168 387.993 204.455 387.993C199.742 387.993 195.922 391.814 195.922 396.527C195.922 401.24 199.742 405.06 204.455 405.06Z" fill="black"/>
<path d="M110.589 439.193C115.301 439.193 119.122 435.373 119.122 430.66C119.122 425.947 115.301 422.127 110.589 422.127C105.876 422.127 102.055 425.947 102.055 430.66C102.055 435.373 105.876 439.193 110.589 439.193Z" fill="black"/>
<path d="M68.6301 311.193H119.403C119.236 308.922 119.142 306.645 119.122 304.367C119.918 274.754 129.152 245.985 145.737 221.44C118.192 207.94 91.8152 206.105 76.7965 217.327C54.3368 234.172 55.8216 277.06 68.6301 311.193ZM167.822 404.599C169.018 404.971 170.117 405.601 171.042 406.446C171.967 407.29 172.695 408.328 173.174 409.486C173.653 410.643 173.871 411.891 173.813 413.143C173.756 414.394 173.423 415.617 172.839 416.725C171.975 418.321 171.649 420.154 171.91 421.95C172.171 423.746 173.005 425.41 174.289 426.693C175.572 427.977 177.236 428.811 179.032 429.072C180.828 429.333 182.661 429.007 184.257 428.143C185.365 427.559 186.588 427.226 187.839 427.169C189.091 427.111 190.339 427.329 191.496 427.808C192.654 428.287 193.692 429.015 194.536 429.94C195.38 430.865 196.011 431.964 196.383 433.16C196.895 434.904 197.958 436.435 199.414 437.524C200.869 438.613 202.638 439.202 204.455 439.202C206.273 439.202 208.042 438.613 209.497 437.524C210.952 436.435 212.015 434.904 212.528 433.16C212.899 431.964 213.53 430.865 214.374 429.94C215.219 429.015 216.257 428.287 217.414 427.808C218.571 427.329 219.82 427.111 221.071 427.169C222.322 427.226 223.545 427.559 224.654 428.143C226.249 429.007 228.082 429.333 229.878 429.072C231.674 428.811 233.338 427.977 234.621 426.693C235.905 425.41 236.739 423.746 237.001 421.95C237.262 420.154 236.936 418.321 236.071 416.725C235.487 415.617 235.155 414.394 235.097 413.143C235.039 411.891 235.257 410.643 235.736 409.486C236.215 408.328 236.943 407.29 237.868 406.446C238.793 405.601 239.893 404.971 241.089 404.599C242.833 404.087 244.364 403.023 245.453 401.568C246.542 400.113 247.13 398.344 247.13 396.527C247.13 394.709 246.542 392.94 245.453 391.485C244.364 390.03 242.833 388.967 241.089 388.454C239.893 388.083 238.793 387.452 237.868 386.608C236.943 385.763 236.215 384.725 235.736 383.568C235.257 382.411 235.039 381.162 235.097 379.911C235.155 378.66 235.487 377.437 236.071 376.328C236.919 374.733 237.231 372.908 236.962 371.122C236.693 369.336 235.858 367.684 234.578 366.409C233.299 365.135 231.643 364.305 229.856 364.043C228.069 363.781 226.245 364.1 224.654 364.953C223.545 365.537 222.321 365.869 221.07 365.927C219.818 365.984 218.569 365.765 217.411 365.285C216.254 364.806 215.216 364.077 214.372 363.151C213.528 362.225 212.898 361.124 212.528 359.927C212.01 358.188 210.945 356.663 209.49 355.578C208.036 354.493 206.27 353.907 204.455 353.907C202.641 353.907 200.875 354.493 199.42 355.578C197.966 356.663 196.9 358.188 196.383 359.927C196.012 361.124 195.382 362.225 194.538 363.151C193.694 364.077 192.656 364.806 191.499 365.285C190.341 365.765 189.093 365.984 187.841 365.927C186.589 365.869 185.366 365.537 184.257 364.953C182.666 364.117 180.849 363.811 179.072 364.081C177.296 364.35 175.651 365.181 174.38 366.452C173.11 367.723 172.279 369.367 172.009 371.144C171.739 372.921 172.045 374.738 172.882 376.328C173.466 377.437 173.798 378.66 173.856 379.911C173.914 381.162 173.696 382.411 173.217 383.568C172.738 384.725 172.01 385.763 171.085 386.608C170.16 387.452 169.06 388.083 167.864 388.454C166.12 388.967 164.589 390.03 163.5 391.485C162.411 392.94 161.823 394.709 161.823 396.527C161.823 398.344 162.411 400.113 163.5 401.568C164.589 403.023 166.12 404.087 167.864 404.599H167.822ZM204.455 370.927C209.518 370.927 214.468 372.428 218.678 375.241C222.888 378.054 226.169 382.052 228.107 386.73C230.044 391.408 230.551 396.555 229.563 401.521C228.576 406.487 226.137 411.048 222.557 414.629C218.977 418.209 214.415 420.647 209.45 421.635C204.484 422.623 199.336 422.116 194.659 420.178C189.981 418.24 185.983 414.959 183.17 410.749C180.357 406.539 178.855 401.59 178.855 396.527C178.855 389.737 181.552 383.226 186.353 378.425C191.154 373.624 197.666 370.927 204.455 370.927ZM136.47 311.193H272.44C272.619 308.975 272.722 306.696 272.722 304.367C271.79 275.129 261.665 246.93 243.785 223.778C235.175 213.06 221.377 200.26 204.455 200.26C187.534 200.26 173.735 213.06 165.125 223.769C147.244 246.924 137.118 275.126 136.189 304.367C136.189 306.696 136.291 308.975 136.47 311.193ZM340.366 311.193C353.097 277.06 354.539 234.146 332.114 217.327C317.095 206.08 290.702 207.94 263.173 221.44C279.759 245.985 288.992 274.754 289.789 304.367C289.789 306.688 289.652 308.949 289.507 311.193H340.366Z" fill="black"/>
<path d="M298.322 439.193C303.035 439.193 306.855 435.373 306.855 430.66C306.855 425.947 303.035 422.127 298.322 422.127C293.609 422.127 289.789 425.947 289.789 430.66C289.789 435.373 293.609 439.193 298.322 439.193Z" fill="black"/>
<path d="M10.7486 332.851C10.0137 334.234 9.68323 335.796 9.79491 337.358C9.90659 338.92 10.4559 340.419 11.3801 341.683C37.7903 378.029 54.1044 420.72 58.6633 465.416C58.8425 467.554 59.8083 469.548 61.3736 471.014C62.939 472.48 64.9926 473.313 67.1369 473.352H341.757C343.909 473.311 345.97 472.47 347.537 470.994C349.105 469.518 350.068 467.512 350.239 465.365C354.804 420.7 371.112 378.039 397.505 341.717C398.422 340.446 398.969 338.945 399.085 337.382C399.202 335.818 398.883 334.253 398.165 332.86C397.447 331.467 396.357 330.299 395.016 329.487C393.675 328.675 392.135 328.251 390.567 328.26H18.3433C16.7749 328.24 15.2322 328.659 13.8899 329.47C12.5476 330.282 11.4594 331.453 10.7486 332.851ZM76.4553 396.527V387.993C76.4553 385.73 77.3543 383.56 78.9546 381.959C80.5549 380.359 82.7254 379.46 84.9886 379.46C87.2518 379.46 89.4223 380.359 91.0226 381.959C92.6229 383.56 93.5219 385.73 93.5219 387.993V396.527C93.5219 398.79 92.6229 400.96 91.0226 402.561C89.4223 404.161 87.2518 405.06 84.9886 405.06C82.7254 405.06 80.5549 404.161 78.9546 402.561C77.3543 400.96 76.4553 398.79 76.4553 396.527ZM332.455 396.527C332.455 398.79 331.556 400.96 329.956 402.561C328.356 404.161 326.185 405.06 323.922 405.06C321.659 405.06 319.488 404.161 317.888 402.561C316.288 400.96 315.389 398.79 315.389 396.527V387.993C315.389 385.73 316.288 383.56 317.888 381.959C319.488 380.359 321.659 379.46 323.922 379.46C326.185 379.46 328.356 380.359 329.956 381.959C331.556 383.56 332.455 385.73 332.455 387.993V396.527ZM340.989 362.393H349.522C351.785 362.393 353.956 363.293 355.556 364.893C357.156 366.493 358.055 368.664 358.055 370.927C358.055 373.19 357.156 375.36 355.556 376.961C353.956 378.561 351.785 379.46 349.522 379.46H340.989C338.725 379.46 336.555 378.561 334.955 376.961C333.354 375.36 332.455 373.19 332.455 370.927C332.455 368.664 333.354 366.493 334.955 364.893C336.555 363.293 338.725 362.393 340.989 362.393ZM315.389 345.327C315.389 343.064 316.288 340.893 317.888 339.293C319.488 337.693 321.659 336.793 323.922 336.793C326.185 336.793 328.356 337.693 329.956 339.293C331.556 340.893 332.455 343.064 332.455 345.327V353.86C332.455 356.123 331.556 358.294 329.956 359.894C328.356 361.494 326.185 362.393 323.922 362.393C321.659 362.393 319.488 361.494 317.888 359.894C316.288 358.294 315.389 356.123 315.389 353.86V345.327ZM298.322 362.393H306.855C309.118 362.393 311.289 363.293 312.889 364.893C314.49 366.493 315.389 368.664 315.389 370.927C315.389 373.19 314.49 375.36 312.889 376.961C311.289 378.561 309.118 379.46 306.855 379.46H298.322C296.059 379.46 293.888 378.561 292.288 376.961C290.688 375.36 289.789 373.19 289.789 370.927C289.789 368.664 290.688 366.493 292.288 364.893C293.888 363.293 296.059 362.393 298.322 362.393ZM298.322 405.06C303.385 405.06 308.335 406.562 312.545 409.375C316.754 412.188 320.036 416.186 321.973 420.863C323.911 425.541 324.418 430.689 323.43 435.654C322.442 440.62 320.004 445.182 316.424 448.762C312.844 452.342 308.282 454.78 303.316 455.768C298.35 456.756 293.203 456.249 288.525 454.311C283.847 452.374 279.849 449.093 277.036 444.883C274.223 440.673 272.722 435.723 272.722 430.66C272.722 423.871 275.419 417.359 280.22 412.558C285.021 407.757 291.532 405.06 298.322 405.06ZM155.03 376.047C154.448 372.111 154.795 368.094 156.044 364.316C157.292 360.539 159.408 357.106 162.221 354.293C165.035 351.48 168.467 349.364 172.245 348.115C176.022 346.867 180.04 346.519 183.975 347.102C186.345 343.901 189.432 341.299 192.989 339.507C196.545 337.715 200.473 336.781 204.455 336.781C208.438 336.781 212.365 337.715 215.922 339.507C219.479 341.299 222.566 343.901 224.935 347.102C228.871 346.519 232.888 346.867 236.666 348.115C240.443 349.364 243.876 351.48 246.689 354.293C249.502 357.106 251.618 360.539 252.867 364.316C254.115 368.094 254.463 372.111 253.88 376.047C257.081 378.416 259.683 381.503 261.475 385.06C263.267 388.617 264.201 392.544 264.201 396.527C264.201 400.51 263.267 404.437 261.475 407.994C259.683 411.55 257.081 414.637 253.88 417.007C254.463 420.943 254.115 424.96 252.867 428.737C251.618 432.515 249.502 435.948 246.689 438.761C243.876 441.574 240.443 443.69 236.666 444.938C232.888 446.187 228.871 446.534 224.935 445.952C222.566 449.153 219.479 451.754 215.922 453.546C212.365 455.339 208.438 456.272 204.455 456.272C200.473 456.272 196.545 455.339 192.989 453.546C189.432 451.754 186.345 449.153 183.975 445.952C180.04 446.534 176.022 446.187 172.245 444.938C168.467 443.69 165.035 441.574 162.221 438.761C159.408 435.948 157.292 432.515 156.044 428.737C154.795 424.96 154.448 420.943 155.03 417.007C151.829 414.637 149.228 411.55 147.436 407.994C145.643 404.437 144.71 400.51 144.71 396.527C144.71 392.544 145.643 388.617 147.436 385.06C149.228 381.503 151.829 378.416 155.03 376.047ZM136.189 430.66C136.189 435.723 134.687 440.673 131.874 444.883C129.061 449.093 125.063 452.374 120.385 454.311C115.708 456.249 110.56 456.756 105.594 455.768C100.628 454.78 96.0669 452.342 92.4867 448.762C88.9064 445.182 86.4683 440.62 85.4805 435.654C84.4927 430.689 84.9997 425.541 86.9373 420.863C88.8749 416.186 92.1561 412.188 96.366 409.375C100.576 406.562 105.525 405.06 110.589 405.06C117.378 405.06 123.89 407.757 128.691 412.558C133.491 417.359 136.189 423.871 136.189 430.66ZM102.055 362.393H110.589C112.852 362.393 115.022 363.293 116.623 364.893C118.223 366.493 119.122 368.664 119.122 370.927C119.122 373.19 118.223 375.36 116.623 376.961C115.022 378.561 112.852 379.46 110.589 379.46H102.055C99.7921 379.46 97.6216 378.561 96.0213 376.961C94.421 375.36 93.5219 373.19 93.5219 370.927C93.5219 368.664 94.421 366.493 96.0213 364.893C97.6216 363.293 99.7921 362.393 102.055 362.393ZM76.4553 345.327C76.4553 343.064 77.3543 340.893 78.9546 339.293C80.5549 337.693 82.7254 336.793 84.9886 336.793C87.2518 336.793 89.4223 337.693 91.0226 339.293C92.6229 340.893 93.5219 343.064 93.5219 345.327V353.86C93.5219 356.123 92.6229 358.294 91.0226 359.894C89.4223 361.494 87.2518 362.393 84.9886 362.393C82.7254 362.393 80.5549 361.494 78.9546 359.894C77.3543 358.294 76.4553 356.123 76.4553 353.86V345.327ZM59.3886 362.393H67.9219C70.1851 362.393 72.3556 363.293 73.9559 364.893C75.5562 366.493 76.4553 368.664 76.4553 370.927C76.4553 373.19 75.5562 375.36 73.9559 376.961C72.3556 378.561 70.1851 379.46 67.9219 379.46H59.3886C57.1254 379.46 54.9549 378.561 53.3546 376.961C51.7543 375.36 50.8553 373.19 50.8553 370.927C50.8553 368.664 51.7543 366.493 53.3546 364.893C54.9549 363.293 57.1254 362.393 59.3886 362.393Z" fill="black"/>
</svg>
