<svg width="396" height="512" viewBox="0 0 396 512" fill="none" xmlns="http://www.w3.org/2000/svg">
<mask id="path-1-inside-1_1085_14" fill="white">
<path d="M375.373 396.319C369.366 382.314 357.791 371.076 343.615 365.486L256.364 331.081C255.441 330.721 254.648 330.09 254.09 329.271C253.533 328.451 253.236 327.482 253.24 326.491V299.379C271.923 285.364 285.455 267.006 293.532 244.685C296.262 237.142 298.363 229.134 299.843 220.705C318.864 219.821 334.067 204.072 334.067 184.837C334.067 180.931 333.413 177.051 332.175 173.369C337.99 169.414 341.817 162.746 341.817 155.198V153.359C341.817 141.249 331.966 131.397 319.856 131.397H314.369V114.799C314.369 75.4873 293.064 39.6719 258.65 20.8386C257.84 9.2127 248.129 0 236.301 0C229.269 0 222.985 3.25924 218.873 8.34249C215.026 7.92897 211.16 7.7212 207.291 7.72005H190.966C186.388 7.72005 181.779 8.01213 177.267 8.58925C176.985 8.62551 176.71 8.67889 176.44 8.74436C172.328 4.00959 166.271 1.00718 159.523 1.00718C147.541 1.00718 137.726 10.4576 137.139 22.296C136.83 22.4279 136.525 22.574 136.228 22.7502C103.944 41.9874 83.8882 77.2579 83.8882 114.798V131.396H76.4703C64.361 131.396 54.5087 141.248 54.5087 153.358V155.197C54.5087 162.978 58.5807 169.823 64.7024 173.725C63.5349 177.313 62.9434 181.064 62.9499 184.837C62.9499 203.663 77.5148 219.142 95.9673 220.621C97.4278 228.961 99.4915 236.888 102.174 244.361C110.23 266.81 123.785 285.263 142.532 299.341V326.491C142.536 327.482 142.239 328.451 141.682 329.27C141.124 330.09 140.331 330.721 139.408 331.081L52.1569 365.486C37.9808 371.076 26.4063 382.314 20.3995 396.32C6.86395 427.884 0 461.303 0 495.646C0 504.664 7.33631 512 16.3536 512H269.8C273.973 512 277.354 508.618 277.354 504.446C277.354 500.274 273.973 496.892 269.8 496.892H200.423V478.28H216.491C223.299 478.28 228.838 472.741 228.838 465.933V447.358C228.838 440.55 223.299 435.01 216.491 435.01H200.423V413.718H235.886C252.166 413.718 265.411 400.474 265.411 384.193V350.887L278.465 356.035V394.988C278.465 406.856 282.957 418.143 291.115 426.767L302.541 438.845C305.442 441.901 307.055 445.956 307.049 450.169V496.892H300.016C295.844 496.892 292.463 500.274 292.463 504.446C292.463 508.618 295.844 512 300.016 512H379.421C388.438 512 395.773 504.664 395.773 495.646C395.772 461.301 388.909 427.882 375.373 396.319ZM157.639 308.958C170.223 315.435 184.065 318.687 197.911 318.687C211.74 318.687 225.562 315.443 238.132 308.984V326.06C237.998 326.201 237.869 326.347 237.746 326.498L233.645 331.667C224.934 342.644 211.9 348.94 197.885 348.94C183.872 348.94 170.837 342.644 162.126 331.667L157.958 326.416C157.857 326.288 157.747 326.172 157.639 326.052V308.958ZM301.808 205.298C302.551 196.319 302.66 186.929 302.127 177.157H317.495C318.469 179.6 318.966 182.206 318.959 184.836C318.959 195.059 311.541 203.565 301.808 205.298ZM299.262 114.798V131.396H258.713V38.5338C283.95 55.533 299.262 83.9114 299.262 114.798ZM228.997 131.396V23.419C228.997 19.3913 232.273 16.1149 236.301 16.1149C240.329 16.1149 243.605 19.3913 243.605 23.419V131.396H228.997ZM190.966 22.8278H207.291C209.49 22.8278 211.695 22.9063 213.889 23.0614V131.396H181.934V23.419C181.934 23.3686 181.931 23.3193 181.93 23.2689C184.933 22.9763 187.949 22.8291 190.966 22.8278ZM98.9959 114.798C98.9959 85.3003 113.421 57.4406 137.111 40.254V72.3358C137.111 74.3392 137.907 76.2606 139.323 77.6772C140.74 79.0938 142.661 79.8897 144.665 79.8897C146.668 79.8897 148.589 79.0938 150.006 77.6772C151.423 76.2606 152.218 74.3392 152.218 72.3358V23.419C152.218 19.3913 155.495 16.1149 159.524 16.1149C163.55 16.1149 166.828 19.3913 166.828 23.419V131.396H152.219V102.55C152.219 100.547 151.424 98.6255 150.007 97.2089C148.59 95.7923 146.669 94.9964 144.666 94.9964C142.662 94.9964 140.741 95.7923 139.324 97.2089C137.908 98.6255 137.112 100.547 137.112 102.55V131.396H98.9959V114.798ZM69.6164 153.358C69.6186 151.54 70.3413 149.798 71.6262 148.514C72.9111 147.229 74.6532 146.506 76.4703 146.504H319.857C321.674 146.506 323.416 147.229 324.701 148.514C325.986 149.798 326.709 151.54 326.711 153.358V155.197C326.709 157.014 325.986 158.756 324.701 160.041C323.416 161.326 321.674 162.048 319.857 162.051H76.4703C74.6532 162.048 72.9111 161.326 71.6262 160.041C70.3413 158.756 69.6186 157.014 69.6164 155.197V153.358ZM78.0576 184.836C78.0576 182.171 78.5753 179.597 79.5472 177.157H93.6921C93.1633 186.835 93.2691 196.139 93.9933 205.04C84.8662 202.839 78.0576 194.628 78.0576 184.836ZM108.83 177.157H286.991C290.122 230.513 273.267 269.268 236.84 292.352C213.192 307.339 182.63 307.338 158.983 292.352C122.551 269.264 105.697 230.512 108.83 177.157ZM15.1067 495.646C15.1067 463.361 21.5587 431.946 34.2835 402.274C38.711 391.948 47.2459 383.662 57.6974 379.54L102.238 361.977V394.988C102.238 402.98 99.2135 410.579 93.7213 416.385L82.2969 428.463C76.7376 434.321 73.6439 442.093 73.6562 450.169V496.892H16.3536C16.0232 496.892 15.7063 496.761 15.4726 496.527C15.2388 496.294 15.1073 495.977 15.1067 495.646ZM213.73 463.172H155.682V450.118H213.73V463.172ZM152.921 435.01C146.113 435.01 140.574 440.55 140.574 447.358V465.933C140.574 472.741 146.113 478.28 152.921 478.28H185.315V496.892H88.763V450.169C88.763 445.94 90.3634 441.918 93.2711 438.845L104.696 426.767C112.835 418.19 117.364 406.812 117.346 394.988C117.346 394.988 117.332 356.184 117.323 356.029L130.401 350.872V384.193C130.401 400.473 143.645 413.718 159.925 413.718H185.315V435.01H152.921ZM235.886 398.61H159.925C151.976 398.61 145.509 392.143 145.509 384.193V344.89C147.417 344.074 149.187 342.968 150.757 341.611C162.348 355.873 179.476 364.049 197.886 364.049C216.297 364.049 233.427 355.873 245.017 341.611C246.598 342.977 248.381 344.09 250.304 344.908V384.193C250.303 392.142 243.835 398.61 235.886 398.61ZM379.42 496.892H322.156V450.169C322.156 442.061 319.088 434.352 313.517 428.463L302.091 416.385C296.611 410.61 293.561 402.949 293.573 394.988V361.992L338.075 379.54C348.526 383.662 357.061 391.948 361.49 402.274C374.213 431.945 380.665 463.36 380.665 495.646C380.665 495.977 380.533 496.293 380.3 496.526C380.066 496.76 379.75 496.891 379.42 496.892Z"/>
</mask>
<path d="M375.373 396.319C369.366 382.314 357.791 371.076 343.615 365.486L256.364 331.081C255.441 330.721 254.648 330.09 254.09 329.271C253.533 328.451 253.236 327.482 253.24 326.491V299.379C271.923 285.364 285.455 267.006 293.532 244.685C296.262 237.142 298.363 229.134 299.843 220.705C318.864 219.821 334.067 204.072 334.067 184.837C334.067 180.931 333.413 177.051 332.175 173.369C337.99 169.414 341.817 162.746 341.817 155.198V153.359C341.817 141.249 331.966 131.397 319.856 131.397H314.369V114.799C314.369 75.4873 293.064 39.6719 258.65 20.8386C257.84 9.2127 248.129 0 236.301 0C229.269 0 222.985 3.25924 218.873 8.34249C215.026 7.92897 211.16 7.7212 207.291 7.72005H190.966C186.388 7.72005 181.779 8.01213 177.267 8.58925C176.985 8.62551 176.71 8.67889 176.44 8.74436C172.328 4.00959 166.271 1.00718 159.523 1.00718C147.541 1.00718 137.726 10.4576 137.139 22.296C136.83 22.4279 136.525 22.574 136.228 22.7502C103.944 41.9874 83.8882 77.2579 83.8882 114.798V131.396H76.4703C64.361 131.396 54.5087 141.248 54.5087 153.358V155.197C54.5087 162.978 58.5807 169.823 64.7024 173.725C63.5349 177.313 62.9434 181.064 62.9499 184.837C62.9499 203.663 77.5148 219.142 95.9673 220.621C97.4278 228.961 99.4915 236.888 102.174 244.361C110.23 266.81 123.785 285.263 142.532 299.341V326.491C142.536 327.482 142.239 328.451 141.682 329.27C141.124 330.09 140.331 330.721 139.408 331.081L52.1569 365.486C37.9808 371.076 26.4063 382.314 20.3995 396.32C6.86395 427.884 0 461.303 0 495.646C0 504.664 7.33631 512 16.3536 512H269.8C273.973 512 277.354 508.618 277.354 504.446C277.354 500.274 273.973 496.892 269.8 496.892H200.423V478.28H216.491C223.299 478.28 228.838 472.741 228.838 465.933V447.358C228.838 440.55 223.299 435.01 216.491 435.01H200.423V413.718H235.886C252.166 413.718 265.411 400.474 265.411 384.193V350.887L278.465 356.035V394.988C278.465 406.856 282.957 418.143 291.115 426.767L302.541 438.845C305.442 441.901 307.055 445.956 307.049 450.169V496.892H300.016C295.844 496.892 292.463 500.274 292.463 504.446C292.463 508.618 295.844 512 300.016 512H379.421C388.438 512 395.773 504.664 395.773 495.646C395.772 461.301 388.909 427.882 375.373 396.319ZM157.639 308.958C170.223 315.435 184.065 318.687 197.911 318.687C211.74 318.687 225.562 315.443 238.132 308.984V326.06C237.998 326.201 237.869 326.347 237.746 326.498L233.645 331.667C224.934 342.644 211.9 348.94 197.885 348.94C183.872 348.94 170.837 342.644 162.126 331.667L157.958 326.416C157.857 326.288 157.747 326.172 157.639 326.052V308.958ZM301.808 205.298C302.551 196.319 302.66 186.929 302.127 177.157H317.495C318.469 179.6 318.966 182.206 318.959 184.836C318.959 195.059 311.541 203.565 301.808 205.298ZM299.262 114.798V131.396H258.713V38.5338C283.95 55.533 299.262 83.9114 299.262 114.798ZM228.997 131.396V23.419C228.997 19.3913 232.273 16.1149 236.301 16.1149C240.329 16.1149 243.605 19.3913 243.605 23.419V131.396H228.997ZM190.966 22.8278H207.291C209.49 22.8278 211.695 22.9063 213.889 23.0614V131.396H181.934V23.419C181.934 23.3686 181.931 23.3193 181.93 23.2689C184.933 22.9763 187.949 22.8291 190.966 22.8278ZM98.9959 114.798C98.9959 85.3003 113.421 57.4406 137.111 40.254V72.3358C137.111 74.3392 137.907 76.2606 139.323 77.6772C140.74 79.0938 142.661 79.8897 144.665 79.8897C146.668 79.8897 148.589 79.0938 150.006 77.6772C151.423 76.2606 152.218 74.3392 152.218 72.3358V23.419C152.218 19.3913 155.495 16.1149 159.524 16.1149C163.55 16.1149 166.828 19.3913 166.828 23.419V131.396H152.219V102.55C152.219 100.547 151.424 98.6255 150.007 97.2089C148.59 95.7923 146.669 94.9964 144.666 94.9964C142.662 94.9964 140.741 95.7923 139.324 97.2089C137.908 98.6255 137.112 100.547 137.112 102.55V131.396H98.9959V114.798ZM69.6164 153.358C69.6186 151.54 70.3413 149.798 71.6262 148.514C72.9111 147.229 74.6532 146.506 76.4703 146.504H319.857C321.674 146.506 323.416 147.229 324.701 148.514C325.986 149.798 326.709 151.54 326.711 153.358V155.197C326.709 157.014 325.986 158.756 324.701 160.041C323.416 161.326 321.674 162.048 319.857 162.051H76.4703C74.6532 162.048 72.9111 161.326 71.6262 160.041C70.3413 158.756 69.6186 157.014 69.6164 155.197V153.358ZM78.0576 184.836C78.0576 182.171 78.5753 179.597 79.5472 177.157H93.6921C93.1633 186.835 93.2691 196.139 93.9933 205.04C84.8662 202.839 78.0576 194.628 78.0576 184.836ZM108.83 177.157H286.991C290.122 230.513 273.267 269.268 236.84 292.352C213.192 307.339 182.63 307.338 158.983 292.352C122.551 269.264 105.697 230.512 108.83 177.157ZM15.1067 495.646C15.1067 463.361 21.5587 431.946 34.2835 402.274C38.711 391.948 47.2459 383.662 57.6974 379.54L102.238 361.977V394.988C102.238 402.98 99.2135 410.579 93.7213 416.385L82.2969 428.463C76.7376 434.321 73.6439 442.093 73.6562 450.169V496.892H16.3536C16.0232 496.892 15.7063 496.761 15.4726 496.527C15.2388 496.294 15.1073 495.977 15.1067 495.646ZM213.73 463.172H155.682V450.118H213.73V463.172ZM152.921 435.01C146.113 435.01 140.574 440.55 140.574 447.358V465.933C140.574 472.741 146.113 478.28 152.921 478.28H185.315V496.892H88.763V450.169C88.763 445.94 90.3634 441.918 93.2711 438.845L104.696 426.767C112.835 418.19 117.364 406.812 117.346 394.988C117.346 394.988 117.332 356.184 117.323 356.029L130.401 350.872V384.193C130.401 400.473 143.645 413.718 159.925 413.718H185.315V435.01H152.921ZM235.886 398.61H159.925C151.976 398.61 145.509 392.143 145.509 384.193V344.89C147.417 344.074 149.187 342.968 150.757 341.611C162.348 355.873 179.476 364.049 197.886 364.049C216.297 364.049 233.427 355.873 245.017 341.611C246.598 342.977 248.381 344.09 250.304 344.908V384.193C250.303 392.142 243.835 398.61 235.886 398.61ZM379.42 496.892H322.156V450.169C322.156 442.061 319.088 434.352 313.517 428.463L302.091 416.385C296.611 410.61 293.561 402.949 293.573 394.988V361.992L338.075 379.54C348.526 383.662 357.061 391.948 361.49 402.274C374.213 431.945 380.665 463.36 380.665 495.646C380.665 495.977 380.533 496.293 380.3 496.526C380.066 496.76 379.75 496.891 379.42 496.892Z" fill="black" stroke="black" stroke-width="6" mask="url(#path-1-inside-1_1085_14)"/>
</svg>
