<svg width="368" height="498" viewBox="0 0 368 498" fill="none" xmlns="http://www.w3.org/2000/svg">
<path d="M116.12 170C115.297 170.001 114.493 169.748 113.819 169.275C113.145 168.802 112.633 168.133 112.354 167.359C112.074 166.584 112.041 165.742 112.257 164.948C112.474 164.154 112.93 163.446 113.564 162.92C123.992 154.276 151.296 153.588 155.484 157.588C156.2 158.27 156.638 159.194 156.713 160.18C156.789 161.166 156.496 162.145 155.892 162.928C155.288 163.711 154.415 164.242 153.443 164.42C152.47 164.597 151.466 164.408 150.624 163.888C147.132 162.876 126.592 162.5 118.672 169.088C117.953 169.68 117.051 170.002 116.12 170ZM236.868 202.88V209.088C236.816 211.699 235.742 214.185 233.877 216.013C232.012 217.841 229.505 218.865 226.894 218.865C224.283 218.865 221.776 217.841 219.911 216.013C218.046 214.185 216.972 211.699 216.92 209.088V200.504C216.935 197.855 217.982 195.317 219.84 193.428C220.057 193.218 220.285 193.021 220.524 192.836C225.319 197.146 230.857 200.55 236.868 202.88ZM183.96 236.36C184.048 236.36 192.8 236.296 192.8 230.68C192.8 229.867 192.552 229.073 192.089 228.404C191.626 227.735 190.97 227.223 190.208 226.937C189.447 226.651 188.616 226.603 187.827 226.801C187.038 226.999 186.328 227.433 185.792 228.044C184.605 228.471 183.307 228.471 182.12 228.044C181.583 227.435 180.873 227.004 180.084 226.808C179.296 226.612 178.467 226.661 177.707 226.948C176.947 227.235 176.292 227.747 175.83 228.415C175.368 229.083 175.12 229.876 175.12 230.688C175.12 236.296 183.872 236.36 183.96 236.36ZM184.02 271.48C184.188 271.48 200.7 270.848 200.7 263C200.702 262.074 200.382 261.176 199.795 260.46C199.208 259.743 198.391 259.252 197.483 259.071C196.575 258.89 195.632 259.029 194.815 259.466C193.998 259.902 193.358 260.609 193.004 261.464C190.19 262.793 187.116 263.483 184.004 263.483C180.892 263.483 177.818 262.793 175.004 261.464C174.646 260.613 174.005 259.911 173.189 259.479C172.373 259.046 171.432 258.909 170.526 259.092C169.621 259.274 168.806 259.764 168.221 260.479C167.636 261.193 167.316 262.089 167.316 263.012C167.3 270.848 183.852 271.48 184.02 271.48Z" fill="black"/>
<path d="M332.716 130.82C313.088 118.924 309.784 106.884 305.204 90.2202C301.917 76.6152 296.833 63.5082 290.088 51.2442C277.132 28.1362 247.032 8.70016 215.2 2.87616C200.181 -0.0896955 184.693 0.300051 169.842 4.01752C154.992 7.735 141.146 14.6883 129.296 24.3802C66.1681 25.5802 57.7641 65.9802 51.6201 95.5522C50.2859 104.101 47.8775 112.447 44.4521 120.392C39.3033 129.721 33.1566 138.463 26.1201 146.464C12.6121 162.864 -0.143919 178.372 0.644081 212.216C1.48408 247.192 27.5761 263.292 44.8401 273.944C51.8161 278.244 58.4001 282.308 59.7321 285.58C60.6441 287.836 61.3321 290.088 62.0961 292.468C65.8001 304.296 70.0001 317.704 101.856 336.948C115.524 345.206 130.402 351.27 145.948 354.92C140.16 361.672 131.912 364.96 123.232 368.352C118.447 370.12 113.772 372.173 109.232 374.5L109.18 374.524L109.108 374.56C66.2441 397.632 46.7081 422.132 38.8561 434.672C36.9038 437.292 35.5258 440.294 34.8117 443.482C34.0977 446.671 34.0637 449.974 34.7121 453.176C36.9521 461.832 45.4761 467.52 53.5121 471.94C66.9136 478.753 81.124 483.842 95.8041 487.084C124.645 493.914 154.203 497.243 183.84 497C213.591 497.249 243.262 493.891 272.204 487C286.747 483.734 300.83 478.677 314.128 471.944C322.168 467.52 330.692 461.832 332.928 453.172C333.581 449.974 333.553 446.673 332.845 443.486C332.137 440.299 330.766 437.297 328.82 434.676C319.32 419.52 299.62 396.932 259.704 375.172C259.58 375.06 259.436 374.984 259.304 374.884C259.056 374.697 258.788 374.539 258.504 374.412C258.345 374.353 258.182 374.303 258.016 374.264C257.964 374.244 257.911 374.228 257.856 374.216C253.519 372.034 249.066 370.091 244.516 368.396C235.056 364.704 226.72 361.392 220.952 354.032C229.983 351.861 238.849 349.054 247.484 345.632C282.568 331.78 291.396 313.632 297.84 300.408C301.42 293.056 304.24 287.244 310.536 283.984C345.512 265.832 366.216 235.64 367.336 201.148C368.28 171.72 354.696 144.112 332.716 130.82ZM54.7761 205.464C60.4576 205.419 66.1129 204.689 71.6201 203.292C72.5441 212.032 74.1161 224.828 76.3921 237.22C63.1441 239.704 48.8561 228.82 44.0681 216.02C42.6104 212.138 41.8428 208.031 41.8001 203.884C46.0415 204.956 50.4014 205.487 54.7761 205.464ZM84.9241 239.344C82.1921 225.524 80.4001 210.392 79.4201 201C96.8001 194.904 110.968 183.888 116 172.356C119.855 162.664 122.897 152.668 125.096 142.472C129.188 125.792 133.144 110.072 142.76 101.24C147.987 104.749 153.423 107.934 159.04 110.776C174.92 119.196 189.916 127.148 188.704 142.888C187.97 151.726 189.156 160.618 192.18 168.955C195.204 177.292 199.995 184.876 206.224 191.188C206.332 191.299 206.447 191.404 206.568 191.5C214.169 199.112 223.363 204.944 233.488 208.576C245.058 212.806 257.262 215.046 269.58 215.2C272.172 215.2 274.728 215.087 277.248 214.86C280.458 214.517 283.645 213.983 286.792 213.26C285.592 223.02 284.256 231.66 282.68 239.38C282.488 240.412 282.28 241.448 282.064 242.504C278.224 260.813 269.793 277.845 257.562 292C245.331 306.155 229.702 316.969 212.144 323.424C210.704 323.992 209.26 324.484 207.808 324.956C200.105 327.756 192.001 329.291 183.808 329.504C175.662 329.287 167.604 327.771 159.936 325.012L159.072 324.708C157.9 324.308 156.704 323.88 155.472 323.4C137.923 316.941 122.304 306.128 110.081 291.975C97.859 277.822 89.4348 260.795 85.6001 242.492L84.9241 239.344ZM323.304 192.64C325.01 196.29 325.916 200.262 325.963 204.291C326.01 208.319 325.196 212.311 323.576 216C318.776 228.8 304.484 239.7 291.22 237.22C292.696 229.408 293.984 220.748 295.12 210.932C305.876 207.245 315.556 200.962 323.304 192.64ZM42.4521 451.168C42.1183 449.016 42.2301 446.819 42.7806 444.712C43.3311 442.605 44.3084 440.634 45.6521 438.92C52.5321 427.908 69.0641 407.124 104.308 386.46C96.6523 416.382 92.7662 447.143 92.7401 478.028C80.4901 475.044 68.627 470.651 57.3881 464.936C48.2121 459.9 43.6001 455.652 42.4521 451.168ZM100.732 480.004C100.712 468.004 101.5 423.132 113.34 383.964C134.992 395.862 159.3 402.093 184.006 402.08C208.711 402.067 233.013 395.809 254.652 383.888C266.38 422.688 267.276 466.848 267.264 479.928C239.9 486.166 211.905 489.21 183.84 489C155.884 489.205 127.997 486.186 100.732 480.004ZM322.048 438.924C323.384 440.64 324.352 442.611 324.894 444.717C325.435 446.823 325.538 449.017 325.196 451.164C324.032 455.652 319.428 459.896 310.28 464.928C299.143 470.592 287.393 474.959 275.26 477.944C275.164 447.167 271.307 416.518 263.776 386.676C298.728 407.292 315.2 427.968 322.048 438.924ZM241.6 375.84C243.724 376.668 245.884 377.516 248 378.416C228.208 388.72 206.222 394.093 183.909 394.08C161.596 394.067 139.616 388.667 119.836 378.34C121.932 377.456 124.048 376.62 126.136 375.808C137.46 371.384 149.168 366.812 156.196 354.252C156.244 354.172 156.276 354.076 156.32 353.992C156.364 353.908 156.412 353.82 156.448 353.724C159.612 347.597 161.54 340.907 162.124 334.036C169.152 336.196 176.446 337.368 183.796 337.52C191.171 337.373 198.489 336.192 205.536 334.012C206.108 340.707 207.926 347.237 210.896 353.264C210.964 353.392 211.044 353.488 211.112 353.612L211.156 353.68C218.224 366.68 230.092 371.352 241.6 375.84ZM359.34 200.896C358.312 232.412 339.18 260.096 306.848 276.896C298.208 281.38 294.536 288.928 290.644 296.92C284.444 309.652 276.732 325.496 244.544 338.208C235.527 341.781 226.246 344.645 216.784 346.776C214.859 341.893 213.7 336.741 213.348 331.504C213.908 331.3 214.472 331.128 215.02 330.912C233.632 323.968 250.211 312.478 263.246 297.488C276.282 282.497 285.359 264.484 289.652 245.088C291.463 245.442 293.303 245.623 295.148 245.628C310.816 245.628 325.692 233.18 331.064 218.828C335.656 206.632 334.688 194.704 328.664 186.16C333.239 180.331 336.299 173.46 337.572 166.16C337.626 165.637 337.577 165.109 337.428 164.606C337.278 164.102 337.03 163.633 336.699 163.225C336.368 162.817 335.96 162.478 335.498 162.228C335.036 161.977 334.529 161.821 334.006 161.766C333.483 161.712 332.955 161.761 332.452 161.911C331.948 162.06 331.479 162.308 331.071 162.639C330.663 162.97 330.324 163.379 330.073 163.841C329.823 164.303 329.666 164.809 329.612 165.332C328.224 172.142 325.083 178.471 320.5 183.696C312.744 193.448 302.197 200.6 290.268 204.196C285.769 205.55 281.148 206.462 276.472 206.92C262.773 207.877 249.029 205.882 236.168 201.068C227.054 197.799 218.794 192.519 212 185.62C211.893 185.51 211.779 185.406 211.66 185.308C206.32 179.816 202.218 173.243 199.633 166.031C197.047 158.82 196.038 151.139 196.672 143.504C198.272 122.536 179.42 112.532 162.776 103.708C156.54 100.665 150.583 97.0823 144.972 93.0002C138.996 88.2362 136.484 83.6642 136.832 78.1802C136.899 77.1193 136.542 76.0753 135.839 75.2779C135.136 74.4805 134.145 73.995 133.084 73.9282C132.023 73.8613 130.979 74.2187 130.182 74.9215C129.384 75.6244 128.899 76.6153 128.832 77.6762C128.655 81.1262 129.252 84.5722 130.577 87.7624C131.902 90.9527 133.923 93.8067 136.492 96.1162C125.692 106.704 121.396 123.86 117.292 140.572C115.194 150.327 112.298 159.892 108.632 169.172C104.276 179.172 90.3241 189.32 73.9161 194.372C62.8421 198.352 50.7518 198.493 39.5881 194.772C38.3166 194.271 37.0816 193.681 35.8921 193.008C34.9633 192.492 33.8675 192.366 32.8458 192.658C31.8241 192.95 30.9602 193.635 30.4441 194.564C29.928 195.493 29.802 196.589 30.0938 197.61C30.3856 198.632 31.0713 199.496 32.0001 200.012C32.6601 200.38 33.2961 200.7 33.9321 201.012C33.5391 207.061 34.4377 213.125 36.5681 218.8C41.9401 233.2 56.8001 245.632 72.4481 245.632C74.3122 245.628 76.1716 245.443 78.0001 245.08C82.2911 264.472 91.3648 282.482 104.395 297.47C117.425 312.459 133.998 323.949 152.604 330.896C153.196 331.12 153.76 331.296 154.34 331.524C153.978 337.1 152.667 342.573 150.464 347.708C134.765 344.351 119.734 338.403 105.988 330.108C76.7281 312.432 73.1881 301.076 69.7321 290.108C68.9704 287.572 68.107 285.067 67.1441 282.6C64.8241 276.9 57.8601 272.6 49.0441 267.164C32.3041 256.836 9.37608 242.692 8.64408 212.052C7.92408 181.188 19.2241 167.464 32.3041 151.576C39.699 143.152 46.1519 133.945 51.5481 124.12C55.3486 115.534 58.0072 106.486 59.4561 97.2082C65.7161 67.0522 72.8001 32.9002 130.8 32.3602C131.728 32.3496 132.624 32.019 133.336 31.4242C144.302 22.1229 157.234 15.4295 171.16 11.8475C185.086 8.26557 199.643 7.88832 213.736 10.7442C243.368 16.1642 271.24 34.0122 283.1 55.1442C289.512 66.8477 294.347 79.3482 297.48 92.3202C302.356 110.076 306.208 124.1 328.56 137.648C348.12 149.484 360.192 174.304 359.328 200.896H359.34Z" fill="black"/>
<path d="M161.64 287.716C162.36 287.717 163.064 287.504 163.664 287.104C164.263 286.704 164.73 286.136 165.006 285.471C165.282 284.805 165.354 284.073 165.214 283.367C165.074 282.66 164.727 282.011 164.218 281.502C163.708 280.993 163.059 280.646 162.353 280.506C161.647 280.365 160.914 280.438 160.249 280.714C159.584 280.99 159.015 281.457 158.616 282.056C158.216 282.655 158.003 283.36 158.004 284.08C158.004 284.557 158.098 285.03 158.281 285.471C158.463 285.913 158.731 286.313 159.069 286.651C159.406 286.989 159.807 287.256 160.248 287.439C160.69 287.622 161.162 287.716 161.64 287.716ZM124.324 195.84C123.509 195.84 122.713 195.591 122.043 195.127C121.373 194.662 120.861 194.004 120.576 193.24C120.291 192.477 120.245 191.644 120.446 190.854C120.647 190.064 121.084 189.354 121.7 188.82C132.988 179.016 149.876 181.496 155.3 186.112C156.108 186.802 156.61 187.784 156.694 188.843C156.778 189.902 156.437 190.952 155.748 191.76C155.058 192.568 154.076 193.07 153.017 193.154C151.957 193.238 150.908 192.897 150.1 192.208C146.373 190.432 142.222 189.739 138.12 190.208C134.018 190.676 130.13 192.289 126.9 194.86C126.184 195.481 125.272 195.829 124.324 195.84Z" fill="black"/>
<path d="M140.744 190.524H140.74C135.226 190.524 130.756 194.994 130.756 200.508V209.072C130.756 214.586 135.226 219.056 140.74 219.056H140.744C146.258 219.056 150.728 214.586 150.728 209.072V200.508C150.728 194.994 146.258 190.524 140.744 190.524Z" fill="black"/>
<path d="M280.832 210.6C280.667 209.552 280.092 208.612 279.233 207.988C278.375 207.364 277.304 207.107 276.256 207.272C275.208 207.438 274.269 208.013 273.644 208.871C273.02 209.729 272.763 210.8 272.928 211.848C273.211 213.611 273.345 215.395 273.328 217.18C273.328 221.926 272.393 226.626 270.577 231.01C268.761 235.395 266.099 239.379 262.743 242.735C259.387 246.091 255.403 248.753 251.018 250.569C246.634 252.385 241.934 253.32 237.188 253.32C232.442 253.32 227.743 252.385 223.358 250.569C218.973 248.753 214.989 246.091 211.633 242.735C208.277 239.379 205.615 235.395 203.799 231.01C201.983 226.626 201.048 221.926 201.048 217.18C201.015 212.356 201.958 207.575 203.82 203.125C205.683 198.675 208.425 194.647 211.884 191.284C212.631 190.541 213.054 189.534 213.062 188.481C213.071 187.427 212.663 186.413 211.929 185.659C211.194 184.904 210.191 184.47 209.138 184.45C208.085 184.43 207.067 184.826 206.304 185.552C198.757 192.882 194.118 202.696 193.244 213.18H174.692C173.663 201.867 168.311 191.386 159.751 183.918C151.19 176.45 140.08 172.57 128.732 173.086C117.383 173.601 106.671 178.472 98.8221 186.684C90.9736 194.897 86.5938 205.82 86.5938 217.18C86.5938 228.54 90.9736 239.463 98.8221 247.676C106.671 255.889 117.383 260.759 128.732 261.275C140.08 261.79 151.19 257.91 159.751 250.442C168.311 242.974 173.663 232.493 174.692 221.18H193.244C194.269 232.494 199.618 242.976 208.177 250.446C216.736 257.915 227.846 261.796 239.194 261.281C250.543 260.766 261.255 255.894 269.102 247.679C276.948 239.464 281.325 228.54 281.32 217.18C281.337 214.977 281.174 212.776 280.832 210.6ZM130.756 253.3C123.608 253.3 116.621 251.18 110.678 247.209C104.735 243.238 100.102 237.594 97.3671 230.99C94.6318 224.387 93.9161 217.12 95.3106 210.11C96.705 203.099 100.147 196.66 105.201 191.605C110.256 186.551 116.695 183.109 123.706 181.714C130.716 180.32 137.983 181.036 144.586 183.771C151.19 186.506 156.834 191.139 160.805 197.082C164.777 203.025 166.896 210.012 166.896 217.16C166.884 226.741 163.073 235.927 156.298 242.702C149.523 249.477 140.337 253.288 130.756 253.3Z" fill="black"/>
</svg>
