<svg width="229" height="229" viewBox="0 0 229 229" fill="none" xmlns="http://www.w3.org/2000/svg">
<path d="M46.3102 29.6173H21.7867C11.9636 29.6173 4 37.5809 4 47.404V207.213C4 217.036 11.9636 225 21.7867 225H122.726M121.77 29.6173H146.294C156.117 29.6173 164.08 37.5809 164.08 47.404V63.2609" stroke="black" stroke-width="6.67002" stroke-miterlimit="10" stroke-linecap="round" stroke-linejoin="round"/>
<path d="M19.5625 164.058V204.99C19.5625 207.444 21.5546 209.437 24.0092 209.437H95.7653M19.5625 148.495V49.6273C19.5625 47.1683 21.5546 45.1807 24.0092 45.1807H46.4605" stroke="black" stroke-width="6.67002" stroke-miterlimit="10" stroke-linecap="round" stroke-linejoin="round"/>
<path d="M91.8207 52.1175H112.942C117.856 52.1175 121.836 48.1377 121.836 43.2242V30.6801C121.836 25.7665 117.856 21.7867 112.942 21.7867H105.459C103.524 21.7867 101.879 20.4038 101.523 18.5051C99.9848 10.252 92.7411 4 84.039 4C75.3368 4 68.0932 10.252 66.5546 18.5051C66.1989 20.4038 64.5536 21.7867 62.6193 21.7867H55.1355C50.222 21.7867 46.2422 25.7665 46.2422 30.6801V43.2242C46.2422 48.1377 50.222 52.1175 55.1355 52.1175H76.2573M60.5236 38.7784H107.214" stroke="black" stroke-width="6.67002" stroke-miterlimit="10" stroke-linecap="round" stroke-linejoin="round"/>
<path d="M121.621 45.1807H144.072C146.526 45.1807 148.519 47.1683 148.519 49.6273V64.6304M37.3516 89.535L42.4337 94.6171L55.1383 81.912M119.464 80.4829H72.9561M115.16 96.0462H72.9561M37.3516 122.885L42.4337 127.967L55.1383 115.262M105.408 113.833H72.9561M108.396 129.396H72.9561M37.3516 156.235L42.4337 161.317L55.1383 148.612M103.705 147.183H72.9561M96.8437 162.746H72.9561M137.065 198.548C137.065 195.167 134.325 192.427 130.944 192.427C127.564 192.427 124.824 195.167 124.824 198.548M179.537 198.548C179.537 195.167 182.278 192.427 185.658 192.427C189.038 192.427 191.779 195.167 191.779 198.548M151.809 205.702C153.387 207.513 155.71 208.66 158.301 208.66C160.893 208.66 163.215 207.513 164.794 205.702" stroke="black" stroke-width="6.67002" stroke-miterlimit="10" stroke-linecap="round" stroke-linejoin="round"/>
<path d="M108.975 141.278C109.375 139.779 109.953 138.33 110.691 136.969C111.656 135.195 111.416 133.029 110.064 131.526C106.88 127.982 104.941 123.296 104.941 118.155C104.941 111.401 108.29 105.429 113.412 101.805C114.946 100.72 115.676 98.8166 115.316 96.9713C114.204 91.2484 115.591 85.0942 119.629 80.2829C123.746 75.3737 129.718 72.9414 135.659 73.1459C137.131 73.1949 138.532 72.5412 139.483 71.4251C149.559 59.5969 167.044 59.5969 177.12 71.4251C178.072 72.5412 179.472 73.1949 180.944 73.1459C186.885 72.9414 192.857 75.3737 196.974 80.2829C201.012 85.0942 202.399 91.2484 201.288 96.9713C200.927 98.8166 201.657 100.72 203.191 101.805C208.313 105.429 211.662 111.401 211.662 118.155C211.662 123.247 209.763 127.889 206.633 131.42C206.508 131.562 206.388 131.709 206.281 131.864" stroke="black" stroke-width="6.67002" stroke-miterlimit="10" stroke-linecap="round" stroke-linejoin="round"/>
<path d="M174.973 89.6538C168.096 94.6932 162.54 101.123 158.298 108.94C154.056 101.123 148.5 94.6932 141.623 89.6538M181.643 106.881C171.618 112.354 163.834 120.194 158.298 130.4C152.762 120.194 144.978 112.354 134.953 106.881M158.3 83.1021V137.449M161.755 140.042C167.869 130.015 177.002 123.113 187.203 123.113C205.621 123.113 220.553 145.613 220.553 168.367C220.553 171.062 220.344 173.636 219.944 176.087" stroke="black" stroke-width="6.67002" stroke-miterlimit="10" stroke-linecap="round" stroke-linejoin="round"/>
<path d="M174.199 158.567C177.574 155.334 182.159 153.346 187.201 153.346C197.589 153.346 206.011 161.768 206.011 172.156C206.011 173.503 205.868 174.819 205.597 176.087M144.842 176.087H220.551C223.006 176.087 224.998 178.079 224.998 180.533V193.873C224.998 211.064 211.062 225 193.871 225H122.724C105.534 225 91.5977 211.064 91.5977 193.873V180.533C91.5977 178.079 93.5898 176.087 96.0443 176.087H129.279" stroke="black" stroke-width="6.67002" stroke-miterlimit="10" stroke-linecap="round" stroke-linejoin="round"/>
<path d="M175.731 176.086C175.967 174.335 176.087 172.547 176.087 170.728C176.087 148.624 158.171 130.708 136.067 130.708C113.963 130.708 96.0469 148.624 96.0469 170.728C96.0469 172.547 96.1669 174.335 96.4026 176.086" stroke="black" stroke-width="6.67002" stroke-miterlimit="10" stroke-linecap="round" stroke-linejoin="round"/>
<path d="M162.209 176.087C162.567 174.323 162.747 172.528 162.747 170.728C162.747 155.992 150.803 144.048 136.067 144.048C121.331 144.048 109.387 155.992 109.387 170.728C109.387 172.565 109.573 174.357 109.925 176.087M135.844 158.713V157.386M145.945 163.275L146.961 162.422M126.189 163.275L125.172 162.422" stroke="black" stroke-width="6.67002" stroke-miterlimit="10" stroke-linecap="round" stroke-linejoin="round"/>
</svg>
