<svg width="282" height="283" viewBox="0 0 282 283" fill="none" xmlns="http://www.w3.org/2000/svg">
<path d="M18.4737 282.679C8.0604 280.215 1.17225 272.752 0.265135 261.97L0.28726 83.704C1.069 78.7628 8.18577 78.3203 8.54714 83.6597V261.417C8.96013 266.004 11.0694 270.127 15.0813 272.546C15.6713 272.907 18.9752 274.397 19.2997 274.397H115.077C108.388 266.336 106.08 255.716 100.91 246.881L28.7322 246.741C22.7143 245.922 17.3675 239.196 17.3675 233.267V23.7682C15.8335 24.5278 13.7981 25.5235 12.596 26.7256C5.05881 34.2553 10.0885 53.6365 8.50289 63.7549C7.80228 68.2093 1.04687 68.0028 0.28726 63.2092C1.04687 45.0817 -5.49466 19.4834 18.8056 14.9995L53.8069 14.9405C53.0251 7.80159 57.4279 1.31169 64.6185 0.0800781L141.17 0.168577C148.146 1.65831 152.328 7.90484 151.517 14.9405C162.741 15.7665 175.529 13.8269 186.57 14.9405C195.08 15.8033 205.073 25.258 205.073 33.9825V70.1416L210.479 64.7874C210.892 56.7045 208.311 44.0787 219.676 43.0757C225.199 42.589 235.723 42.589 241.247 43.0757C253.261 44.1303 249.655 56.8963 250.621 65.1709C260.805 76.5282 277.834 86.7793 281.005 102.687C282.325 154.99 282.34 207.787 281.005 260.075C279.036 271.174 268.151 281.336 256.963 282.679H233.776C230.738 280.968 230.531 275.363 234.189 274.544C239.905 273.268 249.219 275.075 255.525 274.338C263.836 273.371 273.527 264.558 273.527 255.9V158.463H187.964V166.192C206.548 166.812 222.891 181.842 225.03 200.345L254.92 200.537C259.286 201.54 257.841 208.701 253.932 208.701H224.949L224.396 217.536H255.031C257.649 217.536 259.323 224.587 254.36 225.7L222.758 225.84L221.077 234.646H255.031C257.649 234.646 259.323 241.696 254.36 242.81L217.824 242.994C213.96 253.496 210.391 264.706 203.414 273.571C206.969 275.68 214.86 273.017 217.758 275.23C220.428 277.258 219.366 281.204 216.659 282.679H203.96C201.74 282.369 197.234 279.935 195.39 279.972C193.841 280.002 189.461 282.479 187.396 282.679H18.4737ZM65.2379 8.42846C63.822 8.74558 62.5166 10.0583 62.1995 11.4669C61.6537 13.9006 61.8012 22.9349 62.052 25.73C62.2585 28.0604 62.8411 29.5354 65.2306 30.2803L139.097 30.413C140.926 30.3761 142.704 29.0708 143.109 27.2492C143.589 25.0957 143.559 14.2767 143.198 11.9463C142.925 10.1984 141.76 8.92257 140.078 8.44321H65.2379V8.42846ZM53.7995 23.2151H25.6421V233.267C25.6421 234.425 28.0021 238.51 29.2337 238.51H98.5135C97.0901 232.861 95.2316 227.286 94.2581 221.511C93.705 218.237 92.4439 211.046 93.3142 208.163C94.1844 205.279 98.6093 204.955 100.431 207.056C101.611 208.413 101.53 214.35 101.906 216.622C104.118 230.199 108.794 244.469 114.605 256.918C118.581 265.436 122.482 273.327 133.028 274.374C149.747 272.899 170.146 276.447 186.422 274.242C195.486 273.017 199.24 265.938 202.772 258.57C211.585 240.207 224.632 204.062 210.568 186.348C199.697 172.653 179.836 169.99 166.709 182.21C164.172 184.578 162.601 188.855 158.965 188.863C151.06 188.87 138.146 181.989 131.929 177.21C130.277 175.942 130.085 174.334 127.578 174.489C121.346 174.88 111.176 181.443 107.356 186.348C105.217 189.091 102.297 198.162 97.422 194.04C93.2183 190.485 99.2731 183.885 101.264 180.536H81.1161C80.9096 180.536 79.2576 178.656 79.0511 178.184C77.8933 175.529 79.2207 173.22 81.9347 172.512C89.5308 170.543 102.961 173.7 110.903 172.225C113.44 171.753 119.016 167.446 122.253 166.996C115.749 156.472 110.874 144.532 110.653 131.951L82.3477 131.825C78.3431 130.881 77.3549 126.419 80.8506 123.964L113.676 123.669C120.631 117.879 127.371 119.915 134.702 123.646L163.811 123.794C166.274 125.018 167.483 128.027 165.566 130.284C165.308 130.586 162.985 131.958 162.823 131.958H147.092C158.538 142.659 164.165 157.763 164.209 173.361C168.922 170.329 173.959 167.475 179.659 166.738V23.2151H151.502C152.291 31.6299 147.733 38.0534 139.105 38.695C115.1 40.4871 88.8376 37.3454 64.6037 38.6213C57.0887 37.2643 52.8629 30.6638 53.7921 23.2077L53.7995 23.2151ZM187.949 23.7682V87.2513C189.815 85.1273 195.021 81.4325 196.26 79.2791C196.688 78.5342 196.931 77.9589 196.813 77.074C195.685 63.7402 198.229 48.2086 196.718 35.1477C196.128 30.059 192.691 25.6341 187.941 23.7682H187.949ZM242.044 62.4127V52.1984L241.218 51.3725H219.69L218.864 52.1984V61.5867L219.69 62.4127H242.051H242.044ZM272.959 104.922C272.185 101.278 270.82 97.672 268.527 94.7221L244.794 70.9823C236.335 71.1077 226.298 69.8392 217.994 70.6652C217.212 70.7389 216.423 70.6062 215.789 71.2183C206.703 82.2585 191.732 90.5405 187.941 104.922H272.952H272.959ZM273.512 113.204H187.949V150.189H273.512V113.204ZM155.927 179.445C157.136 159.901 150.388 141.435 132.556 131.877C118.263 124.207 117.135 129.561 120.638 143.249C125.115 160.764 137.387 176.443 155.927 179.452V179.445Z" fill="black"/>
<path d="M162.288 74.5452C167.9 75.1943 167.73 82.2734 162.288 82.8489H82.7715C77.8381 82.3767 77.0711 76.2785 81.7979 74.678L162.288 74.5452Z" fill="black"/>
<path d="M162.288 74.5452C167.9 75.1943 167.73 82.2734 162.288 82.8489H82.7715C77.8381 82.3767 77.0711 76.2785 81.7979 74.678L162.288 74.5452Z" stroke="black"/>
<path d="M47.0332 63.6526C49.902 63.1658 58.7966 63.1658 61.6729 63.6526C66.695 64.4934 69.3646 69.6555 69.7998 74.2942C70.3677 80.3416 70.4045 89.2284 64.4824 92.6946C61.8274 94.2507 50.2119 94.3538 46.9375 93.845C42.8814 93.2106 39.3271 88.7413 38.8994 84.7737C38.5823 81.8234 38.5526 73.9992 39.1426 71.219C39.8948 67.6718 43.4565 64.2649 47.0332 63.6526ZM48.5527 71.802C48.309 72.1709 47.1738 73.004 47.1738 73.1809V84.2209C47.1738 84.3168 48.4564 85.5993 48.5527 85.5999H60.1465C62.3291 82.4728 62.3144 74.8775 60.1465 71.802H48.5527Z" fill="black"/>
<path d="M47.0332 63.6526C49.902 63.1658 58.7966 63.1658 61.6729 63.6526C66.695 64.4934 69.3646 69.6555 69.7998 74.2942C70.3677 80.3416 70.4045 89.2284 64.4824 92.6946C61.8274 94.2507 50.2119 94.3538 46.9375 93.845C42.8814 93.2106 39.3271 88.7413 38.8994 84.7737C38.5823 81.8234 38.5526 73.9992 39.1426 71.219C39.8948 67.6718 43.4565 64.2649 47.0332 63.6526ZM48.5527 71.802C48.309 72.1709 47.1738 73.004 47.1738 73.1809V84.2209C47.1738 84.3168 48.4564 85.5993 48.5527 85.5999H60.1465C62.3291 82.4728 62.3144 74.8775 60.1465 71.802H48.5527Z" stroke="black"/>
<path d="M47.0352 161.362C49.8674 160.89 58.2966 160.89 61.1211 161.362C70.3321 162.904 70.5313 173.973 69.7422 181.311C68.5622 192.248 58.8862 193.045 49.7266 192.079C37.9491 190.833 38.0372 181.157 38.8779 171.422C39.2615 166.96 42.3374 162.151 47.0352 161.362ZM60.1475 169.512H48.5537C48.4545 169.515 47.1748 170.796 47.1748 170.891V181.932C47.1755 184.431 56.0033 184.1 57.9502 183.871C60.0002 183.635 61.1574 182.941 61.4893 180.788C61.7842 178.922 61.9837 170.065 60.1475 169.505V169.512Z" fill="black"/>
<path d="M47.0352 161.362C49.8674 160.89 58.2966 160.89 61.1211 161.362C70.3321 162.904 70.5313 173.973 69.7422 181.311C68.5622 192.248 58.8862 193.045 49.7266 192.079C37.9491 190.833 38.0372 181.157 38.8779 171.422C39.2615 166.96 42.3374 162.151 47.0352 161.362ZM60.1475 169.512H48.5537C48.4545 169.515 47.1748 170.796 47.1748 170.891V181.932C47.1755 184.431 56.0033 184.1 57.9502 183.871C60.0002 183.635 61.1574 182.941 61.4893 180.788C61.7842 178.922 61.9837 170.065 60.1475 169.505V169.512Z" stroke="black"/>
<path d="M48.707 112.251C58.3017 111.049 68.4861 111.396 69.7324 122.93C70.5953 130.873 70.1678 141.884 60.1455 143.012C57.3948 143.322 50.7575 143.329 48.0508 142.96C43.2498 142.304 39.4291 138.108 38.8906 133.351C38.5514 130.335 38.5812 122.79 39.2744 119.928C40.3733 115.356 44.2523 112.812 48.7139 112.251H48.707ZM59.0244 120.393C57.2102 120.054 47.7187 119.958 47.1729 121.757V133.351C47.176 133.45 48.454 134.728 48.5518 134.73H59.5918C62.1951 134.73 61.8192 125.43 61.5537 123.387C61.362 121.92 60.5583 120.681 59.0244 120.393Z" fill="black"/>
<path d="M48.707 112.251C58.3017 111.049 68.4861 111.396 69.7324 122.93C70.5953 130.873 70.1678 141.884 60.1455 143.012C57.3948 143.322 50.7575 143.329 48.0508 142.96C43.2498 142.304 39.4291 138.108 38.8906 133.351C38.5514 130.335 38.5812 122.79 39.2744 119.928C40.3733 115.356 44.2523 112.812 48.7139 112.251H48.707ZM59.0244 120.393C57.2102 120.054 47.7187 119.958 47.1729 121.757V133.351C47.176 133.45 48.454 134.728 48.5518 134.73H59.5918C62.1951 134.73 61.8192 125.43 61.5537 123.387C61.362 121.92 60.5583 120.681 59.0244 120.393Z" stroke="black"/>
</svg>
