<svg width="227" height="205" viewBox="0 0 227 205" fill="none" xmlns="http://www.w3.org/2000/svg">
<mask id="path-1-inside-1_1330_37" fill="white">
<path d="M24.3177 1.15104C21.3464 2.74754 21.1247 3.81187 21.2578 14.5439C21.3908 25.2316 21.5682 25.8968 24.4951 27.2716L26.0473 28.0255V31.2185V34.4115L23.9629 34.722C18.9073 35.4315 14.1622 38.9793 11.9448 43.7245L10.7474 46.2523L10.6144 96.8082L10.5257 147.408L8.53008 149.315C5.91359 151.843 2.76493 156.943 1.30147 160.979C0.237132 163.95 0.148438 164.793 0.148438 171.09C0.148438 177.52 0.237132 178.185 1.39016 181.201C3.16405 185.946 5.42577 189.538 8.70747 192.997C13.497 198.009 18.8187 201.113 26.0029 203.153L29.3733 204.129L98.7768 204.262C141.395 204.35 169.245 204.217 170.93 203.951C174.433 203.419 176.34 202.488 179.045 200.049C181.928 197.477 183.525 194.195 183.879 190.026L184.145 186.745L197.228 189.095C204.412 190.425 210.887 191.49 211.552 191.49C212.217 191.49 213.592 191.091 214.568 190.558C216.785 189.45 217.849 187.232 218.293 182.975C218.958 176.678 217.583 174.815 211.242 173.307C209.024 172.775 206.896 172.243 206.541 172.11C206.186 171.977 209.556 171.179 214.08 170.336C223.171 168.651 224.856 168.03 226.142 166.034C226.852 164.881 226.985 164.127 226.763 161.112C226.63 159.16 226.32 156.854 226.054 156.012C225.388 153.972 222.905 151.754 220.954 151.444C220.067 151.311 215.987 151.843 211.109 152.73C206.585 153.573 202.727 154.238 202.594 154.238C202.461 154.238 203.924 153.174 205.876 151.843C210.709 148.606 211.508 147.675 211.774 144.925C211.951 143.018 211.774 142.264 210.488 139.736C208.492 135.834 206.674 134.016 204.323 133.616C202.55 133.306 202.461 133.217 202.727 132.02C202.86 131.31 203.17 128.029 203.436 124.747C204.013 118.006 203.658 115.789 201.84 114.37L200.731 113.483L201.53 110.911C202.594 107.363 202.55 100.4 201.485 96.7195C200.155 92.2404 198.603 91.2648 191.241 90.2004L187.693 89.6683L187.471 87.9387C187.117 85.4109 185.165 81.464 183.303 79.424C179.755 75.4771 175.32 73.5258 169.954 73.5258H166.761L166.983 70.4215C167.249 66.3416 165.697 59.3791 164.145 57.8269C162.681 56.3634 158.69 55.2991 153.768 55.033C148.934 54.7669 145.208 55.4765 140.774 57.4721L137.936 58.7582L136.738 56.0087C134.476 50.82 130.175 45.7644 127.558 45.2323C124.188 44.5227 123.877 44.7444 114.653 53.9243C106.405 62.0842 105.828 62.5721 105.074 61.8625C103.389 60.3104 99.2203 58.8025 95.983 58.5808C91.903 58.2704 88.7544 59.113 85.1622 61.5077L82.5457 63.2816L80.5501 62.6164C79.1753 62.1286 77.4458 61.9512 74.5189 62.0842L70.4389 62.2616L70.3059 54.013C70.1728 46.341 70.0841 45.6757 69.0641 43.5914C66.8024 38.9793 62.0573 35.4315 57.2234 34.6776L55.3165 34.4115V31.1298C55.3165 28.0699 55.3608 27.8481 56.5139 27.316C57.1791 27.0055 58.1991 26.0742 58.7312 25.2316C59.7069 23.7682 59.7512 23.4134 59.7512 14.1448C59.7512 -0.40112 60.8156 0.352784 40.3714 0.352784C27.1116 0.352784 25.6925 0.441479 24.3177 1.15104ZM52.6556 14.1004V20.7525H40.4601H28.2646V14.1004V7.44835H40.4601H52.6556V14.1004ZM48.2209 31.1742V34.5002H40.6819H33.1428V31.1742V27.8481H40.6819H48.2209V31.1742ZM58.4208 42.5714C62.2347 44.5671 63.7425 47.8488 63.7425 54.2791V57.1173H59.7956C56.026 57.1173 55.76 57.1617 54.9174 58.2704C53.853 59.6008 53.7643 60.5764 54.4739 62.1729C55.1391 63.6364 56.9573 64.2129 60.6825 64.2129C63.6094 64.2129 63.7425 64.2573 63.7425 65.2772C63.7425 65.8538 63.1216 67.0955 62.3677 68.0268C59.7069 71.3528 58.1991 75.8763 58.4651 79.6901C58.5982 81.2423 58.3764 81.6414 56.7799 83.1936C53.0548 86.83 50.9704 92.3291 51.5026 97.1186C51.68 98.5377 51.6357 99.6908 51.4139 99.6908C51.2365 99.6908 50.2165 100.4 49.2409 101.243L47.4227 102.795H32.522H17.6213V83.504V64.2129H28.2203C34.4289 64.2129 39.3071 64.0355 40.1054 63.7694C42.4114 62.9268 43.121 60.266 41.5245 58.2704L40.6375 57.1173H29.0629H17.5326L17.71 52.2835C17.843 47.7157 17.9317 47.3166 19.1734 45.4984C19.9717 44.3897 21.3464 43.1923 22.4995 42.5714C24.4064 41.5958 24.7612 41.5958 40.4601 41.5958C56.1591 41.5958 56.5139 41.5958 58.4208 42.5714ZM129.199 56.9843C129.82 58.0043 130.707 59.9556 131.195 61.3303L132.082 63.8138L130.796 65.4546C130.13 66.3416 129.243 67.5833 128.889 68.1598C128.223 69.1798 127.913 69.2685 124.365 69.2685C120.995 69.3129 120.418 69.4459 119.531 70.2885C118.29 71.5302 118.245 74.0137 119.398 75.2997C120.019 76.0093 120.729 76.1867 122.813 76.1867C125.252 76.1867 125.385 76.231 125.385 77.2954C125.385 78.2267 125.03 78.5814 123.523 79.2467L121.616 80.0449L120.418 78.3154C118.911 76.2754 115.584 73.7919 113.367 73.0824C111.948 72.5946 111.593 72.1954 111.017 70.4659L110.351 68.4259L118.201 60.5321L126.05 52.6383L127.07 53.88C127.647 54.5452 128.578 55.9643 129.199 56.9843ZM156.783 62.5277L159 63.0155L159.533 65.8538C160.508 70.9537 159.4 76.1867 156.65 79.5127C155.807 80.5771 154.876 81.9075 154.61 82.5284C154.211 83.4153 153.59 83.7701 151.816 84.1692C150.574 84.4353 148.623 85.1448 147.47 85.7214C146.317 86.3422 145.297 86.83 145.208 86.83C145.12 86.83 144.588 86.2092 144.055 85.4553L143.035 84.0805L147.027 80.0449C149.2 77.7832 151.151 75.5215 151.328 74.945C152.038 72.5502 149.421 69.9337 147.027 70.6433C146.45 70.8207 144.011 72.905 141.572 75.2997L137.137 79.6901L134.831 78.9362C132.17 78.138 132.126 77.9162 134.122 73.6589C137.936 65.4546 148.047 60.4877 156.783 62.5277ZM99.8855 67.0955C102.236 68.4259 103.921 71.0867 104.542 74.3684C105.163 77.6501 105.651 78.3154 107.779 78.8475C110.928 79.6458 112.968 80.7101 114.298 82.2623C115.895 84.0805 115.939 84.5683 114.564 86.7857C113.944 87.717 113.19 89.4465 112.835 90.6439L112.214 92.8169L102.192 92.95L92.1691 93.0387L93.1447 91.93C93.6769 91.3535 94.4752 90.4222 94.9186 89.9344C96.1604 88.5152 97.6238 88.8257 99.2203 90.8213C100.418 92.3291 100.861 92.5952 102.325 92.5952C105.872 92.5952 106.892 88.9144 104.187 85.544C100.196 80.4884 91.9917 80.8432 88.577 86.2535C87.8231 87.4066 87.2465 88.6926 87.2465 89.0918C87.2465 90.6439 88.3109 92.1517 89.6856 92.6395L91.1048 93.1717L89.5083 94.5908L87.9561 96.0543L85.4727 94.8126C80.151 92.1074 72.9667 91.3978 67.1572 92.9943C63.3877 94.0143 62.5894 94.7682 61.6138 98.0056C61.1703 99.469 60.5938 100.622 60.3721 100.666C60.1503 100.666 59.5738 99.5577 59.086 98.1829C58.3321 96.0099 58.2878 95.4778 58.7756 93.6152C59.5295 90.7326 61.126 88.6039 63.5651 87.0518C66.1372 85.4109 66.5807 84.3466 65.8711 81.0649C64.1859 72.8163 72.6119 66.3859 80.151 70.1998C83.2553 71.752 85.0735 71.6633 86.67 69.845C87.3796 69.0911 88.3996 68.0711 88.8874 67.6277C91.5482 65.2772 96.4264 65.0555 99.8855 67.0955ZM173.325 81.0649C176.651 81.9962 179.666 85.5883 180.553 89.757C180.864 91.1317 180.775 91.1761 178.07 92.4621C176.518 93.2161 174.345 94.5021 173.236 95.3447C172.083 96.2317 170.974 96.8082 170.753 96.6308C170.486 96.4978 170.043 95.5665 169.777 94.5908C168.934 91.8856 166.406 88.4709 164.056 86.83C162.903 86.0318 161.883 85.2779 161.794 85.2335C161.262 84.7901 163.347 82.7944 165.342 81.7744C167.87 80.5327 170.531 80.311 173.325 81.0649ZM134.831 86.7413C136.96 87.8944 138.778 89.89 139.576 91.8856L140.02 93.0387H129.82C124.188 93.0387 119.62 92.8613 119.62 92.6839C119.62 92.5065 120.197 91.3978 120.906 90.2448C123.966 85.4553 129.687 83.9918 134.831 86.7413ZM159.355 92.3735C160.907 93.2604 161.661 94.103 162.46 95.8325C163.036 97.1186 163.524 98.6708 163.524 99.3803C163.524 101.42 164.455 102.307 167.515 103.239C171.773 104.525 174.611 107.895 174.611 111.665C174.611 112.995 174.611 112.995 172.172 112.995C170.132 112.995 169.511 113.172 168.624 114.104C166.85 115.833 167.205 118.361 169.333 119.425C170.353 119.957 173.059 120.091 183.702 120.091H196.829L196.563 123.505C196.252 127.097 195.188 134.149 194.656 136.233C194.39 137.253 192.793 138.362 185.742 142.53C181.041 145.324 177.05 147.586 176.872 147.586C176.695 147.586 176.207 146.743 175.764 145.723C173.192 139.958 166.096 136.233 159.666 137.386C157.271 137.785 126.095 149.227 119.753 152.021C116.915 153.262 116.072 155.79 117.846 157.697C119.221 159.16 120.507 159.249 123.345 158.229C124.764 157.697 126.05 157.431 126.272 157.608C126.45 157.83 126.937 159.781 127.337 161.999C128.135 166.3 128.756 167.365 130.929 167.808C131.904 167.986 132.614 167.808 133.501 167.099C134.964 165.946 135.053 164.349 133.944 158.628C133.545 156.455 133.279 154.637 133.412 154.504C133.767 154.149 159.311 144.57 160.73 144.304C163.967 143.595 168.092 145.989 169.466 149.315C170.309 151.444 176.828 186.478 176.828 188.918C176.828 193.707 172.748 197.255 167.205 197.255C166.14 197.255 165.298 197.166 165.298 197.122C165.298 195.614 162.947 184.882 162.415 184.128C160.996 181.955 157.759 182.398 156.561 184.882C156.118 185.813 156.207 187.011 157.049 191.534L158.025 197.033L152.748 197.166C149.821 197.21 147.381 197.21 147.248 197.122C147.16 197.033 146.716 194.993 146.273 192.554C145.608 189.184 145.208 188.031 144.41 187.41C142.947 186.168 140.552 186.523 139.399 188.075C138.512 189.272 138.512 189.405 139.177 193.264L139.842 197.255L126.76 197.166L113.678 197.033L112.702 191.667C112.17 188.696 111.505 185.858 111.194 185.325C110.573 184.128 108.755 183.374 107.469 183.773C104.808 184.571 104.453 186.39 105.651 192.687C106.005 194.594 106.316 196.412 106.316 196.723C106.316 197.166 102.28 197.255 86.0492 197.166C67.0242 197.033 65.6494 196.989 64.0086 196.19C62.0129 195.171 59.973 192.244 59.5295 189.716C58.953 186.39 60.8599 182.576 63.8312 181.024C66.359 179.693 76.7806 175.924 77.3127 176.146C77.5788 176.234 77.978 177.299 78.1553 178.452C78.5545 181.245 79.1753 182.443 80.4614 183.019C82.1023 183.773 83.2109 183.596 84.4527 182.354C85.65 181.157 85.6944 180.713 84.7631 174.815L84.497 172.997L94.1647 169.36C104.365 165.502 105.872 164.571 105.872 162.309C105.828 160.801 105.03 159.737 103.522 159.16C102.236 158.673 101.659 158.806 96.2047 160.846C94.1647 161.6 92.4352 162.22 92.3908 162.22C92.3021 162.22 91.8143 161.023 91.2821 159.56C89.1091 153.661 83.1222 146.699 77.1797 143.195C75.4945 142.22 74.3858 141.289 74.3858 140.845C74.3858 139.736 71.8137 137.342 69.3746 136.144C66.2259 134.592 60.7269 133.705 55.9817 134.016C53.8087 134.193 51.547 134.415 51.0148 134.548C50.0835 134.814 49.9948 134.681 49.9948 133.04C49.9948 130.734 48.3096 129.182 46.1366 129.536L44.7175 129.803L44.4957 127.497C44.3627 126.21 44.141 124.037 44.0079 122.618L43.7418 120.091H98.1116C155.985 120.091 154.477 120.135 155.275 118.095C156.162 115.789 154.477 112.995 152.171 112.995C151.24 112.995 151.062 112.862 151.328 112.197C153.28 107.363 154.566 100.622 154.034 97.7838C153.679 95.8769 152.26 94.0143 150.752 93.4378C149.421 92.9056 149.776 92.4178 152.215 91.4865C154.566 90.6439 156.872 90.91 159.355 92.3735ZM191.684 97.5177L194.478 98.0056L195.055 100.711C195.72 103.859 195.232 107.585 193.769 110.911L192.837 112.995H188.758H184.633L186.23 111.31C188.358 109.137 188.624 107.052 187.028 105.456C185.875 104.303 183.48 104.303 182.061 105.456L180.952 106.299L179.356 103.682C177.937 101.287 177.892 101.021 178.558 100.445C179.844 99.2916 182.194 98.316 184.988 97.6951C188.447 96.9412 188.447 96.9412 191.684 97.5177ZM81.4814 100.888C86.1379 103.061 88.0004 105.057 89.4639 109.358L90.6613 112.995H88.6213C86.67 112.995 86.4039 112.818 83.9205 110.29C79.8849 106.21 78.1553 105.545 75.9823 107.274C74.6076 108.338 74.3858 110.911 75.5832 112.197C76.2928 112.995 76.2041 113.039 72.6119 112.906L68.9311 112.773L68.3102 110.999C67.6007 109.048 67.4676 103.372 68.0885 101.243C68.5763 99.6021 69.7294 99.2473 74.8293 99.4247C77.978 99.5134 79.0866 99.7351 81.4814 100.888ZM146.849 101.553C146.273 105.057 145.652 107.185 144.366 109.979L142.991 112.995H139.665H136.383L134.565 110.955C132.303 108.383 130.441 107.496 128.578 108.161C127.115 108.649 126.006 110.645 126.405 112.108C126.76 113.438 124.809 113.261 123.434 111.886C122.724 111.177 121.837 110.778 120.95 110.778C120.064 110.778 119.177 111.177 118.467 111.886C117.802 112.551 116.871 112.995 116.117 112.995C115.008 112.995 114.875 112.862 115.097 111.842C115.363 110.29 114.431 108.693 112.879 108.161C111.15 107.54 110.041 108.072 107.425 110.733L105.252 112.995H102.059H98.9099L97.5351 110.201C96.249 107.585 94.7856 102.706 94.7856 100.888C94.7856 100.179 96.3377 100.134 120.95 100.134H147.115L146.849 101.553ZM56.2478 107.496C56.8243 108.117 58.1547 109.137 59.1304 109.713C60.3277 110.423 61.0816 111.221 61.2147 111.886L61.3921 112.995H55.7156H49.9948L50.4383 111.842C51.5026 109.137 53.6313 106.343 54.6513 106.343C54.9174 106.343 55.6269 106.875 56.2478 107.496ZM43.3427 110.733C43.3427 112.197 42.8549 112.995 41.9236 112.995C40.4158 112.995 38.1541 114.68 37.3558 116.365C36.6906 117.829 36.6463 118.583 37.0897 124.037C37.3558 127.363 37.7106 130.867 37.8436 131.887L38.1097 133.705L33.675 133.971C28.8411 134.326 24.3621 135.479 22.0117 137.076C20.6812 137.962 20.1047 138.628 18.1978 141.643C17.7987 142.309 17.6656 138.982 17.6656 126.166L17.6213 109.891H30.482C42.8549 109.891 43.3427 109.935 43.3427 110.733ZM40.4601 141.555C41.9236 141.909 43.9636 142.442 44.9836 142.752C46.6688 143.284 47.1566 143.24 49.64 142.353C53.3652 141.067 57.4895 140.712 61.4808 141.333C67.3346 142.264 67.645 143.107 62.5451 144.038C60.4608 144.437 59.5295 144.881 58.8643 145.723C57.5782 147.364 57.7112 149.182 59.3077 150.779C60.0616 151.533 60.5495 152.242 60.4164 152.375C59.8843 152.952 53.7643 150.513 50.9704 148.606C47.2896 146.078 45.9149 145.989 43.1653 147.941C40.5932 149.803 36.0698 151.888 33.808 152.287L32.0341 152.553L33.542 150.956C34.7837 149.715 35.0941 149.005 35.0498 147.763C35.0054 145.59 34.2959 145.014 30.5263 144.038C25.7812 142.841 25.7368 142.575 30.0829 141.599C33.7637 140.801 37.1784 140.801 40.4601 141.555ZM203.747 142.486C204.146 143.329 204.412 144.127 204.279 144.215C204.19 144.304 199.445 147.497 193.769 151.355C188.092 155.169 183.125 158.761 182.771 159.338C181.396 161.467 183.081 164.438 185.698 164.438C186.274 164.438 194.035 163.107 202.904 161.511C211.729 159.87 219.047 158.628 219.135 158.717C219.224 158.806 219.446 159.604 219.623 160.447L219.889 161.999L203.348 165.014C191.862 167.099 186.451 168.252 185.698 168.828C184.899 169.405 184.545 170.114 184.456 171.4C184.234 174.283 184.944 174.593 199.002 177.786L211.508 180.625L211.197 182.398C211.064 183.33 210.887 184.172 210.842 184.217C210.665 184.394 183.081 179.294 182.815 178.984C182.327 178.54 178.114 155.347 178.513 155.214C178.691 155.125 184.101 151.888 190.576 148.029C197.05 144.171 202.461 140.978 202.683 140.978C202.86 140.934 203.348 141.643 203.747 142.486ZM23.1647 149.227C24.6281 149.936 24.7168 150.069 24.4064 151.355C23.5638 154.726 24.4064 157.076 27.0673 158.673C28.1316 159.338 29.2846 159.56 31.635 159.56C35.4045 159.56 38.3758 158.717 43.121 156.367L46.6688 154.593L49.5513 156.145C57.0904 160.18 64.9842 160.713 67.9555 157.342C68.6207 156.588 68.8424 155.746 68.8424 153.839C68.8424 152.464 68.7094 151.045 68.532 150.69C68.2659 150.202 68.665 149.803 69.9954 149.227L71.7693 148.384L74.2084 149.892C77.5345 151.843 81.8805 156.633 83.6101 160.136C86.0935 165.103 86.8918 164.349 73.4989 169.493C60.8156 174.327 58.4208 175.525 56.2478 177.964C52.1235 182.709 51.1922 189.982 54.0304 195.57L54.9174 197.344L42.5888 197.122C28.8855 196.944 27.5994 196.723 21.6125 193.796C17.6213 191.844 12.7874 187.41 10.5257 183.685C8.04226 179.56 7.02227 175.924 6.97792 171.267C6.97792 164.66 9.06225 159.427 13.63 154.504C16.0248 151.976 20.3708 148.561 21.2578 148.473C21.4351 148.473 22.2777 148.828 23.1647 149.227Z"/>
</mask>
<path d="M24.3177 1.15104C21.3464 2.74754 21.1247 3.81187 21.2578 14.5439C21.3908 25.2316 21.5682 25.8968 24.4951 27.2716L26.0473 28.0255V31.2185V34.4115L23.9629 34.722C18.9073 35.4315 14.1622 38.9793 11.9448 43.7245L10.7474 46.2523L10.6144 96.8082L10.5257 147.408L8.53008 149.315C5.91359 151.843 2.76493 156.943 1.30147 160.979C0.237132 163.95 0.148438 164.793 0.148438 171.09C0.148438 177.52 0.237132 178.185 1.39016 181.201C3.16405 185.946 5.42577 189.538 8.70747 192.997C13.497 198.009 18.8187 201.113 26.0029 203.153L29.3733 204.129L98.7768 204.262C141.395 204.35 169.245 204.217 170.93 203.951C174.433 203.419 176.34 202.488 179.045 200.049C181.928 197.477 183.525 194.195 183.879 190.026L184.145 186.745L197.228 189.095C204.412 190.425 210.887 191.49 211.552 191.49C212.217 191.49 213.592 191.091 214.568 190.558C216.785 189.45 217.849 187.232 218.293 182.975C218.958 176.678 217.583 174.815 211.242 173.307C209.024 172.775 206.896 172.243 206.541 172.11C206.186 171.977 209.556 171.179 214.08 170.336C223.171 168.651 224.856 168.03 226.142 166.034C226.852 164.881 226.985 164.127 226.763 161.112C226.63 159.16 226.32 156.854 226.054 156.012C225.388 153.972 222.905 151.754 220.954 151.444C220.067 151.311 215.987 151.843 211.109 152.73C206.585 153.573 202.727 154.238 202.594 154.238C202.461 154.238 203.924 153.174 205.876 151.843C210.709 148.606 211.508 147.675 211.774 144.925C211.951 143.018 211.774 142.264 210.488 139.736C208.492 135.834 206.674 134.016 204.323 133.616C202.55 133.306 202.461 133.217 202.727 132.02C202.86 131.31 203.17 128.029 203.436 124.747C204.013 118.006 203.658 115.789 201.84 114.37L200.731 113.483L201.53 110.911C202.594 107.363 202.55 100.4 201.485 96.7195C200.155 92.2404 198.603 91.2648 191.241 90.2004L187.693 89.6683L187.471 87.9387C187.117 85.4109 185.165 81.464 183.303 79.424C179.755 75.4771 175.32 73.5258 169.954 73.5258H166.761L166.983 70.4215C167.249 66.3416 165.697 59.3791 164.145 57.8269C162.681 56.3634 158.69 55.2991 153.768 55.033C148.934 54.7669 145.208 55.4765 140.774 57.4721L137.936 58.7582L136.738 56.0087C134.476 50.82 130.175 45.7644 127.558 45.2323C124.188 44.5227 123.877 44.7444 114.653 53.9243C106.405 62.0842 105.828 62.5721 105.074 61.8625C103.389 60.3104 99.2203 58.8025 95.983 58.5808C91.903 58.2704 88.7544 59.113 85.1622 61.5077L82.5457 63.2816L80.5501 62.6164C79.1753 62.1286 77.4458 61.9512 74.5189 62.0842L70.4389 62.2616L70.3059 54.013C70.1728 46.341 70.0841 45.6757 69.0641 43.5914C66.8024 38.9793 62.0573 35.4315 57.2234 34.6776L55.3165 34.4115V31.1298C55.3165 28.0699 55.3608 27.8481 56.5139 27.316C57.1791 27.0055 58.1991 26.0742 58.7312 25.2316C59.7069 23.7682 59.7512 23.4134 59.7512 14.1448C59.7512 -0.40112 60.8156 0.352784 40.3714 0.352784C27.1116 0.352784 25.6925 0.441479 24.3177 1.15104ZM52.6556 14.1004V20.7525H40.4601H28.2646V14.1004V7.44835H40.4601H52.6556V14.1004ZM48.2209 31.1742V34.5002H40.6819H33.1428V31.1742V27.8481H40.6819H48.2209V31.1742ZM58.4208 42.5714C62.2347 44.5671 63.7425 47.8488 63.7425 54.2791V57.1173H59.7956C56.026 57.1173 55.76 57.1617 54.9174 58.2704C53.853 59.6008 53.7643 60.5764 54.4739 62.1729C55.1391 63.6364 56.9573 64.2129 60.6825 64.2129C63.6094 64.2129 63.7425 64.2573 63.7425 65.2772C63.7425 65.8538 63.1216 67.0955 62.3677 68.0268C59.7069 71.3528 58.1991 75.8763 58.4651 79.6901C58.5982 81.2423 58.3764 81.6414 56.7799 83.1936C53.0548 86.83 50.9704 92.3291 51.5026 97.1186C51.68 98.5377 51.6357 99.6908 51.4139 99.6908C51.2365 99.6908 50.2165 100.4 49.2409 101.243L47.4227 102.795H32.522H17.6213V83.504V64.2129H28.2203C34.4289 64.2129 39.3071 64.0355 40.1054 63.7694C42.4114 62.9268 43.121 60.266 41.5245 58.2704L40.6375 57.1173H29.0629H17.5326L17.71 52.2835C17.843 47.7157 17.9317 47.3166 19.1734 45.4984C19.9717 44.3897 21.3464 43.1923 22.4995 42.5714C24.4064 41.5958 24.7612 41.5958 40.4601 41.5958C56.1591 41.5958 56.5139 41.5958 58.4208 42.5714ZM129.199 56.9843C129.82 58.0043 130.707 59.9556 131.195 61.3303L132.082 63.8138L130.796 65.4546C130.13 66.3416 129.243 67.5833 128.889 68.1598C128.223 69.1798 127.913 69.2685 124.365 69.2685C120.995 69.3129 120.418 69.4459 119.531 70.2885C118.29 71.5302 118.245 74.0137 119.398 75.2997C120.019 76.0093 120.729 76.1867 122.813 76.1867C125.252 76.1867 125.385 76.231 125.385 77.2954C125.385 78.2267 125.03 78.5814 123.523 79.2467L121.616 80.0449L120.418 78.3154C118.911 76.2754 115.584 73.7919 113.367 73.0824C111.948 72.5946 111.593 72.1954 111.017 70.4659L110.351 68.4259L118.201 60.5321L126.05 52.6383L127.07 53.88C127.647 54.5452 128.578 55.9643 129.199 56.9843ZM156.783 62.5277L159 63.0155L159.533 65.8538C160.508 70.9537 159.4 76.1867 156.65 79.5127C155.807 80.5771 154.876 81.9075 154.61 82.5284C154.211 83.4153 153.59 83.7701 151.816 84.1692C150.574 84.4353 148.623 85.1448 147.47 85.7214C146.317 86.3422 145.297 86.83 145.208 86.83C145.12 86.83 144.588 86.2092 144.055 85.4553L143.035 84.0805L147.027 80.0449C149.2 77.7832 151.151 75.5215 151.328 74.945C152.038 72.5502 149.421 69.9337 147.027 70.6433C146.45 70.8207 144.011 72.905 141.572 75.2997L137.137 79.6901L134.831 78.9362C132.17 78.138 132.126 77.9162 134.122 73.6589C137.936 65.4546 148.047 60.4877 156.783 62.5277ZM99.8855 67.0955C102.236 68.4259 103.921 71.0867 104.542 74.3684C105.163 77.6501 105.651 78.3154 107.779 78.8475C110.928 79.6458 112.968 80.7101 114.298 82.2623C115.895 84.0805 115.939 84.5683 114.564 86.7857C113.944 87.717 113.19 89.4465 112.835 90.6439L112.214 92.8169L102.192 92.95L92.1691 93.0387L93.1447 91.93C93.6769 91.3535 94.4752 90.4222 94.9186 89.9344C96.1604 88.5152 97.6238 88.8257 99.2203 90.8213C100.418 92.3291 100.861 92.5952 102.325 92.5952C105.872 92.5952 106.892 88.9144 104.187 85.544C100.196 80.4884 91.9917 80.8432 88.577 86.2535C87.8231 87.4066 87.2465 88.6926 87.2465 89.0918C87.2465 90.6439 88.3109 92.1517 89.6856 92.6395L91.1048 93.1717L89.5083 94.5908L87.9561 96.0543L85.4727 94.8126C80.151 92.1074 72.9667 91.3978 67.1572 92.9943C63.3877 94.0143 62.5894 94.7682 61.6138 98.0056C61.1703 99.469 60.5938 100.622 60.3721 100.666C60.1503 100.666 59.5738 99.5577 59.086 98.1829C58.3321 96.0099 58.2878 95.4778 58.7756 93.6152C59.5295 90.7326 61.126 88.6039 63.5651 87.0518C66.1372 85.4109 66.5807 84.3466 65.8711 81.0649C64.1859 72.8163 72.6119 66.3859 80.151 70.1998C83.2553 71.752 85.0735 71.6633 86.67 69.845C87.3796 69.0911 88.3996 68.0711 88.8874 67.6277C91.5482 65.2772 96.4264 65.0555 99.8855 67.0955ZM173.325 81.0649C176.651 81.9962 179.666 85.5883 180.553 89.757C180.864 91.1317 180.775 91.1761 178.07 92.4621C176.518 93.2161 174.345 94.5021 173.236 95.3447C172.083 96.2317 170.974 96.8082 170.753 96.6308C170.486 96.4978 170.043 95.5665 169.777 94.5908C168.934 91.8856 166.406 88.4709 164.056 86.83C162.903 86.0318 161.883 85.2779 161.794 85.2335C161.262 84.7901 163.347 82.7944 165.342 81.7744C167.87 80.5327 170.531 80.311 173.325 81.0649ZM134.831 86.7413C136.96 87.8944 138.778 89.89 139.576 91.8856L140.02 93.0387H129.82C124.188 93.0387 119.62 92.8613 119.62 92.6839C119.62 92.5065 120.197 91.3978 120.906 90.2448C123.966 85.4553 129.687 83.9918 134.831 86.7413ZM159.355 92.3735C160.907 93.2604 161.661 94.103 162.46 95.8325C163.036 97.1186 163.524 98.6708 163.524 99.3803C163.524 101.42 164.455 102.307 167.515 103.239C171.773 104.525 174.611 107.895 174.611 111.665C174.611 112.995 174.611 112.995 172.172 112.995C170.132 112.995 169.511 113.172 168.624 114.104C166.85 115.833 167.205 118.361 169.333 119.425C170.353 119.957 173.059 120.091 183.702 120.091H196.829L196.563 123.505C196.252 127.097 195.188 134.149 194.656 136.233C194.39 137.253 192.793 138.362 185.742 142.53C181.041 145.324 177.05 147.586 176.872 147.586C176.695 147.586 176.207 146.743 175.764 145.723C173.192 139.958 166.096 136.233 159.666 137.386C157.271 137.785 126.095 149.227 119.753 152.021C116.915 153.262 116.072 155.79 117.846 157.697C119.221 159.16 120.507 159.249 123.345 158.229C124.764 157.697 126.05 157.431 126.272 157.608C126.45 157.83 126.937 159.781 127.337 161.999C128.135 166.3 128.756 167.365 130.929 167.808C131.904 167.986 132.614 167.808 133.501 167.099C134.964 165.946 135.053 164.349 133.944 158.628C133.545 156.455 133.279 154.637 133.412 154.504C133.767 154.149 159.311 144.57 160.73 144.304C163.967 143.595 168.092 145.989 169.466 149.315C170.309 151.444 176.828 186.478 176.828 188.918C176.828 193.707 172.748 197.255 167.205 197.255C166.14 197.255 165.298 197.166 165.298 197.122C165.298 195.614 162.947 184.882 162.415 184.128C160.996 181.955 157.759 182.398 156.561 184.882C156.118 185.813 156.207 187.011 157.049 191.534L158.025 197.033L152.748 197.166C149.821 197.21 147.381 197.21 147.248 197.122C147.16 197.033 146.716 194.993 146.273 192.554C145.608 189.184 145.208 188.031 144.41 187.41C142.947 186.168 140.552 186.523 139.399 188.075C138.512 189.272 138.512 189.405 139.177 193.264L139.842 197.255L126.76 197.166L113.678 197.033L112.702 191.667C112.17 188.696 111.505 185.858 111.194 185.325C110.573 184.128 108.755 183.374 107.469 183.773C104.808 184.571 104.453 186.39 105.651 192.687C106.005 194.594 106.316 196.412 106.316 196.723C106.316 197.166 102.28 197.255 86.0492 197.166C67.0242 197.033 65.6494 196.989 64.0086 196.19C62.0129 195.171 59.973 192.244 59.5295 189.716C58.953 186.39 60.8599 182.576 63.8312 181.024C66.359 179.693 76.7806 175.924 77.3127 176.146C77.5788 176.234 77.978 177.299 78.1553 178.452C78.5545 181.245 79.1753 182.443 80.4614 183.019C82.1023 183.773 83.2109 183.596 84.4527 182.354C85.65 181.157 85.6944 180.713 84.7631 174.815L84.497 172.997L94.1647 169.36C104.365 165.502 105.872 164.571 105.872 162.309C105.828 160.801 105.03 159.737 103.522 159.16C102.236 158.673 101.659 158.806 96.2047 160.846C94.1647 161.6 92.4352 162.22 92.3908 162.22C92.3021 162.22 91.8143 161.023 91.2821 159.56C89.1091 153.661 83.1222 146.699 77.1797 143.195C75.4945 142.22 74.3858 141.289 74.3858 140.845C74.3858 139.736 71.8137 137.342 69.3746 136.144C66.2259 134.592 60.7269 133.705 55.9817 134.016C53.8087 134.193 51.547 134.415 51.0148 134.548C50.0835 134.814 49.9948 134.681 49.9948 133.04C49.9948 130.734 48.3096 129.182 46.1366 129.536L44.7175 129.803L44.4957 127.497C44.3627 126.21 44.141 124.037 44.0079 122.618L43.7418 120.091H98.1116C155.985 120.091 154.477 120.135 155.275 118.095C156.162 115.789 154.477 112.995 152.171 112.995C151.24 112.995 151.062 112.862 151.328 112.197C153.28 107.363 154.566 100.622 154.034 97.7838C153.679 95.8769 152.26 94.0143 150.752 93.4378C149.421 92.9056 149.776 92.4178 152.215 91.4865C154.566 90.6439 156.872 90.91 159.355 92.3735ZM191.684 97.5177L194.478 98.0056L195.055 100.711C195.72 103.859 195.232 107.585 193.769 110.911L192.837 112.995H188.758H184.633L186.23 111.31C188.358 109.137 188.624 107.052 187.028 105.456C185.875 104.303 183.48 104.303 182.061 105.456L180.952 106.299L179.356 103.682C177.937 101.287 177.892 101.021 178.558 100.445C179.844 99.2916 182.194 98.316 184.988 97.6951C188.447 96.9412 188.447 96.9412 191.684 97.5177ZM81.4814 100.888C86.1379 103.061 88.0004 105.057 89.4639 109.358L90.6613 112.995H88.6213C86.67 112.995 86.4039 112.818 83.9205 110.29C79.8849 106.21 78.1553 105.545 75.9823 107.274C74.6076 108.338 74.3858 110.911 75.5832 112.197C76.2928 112.995 76.2041 113.039 72.6119 112.906L68.9311 112.773L68.3102 110.999C67.6007 109.048 67.4676 103.372 68.0885 101.243C68.5763 99.6021 69.7294 99.2473 74.8293 99.4247C77.978 99.5134 79.0866 99.7351 81.4814 100.888ZM146.849 101.553C146.273 105.057 145.652 107.185 144.366 109.979L142.991 112.995H139.665H136.383L134.565 110.955C132.303 108.383 130.441 107.496 128.578 108.161C127.115 108.649 126.006 110.645 126.405 112.108C126.76 113.438 124.809 113.261 123.434 111.886C122.724 111.177 121.837 110.778 120.95 110.778C120.064 110.778 119.177 111.177 118.467 111.886C117.802 112.551 116.871 112.995 116.117 112.995C115.008 112.995 114.875 112.862 115.097 111.842C115.363 110.29 114.431 108.693 112.879 108.161C111.15 107.54 110.041 108.072 107.425 110.733L105.252 112.995H102.059H98.9099L97.5351 110.201C96.249 107.585 94.7856 102.706 94.7856 100.888C94.7856 100.179 96.3377 100.134 120.95 100.134H147.115L146.849 101.553ZM56.2478 107.496C56.8243 108.117 58.1547 109.137 59.1304 109.713C60.3277 110.423 61.0816 111.221 61.2147 111.886L61.3921 112.995H55.7156H49.9948L50.4383 111.842C51.5026 109.137 53.6313 106.343 54.6513 106.343C54.9174 106.343 55.6269 106.875 56.2478 107.496ZM43.3427 110.733C43.3427 112.197 42.8549 112.995 41.9236 112.995C40.4158 112.995 38.1541 114.68 37.3558 116.365C36.6906 117.829 36.6463 118.583 37.0897 124.037C37.3558 127.363 37.7106 130.867 37.8436 131.887L38.1097 133.705L33.675 133.971C28.8411 134.326 24.3621 135.479 22.0117 137.076C20.6812 137.962 20.1047 138.628 18.1978 141.643C17.7987 142.309 17.6656 138.982 17.6656 126.166L17.6213 109.891H30.482C42.8549 109.891 43.3427 109.935 43.3427 110.733ZM40.4601 141.555C41.9236 141.909 43.9636 142.442 44.9836 142.752C46.6688 143.284 47.1566 143.24 49.64 142.353C53.3652 141.067 57.4895 140.712 61.4808 141.333C67.3346 142.264 67.645 143.107 62.5451 144.038C60.4608 144.437 59.5295 144.881 58.8643 145.723C57.5782 147.364 57.7112 149.182 59.3077 150.779C60.0616 151.533 60.5495 152.242 60.4164 152.375C59.8843 152.952 53.7643 150.513 50.9704 148.606C47.2896 146.078 45.9149 145.989 43.1653 147.941C40.5932 149.803 36.0698 151.888 33.808 152.287L32.0341 152.553L33.542 150.956C34.7837 149.715 35.0941 149.005 35.0498 147.763C35.0054 145.59 34.2959 145.014 30.5263 144.038C25.7812 142.841 25.7368 142.575 30.0829 141.599C33.7637 140.801 37.1784 140.801 40.4601 141.555ZM203.747 142.486C204.146 143.329 204.412 144.127 204.279 144.215C204.19 144.304 199.445 147.497 193.769 151.355C188.092 155.169 183.125 158.761 182.771 159.338C181.396 161.467 183.081 164.438 185.698 164.438C186.274 164.438 194.035 163.107 202.904 161.511C211.729 159.87 219.047 158.628 219.135 158.717C219.224 158.806 219.446 159.604 219.623 160.447L219.889 161.999L203.348 165.014C191.862 167.099 186.451 168.252 185.698 168.828C184.899 169.405 184.545 170.114 184.456 171.4C184.234 174.283 184.944 174.593 199.002 177.786L211.508 180.625L211.197 182.398C211.064 183.33 210.887 184.172 210.842 184.217C210.665 184.394 183.081 179.294 182.815 178.984C182.327 178.54 178.114 155.347 178.513 155.214C178.691 155.125 184.101 151.888 190.576 148.029C197.05 144.171 202.461 140.978 202.683 140.978C202.86 140.934 203.348 141.643 203.747 142.486ZM23.1647 149.227C24.6281 149.936 24.7168 150.069 24.4064 151.355C23.5638 154.726 24.4064 157.076 27.0673 158.673C28.1316 159.338 29.2846 159.56 31.635 159.56C35.4045 159.56 38.3758 158.717 43.121 156.367L46.6688 154.593L49.5513 156.145C57.0904 160.18 64.9842 160.713 67.9555 157.342C68.6207 156.588 68.8424 155.746 68.8424 153.839C68.8424 152.464 68.7094 151.045 68.532 150.69C68.2659 150.202 68.665 149.803 69.9954 149.227L71.7693 148.384L74.2084 149.892C77.5345 151.843 81.8805 156.633 83.6101 160.136C86.0935 165.103 86.8918 164.349 73.4989 169.493C60.8156 174.327 58.4208 175.525 56.2478 177.964C52.1235 182.709 51.1922 189.982 54.0304 195.57L54.9174 197.344L42.5888 197.122C28.8855 196.944 27.5994 196.723 21.6125 193.796C17.6213 191.844 12.7874 187.41 10.5257 183.685C8.04226 179.56 7.02227 175.924 6.97792 171.267C6.97792 164.66 9.06225 159.427 13.63 154.504C16.0248 151.976 20.3708 148.561 21.2578 148.473C21.4351 148.473 22.2777 148.828 23.1647 149.227Z" fill="black" stroke="black" stroke-width="5.01593" mask="url(#path-1-inside-1_1330_37)"/>
<path d="M121.348 66.0628C121.909 66.0628 122.426 65.9281 124.34 64.1029L124.35 64.0941C124.971 63.5137 125.562 62.8708 126.005 62.3158C126.227 62.0379 126.4 61.7965 126.52 61.6068C126.619 61.4487 126.648 61.3756 126.651 61.3724L126.65 61.3783L126.656 61.3548C126.755 60.9919 126.701 60.4388 126.431 59.8597C126.163 59.2878 125.781 58.8989 125.474 58.7435C124.744 58.423 124.523 58.3977 124.381 58.4105C124.252 58.4221 124.067 58.4752 123.648 58.7015L123.146 58.9906C122.075 59.6555 121.024 60.6421 120.248 61.6439C119.861 62.144 119.56 62.6238 119.361 63.0423C119.154 63.4789 119.098 63.765 119.098 63.9017C119.098 65.0848 120.057 66.0628 121.348 66.0628Z" fill="black" stroke="black" stroke-width="2.50797"/>
<path d="M73.1426 86.02C74.323 86.02 75.3477 84.9741 75.3477 83.8589C75.3478 82.664 76.081 81.5504 76.8408 80.81C77.6062 80.0643 78.7354 79.3676 79.9277 79.3676C80.4785 79.3677 81.133 79.5612 81.6816 79.7758C82.2577 80.0013 82.8818 80.3175 83.416 80.688L83.417 80.687C84.3594 81.3152 84.9082 81.4998 85.2861 81.5141C85.609 81.5263 85.9999 81.42 86.6523 80.9174C87.1916 80.4841 87.4134 79.9347 87.3838 79.3374C87.3526 78.7094 87.0311 77.9316 86.2822 77.1772C83.6222 74.6378 79.6233 74.0254 76.0283 75.7241L76.0234 75.727L75.5742 75.9438C74.57 76.4481 73.8723 76.9366 73.3125 77.5083C72.672 78.1624 72.1463 78.9934 71.5811 80.2495L71.5801 80.2524L71.4248 80.6108C70.6954 82.3808 70.6584 83.7802 70.9746 84.6606C71.137 85.1127 71.3907 85.4327 71.71 85.6469C72.0329 85.8637 72.4947 86.02 73.1426 86.02Z" fill="black" stroke="black" stroke-width="2.50797"/>
<path d="M103.965 106.863C105.539 106.863 106.371 106.826 106.893 106.725C107.299 106.647 107.441 106.548 107.646 106.344C108.467 105.522 108.508 103.961 107.593 103.01C107.323 102.743 106.928 102.498 104.364 102.408C103.521 102.387 102.678 102.387 102.013 102.413C101.677 102.426 101.403 102.445 101.205 102.469C101.111 102.48 101.048 102.491 101.012 102.499L101.005 102.501L100.861 102.562C99.4116 103.244 99.0796 105.283 100.172 106.322C100.397 106.534 100.568 106.642 101.004 106.724C101.546 106.827 102.393 106.863 103.965 106.863Z" fill="black" stroke="black" stroke-width="2.50797"/>
<path d="M138.023 106.863C139.654 106.863 140.437 106.824 140.912 106.717C141.236 106.643 141.372 106.558 141.678 106.237C142.431 105.423 142.477 103.999 141.748 103.095L141.745 103.091C141.508 102.794 141.392 102.715 141.121 102.638C140.815 102.55 140.353 102.49 139.541 102.446L138.604 102.408C137.735 102.387 136.827 102.408 136.072 102.466C135.693 102.494 135.366 102.531 135.109 102.573C134.981 102.594 134.88 102.615 134.804 102.634C134.724 102.653 134.696 102.665 134.703 102.662L134.682 102.671L134.659 102.68L134.548 102.728C133.996 102.995 133.581 103.615 133.487 104.426C133.388 105.281 133.685 106.03 134.205 106.414C134.315 106.483 134.618 106.612 135.281 106.711C135.938 106.809 136.834 106.863 138.023 106.863Z" fill="black" stroke="black" stroke-width="2.50797"/>
</svg>
