<svg width="245" height="250" viewBox="0 0 245 250" fill="none" xmlns="http://www.w3.org/2000/svg">
<path d="M20.3418 123.407H117.987C119.961 123.407 121.555 125.005 121.556 126.975V228.588C121.556 229.069 121.459 229.545 121.271 229.987C121.082 230.429 120.805 230.827 120.457 231.159L120.456 231.161C119.793 231.799 118.904 232.156 117.983 232.156C117.968 232.156 117.951 232.156 117.923 232.155C117.902 232.154 117.874 232.152 117.843 232.152H117.844C107.987 231.771 98.2339 230.003 88.8721 226.9L91.1523 220.131C98.5168 222.57 106.145 224.126 113.878 224.761L114.419 224.805V130.544H23.9756L23.9961 131.064C24.1463 134.791 24.512 138.506 25.0859 142.191L18.0361 143.327C17.1974 137.96 16.7734 132.464 16.7734 126.975C16.7736 125.005 18.3686 123.407 20.3418 123.407ZM134.262 147.818H220.805C221.344 147.817 221.877 147.94 222.362 148.177C222.847 148.415 223.272 148.76 223.603 149.187L223.604 149.19C223.939 149.615 224.171 150.111 224.285 150.64C224.399 151.169 224.391 151.717 224.261 152.243V152.244C223.603 154.923 222.835 157.574 221.964 160.191L215.199 157.911C215.453 157.143 215.701 156.374 215.936 155.6L216.132 154.956H137.826V223.833L138.408 223.735C140.662 223.358 142.902 222.898 145.123 222.363L146.833 229.292C142.841 230.253 138.757 230.99 134.687 231.476H134.686C134.185 231.536 133.677 231.49 133.195 231.339C132.714 231.189 132.27 230.938 131.893 230.603C131.515 230.268 131.213 229.856 131.006 229.396C130.799 228.936 130.692 228.437 130.692 227.933V151.387C130.692 149.417 132.288 147.818 134.262 147.818ZM117.85 21.7983C118.329 21.7784 118.807 21.8565 119.256 22.0269C119.705 22.1972 120.115 22.4563 120.46 22.7896L120.461 22.7905C121.164 23.4646 121.556 24.3925 121.556 25.3638V110.702C121.555 112.671 119.961 114.27 117.987 114.27H21.6514C21.135 114.27 20.6249 114.158 20.1562 113.941C19.6875 113.724 19.2716 113.408 18.9375 113.014L18.9365 113.013L18.8154 112.863C18.5418 112.504 18.3377 112.096 18.2158 111.661C18.0766 111.163 18.0475 110.641 18.1299 110.13C19.2644 103.096 21.1132 96.1958 23.6455 89.5366L30.3008 92.106C28.5236 96.7902 27.1025 101.621 26.0615 106.529L25.9336 107.132H114.419V29.145L113.878 29.1899C108.86 29.6026 103.881 30.402 98.9863 31.5796L97.2773 24.6499C103.989 23.0293 110.909 22.0712 117.849 21.7983H117.85ZM130.692 26.0171C130.691 25.5127 130.799 25.014 131.006 24.5542C131.213 24.0943 131.516 23.6835 131.895 23.3501L131.896 23.3491C132.274 23.0138 132.718 22.7625 133.199 22.6118C133.681 22.4612 134.189 22.4145 134.689 22.4751H134.69C143.185 23.4897 151.522 25.5438 159.517 28.5864L156.944 35.2407C150.947 32.962 144.741 31.2779 138.413 30.2163L137.83 30.1187V131.544H220.081L220.103 131.067C220.168 129.636 220.201 128.281 220.201 126.975C220.201 105.707 213.516 85.4954 200.865 68.4888L206.575 64.2026C220.158 82.4555 227.338 104.145 227.338 126.975C227.338 129.24 227.249 131.631 227.061 134.257L226.974 135.398C226.901 136.292 226.494 137.126 225.835 137.734C225.176 138.342 224.312 138.681 223.415 138.681H134.262C132.288 138.681 130.693 137.083 130.692 135.113V26.0171Z" fill="black" stroke="black"/>
<mask id="path-2-inside-1_1330_27" fill="white">
<path d="M92.7467 39.9328C92.7426 39.9287 92.7385 39.9288 92.7345 39.9288C87.0426 35.6568 80.301 33.3987 73.2339 33.3987C72.0093 33.3987 70.7643 33.4923 69.4908 33.651C65.524 25.5464 58.6726 19.114 50.2588 15.7168C53.6113 12.1609 57.8222 9.35767 62.4563 7.61633L59.5961 0C53.7496 2.19295 48.4361 5.74072 44.2211 10.2527C43.2446 11.2984 42.378 12.3603 41.5724 13.4303C39.945 13.2106 38.3013 13.056 36.617 13.056C16.4247 13.056 0 29.4848 0 49.6729C0 69.8611 16.4247 86.2899 36.617 86.2899C40.1281 86.2899 43.5172 85.765 46.7354 84.8374C51.3858 91.3471 58.3105 95.9649 66.1709 97.7062C66.175 97.7062 66.175 97.7103 66.179 97.7103C68.5388 98.2311 70.9148 98.4955 73.2339 98.4955C80.9804 98.4955 88.5032 95.7045 94.4066 90.6432L94.4148 90.6351C101.636 84.4346 105.782 75.435 105.782 65.9471C105.782 55.6374 101.03 46.1577 92.7467 39.9328ZM36.617 78.1528C20.9164 78.1528 8.1371 65.3775 8.1371 49.6729C8.1371 33.9683 20.9164 21.1931 36.617 21.1931C36.7268 21.1931 36.8285 21.2094 36.9384 21.2094C35.5684 24.2569 34.5725 27.4591 33.9724 30.746L41.9752 32.2066C42.5926 28.8407 43.7276 25.5908 45.3399 22.5723C53.6113 25.2413 60.2145 31.5964 63.2578 39.6928C63.5451 40.4589 63.8003 41.2367 64.0227 42.0241C64.0512 42.1258 64.0756 42.2275 64.1 42.3292C64.2912 43.0371 64.458 43.7451 64.5964 44.4611C64.6533 44.7744 64.694 45.0917 64.7428 45.405C64.8242 45.9339 64.9097 46.4628 64.9625 46.9958C65.0439 47.8746 65.0968 48.7697 65.0968 49.6729C65.0968 51.7682 64.8405 53.9408 64.3319 56.1297C61.3904 68.73 50.0961 78.1528 36.617 78.1528ZM64.0431 88.552C60.3488 87.0466 57.0899 84.6381 54.5226 81.5785C60.5319 78.1935 65.5037 73.181 68.8032 67.1189L64.0431 88.552ZM97.3075 61.8786H81.371L90.9199 49.1522C94.2968 52.6796 96.5101 57.0818 97.3075 61.8786ZM84.4102 44.2618L80.8543 49.0016L73.7425 58.4813L72.587 56.3982V56.3942C72.7904 55.3038 72.9572 54.2012 73.059 53.0783C73.1729 51.9391 73.2339 50.7999 73.2339 49.6729C73.23 48.3421 73.154 47.0124 73.0061 45.6898C72.9857 45.4986 72.945 45.3114 72.9206 45.1202C72.7764 43.953 72.5755 42.7934 72.3185 41.6457C72.3144 41.6172 72.3103 41.5887 72.3022 41.5562C76.6637 41.3649 80.6956 42.3333 84.4102 44.2618ZM71.9849 90.3259L75.4391 74.7759L85.7976 86.8595C81.6639 89.3454 76.8834 90.5781 71.9849 90.3259ZM91.9736 81.5582L82.083 70.0157H97.3034C96.5798 74.2671 94.7406 78.2502 91.9736 81.5582ZM150.536 78.1528H158.673V86.2899H150.536V78.1528ZM166.811 86.2899H174.948V94.427H166.811V86.2899ZM183.085 114.77H191.222V122.907H183.085V114.77ZM150.536 110.701H158.673V118.838H150.536V110.701ZM146.468 94.427H154.605V102.564H146.468V94.427ZM203.428 98.4955H211.565V106.633H203.428V98.4955ZM183.085 82.2213H191.222V90.3584H183.085V82.2213ZM166.811 102.564H174.948V110.701H166.811V102.564ZM183.085 98.4955H191.222V106.633H183.085V98.4955ZM244.113 4.91888C233.51 4.91888 223.412 7.67735 214.323 12.4213C213.53 10.6148 212.452 8.88571 210.983 7.41697C205.454 1.89188 195.262 4.748 194.115 5.08976C193.471 5.28384 192.886 5.63385 192.41 6.1087C191.935 6.58354 191.584 7.16851 191.389 7.81162C191.047 8.95488 188.187 19.1466 193.72 24.6798C194.359 25.3145 195.05 25.8597 195.754 26.3683C193.089 29.1674 190.673 32.2229 188.443 35.433C187.882 34.6193 187.288 33.8219 186.571 33.1058C181.209 27.7475 171.196 29.5824 170.069 29.8143C169.331 29.9647 168.649 30.3164 168.098 30.8305C167.547 31.3447 167.15 32.0012 166.949 32.7274C166.4 34.7332 163.938 44.9982 169.309 50.3687C172.006 53.058 175.395 54.5674 178.752 54.8644C176.327 62.2244 174.948 70.0482 174.948 78.1528H183.085C183.085 72.3063 183.955 66.6022 185.461 61.1218C187.707 62.3912 190.372 63.152 193.256 63.152C201.035 63.152 206.393 53.9815 206.979 52.9318C207.318 52.324 207.495 51.6399 207.495 50.9443C207.495 50.2488 207.318 49.5647 206.979 48.9569C206.467 48.0414 202.309 40.9215 196.076 39.1435C198.557 35.7325 201.349 32.559 204.416 29.6638C206.491 34.2206 211.634 37.4673 217.667 37.4673C225.446 37.4673 230.805 28.2968 231.391 27.2471C231.729 26.6392 231.906 25.9552 231.906 25.2596C231.906 24.564 231.729 23.8799 231.391 23.2721C231.041 22.6455 228.954 19.1222 225.687 16.3841C231.557 14.2521 237.754 13.056 244.113 13.056V4.91888ZM183.077 44.3553C182.751 44.9941 182.479 45.6613 182.169 46.3123C181.937 46.3733 181.701 46.4262 181.482 46.5279C179.944 47.2237 177.25 46.7965 175.066 44.6117C173.971 43.5172 173.906 40.3071 174.293 37.4876C176.795 37.3737 179.635 37.6748 180.819 38.8587C182.352 40.3926 183.215 42.4187 183.068 44.1478C183.064 44.217 183.081 44.2862 183.077 44.3553ZM198.553 50.9464C196.971 53.0173 194.823 55.0149 193.256 55.0149C191.165 55.0149 189.253 54.2256 188.142 53.1515C188.985 51.1363 189.923 49.1622 190.953 47.2359C191.686 47.0162 192.455 46.8778 193.256 46.8778C194.827 46.8778 196.971 48.8755 198.553 50.9464ZM202.028 20.595C201.161 20.237 200.287 19.7406 199.477 18.9269C198.378 17.8284 198.313 14.9316 198.7 12.4009C201.088 12.047 204.078 12.0185 205.23 13.1699C206.247 14.187 206.931 15.4198 207.26 16.6404C205.456 17.8774 203.71 19.197 202.028 20.595ZM217.667 29.3302C214.417 29.3302 211.565 27.4302 211.556 25.4935C211.569 25.4203 211.622 25.0867 211.63 25.0134C211.679 24.6066 211.65 24.2038 211.577 23.8092C212.463 23.19 213.364 22.5918 214.278 22.0149C215.312 21.5145 216.451 21.1931 217.667 21.1931C219.238 21.1931 221.382 23.1907 222.965 25.2616C221.382 27.3325 219.234 29.3302 217.667 29.3302ZM92.7141 164.703C93.2867 163.036 93.5781 161.286 93.5767 159.524C93.5767 150.549 86.2777 143.25 77.3025 143.25C72.3429 143.25 67.7251 145.556 64.6899 149.304C61.2805 147.444 57.2038 146.85 53.3834 147.721C49.7868 144.82 45.3603 143.25 40.6855 143.25C29.4685 143.25 20.3428 152.375 20.3428 163.592C11.3675 163.592 4.06855 170.891 4.06855 179.867C4.06855 182.621 4.75207 185.261 6.03773 187.609C2.29873 190.644 0 195.254 0 200.209C0 209.185 7.29898 216.483 16.2742 216.483C22.1573 216.483 27.3285 213.343 30.1846 208.647L36.7716 221.821L40.7425 245.631C40.9002 246.581 41.39 247.444 42.1246 248.067C42.8592 248.69 43.7909 249.032 44.7541 249.032H77.3025C79.5524 249.032 81.371 247.209 81.371 244.963V220.89L85.3826 196.812C85.4192 196.588 85.4396 196.365 85.4396 196.141C96.6565 196.141 105.782 188.842 105.782 179.867C105.782 172.966 100.391 167.042 92.7141 164.703ZM85.4396 188.004C84.4794 188.004 83.4785 187.886 82.1969 187.621C81.6052 187.499 80.9936 187.51 80.4067 187.653C79.8198 187.797 79.2722 188.069 78.8037 188.451C78.3351 188.832 77.9573 189.313 77.6976 189.858C77.4379 190.404 77.3029 191 77.3025 191.604V195.807L73.2909 219.885C73.2536 220.105 73.2345 220.328 73.2339 220.552V240.895H48.2001L44.7012 219.881C44.6334 219.481 44.5073 219.093 44.3269 218.729L32.1212 194.318C31.7819 193.643 31.2618 193.076 30.6188 192.679C29.9758 192.282 29.2353 192.072 28.4799 192.072H27.6661C27.0108 192.072 26.3652 192.23 25.7842 192.533C25.2033 192.836 24.7043 193.276 24.3299 193.814C23.9544 194.351 23.7146 194.972 23.631 195.622C23.5474 196.272 23.6225 196.933 23.8498 197.548C24.2323 198.59 24.4113 199.436 24.4113 200.209C24.4113 204.697 20.7618 208.346 16.2742 208.346C11.7866 208.346 8.1371 204.697 8.1371 200.209C8.1371 196.841 10.2812 193.785 13.475 192.609C14.1277 192.367 14.7077 191.963 15.1599 191.434C15.6121 190.905 15.9215 190.269 16.0586 189.586C16.1947 188.904 16.1536 188.198 15.9392 187.537C15.7248 186.875 15.3443 186.279 14.8339 185.807C13.1373 184.236 12.2057 182.125 12.2057 179.867C12.2057 175.379 15.8551 171.729 20.3428 171.729C21.1565 171.729 22.0149 171.9 23.0321 172.266C23.6467 172.487 24.3052 172.556 24.9523 172.469C25.5994 172.382 26.2161 172.141 26.7507 171.766C27.2854 171.391 27.7218 170.893 28.0228 170.314C28.3238 169.734 28.4806 169.091 28.4799 168.438V163.592C28.4799 156.863 33.9561 151.387 40.6855 151.387C44.0014 151.387 47.1138 152.713 49.441 155.122C50.0047 155.707 50.7311 156.109 51.5262 156.277C52.3212 156.444 53.1482 156.369 53.9002 156.061C57.0614 154.768 60.6092 155.61 62.9039 158.084C63.3775 158.594 63.974 158.974 64.6365 159.187C65.299 159.401 66.0052 159.441 66.6876 159.304C67.3698 159.168 68.0055 158.858 68.534 158.406C69.0626 157.954 69.4662 157.373 69.7065 156.721C70.8823 153.531 73.9337 151.387 77.3025 151.387C81.7901 151.387 85.4396 155.036 85.4396 159.524C85.4396 161.521 84.6747 163.458 83.2832 164.98C82.7604 165.552 82.4118 166.262 82.2785 167.026C82.1452 167.79 82.2326 168.576 82.5305 169.292C82.8296 170.008 83.327 170.624 83.9642 171.066C84.6015 171.509 85.3519 171.76 86.1271 171.79C92.4741 172.039 97.6452 175.664 97.6452 179.867C97.6452 184.277 92.055 188.004 85.4396 188.004ZM216.654 163.592H212.391C198.224 163.592 186.478 174.223 185.066 188.321L183.309 205.909L175.07 210.853L173.756 209.538C173.378 209.16 172.93 208.86 172.436 208.655C171.943 208.45 171.413 208.346 170.879 208.346H168.845C160.993 208.346 154.605 214.734 154.605 222.586C154.605 229.792 159.984 235.764 166.937 236.7C167.872 243.653 173.845 249.032 181.05 249.032C188.903 249.032 195.29 242.644 195.29 234.792V232.758C195.29 231.68 194.863 230.642 194.098 229.881L192.784 228.567L197.715 220.349L219.14 218.4C233.376 217.106 244.113 205.348 244.113 191.055C244.113 175.912 231.798 163.592 216.654 163.592ZM184.785 232.074L187.153 234.442V234.792C187.153 238.157 184.415 240.895 181.05 240.895C177.686 240.895 174.948 238.157 174.948 234.792V232.758C174.948 230.512 173.129 228.689 170.879 228.689H168.845C165.48 228.689 162.742 225.951 162.742 222.586C162.742 219.222 165.48 216.483 168.845 216.483H169.195L171.563 218.851C172.881 220.174 174.927 220.422 176.534 219.462L186.523 213.469L188.345 215.291L190.168 217.114L184.175 227.102C183.709 227.881 183.515 228.793 183.626 229.693C183.736 230.594 184.144 231.432 184.785 232.074ZM218.404 210.295L196.82 212.256L191.393 206.829L193.167 189.127C193.63 184.354 195.857 179.926 199.413 176.709C202.968 173.491 207.596 171.716 212.391 171.729H216.654C227.306 171.729 235.976 180.4 235.976 191.055C235.976 201.112 228.425 209.384 218.404 210.295Z"/>
</mask>
<path d="M92.7467 39.9328C92.7426 39.9287 92.7385 39.9288 92.7345 39.9288C87.0426 35.6568 80.301 33.3987 73.2339 33.3987C72.0093 33.3987 70.7643 33.4923 69.4908 33.651C65.524 25.5464 58.6726 19.114 50.2588 15.7168C53.6113 12.1609 57.8222 9.35767 62.4563 7.61633L59.5961 0C53.7496 2.19295 48.4361 5.74072 44.2211 10.2527C43.2446 11.2984 42.378 12.3603 41.5724 13.4303C39.945 13.2106 38.3013 13.056 36.617 13.056C16.4247 13.056 0 29.4848 0 49.6729C0 69.8611 16.4247 86.2899 36.617 86.2899C40.1281 86.2899 43.5172 85.765 46.7354 84.8374C51.3858 91.3471 58.3105 95.9649 66.1709 97.7062C66.175 97.7062 66.175 97.7103 66.179 97.7103C68.5388 98.2311 70.9148 98.4955 73.2339 98.4955C80.9804 98.4955 88.5032 95.7045 94.4066 90.6432L94.4148 90.6351C101.636 84.4346 105.782 75.435 105.782 65.9471C105.782 55.6374 101.03 46.1577 92.7467 39.9328ZM36.617 78.1528C20.9164 78.1528 8.1371 65.3775 8.1371 49.6729C8.1371 33.9683 20.9164 21.1931 36.617 21.1931C36.7268 21.1931 36.8285 21.2094 36.9384 21.2094C35.5684 24.2569 34.5725 27.4591 33.9724 30.746L41.9752 32.2066C42.5926 28.8407 43.7276 25.5908 45.3399 22.5723C53.6113 25.2413 60.2145 31.5964 63.2578 39.6928C63.5451 40.4589 63.8003 41.2367 64.0227 42.0241C64.0512 42.1258 64.0756 42.2275 64.1 42.3292C64.2912 43.0371 64.458 43.7451 64.5964 44.4611C64.6533 44.7744 64.694 45.0917 64.7428 45.405C64.8242 45.9339 64.9097 46.4628 64.9625 46.9958C65.0439 47.8746 65.0968 48.7697 65.0968 49.6729C65.0968 51.7682 64.8405 53.9408 64.3319 56.1297C61.3904 68.73 50.0961 78.1528 36.617 78.1528ZM64.0431 88.552C60.3488 87.0466 57.0899 84.6381 54.5226 81.5785C60.5319 78.1935 65.5037 73.181 68.8032 67.1189L64.0431 88.552ZM97.3075 61.8786H81.371L90.9199 49.1522C94.2968 52.6796 96.5101 57.0818 97.3075 61.8786ZM84.4102 44.2618L80.8543 49.0016L73.7425 58.4813L72.587 56.3982V56.3942C72.7904 55.3038 72.9572 54.2012 73.059 53.0783C73.1729 51.9391 73.2339 50.7999 73.2339 49.6729C73.23 48.3421 73.154 47.0124 73.0061 45.6898C72.9857 45.4986 72.945 45.3114 72.9206 45.1202C72.7764 43.953 72.5755 42.7934 72.3185 41.6457C72.3144 41.6172 72.3103 41.5887 72.3022 41.5562C76.6637 41.3649 80.6956 42.3333 84.4102 44.2618ZM71.9849 90.3259L75.4391 74.7759L85.7976 86.8595C81.6639 89.3454 76.8834 90.5781 71.9849 90.3259ZM91.9736 81.5582L82.083 70.0157H97.3034C96.5798 74.2671 94.7406 78.2502 91.9736 81.5582ZM150.536 78.1528H158.673V86.2899H150.536V78.1528ZM166.811 86.2899H174.948V94.427H166.811V86.2899ZM183.085 114.77H191.222V122.907H183.085V114.77ZM150.536 110.701H158.673V118.838H150.536V110.701ZM146.468 94.427H154.605V102.564H146.468V94.427ZM203.428 98.4955H211.565V106.633H203.428V98.4955ZM183.085 82.2213H191.222V90.3584H183.085V82.2213ZM166.811 102.564H174.948V110.701H166.811V102.564ZM183.085 98.4955H191.222V106.633H183.085V98.4955ZM244.113 4.91888C233.51 4.91888 223.412 7.67735 214.323 12.4213C213.53 10.6148 212.452 8.88571 210.983 7.41697C205.454 1.89188 195.262 4.748 194.115 5.08976C193.471 5.28384 192.886 5.63385 192.41 6.1087C191.935 6.58354 191.584 7.16851 191.389 7.81162C191.047 8.95488 188.187 19.1466 193.72 24.6798C194.359 25.3145 195.05 25.8597 195.754 26.3683C193.089 29.1674 190.673 32.2229 188.443 35.433C187.882 34.6193 187.288 33.8219 186.571 33.1058C181.209 27.7475 171.196 29.5824 170.069 29.8143C169.331 29.9647 168.649 30.3164 168.098 30.8305C167.547 31.3447 167.15 32.0012 166.949 32.7274C166.4 34.7332 163.938 44.9982 169.309 50.3687C172.006 53.058 175.395 54.5674 178.752 54.8644C176.327 62.2244 174.948 70.0482 174.948 78.1528H183.085C183.085 72.3063 183.955 66.6022 185.461 61.1218C187.707 62.3912 190.372 63.152 193.256 63.152C201.035 63.152 206.393 53.9815 206.979 52.9318C207.318 52.324 207.495 51.6399 207.495 50.9443C207.495 50.2488 207.318 49.5647 206.979 48.9569C206.467 48.0414 202.309 40.9215 196.076 39.1435C198.557 35.7325 201.349 32.559 204.416 29.6638C206.491 34.2206 211.634 37.4673 217.667 37.4673C225.446 37.4673 230.805 28.2968 231.391 27.2471C231.729 26.6392 231.906 25.9552 231.906 25.2596C231.906 24.564 231.729 23.8799 231.391 23.2721C231.041 22.6455 228.954 19.1222 225.687 16.3841C231.557 14.2521 237.754 13.056 244.113 13.056V4.91888ZM183.077 44.3553C182.751 44.9941 182.479 45.6613 182.169 46.3123C181.937 46.3733 181.701 46.4262 181.482 46.5279C179.944 47.2237 177.25 46.7965 175.066 44.6117C173.971 43.5172 173.906 40.3071 174.293 37.4876C176.795 37.3737 179.635 37.6748 180.819 38.8587C182.352 40.3926 183.215 42.4187 183.068 44.1478C183.064 44.217 183.081 44.2862 183.077 44.3553ZM198.553 50.9464C196.971 53.0173 194.823 55.0149 193.256 55.0149C191.165 55.0149 189.253 54.2256 188.142 53.1515C188.985 51.1363 189.923 49.1622 190.953 47.2359C191.686 47.0162 192.455 46.8778 193.256 46.8778C194.827 46.8778 196.971 48.8755 198.553 50.9464ZM202.028 20.595C201.161 20.237 200.287 19.7406 199.477 18.9269C198.378 17.8284 198.313 14.9316 198.7 12.4009C201.088 12.047 204.078 12.0185 205.23 13.1699C206.247 14.187 206.931 15.4198 207.26 16.6404C205.456 17.8774 203.71 19.197 202.028 20.595ZM217.667 29.3302C214.417 29.3302 211.565 27.4302 211.556 25.4935C211.569 25.4203 211.622 25.0867 211.63 25.0134C211.679 24.6066 211.65 24.2038 211.577 23.8092C212.463 23.19 213.364 22.5918 214.278 22.0149C215.312 21.5145 216.451 21.1931 217.667 21.1931C219.238 21.1931 221.382 23.1907 222.965 25.2616C221.382 27.3325 219.234 29.3302 217.667 29.3302ZM92.7141 164.703C93.2867 163.036 93.5781 161.286 93.5767 159.524C93.5767 150.549 86.2777 143.25 77.3025 143.25C72.3429 143.25 67.7251 145.556 64.6899 149.304C61.2805 147.444 57.2038 146.85 53.3834 147.721C49.7868 144.82 45.3603 143.25 40.6855 143.25C29.4685 143.25 20.3428 152.375 20.3428 163.592C11.3675 163.592 4.06855 170.891 4.06855 179.867C4.06855 182.621 4.75207 185.261 6.03773 187.609C2.29873 190.644 0 195.254 0 200.209C0 209.185 7.29898 216.483 16.2742 216.483C22.1573 216.483 27.3285 213.343 30.1846 208.647L36.7716 221.821L40.7425 245.631C40.9002 246.581 41.39 247.444 42.1246 248.067C42.8592 248.69 43.7909 249.032 44.7541 249.032H77.3025C79.5524 249.032 81.371 247.209 81.371 244.963V220.89L85.3826 196.812C85.4192 196.588 85.4396 196.365 85.4396 196.141C96.6565 196.141 105.782 188.842 105.782 179.867C105.782 172.966 100.391 167.042 92.7141 164.703ZM85.4396 188.004C84.4794 188.004 83.4785 187.886 82.1969 187.621C81.6052 187.499 80.9936 187.51 80.4067 187.653C79.8198 187.797 79.2722 188.069 78.8037 188.451C78.3351 188.832 77.9573 189.313 77.6976 189.858C77.4379 190.404 77.3029 191 77.3025 191.604V195.807L73.2909 219.885C73.2536 220.105 73.2345 220.328 73.2339 220.552V240.895H48.2001L44.7012 219.881C44.6334 219.481 44.5073 219.093 44.3269 218.729L32.1212 194.318C31.7819 193.643 31.2618 193.076 30.6188 192.679C29.9758 192.282 29.2353 192.072 28.4799 192.072H27.6661C27.0108 192.072 26.3652 192.23 25.7842 192.533C25.2033 192.836 24.7043 193.276 24.3299 193.814C23.9544 194.351 23.7146 194.972 23.631 195.622C23.5474 196.272 23.6225 196.933 23.8498 197.548C24.2323 198.59 24.4113 199.436 24.4113 200.209C24.4113 204.697 20.7618 208.346 16.2742 208.346C11.7866 208.346 8.1371 204.697 8.1371 200.209C8.1371 196.841 10.2812 193.785 13.475 192.609C14.1277 192.367 14.7077 191.963 15.1599 191.434C15.6121 190.905 15.9215 190.269 16.0586 189.586C16.1947 188.904 16.1536 188.198 15.9392 187.537C15.7248 186.875 15.3443 186.279 14.8339 185.807C13.1373 184.236 12.2057 182.125 12.2057 179.867C12.2057 175.379 15.8551 171.729 20.3428 171.729C21.1565 171.729 22.0149 171.9 23.0321 172.266C23.6467 172.487 24.3052 172.556 24.9523 172.469C25.5994 172.382 26.2161 172.141 26.7507 171.766C27.2854 171.391 27.7218 170.893 28.0228 170.314C28.3238 169.734 28.4806 169.091 28.4799 168.438V163.592C28.4799 156.863 33.9561 151.387 40.6855 151.387C44.0014 151.387 47.1138 152.713 49.441 155.122C50.0047 155.707 50.7311 156.109 51.5262 156.277C52.3212 156.444 53.1482 156.369 53.9002 156.061C57.0614 154.768 60.6092 155.61 62.9039 158.084C63.3775 158.594 63.974 158.974 64.6365 159.187C65.299 159.401 66.0052 159.441 66.6876 159.304C67.3698 159.168 68.0055 158.858 68.534 158.406C69.0626 157.954 69.4662 157.373 69.7065 156.721C70.8823 153.531 73.9337 151.387 77.3025 151.387C81.7901 151.387 85.4396 155.036 85.4396 159.524C85.4396 161.521 84.6747 163.458 83.2832 164.98C82.7604 165.552 82.4118 166.262 82.2785 167.026C82.1452 167.79 82.2326 168.576 82.5305 169.292C82.8296 170.008 83.327 170.624 83.9642 171.066C84.6015 171.509 85.3519 171.76 86.1271 171.79C92.4741 172.039 97.6452 175.664 97.6452 179.867C97.6452 184.277 92.055 188.004 85.4396 188.004ZM216.654 163.592H212.391C198.224 163.592 186.478 174.223 185.066 188.321L183.309 205.909L175.07 210.853L173.756 209.538C173.378 209.16 172.93 208.86 172.436 208.655C171.943 208.45 171.413 208.346 170.879 208.346H168.845C160.993 208.346 154.605 214.734 154.605 222.586C154.605 229.792 159.984 235.764 166.937 236.7C167.872 243.653 173.845 249.032 181.05 249.032C188.903 249.032 195.29 242.644 195.29 234.792V232.758C195.29 231.68 194.863 230.642 194.098 229.881L192.784 228.567L197.715 220.349L219.14 218.4C233.376 217.106 244.113 205.348 244.113 191.055C244.113 175.912 231.798 163.592 216.654 163.592ZM184.785 232.074L187.153 234.442V234.792C187.153 238.157 184.415 240.895 181.05 240.895C177.686 240.895 174.948 238.157 174.948 234.792V232.758C174.948 230.512 173.129 228.689 170.879 228.689H168.845C165.48 228.689 162.742 225.951 162.742 222.586C162.742 219.222 165.48 216.483 168.845 216.483H169.195L171.563 218.851C172.881 220.174 174.927 220.422 176.534 219.462L186.523 213.469L188.345 215.291L190.168 217.114L184.175 227.102C183.709 227.881 183.515 228.793 183.626 229.693C183.736 230.594 184.144 231.432 184.785 232.074ZM218.404 210.295L196.82 212.256L191.393 206.829L193.167 189.127C193.63 184.354 195.857 179.926 199.413 176.709C202.968 173.491 207.596 171.716 212.391 171.729H216.654C227.306 171.729 235.976 180.4 235.976 191.055C235.976 201.112 228.425 209.384 218.404 210.295Z" fill="black" stroke="black" stroke-width="2" mask="url(#path-2-inside-1_1330_27)"/>
<path d="M72.7354 183.443C70.1259 183.524 68.0448 184.243 66.3965 185.378C64.6481 186.581 63.416 188.233 62.5508 190.019C60.8271 193.578 60.5293 197.738 60.5293 200.21V215.983H53.3926V200.21C53.3926 196.827 50.9422 193.645 47.71 191.342C44.608 189.133 40.6671 187.643 37.1182 187.513V180.374C43.4304 180.523 50.2631 183.471 54.9131 188.062L55.4375 188.58L55.7246 187.902C58.7677 180.722 64.6668 176.474 72.7354 176.305V183.443ZM205.378 182.97C209.883 179.646 216.205 179.499 221.246 182.599L217.311 188.561C214.808 187.121 211.776 187.124 209.617 188.715C208.37 189.634 207.721 190.898 207.382 191.951C207.173 192.597 207.081 193.178 207.037 193.574L199.884 193.387C200.099 190.058 201.643 185.726 205.378 182.97ZM29.3672 32.6295C29.7104 36.4152 32.0029 39.7626 35.3438 41.2291C39.3174 42.9694 44.079 41.8279 47.1113 38.5123L52.5938 43.0905C49.1184 47.0227 44.1791 49.1647 39.2178 49.1647H39.2168C36.8962 49.1692 34.6 48.6917 32.4736 47.7623H32.4746C26.6881 45.2213 22.7023 39.4465 22.2324 32.9469L29.3672 32.6295Z" fill="black" stroke="black"/>
</svg>
