<svg width="700" height="700" viewBox="0 0 700 700" fill="none" xmlns="http://www.w3.org/2000/svg">
<path d="M545.825 535.473C532.32 535.503 518.943 532.859 506.465 527.693C493.988 522.527 482.656 514.941 473.125 505.373L368.125 400.373C364.408 396.842 359.477 394.873 354.35 394.873C349.223 394.873 344.292 396.842 340.575 400.373L235.175 505.773C225.647 515.345 214.316 522.934 201.838 528.1C189.359 533.267 175.981 535.909 162.475 535.873H141.775L274.775 668.873C316.275 710.373 383.625 710.373 425.125 668.873L558.475 535.473H545.825ZM162.475 164.073C189.975 164.073 215.775 174.773 235.175 194.173L340.575 299.573C342.386 301.388 344.537 302.827 346.905 303.809C349.273 304.791 351.811 305.296 354.375 305.296C356.938 305.296 359.477 304.791 361.845 303.809C364.213 302.827 366.364 301.388 368.175 299.573L473.175 194.573C482.697 185.007 494.02 177.422 506.489 172.256C518.958 167.09 532.328 164.445 545.825 164.473H558.475L425.125 31.1234C405.183 11.1947 378.143 0 349.95 0C321.757 0 294.717 11.1947 274.775 31.1234L141.775 164.123L162.475 164.073Z" fill="black"/>
<path d="M668.825 274.774L588.225 194.174C586.416 194.917 584.481 195.307 582.525 195.324H545.875C526.925 195.324 508.375 203.024 495.025 216.424L390.025 321.424C385.355 326.118 379.804 329.843 373.691 332.384C367.577 334.926 361.021 336.235 354.4 336.235C347.779 336.235 341.223 334.926 335.109 332.384C328.996 329.843 323.444 326.118 318.775 321.424L213.375 215.974C199.852 202.507 181.559 194.924 162.475 194.874H117.475C115.61 194.859 113.762 194.503 112.025 193.824L31.125 274.774C-10.375 316.274 -10.375 383.624 31.125 425.174L112.025 506.074C113.743 505.382 115.573 505.009 117.425 504.974H162.475C181.475 504.974 199.975 497.324 213.375 483.924L318.725 378.474C328.338 369.321 341.102 364.217 354.375 364.217C367.648 364.217 380.412 369.321 390.025 378.474L495.025 483.474C508.375 496.874 526.925 504.524 545.875 504.524H582.525C584.525 504.524 586.475 505.024 588.225 505.724L668.825 425.124C710.325 383.624 710.325 316.274 668.825 274.774Z" fill="black"/>
</svg>
