<svg width="446" height="496" viewBox="0 0 446 496" fill="none" xmlns="http://www.w3.org/2000/svg">
<path d="M223.119 34.9218C223.119 20.0531 211.066 8 196.197 8C184.14 8 173.936 15.9263 170.508 26.8517C165.929 24.6267 160.905 23.4736 155.815 23.4799C137.229 23.4799 122.162 38.5466 122.162 57.1327C122.162 59.6277 122.442 62.0561 122.957 64.3957C107.203 67.2006 95.24 80.956 95.24 97.5155C95.24 100.742 95.7035 103.858 96.5513 106.813C87.4238 111.121 81.1061 120.405 81.1061 131.168C81.1061 136.046 82.4096 140.617 84.6787 144.563C77.8773 151.79 73.7031 161.517 73.7031 172.224C73.7031 186.67 81.2934 199.337 92.6987 206.473C90.8205 210.739 89.8524 215.349 89.856 220.01C89.856 234.325 98.7991 246.544 111.399 251.408C110.95 253.929 110.723 256.485 110.72 259.046C110.72 283.208 130.306 302.794 154.468 302.794C156.014 302.794 157.541 302.711 159.046 302.555C164.443 313.935 176.034 321.807 189.466 321.807C208.053 321.807 223.119 306.74 223.119 288.154M223.119 34.9218V190.44M223.119 34.9218C223.119 20.0531 235.172 8 250.041 8C262.098 8 272.302 15.9263 275.731 26.8517C280.309 24.6267 285.334 23.4736 290.424 23.4799C309.009 23.4799 324.077 38.5466 324.077 57.1327C324.077 59.6277 323.797 62.0561 323.282 64.3957C330.552 65.6957 337.191 69.3541 342.173 74.8054M349.687 106.812C358.815 111.12 365.132 120.404 365.132 131.167C365.132 136.045 363.829 140.616 361.56 144.562C368.361 151.789 372.535 161.516 372.535 172.223C372.535 186.669 364.945 199.336 353.54 206.473C355.418 210.738 356.386 215.348 356.382 220.009C356.382 234.324 347.439 246.543 334.84 251.407C335.277 253.888 335.518 256.438 335.518 259.046C335.518 283.207 315.932 302.793 291.771 302.793C290.224 302.793 288.697 302.71 287.192 302.554C281.796 313.934 270.205 321.806 256.772 321.806C238.186 321.806 223.119 306.74 223.119 288.153V224.13" stroke="black" stroke-width="14.4835" stroke-miterlimit="10" stroke-linecap="round" stroke-linejoin="round"/>
<path d="M332.444 132.071C337.893 132.061 343.286 133.164 348.293 135.312C353.3 137.46 357.815 140.608 361.563 144.562M334.843 251.408C331.512 252.559 327.868 252.986 324.147 252.986C317.606 252.996 311.216 251.025 305.818 247.331M333.229 186.318C344.838 190.781 351.485 201.727 353.543 206.473M262.91 38.8294C266.129 33.9012 270.431 29.4924 275.734 26.8516M287.888 276.323C289.363 280.159 290.117 284.234 290.112 288.344C290.119 293.221 289.055 298.041 286.996 302.463" stroke="black" stroke-width="14.4835" stroke-miterlimit="10" stroke-linecap="round" stroke-linejoin="round"/>
<path d="M335.656 177.042C335.656 183.896 332.017 189.899 326.565 193.224M323.287 64.3956C321.105 63.9621 318.882 63.5633 316.572 63.5633C310.376 63.5533 304.294 65.2245 298.973 68.3989M113.782 132.071C102.325 132.071 91.991 136.857 84.6836 144.562M111.383 251.408C114.714 252.559 118.358 252.986 122.079 252.986C128.652 252.996 135.073 251.005 140.486 247.277M113.327 186.877C101.451 191.969 94.7399 201.728 92.6823 206.473M183.316 38.8294C180.097 33.9012 175.795 29.4924 170.492 26.8516M158.338 276.323C156.863 280.159 156.109 284.234 156.114 288.344C156.107 293.221 157.171 298.041 159.23 302.463" stroke="black" stroke-width="14.4835" stroke-miterlimit="10" stroke-linecap="round" stroke-linejoin="round"/>
<path d="M110.574 177.042C110.574 183.896 114.213 189.899 119.665 193.224M122.943 64.3956C125.125 63.9621 127.348 63.5633 129.658 63.5633C135.853 63.5532 141.936 65.2244 147.257 68.3988" stroke="black" stroke-width="14.4835" stroke-miterlimit="10" stroke-linecap="round" stroke-linejoin="round"/>
<path d="M138.457 87.2072C138.457 74.2793 148.937 63.799 161.865 63.799C167.18 63.7911 172.338 65.5994 176.485 68.9243M270.451 68.3971C274.48 65.4037 279.368 63.7911 284.387 63.799C297.315 63.799 307.796 74.2793 307.796 87.2072M187.647 270.07C182.627 273.596 176.639 275.483 170.505 275.473C154.001 275.473 140.622 262.094 140.622 245.59C140.622 235.464 145.658 226.514 153.363 221.109M293.005 221.189C300.645 226.602 305.632 235.513 305.632 245.589C305.632 262.093 292.253 275.472 275.749 275.472C269.663 275.481 263.72 273.624 258.723 270.151M265.391 150.519C269.68 146.201 272.541 140.672 273.589 134.676C276.454 118.423 265.601 102.924 249.348 100.058C239.425 98.3083 229.784 101.671 223.126 108.256C216.469 101.671 206.828 98.3083 196.905 100.058C180.651 102.924 169.798 118.423 172.664 134.676C173.711 140.672 176.573 146.201 180.862 150.519M401.149 384.433L389.337 399.737C385.578 404.611 383.539 410.594 383.541 416.75V443.916M401.389 303.142V213.433C401.389 198.097 413.766 185.664 429.036 185.664C434.125 185.664 438.251 189.808 438.251 194.921V323.691C438.253 331.945 435.505 339.964 430.44 346.481L421.877 357.577M387.999 487.885C390.45 487.885 392.801 486.911 394.534 485.178C396.268 483.445 397.242 481.094 397.242 478.643V453.622C397.242 451.171 396.268 448.82 394.534 447.087C392.801 445.353 390.45 444.38 387.999 444.38H287.602C285.151 444.38 282.8 445.353 281.066 447.087C279.333 448.82 278.359 451.171 278.359 453.622V478.643C278.359 481.094 279.333 483.445 281.066 485.178C282.8 486.911 285.151 487.885 287.602 487.885H387.999Z" stroke="black" stroke-width="14.4835" stroke-miterlimit="10" stroke-linecap="round" stroke-linejoin="round"/>
<path d="M291.26 443.89V400.73C291.255 384.129 297.264 368.088 308.175 355.576L359.187 299.023C369.222 287.464 386.686 286.264 398.195 296.343C402.031 299.703 402.501 305.505 399.084 309.403L340.633 374.956M8 269.083V323.691C7.99792 331.945 10.7461 339.964 15.8104 346.481L56.9135 399.737C60.6731 404.611 62.7114 410.594 62.7098 416.75V443.916M44.8623 303.142V213.433C44.8623 198.097 32.4848 185.664 17.2153 185.664C12.1259 185.664 8 189.808 8 194.92V235.062M58.2518 487.885C55.8006 487.885 53.4497 486.911 51.7164 485.178C49.9832 483.445 49.0094 481.094 49.0094 478.643V453.622C49.0094 451.171 49.9832 448.82 51.7164 447.087C53.4497 445.353 55.8006 444.38 58.2518 444.38H158.649C161.1 444.38 163.451 445.353 165.184 447.087C166.918 448.82 167.891 451.171 167.891 453.622V478.643C167.891 481.094 166.918 483.445 165.184 485.178C163.451 486.911 161.1 487.885 158.649 487.885H58.2518Z" stroke="black" stroke-width="14.4835" stroke-miterlimit="10" stroke-linecap="round" stroke-linejoin="round"/>
<path d="M154.991 443.89V400.73C154.995 384.129 148.986 368.088 138.075 355.576L87.0635 299.023C77.0284 287.464 59.5642 286.264 48.0557 296.343C44.2195 299.704 43.7492 305.505 47.1664 309.404L105.618 374.956" stroke="black" stroke-width="14.4835" stroke-miterlimit="10" stroke-linecap="round" stroke-linejoin="round"/>
</svg>
