<svg width="415" height="413" viewBox="0 0 415 413" fill="none" xmlns="http://www.w3.org/2000/svg">
<path d="M362.677 149.347C354.474 130.408 323.687 67.5944 272.03 54.4439C265.366 52.713 258.349 52.8895 251.78 54.9533C245.211 57.0172 239.354 60.8853 234.877 66.1167C224.225 78.5029 212.582 101.999 217.621 143.62C217.808 145.174 217.918 146.726 217.955 148.265C217.897 148.191 217.836 148.128 217.778 148.05C211.92 140.223 208.792 130.689 208.876 120.913V5.47822C208.876 4.02531 208.299 2.6319 207.272 1.60453C206.244 0.577169 204.851 7.56975e-09 203.398 7.56975e-09C201.945 7.56975e-09 200.552 0.577169 199.524 1.60453C198.497 2.6319 197.92 4.02531 197.92 5.47822V29.1209C193.509 30.1317 188.933 30.19 184.498 29.292C184.382 15.3609 184.284 5.722 184.282 5.42207C184.267 3.97891 183.683 2.59988 182.657 1.58463C181.632 0.569377 180.247 -7.58095e-05 178.803 7.56975e-09H178.746C178.027 0.00733628 177.316 0.156311 176.654 0.438417C175.992 0.720522 175.392 1.13024 174.889 1.64416C174.385 2.15808 173.988 2.76614 173.719 3.43363C173.451 4.10112 173.316 4.81495 173.324 5.53437C173.324 5.85759 173.44 17.0386 173.568 32.7447C173.514 33.1999 173.518 33.66 173.579 34.1143C173.824 64.5184 174.115 110.696 173.807 128.923C173.772 135.614 172.228 142.21 169.288 148.22L168.943 147.463C166.605 141.203 165.471 134.559 165.601 127.878C166.398 91.222 151.918 69.583 139.63 57.8938C134.132 52.7645 126.978 49.7755 119.465 49.469C111.952 49.1624 104.578 51.5586 98.6803 56.223C55.1874 90.5372 27.8675 137.787 12.6764 205.046L8.37869 226.509L8.37047 226.55V226.57L8.35404 226.659C5.85597 240.847 3.8167 256.093 2.29376 271.972C-5.70993 355.378 8.74984 390.126 22.2893 404.587C24.6218 407.085 27.4415 409.079 30.5743 410.445C33.7071 411.811 37.0866 412.521 40.5044 412.531C43.1141 412.535 45.7071 412.115 48.1821 411.287C49.7517 410.76 51.281 410.119 52.7578 409.37C57.1065 407.635 61.5405 406.122 66.0425 404.836C76.903 401.807 88.0623 399.975 99.3213 399.372C118.012 398.19 139.279 392.684 150.292 389.511C163.713 385.772 175.209 377.065 182.445 365.159C203.691 329.67 195.946 270.724 195.081 264.684C195.438 239.114 192.123 213.625 185.235 188.997C189.104 184.907 192.684 180.551 195.946 175.962C201.307 183.631 208.968 190.007 215.701 194.674C214.724 238.753 217.162 304.102 235.295 356.631C235.306 356.66 235.321 356.686 235.332 356.716C235.343 356.746 235.332 356.746 235.344 356.762C235.969 358.432 251.249 397.72 303.358 401.886C321.899 403.368 337.502 403.864 350.098 403.864C372.823 403.864 385.706 402.251 388.358 401.882C388.607 401.882 388.856 401.904 389.104 401.904C394.96 401.895 400.607 399.732 404.97 395.827C409.334 391.923 412.109 386.549 412.766 380.731C416.19 350.367 418.792 268.39 368.992 163.246C366.812 158.647 364.707 154.014 362.677 149.347ZM197.911 91.4219C193.704 92.8613 189.161 93.0045 184.871 91.8328C184.848 84.4029 184.816 76.9731 184.775 69.5433C186.452 69.79 188.146 69.9122 189.842 69.909C192.55 69.8931 195.252 69.6313 197.913 69.1269L197.911 91.4219ZM184.89 103.049C186.716 103.382 188.569 103.548 190.425 103.547C192.943 103.535 195.452 103.26 197.911 102.725V120.915C197.911 121.915 197.947 122.911 197.998 123.905C193.748 125.374 189.153 125.52 184.819 124.324C184.875 118.59 184.895 111.259 184.89 103.049ZM190.745 40.8621C193.146 40.8578 195.542 40.6595 197.911 40.269V57.9281C193.603 59.0938 189.084 59.2448 184.708 58.3691C184.667 52.1431 184.623 46.0787 184.58 40.4074C186.621 40.7116 188.681 40.8636 190.745 40.8621ZM104.09 272.728C133.782 272.728 157.404 268.367 174.3 259.764C175.572 259.091 176.529 257.946 176.963 256.575C177.397 255.203 177.275 253.716 176.622 252.434C175.969 251.152 174.839 250.179 173.474 249.723C172.109 249.268 170.62 249.368 169.329 250.001C158.783 255.37 138.901 261.771 104.09 261.771C43.7707 261.771 23.5328 233.601 19.505 226.749L23.3931 207.329C37.9734 142.783 64.0525 97.5014 105.466 64.8265C109.288 61.7825 114.075 60.2099 118.958 60.3941C123.84 60.5783 128.495 62.5071 132.077 65.8304C142.088 75.3584 153.768 92.6121 154.62 121.585C152.317 118.038 149.837 114.61 147.189 111.313C146.255 110.214 144.925 109.528 143.488 109.403C142.051 109.279 140.623 109.726 139.514 110.647C138.404 111.569 137.703 112.891 137.562 114.327C137.422 115.762 137.853 117.195 138.762 118.315C146.769 128.682 153.533 139.951 158.916 151.893C159.709 153.986 160.61 156.035 161.616 158.034C170.244 175.017 184.634 211.502 184.124 265.027C184.024 278.344 180.731 291.442 174.522 303.224C173.225 305.658 171.837 308.043 170.361 310.373C158.475 328.918 141.418 343.577 121.296 352.54C102.544 361.044 87.0021 365.733 77.3043 365.941C32.424 338.802 16.3057 268.926 14.5253 260.576C15.256 254.217 16.091 247.87 17.0302 241.539C28.5728 254.246 53.9794 272.726 104.09 272.726V272.728ZM30.2834 397.1C21.2005 387.401 7.45287 360.955 11.7725 290.985C20.8115 316.926 38.3076 353.685 68.9856 373.659C65.9945 380.398 58.9386 393.791 48.1273 399.418C46.9276 399.908 45.7539 400.407 44.6062 400.917C42.1026 401.705 39.4265 401.765 36.8903 401.089C34.3542 400.413 32.0626 399.029 30.2834 397.1ZM173.043 359.532C167.23 369.054 158.01 376.007 147.257 378.979C136.673 382.032 116.28 387.318 98.6297 388.429C89.3897 388.96 80.2064 390.223 71.166 392.205C74.4669 387.366 77.2804 382.213 79.5655 376.819C90.8944 376.109 106.425 371.308 125.821 362.51C132.665 359.409 139.227 355.718 145.431 351.479C152.956 349.324 160.778 348.399 168.598 348.739C169.317 348.782 170.039 348.681 170.719 348.444C171.4 348.207 172.028 347.837 172.566 347.357C173.104 346.877 173.542 346.295 173.854 345.645C174.167 344.995 174.348 344.29 174.387 343.57C174.427 342.85 174.323 342.129 174.084 341.449C173.844 340.769 173.472 340.143 172.99 339.607C172.508 339.071 171.924 338.635 171.273 338.325C170.622 338.015 169.916 337.836 169.196 337.799C166.85 337.674 164.5 337.664 162.154 337.767C168.79 331.292 174.651 324.068 179.62 316.24C181.242 313.678 182.768 311.055 184.194 308.379C184.827 307.191 185.427 305.983 186.002 304.767C185.351 323.033 182.262 344.128 173.043 359.532ZM201.474 163.373C201.1 162.411 200.462 161.574 199.633 160.959C198.804 160.344 197.818 159.975 196.789 159.896C195.76 159.816 194.729 160.029 193.816 160.51C192.903 160.991 192.144 161.72 191.627 162.613C188.585 167.615 185.164 172.377 181.395 176.856C179.444 171.223 177.245 165.679 174.804 160.239C180.018 152.913 183.289 144.384 184.31 135.45C186.323 135.858 188.372 136.062 190.425 136.057C193.526 136.039 196.611 135.629 199.608 134.837C201.364 142.05 204.59 148.822 209.084 154.731C211.412 157.781 214.097 160.54 217.084 162.948C216.742 168.146 216.399 174.324 216.117 181.3C210.321 176.559 204.162 170.285 201.474 163.373ZM304.229 390.966C266.922 387.983 251.534 364.714 247.07 356.08C252.527 351.985 268.663 344.942 301.183 367.448L301.32 367.545C317.106 377.5 333.775 385.982 351.115 392.882C338.585 392.917 322.903 392.458 304.229 390.966ZM401.878 379.501C401.513 382.775 399.907 385.784 397.39 387.91C394.874 390.035 391.638 391.115 388.35 390.927C355.657 389.05 309.356 359.681 307.338 358.389C273.385 334.917 253.005 339.741 243.203 345.557C220.472 271.935 227.115 173.55 228.731 154.012C228.848 152.59 228.892 151.151 228.9 149.706C236.095 145.792 249.875 133.888 252.921 99.4571C252.998 98.7334 252.93 98.0017 252.721 97.3046C252.511 96.6076 252.165 95.9592 251.703 95.3973C251.24 94.8354 250.671 94.3713 250.027 94.0322C249.383 93.693 248.678 93.4855 247.953 93.4218C247.228 93.3581 246.497 93.4395 245.804 93.6612C245.111 93.8829 244.469 94.2406 243.916 94.7132C243.362 95.1858 242.909 95.764 242.581 96.4139C242.254 97.0638 242.059 97.7724 242.008 98.4984C239.992 121.271 233.071 131.99 227.934 136.905C224.93 102.666 234.421 83.4566 243.185 73.2685C246.336 69.5892 250.458 66.8692 255.08 65.4185C259.702 63.9678 264.638 63.8448 269.327 65.0635C316.148 76.9786 344.926 135.927 352.625 153.708C354.701 158.489 356.856 163.234 359.09 167.943C407.69 270.538 405.203 350.068 401.879 379.501H401.878Z" fill="black"/>
<path d="M299.944 237.718C293.502 227.136 286.303 217.033 278.405 207.489C283.619 207.44 288.76 206.257 293.47 204.021C295.748 203.611 307.342 202.438 316.25 218.582C328.22 240.28 345.533 241.807 350.167 241.807C350.811 241.807 351.211 241.779 351.316 241.769C352.749 241.646 354.076 240.961 355.006 239.864C355.937 238.766 356.395 237.346 356.282 235.911C356.17 234.471 355.495 233.132 354.404 232.184C353.313 231.236 351.893 230.755 350.451 230.844C349.992 230.865 341.395 231.267 332.859 222.78C339.971 222.07 346.615 218.906 351.648 213.83C352.164 213.329 352.577 212.732 352.863 212.071C353.148 211.411 353.301 210.701 353.312 209.981C353.323 209.262 353.192 208.548 352.927 207.879C352.662 207.21 352.268 206.6 351.767 206.083C351.267 205.567 350.669 205.154 350.009 204.868C349.348 204.583 348.638 204.43 347.919 204.419C347.199 204.408 346.485 204.538 345.816 204.803C345.147 205.068 344.537 205.463 344.021 205.963C341.556 208.471 338.478 210.29 335.091 211.237C331.705 212.184 328.13 212.226 324.722 211.361C318.5 201.041 311.135 196.333 304.799 194.307C305.735 192.989 306.577 191.606 307.319 190.17C307.426 189.983 307.521 189.79 307.605 189.592C310.988 182.791 312.728 174.18 312.823 163.761C317.107 162.836 321.141 160.997 324.649 158.37C328.156 155.742 331.055 152.388 333.146 148.537C333.784 147.231 333.878 145.726 333.406 144.351C332.934 142.977 331.936 141.846 330.63 141.208C329.325 140.57 327.819 140.476 326.445 140.948C325.071 141.42 323.94 142.419 323.302 143.724C320.885 147.935 316.975 151.084 312.345 152.547C312.085 149.617 311.732 146.589 311.261 143.436C311.046 141.999 310.269 140.707 309.101 139.843C307.932 138.979 306.469 138.614 305.032 138.829C303.595 139.044 302.302 139.821 301.438 140.989C300.574 142.157 300.21 143.621 300.425 145.058C301.75 153.101 302.147 161.27 301.607 169.403C299.017 166.167 296.118 163.191 292.95 160.519C290.759 158.686 288.732 156.665 286.892 154.48C285.606 152.856 284.732 150.945 284.344 148.909C283.955 146.874 284.064 144.775 284.661 142.791C285.152 141.443 285.093 139.956 284.499 138.65C283.904 137.344 282.821 136.323 281.482 135.808C280.143 135.292 278.655 135.322 277.338 135.892C276.021 136.461 274.98 137.525 274.439 138.854C273.171 142.597 272.853 146.597 273.514 150.493C274.174 154.39 275.792 158.061 278.223 161.178C280.463 163.902 282.948 166.415 285.647 168.684C291.175 173.625 295.989 177.937 297.026 186.128C295.837 188.249 294.284 190.144 292.438 191.726C283.901 198.86 271.246 196.237 267.402 195.21C261.484 189.039 255.092 183.34 248.286 178.164C247.123 177.293 245.661 176.92 244.223 177.127C242.784 177.334 241.487 178.103 240.616 179.267C239.746 180.43 239.372 181.891 239.579 183.33C239.786 184.768 240.556 186.065 241.719 186.936C251.58 194.332 271.063 211.496 290.63 243.476C293.476 248.131 295.027 253.462 295.123 258.918C295.22 264.374 293.858 269.756 291.178 274.51C284.864 285.864 276.071 295.648 265.452 303.133C264.262 303.968 263.453 305.24 263.201 306.672C262.95 308.103 263.277 309.575 264.112 310.765C264.946 311.955 266.219 312.765 267.65 313.016C269.081 313.267 270.554 312.94 271.744 312.105C275.055 309.773 278.214 307.232 281.202 304.497C282.314 309.59 284.246 314.467 286.924 318.939C287.289 319.568 287.776 320.118 288.355 320.557C288.935 320.995 289.597 321.314 290.301 321.495C291.005 321.675 291.738 321.714 292.458 321.608C293.177 321.502 293.868 321.254 294.491 320.879C295.113 320.503 295.655 320.007 296.084 319.42C296.513 318.833 296.821 318.167 296.99 317.46C297.158 316.752 297.185 316.018 297.067 315.301C296.949 314.583 296.69 313.897 296.304 313.28C292.898 307.49 291.058 300.913 290.963 294.196C294.617 289.717 297.881 284.933 300.719 279.897C301.905 277.782 302.902 275.567 303.699 273.277C305.042 279.479 305.73 285.805 305.754 292.151C305.754 293.604 306.331 294.997 307.358 296.025C308.386 297.052 309.779 297.629 311.232 297.629C312.685 297.629 314.078 297.052 315.106 296.025C316.133 294.997 316.71 293.604 316.71 292.151C316.681 284.012 315.691 275.905 313.762 267.999C321.099 273.907 329.005 279.071 337.364 283.415C336.04 291.524 335.691 299.762 336.325 307.954C336.41 309.346 337.022 310.652 338.037 311.608C339.052 312.564 340.393 313.097 341.787 313.098C341.899 313.098 342.013 313.098 342.126 313.087C343.576 312.998 344.932 312.337 345.894 311.249C346.857 310.162 347.348 308.736 347.26 307.286C346.778 300.717 346.955 294.117 347.787 287.583C351.401 288.802 356.316 290.502 361.396 292.377C362.75 292.847 364.235 292.768 365.531 292.156C366.827 291.545 367.832 290.449 368.33 289.105C368.828 287.761 368.78 286.275 368.195 284.967C367.61 283.658 366.536 282.631 365.202 282.105C358.763 279.735 352.279 277.487 345.754 275.363C314.592 260.211 300.287 238.252 299.944 237.718Z" fill="black"/>
</svg>
