<svg width="294" height="512" viewBox="0 0 294 512" fill="none" xmlns="http://www.w3.org/2000/svg">
<path d="M147.027 88.6094C157.846 88.6094 166.617 79.8384 166.617 69.0155C166.617 58.1977 157.846 49.4237 147.027 49.4237C136.205 49.4237 127.434 58.1977 127.434 69.0155C127.458 79.8263 136.212 88.5852 147.027 88.6094ZM147.027 57.5285C151.693 57.5285 155.901 60.3403 157.68 64.6537C158.551 66.7627 158.778 69.0829 158.33 71.3205C157.882 73.5582 156.781 75.6127 155.165 77.2242C153.549 78.8352 151.491 79.9301 149.252 80.3702C147.013 80.8103 144.693 80.5758 142.588 79.6963C140.481 78.8181 138.683 77.3342 137.42 75.4327C136.158 73.5313 135.489 71.2979 135.497 69.0155C135.52 62.6663 140.674 57.5285 147.027 57.5285ZM180.124 84.8583L179.518 84.3776C179.076 84.0867 178.583 83.8809 178.065 83.7709C177.418 83.6416 176.749 83.673 176.117 83.8624C175.485 84.0518 174.909 84.3934 174.44 84.8573C174.062 85.2323 173.763 85.6782 173.558 86.1694C173.354 86.6606 173.248 87.1874 173.248 87.7195C173.248 88.2516 173.354 88.7784 173.558 89.2696C173.763 89.7608 174.062 90.2067 174.44 90.5817C174.816 90.9559 175.263 91.2519 175.754 91.4525C176.245 91.6532 176.771 91.7545 177.302 91.7507C177.962 91.7482 178.612 91.5831 179.193 91.2701C179.775 90.9571 180.27 90.5057 180.636 89.9558C181.001 89.4064 181.227 88.7756 181.292 88.1188C181.357 87.462 181.26 86.7992 181.01 86.1886C180.788 85.7 180.489 85.2507 180.124 84.8583ZM175.77 104.21H118.363C116.135 104.21 114.332 106.014 114.332 108.242V135.933C114.332 138.16 116.135 139.964 118.363 139.964H175.768C176.837 139.964 177.862 139.54 178.618 138.784C179.374 138.028 179.799 137.002 179.799 135.933V108.242C179.799 107.172 179.374 106.147 178.618 105.391C177.862 104.635 176.837 104.21 175.768 104.21H175.77ZM171.739 131.902H122.394V112.273H171.737L171.739 131.902ZM213.744 142.626V133.072C213.744 132.003 213.32 130.977 212.564 130.221C211.808 129.465 210.782 129.041 209.713 129.041C208.644 129.041 207.618 129.465 206.862 130.221C206.106 130.977 205.682 132.003 205.682 133.072V142.626C205.682 143.695 206.106 144.721 206.862 145.477C207.618 146.233 208.644 146.657 209.713 146.657C210.782 146.657 211.808 146.233 212.564 145.477C213.32 144.721 213.744 143.695 213.744 142.626ZM88.0078 126.06V116.465C88.0078 115.396 87.5831 114.371 86.8271 113.615C86.0711 112.859 85.0457 112.434 83.9766 112.434C82.9074 112.434 81.882 112.859 81.126 113.615C80.37 114.371 79.9453 115.396 79.9453 116.465V126.06C79.9453 127.129 80.37 128.154 81.126 128.91C81.882 129.666 82.9074 130.091 83.9766 130.091C85.0457 130.091 86.0711 129.666 86.8271 128.91C87.5831 128.154 88.0078 127.129 88.0078 126.06Z" fill="black"/>
<path d="M2.54457 468.633C3.02026 468.825 3.52416 468.925 4.03613 468.916C4.83653 468.908 5.61655 468.663 6.27698 468.21C6.93741 467.758 7.44837 467.12 7.74487 466.376L117.556 190.84H129.894V468.673C129.87 468.89 129.87 469.106 129.894 469.318C129.873 469.519 129.873 469.724 129.894 469.925L142.995 509.229C143.259 510.037 143.771 510.74 144.459 511.238C145.147 511.737 145.974 512.005 146.824 512.005C147.673 512.005 148.501 511.737 149.188 511.238C149.876 510.74 150.388 510.037 150.652 509.229L163.754 469.965C163.774 469.751 163.774 469.536 163.754 469.319C163.774 469.106 163.774 468.89 163.754 468.674V190.84H176.092L285.901 466.376C286.3 467.368 287.075 468.162 288.058 468.585C289.04 469.007 290.149 469.024 291.144 468.632C292.132 468.229 292.92 467.452 293.335 466.469C293.751 465.487 293.76 464.38 293.361 463.391L183.308 186.044V158.751H194.273C195.343 158.751 196.368 158.326 197.124 157.57C197.88 156.814 198.305 155.789 198.305 154.72V33.9871C198.305 32.918 197.88 31.8926 197.124 31.1366C196.368 30.3806 195.343 29.9559 194.273 29.9559H185.042L181.011 6.73291C180.693 4.83268 179.705 3.10914 178.226 1.87426C176.747 0.639377 174.875 -0.0252313 172.948 0.000732958H121.265C119.338 -0.0252313 117.466 0.639377 115.987 1.87426C114.508 3.10914 113.52 4.83268 113.202 6.73291L109.171 29.9559H99.8608C97.6325 29.9559 95.8295 31.7589 95.8295 33.9871V154.924C95.8295 155.994 96.2542 157.019 97.0102 157.775C97.7663 158.531 98.7916 158.956 99.8608 158.956H110.745V186.244L0.288083 463.392C0.0912489 463.884 -0.00653411 464.41 0.000338706 464.94C0.00721153 465.47 0.118605 465.994 0.328135 466.48C0.537665 466.967 0.841212 467.408 1.22138 467.777C1.60154 468.147 2.05186 468.437 2.54457 468.633ZM147.026 495.198L139.488 472.704H154.562L147.026 495.198ZM156.097 464.642H137.956V274.327H156.097V464.642ZM156.097 266.264H137.956V190.84H156.097V266.264ZM175.245 182.777H118.808V158.59H175.245V182.777ZM121.265 8.06322H172.946L176.977 29.8722H117.274L121.265 8.06322ZM103.892 150.689V38.0184H190.201V150.893L103.892 150.689Z" fill="black"/>
</svg>
