<svg width="223" height="223" viewBox="0 0 223 223" fill="none" xmlns="http://www.w3.org/2000/svg">
<path d="M142.079 36.8734C142.08 36.5621 141.966 36.2616 141.758 36.0293C141.551 35.797 141.265 35.6493 140.956 35.6144C140.647 35.5795 140.335 35.6599 140.082 35.8402C139.828 36.0205 139.649 36.288 139.581 36.5916C139.331 36.7535 138.589 37.0419 137.403 37.0419C136.217 37.0419 135.475 36.7535 135.225 36.5916C135.156 36.2888 134.977 36.0224 134.723 35.8429C134.47 35.6635 134.159 35.5835 133.85 35.6184C133.542 35.6532 133.257 35.8003 133.049 36.0318C132.842 36.2632 132.727 36.5628 132.727 36.8734C132.727 38.4624 134.65 39.5722 137.402 39.5722C140.156 39.5722 142.079 38.4624 142.079 36.8734ZM133.384 30.7912C133.384 30.4572 133.248 30.1333 133.01 29.8955C132.545 29.4248 131.694 29.4248 131.224 29.8955C130.987 30.1335 130.854 30.4555 130.854 30.7912C130.854 31.1268 130.987 31.4489 131.224 31.6869C131.457 31.9197 131.786 32.0563 132.12 32.0563C132.455 32.0548 132.776 31.9211 133.013 31.6841C133.249 31.4471 133.383 31.1262 133.384 30.7912ZM142.691 32.0563C143.025 32.0563 143.349 31.9197 143.582 31.6818C143.82 31.449 143.956 31.1252 143.956 30.7912C143.956 30.4572 143.819 30.1333 143.582 29.8955C143.111 29.4248 142.266 29.4248 141.796 29.8955C141.619 30.0728 141.499 30.2983 141.451 30.5437C141.402 30.7891 141.428 31.0433 141.523 31.2744C141.619 31.5054 141.781 31.703 141.989 31.8421C142.197 31.9813 142.441 32.0558 142.691 32.0563ZM116.166 67.8834C115.875 67.8206 115.572 67.862 115.309 68.0003C115.046 68.1387 114.84 68.3651 114.727 68.6401C114.615 68.915 114.602 69.2209 114.692 69.5041C114.782 69.7872 114.969 70.0297 115.22 70.189C115.392 70.2983 115.723 70.4582 116.176 70.4582C116.577 70.4582 117.074 70.3327 117.644 69.9364C118.201 69.5483 118.754 68.9461 119.201 68.2402C120.409 66.3318 120.432 64.5505 119.259 63.8086C119.008 63.6497 118.709 63.5843 118.415 63.6238C118.12 63.6634 117.849 63.8053 117.649 64.0248C117.448 64.2443 117.332 64.5273 117.319 64.8242C117.306 65.1212 117.399 65.413 117.58 65.6487C117.547 65.882 117.408 66.3409 117.063 66.8865C116.718 67.4325 116.362 67.7538 116.166 67.8834ZM115.536 62.581C115.872 62.5808 116.194 62.4477 116.432 62.2106C116.67 61.9735 116.805 61.6518 116.806 61.3158C116.806 60.9818 116.669 60.658 116.432 60.4201C115.961 59.9495 115.116 59.9495 114.64 60.4201C114.407 60.658 114.271 60.9818 114.271 61.3158C114.271 61.6498 114.408 61.9737 114.64 62.2115C114.879 62.4448 115.207 62.581 115.536 62.581ZM111.377 69.1551C111.71 69.1551 112.035 69.0185 112.272 68.7857C112.505 68.5478 112.642 68.224 112.642 67.89C112.642 67.556 112.505 67.2321 112.272 66.9943C111.797 66.5236 110.952 66.5236 110.481 66.9943C110.248 67.2321 110.112 67.556 110.112 67.89C110.112 68.224 110.244 68.5478 110.481 68.7857C110.713 69.0185 111.043 69.1551 111.377 69.1551ZM95.5129 141.438C95.5139 141.95 95.7406 142.895 97.2446 143.474C97.9748 143.756 98.9171 143.91 99.8993 143.91H99.9206C100.911 143.908 101.861 143.749 102.596 143.463C104.097 142.877 104.319 141.931 104.318 141.42C104.318 141.084 104.184 140.763 103.947 140.527C103.71 140.29 103.388 140.157 103.053 140.157H103.05C102.784 140.158 102.524 140.242 102.309 140.399C102.093 140.556 101.933 140.776 101.85 141.029C101.583 141.171 100.913 141.378 99.915 141.38C98.9358 141.373 98.2466 141.178 97.9794 141.038C97.8956 140.785 97.7343 140.566 97.5185 140.41C97.3026 140.254 97.0432 140.17 96.777 140.171H96.775C96.4395 140.171 96.1181 140.305 95.8815 140.543C95.6448 140.781 95.5122 141.103 95.5129 141.438ZM94.7017 136.172C95.0357 136.172 95.3595 136.035 95.5974 135.802C95.8302 135.565 95.9668 135.241 95.9668 134.907C95.9668 134.573 95.8302 134.249 95.5974 134.011C95.1268 133.54 94.2771 133.54 93.8059 134.011C93.5732 134.249 93.4365 134.573 93.4365 134.907C93.4365 135.241 93.5732 135.57 93.8059 135.802C94.0387 136.035 94.3677 136.172 94.7017 136.172ZM105.131 136.152C105.466 136.15 105.787 136.016 106.024 135.779C106.261 135.542 106.395 135.221 106.397 134.886C106.397 134.552 106.26 134.223 106.027 133.991C105.557 133.52 104.701 133.52 104.236 133.991C103.998 134.223 103.866 134.552 103.866 134.886C103.866 135.22 103.998 135.544 104.236 135.777C104.353 135.895 104.493 135.989 104.646 136.054C104.8 136.118 104.965 136.151 105.131 136.152ZM153.005 95.1197H153.001C152.739 95.1204 152.484 95.2022 152.271 95.354C152.058 95.5057 151.897 95.7198 151.81 95.9668C151.552 96.0949 150.933 96.2786 150.026 96.2806H150.011C149.112 96.2806 148.497 96.101 148.24 95.9744C148.152 95.7281 147.991 95.515 147.777 95.3642C147.564 95.2134 147.309 95.1324 147.047 95.1324H147.043C146.877 95.1329 146.713 95.1661 146.559 95.2302C146.406 95.2943 146.267 95.3879 146.15 95.5058C146.033 95.6236 145.94 95.7634 145.877 95.9171C145.814 96.0708 145.782 96.2354 145.782 96.4015C145.787 97.8443 147.485 98.8109 150.009 98.8109H150.032C150.98 98.8088 151.89 98.6565 152.594 98.3817C154.056 97.8114 154.272 96.8833 154.27 96.3808C154.269 96.046 154.135 95.7252 153.898 95.4888C153.661 95.2524 153.34 95.1197 153.005 95.1197ZM146.34 90.3385C146.34 90.0045 146.208 89.6806 145.97 89.4428C145.5 88.9722 144.655 88.9722 144.179 89.4428C143.946 89.6806 143.81 90.0045 143.81 90.3385C143.81 90.6674 143.947 90.9964 144.179 91.2342C144.417 91.467 144.741 91.6036 145.075 91.6036C145.409 91.6036 145.738 91.467 145.971 91.2342C146.208 90.9964 146.34 90.6669 146.34 90.3385ZM154.082 89.4428C153.844 89.6756 153.713 90.0045 153.713 90.3385C153.714 90.6736 153.848 90.9945 154.085 91.2315C154.322 91.4684 154.643 91.6022 154.978 91.6036C155.312 91.6036 155.636 91.467 155.874 91.2292C156.107 90.9964 156.243 90.6674 156.243 90.3385C156.243 90.0045 156.106 89.6806 155.874 89.4428C155.403 88.9722 154.553 88.9722 154.082 89.4428ZM45.3872 56.8023C48.1402 56.8023 50.0632 55.6926 50.0632 54.1035C50.0636 53.7922 49.9493 53.4917 49.7421 53.2594C49.5348 53.0271 49.2492 52.8794 48.9398 52.8445C48.6305 52.8096 48.3192 52.89 48.0654 53.0703C47.8116 53.2506 47.6332 53.5181 47.5643 53.8217C47.3148 53.9836 46.5724 54.2721 45.3867 54.2721C44.2011 54.2721 43.4587 53.9836 43.2092 53.8217C43.1394 53.519 42.9606 53.2525 42.7071 53.0731C42.4535 52.8936 42.1428 52.8137 41.8341 52.8485C41.5254 52.8833 41.2403 53.0304 41.033 53.2619C40.8258 53.4933 40.7109 53.7929 40.7103 54.1035C40.7113 55.6926 42.6343 56.8023 45.3872 56.8023ZM39.0459 49.4038C39.3799 49.4038 39.7043 49.2672 39.9421 49.0344C40.1799 48.7966 40.311 48.4727 40.311 48.1387C40.311 47.8047 40.1794 47.4758 39.9421 47.243C39.471 46.7723 38.6213 46.7723 38.1507 47.243C37.9149 47.4816 37.7823 47.8033 37.7812 48.1387C37.7827 48.4737 37.9164 48.7946 38.1532 49.0315C38.3901 49.2684 38.7109 49.4022 39.0459 49.4038ZM51.7281 49.4038C52.0632 49.4024 52.3841 49.2686 52.6211 49.0317C52.858 48.7947 52.9918 48.4738 52.9932 48.1387C52.9932 47.8047 52.8561 47.4758 52.6233 47.243C52.1527 46.7723 51.2974 46.7723 50.8319 47.243C50.5963 47.4817 50.4639 47.8033 50.463 48.1387C50.4638 48.474 50.5973 48.7953 50.8344 49.0324C51.0715 49.2695 51.3928 49.403 51.7281 49.4038ZM183.177 53.2792C183.177 53.0178 183.096 52.7629 182.945 52.5493C182.795 52.3357 182.582 52.1739 182.336 52.0863C182.089 51.9987 181.822 51.9894 181.57 52.0599C181.319 52.1303 181.095 52.2769 180.93 52.4796C180.578 52.5839 179.739 52.7306 178.5 52.7306C177.261 52.7306 176.422 52.5839 176.07 52.4796C175.905 52.2771 175.681 52.1307 175.43 52.0604C175.178 51.9901 174.911 51.9994 174.665 52.087C174.419 52.1746 174.206 52.3362 174.055 52.5497C173.905 52.7631 173.824 53.018 173.824 53.2792C173.824 53.7695 173.824 55.2614 178.5 55.2614C183.176 55.2614 183.177 53.7695 183.177 53.2792ZM173.817 37.587H183.186C183.521 37.587 183.843 37.4537 184.08 37.2164C184.318 36.9792 184.451 36.6574 184.451 36.3218C184.451 35.9863 184.318 35.6645 184.08 35.4272C183.843 35.19 183.521 35.0567 183.186 35.0567H173.817C173.481 35.0567 173.159 35.19 172.922 35.4272C172.685 35.6645 172.551 35.9863 172.551 36.3218C172.551 36.6574 172.685 36.9792 172.922 37.2164C173.159 37.4537 173.481 37.587 173.817 37.587ZM175.878 33.4844H181.125C181.461 33.4844 181.782 33.3511 182.02 33.1138C182.257 32.8766 182.39 32.5548 182.39 32.2193C182.39 31.8837 182.257 31.5619 182.02 31.3247C181.782 31.0874 181.461 30.9541 181.125 30.9541H175.878C175.542 30.9541 175.22 31.0874 174.983 31.3247C174.746 31.5619 174.613 31.8837 174.613 32.2193C174.613 32.5548 174.746 32.8766 174.983 33.1138C175.22 33.3511 175.542 33.4844 175.878 33.4844ZM171.394 45.8969C171.644 45.8965 171.889 45.822 172.097 45.6829C172.305 45.5438 172.467 45.3462 172.562 45.1152C172.658 44.8841 172.684 44.6298 172.635 44.3844C172.587 44.139 172.467 43.9134 172.29 43.736C171.819 43.2654 170.974 43.2654 170.499 43.736C170.266 43.9688 170.129 44.2977 170.129 44.6267C170.13 44.9625 170.263 45.2847 170.5 45.5227C170.737 45.7608 171.058 45.8953 171.394 45.8969ZM185.604 45.8969C185.938 45.8969 186.267 45.7602 186.5 45.5224C186.738 45.2896 186.874 44.9607 186.874 44.6317C186.874 44.2977 186.738 43.9688 186.5 43.736C186.029 43.2654 185.184 43.2654 184.714 43.736C184.476 43.9688 184.339 44.2977 184.339 44.6317C184.339 44.9607 184.476 45.2896 184.714 45.5224C184.947 45.7602 185.275 45.8969 185.604 45.8969Z" fill="black"/>
<path d="M217.026 132.344L216.819 130.821L217.516 126.224C217.522 126.182 207.42 75.7633 207.42 75.7633C207.31 74.815 206.068 66.6979 195.649 64.0457L185.77 60.7335V58.6283C189.629 56.2742 192.05 52.0001 192.05 46.7963V46.5144C192.616 46.2037 193.311 45.6622 193.879 44.7266C195.263 42.4463 195.24 38.9469 193.809 34.3241C192.178 29.0525 187.904 26.2358 183.299 27.2925C181.875 26.5157 180.247 26.0987 178.447 26.0987C176.647 26.0987 175.02 26.5157 173.595 27.292C168.993 26.2353 164.717 29.0525 163.086 34.3236C161.655 38.9459 161.632 42.4458 163.016 44.726C163.584 45.6622 164.279 46.2032 164.845 46.5139V46.7958C164.845 52.0001 167.266 56.2747 171.126 58.6289V60.7335L164.25 63.0391C163.318 60.2325 160.2 53.1554 152.038 51.2364L143.775 49.2537V46.3201C148.938 46.0777 152.66 44.3298 154.842 41.1088C159.182 34.7031 155.761 24.787 155.131 23.1059C155.083 18.6096 153.65 14.9782 150.871 12.3103C145.824 7.46429 138.141 7.56297 137.353 7.58423C136.614 7.56146 128.893 7.44557 123.827 12.3103C121.048 14.9787 119.615 18.6096 119.567 23.1059C118.937 24.787 115.516 34.7031 119.856 41.1088C122.039 44.3303 125.76 46.0782 130.923 46.3201V49.2537L122.666 51.2349C121.727 51.457 120.81 51.7636 119.926 52.1509C119.211 50.7373 118.287 49.4394 117.186 48.3008C117.112 48.1978 117.024 48.1066 116.923 48.0301C115.051 46.1784 112.369 44.43 108.529 43.4123L98.2215 38.4545V36.4996C100.222 34.3798 101.578 31.1967 102.426 26.7981C104.136 25.8568 107.431 22.443 105.489 10.3124C104.62 4.87937 102.732 0.00101211 89.3747 0H89.3691C76.0103 0.00101211 74.1237 4.87937 73.2538 10.3134C71.3121 22.4435 74.607 25.8568 76.317 26.7986C77.1651 31.1972 78.5208 34.3803 80.5212 36.5001V38.455L70.2139 43.4128C58.8434 46.4244 57.5297 55.5343 57.4194 56.5313L55.4357 66.6488L51.7602 65.7667V60.5068C55.1118 57.9001 57.342 53.3219 57.342 48.1161C57.342 48.1161 57.3374 39.6022 57.3364 39.5845C57.3192 35.9875 55.5738 32.8429 52.8183 30.8172C53.201 29.8634 53.398 28.8454 53.3988 27.8178C53.3988 23.3706 49.7815 19.7528 45.3343 19.7528C40.8871 19.7528 37.2688 23.3706 37.2688 27.8178C37.2688 28.8501 37.4692 29.8678 37.8503 30.8177C35.0984 32.8414 33.3545 35.9804 33.3333 39.5714C33.3317 39.5936 33.3262 48.1161 33.3262 48.1161C33.3262 53.3214 35.5558 57.8986 38.9069 60.5058V65.7667L30.6502 67.7479C20.6101 70.1082 18.2002 80.2642 18.101 80.7014L6.66928 132.315C6.5205 132.305 6.37223 132.293 6.22092 132.293C2.79089 132.293 0 135.083 0 138.513V221.298C0 221.633 0.133291 221.955 0.370549 222.192C0.607808 222.43 0.9296 222.563 1.26513 222.563C1.60067 222.563 1.92246 222.43 2.15972 222.192C2.39698 221.955 2.53027 221.633 2.53027 221.298V138.513C2.53027 136.515 4.12788 134.886 6.11262 134.828L5.81506 136.17C5.65297 136.878 5.63297 137.611 5.75624 138.327C5.8795 139.042 6.14358 139.726 6.53315 140.339C6.91939 140.954 7.42373 141.487 8.017 141.906C8.61026 142.324 9.28069 142.621 9.9895 142.78C10.6975 142.941 11.4307 142.961 12.1464 142.838C12.8622 142.715 13.5464 142.45 14.1594 142.061C15.3902 141.288 16.2646 140.058 16.591 138.642L28.502 97.0449C29.3754 99.1678 29.8567 100.842 28.6178 102.959C22.0366 114.208 22.2274 124.032 22.2876 125.374C22.0619 126.912 20.5908 139.452 26.419 174.053C26.4686 174.348 26.6211 174.615 26.8495 174.809C27.0779 175.002 27.3673 175.108 27.6665 175.108H31.1759C31.9492 184.743 33.4001 198.743 36.0209 213.294C33.6005 213.932 30.3845 216.048 29.7646 221.144C29.7429 221.322 29.7593 221.502 29.8125 221.673C29.8657 221.844 29.9546 222.002 30.0732 222.136C30.1919 222.27 30.3377 222.377 30.5009 222.451C30.6641 222.524 30.8411 222.562 31.0201 222.562H59.6486C59.8275 222.562 60.0045 222.524 60.1676 222.451C60.3308 222.377 60.4766 222.27 60.5952 222.136C60.7139 222.002 60.8027 221.844 60.856 221.673C60.9092 221.502 60.9256 221.322 60.9041 221.144C60.2837 216.048 57.0682 213.933 54.6477 213.294C57.2691 198.743 58.7194 184.743 59.4927 175.108H63.0022C63.3013 175.108 63.5908 175.002 63.8191 174.809C64.0475 174.615 64.2 174.348 64.2496 174.053C70.0798 139.434 68.6047 126.899 68.38 125.371C68.4326 124.192 68.5789 116.577 64.2562 107.192L64.5011 106.029L68.8987 121.007V212.2C68.2338 212.559 67.631 213.022 67.1134 213.572C64.3351 216.516 64.5699 221.174 64.5811 221.371C64.5997 221.693 64.7408 221.996 64.9757 222.218C65.2105 222.439 65.5212 222.563 65.8442 222.563H114.831C115.159 222.563 115.475 222.435 115.711 222.207C115.947 221.979 116.085 221.668 116.096 221.34C116.1 221.213 116.177 218.209 114.218 216.184C113.787 215.737 113.283 215.367 112.729 215.089C112.284 214.312 111.749 213.642 111.119 213.094L111.878 203.409H112.446C112.782 203.409 113.103 203.276 113.341 203.039C113.578 202.801 113.711 202.48 113.711 202.144V169.261L113.964 169.738C114.11 170.012 114.352 170.224 114.643 170.331C114.935 170.439 115.256 170.435 115.545 170.321L115.681 170.268L121.717 184.017C122.107 185.128 123.128 185.852 124.377 186.047C125.37 194.347 126.663 202.861 128.229 211.378C128.068 212.35 127.024 217.369 122.374 220.22C122.139 220.364 121.958 220.581 121.857 220.837C121.757 221.094 121.743 221.377 121.817 221.642C121.892 221.908 122.052 222.141 122.272 222.308C122.491 222.474 122.76 222.564 123.035 222.564H174.467C174.803 222.564 175.124 222.431 175.362 222.193C175.599 221.956 175.732 221.634 175.732 221.299V214.819H175.985C176.314 214.819 176.629 214.692 176.865 214.464C177.101 214.235 177.239 213.924 177.25 213.596L178.448 177.508L179.646 213.596C179.656 213.924 179.794 214.235 180.03 214.464C180.266 214.692 180.582 214.819 180.91 214.819H181.163V221.299C181.163 221.634 181.296 221.956 181.534 222.193C181.771 222.431 182.093 222.564 182.428 222.564H199.656C199.979 222.564 200.289 222.441 200.524 222.22C200.759 221.998 200.9 221.696 200.919 221.374C200.929 221.2 201.143 217.084 198.644 214.433C198.167 213.926 197.612 213.499 196.999 213.168V132.063C197.073 131.712 197.142 131.358 197.21 131.001L197.212 130.99C198.516 124.081 198.759 115.971 198.571 108.678C198.571 108.678 202.3 126.679 202.338 126.737L205.33 131.245L206.29 135.572C206.68 138.268 209.053 140.233 211.769 140.233C212.005 140.233 212.242 140.218 212.482 140.188C213.972 139.999 215.291 139.248 216.195 138.073C216.883 137.184 217.271 136.099 217.303 134.976C218.833 135.426 219.954 136.841 219.954 138.514V221.299C219.954 221.634 220.088 221.956 220.325 222.193C220.562 222.431 220.884 222.564 221.219 222.564C221.555 222.564 221.877 222.431 222.114 222.193C222.351 221.956 222.484 221.634 222.484 221.299V138.513C222.486 135.341 220.097 132.721 217.026 132.344ZM207.194 129.475L205.751 127.301H214.794L214.465 129.475H207.194ZM189.182 64.5461L188.906 70.7251L183.274 68.2297L185.804 63.4136L189.182 64.5461ZM182.388 77.2658L181.561 74.148L183.649 71.1633L186.425 72.3935C186.039 73.6819 185 76.0128 182.388 77.2658ZM178.449 78.1119C177.942 78.1069 177.436 78.0668 176.934 77.992L177.683 75.1687H179.214L179.963 77.992C179.462 78.0668 178.956 78.1069 178.449 78.1119ZM170.472 72.3935L173.248 71.1633L175.336 74.148L174.509 77.2658C171.897 76.0128 170.858 73.6819 170.472 72.3935ZM181.292 70.1183L179.529 72.6385H177.369L175.606 70.1183H181.292ZM178.448 28.6295C184.359 28.6295 186.731 34.1627 187.035 39.7541H180.322C180.013 39.7547 179.714 39.869 179.484 40.0754C179.253 40.2817 179.107 40.5655 179.072 40.8729H177.824C177.789 40.5655 177.643 40.2816 177.412 40.0752C177.182 39.8689 176.883 39.7546 176.574 39.7541H169.86C170.165 34.1622 172.537 28.6295 178.448 28.6295ZM167.376 44.2797V42.2838H175.309V44.2797C175.308 44.9552 175.04 45.6028 174.562 46.0805C174.084 46.5582 173.437 46.8269 172.761 46.8277H169.925C169.249 46.8271 168.601 46.5585 168.123 46.0808C167.646 45.6031 167.377 44.9554 167.376 44.2797ZM177.109 46.8899C177.586 46.1029 177.839 45.2001 177.839 44.2797V43.4027H179.057V44.2797C179.057 45.2356 179.327 46.1273 179.788 46.8914V47.3196C179.787 47.6748 179.646 48.0154 179.395 48.2665C179.144 48.5176 178.803 48.6588 178.448 48.6591C178.093 48.6586 177.752 48.5172 177.501 48.2661C177.25 48.015 177.109 47.6746 177.109 47.3196V46.8899ZM181.587 44.2797V42.2838H189.52V44.2797C189.519 44.9552 189.251 45.6028 188.773 46.0805C188.295 46.5582 187.648 46.8269 186.972 46.8277H184.136C183.46 46.8271 182.812 46.5585 182.334 46.0808C181.857 45.6031 181.588 44.9554 181.587 44.2797ZM191.393 35.0726C192.634 39.081 192.505 41.38 192.05 42.6877V41.0192C192.05 40.6837 191.917 40.3619 191.68 40.1246C191.443 39.8874 191.121 39.7541 190.785 39.7541H189.569C189.37 35.5098 188.166 32.0474 186.179 29.6725C188.516 30.0768 190.44 31.9947 191.393 35.0726ZM165.504 35.0726C166.456 31.9942 168.38 30.0763 170.718 29.672C168.73 32.0469 167.526 35.5098 167.328 39.7541H166.111C165.776 39.7541 165.454 39.8874 165.217 40.1246C164.979 40.3619 164.846 40.6837 164.846 41.0192V42.6866C164.391 41.379 164.264 39.08 165.504 35.0726ZM167.527 48.7547C168.264 49.1514 169.088 49.3587 169.924 49.358H172.761C173.503 49.3573 174.236 49.1924 174.907 48.8752C175.508 50.236 176.867 51.1899 178.448 51.1899C180.028 51.1899 181.389 50.2365 181.989 48.8757C182.66 49.1925 183.393 49.3571 184.135 49.358H186.971C187.808 49.3587 188.632 49.1514 189.368 48.7547C188.559 54.3289 184.302 58.0768 178.447 58.0768C172.593 58.0768 168.336 54.3284 167.527 48.7547ZM178.448 60.607C180.16 60.607 181.769 60.3327 183.24 59.8216V62.8549L180.764 67.5683H176.134L173.657 62.8549V59.8216C175.128 60.3322 176.737 60.607 178.448 60.607ZM173.622 68.2297L167.991 70.7251L167.715 64.5461L171.093 63.4136L173.622 68.2297ZM161.853 63.8432L161.248 64.0462C158.832 64.6615 156.922 65.5841 155.406 66.626C155.106 66.1989 154.751 65.8127 154.351 65.4773C154.094 65.2618 153.762 65.1573 153.428 65.1868C153.093 65.2164 152.785 65.3774 152.569 65.6347C152.354 65.8919 152.249 66.2242 152.279 66.5584C152.308 66.8927 152.469 67.2015 152.727 67.417C153.003 67.6524 153.241 67.9291 153.432 68.2373C152.61 69.0374 151.89 69.936 151.288 70.9128C150.85 70.8743 150.41 70.8645 149.971 70.8835C149.551 70.8617 147.992 70.9857 146.039 71.3834C144.179 70.093 142.969 68.9625 142.626 68.4326C142.154 67.7013 141.605 67.0221 140.99 66.4064C140.965 66.3558 139.401 64.1732 138.616 63.2851V61.1374C145.096 60.7993 149.585 57.8475 150.444 53.456L151.455 53.6984C158.428 55.338 161.082 61.5012 161.853 63.8432ZM178.344 156.141C178.391 156.346 178.396 156.557 178.36 156.764C178.324 156.97 178.247 157.168 178.134 157.344C178.023 157.522 177.877 157.675 177.705 157.795C177.534 157.916 177.34 158.001 177.135 158.046C176.931 158.092 176.719 158.098 176.513 158.062C176.306 158.025 176.109 157.949 175.932 157.836C175.572 157.608 175.206 156.744 175.19 156.698C175.19 156.698 163.703 123.649 163.686 123.61L163.969 121.318L168.866 116.977L178.344 156.141ZM158.039 214.136H153.997L154.007 174.44H162.416C162.233 189.228 158.868 209.38 158.039 214.136ZM139.367 214.289C139.106 214.344 138.857 214.415 138.616 214.496V212.62H139.083C139.192 213.271 139.289 213.838 139.367 214.289ZM130.566 210.089C129.095 202.014 127.869 193.896 126.889 185.747C128.884 184.969 130.002 183.123 129.438 181.385L126.811 174.253C127.002 174.369 127.224 174.44 127.465 174.44H135.001C135.064 179.564 135.501 185.313 136.085 190.856V210.089H130.566V210.089ZM106.885 149.067V146.994C107.03 146.889 107.173 146.779 107.314 146.668V149.15L106.885 149.067ZM99.8707 152.153H99.8545C97.4705 152.153 95.5895 150.588 95.3709 150.043V148.434C96.7802 149.031 98.2908 149.36 99.8626 149.36C101.434 149.36 102.945 149.031 104.354 148.434V150.043C104.136 150.587 102.255 152.153 99.8707 152.153ZM91.7121 149.285L91.5269 145.91C91.9426 146.298 92.3815 146.66 92.8411 146.995V149.068L91.7121 149.285ZM87.8545 114.836V112.862H90.8893V114.836H87.8545ZM80.128 114.836L79.6908 112.862H85.3242V114.836H80.128ZM82.3856 136.728C82.5595 137.503 82.4187 138.316 81.994 138.988C81.5694 139.66 80.8956 140.136 80.1204 140.312C79.3386 140.489 78.5922 140.246 77.8599 139.922C76.8964 139.496 76.5244 137.996 76.5168 137.97L75.3737 134.077L81.3532 132.068L82.3856 136.728ZM74.6611 131.648L71.4067 120.566C71.3907 120.474 71.3644 120.384 71.3283 120.298L63.5067 93.6589C64.3969 90.9697 64.8351 87.6809 63.0174 83.2307L68.5622 77.4733C69.6907 79.54 70.094 81.2358 70.097 81.249L80.8031 129.584L74.6611 131.648ZM78.1888 42.385L80.6133 41.2186C80.629 41.2611 80.6397 41.3056 80.6604 41.3461L84.099 48.0503L77.7557 50.9399L78.1888 42.385ZM80.7662 11.5314C80.8203 11.4773 80.8603 11.4444 80.8861 11.4257C81.0627 11.4712 81.4499 11.6807 81.7672 11.8523C83.0824 12.5633 85.2827 13.7525 89.3681 13.7535H89.3742C93.4605 13.7525 95.6614 12.5628 96.9761 11.8523C97.2939 11.6807 97.6825 11.4702 97.8581 11.4252C97.8799 11.4399 97.9103 11.4626 97.9447 11.4955C98.3981 12.1402 98.7736 15.6755 98.5145 19.2219H80.2282C79.9697 15.6755 80.3421 12.1433 80.7662 11.5314ZM100.041 21.7522V23.3331C100.041 24.4707 98.9983 25.3958 97.7164 25.3958H95.046C93.7647 25.3958 92.7217 24.4707 92.7217 23.3331V21.7522H100.041ZM78.7025 21.7522H86.022V23.3331C86.022 24.4707 84.9791 25.3958 83.6977 25.3958H81.0273C79.7455 25.3958 78.7025 24.4707 78.7025 23.3331V21.7522ZM81.0273 27.9261H83.6977C86.3743 27.9261 88.5523 25.8659 88.5523 23.3331V21.7522H90.1914V23.3331C90.1914 25.8654 92.3695 27.9261 95.046 27.9261H97.7164C98.3932 27.9264 99.0631 27.7908 99.6865 27.5273C97.8394 35.5746 94.208 37.2962 89.3716 37.2967C84.5353 37.2962 80.9043 35.5751 79.0572 27.5273C79.6807 27.7905 80.3506 27.9261 81.0273 27.9261ZM101.928 60.7745L104.849 62.6241C104.326 64.3847 104.265 66.2498 104.67 68.0409C104.861 68.8781 105.151 69.6895 105.533 70.4584C104.722 72.1643 102.741 77.1307 103.701 83.383C103.736 83.6188 103.839 83.8394 103.995 84.0196C104.028 84.0581 105.157 85.3212 107.314 86.7543V110.332H90.6352V106.27L95.9306 99.602C96.1274 99.354 96.2241 99.0418 96.2018 98.7265L93.1736 55.7874L95.586 51.0871L101.858 53.6043C102.01 53.6655 102.17 53.6953 102.329 53.6953H102.33C101.649 54.0219 101.075 54.5331 100.671 55.1705C99.4719 57.0626 100.037 59.5767 101.928 60.7745ZM115.22 57.3991C116.782 57.3991 118.309 57.8435 119.636 58.6835C123.49 61.1237 124.641 66.245 122.2 70.0996C121.455 71.2817 120.422 72.2551 119.198 72.9282C117.974 73.6014 116.599 73.9521 115.202 73.9476H115.201C113.638 73.9476 112.111 73.5033 110.784 72.6627C109.864 72.0838 109.068 71.3281 108.442 70.4395C107.816 69.5509 107.373 68.5469 107.138 67.4858C106.897 66.426 106.868 65.3289 107.054 64.258C107.24 63.1871 107.637 62.1638 108.221 61.2472C109.746 58.8379 112.363 57.3991 115.22 57.3991ZM154.539 104.25C154.429 106.664 153.742 108.805 149.974 108.805C146.209 108.805 145.519 106.67 145.409 104.25C145.593 104.172 145.756 104.053 145.885 103.9C146.013 103.748 146.104 103.567 146.149 103.373C147.323 103.859 148.603 104.119 149.974 104.119C151.344 104.119 152.624 103.859 153.798 103.373C153.888 103.764 154.161 104.092 154.539 104.25ZM155.895 98.6734C155.812 98.7493 153.437 101.588 149.974 101.588C146.51 101.588 144.135 98.7498 144.052 98.6734C141.935 96.0409 140.946 91.9692 140.946 87.9187C140.946 87.6561 140.951 87.3995 140.957 87.1435H147.443C147.677 87.1434 147.907 87.0784 148.106 86.9558C148.305 86.8331 148.467 86.6576 148.572 86.4487L149.974 83.676L151.374 86.4487C151.48 86.6576 151.641 86.8332 151.841 86.9559C152.04 87.0786 152.27 87.1435 152.504 87.1435H158.99C158.996 87.3995 159.002 87.6566 159.002 87.9187C159.002 91.9692 158.012 96.0409 155.895 98.6734ZM109.446 85.1896C109.326 85.0767 109.186 84.9882 109.032 84.929C107.539 83.9604 106.572 83.054 106.147 82.6188C105.598 78.4925 106.497 74.9876 107.239 72.9563C107.885 73.6655 108.622 74.2859 109.431 74.8013C109.585 74.899 109.743 74.9875 109.902 75.0766C109.901 75.379 109.941 75.6802 110.021 75.9718C110.435 77.4971 111.869 78.9247 114.284 80.2141C116.007 81.1341 118.908 81.6042 121.981 81.7793L122.813 88.3595C122.738 88.3567 122.663 88.3603 122.588 88.3701C118.548 88.5761 115.23 87.8302 112.649 86.7953C112.512 86.7057 112.361 86.6435 112.2 86.6111C111.248 86.2058 110.327 85.7307 109.446 85.1896ZM122.799 73.3606L130.184 71.8763C131.281 73.6136 133.337 74.8464 135.221 75.9759C136.033 76.4627 136.813 76.9323 137.448 77.3999C137.333 77.5512 137.217 77.7 137.106 77.8564C135.62 77.9606 134.191 78.2997 132.855 78.6585C131.03 79.1493 120.07 80.2981 115.476 77.9819C114.253 77.3655 113.522 76.7476 113.068 76.2603C113.767 76.402 114.48 76.4779 115.201 76.4779H115.202C118.047 76.4848 120.779 75.3639 122.799 73.3606ZM120.774 90.8913C119.987 92.6984 119.246 94.7768 118.561 97.1006C118.174 98.4118 117.834 99.7852 117.526 101.199L113.914 89.8326C115.911 90.4262 118.204 90.8326 120.774 90.8913ZM123.592 90.8119C123.799 90.7962 127.272 90.3443 128.754 89.9845C129.913 90.5127 131.099 90.9806 132.307 91.3862C131.963 93.9104 131.789 96.6497 131.789 99.6066C131.789 99.9907 131.964 100.331 132.234 100.563C124.854 100.462 121.201 99.9659 121.051 97.6122C121.834 94.9817 122.688 92.6999 123.592 90.8119ZM132.729 88.857C132.691 88.8438 132.653 88.8291 132.614 88.8155L132.747 88.7689L132.729 88.857ZM133.42 85.9102C133.026 86.0018 132.678 86.102 132.381 86.2149C129.851 87.1723 127.502 87.7695 125.33 88.0959L124.541 81.8593C124.685 81.8603 124.828 81.8623 124.972 81.8623C128.552 81.8623 131.927 81.5288 133.512 81.1022C134.145 80.9287 134.783 80.7758 135.426 80.6437C134.624 82.2241 133.957 83.9832 133.42 85.9102ZM139.638 74.9658C139.458 75.1318 139.288 75.3119 139.113 75.4865C138.345 74.9025 137.453 74.3641 136.522 73.8059C134.246 72.4411 131.893 71.0302 131.919 69.1381C131.919 69.094 131.917 69.0499 131.913 69.006C131.912 68.9923 131.826 67.6128 132.636 66.7829C133.179 66.2262 134.07 65.9838 135.268 66.0648C135.39 66.0759 138.275 66.376 140.502 69.8096C140.963 70.5196 141.943 71.4624 143.235 72.4659C141.927 73.1296 140.717 73.9708 139.638 74.9658ZM135.353 63.5391C133.414 63.4313 131.889 63.9257 130.825 65.0168C129.312 66.5668 129.357 68.6907 129.388 69.1639C129.387 69.2626 129.399 69.3562 129.404 69.4523L124.943 70.3486C126.868 66.3472 126.107 61.606 123.182 58.3981C126.267 58.3495 130.964 59.354 135.353 63.5391ZM100.96 50.5183L94.673 47.9952L98.0833 41.3466C98.1041 41.3061 98.1142 41.2616 98.1309 41.2191L100.531 42.3734L100.96 50.5183ZM89.3686 39.8264H89.3747C91.8543 39.8259 93.9428 39.3801 95.6922 38.4439V40.463L92.1407 47.3869H86.6025L83.051 40.463V38.4439C84.8004 39.3801 86.8894 39.8259 89.3686 39.8264ZM86.104 49.9171H92.6701L93.2267 50.1403L91.1135 54.2586H87.6308L85.5357 50.1762L86.104 49.9171ZM88.0367 56.7888H90.7066L93.6422 98.4138L89.3716 103.792L85.1015 98.4138L88.0367 56.7888ZM93.4195 112.862H107.314V114.836H103.047C102.001 114.607 100.933 114.492 99.8626 114.491C98.9958 114.491 97.8875 114.57 96.6785 114.836H93.4195V112.862ZM99.8631 117.022C106.607 117.022 110.626 125.282 111.005 129.144H99.5357L96.7696 124.739L96.7661 124.741C96.6667 124.579 96.5315 124.441 96.3708 124.339C96.0867 124.161 95.7434 124.103 95.4164 124.178C95.0893 124.253 94.8054 124.454 94.627 124.738L91.8609 129.144H88.7218C89.3762 122.466 93.1184 117.022 99.8631 117.022ZM92.5603 131.674C92.9955 131.674 93.4003 131.451 93.6316 131.082L95.6978 127.79L97.764 131.082C97.8778 131.263 98.0358 131.413 98.2232 131.516C98.4105 131.62 98.6212 131.674 98.8353 131.674H111.148C111.152 131.902 111.156 132.131 111.156 132.364C111.156 140.34 106.09 146.829 99.8631 146.829C93.6356 146.829 88.57 140.34 88.57 132.364C88.57 132.131 88.5746 131.902 88.5786 131.674H92.5603ZM109.84 144.108C112.22 141.054 113.686 136.917 113.686 132.364C113.686 131.696 113.664 131.06 113.632 130.44C113.632 130.43 113.635 130.42 113.635 130.409C113.635 130.368 113.627 130.33 113.624 130.29C113.318 124.851 111.814 121.255 109.845 118.897V88.2204C110.185 88.3914 110.537 88.5594 110.907 88.7234L116.565 106.526C114.279 122.083 115.542 141.045 116.534 151.213C115.412 150.733 114.041 150.337 112.363 150.122L109.845 149.637V144.141C109.844 144.13 109.841 144.119 109.84 144.108ZM119.242 152.855C118.247 143.375 116.644 122.96 119.097 106.644C119.106 106.597 119.114 106.55 119.118 106.501C119.406 104.601 119.752 102.76 120.159 100.997C121.485 102.065 123.253 102.399 124.059 102.548C127.142 103.118 131.647 103.118 137.351 103.118C138.633 103.118 139.844 103.118 140.991 103.111L137.104 104.46C129.842 106.155 128.257 113.259 128.194 113.561C128.147 113.78 128.159 114.007 128.229 114.219C128.299 114.432 128.424 114.622 128.592 114.77L128.94 115.079L119.697 153.263C119.55 153.122 119.399 152.986 119.242 152.855ZM160.109 131.933H139.838L139.557 129.661H160.389L160.109 131.933ZM128.349 156.026H127.67L136.961 129.273L137.412 132.926C136.261 134.91 131.269 143.945 128.349 156.026ZM136.209 123.726L124.758 156.698C124.742 156.744 124.729 156.79 124.718 156.837C124.625 157.249 124.372 157.608 124.015 157.835C123.658 158.061 123.225 158.137 122.812 158.046C122.8 158.043 122.787 158.044 122.775 158.041L121.627 156.042L131.083 116.978L135.979 121.317L136.263 123.611C136.244 123.65 136.223 123.686 136.209 123.726ZM125.383 170.377C125.285 169.102 125.199 167.826 125.123 166.549L125.829 166.271C125.998 166.204 126.151 166.102 126.277 165.971C126.403 165.84 126.499 165.684 126.56 165.512C126.62 165.341 126.642 165.159 126.625 164.978C126.609 164.797 126.553 164.622 126.463 164.464L124.179 160.487C124.71 160.35 125.209 160.109 125.647 159.777C126.084 159.446 126.452 159.031 126.727 158.557H127.778C126.859 162.957 126.251 167.701 126.208 172.616L125.383 170.377ZM138.616 209.758L138.668 210.089H138.616V209.758ZM141.909 214.136C141.079 209.38 137.715 189.232 137.532 174.44H145.942L145.952 214.136H141.909ZM148.472 174.44H148.985C148.828 176.239 148.658 178.036 148.473 179.831L148.472 174.44ZM128.744 171.91C129.128 153.773 137.619 137.723 139.452 134.464H160.497C162.33 137.721 170.82 153.752 171.204 171.91H128.744ZM162.987 129.273L163.058 129.475H162.962L162.987 129.273ZM161.932 119.742C161.701 119.946 161.553 120.228 161.516 120.534L160.702 127.131H139.246L138.432 120.534C138.394 120.228 138.246 119.946 138.016 119.742L130.865 113.405C131.396 111.814 133.135 107.958 137.736 106.912C137.781 106.902 142.934 105.116 142.934 105.116C143.199 107.655 144.407 111.336 149.974 111.336C155.534 111.336 156.746 107.661 157.013 105.116C157.013 105.116 162.167 106.902 162.212 106.912C166.816 107.959 168.553 111.817 169.082 113.405L161.932 119.742ZM156.291 102.186V101.87C156.665 101.56 157.018 101.227 157.348 100.871H158.702C158.656 101.573 158.614 102.276 158.575 102.978L156.291 102.186ZM159.168 98.3409C160.68 95.6209 161.532 92.0618 161.532 87.9187C161.532 87.1895 161.511 86.477 161.47 85.8014L161.465 85.8019C161.446 85.4809 161.306 85.179 161.072 84.958C160.838 84.7371 160.529 84.6137 160.208 84.6132H153.282L151.103 80.3011L151.099 80.3026C150.979 80.0612 150.784 79.8649 150.544 79.7424C150.396 79.6674 150.234 79.6222 150.068 79.6097C149.903 79.5972 149.736 79.6174 149.578 79.6693C149.42 79.7212 149.274 79.8037 149.148 79.9121C149.022 80.0205 148.919 80.1527 148.844 80.3011L146.665 84.6132H139.739C139.418 84.6137 139.108 84.7371 138.875 84.958C138.641 85.179 138.501 85.4809 138.482 85.8019L138.477 85.8014C138.435 86.5064 138.414 87.2125 138.415 87.9187C138.415 92.0618 139.266 95.6209 140.779 98.3409H134.329C134.378 95.5799 134.593 93.043 134.963 90.7177C134.969 90.6818 134.977 90.6459 134.98 90.6099C135.163 89.4764 135.674 87.2644 135.683 87.2108C136.431 84.305 138.857 79.7713 138.863 79.7627C139.59 78.6767 140.4 77.7091 141.299 76.8746C145.352 73.1187 149.941 73.4092 149.977 73.4092C150.012 73.4092 154.512 73.0782 158.597 76.8291C163.079 80.9438 165.438 88.1768 165.617 98.3404L159.168 98.3409ZM128.392 30.1912V27.7054C130.468 27.1523 135.107 25.5734 137.351 22.0918C139.595 25.5734 144.234 27.1523 146.309 27.7054V30.1912C146.309 37.2445 142.291 42.9832 137.351 42.9832C132.411 42.9832 128.392 37.245 128.392 30.1912ZM121.956 39.6944C118.052 33.941 121.968 23.9126 122.008 23.8119C122.067 23.6631 122.098 23.5037 122.098 23.3438C122.098 19.4588 123.266 16.3643 125.57 14.1457C129.992 9.88829 137.228 10.112 137.301 10.114C137.32 10.115 137.336 10.111 137.355 10.1115C137.371 10.1115 137.386 10.115 137.402 10.114C137.47 10.1104 144.678 9.87007 149.12 14.1351C151.432 16.3546 152.604 19.4532 152.604 23.3438C152.604 23.5037 152.635 23.6631 152.694 23.8119C152.734 23.9126 156.649 33.941 152.746 39.6944C151.05 42.1922 148.034 43.5631 143.777 43.7858V42.8865C146.829 40.1296 148.84 35.4673 148.84 30.1912V26.705H148.839C148.839 26.4106 148.736 26.1254 148.549 25.8985C148.361 25.6716 148.1 25.5172 147.811 25.4621C147.719 25.4444 138.616 23.6459 138.616 17.7777C138.616 17.4421 138.483 17.1203 138.246 16.8831C138.008 16.6458 137.687 16.5125 137.351 16.5125C137.016 16.5125 136.694 16.6458 136.457 16.8831C136.219 17.1203 136.086 17.4421 136.086 17.7777C136.086 23.611 127.026 25.4363 126.891 25.4626C126.602 25.5179 126.341 25.6722 126.154 25.8991C125.966 26.126 125.864 26.4112 125.864 26.7055H125.863V30.1917C125.863 35.4678 127.873 40.1296 130.925 42.8865V43.7863C126.667 43.5631 123.651 42.1922 121.956 39.6944ZM132.484 51.4819C132.761 51.4156 133.007 51.2582 133.183 51.035C133.359 50.8118 133.454 50.5359 133.454 50.2516V44.6051C134.672 45.1921 135.983 45.5135 137.35 45.5135C138.717 45.5135 140.029 45.1921 141.246 44.6051V50.2511C141.246 50.5354 141.341 50.8113 141.517 51.0345C141.693 51.2577 141.939 51.4151 142.216 51.4814L147.976 52.8634C147.334 56.3541 143.232 58.639 137.35 58.639C131.468 58.639 127.367 56.3546 126.724 52.8634L132.484 51.4819ZM123.252 53.6974L124.257 53.456C124.433 54.3582 124.771 55.2211 125.254 56.0029C123.229 55.7772 121.524 55.927 120.381 56.1897C119.925 55.9402 119.452 55.7241 118.966 55.5429C120.273 54.678 121.725 54.053 123.252 53.6974ZM115.7 54.8856C115.619 54.8819 115.539 54.8791 115.458 54.877L116.621 51.538C117.028 52.1103 117.388 52.7145 117.697 53.3446C116.992 53.8049 116.324 54.3201 115.7 54.8856ZM107.774 45.8303C110.848 46.6278 113.073 47.9248 114.693 49.3817L112.676 55.1715C109.946 55.824 107.58 57.519 106.083 59.894C106.005 60.018 105.941 60.148 105.867 60.274L103.282 58.637C102.939 58.4194 102.697 58.0749 102.608 57.679C102.519 57.283 102.591 56.8679 102.807 56.5247C103.025 56.1819 103.369 55.9395 103.765 55.8506C104.161 55.7617 104.577 55.8336 104.92 56.0505C105.203 56.2228 105.543 56.277 105.866 56.2014C106.189 56.1258 106.469 55.9265 106.646 55.6463C106.824 55.3661 106.884 55.0275 106.815 54.7032C106.745 54.3789 106.551 54.095 106.274 53.9124C105.81 53.6188 105.291 53.4226 104.749 53.3358C104.206 53.2491 103.652 53.2736 103.12 53.4079C103.275 53.2835 103.399 53.1239 103.481 52.9424C103.563 52.7608 103.601 52.5624 103.592 52.3634L103.131 43.6234C103.13 43.6234 107.694 45.81 107.774 45.8303ZM75.7527 10.7132C76.4263 6.50532 77.0624 2.53077 89.3716 2.53027C101.681 2.53077 102.318 6.50532 102.992 10.7132C104.088 17.5601 103.418 21.0812 102.572 22.8726V20.4871C102.572 20.1515 102.438 19.8298 102.201 19.5925C101.964 19.3552 101.642 19.2219 101.306 19.2219H101.047C101.242 16.0966 101.144 11.12 99.7665 9.74255C98.2888 8.26487 96.8951 9.02091 95.7732 9.62666C94.5268 10.3002 92.8194 11.2233 89.3716 11.2238C85.9244 11.2233 84.217 10.3002 82.97 9.62666C81.8486 9.02041 80.4534 8.26689 78.9768 9.74255C77.5993 11.12 77.5016 16.0966 77.6965 19.2219H77.4369C77.1013 19.2219 76.7795 19.3552 76.5423 19.5925C76.305 19.8298 76.1717 20.1515 76.1717 20.4871V22.8721C75.3256 21.0807 74.6566 17.5596 75.7527 10.7132ZM70.9705 45.8303C71.0499 45.8095 75.5918 43.634 75.5918 43.634L75.1232 52.8897C75.1121 53.1066 75.1572 53.3227 75.2539 53.5172C75.3506 53.7117 75.4957 53.878 75.6754 54.0001C75.855 54.1223 76.063 54.1961 76.2794 54.2145C76.4959 54.2329 76.7134 54.1953 76.9111 54.1052L83.2307 51.2268L85.5706 55.7874L82.5429 98.7265C82.5205 99.042 82.6173 99.3544 82.8142 99.602L88.1045 106.265V110.332H79.1306L72.5661 80.6963C72.5479 80.6164 72.2427 79.3118 71.43 77.5451V70.7807C71.43 70.7529 71.3682 70.3895 71.3596 70.3648L64.0492 49.3772C65.6564 47.939 67.881 46.6318 70.9705 45.8303ZM59.9314 56.8349C59.9492 56.6487 60.227 54.1675 62.1181 51.5264L68.8567 70.8728L68.4564 72.8965C66.1893 70.2883 63.3093 68.5227 60.022 67.75L57.8971 67.2404C57.8976 67.2399 59.9279 56.8754 59.9314 56.8349ZM44.6582 45.0509C44.6493 44.7223 44.5125 44.4101 44.2771 44.1806C44.0416 43.9512 43.7259 43.8226 43.3971 43.8222H36.9121C38.4803 43.0282 40.6361 41.6447 41.923 39.5749C43.05 41.1407 45.0702 42.8238 48.6561 43.8222H47.272C46.9431 43.8225 46.6274 43.951 46.3918 44.1805C46.1562 44.4099 46.0194 44.7222 46.0104 45.0509H44.6582ZM35.8575 46.3525H42.1315V47.8317C42.131 48.347 41.9261 48.841 41.5618 49.2054C41.1975 49.5698 40.7035 49.7748 40.1883 49.7754H37.8007C37.2854 49.7749 36.7913 49.57 36.4268 49.2055C36.0624 48.8411 35.8575 48.347 35.8569 47.8317L35.8575 46.3525ZM48.5371 46.3525H54.8117V47.8317C54.8112 48.347 54.6062 48.8411 54.2418 49.2055C53.8774 49.57 53.3833 49.7749 52.8679 49.7754H50.4809C49.9655 49.7749 49.4713 49.57 49.1069 49.2056C48.7424 48.8412 48.5373 48.3471 48.5366 47.8317L48.5371 46.3525ZM39.8001 27.8183C39.8001 24.7668 42.2828 22.2836 45.3353 22.2836C48.3868 22.2836 50.8695 24.7663 50.8695 27.8183C50.8695 28.4013 50.7673 28.9741 50.5897 29.5222C49.0108 28.8208 47.231 28.4301 45.3353 28.4301C43.4397 28.4301 41.6594 28.8208 40.08 29.5227C39.8981 28.9727 39.8037 28.3976 39.8001 27.8183ZM45.3353 30.9604C50.6469 30.9604 54.8082 34.772 54.8082 39.6377L54.8122 42.1603C43.5216 41.7606 43.0313 36.0194 43.0156 35.782C42.9918 35.0928 42.4093 34.5377 41.7292 34.562C41.3975 34.5678 41.0814 34.7037 40.849 34.9403C40.6165 35.1769 40.4863 35.4954 40.4863 35.8271C40.4863 38.6605 37.7218 40.5592 35.8575 41.5177L35.8625 39.6382C35.8625 34.772 40.0233 30.9604 45.3353 30.9604ZM36.3751 52.0689C36.8342 52.225 37.3158 52.305 37.8007 52.3057H40.1883C42.6548 52.3057 44.6618 50.2987 44.6618 47.8317V47.5812H46.0064V47.8317C46.0064 50.2987 48.0139 52.3057 50.4809 52.3057H52.8679C53.3528 52.3048 53.8344 52.2248 54.2935 52.0689C53.0117 56.8324 49.4809 60.2649 45.3348 60.2649C41.1882 60.2649 37.658 56.8324 36.3751 52.0689ZM40.4681 67.9949C40.7445 67.9286 40.9905 67.7712 41.1665 67.548C41.3425 67.3248 41.4382 67.0489 41.4382 66.7647V61.9977C42.6613 62.5123 43.971 62.7957 45.3348 62.7957C46.6976 62.7957 48.0073 62.5123 49.2294 61.9987V66.7652C49.2294 67.0494 49.3251 67.3253 49.5011 67.5485C49.6771 67.7717 49.9231 67.9291 50.1995 67.9954L52.6868 68.592L49.7188 77.1686H40.9499L37.9819 68.592L40.4681 67.9949ZM45.3348 89.8372L41.8258 79.6984H48.8438L45.3348 89.8372ZM20.5706 81.2576C20.6065 81.1017 21.0053 79.4555 22.0933 77.4591L27.6508 83.2312C25.9525 87.3899 26.2237 90.5345 26.9929 93.1235L15.9655 131.634L9.86552 129.584L20.5706 81.2576ZM14.1493 137.978C14.1427 138.001 13.7672 139.57 12.8082 139.922C12.0567 140.198 11.327 140.488 10.5477 140.312C10.1633 140.226 9.79965 140.065 9.47791 139.838C9.15616 139.611 8.88267 139.322 8.67325 138.989C8.46177 138.655 8.31852 138.284 8.2518 137.895C8.18509 137.506 8.19624 137.107 8.28461 136.723L8.52549 135.635C8.95755 135.98 9.30644 136.418 9.54629 136.916C9.78614 137.414 9.91081 137.96 9.91106 138.513C9.91106 138.849 10.0444 139.17 10.2816 139.408C10.5189 139.645 10.8407 139.778 11.1762 139.778C11.5117 139.778 11.8335 139.645 12.0708 139.408C12.308 139.17 12.4413 138.849 12.4413 138.513C12.4413 136.124 11.0866 134.05 9.10694 133.008L9.31493 132.068L15.2681 134.069L14.1493 137.978ZM30.8025 104.237C32.8282 100.774 31.6491 97.9831 30.5085 95.2844C29.1877 92.1574 27.8208 88.9243 30.2974 83.4837C30.4025 83.2529 30.4357 82.9958 30.3929 82.7458C30.35 82.4959 30.233 82.2646 30.0571 82.0819L23.5067 75.279C25.1408 73.1486 27.6007 71.0651 31.2357 70.2104L35.5088 69.1851L44.0692 93.918V124.175H24.8123C24.8786 121.231 25.578 113.167 30.8025 104.237ZM44.0702 213.069H38.5512C35.9404 198.639 34.4911 184.728 33.7138 175.108H44.0697L44.0702 213.069ZM37.5335 215.599H44.0702V220.033H32.5519C33.6809 215.951 37.0598 215.625 37.5335 215.599ZM58.1172 220.033H46.6005V215.599H53.1346C53.6022 215.624 56.9872 215.947 58.1172 220.033ZM52.118 213.069H46.6005V175.108H56.9553C56.178 184.728 54.7287 198.639 52.118 213.069ZM61.9314 172.578H28.7378C23.8812 143.363 24.3842 130.274 24.6909 126.705H65.9818C66.2925 130.254 66.8052 143.259 61.9314 172.578ZM46.6 124.174V93.9175L55.1594 69.1846L59.438 70.2114C62.5452 70.9417 65.1281 72.6582 67.1432 75.2993L60.6111 82.0819C60.4352 82.2646 60.3183 82.4959 60.2755 82.7459C60.2326 82.9958 60.2658 83.2528 60.3707 83.4837C62.8473 88.9243 61.4805 92.158 60.1597 95.2844C59.019 97.9831 57.8399 100.775 59.8657 104.237C65.0724 113.135 65.7814 121.224 65.8528 124.174H46.6ZM62.4248 103.619C62.3008 103.399 62.1793 103.18 62.0503 102.959C60.8975 100.989 61.2355 99.4021 61.9916 97.4796L62.9971 100.905L62.4248 103.619ZM74.0787 138.647C74.4052 140.061 75.2792 141.289 76.5093 142.061C77.1221 142.451 77.8062 142.715 78.5219 142.838C79.2376 142.961 79.9707 142.942 80.6786 142.78C83.6517 142.108 85.5246 139.144 84.8551 136.176L80.6893 117.367H91.4085C88.7289 119.596 86.4851 123.511 86.1035 130.29C86.1 130.33 86.0919 130.369 86.0919 130.409C86.0919 130.42 86.0949 130.43 86.0954 130.44C86.0603 131.081 86.0421 131.723 86.0408 132.364C86.0408 135.129 86.5838 137.74 87.5407 140.049L86.9836 150.183C80.7591 151.112 78.8831 154.534 78.5633 155.236L73.2639 164.463C73.1734 164.621 73.118 164.796 73.1013 164.977C73.0846 165.158 73.1071 165.34 73.1672 165.512C73.2273 165.683 73.3236 165.84 73.4497 165.971C73.5757 166.102 73.7284 166.204 73.8975 166.271L75.608 166.944L71.431 178.286V129.625L74.0787 138.647ZM81.6882 169.34L75.6697 183.049C75.6528 183.088 75.6377 183.127 75.6247 183.168C75.5275 183.469 74.7927 183.734 73.9061 183.448C73.02 183.16 72.5803 182.514 72.6612 182.26L77.9616 167.872L81.6882 169.34ZM71.43 211.263V184.911C71.927 185.335 72.5037 185.656 73.1263 185.855C73.6236 186.018 74.1433 186.102 74.6667 186.104C76.2173 186.104 77.5482 185.324 78.0087 184.017L84.0449 170.268L84.1805 170.321C84.4697 170.435 84.7907 170.439 85.0823 170.331C85.3739 170.223 85.6157 170.012 85.7614 169.738L85.9249 169.429L83.6254 211.262H71.43V211.263ZM111.182 186.1V200.879H102.119L101.122 190.848C101.09 190.536 100.944 190.247 100.711 190.037C100.479 189.826 100.176 189.71 99.8629 189.71C99.5493 189.71 99.247 189.826 99.0145 190.037C98.782 190.247 98.6359 190.536 98.6046 190.848L97.6071 200.879H88.5442V186.1H111.182ZM88.7183 214.528C87.7092 214.703 86.8307 215.086 86.0873 215.666V212.561L86.6015 203.209C86.7978 203.334 87.0296 203.409 87.2791 203.409H87.8469L88.7183 214.528ZM91.2476 214.416L90.3847 203.409H96.1143V214.416H91.2476ZM98.6446 213.793H101.081V220.033H98.6446V213.793ZM101.081 211.263H98.6451V203.409H98.7528C99.23 203.409 99.6486 203.143 99.8631 202.745C99.9711 202.946 100.131 203.114 100.327 203.23C100.522 203.347 100.746 203.409 100.973 203.409H101.081V211.263ZM67.1498 220.033C67.2647 218.742 67.6563 216.684 68.9539 215.31C69.9169 214.289 71.218 213.793 72.9294 213.793H83.5566V220.033H67.1498ZM87.3358 217.933C87.9835 217.269 88.8807 216.947 90.0781 216.947H96.1148V220.033H86.2973C86.4411 219.363 86.7361 218.547 87.3358 217.933ZM103.611 220.033V216.947H109.648C110.845 216.947 111.743 217.27 112.39 217.933C112.991 218.547 113.285 219.363 113.429 220.032H103.611V220.033ZM108.478 214.416H103.611V203.409H109.341L108.478 214.416ZM113.565 163.591C113.432 163.342 113.22 163.145 112.962 163.03C112.704 162.915 112.415 162.89 112.142 162.958C111.868 163.026 111.625 163.184 111.451 163.406C111.277 163.629 111.182 163.902 111.182 164.185V183.569H88.5442V164.185C88.5445 163.902 88.4502 163.628 88.2763 163.405C88.1025 163.182 87.859 163.024 87.5849 162.956C87.3107 162.887 87.0216 162.913 86.7636 163.028C86.5056 163.143 86.2935 163.341 86.1612 163.591L84.056 167.553L76.1864 164.453C76.1864 164.453 80.8471 156.325 80.8674 156.277C80.918 156.157 82.2854 153.43 87.7219 152.627C87.7487 152.623 93.3527 151.545 93.3527 151.545C94.4311 153.158 97.0798 154.682 99.8555 154.682H99.8707C102.645 154.682 105.293 153.159 106.372 151.545L108.322 151.92C108.324 151.921 108.327 151.921 108.329 151.922L111.924 152.614C111.951 152.619 111.978 152.624 112.005 152.627C117.559 153.328 119.198 156.892 119.198 156.892L119.225 156.938L123.54 164.454L115.671 167.553L113.565 163.591ZM124.101 183.168C124.088 183.128 124.073 183.088 124.056 183.05L118.038 169.34L121.764 167.872L127.047 182.213C127.144 182.514 126.705 183.161 125.819 183.448C124.933 183.735 124.199 183.469 124.101 183.168ZM133.531 220.033H126.607C129.179 217.347 130.186 214.247 130.561 212.62H136.085V216.021C134.798 217.209 133.972 218.751 133.531 220.033ZM136.262 220.029C136.928 218.592 138.296 216.672 140.85 216.666H145.952L145.953 220.008L136.262 220.029ZM148.484 220.033V219.425C148.676 219.631 148.867 219.838 149.066 220.033H148.484ZM148.483 215.323L148.478 199.515C149.775 191.119 150.78 182.881 151.477 174.989L151.465 218.794C150.351 217.824 149.354 216.664 148.483 215.323ZM153.995 220.008L153.996 216.666H159.096C161.652 216.672 163.02 218.593 163.685 220.029L153.995 220.008ZM173.202 220.033H166.416C165.823 218.31 164.536 216.112 162.363 214.947C162.794 214.86 163.232 214.817 163.671 214.818H173.202V220.033ZM174.762 212.288H162.427V202.451C163.595 194.143 164.838 183.347 164.946 174.44H172.482C172.817 174.44 173.139 174.307 173.376 174.07C173.614 173.832 173.747 173.511 173.747 173.175C173.747 153.121 164.186 135.77 162.536 132.926L162.65 132.005H163.936L172.779 157.466C172.983 158.313 173.451 159.073 174.116 159.636C174.781 160.199 175.609 160.535 176.478 160.595L174.762 212.288ZM183.694 220.033V214.818H193.225C194.773 214.818 195.94 215.257 196.796 216.159C197.869 217.291 198.228 218.929 198.344 220.033H183.694ZM182.135 212.288L180.352 158.558C180.879 157.655 181.042 156.586 180.808 155.568L180.163 152.901L179.708 141.6C179.707 141.576 179.732 140.45 178.513 140.45C177.297 140.45 177.318 141.073 177.306 141.096L175.106 132.005H194.47V212.288H182.135ZM196.975 88.1232C196.91 87.8004 196.722 87.5154 196.451 87.3289C196.18 87.1424 195.846 87.069 195.522 87.1242C195.197 87.1795 194.907 87.3591 194.713 87.6249C194.519 87.8907 194.436 88.2218 194.482 88.5478C194.516 88.7988 197.749 112.73 194.914 129.475H174.493L171.008 115.079L171.355 114.771C171.522 114.623 171.647 114.433 171.717 114.221C171.787 114.008 171.799 113.781 171.753 113.563C171.689 113.26 170.105 106.156 162.844 104.461L161.062 103.843C161.113 102.852 161.172 101.862 161.237 100.872H166.893C167.229 100.872 167.551 100.738 167.788 100.501C168.025 100.264 168.159 99.9421 168.159 99.6066C168.159 88.0392 165.518 79.749 160.308 74.9663C158.13 72.9664 155.868 71.9365 154.006 71.4097C155.379 69.5763 157.773 67.5324 161.914 66.4874C161.945 66.4798 165.22 65.3827 165.22 65.3827L165.545 72.6885C165.554 72.8943 165.613 73.0947 165.718 73.2724C165.822 73.4501 165.968 73.5997 166.143 73.7082C166.318 73.8167 166.517 73.8808 166.722 73.8949C166.928 73.909 167.133 73.8727 167.322 73.7892L168.128 73.4319C168.936 75.8974 170.982 78.9763 174.999 80.1549C175.016 80.1599 175.03 80.168 175.047 80.1726C175.056 80.1751 175.065 80.1741 175.074 80.1761C175.541 80.3097 176.994 80.6796 178.448 80.6796C179.902 80.6796 181.355 80.3097 181.823 80.1761C181.832 80.1741 181.841 80.1751 181.85 80.1726C181.867 80.168 181.88 80.1599 181.897 80.1549C185.915 78.9763 187.96 75.8979 188.769 73.4319L189.575 73.7892C189.763 73.8728 189.969 73.909 190.174 73.8948C190.38 73.8806 190.579 73.8164 190.753 73.7077C190.928 73.5993 191.074 73.4498 191.179 73.2722C191.283 73.0946 191.342 72.8942 191.351 72.6885L191.677 65.3827C191.677 65.3827 194.952 66.4793 194.983 66.4874C204.072 68.7803 204.879 75.7805 204.909 76.071C204.913 76.1166 214.719 124.771 214.719 124.771H204.427L196.975 88.1232ZM208.772 135.071L208.091 132.005H214.426L214.5 132.551C212.32 133.197 210.635 135.005 210.172 137.256C209.135 136.839 208.78 135.106 208.772 135.071ZM212.706 137.554C212.848 137.028 213.106 136.539 213.459 136.124C213.812 135.709 214.253 135.377 214.75 135.152C214.691 135.652 214.498 136.128 214.192 136.528C213.815 137.016 213.295 137.374 212.706 137.554Z" fill="black"/>
<path d="M89.4234 34.7576C92.0984 34.7576 93.9663 33.6711 93.9663 32.1145C93.967 31.8049 93.854 31.5057 93.6489 31.2737C93.4438 31.0417 93.1607 30.893 92.8533 30.8558C92.5458 30.8186 92.2354 30.8954 91.9809 31.0717C91.7263 31.248 91.5452 31.5115 91.4719 31.8124C91.226 31.9642 90.5241 32.2274 89.4229 32.2274C88.3212 32.2274 87.6199 31.9642 87.3739 31.8129C87.299 31.5137 87.1173 31.2521 86.8632 31.0773C86.609 30.9025 86.2997 30.8265 85.9935 30.8636C85.6872 30.9007 85.405 31.0483 85.1999 31.2787C84.9948 31.5092 84.8809 31.8066 84.8796 32.115C84.8801 33.6711 86.7484 34.7576 89.4234 34.7576ZM82.4131 24.9109C82.7471 24.9109 83.0709 24.7793 83.3093 24.5414C83.5421 24.3036 83.6782 23.9797 83.6782 23.6457C83.6782 23.3168 83.5416 22.9878 83.3093 22.7551C82.8382 22.2844 81.9885 22.2794 81.5179 22.7551C81.2851 22.9878 81.1484 23.3117 81.1484 23.6457C81.1484 23.9797 81.2856 24.3086 81.5179 24.5414C81.7552 24.7793 82.0791 24.9109 82.4131 24.9109ZM96.4308 24.9109C96.7648 24.9109 97.0886 24.7793 97.3265 24.5414C97.5648 24.3086 97.6959 23.9797 97.6959 23.6457C97.6959 23.3168 97.5643 22.9878 97.3265 22.75C96.8558 22.2844 96.0107 22.2794 95.5406 22.75C95.3023 22.9878 95.1661 23.3117 95.1661 23.6457C95.1661 23.9797 95.3028 24.3086 95.5406 24.5414C95.7734 24.7793 96.1018 24.9109 96.4308 24.9109Z" fill="black"/>
</svg>
